<svg width="160" height="40" viewBox="0 0 160 40" fill="none" xmlns="http://www.w3.org/2000/svg">
    <g clip-path="url(#clip0_930_101036)">
        <path
            d="M41.8637 13.8656H57.9934V16.875H51.6512V33.7922H48.1637V16.875H41.8496V13.8656H41.8637ZM57.3043 19.364H60.2855V22.1484H60.3418C60.4402 21.7547 60.623 21.375 60.8902 21.0093C61.1574 20.6437 61.4809 20.2922 61.8605 19.9968C62.2402 19.6875 62.6621 19.4484 63.1262 19.2515C63.5902 19.0687 64.0684 18.9703 64.5465 18.9703C64.9121 18.9703 65.1793 18.9843 65.3199 18.9984C65.4605 19.0125 65.6012 19.0406 65.7559 19.0547V22.1203C65.5309 22.0781 65.3059 22.05 65.0668 22.0218C64.8277 21.9937 64.6027 21.9797 64.3777 21.9797C63.8434 21.9797 63.3371 22.0922 62.859 22.3031C62.3809 22.514 61.973 22.8375 61.6215 23.2453C61.2699 23.6672 60.9887 24.1734 60.7777 24.7922C60.5668 25.4109 60.4684 26.114 60.4684 26.9156V33.7781H57.2902V19.364H57.3043ZM80.3668 33.7922H77.2449V31.7812H77.1887C76.7949 32.5125 76.2184 33.089 75.4449 33.525C74.6715 33.9609 73.884 34.1859 73.0824 34.1859C71.184 34.1859 69.8059 33.7218 68.9621 32.7797C68.1184 31.8375 67.6965 30.4172 67.6965 28.5187V19.364H70.8746V28.2093C70.8746 29.475 71.1137 30.375 71.6059 30.8953C72.084 31.4156 72.773 31.6828 73.6449 31.6828C74.3199 31.6828 74.8684 31.5843 75.3184 31.3734C75.7684 31.1625 76.134 30.8953 76.4012 30.5437C76.6824 30.2062 76.8793 29.7843 77.0059 29.3062C77.1324 28.8281 77.1887 28.3078 77.1887 27.7453V19.3781H80.3668V33.7922ZM85.7809 29.1656C85.8793 30.0937 86.2309 30.7406 86.8355 31.1203C87.4543 31.4859 88.1855 31.6828 89.0434 31.6828C89.3387 31.6828 89.6762 31.6547 90.0559 31.6125C90.4356 31.5703 90.8012 31.4718 91.1246 31.3453C91.4621 31.2187 91.7293 31.0218 91.9543 30.7687C92.1652 30.5156 92.2637 30.1922 92.2496 29.7843C92.2355 29.3765 92.0809 29.039 91.7996 28.7859C91.5184 28.5187 91.1668 28.3218 90.7309 28.1531C90.2949 27.9984 89.8027 27.8578 89.2402 27.7453C88.6777 27.6328 88.1152 27.5062 87.5387 27.3797C86.948 27.2531 86.3715 27.0843 85.823 26.9015C85.2746 26.7187 84.7824 26.4656 84.3465 26.1422C83.9105 25.8328 83.559 25.425 83.3059 24.9328C83.0387 24.4406 82.9121 23.8359 82.9121 23.1047C82.9121 22.3172 83.109 21.6703 83.4887 21.1359C83.8684 20.6015 84.3605 20.1797 84.9371 19.8562C85.5277 19.5328 86.1746 19.3078 86.8918 19.1672C87.609 19.0406 88.298 18.9703 88.9449 18.9703C89.6902 18.9703 90.4074 19.0547 91.0824 19.2093C91.7574 19.364 92.3762 19.6172 92.9246 19.9828C93.473 20.3343 93.923 20.7984 94.2887 21.3609C94.6543 21.9234 94.8793 22.6125 94.9777 23.414H91.659C91.5043 22.6547 91.1668 22.1343 90.6184 21.8812C90.0699 21.614 89.4371 21.4875 88.734 21.4875C88.509 21.4875 88.2418 21.5015 87.9324 21.5437C87.623 21.5859 87.3418 21.6562 87.0605 21.7547C86.7934 21.8531 86.5684 22.0078 86.3715 22.2047C86.1887 22.4015 86.0902 22.6547 86.0902 22.9781C86.0902 23.3718 86.2309 23.6812 86.498 23.9203C86.7652 24.1593 87.1168 24.3562 87.5527 24.525C87.9887 24.6797 88.4809 24.8203 89.0434 24.9328C89.6059 25.0453 90.1824 25.1718 90.773 25.2984C91.3496 25.425 91.9121 25.5937 92.4746 25.7765C93.0371 25.9593 93.5293 26.2125 93.9652 26.5359C94.4012 26.8593 94.7527 27.2531 95.0199 27.7312C95.2871 28.2093 95.4277 28.814 95.4277 29.5172C95.4277 30.375 95.2309 31.0922 94.8371 31.6968C94.4434 32.2875 93.9371 32.7797 93.3184 33.1453C92.6996 33.5109 91.9965 33.7922 91.2371 33.9609C90.4777 34.1297 89.7184 34.214 88.973 34.214C88.059 34.214 87.2152 34.1156 86.4418 33.9047C85.6684 33.6937 84.9934 33.3843 84.4309 32.9765C83.8684 32.5547 83.4184 32.0343 83.0949 31.4156C82.7715 30.7968 82.6027 30.0515 82.5746 29.1937H85.7809V29.1656ZM96.2715 19.364H98.6762V15.0328H101.854V19.364H104.723V21.7406H101.854V29.4468C101.854 29.7843 101.868 30.0656 101.896 30.3187C101.925 30.5578 101.995 30.7687 102.093 30.9375C102.192 31.1062 102.346 31.2328 102.557 31.3172C102.768 31.4015 103.036 31.4437 103.401 31.4437C103.626 31.4437 103.851 31.4437 104.076 31.4297C104.301 31.4156 104.526 31.3875 104.751 31.3312V33.7922C104.4 33.8343 104.048 33.8625 103.725 33.9047C103.387 33.9468 103.05 33.9609 102.698 33.9609C101.854 33.9609 101.179 33.8765 100.673 33.7218C100.167 33.5672 99.759 33.3281 99.4777 33.0187C99.1824 32.7093 98.9996 32.3297 98.8871 31.8656C98.7887 31.4015 98.7184 30.8672 98.7043 30.2765V21.7687H96.2996V19.364H96.2715ZM106.973 19.364H109.982V21.3187H110.039C110.489 20.475 111.107 19.8843 111.909 19.5187C112.711 19.1531 113.568 18.9703 114.511 18.9703C115.65 18.9703 116.634 19.1672 117.478 19.575C118.321 19.9687 119.025 20.5172 119.587 21.2203C120.15 21.9234 120.557 22.739 120.839 23.6672C121.12 24.5953 121.261 25.5937 121.261 26.6484C121.261 27.6187 121.134 28.5609 120.881 29.4609C120.628 30.375 120.248 31.1765 119.742 31.8797C119.236 32.5828 118.589 33.1312 117.801 33.5531C117.014 33.975 116.1 34.1859 115.031 34.1859C114.567 34.1859 114.103 34.1437 113.639 34.0593C113.175 33.975 112.725 33.8343 112.303 33.6515C111.881 33.4687 111.473 33.2297 111.121 32.9343C110.756 32.639 110.461 32.3015 110.207 31.9218H110.151V39.1218H106.973V19.364ZM118.082 26.5922C118.082 25.9453 117.998 25.3125 117.829 24.6937C117.661 24.075 117.407 23.5406 117.07 23.0625C116.732 22.5843 116.311 22.2047 115.818 21.9234C115.312 21.6422 114.736 21.4875 114.089 21.4875C112.753 21.4875 111.74 21.9515 111.065 22.8797C110.39 23.8078 110.053 25.0453 110.053 26.5922C110.053 27.3234 110.137 27.9984 110.32 28.6172C110.503 29.2359 110.756 29.7703 111.121 30.2203C111.473 30.6703 111.895 31.0218 112.387 31.275C112.879 31.5422 113.456 31.6687 114.103 31.6687C114.834 31.6687 115.439 31.514 115.945 31.2187C116.451 30.9234 116.859 30.5297 117.182 30.0656C117.506 29.5875 117.745 29.0531 117.886 28.4484C118.012 27.8437 118.082 27.225 118.082 26.5922ZM123.693 13.8656H126.871V16.875H123.693V13.8656ZM123.693 19.364H126.871V33.7922H123.693V19.364ZM129.712 13.8656H132.89V33.7922H129.712V13.8656ZM142.636 34.1859C141.482 34.1859 140.456 33.989 139.556 33.6093C138.656 33.2297 137.896 32.6953 137.264 32.0343C136.645 31.3593 136.167 30.5578 135.843 29.6297C135.52 28.7015 135.351 27.675 135.351 26.564C135.351 25.4672 135.52 24.4547 135.843 23.5265C136.167 22.5984 136.645 21.7968 137.264 21.1218C137.882 20.4468 138.656 19.9265 139.556 19.5468C140.456 19.1672 141.482 18.9703 142.636 18.9703C143.789 18.9703 144.815 19.1672 145.715 19.5468C146.615 19.9265 147.375 20.4609 148.007 21.1218C148.626 21.7968 149.104 22.5984 149.428 23.5265C149.751 24.4547 149.92 25.4672 149.92 26.564C149.92 27.675 149.751 28.7015 149.428 29.6297C149.104 30.5578 148.626 31.3593 148.007 32.0343C147.389 32.7093 146.615 33.2297 145.715 33.6093C144.815 33.989 143.789 34.1859 142.636 34.1859ZM142.636 31.6687C143.339 31.6687 143.957 31.514 144.478 31.2187C144.998 30.9234 145.42 30.5297 145.757 30.0515C146.095 29.5734 146.334 29.025 146.503 28.4203C146.657 27.8156 146.742 27.1968 146.742 26.564C146.742 25.9453 146.657 25.3406 146.503 24.7218C146.348 24.1031 146.095 23.5687 145.757 23.0906C145.42 22.6125 144.998 22.2328 144.478 21.9375C143.957 21.6422 143.339 21.4875 142.636 21.4875C141.932 21.4875 141.314 21.6422 140.793 21.9375C140.273 22.2328 139.851 22.6265 139.514 23.0906C139.176 23.5687 138.937 24.1031 138.768 24.7218C138.614 25.3406 138.529 25.9453 138.529 26.564C138.529 27.1968 138.614 27.8156 138.768 28.4203C138.923 29.025 139.176 29.5734 139.514 30.0515C139.851 30.5297 140.273 30.9234 140.793 31.2187C141.314 31.5281 141.932 31.6687 142.636 31.6687ZM150.848 19.364H153.253V15.0328H156.431V19.364H159.3V21.7406H156.431V29.4468C156.431 29.7843 156.445 30.0656 156.473 30.3187C156.501 30.5578 156.571 30.7687 156.67 30.9375C156.768 31.1062 156.923 31.2328 157.134 31.3172C157.345 31.4015 157.612 31.4437 157.978 31.4437C158.203 31.4437 158.428 31.4437 158.653 31.4297C158.878 31.4156 159.103 31.3875 159.328 31.3312V33.7922C158.976 33.8343 158.625 33.8625 158.301 33.9047C157.964 33.9468 157.626 33.9609 157.275 33.9609C156.431 33.9609 155.756 33.8765 155.25 33.7218C154.743 33.5672 154.336 33.3281 154.054 33.0187C153.759 32.7093 153.576 32.3297 153.464 31.8656C153.365 31.4015 153.295 30.8672 153.281 30.2765V21.7687H150.876V19.364H150.848Z"
            fill="#EBF1F5" />
        <path
            d="M38.1516 13.8656H23.5828L19.0828 0L14.5687 13.8656L0 13.8516L11.7984 22.4297L7.28437 36.2812L19.0828 27.7172L30.8672 36.2812L26.3672 22.4297L38.1516 13.8656Z"
            fill="#00B67A" />
        <path d="M27.3789 25.5656L26.3664 22.4297L19.082 27.7172L27.3789 25.5656Z" fill="#005128" />
    </g>
    <defs>
        <clipPath id="clip0_930_101036">
            <rect width="159.3" height="39.1219" fill="white" />
        </clipPath>
    </defs>
</svg>
