<?xml version="1.0" encoding="UTF-8"?>
<svg id="_Слой_1" data-name="Слой 1" xmlns="http://www.w3.org/2000/svg" viewBox="0 0 196 136">
    <defs>
        <style>
            .cls-1 {
            fill: #d4d4d4;
            }
        </style>
    </defs>
    <path class="cls-1"
        d="M147.93,85.18c.48,.44,.85,.78,1.24,1.12,1.9,1.79,3.96,3.16,6.46,3.53,2.52,.37,4.99,.34,7.12-1.6,1.03-.92,1.69-2.13,1.85-3.6,.09-.69-.05-1.49-.34-2.06-.66-1.42-1.85-2.29-3.09-3-2.15-1.24-4.35-2.31-6.46-3.62-1.26-.78-2.52-1.69-3.57-2.82-2.5-2.68-2.54-6.8-.3-9.76,1.6-2.15,3.76-3.18,6.11-3.48,2.82-.41,5.66-.21,8.45,.55,.96,.27,1.01,.41,1.01,1.53,0,1.44,0,2.91-.02,4.35,0,.3-.05,.62-.09,1.03-.25-.21-.37-.34-.5-.5-1.67-1.69-3.64-2.54-5.84-2.66-1.42-.09-2.84,0-4.21,.55-.8,.34-1.51,.82-1.92,1.74-.64,1.31-.53,2.38,.37,3.48,1.05,1.31,2.38,2.11,3.78,2.82,2.38,1.26,4.83,2.47,7.17,3.92,4.51,2.84,4.31,8.11,2.73,11.06-1.26,2.38-3.16,3.92-5.38,5.02-3.16,1.53-6.41,1.33-9.64,.71-.98-.18-1.99-.46-2.95-.78-.27-.09-.62-.41-.66-.71-.46-2.13-.85-4.31-1.28-6.43-.07,0-.05-.09,0-.39Z" />
    <path class="cls-1"
        d="M47.08,93.26c.5-.64,.96-1.31,1.51-1.92,.16-.18,.5-.18,.78-.18,10.99,0,21.98,.02,32.98,.07,2.79,0,5.56,.02,8.36,.21,1.4,.09,2.79,.5,4.12,.92,1.47,.5,2.61,1.53,3.11,3.5,.16-.27,.27-.41,.32-.55,.62-1.65,1.74-2.54,3.16-3.07,2.11-.78,4.28-.89,6.46-.89,12.59-.07,25.21-.09,37.83-.16,.34,0,.66,.02,1.03-.02,.53-.09,.85,.09,.89,.78,0,.16,.05,.27,.09,.44,.25,1.26,.25,1.31-.92,1.42-.98,.09-1.95,.16-2.95,.16-12.48,.02-24.96,.02-37.44,.02-2.06,0-4.05,.5-5.79,1.83-1.24,.96-2.06,2.27-2.4,3.92-.02,.11-.05,.21-.11,.34,0,.02-.05,.07-.14,.11-.05-.18-.16-.34-.18-.53-.5-2.36-1.9-3.8-3.78-4.72-1.44-.71-3-.96-4.56-.98-6.96-.02-13.95,.02-20.91,.02-6-.02-12-.09-17.98-.18-1.12-.02-2.24-.18-3.37-.3-.09-.07-.11-.16-.11-.23Z" />
    <path class="cls-1"
        d="M80.27,76.62c.3-.02,.46-.09,.62-.09h5.04c.46,0,.62,.16,.62,.71v11.08c0,.62-.18,.92-.78,1.08-2.82,.64-5.66,.92-8.52,.73-3.02-.18-5.93-1.03-8.38-3.25-4.99-4.42-5.34-13.37-.69-18.5,2.2-2.45,4.9-3.64,7.9-4.01,2.61-.3,5.2-.21,7.76,.37,.3,.07,.53,.09,.53,.55-.05,1.44-.11,2.89-.16,4.44-.3-.09-.53-.11-.76-.21-2.45-.92-4.9-1.49-7.49-1.17-6.11,.78-8.06,7.58-5.7,12.76,1.83,3.98,4.88,5.63,8.68,5.5,.94-.02,1.88-.27,2.82-.37,.46-.07,.6-.3,.57-.8,0-1.83,.02-3.69,0-5.5,0-.34-.16-.73-.34-1.03-.53-.78-1.1-1.49-1.72-2.29Z" />
    <path class="cls-1"
        d="M104.63,88.94c.48-.46,.96-.96,1.51-1.4,.44-.37,.62-.8,.6-1.42-.02-6.07,0-12.09,0-18.14,0-.62-.16-1.08-.57-1.44-.34-.3-.66-.62-1.01-.96,.05-.07,.11-.11,.14-.16,.02-.02,.05-.09,.09-.09,1.56,0,3.11-.07,4.63,0,.32,0,.66,.41,.92,.69,3.32,3.87,6.62,7.72,9.94,11.61,.16,.18,.21,.46,.32,.69,.11-.07,.21-.16,.32-.21v-11.36c0-1.74-.09-1.42,1.24-1.44h3.94c.02,.07,.05,.11,.09,.21-.34,.3-.66,.64-1.01,.92-.57,.44-.76,.98-.76,1.79,.02,6.64,0,13.28,0,19.97v1.21c-.09,.02-.14,.09-.21,.11-4.74-5.93-9.48-11.86-14.34-17.93-.02,.44-.05,.71-.05,.96v15.73c0,.69-.14,.92-.78,.92-1.4-.07-2.82,0-4.21-.02-.21,0-.46-.02-.66-.02-.07-.07-.11-.14-.14-.21Z" />
    <path class="cls-1"
        d="M127.92,88.82c1.67-1.88,1.69-4.17,1.69-6.46,.02-3.71,.02-7.4,.02-11.08q0-3.43-1.6-6.16c.21-.02,.37-.07,.57-.07,3.14,0,6.25,.09,9.39,0,7.01-.18,11.68,7.72,9.07,15.57-1.21,3.62-3.3,6.34-6.5,7.67-.76,.3-1.58,.5-2.38,.5-3.21,.09-6.41,.09-9.62,.11-.23,0-.34-.07-.64-.09Zm5.45-11.68v3.92c0,1.33,.02,2.66,0,3.98,0,.55,.11,.8,.64,.73,.98-.11,1.99-.09,2.95-.25,1.9-.3,3.69-.96,5.08-2.56,1.74-2.04,2.06-4.58,1.79-7.26-.34-3.78-2.11-6.09-5.34-6.82-1.42-.34-2.93-.27-4.37-.44-.6-.07-.8,.18-.8,.89,.07,2.59,.05,5.18,.05,7.81Z" />
    <path class="cls-1"
        d="M30.21,94.46c.69-.98,1.28-1.88,1.92-2.68s.85-1.67,.85-2.75c-.02-8.04,0-16.08,.02-24.11,0-1.26-.25-2.31-1.01-3.21-.34-.41-.62-.87-1.01-1.44,.37-.02,.6-.09,.78-.09,1.69,0,3.34,.02,5.04-.02,.6,0,.76,.21,.76,.87-.02,9.09,0,18.21,0,27.3q0,1.12,.94,1.12h8.82c.25,0,.48,.02,.85,.07-.21,.34-.32,.55-.46,.73-.96,1.31-1.9,2.59-2.89,3.82-.18,.25-.57,.44-.85,.46-4.35,.07-8.7,.07-13.08,.07-.18-.05-.34-.09-.69-.14Z" />
    <path class="cls-1"
        d="M67.19,88.84h-18.25c.62-.73,1.12-1.4,1.67-1.97,.37-.41,.53-.87,.53-1.49,0-5.54,0-11.08,.02-16.63,0-.69-.14-1.26-.53-1.79-.41-.53-.76-1.14-1.21-1.83,.3-.02,.5-.09,.69-.09h12.89q.82,0,.82,.98v3.27c0,.21-.02,.46-.05,.89-.37-.37-.6-.69-.89-.89-.34-.21-.73-.5-1.1-.5-1.99-.07-3.98,0-5.98-.02-.48,0-.66,.16-.66,.73,.02,1.26,.02,2.56,0,3.82,0,.55,.18,.71,.64,.69,1.35-.02,2.68,0,4.03,0,.44,0,.62,.16,.6,.69-.02,.82-.02,1.69,0,2.54,.02,.6-.18,.73-.66,.73-1.31-.02-2.61,.02-3.92-.02-.5,0-.69,.16-.66,.78,.02,1.95,0,3.87,.02,5.82q0,.96,.82,.96c2.61,0,5.2,.02,7.81,0,.62,0,1.08,.18,1.51,.73,.64,.82,1.35,1.65,2.04,2.45-.09,.02-.14,.09-.18,.14Z" />
    <path class="cls-1"
        d="M110.29,49.64c.27-.07,.44-.09,.6-.09h4.21c.46,0,.62,.18,.62,.71-.02,3.25,0,6.48,0,9.73,0,.34,.02,.69-.41,.78-3.6,.64-7.21,1.17-10.81,.16-3.05-.89-5.52-2.73-6.87-6.11-2.31-5.82,.16-12.62,5.4-14.93,3.37-1.49,6.8-1.4,10.28-.71,.16,.02,.37,.34,.37,.5,.02,1.05,.02,2.06,0,3.11-.02,.8-.14,.87-.8,.6-1.95-.78-3.94-1.21-6-1.03-5.95,.5-7.53,6.92-5.38,11.38,1.76,3.62,4.6,4.83,8.01,4.63,.69-.02,1.37-.25,2.04-.37,.34-.07,.48-.27,.48-.71-.02-1.6,.02-3.18-.02-4.79,0-.34-.25-.71-.44-.98-.34-.71-.8-1.24-1.28-1.88Z" />
    <path class="cls-1"
        d="M88.26,65.14c.32-.02,.53-.07,.73-.07h12.89c.64,0,.82,.21,.8,.96-.05,1.35,0,2.75,0,4.1-.05,.02-.11,.07-.16,.09-.27-.3-.5-.69-.8-.92-.3-.25-.64-.5-.98-.5-2.04-.02-4.08,0-6.11-.02-.46,0-.64,.16-.62,.71,.02,1.31,.02,2.63,0,3.92,0,.53,.18,.64,.6,.64,1.35-.02,2.68,0,4.03,0,.46,0,.64,.18,.62,.71-.02,.82-.02,1.69,0,2.54,.02,.55-.18,.71-.64,.71-1.31-.02-2.66,0-3.96-.02-.46,0-.66,.09-.66,.71,.02,2.04,.02,4.05,0,6.09,0,.6,.18,.73,.66,.73,2.68-.02,5.36,0,8.06,0,.27,0,.53,.07,.96,.09-.37,.71-.73,1.24-.96,1.83-.48,1.14-1.24,1.51-2.36,1.49-3.89-.09-7.76-.02-11.63-.02h-.73c-.02-.07-.05-.11-.11-.18,.32-.37,.62-.8,.96-1.14,.94-.82,1.17-1.88,1.17-3.21-.05-5.11-.02-10.19,0-15.3,0-.82-.11-1.53-.64-2.2-.34-.5-.66-1.1-1.1-1.74Z" />
    <path class="cls-1"
        d="M28.67,58.87c.62,.89,1.12,1.65,1.63,2.38-.02,.07-.05,.16-.11,.21-.76,0-1.47,.02-2.22,0-.46,0-.92-.07-1.37-.16-.6-.11-.78,.16-.69,.78,.32,2.54,.6,5.06,.96,7.6,.64,4.21,2.22,8.01,4.4,11.43,.48,.78,.69,1.53,.64,2.5-.05,.71,0,1.42-.11,2.2-3.21-3.16-5.63-6.92-7.17-11.43-1.92-5.68-2.08-11.56-1.24-17.66,.34,.18,.6,.3,.82,.44,2.4,1.35,4.88,1.92,7.49,.8,5.72-2.45,6.89-10.58,3.16-14.61-.11-.11-.18-.27-.37-.55,.3-.02,.5-.07,.69-.07,4.58,0,9.14,0,13.72-.02,.64,0,.82,.21,.82,.96-.05,1.95,.18,1.67-1.51,1.67h-7.67c-.8,0-.82,0-.76,.89,.18,2.56,.11,5.13-.57,7.6-.46,1.74-1.26,3.21-2.34,4.51-.18,.21-.57,.3-.85,.34-1.69,.02-3.41,0-5.08,.02-.69,.05-1.37,.09-2.27,.16Z" />
    <path class="cls-1"
        d="M134.19,39.52c-.14,.21-.18,.3-.25,.37-1.14,.89-1.31,2.15-1.28,3.64,.05,4.63,.05,9.3,0,13.95,0,.89,.16,1.6,.78,2.15,.37,.34,.73,.71,1.08,1.05-.05,.09-.09,.18-.14,.27-.21,.02-.44,.07-.64,.07-1.21,0-2.38-.02-3.6,.02-.62,.02-.98-.11-.85-.92,.02-.09-.02-.21-.09-.41-.14,.07-.25,.11-.34,.18-2.54,1.95-5.29,2.13-8.01,.73-1.79-.92-2.86-2.59-2.93-4.95-.09-4.33-.16-8.66-.16-12.98,0-1.05-.21-1.88-.94-2.5-.16-.11-.3-.34-.5-.62,.32-.02,.5-.07,.73-.07,1.1,0,2.18,.02,3.27-.02,.57-.02,.73,.18,.69,.82-.02,4.24,0,8.47-.02,12.71-.02,3.8,2.27,5.77,5.68,4.85,2.06-.55,2.84-1.69,2.84-4.14v-13.42c0-.64,.16-.82,.73-.82,1.08,.02,2.15,0,3.21,0,.23-.02,.41,0,.76,.02Z" />
    <path class="cls-1"
        d="M98.61,61c-1.44,0-2.86,.02-4.31-.02-.21,0-.48-.44-.6-.73-.78-2.06-1.53-4.14-2.22-6.25-.25-.73-.62-1.03-1.31-.98-1.56,.07-3.11,.07-4.67,0-.6-.02-.85,.25-1.08,.82-.73,2.13-1.47,4.26-2.18,6.43-.18,.55-.46,.78-.96,.73-.8-.07-1.63,0-2.54,0,.09-.34,.11-.6,.18-.8,2.18-6.02,4.31-12.05,6.5-18.07,.21-.62,.16-1.03-.27-1.42-.34-.3-.62-.71-1.01-1.17,.32-.02,.53-.09,.76-.09,1.51,0,2.98,.02,4.47-.02,.57,0,.85,.25,1.08,.82,2.02,5.68,4.05,11.38,6.02,17.06,.37,1.08,.85,2.04,1.6,2.77,.21,.21,.41,.46,.6,.71-.02,.09-.05,.16-.07,.21Zm-10.58-16.63h-.18c-.62,1.76-1.26,3.53-1.92,5.38h3.87c-.62-1.85-1.21-3.62-1.76-5.38Z" />
    <path class="cls-1"
        d="M63.73,60.66c.37-.34,.8-.62,1.1-1.05,.27-.41,.53-.96,.53-1.44,.02-4.97-.02-9.96,0-14.93,0-1.14-.18-2.04-.98-2.73-.27-.21-.53-.46-.8-.69,.05-.09,.09-.18,.14-.27,.21-.02,.44-.09,.62-.09,3.94,0,7.88,0,11.82-.02,.57,0,.73,.21,.69,.82-.02,1.24,0,2.47-.02,3.71,0,.25-.02,.46-.02,.71-.05,.02-.11,.09-.16,.11-.27-.37-.57-.71-.8-1.08-.53-.82-1.26-1.17-2.11-1.17-1.53,0-3.05,.02-4.58,.02-.37,0-.53,.16-.5,.6,0,1.24,.02,2.47,0,3.71,0,.5,.16,.69,.6,.69,1.17-.02,2.36,0,3.5,0,.46,0,.64,.16,.64,.71-.02,.71-.02,1.4,0,2.11,.02,.46-.16,.64-.57,.64-1.14,0-2.31,.02-3.46,0-.48,0-.66,.16-.64,.73,.02,1.74,.02,3.48,0,5.22-.02,.69,.21,.8,.76,.8,2.54-.02,5.06,0,7.6,0h.92c-.37,1.14-.69,2.13-1.05,3.09-.05,.11-.27,.21-.44,.21h-12.27c-.11,0-.18-.07-.3-.09-.07-.11-.14-.21-.18-.32Z" />
    <path class="cls-1"
        d="M150.57,57.95c-.69,.96-1.4,1.92-2.11,2.84-.11,.16-.37,.21-.57,.21-3.76,.02-7.51,.02-11.27,.02-.14,0-.27-.07-.57-.11,.37-.44,.64-.8,.96-1.12,.48-.5,.66-1.08,.66-1.79-.02-5.06-.02-10.17,0-15.23,0-.8-.16-1.44-.73-1.97-.34-.34-.66-.71-1.03-1.05,.02-.07,.05-.11,.09-.21,.16-.02,.34-.07,.5-.07h11.77q.89,0,.85,.98v3.39c0,.25-.02,.46-.02,.89-.32-.3-.6-.5-.73-.73-.76-1.21-1.74-1.53-3-1.44-1.26,.11-2.54,.02-3.82,0-.48,0-.66,.18-.64,.73,.02,1.17,.02,2.38,0,3.55,0,.5,.16,.69,.6,.69,1.14-.02,2.31,.02,3.46-.02,.57-.02,.76,.21,.69,.82-.02,.6-.02,1.21,0,1.83,.02,.6-.16,.82-.66,.8-1.1-.02-2.22,0-3.32-.02-.48,0-.66,.16-.64,.73,.02,1.74,.02,3.48,0,5.22,0,.62,.18,.78,.69,.78,2.7-.02,5.4,0,8.13,0,.21,0,.46,.02,.66,.02,.02,.09,.05,.18,.07,.25Z" />
    <path class="cls-1"
        d="M161.42,42.75c-3.25,4.26-3.57,8.59-.44,12.66,3.27,4.31,7.28,3.64,11.34,1.42,2.06,3.71-.25,19.26-3.37,22.53-.57-.73-1.14-1.44-1.63-2.27-.14-.25-.09-.73,.02-1.08,.64-2.36,1.44-4.63,1.92-7.05,.48-2.47,.62-5.02,.94-7.69-.78,.07-1.42,.02-2.06,.16-.6,.09-.92-.07-.8-.8,.09-.6-.27-.73-.62-.92-2.11-1.03-4.37-1.33-6.64-1.42-.92-.02-1.53-.44-2.02-1.31-.96-1.76-1.63-3.6-1.58-5.72,.02-.71-.21-1.42-.25-2.13-.05-.89-.02-1.83,0-2.75,.02-1.05,.05-1.05-.85-1.05-1.4,0-2.77-.02-4.14,0-.48,0-.66-.16-.66-.73,.02-2.27-.21-1.85,1.56-1.88,2.79-.02,5.56,0,8.36,0,.23,.02,.48,.02,.92,.02Z" />
    <path class="cls-1"
        d="M49.08,60.29c.32-.27,.66-.6,.98-.87,.53-.5,.78-1.14,.78-1.88,0-5.91,0-11.82-.05-17.7,0-.41-.21-.87-.46-1.21-.3-.44-.73-.8-1.1-1.17,.02-.07,.05-.16,.09-.21,.21-.02,.44-.07,.64-.07,1.37,0,2.73,.02,4.1,0,.6-.02,.76,.18,.76,.87-.02,6.25,0,12.48-.02,18.73q0,.98,.85,.98h8.04c.02,.07,.05,.11,.11,.21-.34,.44-.76,.8-1.05,1.26-.8,1.21-1.79,1.53-3.11,1.51-3.27-.09-6.55-.02-9.8-.02-.18,0-.37-.02-.53-.02-.09-.18-.16-.32-.23-.41Z" />
    <path class="cls-1"
        d="M86.86,37.8c2.93-2.29,17.45-2.73,20.17-.62-.27,.07-.48,.09-.69,.16-1.01,.27-2.04,.55-3.05,.8-.8,.18-1.63,.41-2.47,.41-3.02-.09-6.02-.18-9.02,.44-.34,.07-.6,.07-.73-.44-.18-.69-.73-.73-1.24-.73-.94-.02-1.9-.02-2.98-.02Z" />
    <path class="cls-1"
        d="M59.91,42.75h3.46c.44,0,.64,.11,.64,.69,.02,1.95,.05,1.95-1.63,1.95-1.95,0-3.92-.02-5.84,0-.48,0-.66-.18-.64-.73,.05-2.27-.25-1.83,1.56-1.85,.8-.09,1.6-.05,2.45-.05Z" />
    <path class="cls-1"
        d="M84.36,41.35c-.37,.25-.73,.44-1.01,.64-1.31,.96-2.66,1.95-3.96,2.91-.16,.11-.3,.27-.46,.37-.64,.3-.92,.09-.89-.69,.05-2.75-.32-2.02,1.67-3.3,.89-.6,1.79-1.12,2.68-1.74,.46-.3,.76-.21,1.05,.27,.23,.5,.55,.98,.92,1.53Z" />
    <path class="cls-1"
        d="M125.1,45.34h-2.38c-.37,0-.53-.16-.53-.6,.02-2.5-.25-1.97,1.6-2.04,1.17-.02,2.38,0,3.57,0,.44,0,.6,.16,.6,.69q.05,1.95-1.67,1.95h-1.19Z" />
    <path class="cls-1"
        d="M150.87,49.78c1.1,0,1.85,.98,1.85,2.4s-.8,2.31-2.11,2.36c-1.21,.02-2.02-.98-2.02-2.5,0-1.4,.82-2.22,2.27-2.27Zm.76,2.36c0-.71-.44-1.24-.96-1.26-.6-.02-1.05,.53-1.01,1.26,0,.71,.44,1.21,.98,1.21,.6,0,.98-.5,.98-1.21Z" />
    <path class="cls-1"
        d="M148.12,45.36h-4.9c-.44,0-.73-.11-.69-.73,.02-.55,.27-.73,.73-.73,1.12,.02,2.24,0,3.37,0,.71,0,1.19,.48,1.49,1.47Z" />
    <path class="cls-1"
        d="M135.25,45.34c-1.6-.02-1.42,.34-1.42-1.65q0-.96,.82-.96c.46,0,.92,.02,1.4,0s.64,.18,.62,.71v.21c-.02,2.02,.21,1.67-1.42,1.69Z" />
    <path class="cls-1"
        d="M153.13,49.92c.8,0,1.56-.07,2.29,.02,.21,.02,.34,.6,.62,1.05-.57,0-.92-.02-1.26,0-.14,0-.23,.16-.37,.25,.11,.11,.21,.27,.34,.3,.18,.07,.44-.02,.62,.02,.16,.07,.34,.25,.37,.44,.02,.09-.21,.44-.32,.41-.98-.16-1.1,.5-.98,1.4,.02,.37-.09,.6-.46,.55-.27-.02-.53,0-.82,0,.48-1.42,.48-2.84-.02-4.44Z" />
    <path class="cls-1"
        d="M162.52,84.24c.48,.73,.5,1.49,0,2.11-1.24,1.49-2.84,1.85-4.58,1.76,.78-.62,1.58-1.17,2.36-1.83,.73-.62,1.47-1.33,2.22-2.04Z" />
    <path class="cls-1"
        d="M75.62,45.36h-4.83c-.32,0-.66,0-.64-.53,0-.5,.32-.55,.66-.55h3.62c.57,0,.87,.37,1.19,1.08Z" />
    <path class="cls-1"
        d="M116.54,44.65c-1.72-.73-2.36-2.36-1.53-3.73,1.35,.78,1.85,2.02,1.53,3.73Z" />
</svg>
