<?xml version="1.0" encoding="UTF-8"?>
<svg id="_Слой_1" data-name="Слой 1" xmlns="http://www.w3.org/2000/svg" viewBox="0 0 196 136">
    <defs>
        <style>
            .cls-1, .cls-2 {
            fill: #d4d4d4;
            }

            .cls-2 {
            fill-rule: evenodd;
            }
        </style>
    </defs>
    <path class="cls-2"
        d="M43.15,52.66c.96,.48,1.52,1.44,2.34,2.11,1.13,.31,2.34,.4,3.5,.62-1.02,.54-2.17,.93-2.99,1.81,.65-.23,1.27-.48,1.89-.73-.62,.85-1.33,1.61-1.95,2.45,.25-.17,.79-.45,1.07-.59-.25,.62-.51,1.24-.73,1.86,.17-.06,.56-.17,.73-.23-.2,.65-.51,1.3-.34,1.97,.42,2.62,.42,5.33-.14,7.92,1.97-.06,3.98,.03,5.95-.39,.85-.23,1.61-.7,2.45-.93-.79,1.3-1.69,2.54-2.45,3.86-.03-.51-.03-1.02-.03-1.52-2.17-.17-4.34-.23-6.51-.17-.82,.56-1.81,.79-2.79,.54,.54-.28,1.13-.37,1.66-.54-.54-.25-1.1-.28-1.66-.11v-.39c.7-.42,1.44-.76,2.2-1.1-.11-.42-.2-.82-.28-1.24,.31,.42,.62,.85,.9,1.3-.03-1.18,.08-2.37-.03-3.55-.2-2.06-1.3-3.92-1.44-6.01-.23-2.2,.08-4.68-1.35-6.54v-.39Z" />
    <path class="cls-2"
        d="M150.37,55.79c.39-.62,.99-1.13,1.55-1.61-.73,1.18-1.07,2.71-.25,3.95-.11,.23-.2,.48-.28,.7-1.86-.03-3.72-.06-5.56-.2,.06,1.69,.06,3.36,.09,5.05,1.44,.56,2.93,.11,4.37-.23-1.18,1.1-2.82,1.89-4.43,1.3-.03,1.83-.2,3.69-.31,5.53,2.48,0,4.93-.45,7.3-1.18v.39c-.79,.96-1.69,1.81-2.51,2.71,.03-.31,.14-.9,.2-1.21-2.28-.14-4.57,0-6.85,.06,.28-.48,.99-.82,.96-1.47,.03-1.69-.03-3.41,0-5.13-.79,.23-1.58,.45-2.4,.62,.73-.62,1.55-1.07,2.43-1.44-.08-1.38-.06-2.79-.25-4.17-.06-.62-.62-.99-.93-1.47,2-.17,4.03,.17,6.01-.25,.39-.59,.54-1.33,.87-1.95Z" />
    <path class="cls-2"
        d="M59.82,57.45c1.13-.06,2.28-.2,3.44,0-.08,.48-.65,.54-.96,.82-.03,3.86-.03,7.76-.11,11.65,.31,.06,.99-.25,.99,.28-.11,.11-.31,.37-.42,.48-1.04-.17-2.11-.2-3.1-.54,.42-.14,.87-.28,1.33-.42-.06-3.86-.03-7.76-.39-11.62-.25-.23-.51-.42-.76-.65Z" />
    <path class="cls-2"
        d="M70.5,57.45c1.1-.06,2.17-.11,3.27,0-.14,.23-.25,.48-.39,.7,1.44,1.69,2.85,3.38,4.43,4.93,1.66,1.86,3.33,3.75,5.02,5.58-.14-3.3-.03-6.6-.45-9.87,.09-.76-.79-.56-1.27-.73,.76-1.16,2.31-.48,3.44-.62-.2,.23-.42,.45-.65,.68-.34,4.23-.42,8.46-.54,12.69-2.12-1.38-3.5-3.64-5.3-5.41-1.8-2.03-3.84-3.89-5.61-5.95,.14,3.44,.06,6.88,.03,10.32,.45,.31,.9,.59,1.33,.93-1.24-.03-2.51,0-3.75-.06,.34-.34,.7-.65,1.07-.96-.03-3.61,.59-7.22,.54-10.86,0-.62-.68-.73-1.16-.79v-.59Z" />
    <path class="cls-2"
        d="M91.94,57.88c.17-.08,.45-.25,.59-.34,2.26,.17,4.54-.03,6.8-.11,.28,.31,.62,.62,.87,.99-1.92,.11-3.84-.03-5.75-.09,.06,1.66,.03,3.33,.03,4.99,1.44,.65,2.93,.14,4.34-.28-1.1,1.13-2.76,1.95-4.34,1.35-.03,1.83-.23,3.69-.28,5.53,2.37-.11,4.85-.17,7.05-1.24,.09,.14,.2,.37,.25,.48-.93,.87-1.78,1.8-2.65,2.74,.06-.31,.14-.96,.2-1.27-2.31-.14-4.63,.06-6.91,.03,.31-.45,1.07-.7,1.02-1.38,0-1.72-.06-3.44,0-5.16-.79,.2-1.58,.45-2.4,.62,.7-.62,1.55-1.04,2.43-1.41-.08-1.5-.06-2.99-.25-4.46,0-.54-.65-.68-.99-.99Z" />
    <path class="cls-2"
        d="M112.97,63.04c.7-1.04,1.33-2.14,2.03-3.19,.65,1.04,1.3,2.12,1.89,3.22-1.3-.09-2.62-.09-3.92-.03Zm-.7-.25c1.13-1.95,2-4.03,3.47-5.75,.34,2.28,1.75,4.2,2.93,6.15,1.02,1.78,2.06,3.58,2.99,5.41,.37,.76,.96,1.35,1.41,2.03-1.21,.06-2.43,.14-3.64-.06,.31-.28,.65-.54,.99-.76-.87-2.03-1.95-3.98-3.07-5.87-1.58-.06-3.16,0-4.77-.03-.93,1.97-2.03,3.86-2.79,5.89,.2,.25,.39,.54,.59,.82-1.1,.08-2.23,.08-3.36-.03,2.57-1.95,3.78-5.05,5.25-7.81Z" />
    <path class="cls-2"
        d="M127.89,58.41c1.24-.96,2.9-.82,4.37-1.02,1.83-.25,3.64,.39,5.16,1.44-.51,.25-.99,.51-1.47,.76-1.5-1.44-3.78-1.64-5.7-1.1-1.66,.39-2.79,1.92-3.24,3.47-.51,1.44-.54,3.1,.2,4.46,1.75,3.27,6.77,4.23,9.48,1.64,.99-.79,.82-2.17,.79-3.27-.08-1.13-1.47-.9-2.23-1.33,1.3-.59,2.82-.25,4.17-.17-.28,.39-.79,.68-.93,1.16-.17,.96,.23,1.89,.03,2.85-.34,1.41-.23,3.02-1.3,4.15,.11-1.13,.23-2.26,.17-3.38-.93,1.18-2.31,1.78-3.69,2.28-2.09,.68-4.4,.06-6.2-1.1-1.78-1.55-2.82-4.17-2-6.46,.51-1.58,1.02-3.33,2.4-4.37Z" />
    <path class="cls-2"
        d="M97.74,75.8c.62-.51,1.44-.17,2.09,0-.37,.56-.87,.31-1.35,.11-.28,.25-.54,.51-.82,.76,.54,.85,1.44,.42,2.23,.34-.48,.82-1.8,.99-2.37,.2-.14-.45-.23-1.1,.23-1.41Z" />
    <path class="cls-2"
        d="M69.12,75.65c.87-.11,1.72-.11,2.59,0-.23,.4-.62,.45-1.02,.42-.06,.65,.23,1.47-.42,1.89-.14-.62-.14-1.24-.17-1.86-.4,0-.76-.06-.99-.45Z" />
    <path class="cls-2"
        d="M72.3,75.43c.59,.06,.65,.48,.59,.99,.25,0,.76-.03,1.02-.03,0-.2-.03-.59-.06-.79,.14,0,.42-.03,.56-.03-.03,.7-.03,1.44,0,2.17l-.59-.08c.03-.2,.09-.65,.11-.85-.37,.03-.73,.03-1.1,.08,.03,.2,.06,.56,.08,.76-.17,.03-.48,.06-.65,.08,.06-.76,.03-1.52,.03-2.31Z" />
    <path class="cls-2"
        d="M75.49,75.57h1.97v.48c-.56,.03-1.18-.14-1.69,.2,.37,.08,1.1,.25,1.47,.34-.39,.17-.82,.23-1.27,.2,.03,.14,.03,.39,.03,.51,.51-.03,.99-.06,1.47-.11v.51c-.65-.03-1.32-.03-1.97,0v-2.11Z" />
    <path class="cls-2"
        d="M81.67,75.82c.56-.45,1.8-.51,1.86,.42-.51-.06-1.07-.51-1.52-.06-.42,.34-.17,.9,.28,1.04,.51-.03,1.02-.28,1.52-.03-.54,.25-1.16,.7-1.78,.42-.76-.17-1.04-1.38-.37-1.8Z" />
    <path class="cls-2"
        d="M84.37,75.57h.59c-.03,.2-.06,.62-.09,.85h1.1c0-.23-.03-.62-.06-.82,.17-.03,.45-.03,.62-.03-.14,.79,.23,1.78-.42,2.43-.09-.39-.17-.79-.23-1.18-.34,0-.65,.03-.99,.06,.03,.23,.03,.65,.03,.85l-.56,.03c.03-.73,.03-1.44,0-2.17Z" />
    <path class="cls-1"
        d="M87.48,20.73c-.87-2.03-2.4-3.64-3.78-5.33h-.23c2.48,4.65,3.41,9.98,3.38,15.23-.03,24.62,.03,49.27-.03,73.89,.09,4.23-.2,8.54-1.58,12.55-.42,1.27-.96,2.48-1.75,3.53h.28c2.68-2.03,4.2-5.16,5.19-8.29,.7-2.43,.82-4.99,.82-7.5-.03-25.1,.03-50.2,0-75.3-.03-3.05-.96-6.04-2.31-8.77Zm1.94,57.26c-.62-.45-.65-1.33-1.27-1.75,.06,.28,.14,.82,.2,1.07l-.25-.11c-.25,.25-.54,.51-.82,.76,.17-.85,.56-1.64,.93-2.4h.39c.31,.79,1.07,1.55,.82,2.43Z" />
    <path class="cls-2"
        d="M93.09,75.57c.76,0,1.55,0,2.31,.06-.2,.45-.59,.48-1.02,.45-.06,.65,.2,1.47-.42,1.89-.14-.65-.14-1.33-.14-1.97-.17,.03-.51,.08-.68,.14l-.06-.56Z" />
    <path class="cls-2" d="M95.99,75.57h.59v2.11c-.14,0-.45,.03-.59,.03,.03-.7,.03-1.44,0-2.14Z" />
    <path class="cls-2"
        d="M106.29,75.54c.34,.25,.45,.62,.51,1.02h.99c.06-.25,.14-.79,.2-1.07,.31,.82,.34,1.75,0,2.54-.06-.28-.14-.82-.2-1.1-.37-.03-.73-.03-1.1-.06,0,.23,.03,.68,.03,.87h-.54c.03-.73,.03-1.47,.11-2.2Z" />
    <path class="cls-2"
        d="M109.89,76.01c.28-.12,1.1,0,.79,.5-.37,.43-1.66-.12-.79-.5Zm-.7-.43c.82,.03,2.03-.28,2.23,.93-.17,.09-.51,.28-.68,.37,.23,.37,.45,.74,.68,1.15-.7,0-1.04-.77-1.55-1.18-.03,.28-.11,.84-.14,1.12h-.54v-2.39Z" />
    <path class="cls-2"
        d="M113.08,76.21c.52-.2,.84,.38,1.16,.73-.47,.58-1.08,.7-1.72,.32,.15-.38,.03-.96,.55-1.05Zm-.35-.38c.76-.38,1.89,.17,1.78,1.11,0,1.05-1.57,1.43-2.18,.61-.55-.52-.23-1.43,.41-1.72Z" />
    <path class="cls-2"
        d="M115.13,75.65c.82,.17,1.21,.96,1.75,1.5,0-.45-.06-.9-.08-1.35h.54c-.03,.79-.03,1.55-.06,2.34-.65-.45-1.16-1.04-1.69-1.61,.03,.48,.06,.93,.11,1.38l-.59,.08c.06-.79,.06-1.55,.03-2.34Z" />
    <path class="cls-2"
        d="M118.2,75.79c.65,0,1.27,0,1.89,0v.51c-.54-.03-1.13-.14-1.61,.17,.48,.11,.99,.23,1.47,.34-.39,.11-.82,.17-1.24,.25,0,.11,0,.31-.03,.42,.56,0,1.13-.06,1.69-.03-.45,.76-1.44,.31-2.17,.45,.03-.7,.03-1.41,0-2.12Z" />
    <path class="cls-1"
        d="M105.7,105.93V29.79c0-3.47,.56-6.91,1.55-10.21,.54-1.44,1.13-2.82,1.86-4.17h-.23c-3.64,3.78-6.12,8.8-6.23,14.1V106.5c.09,5.25,1.92,10.77,6.15,14.1h.28c-.25-.34-.48-.68-.73-1.02-2.14-4.2-2.62-9-2.65-13.65Zm-1.16-29.88c-.06,.65,.2,1.47-.42,1.89-.14-.65-.14-1.33-.14-1.97-.17,.03-.51,.08-.68,.14l-.06-.56c.76,0,1.55,0,2.31,.06-.2,.45-.59,.48-1.02,.45Z" />
    <path class="cls-2"
        d="M91.14,76.01c.52-.2,.84,.38,1.16,.73-.47,.58-1.08,.7-1.72,.32,.15-.38,.03-.96,.55-1.05Zm-.35-.38c.76-.38,1.89,.17,1.78,1.11,0,1.05-1.57,1.43-2.18,.61-.55-.52-.23-1.43,.41-1.72Z" />
</svg>
