<svg width="196" height="136" viewBox="0 0 196 136" fill="none" xmlns="http://www.w3.org/2000/svg">
    <g clip-path="url(#clip0_106_3648)">
        <path d="M38 97.5423V109.745C38 114.699 41.751 117.857 47.2139 117.857C52.9603 117.857 56.4775 114.527 56.4775 109.41V97.5423H51.6138V109.188C51.6138 111.977 50.0535 113.707 47.2658 113.707C44.2106 113.707 42.8638 111.718 42.8638 109.41V97.5423H38ZM58.8422 97.7109V117.658H66.5889C70.8794 117.658 74.5251 115.688 74.5251 111.78C74.5251 107.701 70.5608 106.796 70.5608 106.796C70.5608 106.796 73.4963 106.062 73.4963 102.572C73.4963 99.0847 69.786 97.7109 66.5889 97.7109H58.8422ZM63.7423 101.5H66.0939C67.7259 101.5 68.7702 102.274 68.7702 103.62C68.7702 104.825 67.8842 105.734 66.2176 105.734H63.7424V101.5H63.7423ZM63.7423 108.855H66.3413C68.7853 108.855 69.6328 109.985 69.6328 111.334C69.6328 112.904 68.5366 113.824 66.5889 113.824H63.7424V108.855L63.7423 108.855ZM76.366 97.7094H81.2546V117.657H76.366V97.7094ZM129.707 117.657H124.819V97.7094H140.165V101.833H129.707V106.402H139.237V109.745H129.707V117.657ZM141.96 97.7094V101.833H148.271V117.657H153.222V101.833H159.41V97.7094H141.96ZM86.8355 111.024L82.9519 113.581C82.9519 113.581 84.2939 118 91.0214 118C95.5015 118 98.7981 115.646 98.7981 111.507C98.7981 104.838 88.4406 106.252 88.4406 102.822C88.4406 101.92 89.3321 101.122 90.9775 101.122C93.6174 101.122 94.6208 103.454 94.6208 103.454L98.5054 100.999C98.5054 100.999 96.9881 97.3577 91.1726 97.3577C86.3933 97.3577 83.8545 100.119 83.8545 102.967C83.8545 109.764 93.9104 108.289 93.9104 111.856C93.9104 113.06 92.8569 113.944 91.2162 113.934C87.9654 113.934 86.8355 111.024 86.8355 111.024ZM111.421 97.3485C105.665 97.3485 103.099 100.162 103.099 100.162L103.841 100.831C103.841 100.831 100.117 103.213 100.117 108.328C100.117 114.215 105.158 117.996 111.449 117.996C118.757 117.996 122.904 113.14 122.904 107.681C122.904 101.859 118.17 97.3485 111.421 97.3485ZM111.526 101.489C115.429 101.489 117.961 104.175 117.961 107.663C117.961 111.115 115.459 113.876 111.526 113.876C107.64 113.876 105.086 111.433 105.086 108.189C105.086 105.237 107.306 103.951 107.306 103.951L106.502 103.227C106.502 103.227 108.214 101.489 111.526 101.489ZM96.4609 18C71.3535 18 60.5162 38.1227 60.5162 38.1227L63.7063 40.1791C63.7063 40.1791 59.6918 47.053 59.8029 55.8697C59.8029 73.8682 75.7147 90.8228 99.1381 90.8228C120.417 90.8228 137.995 75.2276 137.995 55.914C137.995 30.7247 116.302 18 96.461 18H96.4609ZM96.6787 24.1403C116.295 24.1403 131.517 38.3737 131.517 54.9207C131.517 72.4617 116.865 84.6604 99.7915 84.6604C87.2258 84.6604 75.8904 76.0442 75.8904 64.2308C75.8904 57.4077 79.918 52.6507 84.4313 50.1155L85.0918 50.7608C83.8567 51.631 80.3348 56.725 80.3348 61.7317C80.3348 71.0263 88.4297 77.4635 98.6286 77.4635C111.62 77.4635 120.285 67.4862 120.285 55.9015C120.285 42.4227 107.071 30.9797 91.1698 30.9797C82.3746 30.9797 74.9099 34.3854 70.6204 37.3921L69.9529 36.848C75.5646 29.0571 85.2826 24.1403 96.6787 24.1403ZM90.8255 37.0346C100.973 37.0346 110.88 43.0792 113.353 51.6592L112.453 51.966C108.013 46.6865 100.738 42.3112 92.1464 42.3112C76.3374 42.3112 68.0349 55.2463 69.2537 66.0497L68.3228 66.3567C68.3228 66.3567 66.5766 62.8875 66.5766 58.7738C66.5766 46.8612 77.4414 37.0346 90.8255 37.0346ZM97.5324 51.985C102.337 51.985 106.179 55.4912 106.179 59.6533C106.179 63.0975 103.723 65.1388 103.723 65.1388L106.632 66.9703C106.632 66.9703 103.747 71.0481 97.8591 71.0481C92.2268 71.0481 87.2455 66.9547 87.2455 61.4501C87.2455 55.7781 92.6638 51.985 97.5324 51.985Z" fill="#E0E4EC"/>
    </g>
    <defs>
        <clipPath id="clip0_106_3648">
            <rect width="121.41" height="100" fill="white" transform="translate(37.2949 18)"/>
        </clipPath>
    </defs>
</svg>
