<?xml version="1.0" encoding="UTF-8"?>
<svg id="_Слой_1" data-name="Слой 1" xmlns="http://www.w3.org/2000/svg" viewBox="0 0 196 136">
    <defs>
        <style>
            .cls-1 {
            fill: #d4d4d4;
            fill-rule: evenodd;
            }
        </style>
    </defs>
    <path class="cls-1"
        d="M143.75,56.91c2.37,0,4.4,.91,5.87,2.59,1.42,1.64,2.29,4.06,2.33,7.12-.04,2.33-.73,4.75-2.07,6.6-1.38,1.81-3.41,3.07-6.09,3.07-2.22,0-4.33-.95-5.78-2.63-1.51-1.68-2.42-4.1-2.42-7.04,0-2.72,.91-5.18,2.37-6.91,1.47-1.73,3.54-2.81,5.78-2.81h0Zm-.34,2.37c-.09,0-.17,0-.26,.04-1.12,.04-2.16,.78-2.89,1.9-.78,1.16-1.25,2.76-1.25,4.62,0,.26,0,.52,.04,.82,.22,3.11,1.55,5.53,3.24,6.65,.35,.17,.69,.35,1.04,.47,.35,.09,.69,.17,1.04,.17,.09,0,.17-.04,.26-.04,1.3-.09,2.33-.95,3.06-2.2,.74-1.25,1.12-2.85,1.12-4.36,0-.22,0-.43-.04-.69-.22-2.81-1.47-5.4-3.19-6.65-.33-.21-.67-.38-1.04-.52-.39-.13-.73-.21-1.12-.21h0Zm-92.86,1.21c-.22,.17-.35,.48-.35,1.08v10.97c0,.43,.09,.78,.26,1.04,.13,.22,.35,.35,.65,.35h2.42c1.08,0,2.07-.99,2.85-2.29,.73-1.34,1.25-3.02,1.25-4.4,0-1.68-.48-3.41-1.21-4.75-.78-1.29-1.86-2.16-3.15-2.16h-1.81c-.39,0-.69,.04-.91,.17h0Zm-4.58-2.42h7.81c2.76,0,4.58,1.34,5.7,3.11,1.08,1.73,1.51,3.89,1.51,5.65,0,3.02-.78,5.48-2.07,7.17-1.34,1.68-3.19,2.59-5.35,2.59h-4.4c-.6,0-1.55,.09-2.42,.43-.17,.04-.3,.09-.43,.17-.69,.35-1.3,.86-1.6,1.64l-.04,.04s.09-.13,0,0c0,0,0,.04-.04,.04t-.04,.04c-.08,.09-.19,.13-.3,.13v-.04c-.09,0-.13-.04-.17-.09s-.09-.13-.04-.22c.13-.69,.3-1.25,.47-1.68,.22-.48,.39-.82,.6-1.12,.3-.52,.69-.82,.99-1.12,.56-.47,.99-.86,.99-2.2v-11.87c0-.17,0-.35-.04-.52,0-.09-.04-.22-.04-.35-.17-.56-.52-.95-1.08-1.04h-.04s-.13,0-.17-.04-.04-.09-.09-.13c-.04-.09-.09-.17-.04-.26v-.09l.04-.04c.05-.13,.17-.21,.3-.22h0Zm22.97,3.89c.09,.13,.13,.22,.22,.3l.26,.26c.43,.43,.99,.78,1.68,.99,.44,.13,.88,.22,1.34,.26,.52,.04,1.04,0,1.68-.04h.17c.17,.09,.22,.17,.26,.26v.09c0,.08-.03,.16-.09,.22-.04,.09-.09,.13-.22,.13,0,0-.04,.04-.09,.04-.6-.04-.69,.43-.69,.73v5.09c0,.43,.04,.69,.17,.82,.13,.13,.35,.17,.78,.22h.04c.22,0,.47,.04,.47,.39,0,.17-.09,.3-.22,.35-.09,.04-.17,.04-.26,.04h-4.83c-.17-.04-.3-.13-.3-.39,0-.39,.26-.39,.47-.39h.04c.35,0,.56-.04,.73-.17,.17-.13,.26-.34,.26-.73v-5.22c0-.6-.22-.69-.39-.78-.04,0-.04-.04-.09-.04-.47-.3-.86-.56-1.16-.91-.3-.35-.56-.69-.86-1.08-.13-.17-.13-.35-.04-.43,0-.09,.04-.13,.09-.17,.04,0,.13-.04,.17-.04,.13,0,.26,.09,.39,.22h0Zm34.88,1.42h3.97c.17,0,.35,0,.52,.04s.3,.09,.47,.13c.78,.3,1.25,.95,1.3,1.68v.04s0,.13-.04,.22c0,.04,0,.13-.04,.22-.09,.39-.3,.73-.73,1.08,0,.04-.04,.04-.09,.09,.13,.04,.3,.13,.39,.22l.39,.26c.52,.52,.78,1.12,.73,1.86,0,.22-.04,.39-.09,.56-.09,.22-.13,.39-.26,.52-.47,.86-1.55,1.42-3.07,1.42h-5.74c-.17-.04-.3-.13-.3-.35,0-.04,.04-.09,.04-.13s.04-.09,.04-.13c.04-.04,.09-.04,.13-.09,.09-.09,.3-.09,.39-.09,.47,0,.73-.04,.86-.13,.04-.04,.09-.26,.09-.6v-5.31c0-.6-.22-.69-.39-.82t-.09-.04c-.09-.04-.17-.09-.26-.13-.17-.09-.34-.17-.6-.35-.13-.09-.22-.17-.26-.26-.04-.04-.04-.09-.09-.13,0-.09,.04-.13,.09-.22,0,0,.04-.04,.04-.09h.13s.04-.04,.04-.04c.09,0,.22,.04,.39,.09,.17,.09,.43,.22,.78,.3,.35,.09,.78,.17,1.25,.17h0Zm1.42,4.7v1.55c0,.17,0,.39,.09,.56,.04,.13,.17,.22,.43,.22h1.12c.34,0,.56-.17,.73-.39,.17-.22,.26-.52,.26-.82v-.04c0-.56-.22-1.17-.65-1.38-.09-.04-.17-.09-.26-.13-.13-.04-.22-.04-.34-.04h-.78c-.13,0-.3,0-.43,.09-.11,.1-.17,.24-.17,.39h0Zm.04-3.63s-.04,.09-.04,.17v1.34c0,.13,0,.26,.04,.3s.13,.09,.3,.09h1.21c.22-.04,.35-.13,.43-.26,.09-.13,.13-.3,.13-.52v-.17c-.04-.35-.22-.69-.52-.86-.09-.04-.13-.04-.22-.09h-1.34Zm-15.5-1.03v.04l.39,.26c.13,.09,.26,.17,.39,.3,.65,.52,1.21,1.08,1.68,1.73,.13,.13,.22,.3,.35,.48,.09,.17,.17,.39,.3,.56,.47,.91,.73,1.9,.78,3.07v.6c-.04,.22-.04,.43-.04,.6-.14,1.06-.44,2.1-.91,3.07-.49,1.06-1.18,2.01-2.03,2.81-.73,.73-1.6,1.3-2.33,1.77-.13,.09-.22,.13-.3,.13h-.13s-.09-.04-.13-.09c0-.04-.04-.09-.04-.09v-.13s.04-.04,.04-.09c.04-.09,.09-.13,.17-.21,.66-.61,1.21-1.33,1.64-2.12,.48-.73,.78-1.51,1.04-2.33,.17-.6,.3-1.25,.39-1.9,.09-.65,.13-1.3,.13-1.94v-.22c0-.09,0-.17-.04-.22,0-.43-.04-.86-.09-1.3q-.09-.43-.43-.43h-2.46c-.56,0-.73,0-.78,.35v.78c.04,.22,.04,.47,.04,.73v.22c0,.86,0,1.25,.69,1.25t.09,.04c.09,0,.13,.04,.22,.09,.09,.09,.22,.22,.22,.43,0,.16-.08,.31-.22,.39-.09,.04-.22,.04-.3,.04h-4.58c-.26,0-.52,0-.52-.43,0-.22,.09-.35,.17-.39,.13-.09,.22-.09,.35-.09,.3,0,.65-.09,.86-.26,.22-.13,.35-.43,.35-.86v-.78c0-.22,.04-.39,.04-.56s.04-.35,.09-.52c.18-.89,.57-1.74,1.12-2.46,.09-.13,.22-.3,.3-.43s.22-.26,.35-.35c.57-.65,1.24-1.2,1.99-1.64,.09-.04,.13-.09,.22-.13s.17-.04,.26-.04c.13-.04,.22,0,.35,.04,.09,.09,.22,.13,.35,.22h0Zm.69,2.85l-.04-.04c-.01-.07-.04-.13-.09-.17-.04-.09-.09-.17-.13-.22-.17-.34-.43-.65-.69-.91-.13-.09-.22-.17-.3-.22t-.09-.04s-.04,0-.09,.04c-.09,.04-.17,.13-.3,.22-.22,.22-.43,.43-.6,.65-.15,.23-.29,.46-.43,.69-.04,.09-.04,.17-.09,.26,.04,0,.09-.04,.13-.04h2.46s0,0,0,0h.22c.09,.04,.13,.04,.13,.04,0-.09-.04-.17-.09-.26h0Zm33.24,3.71h3.02c.09-.04,.13-.09,.22-.17l1.03-.95c.13-.13,.26-.22,.35-.22h.09s.09,0,.13,.04c.09,.04,.13,.17,.09,.3v.09s-.04,.04-.04,.04v.04l-1.08,2.59s-.04,.04-.04,.09c-.04,.09-.09,.17-.13,.22-.09,.09-.17,.13-.3,.09-.09-.04-.13-.09-.22-.17l-.35-.3c-.13-.13-.13-.17-.26-.17h-6.26c-.22,0-.39-.04-.39-.35,0-.39,.43-.39,.69-.43,.3,0,.52-.04,.65-.13,.09-.13,.13-.35,.13-.73v-4.92c0-.39-.09-.6-.22-.69-.17-.13-.43-.17-.73-.17h-.04c-.22,0-.47,0-.47-.43,0-.3,.13-.39,.3-.43h4.79c.09,0,.17,0,.3,.04,.09,.09,.17,.17,.17,.39s-.13,.35-.35,.39c-.13,.04-.26,.04-.34,.04-.39,0-.6,.04-.65,.13-.09,.09-.09,.35-.09,.73v5.05h0Z" />
</svg>
