<?xml version="1.0" encoding="UTF-8"?>
<svg id="_Слой_1" data-name="Слой 1" xmlns="http://www.w3.org/2000/svg" viewBox="0 0 196 136">
    <defs>
        <style>
            .cls-1 {
            fill: #d4d4d4;
            }
        </style>
    </defs>
    <path class="cls-1"
        d="M33.15,59.91c-.37,.29-.74,.51-1.11,.65-.75,.28-1.72,.41-2.89,.41s-1.85,.09-1.91,.28v12.13c0,.46,.58,.69,1.73,.71,.32,0,.76,0,1.31,.02,.45,.05,.67,.2,.67,.46,0,.13-.05,.26-.14,.41-2.01-.05-3.81-.07-5.39-.07-.77,0-1.59,.09-2.47,.28-.86,.2-1.38,.29-1.55,.29-.43,0-.65-.28-.65-.85l3.67-.63c.26-.18,.39-1.31,.39-3.39l-.02-7.03c-.02-1.11-.08-1.86-.2-2.24-.09-.34-.33-.51-.72-.51h-.87s-.18,0-.48-.02h-.86c-1.5,0-2.42,.1-2.76,.31-.35,.23-.53,.6-.53,1.11v.66c-.58,0-.87-.33-.87-.99,0-.58,.16-1.16,.48-1.72,.44-.77,1.42-1.16,2.93-1.16,.49,0,1.77,.04,3.85,.12,2.08,.1,3.64,.15,4.71,.15,2.21,0,3.31-.15,3.31-.44,0-.07-.07-.19-.2-.37-.13-.2-.19-.34-.19-.44,0-.09,.04-.18,.12-.26,.58-.46,.99-.68,1.21-.68,.2,0,.37,.11,.51,.32,.13,.19,.19,.39,.19,.6,0,.55-.42,1.17-1.26,1.86h0Z" />
    <path class="cls-1"
        d="M42.98,73.47c.14-.02,.57-.3,1.27-.85,.29,.23,.44,.42,.44,.58,0,.2-.18,.39-.53,.58-.23,.12-.58,.31-1.06,.58-.28,.2-.55,.39-.83,.57-.37,.24-.66,.35-.86,.35-.17,0-.29-.07-.37-.21-.06-.12-.09-.46-.09-1.01,0-.24,0-.57,.02-.97v-.73c0-1.67-.11-2.88-.34-3.62-.34-1.17-1.01-1.81-2.01-1.91-.14,0-.48,.13-1.01,.39-.53,.26-.83,.44-.9,.53-.03,.03-.05,.41-.05,1.14,0,.43,.02,1.21,.05,2.34,.02,1.13,.02,1.92,.02,2.37,0,.53,0,.89-.02,1.09-.42,.23-1.2,.56-2.34,.99-.07-.13-.11-.63-.11-1.5,0-.52,.02-1.94,.06-4.27,.03-2.34,.05-4.22,.05-5.66v-.79c0-1.29-.08-1.14-.25-1.5-.11-.26-.52-.85-1.23-1.33-.17-.12-.25-.22-.25-.29,0-.11,.1-.17,.29-.19,.23-.03,.74-.15,1.55-.37,.72-.2,1.22-.29,1.5-.29,.23,0,.4,.07,.51,.2-.03,1.54-.05,2.2-.05,3.47,0,2.34,.02,3.52,.05,3.55,.02-.02,.09-.08,.24-.19,.92-.71,1.79-1.06,2.59-1.06s1.64,.31,2.45,.92c.79,.59,1.19,2.59,1.19,6v1.1Z" />
    <path class="cls-1"
        d="M52.49,67.55c-.2,.09-.42,.21-.67,.34-.66,.32-1.67,.84-3.02,1.55-1.23,.68-1.84,1.17-1.84,1.47,0,.86,.26,1.59,.77,2.17,.53,.64,1.26,.97,2.18,.97,.42,0,.89-.21,1.42-.62,.53-.41,.87-.62,1.02-.62,.13,0,.28,.16,.46,.48-.26,.31-.7,.77-1.31,1.38-1.31,.64-2.33,.97-3.07,.97-.98,0-1.83-.37-2.54-1.11-.84-.86-1.26-2.03-1.26-3.53,0-.05,0-.21,.02-.48,.2-3.22,1.74-4.84,4.62-4.84,.64,0,1.22,.22,1.76,.65,.46,.39,.75,.59,.85,.59,.05,0,.17-.06,.38-.17,.21-.11,.36-.17,.45-.17,.24,0,.37,.15,.37,.46,0,.11-.2,.28-.6,.51h0Zm-4.06-.78c-.6,0-1.07,.86-1.4,2.58,.37-.14,.88-.37,1.55-.7,.72-.34,1.09-.54,1.09-.6,0-.09-.18-.33-.55-.71-.39-.39-.61-.58-.67-.58h0Z" />
    <path class="cls-1"
        d="M74.82,72.74v4.72c-.12,.03-.2,.06-.25,.09l-.17,.09c-.08,.05-.27,.1-.58,.17v-3.88c-2.38,1.03-4.26,1.55-5.64,1.55-.27,0-.46,0-.58-.02-2.11-.29-3.68-1.08-4.71-2.37-.79-.98-1.39-2.51-1.82-4.59-.08-.4-.12-.82-.12-1.26,0-1.27,.3-2.67,.9-4.2,.51-1.27,.97-2.11,1.38-2.51,.43-.43,1.16-.87,2.19-1.31,1.21-.5,2.31-.74,3.29-.74,.65,0,1.87,.7,3.64,2.1,.28,.21,.46,.35,.55,.41,.77-1.31,1.25-1.96,1.45-1.96,.06,0,.17,.05,.33,.14,.02,0,.07,.02,.18,.07-.05,.2-.2,.55-.46,1.06-1.18,2.41-1.77,3.86-1.77,4.35,0,.05,.2,.07,.61,.07,.5,0,1.21-.07,2.15-.21,0,.13-.1,1.51-.29,4.15-.2,2.66-.31,4.02-.31,4.08h0Zm-7.9-12.56c-.66,.02-1.35,.49-2.08,1.43-.75,.97-1.13,1.93-1.13,2.88,.05,.31,.14,.5,.28,.58,.11,.06,.34,.09,.7,.09,3.76,0,6.15-.11,7.16-.34-.32-.83-.99-1.78-2.01-2.84-1.12-1.2-2.08-1.79-2.88-1.79h-.05Zm4.84,6.75c-5.33,0-8.01,.26-8.04,.79,.39,1.79,1.2,3.21,2.45,4.26,1.24,1.01,2.72,1.52,4.42,1.52,1.13,0,2.19-.22,3.16-.66,.06-.19,.11-1.1,.18-2.75,.02-.87,.05-1.92,.09-3.14-.05,0-.33,0-.85-.02h-1.42Z" />
    <path class="cls-1"
        d="M81.47,73.68c-.98,.77-2.2,1.29-3.64,1.57-.09-.08-.13-1.29-.13-3.62s.02-5.72,.05-9.84c0-.37-.39-.92-1.16-1.66-.17-.17-.26-.32-.26-.44,.25-.17,.81-.4,1.69-.7,.89-.31,1.48-.46,1.78-.46,.18,0,.27,.06,.27,.17,.06,.44,.09,1.6,.09,3.48v1.24l-.05,10.07c.74-.41,1.18-.61,1.33-.61,.26,.04,.39,.15,.39,.32,0,.13-.12,.29-.37,.48h0Z" />
    <path class="cls-1"
        d="M92.96,74.02c-.2,.09-.52,.27-.97,.53l-.27,.17-.55,.37c-.57,.37-.88,.55-.94,.55-.4,0-.61-.64-.63-1.93-.11,.03-.51,.35-1.2,.94-.81,.69-1.59,1.04-2.35,1.04s-1.49-.39-2.15-1.16c-.84-.98-1.26-2.34-1.26-4.08v-.2c.06-3.25,1.58-4.87,4.56-4.87l2.32,.99s-.03-.4-.05-1.12c-.03-2.82-.15-4.37-.37-4.66-.13-.17-.42-.43-.87-.77-.45-.34-.67-.58-.67-.73,0-.09,.42-.25,1.27-.46,.92-.23,1.69-.34,2.32-.34,.43,0,.65,.23,.65,.68,0,.09,0,.22-.02,.37-.03,.16-.05,.26-.05,.31v13.51c0,.23,.06,.37,.18,.41,.61-.39,.95-.58,1.04-.58,.32,0,.48,.18,.48,.53,0,.19-.16,.36-.48,.51h0Zm-3.48-5.05c0-.57-.32-1.15-.97-1.75-.53-.5-.9-.74-1.11-.74-.86,0-1.52,.34-1.98,1.01-.41,.58-.61,1.34-.61,2.26,0,1.06,.24,2.01,.73,2.83,.51,.9,1.15,1.36,1.91,1.36,.29,0,.69-.24,1.2-.71,.55-.51,.83-1,.83-1.47v-2.8Z" />
    <path class="cls-1"
        d="M101.25,67.55c-.2,.09-.42,.21-.67,.34-.66,.32-1.67,.84-3.02,1.55-1.23,.68-1.84,1.17-1.84,1.47,0,.86,.26,1.59,.77,2.17,.53,.64,1.26,.97,2.18,.97,.42,0,.89-.21,1.42-.62s.87-.62,1.02-.62c.13,0,.28,.16,.46,.48-.26,.31-.7,.77-1.31,1.38-1.31,.64-2.33,.97-3.07,.97-.98,0-1.83-.37-2.54-1.11-.84-.86-1.26-2.03-1.26-3.53,0-.05,0-.21,.02-.48,.2-3.22,1.74-4.84,4.62-4.84,.64,0,1.22,.22,1.76,.65,.46,.39,.75,.59,.85,.59,.05,0,.17-.06,.38-.17,.21-.11,.36-.17,.45-.17,.24,0,.37,.15,.37,.46,0,.11-.2,.28-.6,.51h0Zm-4.06-.78c-.6,0-1.07,.86-1.4,2.58,.37-.14,.88-.37,1.55-.7,.72-.34,1.09-.54,1.09-.6,0-.09-.18-.33-.55-.71-.39-.39-.61-.58-.67-.58h0Z" />
    <path class="cls-1"
        d="M109.06,67.94c-.23,0-.5-.11-.8-.34-.34-.26-.63-.4-.88-.44-.13,.02-.47,.22-1.01,.6-.57,.41-.85,.64-.85,.68v5.79c-.05,.18-.34,.43-.87,.75-.58,.35-1.06,.53-1.43,.53-.24-.05-.35-.79-.35-2.23,0-.46,.02-1.18,.05-2.15,.02-.97,.02-1.63,.02-1.98,0-.45-.02-.78-.05-.99-.09-.57-.44-.95-1.07-1.16-.35-.12-.53-.29-.53-.53,.02-.13,.17-.22,.46-.27,.17-.02,.45-.05,.85-.09,.46-.06,1.01-.18,1.64-.37,.4-.11,.67-.17,.8-.17,.29,.06,.44,.24,.44,.53,0,.08,0,.2-.02,.37-.03,.17-.05,.29-.05,.35,0,.15,.06,.25,.19,.29,.03,0,.43-.27,1.2-.8,.83-.56,1.36-.84,1.6-.84,.17,0,.48,.08,.91,.24,.5,.17,.78,.33,.83,.51-.16,.32-.3,.6-.44,.83-.32,.57-.53,.86-.63,.87h0Z" />
    <path class="cls-1"
        d="M124.29,76.31h-.24c-1.23,0-2.91-.24-5.05-.72-.44-.09-.69-.14-.75-.14-.16,0-.4,.54-.72,1.62-.08,.29-.2,.68-.37,1.18-.16,.42-.3,.63-.44,.63-.08,0-.19-.06-.33-.19-.17-.13-.25-.25-.25-.37,.31-.72,.77-2.09,1.4-4.1,.19-1.54,.44-2.31,.74-2.31,.29,.28,1.14,.81,2.54,1.59,1.92,1.05,3.43,1.57,4.54,1.57,.42,0,.76-.07,1.01-.2,.76-.37,1.35-1.17,1.77-2.41,.29-.84,.44-1.58,.44-2.23,0-.88-.18-1.58-.53-2.1-.35-.52-.85-.78-1.5-.78-.37,0-1.48,.26-3.34,.78-1.92,.53-3.16,.8-3.72,.8-.83,0-1.47-.34-1.93-1.01-.4-.6-.6-1.36-.6-2.28,0-2.04,.51-3.77,1.52-5.17,1.05-1.45,2.41-2.18,4.08-2.18h.09c.69,.02,1.64,.49,2.83,1.4,1.19,.9,1.79,1.36,1.8,1.36,.03,0,.25-.33,.65-.99,.42-.66,.74-.99,.94-.99,.13,0,.26,.06,.39,.19,.13,.13,.2,.29,.2,.46-.2,.2-.61,.81-1.24,1.84-.79,1.32-1.18,2.26-1.18,2.83,0,.08,.15,.12,.46,.12,1.22,.32,2.09,.79,2.61,1.4,.5,.62,.74,1.53,.74,2.72,0,2-.54,3.71-1.62,5.14-1.23,1.64-2.89,2.49-4.98,2.54h0Zm-2.88-16.47c-.72,0-1.28,.4-1.66,1.2-.34,.72-.51,1.63-.51,2.72,0,.64,.15,1.18,.44,1.6,.32,.46,.77,.7,1.36,.7,.46,0,1.33-.18,2.61-.55,1.34-.39,2.17-.71,2.51-.97-2.32-3.14-3.9-4.71-4.74-4.71h0Z" />
    <path class="cls-1"
        d="M136.23,75.39c-1.51,0-2.63-.43-3.37-1.3-.61-.71-.92-1.65-.92-2.83,0-1.53,.37-2.83,1.11-3.92,.87-1.25,2.09-1.88,3.64-1.88,.5,0,1.14,.15,1.91,.46,.95,.37,1.43,.8,1.43,1.3,0,.24-.42,.67-1.26,1.29-.06,0-.14-.05-.24-.14-.06-.07-.13-.14-.19-.2-1.05-1.09-1.9-1.64-2.56-1.64-.46,0-.84,.38-1.14,1.13-.29,.69-.44,1.45-.44,2.28,0,1.14,.28,2.07,.83,2.8,.61,.81,1.5,1.21,2.65,1.21,.37,0,.8-.26,1.3-.77,.5-.52,.78-.77,.86-.77,.09,0,.2,.06,.31,.19,.13,.14,.2,.25,.2,.32,0,.2-.42,.64-1.26,1.3-.98,.79-1.93,1.18-2.85,1.18h0Z" />
    <path class="cls-1"
        d="M147.63,67.94c-.23,0-.5-.11-.8-.34-.34-.26-.63-.4-.88-.44-.13,.02-.47,.22-1.01,.6-.57,.41-.85,.64-.85,.68v5.79c-.05,.18-.34,.43-.87,.75-.58,.35-1.06,.53-1.43,.53-.24-.05-.35-.79-.35-2.23,0-.46,.02-1.18,.05-2.15,.02-.97,.02-1.63,.02-1.98,0-.45-.02-.78-.05-.99-.09-.57-.44-.95-1.07-1.16-.35-.12-.53-.29-.53-.53,.02-.13,.17-.22,.46-.27,.17-.02,.45-.05,.85-.09,.46-.06,1.01-.18,1.64-.37,.4-.11,.67-.17,.8-.17,.29,.06,.44,.24,.44,.53,0,.08,0,.2-.02,.37-.03,.17-.05,.29-.05,.35,0,.15,.06,.25,.19,.29,.03,0,.43-.27,1.2-.8,.83-.56,1.36-.84,1.6-.84,.17,0,.48,.08,.91,.24,.5,.17,.78,.33,.83,.51-.16,.32-.3,.6-.44,.83-.32,.57-.53,.86-.63,.87h0Z" />
    <path class="cls-1"
        d="M156.73,72.06c-.28,.77-.93,1.53-1.96,2.26-1,.73-1.9,1.1-2.7,1.1h-.09c-1.78-.07-3.06-.88-3.85-2.44-.21-.42-.32-1.09-.32-2.01,0-.5,.04-1.11,.11-1.82,.09-1.08,.69-1.94,1.78-2.58,.58-.34,1.61-.73,3.09-1.18,.17-.06,.33-.08,.48-.08,.87,0,1.7,.4,2.49,1.19,.9,.92,1.36,2.05,1.36,3.39,0,.69-.13,1.42-.39,2.17h0Zm-4.95-5.34c-.11,0-.21,.02-.31,.07-.53,.21-.96,.59-1.26,1.14-.29,.5-.44,1.03-.44,1.62,0,.89,.23,1.69,.68,2.42,.61,.97,1.54,1.62,2.8,1.96,.69,0,1.13-.32,1.31-.97,.09-.35,.14-1.23,.14-2.64,0-.98-.35-1.85-1.04-2.61-.63-.66-1.26-.99-1.89-.99h0Z" />
    <path class="cls-1"
        d="M163.08,73.68c-.98,.77-2.2,1.29-3.64,1.57-.09-.08-.13-1.29-.13-3.62s.02-5.72,.05-9.84c0-.37-.39-.92-1.16-1.66-.17-.17-.26-.32-.26-.44,.25-.17,.81-.4,1.69-.7,.89-.31,1.48-.46,1.78-.46,.18,0,.27,.06,.27,.17,.06,.44,.09,1.6,.09,3.48v1.24l-.05,10.07c.74-.41,1.18-.61,1.33-.61,.26,.04,.39,.15,.39,.32,0,.13-.12,.29-.37,.48h0Z" />
    <path class="cls-1"
        d="M169.12,73.68c-.98,.77-2.2,1.29-3.64,1.57-.09-.08-.13-1.29-.13-3.62s.02-5.72,.05-9.84c0-.37-.39-.92-1.16-1.66-.17-.17-.26-.32-.26-.44,.25-.17,.81-.4,1.69-.7,.89-.31,1.48-.46,1.78-.46,.18,0,.27,.06,.27,.17,.06,.44,.09,1.6,.09,3.48v1.24l-.05,10.07c.74-.41,1.18-.61,1.33-.61,.26,.04,.39,.15,.39,.32,0,.13-.12,.29-.37,.48h0Z" />
    <path class="cls-1"
        d="M178.15,72.85c-.26,.63-.83,1.21-1.72,1.75-.97,.58-1.95,.87-2.95,.87-.3,0-.63-.04-.98-.13-1.18-.27-1.77-.87-1.77-1.8,0-.75,.47-1.27,1.4-1.55,.97,1.48,1.97,2.22,3,2.22,.4,0,.73-.16,.99-.48,.24-.29,.35-.64,.35-1.04,0-.45-.18-.89-.55-1.33-.32-.37-.64-.59-.97-.67-.31-.06-.71-.1-1.2-.12-.68-.02-1.09-.03-1.23-.05-.92-.08-1.51-.42-1.77-1.04-.17-.42-.26-.83-.26-1.21,0-1.03,.6-1.85,1.8-2.47,.98-.5,2.17-.77,3.55-.84h.2c.4,0,.75,.09,1.04,.28,.31,.23,.46,.51,.46,.85,0,.45-.27,.8-.8,1.06-.26,.13-.44,.19-.55,.19-.24,0-.47-.2-.67-.6-.24-.46-.52-.74-.83-.81-.11-.03-.26-.05-.44-.05-.94,0-1.47,.39-1.62,1.16-.03,.09-.05,.19-.05,.28,0,.63,.52,1.03,1.57,1.19,.5,.05,1,.1,1.52,.17,.6,.06,1.09,.17,1.47,.32,.29,.11,.55,.31,.79,.6,.37,.45,.55,.99,.55,1.62,0,.52-.12,1.07-.35,1.64h0Z" />
</svg>
