<?xml version="1.0" encoding="UTF-8"?>
<svg id="_Слой_1" data-name="Слой 1" xmlns="http://www.w3.org/2000/svg"
    xmlns:xlink="http://www.w3.org/1999/xlink" viewBox="0 0 196 136">
    <defs>
        <style>
            .cls-1 {
            fill: none;
            }

            .cls-2 {
            clip-path: url(#clippath);
            }

            .cls-3 {
            fill: #d4d4d4;
            }

            .cls-4 {
            clip-path: url(#clippath-1);
            }
        </style>
        <clipPath id="clippath">
            <rect class="cls-1" x=".44" y="-.98" width="195.12" height="137.96" />
        </clipPath>
        <clipPath id="clippath-1">
            <rect class="cls-1" x=".44" y="-.98" width="195.12" height="137.96" />
        </clipPath>
    </defs>
    <g class="cls-2">
        <g class="cls-4">
            <g>
                <polygon class="cls-1"
                    points="106.93 66.89 99.97 66.9 99.89 69.33 107.1 69.33 106.99 66.09 106.93 66.89" />
                <polygon class="cls-3"
                    points="78.88 73.73 78.88 73.73 79.25 73.73 79.25 73.73 78.88 73.73" />
                <polygon class="cls-3"
                    points="80.27 73.73 80.27 73.73 79.65 73.73 79.65 73.73 80.27 73.73" />
                <polygon class="cls-3"
                    points="95.06 73.72 95.06 73.72 95.53 73.72 95.53 73.72 95.06 73.72" />
                <polygon class="cls-3"
                    points="51.73 73.78 51.73 73.78 52.77 73.78 52.77 73.78 51.73 73.78" />
                <path class="cls-3"
                    d="M133.14,62.71h-1.14s-.1-.78-.1-.78h2.35s-.33-2.09-.33-2.09h-2.57s.24,1.92,.24,1.92h-1.1s-.05,0-.08,0c-.05,0-.09,0-.14,0h-.7s-.26-1.91-.26-1.91h-2.49s.26,2.09,.26,2.09h2.28s.11,.77,.11,.77h-1.15s.42,3.22,.42,3.22h1.38s-.1-1.1-.1-1.1h2.04s.17,1.09,.17,1.09h1.4s-.49-3.21-.49-3.21Z" />
                <polygon class="cls-3"
                    points="114.05 60.17 114.27 63.55 116.42 63.55 116.16 60.17 114.05 60.17" />
                <path class="cls-3"
                    d="M168.8,73.68l-.44-1.5-.41-1.37s-1.29-4.21-1.46-4.77c-.21-.69-.42-1.37-.61-2.04l-.03-.11,2.87-3.44-1.35-4.23h-14.43s-.44,.72-.44,.72l-.17-.7h-14.53s-.36,.81-.36,.81l-.14-.8-14.65,.02-.26,.96-.1-.96h-14.8s-.14,1.58-.14,1.58l-.05-1.56-14.87,.02-.05,1.43-.15-1.43-14.74,.02-.1,.92-.26-.92h-7.11s-.57,3.97-.57,3.97l-.32-.82h-.16s-1.24-3.15-1.24-3.15h-7.02s-.14,.77-.14,.77l-.37-.76h-6.95s-.16,.72-.16,.72l-.41-.71h-6.89s-.8,3.1-.8,3.1h-1.87s-.36,1.35-.36,1.35l-3.25-4.43h-6.71s-5.73,17.81-5.73,17.81l6.09,5.63h6.64l1.05-3.97,.51,.57h1.78l2.96,3.39h6.82s.13-.64,.13-.64l.48,.64h6.87s.12-.7,.12-.7l.44,.69h6.94s.54-3.72,.54-3.72l1.79,3.72h7.03s.09-.85,.09-.85l.31,.85h14.63s.05-1.35,.05-1.35l.16,1.35h14.75s.14-1.48,.14-1.48l.05,1.48h7.23s.23-1.04,.23-1.04l.07,1.04h7.15s.3-.89,.3-.89l.09,.89h7.07l.36-.79,.11,.79h7l.42-.73,.12,.73h6.94s4.01-5.72,4.01-5.72l-.19-.92h2.22s3.14-4.35,3.14-4.35l2.7,10.98h6.81s5.69-5.66,5.69-5.66l-.12-.43Zm-116.96,3.93c0,.31-.06,.54-.14,.61,.02,.08-.03,.14-.15,.18,.06,.23-.09,.4-.42,.4h-3.84c-.42,0-.99-.26-1.26-.59l-3.25-3.87c-.24-.28-.16-.51,.15-.57-.03,0-.07-.01-.09-.02h-.55s1.75-6.97,1.75-6.97h-.25c-.15,.05-.39,.09-.67,.09h-.05c-.31,0-.59-.04-.73-.09h-.42s-.91,3.4-.91,3.4h-1.09s0,0,0,0h.33c.42,0,.98,.27,1.24,.6l.49,.62c.26,.33,.38,.93,.27,1.34l-.07,.25c-.11,.41,0,1.02,.24,1.37l.25,.36c.24,.35,.16,.64-.18,.66-.35,.02-.86-.23-1.14-.54l-1.79-2.02c-.35,.01-.68-.06-.78-.18-.1-.13,.09-.21,.43-.2l-1.48-1.67c-.28-.32-.16-.57,.26-.57h-.77s.94-3.4,.94-3.4h-.24c-.15,.05-.4,.09-.68,.09h-.05c-.3,0-.58-.04-.72-.09h-.45s-.87,2.95-.87,2.95c.22,.01,.34,.09,.31,.22,.04,.02,.06,.05,.06,.07,0,.06-.14,.11-.33,.14-.05,.02-.11,.03-.18,.04l-.5,1.68c.36,.01,.65,.08,.65,.17,0,.03-.03,.05-.07,.07,0,.02,.03,.03,.02,.05-.02,.11-.33,.13-.7,.06,0,0,0,0,0,0l-.45,1.52h-.62s-.03,0-.05,.01c.41,.03,.92,.26,1.19,.55l1.59,1.7c.18,.04,.33,.11,.4,.19,.09,.09,.07,.17-.02,.21l1.71,1.83c.29,.31,.18,.56-.24,.56h-3.66c-.42,0-1.02-.24-1.32-.53l-4.16-3.98c-.25-.24-.22-.44,.04-.5-.04,0-.09-.02-.13-.03h-.46l1.86-5.79c-.07-.03-.11-.06-.11-.09,0-.04,.07-.08,.18-.11l2.44-7.6s-.07-.06-.06-.09c.01-.03,.06-.06,.12-.09l.85-2.64h5.32s-.81,2.72-.81,2.72c0,0,.01,.01,.01,.02,0,.01-.02,.02-.03,.03l-.06,.2,1.86,.07-.93,3.23h4.11l.04-.17c-.36-.02-.63-.09-.63-.17,0-.09,.33-.17,.73-.18l.72-2.68h1.88s.03-.12,.03-.12h-.29l.19-.05s-.04-.04-.03-.07c.01-.04,.09-.07,.19-.1l.72-2.77h5.42s-1.35,5.78-1.35,5.78c.32,.02,.57,.09,.57,.17,0,.04-.07,.08-.17,.11-.07,.08-.25,.13-.49,.12l-2.38,10.24h-.61s-.04,0-.05,.01c.41,.04,.89,.29,1.12,.6l2.67,3.59c.09,.02,.18,.05,.25,.09-.02-.16,0-.38,.09-.61,.13-.36,.24-.31,.24,.11v.08Zm-14.84-2.88l-.05,1.03c-.02,.42-.14,.65-.27,.5-.13-.15-.14-.6-.02-1l.16-.56c.12-.4,.2-.39,.18,.03Zm21.59,4.07h-3.78c-.42,0-.97-.28-1.22-.62l-2.78-3.77c-.25-.34-.11-.61,.31-.62,0,0-.01,0-.02,0h-.74s3.65-16.42,3.65-16.42h5.42s-.62,3.16-.62,3.16c.18,.03,.31,.08,.31,.13,0,.06-.15,.12-.36,.15l-2.55,12.98h-.45s-.1,.02-.15,.03c.39,.06,.82,.31,1.01,.62l2.34,3.71c.23,.36,.06,.65-.36,.65Zm17.54-18.08c0,.05-.09,.08-.24,.1l-1.5,12.92h-.43s-.1,.02-.16,.03c.37,.07,.73,.35,.86,.69l1.33,3.62c.15,.4-.08,.72-.5,.72h-3.84c-.42,0-.91-.31-1.09-.7l-.25-.54c-.12-.02-.21-.06-.23-.13-.02-.06,.03-.11,.09-.16l-1.31-2.83c-.15-.33-.01-.6,.3-.67-.06,0-.12-.02-.17-.03h-.45s.66-4.69,.66-4.69c-.37,.05-.69-.01-.73-.16-.05-.16,.26-.3,.68-.3h.09s.02,0,.04,0v-.08s-1.92-.05-1.92-.05l.48-3.4-2.12-.04-.62,3.87c.15,.08,.27,.18,.34,.28,.16,.25,.23,.5,.14,.55-.04,.03-.11,0-.18-.05l.02,.05c.16,.39,.15,.55-.02,.36-.14-.17-.27-.48-.31-.73-.02-.02-.03-.04-.06-.05l-.71,4.44h-.47s-.1,.02-.15,.02c.38,.06,.79,.33,.96,.66l1.78,3.62c.19,.38,0,.69-.43,.69h-3.72c-.42,0-.95-.29-1.17-.65l-2.25-3.69c-.19-.32-.08-.57,.24-.63-.05,0-.1-.01-.14-.02h-.5l.93-5c-.16-.04-.27-.09-.27-.15,0-.06,.13-.1,.32-.12l2.08-11.15h5.42s-.43,2.72-.43,2.72c.04,.02,.07,.05,.07,.07,0,.03-.04,.06-.09,.08l-.02,.16,1.86,.05-.44,3.18,2.09,.03,.47-3.29c-.07-.05-.11-.11-.1-.19,0-.04,.03-.08,.06-.11,0,0,0,0,0,0,0,0,0,0,.01,0,.01-.01,.03-.03,.05-.04,0,0,.01-.01,.03-.01,0,0,0,0,.01,0l.37-2.63h5.43s-.38,3.26-.38,3.26c.13,.05,.21,.1,.21,.15Zm10.89,2.85s0-.03,0-.04c-.01-.32,.07-.53,.21-.46,.11,.05,.16,.25,.17,.5h3.64s-.14,3.19-.14,3.19h-7.85s-.26,3.56-.26,3.56l6.34,.02c.02-.38,.11-.68,.2-.68,.09,0,.15,.3,.15,.68h1.27s-.15,3.39-.15,3.39h-.56s-.06,.01-.09,.02c.38,.05,.71,.36,.77,.74l.22,1.53c.1,.06,.18,.14,.2,.24,.01,.1-.04,.18-.13,.24l.2,1.42c.06,.42-.24,.76-.66,.76h-11.36c-.42,0-.88-.32-1.02-.72l-1.25-3.5c-.12-.34,.04-.62,.36-.69-.06,0-.12-.02-.17-.03h-.45l.36-3.38c-.22-.03-.38-.09-.38-.15s.17-.13,.41-.16l.83-7.81c-.2-.03-.34-.08-.34-.15,0-.06,.16-.12,.38-.16l.49-4.63h12.94s-.13,2.9-.13,2.9h-7.61s-.24,3.36-.24,3.36h3.69Zm19.7,10.93l-.42,3.55c-.05,.42-.43,.76-.86,.76h-1.92c-.05,.08-.09,.14-.14,.15-.05,0-.08-.06-.1-.15h-9.14c-.42,0-.8-.34-.85-.76l-.08-.71c-.19,0-.34-.06-.35-.21-.01-.13,.07-.23,.21-.29,.02-.01,.05-.02,.08-.03l-.25-2.3c-.04-.36,.18-.64,.51-.73-.08-.01-.14-.02-.2-.04h-.39s.26-7.71,.26-7.71c-.08-.03-.13-.07-.13-.11,0-.04,.06-.07,.14-.1l.29-8.52h12.96s.08,2.9,.08,2.9h-7.52s-.05,3.1-.05,3.1c.25,.11,.41,.23,.38,.3-.01,.03-.07,.04-.14,.04,0,.02,.02,.04,.02,.05,0,.11-.11,.13-.27,.08l-.12,6.6h7.99s.1,3.38,.1,3.38h-.5s-.08,.02-.13,.03c.34,.07,.58,.36,.53,.73Zm-6.83-5.15l.07-2.43h6.96s.06-.81,.06-.81l.11,3.24h-7.21Zm22.9,5.11l-.43,1.24s.07,.08,.05,.13c-.02,.05-.07,.08-.14,.11l-.71,2.03c-.14,.4-.6,.72-1.02,.72h-3.78c-.42,0-.69-.34-.59-.75l.82-3.46c.08-.33,.37-.61,.71-.7-.09-.01-.17-.03-.23-.04h-.3s-.3-3.91-.3-3.91c-.2-.03-.34-.08-.34-.15s.13-.11,.32-.14l-.21-2.74-2.18-.05,.11,1.7c.3,.02,.52,.09,.52,.17s-.21,.14-.5,.17l.32,4.97h-.54s-.07,.02-.11,.03c.34,.06,.55,.35,.47,.72l-.72,3.03c.07,.03,.12,.07,.12,.1,0,.04-.07,.07-.17,.09l-.07,.3c-.1,.41-.52,.75-.94,.75h-3.78c-.42,0-.72-.34-.67-.76l.08-.64c-.15-.04-.24-.1-.24-.15,0-.05,.11-.09,.27-.11l.33-2.59c.05-.42,.44-.76,.86-.76h-.76s-.43-11.25-.43-11.25c-.23,.03-.4-.03-.41-.18,0-.03,.02-.06,.03-.08-.04-.02-.06-.04-.06-.07,0-.06,.12-.1,.3-.14,.04-.01,.08-.03,.12-.04l-.18-4.7h2.05c.02-.11,.05-.19,.09-.19,.05,0,.1,.07,.14,.19h10.68s.61,6.1,.61,6.1h-1.94s.11,1.1,.11,1.1c.18,.03,.3,.08,.3,.13,0,.05-.11,.1-.27,.13l.05,.47h1.94s.86,8.53,.86,8.53h-.56s-.05,.02-.09,.03c.34,.06,.52,.34,.39,.7Zm14,3.63c-.21,.36-.73,.66-1.15,.66h-3.9c-.42,0-.62-.31-.43-.69l1.77-3.64c.16-.33,.56-.6,.94-.66-.04,0-.08-.02-.12-.03h-.48s-.55-3.84-.55-3.84c-.23-.03-.4-.08-.4-.15,0-.06,.15-.12,.35-.15l-.17-1.16h-2.21s.73,5.31,.73,5.31h-.54s-.05,.02-.09,.03c.31,.07,.46,.33,.3,.67l-.92,1.97c.08,.05,.12,.11,.09,.18-.03,.08-.13,.14-.26,.18l-.61,1.3c-.18,.38-.67,.7-1.09,.7h-3.78c-.42,0-.65-.32-.51-.72l1.26-3.57c.12-.33,.45-.6,.81-.68-.06-.01-.12-.02-.16-.04h-.39l-1.82-16.47h12.98s2.22,12.84,2.22,12.84l.47,.04-.03,.12c.1,.04,.16,.08,.14,.12-.01,.04-.09,.06-.19,.08l-.05,.22-.27-.11,.54,3.15h-.5s-.07,.02-.12,.03c.3,.07,.41,.32,.23,.63l-2.13,3.69Zm12.88-10.48l-.39,.51c-.25,.34-.33,.29-.17-.1v-.02c.17-.39,.46-.77,.66-.86,.2-.08,.15,.12-.11,.46Zm3.8-.87c-.16,.06-.44,.1-.74,.1h-1.67c-.33,0-.63-.04-.78-.1h-.36c-.06,.2-.14,.32-.24,.29-.08-.03-.11-.14-.1-.29h-.55c-.16,.06-.43,.1-.72,.1h-1.35c-.32,0-.62-.04-.77-.09h-.22l1.46,6.99h-.56s-.05,.02-.09,.02c.32,.05,.42,.3,.2,.6l-2.69,3.78c-.24,.34-.79,.62-1.21,.62h-3.84c-.42,0-.59-.3-.37-.66l1.01-1.65c-.05,0-.09-.02-.13-.04-.02,0-.05,0-.07-.02-.06-.03-.08-.08-.08-.13-.04-.1-.07-.24-.07-.42l-.02-.97c-.01-.42,.08-.43,.19-.03l.18,.62c.05,.19,.07,.38,.07,.54,.08-.02,.16-.04,.24-.05l.95-1.56c.18-.3,.57-.54,.94-.62-.06-.01-.11-.02-.16-.03h-.39l-3.01-16.48h6.83c0-.09,.02-.15,.05-.17,.05-.01,.11,.05,.18,.16h5.95s.72,2.91,.72,2.91h-.74c-.16,.05-.42,.09-.71,.09h-1.66c-.31,0-.61-.04-.76-.09h-.41c.05,.2,.07,.36,.06,.46l.07,.28-.54-.12,.02-.63h-.34c-.16,.05-.4,.09-.68,.09h-.72c-.31,0-.58-.04-.73-.09h-.52s.69,3.3,.69,3.3h4.05c.01-.28,.06-.5,.13-.53,.08-.03,.15,.2,.19,.53h3.4s.8,3.27,.8,3.27h-.41Zm13.75,7.53l-4,3.9c-.3,.29-.89,.53-1.32,.53h-3.66c-.42,0-.54-.26-.26-.57l1.4-1.59c-.19-.05-.25-.18-.17-.33-.09-.1-.17-.26-.21-.47l-.38-2.01c-.08-.42,0-.44,.18-.06l.79,1.71c.08,.18,.11,.35,.11,.51,.09-.02,.19-.04,.29-.05l1.35-1.53c.23-.27,.67-.48,1.06-.55-.05,0-.09-.02-.13-.03h-.42s-1.19-4.35-1.19-4.35c-.12,0-.23-.02-.32-.06-.05,.18-.15,.38-.29,.57l-.89,1.21c-.25,.34-.3,.31-.11-.07l.82-1.67c.06-.12,.12-.21,.18-.28-.02-.03-.04-.05-.05-.08-.07-.24,.13-.39,.45-.4l-2.31-8.44h-.1s0,.01,0,.01c.11,.41,.09,.65-.04,.53-.08-.07-.16-.29-.21-.55h-.34c-.16,.06-.42,.1-.72,.1h-1.27c-.32,0-.62-.04-.77-.09h-.33s-.74-2.92-.74-2.92h10c.01-.05,.03-.08,.05-.09,.03,0,.07,.03,.11,.08h2.85s.93,2.92,.93,2.92h-.29c-.15,.06-.43,.11-.74,.11h-.77c-.34,0-.64-.04-.77-.1h-.3c.07,.27,.04,.46-.1,.46s-.27-.19-.35-.46h-.47s.02,.09,.02,.09c.16,.64,.33,1.29,.51,1.95,.18,.67,.38,1.34,.58,2.03,.2,.69,.41,1.38,.62,2.08,.21,.7,.43,1.41,.65,2.11,.05,.16,.1,.33,.15,.49,.14,.03,.23,.08,.23,.13,0,.04-.07,.08-.16,.11,.06,.19,.12,.38,.18,.58,.14,.44,.27,.88,.4,1.32,.14,.45,.27,.89,.4,1.34,.13,.45,.26,.9,.39,1.35h-.49s-.07,.02-.11,.03c.26,.06,.3,.26,.05,.51Z" />
                <polygon class="cls-3"
                    points="53.26 73.78 53.26 73.78 53.86 73.78 53.86 73.78 53.26 73.78" />
                <polygon class="cls-3"
                    points="119.52 73.72 120.07 73.72 120.06 73.72 119.52 73.72 119.52 73.72" />
                <polygon class="cls-3"
                    points="118.9 73.72 118.9 73.72 119.25 73.72 119.25 73.72 118.9 73.72" />
                <path class="cls-3"
                    d="M32.55,60.07s.02,.06,.06,.09l.06-.17c-.06,.03-.11,.05-.12,.09Z" />
                <path class="cls-3" d="M38.05,60.08s-.01-.01-.01-.02v.05s.01-.02,.01-.03Z" />
                <path class="cls-3"
                    d="M37.27,60.28c.38,0,.68-.07,.75-.17v-.05c-.01-.1-.31-.18-.68-.19-.16,.05-.41,.09-.68,.09h-1.4c-.31,0-.6-.04-.75-.09h-1.11c-.3,0-.57,.04-.72,.11l-.06,.17c.11,.06,.34,.11,.63,.11l4.02,.02Z" />
                <path class="cls-3"
                    d="M35.12,72.12s.07-.05,.07-.07c0-.09-.28-.16-.65-.17l-.02,.07c.32,.01,.55,.08,.6,.17Z" />
                <polygon class="cls-3" points="34.44 72.22 34.45 72.22 34.44 72.22 34.44 72.22" />
                <path class="cls-3"
                    d="M35.22,70.16c.2-.03,.33-.08,.33-.14,0-.02-.02-.05-.06-.07,0,0,0,0,0,.01-.03,.09-.13,.16-.27,.2Z" />
                <path class="cls-3" d="M30,67.87s.05,.06,.11,.09l.06-.2c-.11,.03-.18,.07-.18,.11Z" />
                <path class="cls-3"
                    d="M31.91,71.87c-.42,0-.66-.33-.53-.73l.07-.21c.13-.4,.58-.73,1.01-.73h2.14l-.38-.06c-.42-.06-.42-.18,0-.27l.17-.03h-1.81c-.42,0-.66-.33-.53-.73l.23-.69c.11-.35-.06-.63-.39-.7-.14,.04-.35,.08-.59,.08-.3,0-.57-.04-.69-.1-.17,0-.32,.03-.43,.06l-.06,.2c.13,.05,.37,.09,.65,.09h.49c.42,0,.66,.33,.53,.73l-.89,2.72c-.13,.4,.11,.73,.53,.73h3.01s.01,0,.02,0h0s-.06,0-.08-.02l-.35-.08c-.41-.1-.4-.18,.02-.18h.39s.06,0,.1,0l.02-.07s-.08,0-.12,0h-2.52Z" />
                <path class="cls-3"
                    d="M42.41,63.27c0,.09,.28,.16,.63,.17l.09-.35c-.4,0-.73,.08-.73,.18Z" />
                <path class="cls-3"
                    d="M51.04,63.36s-.02,.01-.02,.02c.1-.03,.17-.07,.17-.11,0-.08-.24-.15-.57-.17v.04c.3,.01,.49,.1,.42,.22Z" />
                <path class="cls-3"
                    d="M45.83,60.09c-.1,.03-.17,.06-.19,.1,0,.02,0,.05,.03,.07l.12-.03,.04-.14Z" />
                <path class="cls-3"
                    d="M45.85,60.22c-.01-.08,.05-.13,.15-.16-.07,.01-.12,.02-.17,.04l-.04,.14h.05Z" />
                <path class="cls-3"
                    d="M46.81,63.45h3.33s0,0,0,0l-.24-.06c-.41-.1-.4-.2,.02-.23l.5-.03c.07,0,.13,0,.19,0v-.04c-.06,0-.12,0-.19,0h-1.66c-.42,0-.72-.34-.66-.76l.21-1.56c.06-.42-.24-.76-.66-.76h-1.17c-.06,0-.11,0-.17,0,.08,0,.16,.01,.25,.03l.55,.11c.41,.08,.41,.15-.01,.15h-1.3c.13,.04,.32,.06,.55,.06h.89c.42,0,.72,.34,.66,.76l-.16,1.21c-.06,.42-.45,.76-.87,.76h-3.68s-.02,0-.04,0l-.09,.35s.09,0,.13,0h3.63Z" />
                <polygon class="cls-3"
                    points="52.78 73.78 52.77 73.78 52.77 73.78 52.78 73.78 52.78 73.78" />
                <path class="cls-3"
                    d="M52.77,73.22c.1-.41,.25-.45,.33-.09,0,.02,.01,.05,.02,.07,0-.06,0-.12,0-.17l.24-1.31c.08-.42,.03-.58-.11-.36-.14,.21-.31,.73-.39,1.15l-.11,.61c-.02,.13-.02,.27-.01,.43,0-.11,0-.23,.03-.33h0Z" />
                <path class="cls-3"
                    d="M52.74,73.59c0,.06,.01,.13,.02,.19h0c-.01-.06-.03-.13-.03-.19Z" />
                <path class="cls-3"
                    d="M53.12,74.51c-.17-.18-.29-.45-.35-.73h0c.05,.27,.14,.54,.27,.73l.19,.28c.24,.35,.62,.77,.84,.94,.23,.17,.22,.02-.02-.33l-.58-.87c.04,.23-.09,.23-.35-.02Z" />
                <path class="cls-3"
                    d="M59.12,60.65c0-.06-.12-.1-.31-.13l-.06,.28c.21-.03,.36-.08,.36-.15Z" />
                <path class="cls-3"
                    d="M56.85,60.51c-.42,0-.59,.08-.38,.16,.21,.08,.73,.15,1.15,.15h.74c.15,0,.29-.01,.4-.03l.06-.28c-.13-.02-.28-.03-.46-.03l-1.51,.03Z" />
                <path class="cls-3"
                    d="M61.03,73.39c.03,.08,.07,.2,.1,.35h.09c-.02-.28,0-.56,.04-.78l.08-.35c.09-.41,.05-.57-.1-.34-.15,.22-.32,.65-.39,.94-.01,.05-.02,.12-.02,.18,.06-.11,.15-.11,.2,.01Z" />
                <path class="cls-3"
                    d="M61.18,74.13c.02,.26-.09,.29-.24,.06-.02-.03-.04-.07-.06-.11,.02,.11,.05,.21,.09,.3,.14,.36,.37,.81,.52,1.01,.15,.19,.17,.03,.04-.37l-.19-.58c-.06-.19-.1-.44-.12-.7h-.09c.03,.13,.05,.27,.05,.4Z" />
                <path class="cls-3"
                    d="M65.08,69.34s-.01-.07-.02-.1c-.02-.26,.1-.16,.25,.24l.08,.2c.07,.05,.14,.07,.18,.05,.08-.05,.02-.3-.14-.55-.07-.1-.19-.2-.34-.28l-.06,.4s.04,.04,.06,.05Z" />
                <path class="cls-3"
                    d="M59.12,68.59c0,.05,.11,.11,.27,.15l.05-.27c-.19,.02-.32,.07-.32,.12Z" />
                <path class="cls-3"
                    d="M61.17,68.51s-.01,0-.02,0h-.41c-.23,0-.44-.02-.59-.05h-.25c-.17-.02-.33-.01-.46,0l-.05,.27c.13,.03,.3,.06,.49,.07l4.28,.22c.32,.02,.65,.13,.86,.27l.06-.4c-.21-.12-.47-.21-.72-.22l-3.19-.16Z" />
                <path class="cls-3"
                    d="M66.59,60.11s-.03-.05-.07-.07l-.02,.16c.05-.02,.09-.05,.09-.08Z" />
                <path class="cls-3"
                    d="M64.9,59.89c-.42-.01-.63,.08-.47,.19,.16,.11,.64,.21,1.06,.21h.33c.29,0,.55-.04,.67-.1l.02-.16c-.12-.06-.39-.12-.7-.12l-.92-.02Z" />
                <path class="cls-3" d="M69.26,68.58s-.02,0-.04,0h.04Z" />
                <path class="cls-3"
                    d="M70.33,68.59c-.08-.02-.13-.04-.17-.06l-.62,.03c-.1,0-.2,.01-.29,.03h0s1.07,0,1.07,0Z" />
                <path class="cls-3"
                    d="M71.36,68.64h-.29s-.11,.06-.28,.09l-.79,.16,2.06-.09c.42-.02,.71,.31,.65,.73l-.52,3.44c-.03,.21-.04,.49-.02,.76h.07c-.02-.23-.01-.45,.02-.61,.06-.36,.13-.36,.15,0,0,.16,.03,.38,.05,.61h.09c-.02-.28-.02-.57,.01-.78l.57-3.79c.06-.42-.23-.74-.65-.73h-.29s.02,.03,.01,.04c-.03,.1-.41,.18-.83,.18Z" />
                <path class="cls-3"
                    d="M72.56,74.53l.05,.28c.07,.42,.02,.43-.12,.03l-.11-.34c-.07-.22-.12-.5-.14-.77h-.07c.02,.27,.06,.53,.12,.73l.11,.36c.12,.4,.36,.94,.54,1.19,.18,.25,.22,.12,.1-.28l-.38-1.29c-.06-.19-.1-.45-.12-.71h-.09c.03,.28,.07,.57,.11,.8Z" />
                <rect class="cls-3" x="72.17" y="73.73" width=".07" height="0" />
                <polygon class="cls-3"
                    points="72.45 73.73 72.54 73.73 72.54 73.73 72.45 73.73 72.45 73.73" />
                <path class="cls-3" d="M70.4,59.99s0,0,0,0c0,0,0,0,0-.01,0,0,0,0-.01,0Z" />
                <path class="cls-3" d="M70.46,59.94s.02,0,.03-.01c-.01,0-.02,0-.03,.01Z" />
                <path class="cls-3"
                    d="M76.13,60.71s-.08-.1-.21-.15l-.03,.25c.15-.01,.24-.05,.24-.1Z" />
                <path class="cls-3"
                    d="M75.49,60.46c-.05,.09-.43,.12-.85,.06l-.41-.05c-.42-.06-.78-.17-.8-.26,0,0,0,0,0,0l-1.98-.23c.25,.1,.22,.23-.13,.31l-.09,.02,4.14,.49c.2,.03,.38,.03,.52,.01l.03-.25c-.11-.04-.26-.08-.43-.11,0,0,0,0,0,0Z" />
                <polygon class="cls-3"
                    points="79.35 73.73 79.25 73.73 79.25 73.73 79.35 73.73 79.35 73.73" />
                <path class="cls-3"
                    d="M76.61,70.2c0,.06,.16,.12,.38,.15l.03-.31c-.24,.03-.41,.09-.41,.16Z" />
                <path class="cls-3"
                    d="M78.52,70.38c.42,0,.75,.34,.74,.77l-.06,1.77c0,.23,.01,.52,.05,.82h.11c-.03-.29-.04-.59,0-.79,.07-.33,.16-.3,.21,.05,0-.04,0-.09,0-.12l.07-2.09c.01-.39-.27-.7-.64-.75-.14,.02-.29,.04-.47,.04h-.41c-.24,0-.46-.02-.62-.06h-.12c-.13,0-.25,0-.35,.02l-.03,.31c.12,.02,.24,.03,.39,.03h1.15Z" />
                <path class="cls-3"
                    d="M79.72,74.56c.03,.42-.05,.43-.17,.03l-.1-.32c-.05-.16-.08-.35-.1-.54h-.11c.03,.25,.07,.5,.12,.69l.28,1.11c.11,.41,.3,.94,.44,1.19,.14,.24,.17,.11,.08-.3l-.46-2.01s0,.02,0,.03v.14Z" />
                <path class="cls-3"
                    d="M77.5,62.08c0,.06,.14,.11,.34,.15l.03-.3c-.22,.03-.38,.09-.38,.16Z" />
                <path class="cls-3"
                    d="M79.72,62.26c.42,0,.94-.09,1.15-.21,.21-.12,.04-.2-.38-.2l-2.23,.04c-.15,0-.27,.02-.39,.03l-.03,.3c.12,.02,.26,.03,.42,.03h1.45Z" />
                <path class="cls-3" d="M87.02,63.52s0,.02,0,.04h0s0-.03,0-.04Z" />
                <path class="cls-3"
                    d="M86.99,65.67c0,.42,.09,.56,.21,.32,.11-.25,.2-.79,.19-1.21l-.02-.85s0-.02,0-.03c0,.02,0,.05-.01,.07v.06c-.11,.41-.23,.4-.28-.01l-.04-.33s0-.08,0-.11h0c-.01,.11-.02,.23-.02,.36v1.75Z" />
                <path class="cls-3" d="M89.32,69.66c-.09,0-.18,.3-.2,.68h.35c0-.37-.06-.67-.15-.68Z" />
                <path class="cls-3"
                    d="M89.11,70.44c-.02,.42-.37,.77-.79,.77h-1.16c-.42,0-.77,.34-.77,.77v1.15c0,.15,.01,.28,.03,.39,.01-.25,.06-.37,.12-.25,.05,.09,.07,.26,.07,.46h.07c.04-.14,.07-.35,.07-.6v-.79c0-.42,.34-.77,.77-.77h1.15c.42,0,.78-.34,.79-.77v-.37s.01-.06,.01-.1h-.35s0,.05,0,.08v.03Z" />
                <path class="cls-3" d="M86.61,73.87s.05-.07,.07-.14h-.07s0,.09,0,.14Z" />
                <polygon class="cls-3"
                    points="86.68 73.73 86.68 73.73 86.61 73.73 86.61 73.73 86.68 73.73" />
                <path class="cls-3" d="M103.39,78.94s.09-.06,.14-.15h-.24c.02,.09,.06,.15,.1,.15Z" />
                <path class="cls-3"
                    d="M103.89,72.86c.05-.37,.15-.4,.24-.1l-.11-1.04c-.04-.42-.15-.63-.23-.48-.08,.16-.11,.63-.07,1.05l.08,.72c.01,.13,.02,.28,.02,.45,.01-.16,.03-.31,.05-.44l.02-.15Z" />
                <path class="cls-3"
                    d="M104.14,74.6l-.12,.46c-.11,.41-.21,.4-.22-.03l-.02-.5s0-.07,0-.1c0,.03,0,.06,0,.09l-.5,3.65c-.03,.25-.03,.47,.01,.6h.24c.08-.14,.15-.36,.18-.63l.44-3.56Z" />
                <path class="cls-3" d="M93.16,76.78s-.06,.02-.08,.03c.02-.01,.06-.02,.08-.02h0Z" />
                <path class="cls-3"
                    d="M93.59,76.75h.04c.33,.04,.41,.17,.24,.31h.1c.42,0,.77-.08,.77-.18s-.34-.18-.77-.18h-.2c-.26,0-.49,.03-.62,.08h0c.12-.03,.26-.05,.43-.04Z" />
                <path class="cls-3"
                    d="M99.08,63.61c.07,0,.13,0,.14-.04,.03-.07-.13-.19-.38-.3v.08c.13,.08,.21,.17,.24,.25Z" />
                <path class="cls-3"
                    d="M94.79,62.52c-.41-.08-.59-.06-.4,.04,.2,.1,.69,.26,1.11,.35l2.73,.49c-.33-.23-.27-.34,.13-.24h0c.19,.05,.35,.12,.48,.2v-.08c-.08-.04-.17-.07-.27-.11l-3.78-.64Z" />
                <path class="cls-3" d="M92.96,65.9s.05,.08,.13,.11v-.22c-.07,.03-.13,.07-.13,.1Z" />
                <path class="cls-3"
                    d="M94.33,65.87c.16-.12-.05-.2-.47-.18h-.14c-.27,.01-.49,.06-.63,.11v.22c.09,.04,.23,.07,.4,.07,.3,0,.67-.09,.84-.21Z" />
                <path class="cls-3"
                    d="M108.48,62c-.18,.03-.3,.08-.3,.14,0,.02,.02,.05,.06,.07,.03-.08,.12-.15,.24-.2Z" />
                <path class="cls-3" d="M110.56,57.07s-.07,.08-.09,.19h.23c-.05-.12-.1-.2-.14-.19Z" />
                <path class="cls-3"
                    d="M110.47,57.85l.37,3.35c.02,.18-.03,.34-.12,.47,.07,.02,.11,.05,.1,.09-.02,.07-.18,.12-.39,.15-.08,.03-.17,.06-.27,.06h-.77c.22,.05,.18,.16-.13,.29l-.16,.06h1.1c.42,0,.79,.19,.81,.42,.02,.23,.39,.42,.81,.42h.33c.42,0,.82,.02,.88,.04,.06,.02,.3,.19,.39,.14,.08-.05,.02-.19-.14-.31-.16-.12-.65-.22-1.07-.22h-.07c-.42,0-.81-.34-.85-.76l-.47-4.23c-.03-.22-.07-.41-.12-.55h-.23c-.02,.14-.03,.35,0,.59Z" />
                <path class="cls-3"
                    d="M115.1,68.58c0-.08-.22-.14-.52-.17l.02,.33c.29-.03,.5-.09,.5-.17Z" />
                <path class="cls-3"
                    d="M111.08,68.41c-.42,0-.74,.34-.71,.76l.14,1.97c.03,.42-.12,1.06-.33,1.43l-.32,.36c-.1,.41-.1,.76,0,.78,.1,.02,.28-.29,.41-.69,0,0,.05-.17,.2-.4,.15-.22,.33-.4,.38-.4s.07-.34,.04-.76l-.13-1.93c-.03-.42,.29-.76,.71-.76h2.87c.09,0,.18,0,.27-.01l-.02-.33c-.08,0-.16-.01-.25-.01h-3.25Z" />
                <path class="cls-3"
                    d="M116.53,69.66c0,.06,.14,.11,.34,.15l-.02-.29c-.19,.03-.32,.08-.32,.14Z" />
                <path class="cls-3"
                    d="M119.23,69.84c.42,0,.91-.08,1.1-.18,.18-.1-.01-.18-.44-.18h-.98c-.09,0-.18,.01-.28,.01h-.41c-.11,0-.21,0-.31-.01h-.61c-.17,0-.32,.02-.44,.04l.02,.29c.12,.02,.26,.03,.42,.03h1.93Z" />
                <path class="cls-3"
                    d="M120.47,64.59c0-.06-.12-.1-.3-.13l.03,.27c.16-.03,.27-.08,.27-.13Z" />
                <path class="cls-3"
                    d="M118.76,64.43c-.42,0-.68,.08-.57,.17,.11,.09,.54,.16,.96,.16h.56c.19,0,.36-.02,.5-.05l-.03-.27c-.13-.02-.29-.04-.47-.03h-.94Z" />
                <path class="cls-3"
                    d="M108.36,77.18c0,.05,.09,.1,.24,.15l.03-.26c-.16,.02-.27,.06-.27,.11Z" />
                <path class="cls-3"
                    d="M114.15,77.6s-.05-.07-.12-.1l-.05,.19c.1-.02,.17-.05,.17-.09Z" />
                <path class="cls-3"
                    d="M109.14,77.06c-.19-.01-.37,0-.51,.01l-.03,.26c.13,.04,.31,.07,.51,.09l1.02,.07s.08,0,.13,0h.14c.23,0,.54,.04,.83,.09l2.15,.15c.25,.02,.47,0,.61-.03l.05-.19c-.13-.06-.36-.11-.63-.13l-4.26-.31Z" />
                <path class="cls-3"
                    d="M132.47,69.72c0,.07,.17,.12,.4,.15l-.04-.3c-.21,.03-.36,.09-.35,.15Z" />
                <path class="cls-3"
                    d="M139.27,70.38s-.05-.08-.14-.12l-.04,.2c.1-.02,.18-.04,.19-.08Z" />
                <path class="cls-3"
                    d="M138.45,70.47s.06,0,.09,0l-.58-.23c-.26-.1-.32-.18-.22-.21l-4.5-.51c-.15,0-.29,.02-.41,.04l.04,.3c.11,.01,.23,.02,.37,.02l5.21,.58Z" />
                <path class="cls-3"
                    d="M149.48,62.91c-.07,.02-.12,.24-.13,.53h.32c-.04-.33-.11-.56-.19-.53Z" />
                <path class="cls-3"
                    d="M149.81,66.06c.11-.17,.19-.09,.18,.25v.02c0,.13-.03,.24-.05,.34,.07-.1,.15-.22,.22-.37l-.46-2.68c0-.06-.01-.12-.02-.18h-.32c0,.09,0,.19,0,.3l.46,2.32Z" />
                <path class="cls-3" d="M145.42,57.07s-.05,.07-.05,.16h.23c-.07-.11-.13-.17-.18-.16Z" />
                <path class="cls-3" d="M148.03,60.6c.01-.1-.01-.27-.06-.46h-.06l.12,.46Z" />
                <path class="cls-3"
                    d="M145.47,57.85l.07,.21c.12,.4,.53,.73,.91,.73s.8,.33,.94,.73l.18,.52s.02,.04,.02,.06v-.29c.02-.42,.12-.43,.23-.02l.09,.36h.06c-.02-.07-.04-.14-.06-.22l-.26-.76c-.14-.4-.56-.73-.93-.73s-.78-.32-.9-.71c-.06-.21-.14-.38-.21-.5h-.23c0,.15,.03,.37,.11,.63Z" />
                <path class="cls-3"
                    d="M166.55,69s-.09-.09-.23-.13c.02,.08,.05,.15,.07,.23,.09-.03,.16-.07,.16-.11Z" />
                <path class="cls-3"
                    d="M162.28,68.82h.04c.42,.07,.42,.18,0,.26l-.56,.1h4.01c.25,0,.47-.03,.61-.08-.02-.08-.05-.16-.07-.23-.14-.03-.33-.05-.54-.05h-3.5Z" />
                <path class="cls-3" d="M163.68,57.13s-.04,.04-.05,.08h.16c-.04-.05-.08-.09-.11-.08Z" />
                <path class="cls-3"
                    d="M163.71,57.91l.48,1.75-.02-.17c-.04-.42,.07-.45,.24-.07l.18,.39c-.01-.07-.03-.13-.05-.21l-.49-1.8c-.07-.28-.18-.5-.26-.61h-.16c-.03,.13,0,.4,.08,.71Z" />
                <path class="cls-3" d="M45.67,60.26l-.19,.05h.29s-.08-.03-.1-.05Z" />
                <path class="cls-3" d="M46,60.05c.09-.02,.19-.03,.3-.03-.12,0-.23,0-.3,.03Z" />
                <path class="cls-3" d="M45.78,60.3h0s.01,0,.01,0c0,0,0,0-.01,0Z" />
                <path class="cls-3" d="M45.78,60.3l.02-.07-.12,.03s.06,.03,.1,.04Z" />
                <path class="cls-3"
                    d="M45.85,60.22h-.05s-.02,.08-.02,.08c0,0,0,0,.01,0h1.3c.42,0,.43-.07,.01-.15l-.55-.11c-.09-.02-.17-.02-.25-.03-.11,0-.21,.02-.3,.03-.1,.03-.16,.09-.15,.16Z" />
                <path class="cls-3"
                    d="M36.5,76.19c-.08-.08-.23-.15-.4-.19l.38,.4c.09-.04,.11-.12,.02-.21Z" />
                <path class="cls-3"
                    d="M35.45,75.96l-.93,.11c-.42,.05-.42,.13,0,.18l1.52,.18c.2,.02,.35,0,.44-.03l-.38-.4c-.2-.05-.43-.07-.66-.04Z" />
                <path class="cls-3"
                    d="M51.6,78.22s-.07-.1-.09-.19c-.07-.04-.15-.06-.25-.09l.17,.23c.06,.08,.09,.15,.11,.22,.12-.04,.17-.1,.15-.18-.03,.02-.06,.03-.1,0Z" />
                <path class="cls-3"
                    d="M51.27,77.94c-.17-.04-.36-.06-.55-.04l-1.99,.17c-.42,.03-.42,.1,0,.13l2.41,.22c.17,.02,.31,0,.41-.03-.02-.07-.05-.14-.11-.22l-.17-.23Z" />
                <path class="cls-3"
                    d="M70.07,77.42c.02,.07,.11,.11,.23,.13l-.14-.29c-.07,.05-.11,.1-.09,.16Z" />
                <path class="cls-3"
                    d="M70.9,77.5l.38-.11c.41-.12,.39-.22-.03-.24h-.5c-.26-.02-.47,.03-.58,.1l.14,.29c.16,.03,.37,.02,.59-.05Z" />
                <path class="cls-3"
                    d="M91.11,76.25c-.01-.1-.09-.18-.2-.24l.07,.48c.09-.06,.14-.14,.13-.24Z" />
                <path class="cls-3"
                    d="M90.29,75.91l-1.41,.2c-.42,.06-.42,.16,0,.23l1.53,.24c.25,.04,.45,0,.57-.09l-.07-.48c-.15-.09-.37-.14-.62-.1Z" />
                <path class="cls-3"
                    d="M93.02,76.88s.02-.05,.06-.07c-.14,.06-.22,.17-.21,.29,.01,.16,.16,.22,.35,.21l-.04-.33c-.1-.03-.16-.07-.16-.11Z" />
                <path class="cls-3"
                    d="M93.71,77.17c.08-.04,.13-.08,.17-.11h-.09c-.25,0-.46-.03-.6-.07l.04,.33c.11,0,.24-.03,.38-.1l.11-.05Z" />
                <path class="cls-3"
                    d="M93.18,76.99l-.02-.2s-.06,.01-.08,.02c-.04,.02-.06,.04-.06,.07,0,.04,.07,.08,.16,.11Z" />
                <path class="cls-3"
                    d="M93.64,76.75h-.04c-.17-.02-.31,0-.43,.04l.02,.2c.14,.04,.35,.07,.6,.07h.09c.17-.14,.09-.27-.24-.31Z" />
                <polygon class="cls-3"
                    points="79.6 73.73 79.65 73.73 79.65 73.73 79.6 73.73 79.6 73.73" />
                <path class="cls-3"
                    d="M79.65,73.73c-.03-.27-.06-.54-.08-.73,0,0,0,0,0,0,0,.22,.01,.48,.04,.74h.04Z" />
                <path class="cls-3"
                    d="M79.7,74.39h0c-.01-.19-.04-.42-.06-.66h-.04c.03,.24,.06,.48,.1,.66Z" />
                <polygon class="cls-3"
                    points="79.6 73.73 79.6 73.73 79.35 73.73 79.35 73.73 79.6 73.73" />
                <path class="cls-3"
                    d="M79.35,72.94c-.04,.2-.03,.49,0,.79h.25c-.03-.26-.04-.52-.04-.74-.05-.35-.14-.38-.21-.05Z" />
                <path class="cls-3"
                    d="M79.6,73.73h-.25c.02,.19,.05,.38,.1,.54l.1,.32c.12,.4,.2,.39,.17-.03v-.14s-.01-.02-.01-.03h0c-.04-.19-.07-.42-.1-.67Z" />
                <path class="cls-3" d="M86.42,73.52c0,.06,0,.13,0,.2h.04c-.02-.06-.03-.12-.04-.2Z" />
                <path class="cls-3"
                    d="M86.47,73.73h-.04s0,.02,0,.04v.2c.02,.42,.09,.5,.15,.17,.02-.09,.03-.18,.03-.27-.01,.01-.02,.03-.04,.03-.04,0-.08-.07-.11-.17Z" />
                <polygon class="cls-3"
                    points="86.47 73.73 86.47 73.73 86.42 73.73 86.42 73.73 86.47 73.73" />
                <path class="cls-3"
                    d="M86.61,73.73c0-.19-.02-.37-.07-.46-.06-.11-.11,0-.12,.25,.01,.08,.03,.15,.04,.2h.15Z" />
                <path class="cls-3"
                    d="M86.47,73.73c.03,.1,.07,.17,.11,.17,.01,0,.02-.02,.04-.03,0-.05,0-.09,0-.14h-.15Z" />
                <polygon class="cls-3"
                    points="86.47 73.73 86.61 73.73 86.61 73.73 86.47 73.73 86.47 73.73" />
                <path class="cls-3"
                    d="M72.4,73.12c-.02-.36-.08-.36-.15,0-.03,.16-.03,.38-.02,.61h.21c-.02-.23-.04-.45-.05-.61Z" />
                <path class="cls-3"
                    d="M72.38,74.5l.11,.34c.13,.4,.19,.39,.12-.03l-.05-.28c-.04-.23-.08-.52-.11-.8h-.21c.02,.27,.07,.55,.14,.77Z" />
                <polygon class="cls-3"
                    points="72.45 73.73 72.45 73.73 72.24 73.73 72.24 73.73 72.45 73.73" />
                <path class="cls-3"
                    d="M60.83,73.38s-.03,.04-.04,.07c-.03,.07-.03,.18-.01,.29h.05c-.01-.13-.01-.25,0-.36Z" />
                <path class="cls-3"
                    d="M60.78,73.74c.02,.12,.05,.23,.11,.35-.03-.11-.04-.23-.05-.35h-.05Z" />
                <path class="cls-3"
                    d="M60.83,73.74h.29c-.03-.14-.06-.27-.1-.35-.05-.12-.14-.12-.2-.01,0,.11,0,.23,0,.36Z" />
                <path class="cls-3"
                    d="M61.18,74.13c0-.13-.03-.27-.05-.4h-.29c.01,.12,.03,.23,.05,.35,.02,.04,.03,.08,.06,.11,.15,.23,.26,.2,.24-.06Z" />
                <polygon class="cls-3"
                    points="53.15 73.78 53.15 73.78 53.26 73.78 53.26 73.78 53.15 73.78" />
                <path class="cls-3" d="M52.74,73.59s0-.02,0-.04c0,.01,0,.02,0,.04Z" />
                <path class="cls-3"
                    d="M53.15,73.78h.11c-.06-.2-.11-.4-.15-.57-.01,.18,0,.37,.04,.57Z" />
                <path class="cls-3"
                    d="M53.41,74.43l.06,.1s0-.06-.02-.11c-.06-.17-.13-.41-.19-.64h-.11c.05,.25,.14,.48,.26,.66Z" />
                <polygon class="cls-3"
                    points="52.78 73.78 53.15 73.78 53.15 73.78 52.78 73.78 52.78 73.78" />
                <path class="cls-3"
                    d="M53.15,73.78c-.04-.2-.05-.39-.04-.57,0-.02-.01-.05-.02-.07-.08-.36-.23-.32-.33,.09h0c-.02,.1-.03,.21-.03,.33,0,.01,0,.02,0,.04,0,.06,.02,.13,.03,.19h.38Z" />
                <path class="cls-3"
                    d="M53.15,73.78h-.38c.05,.28,.17,.55,.35,.73,.25,.26,.39,.25,.35,.02l-.06-.1c-.11-.17-.2-.41-.26-.66Z" />
                <path class="cls-3"
                    d="M38.8,72.61c.1,.12,.42,.19,.78,.18l-.34-.39c-.34,0-.54,.07-.43,.2Z" />
                <path class="cls-3"
                    d="M40.58,72.68c.42-.05,.42-.13,0-.16l-1.22-.11s-.08,0-.12,0l.34,.39c.06,0,.13,0,.19-.01l.81-.1Z" />
                <path class="cls-3" d="M103.82,73.46c0,.09-.01,.17-.02,.26h.02c0-.09,0-.18,0-.26Z" />
                <path class="cls-3"
                    d="M104.19,73.72h.06c0-.25-.01-.5-.06-.69l-.04-.17s-.02-.06-.03-.1l.03,.26c.02,.19,.03,.45,.03,.7Z" />
                <path class="cls-3"
                    d="M103.83,73.72h-.02c-.02,.26-.02,.51-.02,.73,.02-.21,.04-.47,.04-.73Z" />
                <path class="cls-3"
                    d="M104.15,74.54v.06s.01-.08,.01-.08c.06-.22,.09-.51,.09-.8h-.06c0,.3-.01,.6-.04,.82Z" />
                <polygon class="cls-3"
                    points="104.19 73.72 104.19 73.72 104.25 73.72 104.25 73.72 104.19 73.72" />
                <rect class="cls-3" x="103.8" y="73.72" width=".02" height="0" />
                <path class="cls-3"
                    d="M104.19,73.72c0-.26,0-.51-.03-.7l-.03-.26c-.09-.29-.19-.27-.24,.1l-.02,.15c-.02,.13-.03,.28-.05,.44,0,.09,0,.17,0,.26h.36Z" />
                <path class="cls-3"
                    d="M104.19,73.72h-.36c0,.26-.02,.51-.04,.73,0,.03,0,.07,0,.1l.02,.5c.01,.42,.11,.43,.22,.03l.12-.46v-.06c.03-.22,.05-.52,.05-.82Z" />
                <polygon class="cls-3"
                    points="103.83 73.72 104.19 73.72 104.19 73.72 103.83 73.72 103.83 73.72" />
                <path class="cls-3"
                    d="M98.84,63.74c.16,.05,.27,.03,.27-.08,0-.02-.02-.04-.02-.05-.06,0-.15-.02-.24-.04v.17Z" />
                <path class="cls-3"
                    d="M98.45,63.43l-.22-.04s0,0,.02,.01l.23,.15c.14,.09,.26,.15,.36,.18v-.17c-.11-.03-.24-.07-.39-.13Z" />
                <path class="cls-3"
                    d="M98.84,63.35v.21c.09,.03,.18,.04,.24,.04-.03-.08-.11-.17-.24-.25Z" />
                <path class="cls-3"
                    d="M98.84,63.57v-.21c-.13-.08-.29-.15-.48-.2h0c-.4-.1-.45,.01-.13,.24l.22,.04c.14,.06,.27,.1,.39,.13Z" />
                <path class="cls-3"
                    d="M122.41,75.81s0-.09-.05-.13l-.08,.24c.07-.03,.12-.06,.14-.11Z" />
                <path class="cls-3"
                    d="M121.18,75.54c-.42,.01-.43,.11-.03,.23l.43,.12c.28,.08,.54,.08,.69,.02l.08-.24c-.1-.09-.33-.15-.63-.15l-.56,.02Z" />
                <polygon class="cls-3"
                    points="119.25 73.72 119.25 73.72 119.52 73.72 119.52 73.72 119.25 73.72" />
                <path class="cls-3"
                    d="M119.43,73.27c-.12-.25-.2-.1-.18,.32v.08s0,.03,0,.05h.27c0-.15-.03-.32-.09-.45Z" />
                <path class="cls-3"
                    d="M119.46,74.08c.05-.09,.07-.22,.06-.36h-.27c.02,.38,.11,.55,.2,.36Z" />
                <path class="cls-3"
                    d="M130.02,76.55c.03-.07-.02-.13-.09-.18l-.17,.36c.13-.04,.23-.1,.26-.18Z" />
                <path class="cls-3"
                    d="M127.92,76.4c-.35,.03-.39,.09-.17,.14h.08c.42-.05,.94,.03,1.15,.16,.03,.02,.04,.03,.05,.05l.11,.02c.23,.04,.45,.02,.62-.03l.17-.36c-.11-.07-.3-.11-.55-.09l-1.46,.12Z" />
                <path class="cls-3"
                    d="M128.53,73.36c-.07-.2-.16-.21-.21-.03-.02,.09-.03,.23-.03,.38h.29c0-.14-.02-.27-.05-.35Z" />
                <path class="cls-3"
                    d="M128.35,74.22c.07,.31,.16,.33,.21,.03,.03-.17,.03-.36,.02-.54h-.29c0,.17,.02,.35,.06,.51Z" />
                <polygon class="cls-3"
                    points="128.58 73.71 128.58 73.71 128.29 73.71 128.29 73.71 128.58 73.71" />
                <path class="cls-3"
                    d="M149.66,66.91s-.04-.1-.02-.2h-.04c-.01,.15,.02,.27,.1,.29,.1,.03,.18-.09,.24-.29h-.02c-.11,.14-.2,.23-.25,.2Z" />
                <path class="cls-3" d="M149.91,66.71h.02s0-.03,.01-.04c0,.01-.02,.03-.03,.04Z" />
                <path class="cls-3"
                    d="M149.82,66.14l-.02-.08s-.06,.09-.09,.17c-.08,.18-.12,.35-.13,.48h.04c.02-.15,.09-.35,.19-.57Z" />
                <path class="cls-3"
                    d="M149.66,66.91c.05,.03,.15-.06,.25-.2h-.27c-.02,.1-.01,.18,.02,.2Z" />
                <path class="cls-3"
                    d="M149.98,66.31c.01-.34-.06-.41-.18-.25l.02,.08c-.11,.22-.17,.42-.19,.57h.27s.02-.03,.03-.04c.02-.1,.04-.21,.05-.34v-.02Z" />
                <path class="cls-3" d="M139.71,76.36s-.06-.07-.08-.13c0,.05,.02,.1,.08,.13Z" />
                <path class="cls-3"
                    d="M139.97,75.97c0,.19-.05,.34-.13,.4-.02,.02-.04,.01-.07,.01,.04,.01,.08,.03,.13,.04l.31-.5c-.09,.01-.17,.03-.24,.05Z" />
                <path class="cls-3"
                    d="M142.74,76.36c.42-.01,.42-.07,0-.14l-2.06-.31c-.16-.02-.32-.02-.48,0l-.31,.5c.07,.01,.16,.02,.26,.02l2.59-.08Z" />
                <path class="cls-3"
                    d="M159.71,75.86c0,.18-.06,.33-.18,.4-.11,.06-.22,.02-.32-.08-.09,.16-.02,.28,.17,.33l.62-.7c-.1,0-.2,.02-.29,.05Z" />
                <path class="cls-3"
                    d="M162.2,76.39c.42-.03,.43-.11,.01-.19l-1.9-.37c-.1-.02-.21-.03-.32-.02l-.62,.7c.08,.02,.17,.03,.29,.03l2.53-.15Z" />
                <path class="cls-3"
                    d="M160.1,69s.03-.05,.08-.08c.04-.03,.08-.04,.11-.04,.07-.02,.15-.03,.24-.04l-.07-.27c-.32,0-.52,.16-.45,.4,0,.03,.03,.05,.05,.08,.01-.02,.03-.03,.04-.05,0,0,0,0,0,0Z" />
                <path class="cls-3"
                    d="M160.38,69.14s-.02,.1-.03,.15c.1,.04,.21,.05,.32,.06l-.05-.18c-.09,0-.17-.02-.24-.03Z" />
                <path class="cls-3"
                    d="M160.87,68.82h1.41l-1.66-.25c-.06,0-.11,0-.16,0l.07,.27c.1-.01,.21-.02,.33-.02Z" />
                <path class="cls-3"
                    d="M161.77,69.18h-.9c-.09,0-.17,0-.24-.01l.05,.18c.08,0,.16,0,.24-.01l.86-.16Z" />
                <path class="cls-3"
                    d="M160.29,68.89s.06,.02,.08,.05c.02,.05,.03,.12,.02,.2,.07,.01,.15,.02,.24,.03l-.09-.33c-.09,.01-.17,.03-.24,.04Z" />
                <path class="cls-3"
                    d="M160.18,68.93s-.08,.05-.08,.08c0,0,0,0,0,0,.03-.03,.05-.06,.08-.08Z" />
                <path class="cls-3"
                    d="M162.32,68.83h-.04s-1.41,0-1.41,0c-.12,0-.23,0-.33,.02l.09,.33c.08,0,.16,.01,.24,.01h.9l.56-.1c.41-.08,.41-.19,0-.25Z" />
                <path class="cls-3"
                    d="M158.01,60.68c.13,.12,.15-.13,.04-.53h0s-.25-.01-.25-.01c.05,.25,.13,.47,.21,.55Z" />
                <path class="cls-3"
                    d="M157.74,59.62v.08c0,.15,.03,.29,.06,.43h.25s-.14-.53-.14-.53c-.11-.41-.18-.4-.17,.02Z" />
                <path class="cls-3" d="M139.13,70.25l.03-.12-.47-.04v.06c.19,.03,.34,.06,.45,.1Z" />
                <path class="cls-3"
                    d="M138.75,70.48v.08s.29,.11,.29,.11l.05-.22c-.09,.02-.2,.03-.34,.03Z" />
                <path class="cls-3"
                    d="M137.73,70.04l.84,.09s.08,.01,.12,.02v-.06s-.68-.06-.68-.06c-.14-.01-.22,0-.27,0Z" />
                <path class="cls-3" d="M138.53,70.47l.23,.09v-.08c-.08,0-.15,0-.23-.01Z" />
                <path class="cls-3"
                    d="M138.75,70.48c.14,0,.24-.01,.34-.03l.04-.2c-.1-.04-.26-.08-.44-.1l.06,.34Z" />
                <path class="cls-3"
                    d="M138.69,70.15s-.07-.01-.12-.02l-.84-.09c-.1,.03-.04,.1,.22,.21l.58,.23c.07,0,.15,.01,.21,.01l-.06-.34Z" />
                <polygon class="cls-3"
                    points="96.15 73.72 96.15 73.72 97.48 73.72 97.48 73.72 96.15 73.72" />
                <path class="cls-3"
                    d="M96,73.36c.03,.1,.09,.23,.15,.37h1.34c-.04-.06-.09-.13-.14-.19-.28-.29-.27-.54,.03-.54,.13,0,.26,.03,.39,.08-.17-.08-.39-.14-.62-.14h-.44c-.31,0-.64,.11-.85,.27,.06,0,.11,.05,.14,.15Z" />
                <path class="cls-3"
                    d="M97.48,73.72h-1.34c.06,.13,.13,.26,.19,.38l.84,.24c.19,.06,.39,.06,.54,.03-.01-.2-.1-.44-.24-.65Z" />
                <path class="cls-3"
                    d="M98.06,73.33c.04,.11,.06,.25,.06,.39h.13c.02-.16,0-.31-.07-.39-.08-.1-.24-.19-.41-.25,.14,.07,.26,.15,.29,.25Z" />
                <path class="cls-3"
                    d="M98.06,74.13c-.04,.12-.17,.2-.34,.24,0,.08,0,.15-.02,.21-.08,.28,.03,.21,.26-.14l.08-.13c.12-.19,.19-.4,.21-.58h-.13c0,.15-.02,.3-.06,.41Z" />
                <rect class="cls-3" x="97.48" y="73.72" width=".64" height="0" />
                <path class="cls-3"
                    d="M97.35,73.54c.05,.06,.1,.12,.14,.19h.64c0-.15-.02-.29-.06-.39-.04-.1-.15-.18-.29-.25-.13-.05-.27-.08-.39-.08-.3,0-.31,.24-.03,.54Z" />
                <path class="cls-3"
                    d="M98.06,74.13c.04-.12,.06-.26,.06-.41h-.64c.14,.21,.22,.44,.24,.65,.17-.04,.3-.12,.34-.24Z" />
                <polygon class="cls-3" points="70.5 59.92 70.49 59.93 70.5 59.93 70.5 59.92" />
                <path class="cls-3" d="M70.41,59.98s.02-.03,.05-.04c-.02,.01-.03,.02-.05,.04Z" />
                <path class="cls-3"
                    d="M70.41,60s-.06,.07-.06,.11c-.01,.08,.03,.15,.1,.19l.03-.22s-.07-.06-.07-.09Z" />
                <path class="cls-3"
                    d="M71.19,59.94l.27,.03s-.07-.03-.13-.05l-.18-.05c-.26-.07-.5-.04-.65,.05h0c.13-.03,.39-.03,.69,.02Z" />
                <path class="cls-3"
                    d="M71.03,60.35l.2-.05h-.1c-.3-.06-.54-.15-.65-.22l-.03,.22c.12,.08,.33,.11,.58,.05Z" />
                <path class="cls-3"
                    d="M70.48,60.08l.02-.15s0,0-.01,0c0,0-.02,0-.03,.01-.02,.01-.04,.02-.05,.04,0,0,0,0,0,.01,0,.03,.03,.06,.07,.09Z" />
                <path class="cls-3"
                    d="M70.5,59.93l-.02,.15c.11,.08,.36,.16,.65,.21h.1s.09,0,.09,0c.35-.08,.38-.21,.13-.31l-.27-.03c-.3-.05-.56-.05-.69-.01Z" />
                <path class="cls-3"
                    d="M50.53,63.5c.23,0,.41-.03,.49-.12-.12,.03-.28,.06-.47,.07v.05Z" />
                <path class="cls-3" d="M50.42,63.45h-.27c.13,.03,.26,.04,.38,.05v-.05s-.07,0-.11,0Z" />
                <path class="cls-3"
                    d="M50.61,63.14l-.07,.3c.19,0,.36-.03,.47-.07,0,0,.02-.01,.02-.02,.07-.12-.12-.21-.43-.22Z" />
                <path class="cls-3"
                    d="M50.54,63.45l.07-.3c-.06,0-.12,0-.19,0l-.5,.03c-.42,.03-.43,.13-.02,.23l.24,.06s0,0,0,0h.27s.08,0,.12,0Z" />
                <path class="cls-3"
                    d="M35.49,69.95c.04-.13-.09-.21-.31-.22l-.04,.14c.15,.02,.28,.05,.35,.09Z" />
                <path class="cls-3" d="M35.04,70.2c.06,0,.12-.02,.18-.04-.05,0-.11,.02-.17,.02h0Z" />
                <path class="cls-3"
                    d="M34.86,69.75l-.48,.09h.4c.13,0,.25,0,.36,.02l.04-.14c-.09,0-.2,0-.32,.02Z" />
                <path class="cls-3" d="M34.78,70.2h-.17c.15,.03,.3,.02,.43,0h0c-.08,0-.17,0-.26,0Z" />
                <path class="cls-3"
                    d="M35.04,70.18c.06,0,.12-.01,.17-.02,.14-.04,.24-.11,.27-.2,0,0,0,0,0-.01-.07-.04-.2-.07-.35-.09l-.1,.32Z" />
                <path class="cls-3"
                    d="M34.22,70.14l.38,.06h.18c.09,0,.18,0,.26-.01l.1-.32c-.11-.01-.23-.02-.36-.02h-.4l-.17,.03c-.41,.08-.41,.2,0,.27Z" />
                <path class="cls-3"
                    d="M147.61,60.14h-.02l-.02,.63,.54,.12-.07-.28c0,.06-.02,.1-.05,.1-.08,.03-.24-.22-.38-.57Z" />
                <path class="cls-3" d="M147.59,60.1v.05s.02,0,.02,0c0-.02-.01-.03-.02-.05Z" />
                <path class="cls-3"
                    d="M147.61,60.14c.13,.34,.29,.6,.38,.57,.03,0,.04-.05,.05-.1l-.12-.46h-.3Z" />
                <path class="cls-3"
                    d="M147.91,60.14l-.09-.36c-.11-.41-.21-.4-.22,.02v.29s0,.03,0,.05h.3Z" />
                <path class="cls-3"
                    d="M35.19,76.82c.36-.03,.39-.1,.06-.15-.33-.05-.93-.12-1.34-.15-.41-.03-.44,.03-.06,.15,.38,.11,.98,.18,1.34,.15Z" />
                <path class="cls-3"
                    d="M52.79,74.61l-.05-.05c-.3-.3-.34-.26-.1,.08l.3,.42c.24,.34,.63,.74,.86,.89,.23,.15,.22,.03-.03-.27-.25-.3-.69-.78-.99-1.08Z" />
                <path class="cls-3" d="M60.44,73.72s-.01,.01-.02,.02h.05s-.02-.02-.03-.02Z" />
                <path class="cls-3"
                    d="M60.55,74.34c.16,.34,.24,.34,.18,0-.06-.31-.18-.56-.27-.61h-.05c-.07,.04-.01,.29,.14,.61Z" />
                <path class="cls-3"
                    d="M72.03,77.26l-.46,.08c-.41,.08-.49,.16-.16,.2,.33,.03,.77-.05,.98-.18,.21-.13,.05-.18-.37-.1Z" />
                <path class="cls-3"
                    d="M79.53,75.48c-.1-.41-.29-.92-.44-1.14-.15-.21-.2-.08-.12,.3,.08,.38,.3,.96,.48,1.28,.18,.33,.25,.26,.15-.15l-.07-.3Z" />
                <path class="cls-3"
                    d="M104.18,75.09c-.1,.3-.18,.86-.18,1.25s.11,.39,.24-.01l.05-.16c.13-.4,.2-.93,.15-1.17-.05-.25-.17-.21-.27,.09Z" />
                <polygon class="cls-3"
                    points="95.69 73.72 95.53 73.72 95.53 73.72 95.69 73.72 95.69 73.72" />
                <path class="cls-3"
                    d="M95.68,73.39c.04-.07,.1-.13,.18-.18-.09-.01-.19,.06-.28,.24-.04,.09-.05,.18-.04,.27h.15c-.06-.11-.07-.22,0-.33Z" />
                <path class="cls-3"
                    d="M95.69,73.72h-.15c.02,.24,.19,.48,.46,.62h.02c.38,.19,.56,.15,.41-.09-.03-.04-.06-.09-.08-.14l-.2-.06c-.23-.06-.38-.19-.46-.32Z" />
                <polygon class="cls-3"
                    points="95.69 73.72 95.69 73.72 96.15 73.72 96.15 73.72 95.69 73.72" />
                <path class="cls-3"
                    d="M95.68,73.39c-.07,.11-.05,.23,0,.33h.46c-.06-.13-.12-.26-.15-.37-.03-.1-.08-.14-.14-.15-.08,.06-.14,.12-.18,.18Z" />
                <path class="cls-3"
                    d="M95.69,73.72c.08,.14,.23,.26,.46,.32l.2,.06c-.07-.12-.13-.25-.19-.38h-.46Z" />
                <path class="cls-3"
                    d="M110.18,77.66c.38,.1,1.03,.2,1.45,.23h.14c.42,.04,.46-.04,.08-.17-.17-.06-.39-.11-.63-.15l-1.1-.08c-.27,.02-.27,.09,.05,.17Z" />
                <path class="cls-3"
                    d="M110.4,77.48h-.14c-.06,0-.09,0-.13,0l1.1,.08c-.29-.05-.59-.09-.83-.09Z" />
                <path class="cls-3"
                    d="M119.49,74.64c-.12,.31-.09,.43,.06,.27,.15-.16,.24-.42,.21-.57-.03-.15-.15-.01-.27,.3Z" />
                <path class="cls-3"
                    d="M128.7,74.32c-.12,.31-.09,.43,.06,.27,.15-.16,.24-.42,.21-.57-.03-.15-.15-.01-.27,.3Z" />
                <path class="cls-3"
                    d="M127.75,76.54l-.25,.02c-.42,.04-.42,.14-.01,.22h.05c.41,.09,.99,.15,1.29,.15,.26,0,.33-.08,.2-.19l-1.12-.17c-.07-.01-.12-.02-.16-.03Z" />
                <path class="cls-3"
                    d="M127.83,76.54h-.08s.09,.03,.16,.04l1.12,.17s-.03-.03-.05-.05c-.21-.13-.73-.21-1.15-.17Z" />
                <path class="cls-3"
                    d="M142.48,76.47c-.42-.04-1.07,.03-1.45,.14-.38,.11-.38,.18,0,.15,.38-.03,1.03-.08,1.45-.1l.56-.03c.42-.02,.42-.07,0-.11l-.56-.05Z" />
                <path class="cls-3"
                    d="M164.58,60.41c-.06,.02-.14-.1-.23-.28h-.09c.08,.27,.21,.46,.35,.46,.14,0,.17-.2,.1-.46h-.07c0,.16,0,.27-.06,.28Z" />
                <path class="cls-3"
                    d="M164.59,59.83c.02,.11,.04,.21,.04,.3h.07c-.02-.07-.05-.15-.08-.24l-.03-.06Z" />
                <path class="cls-3"
                    d="M164.2,59.72v-.05s0,.16,0,.16c.01,.11,.03,.21,.06,.3h.09c-.05-.12-.11-.25-.15-.41Z" />
                <path class="cls-3"
                    d="M164.58,60.41c.05-.01,.07-.12,.06-.28h-.28c.08,.18,.17,.3,.23,.28Z" />
                <path class="cls-3"
                    d="M164.35,60.13h.28c0-.09-.02-.19-.04-.3l-.18-.39c-.17-.38-.28-.36-.24,.07l.02,.17v.05c.06,.16,.11,.29,.16,.41Z" />
                <path class="cls-3" d="M108.6,61.96s-.08,.02-.12,.04c.04,0,.08-.01,.12-.02v-.02Z" />
                <path class="cls-3"
                    d="M108.24,62.2s-.03,.05-.03,.08c.01,.15,.18,.21,.41,.18v-.17c-.18-.02-.31-.05-.38-.09Z" />
                <path class="cls-3"
                    d="M109.1,62.32h-.16c-.12,0-.23,0-.33-.02v.17c.11-.01,.21-.04,.33-.09l.16-.06Z" />
                <path class="cls-3"
                    d="M108.95,61.96h.44c-.05-.01-.11-.02-.19-.03h-.26c-.13-.01-.24,0-.35,.03v.02c.11-.01,.22-.02,.34-.02Z" />
                <path class="cls-3"
                    d="M108.61,62.3v-.32c-.06,0-.09,.01-.13,.02-.13,.05-.21,.12-.24,.2,.07,.04,.21,.07,.38,.09Z" />
                <path class="cls-3"
                    d="M109.39,61.96h-.44c-.13,0-.24,0-.34,.02v.32c.11,.01,.22,.02,.34,.02h.16l.16-.06c.31-.13,.34-.24,.13-.29Z" />
                <path class="cls-3"
                    d="M87.17,63.15c.07,0,.13,.17,.17,.41h.06c0-.24-.06-.44-.17-.5-.14-.07-.22,.13-.21,.46,.03-.22,.08-.37,.15-.37Z" />
                <path class="cls-3"
                    d="M87.37,63.89c.02-.12,.03-.22,.03-.33h-.06c.02,.1,.03,.21,.03,.33Z" />
                <path class="cls-3"
                    d="M87.34,63.56c-.04-.24-.1-.41-.17-.41-.06,0-.12,.15-.15,.37,0,.01,0,.03,0,.04h.31Z" />
                <path class="cls-3"
                    d="M87.02,63.56s0,.07,0,.11l.04,.33c.06,.42,.18,.42,.27,.01v-.06s.02-.05,.02-.07c0-.12-.02-.23-.03-.33h-.31Z" />
                <path class="cls-3"
                    d="M68.79,68.76c0-.07,.18-.14,.43-.18h-.09c-.42,0-.73,.13-.68,.3,.04,.15,.37,.21,.73,.16l.02-.14c-.25-.02-.42-.07-.42-.14Z" />
                <path class="cls-3"
                    d="M70,68.89l-.43,.02c-.13,0-.24,0-.35,0l-.02,.14s.07,0,.11-.01l.69-.14Z" />
                <path class="cls-3"
                    d="M68.79,68.76c0,.07,.18,.12,.42,.14l.04-.32h-.03c-.26,.04-.44,.11-.43,.18Z" />
                <path class="cls-3"
                    d="M71.07,68.64h-.12c-.24,0-.46-.02-.62-.06h-1.07l-.04,.32c.11,0,.22,.01,.35,0l.43-.02,.79-.16c.18-.03,.26-.07,.28-.09Z" />
                <path class="cls-3"
                    d="M35.15,72.17s-.01-.03-.02-.05c-.12,.06-.37,.1-.68,.11,.37,.08,.68,.05,.7-.06Z" />
                <path class="cls-3"
                    d="M34.52,71.95l-.08,.28s0,0,0,0c.3,0,.56-.04,.68-.11-.05-.09-.28-.16-.6-.17Z" />
                <path class="cls-3"
                    d="M34.42,71.94h-.39c-.42,0-.43,.08-.02,.18l.35,.08s.06,0,.08,.02l.08-.28s-.06,0-.1,0Z" />
            </g>
        </g>
    </g>
</svg>
