<?xml version="1.0" encoding="UTF-8"?>
<svg id="_Слой_1" data-name="Слой 1" xmlns="http://www.w3.org/2000/svg" viewBox="0 0 196 136">
    <defs>
        <style>
            .cls-1 {
            fill: #d4d4d4;
            }
        </style>
    </defs>
    <path class="cls-1"
        d="M167.84,85.21c-.12,0-.23,.02-.35,.02-3.71,0-7.42,0-11.13,0-.45,0-.46,0-.46-.46,0-5.3,0-10.61,0-15.91,0-.46,0-.46,.46-.46,3.71,0,7.42,0,11.13,0,.12,0,.23,.01,.35,.02v4.37c-.15,0-.29,.02-.44,.02-1.82,0-3.63,0-5.45,0-.3,0-.39,.09-.37,.38,.02,.34,0,.68,0,1.01,0,.43,0,.43,.42,.43,1.36,0,2.72,0,4.09,0,.42,0,.43,.01,.43,.42,0,1.2,0,2.41,0,3.61,0,.42,0,.42-.43,.42-1.39,0-2.79,0-4.18,0-.24,0-.34,.07-.33,.32,.02,.38,.02,.76,0,1.14-.01,.26,.07,.36,.34,.35,.61-.02,1.22,0,1.84,0,1.36,0,2.72,.01,4.09,.02v4.31Z" />
    <path class="cls-1"
        d="M167.84,54.78c-.13,.08-.28,.07-.43,.07-.77,0-1.54,.01-2.31,0-.32,0-.41,.09-.41,.41,.01,3.82,0,7.65,.01,11.47q0,.5-.5,.5c-1.57,0-3.15,0-4.72,0-.44,0-.44,0-.44-.44,0-3.81,0-7.63,0-11.44q0-.49-.49-.49c-.74,0-1.48,0-2.22,0-.29,0-.42-.08-.41-.39,.04-1.17-.04-2.34,.06-3.52,.02-.25,.1-.35,.36-.35,3.7,0,7.4,0,11.09,0,.26,0,.34,.11,.35,.36,.02,.49-.05,.99,.06,1.48v2.35Z" />
    <path class="cls-1"
        d="M42.96,62.38s.05,0,.06,.02c.3,.38,.68,.6,1.17,.64,.19,.02,.11,.19,.09,.31-.16,.62-.18,1.25-.07,1.88,.09,.51,.33,.96,.68,1.34,.66,.7,1.45,1.19,2.38,1.45,.58,.16,1.09-.04,1.59-.26,1.09-.48,1.92-1.22,2.36-2.35,.08-.22,.18-.24,.38-.11,.47,.33,.97,.6,1.58,.58,.09,0,.2,.01,.28-.03,.44-.2,.81-.06,1.19,.17,1.13,.67,2.27,1.31,3.54,1.66,.23,.07,.35,.18,.36,.44,.05,1.46,1.29,2.13,2.44,2.35,.79,.15,1.48-.25,2.02-.85,.16-.18,.24-.25,.46-.04,.95,.97,2.08,1.61,3.42,1.88,.45,.09,.9,.15,1.35,.18,.22,.01,.36-.05,.45-.26,.19-.45,.38-.89,.58-1.34,.11-.23,.04-.28-.2-.3-.94-.07-1.88-.03-2.81-.18-.78-.12-1.52-.33-2.22-.71-.25-.13-.33-.26-.18-.54,.27-.53,.42-1.1,.44-1.7,.03-.79-.2-1.44-.93-1.84-.09-.05-.23-.09-.21-.21,.02-.13,.18-.13,.29-.16,1-.26,1.95-.07,2.88,.29,1.41,.54,2.6,1.4,3.58,2.54,.01,.02,.03,.03,.04,.05,.28,.31,.28,.31,.41-.08,.16-.47,.31-.94,.47-1.41,.07-.19,.03-.31-.13-.43-1.37-1.01-2.89-1.68-4.57-1.92-1.11-.16-2.19,.05-3.14,.72-.18,.13-.69,.1-.87-.05-.16-.13,0-.2,.08-.26,.6-.39,1.2-.79,1.88-1.04,.13-.05,.33-.07,.34-.24,.02-.17-.16-.26-.28-.35-.53-.38-1.13-.55-1.78-.58-.14,0-.27,0-.45,0,.09-.2,.26-.24,.38-.32,.32-.21,.32-.22,.06-.48-.34-.34-.72-.66-1.02-1.04-.39-.48-.76-.99-1.05-1.56-.04-.07-.09-.14-.15-.2-.18-.16-.35-.34-.55-.47-.28-.19-.58-.35-.34-.77,.05-.08-.02-.15-.1-.2-.69-.44-1.38-.87-2.21-.97-.2-.03-.38-.05-.46,.21-.13,.44-.09,.55,.19,.69,.14,.07,.46,.04,.36,.28-.08,.2-.35,.05-.51-.02-.96-.43-1.96-.73-3-.87-1.16-.16-2.33-.28-3.5-.3-.19,0-.47-.03-.51,.15-.05,.24,.26,.21,.42,.27,.56,.21,1.14,.4,1.7,.6,.08,.03,.18,.04,.2,.14,.01,.1-.09,.13-.16,.17-.53,.27-1,.67-1.61,.8-.12,.02-.23,.05-.34,0-.92-.32-1.87-.53-2.74-.98-.29-.15-.55-.2-.87-.17-.59,.07-1.15,.07-1.7-.29-.63-.41-1.35-.69-2.06-.98-.37-.15-.49-.1-.69,.25-.04,.08-.07,.15-.18,.13-.1-.02-.16,.04-.19,.13-.09,.32-.31,.3-.58,.24-.66-.16-.65-.15-.26-.69,.96-1.32,1.46-2.8,1.54-4.42,.08-1.49-.21-2.9-.91-4.22-.13-.24-.09-.32,.18-.37,1.63-.32,3.27-.55,4.92-.73,3.19-.36,6.39-.36,9.59-.29,1.82,.04,3.65,.19,5.46,.43,2.15,.28,4.28,.62,6.38,1.17,3.09,.82,6.05,1.95,8.74,3.71,.55,.06,.45,.48,.48,.84,.1,1.15,.08,2.3,.05,3.45-.06,2.18-.38,4.33-.86,6.46-.58,2.56-1.36,5.07-2.42,7.47-2.02,4.58-4.47,8.91-7.67,12.78-3.1,3.76-6.78,6.79-11.2,8.89-.49,.23-.98,.46-1.46,.69-.18,.09-.33,.09-.51,0-3.21-1.45-6.22-3.22-8.85-5.61-1.97-1.79-3.72-3.77-5.3-5.91-1.14-1.54-2.17-3.15-3.14-4.79-.41-.69-.21-1.23,.53-1.56,.68-.3,1.39-.25,2.09-.2,1.77,.12,3.53,.35,5.26,.74,4.57,1.02,8.88,2.66,12.74,5.35,1.47,1.02,2.83,2.18,3.82,3.71,.15,.23,.27,.48,.4,.72,.07,.14,.15,.17,.26,.05,.08-.08,.15-.18,.25-.25,.22-.17,.2-.35,.08-.58-.5-.98-1.13-1.86-1.85-2.68-2.13-2.43-4.71-4.29-7.51-5.86-3.29-1.85-6.79-3.18-10.51-3.88-1.4-.26-2.81-.48-4.19-.86-1.04-.29-2.05-.65-3-1.19-1.56-.89-2.57-2.19-3.04-3.92-.52-1.93-1.01-3.86-1.32-5.84-.05-.32-.09-.65-.13-.97-.02-.12-.08-.27,.05-.35,.11-.07,.22,.04,.31,.1,1.05,.63,2.19,.98,3.4,1.14,1.16,.15,2.29,0,3.4-.37,.44-.15,.86-.35,1.26-.59,.21-.12,.32-.07,.36,.15,.07,.45,.17,.88,.04,1.36-.37,1.41,.17,2.48,1.75,3.47,.85,.53,1.73,.62,2.64,.11,.15-.09,.28-.19,.38-.33h.02Z" />
    <path class="cls-1"
        d="M104.72,67.61c-4.1,.07-7.95-2.85-8.71-7.28-.62-3.64,1.18-7.37,4.42-9.1,.35-.19,.73-.33,1.1-.49,.31-.13,.64-.15,.98-.15,1.53,.01,3.06,.03,4.59,0,.47-.01,.9,.22,1.31,.43,2.87,1.42,4.54,3.72,4.91,6.9,.54,4.69-2.72,8.92-7.36,9.61-.44,.07-.88,.1-1.25,.08Zm-3.15-8.69c.06,1.77,1.46,3.08,3.23,3.02,1.65-.05,2.97-1.51,2.92-3.21-.05-1.67-1.5-2.98-3.23-2.92-1.61,.05-2.97,1.5-2.92,3.11Z" />
    <path class="cls-1"
        d="M86.63,61.94c0,.76,0,1.52,0,2.28,0,.88,0,1.75,0,2.63,0,.28-.08,.39-.38,.39-1.65-.01-3.3-.01-4.94,0-.29,0-.39-.09-.39-.38,0-4.71,0-9.42,.02-14.14,0-.57,.05-1.14,.04-1.71,0-.32,.11-.42,.42-.42,2.91,0,5.81,.05,8.72-.01,1.49-.03,2.71,.5,3.72,1.51,1.18,1.18,1.6,2.65,1.44,4.29-.08,.89-.33,1.72-.8,2.48-.5,.8-1.18,1.37-2.09,1.65-.34,.11-.34,.11-.15,.42,1.26,1.95,2.52,3.91,3.77,5.86,.08,.12,.24,.25,.16,.38-.07,.11-.26,.05-.39,.05-1.8,0-3.59,0-5.39,0-.34,0-.53-.1-.71-.39-.95-1.6-1.93-3.18-2.9-4.77-.03-.05-.07-.1-.11-.15-.02,0-.04,.01-.07,.02Zm0-5.28h0c0,.48,0,.97,0,1.45,0,.24,.06,.35,.32,.34,.32-.02,.63,0,.95,0,1.01-.04,1.77-.82,1.76-1.79-.02-.99-.83-1.79-1.83-1.8-.3,0-.59,0-.89,0-.23,0-.32,.09-.31,.32,0,.5,0,.99,0,1.49Z" />
    <path class="cls-1"
        d="M134.69,75.31c1.23,0,2.45,0,3.68,0,.31,0,.41,.1,.39,.4-.04,1.17,.07,2.34-.13,3.51-.6,3.51-3.17,5.97-6.7,6.41-2.86,.35-5.36-.44-7.42-2.45-1.48-1.44-2.35-3.23-2.52-5.29-.3-3.58,1.07-6.4,4.08-8.36,1.74-1.13,3.68-1.46,5.74-1.27,1.42,.13,2.76,.49,3.99,1.22,.67,.39,1.27,.87,1.83,1.4,.16,.15,.17,.26,0,.41-1.19,1.12-2.38,2.25-3.56,3.38-.19,.18-.29,.07-.41-.06-1.33-1.37-3.82-1.35-5.17-.12-.61,.56-.97,1.24-1.12,2.05-.29,1.56,.39,3.14,1.72,3.93,1.09,.65,2.67,.54,3.5-.23,.16-.15,.29-.33,.42-.51,.12-.18,.1-.26-.13-.26-.62,0-1.25-.01-1.87,0-.31,0-.4-.11-.4-.41,.01-1.12,.01-2.24,0-3.36,0-.3,.09-.44,.4-.4,.01,0,.02,0,.03,0,1.21,0,2.43,0,3.64,0Z" />
    <path class="cls-1"
        d="M145.4,73.49c0,1.48,.04,2.96-.01,4.44-.04,1.28,1,2,1.8,2.01,1.09,0,1.9-.8,1.91-1.97,.02-1.33,0-2.66,0-3.99,0-1.72,0-3.44,0-5.16,0-.32,.09-.42,.41-.42,1.63,.01,3.25,.01,4.88,0,.3,0,.38,.1,.38,.39,0,3.14,.04,6.27-.02,9.41-.07,3.86-2.86,6.75-6.36,7.34-4.1,.69-8.13-2.33-8.62-6.46-.04-.34-.06-.67-.06-1.01,0-3.06,0-6.13,0-9.19,0-.46,0-.46,.45-.46,1.61,0,3.21,0,4.82,0,.32,0,.42,.1,.42,.42-.01,1.56,0,3.13,0,4.69Z" />
    <path class="cls-1"
        d="M132.77,55.77c.35-.57,.7-1.14,1.05-1.7,.65-1.05,1.31-2.1,1.95-3.15,.14-.23,.31-.33,.59-.33,1.8,.01,3.59,0,5.39,0,.11,0,.26-.05,.33,.06,.08,.13-.06,.23-.12,.33-1.62,2.54-3.29,5.04-4.96,7.55-.17,.25-.16,.42,0,.67,1.7,2.55,3.39,5.1,5.09,7.66,.05,.07,.09,.14,.14,.21,.12,.17,.1,.27-.13,.27-.13,0-.25,0-.38,0-1.72,0-3.44-.01-5.17,0-.38,0-.58-.13-.77-.45-.94-1.57-1.9-3.12-2.85-4.68-.05-.08-.1-.16-.21-.23,0,.11,0,.22,0,.33,0,1.49,0,2.98,0,4.47,0,.43,0,.43-.42,.43-1.62,0-3.23,0-4.85,0-.3,0-.4-.08-.4-.39,.02-5.26,.02-10.52,.03-15.78,0-.46,.01-.46,.46-.46,1.55,0,3.11,0,4.66,0,.45,0,.45,0,.46,.47,.04,1.48,.08,2.96,.06,4.44,0,.08-.03,.17,.06,.27Z" />
    <path class="cls-1"
        d="M120.47,85.23c-.82,0-1.65,0-2.47,0-.24,0-.36-.08-.42-.32-.15-.62-.33-1.22-.48-1.84-.06-.23-.17-.32-.42-.32-1.21,.01-2.43,.01-3.64,0-.23,0-.34,.08-.39,.3-.12,.59-.28,1.17-.39,1.76-.06,.3-.17,.42-.5,.41-1.61-.02-3.21,0-4.82,0-.46,0-.46,0-.32-.43,1.62-4.87,3.24-9.74,4.87-14.6,.16-.49,.34-.98,.49-1.47,.07-.24,.2-.33,.46-.33,1.64,.01,3.27,.01,4.91,0,.31,0,.44,.12,.53,.4,1.06,3.2,2.12,6.39,3.19,9.59,.71,2.14,1.43,4.29,2.14,6.43,.14,.42,.13,.43-.3,.43-.81,0-1.63,0-2.44,0Zm-5.58-11.3s-.04,0-.05,0c-.33,1.39-.66,2.78-1,4.18-.05,.19,.03,.24,.21,.24,.55,0,1.1,0,1.64,0,.19,0,.25-.06,.2-.24-.34-1.39-.67-2.78-1-4.17Z" />
    <path class="cls-1"
        d="M94.02,76.82c0-2.66,0-5.32,0-7.99,0-.43,0-.43,.44-.44,3.67,0,7.33,0,11,0,.45,0,.45,0,.45,.46,0,1.17,0,2.35,0,3.52,0,.43,0,.43-.44,.43-1.8,0-3.59,0-5.39,0-.3,0-.42,.08-.4,.39,.02,.33,0,.65,0,.98,0,.44,0,.45,.44,.45,1.33,0,2.66,0,3.99,0,.47,0,.47,0,.47,.48,0,1.15,0,2.3,0,3.45q0,.53-.51,.53c-1.33,0-2.66,0-3.99,0-.3,0-.42,.08-.4,.39,.02,.36,.02,.72,0,1.08-.01,.26,.09,.35,.35,.35,1.8,0,3.59,0,5.39,0q.49,0,.49,.48c0,1.16,0,2.32,0,3.49,0,.29-.1,.38-.38,.38-3.71,0-7.42,0-11.12,0-.31,0-.4-.1-.4-.4,0-2.67,0-5.35,0-8.02Z" />
    <path class="cls-1"
        d="M142.86,59.13c0-2.44,0-4.88,0-7.32,0-.32,.04-.63,.06-.95,.01-.19,.1-.27,.28-.26,.06,0,.13,0,.19,0,3.61,0,7.23,0,10.84,0,.48,0,.48,0,.49,.47,.02,1.09,.04,2.17,.06,3.26,0,.52,0,.52-.5,.52-1.76,0-3.53,0-5.29,0q-.46,0-.46,.48c0,.34,.01,.68,0,1.01-.01,.25,.09,.33,.33,.33,1.37,0,2.75,0,4.12,0,.48,0,.48,0,.48,.46,0,1.14,0,2.28,0,3.42,0,.45,0,.45-.47,.45-1.36,0-2.73,0-4.09,0-.29,0-.4,.08-.38,.38,.02,.36,.02,.72,0,1.08-.02,.28,.08,.36,.36,.36,1.8-.01,3.59,0,5.39,0q.52,0,.52,.52c0,1.16,0,2.32,0,3.49,0,.32-.1,.41-.42,.41-3.7-.01-7.4,0-11.09,0-.42,0-.42,0-.42-.43,0-2.56,0-5.11,0-7.67h.01Z" />
    <path class="cls-1"
        d="M125.88,63.92c0,.97,0,1.94,0,2.92,0,.23-.08,.35-.31,.4-3.07,.65-5.96,.36-8.46-1.73-2.03-1.7-3.08-3.9-3.13-6.56-.05-2.6,.9-4.78,2.77-6.56,.82-.78,1.79-1.34,2.85-1.74,.25-.09,.5-.04,.75-.04,1.66,0,3.32,0,4.98,0,.49,0,.52,.03,.52,.52,0,1.8,.01,3.59,.02,5.39,0,.1,.05,.24-.05,.29-.11,.05-.17-.09-.25-.15-1.17-.96-3.08-1.22-4.29-.59-1.16,.61-1.81,1.92-1.6,3.22,.21,1.27,1.27,2.35,2.56,2.52,1.22,.16,2.34-.16,3.33-.9,.08-.06,.14-.21,.25-.16,.12,.06,.06,.21,.06,.32,0,.95,0,1.9,0,2.85Z" />
    <path class="cls-1"
        d="M80.92,76.8c0-2.64,0-5.28,0-7.92,0-.48,0-.48,.47-.48,1.61,0,3.21,0,4.82,0,.41,0,.42,.01,.42,.43,0,3.82,0,7.65,0,11.47,0,.67-.04,.59,.6,.59,1.73,0,3.46,0,5.2,0,.42,0,.43,0,.43,.42,0,1.18,0,2.37,0,3.55,0,.29-.1,.38-.39,.38-3.73,0-7.46,0-11.18,0-.33,0-.38-.15-.38-.42,0-2.67,0-5.34,0-8.02Z" />
    <path class="cls-1"
        d="M33.92,44.7c3.12-.07,5.72,2.43,5.71,5.69-.01,3.29-2.46,5.74-5.71,5.77-3.32,.03-5.72-2.68-5.76-5.69-.04-3.13,2.65-5.89,5.76-5.76Zm-.55,3.42c0-.47-.48-.93-.97-.94-.49,0-.98,.45-.99,.93-.01,.47,.51,1.03,.98,1.03,.46,0,.98-.54,.99-1.02Z" />
    <path class="cls-1"
        d="M42.94,62.4c-.24,.04-.46,0-.66-.14-.12-.08-.26-.12-.42-.1-.7,.07-1.26-.16-1.63-.79-.09-.15-.13-.31-.12-.48,0-.09-.03-.21,.07-.26,.1-.05,.18,.04,.25,.1,.3,.22,.59,.45,.88,.67,.26,.2,.56,.11,.69-.19,.03-.08,.04-.18,.09-.23,.35-.31,.18-.6-.03-.88-.22-.3-.39-.6-.22-.99,.09-.2,.17-.23,.3-.05,.22,.29,.44,.59,.67,.88,.09,.12,.16,.29,.36,.25,.2-.04,.35-.14,.4-.36,.05-.23,.2-.4,.36-.54,.1-.09,.2-.16,.37-.07-.38,.26-.58,.6-.59,1.05,0,.58,.22,.83,.7,.79,.55-.05,1.03-.55,.91-1.01-.09-.36,.06-.41,.34-.45,.65-.08,1.3-.09,1.96,0,.09,.01,.24,.09,.28-.04,.04-.14-.09-.23-.22-.26-.43-.11-.86-.22-1.29-.32-.14-.03-.28-.07-.42-.11,0-.03,0-.05,.01-.08,.51,.08,1.02,.17,1.53,.23,.39,.05,.73,.19,1.02,.46,.13,.12,.2,.27,.28,.41,.23,.45,.57,.76,1.11,.77,.3,0,.52,.14,.72,.35,.81,.85,1.54,1.77,2.04,2.84,.15,.32,.33,.58,.64,.75,.1,.06,.18,.14,.24,.28-.57-.18-1.13-.36-1.7-.55-.12-.04-.13-.14-.12-.26,.1-1.83-.83-2.8-2.25-3.4-.57-.24-1.18-.34-1.79-.35-.52,0-.97,.26-1.41,.52-.38,.23-.74,.49-1.03,.84-.09,.11-.19,.16-.33,.15-.2-.01-.4,0-.6-.04-.29-.04-.53-.06-.69,.26-.13,.24-.46,.18-.66,.33,0,0-.02,.01-.02,.01Z" />
    <path class="cls-1"
        d="M55.45,59.67c-.95-.04-2,.1-3.05,.18-.31,.02-.57-.08-.77-.3-.27-.29-.5-.62-.75-.94-.17-.22-.16-.43,.08-.59,.5-.33,1.01-.66,1.51-.98,.11-.07,.25-.05,.37-.05,1.02,.05,2.04,.15,3.05,.33,.27,.05,.44,.18,.54,.46,.17,.51,.38,1.01,.56,1.51,.11,.32,.06,.37-.27,.37-.39,0-.78,0-1.28,0Z" />
    <path class="cls-1"
        d="M41.58,59.84c-.27,.15-.2,.38-.22,.59,0,.11,.02,.27-.15,.26-.14-.01-.09-.16-.1-.26,0-.05,0-.11,0-.16,.07-.57,.05-.64-.45-.91-.12-.07-.26-.23-.39-.13-.12,.09,.03,.25,.02,.39,0,.08,.05,.13,.07,.2,.05,.11,.15,.26-.13,.3-.15,.02-.28,.22-.49,.19-.11-.02-.18-.06-.17-.18,.04-.83-.22-1.65-.03-2.49,.11-.48,.31-.89,.58-1.28,.08-.12,.19-.12,.31-.07,.15,.05,.3,.1,.45,.15,.06,.02,.16,.06,.18,0,.1-.29,.27-.08,.41-.05,.38,.09,.75,.2,1.18,.32-.29,.16-.57,.16-.82,.23-.21,.05-.43,.1-.65,.12-.38,.02-.55,.21-.61,.59-.03,.2,.01,.3,.16,.38,.08,.05,.17,.09,.25,.14,.22,.14,.58,.19,.24,.59-.12,.14-.1,.4-.14,.61-.03,.16,.06,.26,.19,.33,.09,.05,.18,.1,.3,.16Z" />
    <path class="cls-1"
        d="M58.12,60.66c-.49,.03-.92,.06-1.34,.09-.93,.08-1.84,.23-2.68,.67-.12,.06-.24,.13-.35,.21-.42,.29-.41,.29-.7-.13-.21-.31-.44-.62-.66-.93-.11-.15-.11-.25,.11-.27,1.85-.11,3.69-.04,5.52,.27,.02,0,.03,.02,.11,.08Z" />
    <path class="cls-1"
        d="M61.02,64.22c-.32,.13-.64,.25-.94,.42-.06,.03-.16,0-.24-.03-.55-.17-1.11-.35-1.66-.53-.42-.14-.41-.22-.14-.54,.32-.39,.63-.44,1.08-.21,.52,.27,1.08,.47,1.63,.7,.09,.04,.21,.05,.27,.19Z" />
    <path class="cls-1"
        d="M56.9,65.87c-.29-.09-.63-.19-.96-.31-.12-.04-.07-.13,0-.2,.42-.38,.85-.76,1.27-1.13,.07-.06,.16-.12,.26-.04,.17,.15,.39,.2,.59,.3,.1,.05,.2,.11,.09,.23-.33,.36-.67,.72-1.01,1.08-.04,.05-.1,.07-.23,.06Z" />
    <path class="cls-1"
        d="M38.82,59.66c-.14,0-.33-.03-.28-.21,.15-.56-.14-1.07-.11-1.62,.04-.66,.16-1.27,.51-1.83,.06-.09,.12-.17,.18-.26,.03-.04,.09-.07,.14-.04,.06,.03,.03,.1,0,.14-.11,.23-.22,.46-.33,.68-.13,.27-.16,.5,.15,.67,.1,.06,.18,.16,.16,.29-.07,.33-.05,.67-.11,1-.06,.3-.08,.63-.05,.93,.03,.28-.11,.24-.26,.25Z" />
    <path class="cls-1"
        d="M57.54,58.39c.18,0,.31,.06,.44,.13,.61,.32,1.07,.81,1.42,1.41,.03,.05,.08,.11,.04,.17-.05,.06-.12,.03-.17,0-.49-.17-.98-.34-1.46-.51-.14-.05-.65-.87-.62-1,.05-.2,.23-.18,.36-.21Z" />
    <path class="cls-1"
        d="M49.01,65.11c-.02-.18,.05-.24,.17-.25,.39-.03,.78-.05,1.17-.07,.19-.01,.24,.08,.18,.25-.17,.5-.45,.93-.85,1.28-.17,.15-.27,.12-.34-.1-.11-.38-.23-.77-.34-1.11Z" />
    <path class="cls-1"
        d="M50.28,64.1c-.28-.05-.6-.05-.93-.07-.23-.01-.3-.13-.18-.33,.17-.29,.33-.58,.5-.88,.1-.17,.22-.22,.38-.08,.29,.25,.52,.56,.6,.94,.08,.34,0,.43-.38,.41Z" />
    <path class="cls-1"
        d="M48.27,66.75c-.33-.03-.62-.07-.88-.22-.13-.08-.19-.16-.08-.3,.24-.29,.48-.59,.73-.87,.16-.18,.31-.1,.39,.1,.13,.31,.25,.63,.38,.94,.09,.21,.05,.32-.2,.33-.13,0-.25,.02-.34,.03Z" />
    <path class="cls-1"
        d="M59.5,65.15c-.04,.05-.07,.11-.12,.17-.26,.33-.49,.68-.64,1.08-.08,.22-.21,.24-.41,.18-.73-.21-.72-.21-.22-.76,.24-.26,.48-.53,.7-.81,.17-.21,.34-.08,.51-.03,.08,.02,.16,.05,.17,.17Z" />
    <path class="cls-1"
        d="M46.81,65.11c.01-.37,.1-.73,.25-1.07,.08-.18,.18-.22,.33-.07,.04,.04,.08,.07,.11,.11q.45,.45,.1,.96c-.16,.23-.31,.45-.47,.67-.11,.16-.2,.13-.25-.05-.05-.18-.09-.37-.09-.56Z" />
    <path class="cls-1"
        d="M49.1,62.4c.22-.01,.24,.08,.13,.24-.2,.31-.4,.62-.6,.93-.15,.24-.33,.25-.55,.08-.57-.41-.57-.49,.03-.88,.3-.2,.63-.35,1-.37Z" />
    <path class="cls-1"
        d="M58.4,62.86c-.1-.28,.03-.43,.24-.55,.51-.27,1.02-.55,1.62-.62,.29-.04,.54-.14,.7-.43,.1-.18,.69-.19,.81-.04,.06,.07,.01,.14-.02,.21-.08,.16-.14,.34-.37,.33-.36,0-.71,.06-1.06,.14-.55,.12-1.07,.33-1.55,.61-.15,.09-.3,.16-.36,.35Z" />
    <path class="cls-1"
        d="M44.27,56.58c-.4,.12-.71,.16-1.03,0-.38-.17-.79-.24-1.2-.29-.27-.03-.33-.18-.28-.42,.06-.28,.23-.2,.41-.14,.68,.24,1.38,.45,2.1,.84Z" />
    <path class="cls-1"
        d="M51.01,60.92c.56,.03,1,.3,1.41,.64,.12,.1,.24,.21,.34,.33,.08,.09,.25,.16,.18,.3-.06,.13-.23,.08-.35,.1-.18,.03-.35-.02-.47-.15-.36-.41-.75-.79-1.12-1.21Z" />
    <path class="cls-1"
        d="M50.9,59.13c-.67-.11-1.34-.17-2.02-.24-.29-.03-.16-.32-.17-.5,0-.15,.11-.19,.24-.15,.65,.2,1.3,.41,1.89,.77,.03,.02,.08,.04,.06,.12Z" />
    <path class="cls-1"
        d="M63.33,67.71c.22-.03,.29,.06,.2,.29-.16,.38-.42,.68-.69,.98-.11,.13-.17,.07-.21-.07-.06-.29-.13-.58-.2-.86-.05-.19,.05-.25,.21-.27,.22-.02,.44-.04,.68-.06Z" />
    <path class="cls-1"
        d="M63.13,67.16c-.18-.04-.4,.07-.48-.09-.1-.18,.13-.3,.22-.45,.09-.15,.21-.29,.31-.44,.1-.16,.19-.13,.28,0,.15,.21,.23,.46,.2,.71-.03,.37-.34,.2-.53,.26Z" />
    <path class="cls-1"
        d="M61.86,69.51c-.09,0-.18-.01-.26-.03-.32-.06-.37-.15-.21-.45,.1-.2,.21-.39,.32-.58,.09-.17,.2-.21,.27,0,.09,.26,.2,.52,.25,.78,.07,.33-.22,.22-.37,.27Z" />
    <path class="cls-1"
        d="M62.83,66.07c-.06,.08-.11,.15-.17,.23-.15,.19-.3,.38-.45,.57-.06,.07-.13,.17-.23,.08-.08-.08-.18-.18-.09-.3,.2-.26,.42-.5,.7-.67,.1-.06,.2-.07,.24,.09Z" />
</svg>
