<svg width="19" height="20" viewBox="0 0 19 20" fill="currentColor" xmlns="http://www.w3.org/2000/svg">
    <path fill-rule="evenodd" clip-rule="evenodd"
          d="M14.9491 8.84472C14.9491 12.3205 12.0802 15.1894 8.47758 15.1894C4.87495 15.1894 2.0061 12.3205 2.0061 8.84472C2.0061 5.36895 4.87495 2.5 8.47758 2.5C12.0802 2.5 14.9491 5.36895 14.9491 8.84472ZM12.9563 15.9292C11.657 16.7279 10.122 17.1894 8.47758 17.1894C3.79891 17.1894 0.00610352 13.4534 0.00610352 8.84472C0.00610352 4.23606 3.79891 0.5 8.47758 0.5C13.1562 0.5 16.9491 4.23606 16.9491 8.84472C16.9491 11.1149 16.0287 13.1734 14.5356 14.6778L18.0138 18.1041L16.5889 19.5076L12.9563 15.9292Z"
          fill-opacity="0.6"/>
</svg>
