<svg width="173" height="44" viewBox="0 0 173 44" fill="none" xmlns="http://www.w3.org/2000/svg">
    <path
        d="M15.0079 22.8137V19.921C15.0079 18.0213 14.8354 16.2079 13.0241 14.6104C11.3853 13.1425 9.18585 12.8403 7.50393 12.8403C4.61449 12.8403 2.93257 13.7469 1.9838 14.6104C0.301882 16.1647 0 18.1076 0 19.921V36.8455C0 38.6589 0.301882 40.6018 1.9838 42.1561C2.93257 43.0196 4.61449 43.9262 7.50393 43.9262C9.18585 43.9262 11.3853 43.624 13.0241 42.1561C14.8354 40.5586 15.0079 38.7452 15.0079 36.8455V28.8582H7.33143V32.9166H9.05647V36.9751C9.05647 37.3205 9.01335 38.0976 8.88397 38.4862C8.58208 39.3065 7.89207 39.3929 7.50393 39.3929C7.1158 39.3929 6.42578 39.3065 6.1239 38.4862C5.99452 38.0976 5.9514 37.3205 5.9514 36.9751V19.7914C5.9514 19.4029 5.99452 18.6689 6.1239 18.2803C6.42578 17.46 6.98642 17.3736 7.50393 17.3736C8.02145 17.3736 8.58208 17.46 8.88397 18.2803C9.01335 18.6689 9.05647 19.4029 9.05647 19.7914V22.8137H15.0079Z"
        fill="white" />
    <path
        d="M32.5218 43.4945L29.7186 13.272H19.7133L16.8239 43.4945H22.9909L23.3359 39.6519H26.0097L26.3547 43.4945H32.5218ZM23.5084 35.4208L24.6297 17.8917H24.8022L25.8372 35.4208H23.5084Z"
        fill="white" />
    <path
        d="M46.7874 43.4945L49.8925 28.5128H50.065L49.8062 32.528V43.4945H55.7576V13.272H48.4262L45.1917 30.5852H45.0192L41.7848 13.272H34.4533V43.4945H40.4047V32.528L40.146 28.5128H40.3185L43.4236 43.4945H46.7874Z"
        fill="white" />
    <path
        d="M58.796 43.4945H72.9844V39.2633H64.7474V28.9877H70.44V24.7566H64.7474V17.5032H72.2944V13.272H58.796V43.4945Z"
        fill="white" />
    <path
        d="M86.6279 43.4917L91.1837 13.1005H85.0807L82.7598 32.8113L80.4389 13.1005H74.3359L78.9347 43.4917H86.6279Z"
        fill="white" fill-opacity="0.6" />
    <path
        d="M107.446 43.4917L104.653 13.1005H94.6817L91.8022 43.4917H97.9481L98.292 39.6276H100.957L101.3 43.4917H107.446ZM98.4639 35.3729L99.5813 17.746H99.7532L100.785 35.3729H98.4639Z"
        fill="white" fill-opacity="0.6" />
    <path d="M123.297 43.4917V39.2369H115.303V13.1005H109.371V43.4917H123.297Z" fill="white"
        fill-opacity="0.6" />
    <path
        d="M139.898 6.66178H133.966V36.9793C133.966 38.1081 133.795 38.6291 133.709 38.8896C133.408 39.5408 133.021 39.6711 132.419 39.6711C131.818 39.6711 131.431 39.5408 131.13 38.8896C131.044 38.6291 130.872 38.1081 130.872 36.9793V13.1005H124.941V36.7622C124.941 38.7159 125.285 40.9301 127.348 42.4931C129.153 43.8824 131.732 43.9258 132.419 43.9258C133.021 43.9258 135.686 43.8824 137.534 42.4931C139.64 40.8867 139.898 38.7159 139.898 36.8056V6.66178Z"
        fill="white" fill-opacity="0.6" />
    <path
        d="M142.823 43.4917H156.963V39.2369H148.754V28.9039H154.427V24.6491H148.754V17.3552H156.275V13.1005H142.823V43.4917Z"
        fill="white" fill-opacity="0.6" />
    <path
        d="M158.043 33.8533V36.1978C158.043 38.4554 158.344 40.8433 160.88 42.5365C162.599 43.6653 164.49 43.9258 165.994 43.9258C168.057 43.9258 169.734 43.5785 171.152 42.1892C173.043 40.3223 173 38.3686 173 36.6754V34.9387C173 30.0761 171.281 28.8171 169.39 26.9936L165.951 23.6506C165.135 22.8691 164.146 21.6968 164.146 19.9168V19.2221C164.146 18.5275 164.103 18.0499 164.576 17.4855C164.877 17.0948 165.264 16.9211 165.737 16.9211C166.424 16.9211 166.811 17.3118 166.94 17.5289C167.241 18.0065 167.241 18.788 167.241 20.3944V22.2178H173V20.351C173 18.267 173 16.2264 171.109 14.4464C169.519 12.9268 167.37 12.6663 165.608 12.6663C164.189 12.6663 161.697 12.7532 159.977 14.4464C159.075 15.3581 158.215 16.9645 158.215 18.7446V19.9168C158.215 21.3495 158.301 23.0427 159.161 24.736C159.634 25.6477 160.407 26.6463 161.224 27.4278L165.307 31.3786C166.467 32.5074 167.069 33.4192 167.069 35.5465V36.7188C167.069 36.9358 167.069 38.2817 166.897 38.7593C166.725 39.2803 166.338 39.6711 165.651 39.6711C164.834 39.6711 164.447 39.1935 164.232 38.6725C164.103 38.3686 163.974 37.8042 163.974 36.1109V33.8533H158.043Z"
        fill="white" fill-opacity="0.6" />
    <path d="M136.932 0L143.594 6.66178H130.27L136.932 0Z" fill="white" fill-opacity="0.6" />
</svg>
