<svg width="196" height="136" viewBox="0 0 196 136" fill="none" xmlns="http://www.w3.org/2000/svg">
    <path d="M82.3045 39.7217C84.3675 37.6151 86.8166 35.944 89.5122 34.8039C92.2077 33.6638 95.0967 33.077 98.0144 33.077C100.932 33.077 103.821 33.6638 106.517 34.8039C109.212 35.944 111.661 37.6151 113.724 39.7217L120.001 33.313C117.113 30.3619 113.684 28.0208 109.909 26.4235C106.135 24.8263 102.089 24.0042 98.0029 24.0042C93.9171 24.0042 89.8713 24.8263 86.0968 26.4235C82.3223 28.0208 78.8931 30.3619 76.0051 33.313L82.3045 39.7217Z" fill="#E0E4EC"/>
    <path d="M121.829 35.3317L115.51 41.7957C118.28 45.4118 119.91 49.8003 120.187 54.3821C120.463 58.9639 119.373 63.5236 117.059 67.4596L105.622 55.7783L99.3909 40.8169H99.3595V61.0218L111.704 73.6265C107.795 76.7499 102.974 78.4469 98.01 78.4469C93.0461 78.4469 88.2251 76.7499 84.3158 73.6265L96.6691 61.0218V40.8927L90.4069 55.7783L78.9665 67.4596C76.6524 63.5236 75.562 58.9635 75.8391 54.3815C76.1161 49.7995 77.7478 45.4111 80.5185 41.7957L74.1992 35.3317C70.3943 39.9618 67.9627 45.6046 67.1901 51.597C66.4175 57.5895 67.336 63.6826 69.8378 69.1604C72.3395 74.6382 76.3205 79.2732 81.313 82.5207C86.3054 85.7682 92.102 87.4933 98.0215 87.4933C103.941 87.4933 109.737 85.7682 114.73 82.5207C119.722 79.2732 123.703 74.6382 126.205 69.1604C128.707 63.6826 129.625 57.5895 128.853 51.597C128.08 45.6046 125.649 39.9618 121.844 35.3317H121.829Z" fill="#E0E4EC"/>
    <path d="M172.17 106.579L176.609 102.297C176.883 102.057 177.135 101.792 177.36 101.504C177.665 101.096 177.845 100.604 177.876 100.092C177.899 99.7507 177.896 99.4069 177.893 99.0661C177.892 98.9096 177.877 98.7536 177.848 98.6C177.812 98.4199 177.757 98.2442 177.685 98.0757L170.182 105.335C169.934 105.565 169.698 105.808 169.474 106.063C169.127 106.482 168.939 107.015 168.943 107.563C168.943 108.085 168.943 108.656 168.943 109.177H176.604C176.898 109.178 177.185 109.085 177.425 108.912C177.7 108.72 177.92 108.457 178.064 108.15C178.208 107.843 178.27 107.503 178.244 107.164V106.582L172.17 106.579Z" fill="#E0E4EC"/>
    <path d="M176.912 97.0853C176.618 96.8234 176.243 96.6767 175.853 96.6716H171.391C171.242 96.6715 171.093 96.6921 170.949 96.7328C170.388 96.9226 169.922 97.3294 169.651 97.866C169.358 98.3754 169.211 98.9591 169.229 99.5497V100.715H171.768V99.2584H174.649L176.912 97.0853Z" fill="#E0E4EC"/>
    <path d="M156.813 96.6658V101.426C156.813 101.458 156.8 101.489 156.777 101.512C156.755 101.535 156.725 101.548 156.693 101.548H149.483C149.452 101.548 149.421 101.535 149.399 101.512C149.376 101.489 149.363 101.458 149.363 101.426V96.6658C149.363 96.6501 149.36 96.6346 149.355 96.6201C149.349 96.6056 149.34 96.5924 149.329 96.5813C149.318 96.5703 149.305 96.5614 149.291 96.5554C149.277 96.5494 149.262 96.5464 149.246 96.5464H145.232C145.217 96.546 145.201 96.5488 145.187 96.5546C145.172 96.5604 145.159 96.5692 145.148 96.5803C145.137 96.5914 145.128 96.6047 145.122 96.6194C145.116 96.6341 145.113 96.6499 145.113 96.6658V109.192C145.113 109.208 145.116 109.224 145.122 109.238C145.128 109.253 145.137 109.266 145.148 109.277C145.159 109.288 145.172 109.297 145.187 109.303C145.201 109.309 145.217 109.312 145.232 109.311H149.246C149.278 109.311 149.307 109.299 149.329 109.276C149.351 109.254 149.363 109.224 149.363 109.192V104.426C149.363 104.394 149.376 104.363 149.399 104.34C149.421 104.317 149.452 104.304 149.483 104.304H156.693C156.725 104.304 156.755 104.317 156.777 104.34C156.8 104.363 156.813 104.394 156.813 104.426V109.186C156.813 109.218 156.825 109.248 156.847 109.27C156.869 109.293 156.899 109.305 156.93 109.305H160.947C160.978 109.305 161.007 109.293 161.029 109.27C161.051 109.248 161.063 109.218 161.063 109.186V96.66C161.063 96.6283 161.051 96.5979 161.029 96.5755C161.007 96.5531 160.978 96.5405 160.947 96.5405H156.93C156.914 96.5405 156.898 96.5438 156.883 96.5501C156.869 96.5565 156.856 96.5658 156.845 96.5775C156.834 96.5893 156.825 96.6031 156.82 96.6183C156.814 96.6335 156.812 96.6496 156.813 96.6658Z" fill="#E0E4EC"/>
    <path d="M60.8757 99.7652V96.6658C60.8757 96.6498 60.8726 96.634 60.8666 96.6194C60.8605 96.6047 60.8516 96.5914 60.8405 96.5803C60.8293 96.5691 60.8161 96.5604 60.8015 96.5546C60.787 96.5487 60.7715 96.5459 60.7559 96.5463H50.1372C50.1154 96.5456 50.0939 96.5513 50.0752 96.5626C50.0565 96.574 50.0414 96.5906 50.0316 96.6104L48.1829 100.316C48.1786 100.334 48.1786 100.353 48.1829 100.371V109.183C48.1829 109.199 48.186 109.215 48.192 109.229C48.1981 109.244 48.207 109.257 48.2181 109.269C48.2293 109.28 48.2425 109.288 48.2571 109.294C48.2716 109.3 48.2871 109.303 48.3027 109.303H60.7787C60.7943 109.303 60.8098 109.3 60.8244 109.294C60.8389 109.288 60.8521 109.28 60.8633 109.269C60.8745 109.257 60.8833 109.244 60.8894 109.229C60.8954 109.215 60.8986 109.199 60.8986 109.183V106.078C60.8986 106.045 60.8859 106.014 60.8635 105.991C60.841 105.968 60.8105 105.955 60.7787 105.955H52.5422C52.5104 105.955 52.48 105.943 52.4575 105.92C52.435 105.897 52.4224 105.866 52.4224 105.833V104.426C52.4224 104.394 52.435 104.363 52.4575 104.34C52.48 104.317 52.5104 104.304 52.5422 104.304H59.3465C59.3623 104.304 59.3779 104.301 59.3924 104.294C59.4069 104.288 59.4201 104.279 59.4313 104.268C59.4424 104.257 59.4512 104.243 59.4572 104.228C59.4633 104.213 59.4664 104.197 59.4664 104.181V101.673C59.4664 101.641 59.4537 101.61 59.4313 101.587C59.4088 101.564 59.3783 101.551 59.3465 101.551H52.5422C52.5104 101.551 52.48 101.538 52.4575 101.515C52.435 101.492 52.4224 101.461 52.4224 101.429V100.019C52.4224 99.9862 52.435 99.9551 52.4575 99.9322C52.48 99.9092 52.5104 99.8963 52.5422 99.8963H60.7645C60.7804 99.8956 60.7959 99.8916 60.8102 99.8845C60.8246 99.8775 60.8373 99.8675 60.8477 99.8552C60.8581 99.843 60.866 99.8286 60.8708 99.8132C60.8756 99.7977 60.8773 99.7814 60.8757 99.7652Z" fill="#E0E4EC"/>
    <path d="M108.977 96.5608H104.349C104.328 96.5601 104.306 96.5658 104.287 96.5772C104.269 96.5885 104.253 96.6051 104.244 96.6249L97.9957 109.151C97.987 109.17 97.9831 109.19 97.9844 109.211C97.9856 109.231 97.9919 109.251 98.0027 109.269C98.0135 109.286 98.0285 109.301 98.0462 109.311C98.064 109.321 98.0839 109.326 98.1041 109.326H102.609C102.631 109.326 102.652 109.321 102.671 109.309C102.69 109.298 102.705 109.282 102.715 109.262L106.557 101.563C106.568 101.543 106.583 101.527 106.602 101.515C106.62 101.504 106.641 101.498 106.663 101.498C106.685 101.498 106.706 101.504 106.725 101.515C106.743 101.527 106.758 101.543 106.769 101.563L110.609 109.262C110.619 109.282 110.635 109.298 110.654 109.309C110.673 109.321 110.695 109.326 110.717 109.326H115.222C115.242 109.326 115.262 109.321 115.28 109.311C115.298 109.301 115.313 109.287 115.323 109.269C115.334 109.251 115.34 109.231 115.341 109.211C115.341 109.19 115.337 109.169 115.327 109.151L109.082 96.6249C109.072 96.6053 109.057 96.5889 109.038 96.5776C109.02 96.5663 108.998 96.5605 108.977 96.5608Z" fill="#E0E4EC"/>
    <path d="M97.5306 96.6105L94.7917 102.096C94.7822 102.116 94.7673 102.133 94.7486 102.145C94.7299 102.157 94.7083 102.164 94.6862 102.164C94.6641 102.164 94.6425 102.157 94.6238 102.145C94.6051 102.133 94.5901 102.116 94.5806 102.096L91.8418 96.6105C91.832 96.5906 91.8169 96.574 91.7982 96.5627C91.7795 96.5513 91.758 96.5457 91.7362 96.5464H88.6835C88.6614 96.5458 88.6396 96.5515 88.6205 96.5628C88.6013 96.5741 88.5856 96.5906 88.5751 96.6105L85.8391 102.096C85.8296 102.116 85.8147 102.133 85.796 102.145C85.7773 102.157 85.7557 102.164 85.7336 102.164C85.7115 102.164 85.6899 102.157 85.6712 102.145C85.6525 102.133 85.6375 102.116 85.628 102.096L82.8892 96.6105C82.8794 96.5906 82.8642 96.574 82.8455 96.5627C82.8268 96.5513 82.8054 96.5457 82.7836 96.5464H78.2788C78.2582 96.5455 78.2379 96.5502 78.2197 96.5599C78.2015 96.5696 78.1861 96.5841 78.1751 96.6018C78.1641 96.6195 78.1579 96.6399 78.1571 96.6608C78.1562 96.6818 78.1608 96.7026 78.1703 96.7211L84.4183 109.247C84.4281 109.267 84.4433 109.284 84.462 109.295C84.4807 109.306 84.5022 109.312 84.5239 109.311H86.9432C86.9649 109.312 86.9863 109.306 87.0049 109.295C87.0235 109.283 87.0387 109.267 87.0488 109.247L90.1043 103.13C90.1146 103.11 90.1298 103.094 90.1484 103.083C90.167 103.071 90.1882 103.065 90.2099 103.065C90.2315 103.065 90.2528 103.071 90.2714 103.083C90.29 103.094 90.3052 103.11 90.3154 103.13L93.371 109.247C93.3807 109.267 93.3959 109.284 93.4146 109.295C93.4333 109.306 93.4548 109.312 93.4765 109.311H95.8901C95.9122 109.312 95.9339 109.306 95.953 109.294C95.972 109.283 95.9878 109.267 95.9985 109.247L102.247 96.7211C102.256 96.7028 102.261 96.6823 102.26 96.6616C102.259 96.6409 102.253 96.6207 102.242 96.6031C102.232 96.5855 102.217 96.571 102.199 96.561C102.181 96.5511 102.161 96.546 102.141 96.5464H97.6362C97.6144 96.5457 97.5929 96.5513 97.5742 96.5627C97.5555 96.574 97.5404 96.5906 97.5306 96.6105Z" fill="#E0E4EC"/>
    <path d="M140.077 96.5609H130.722C130.311 96.5593 129.902 96.6212 129.51 96.7445C129.494 96.749 129.48 96.7567 129.468 96.7673C129.455 96.7778 129.445 96.7909 129.438 96.8056L127.441 100.817C127.437 100.835 127.437 100.854 127.441 100.872V106.678C127.441 108.134 128.919 109.317 130.739 109.317H140.094C141.917 109.317 143.395 108.137 143.395 106.678V104.426C143.395 104.394 143.382 104.363 143.36 104.34C143.337 104.317 143.307 104.304 143.275 104.304H139.244C139.212 104.304 139.182 104.317 139.159 104.34C139.137 104.363 139.124 104.394 139.124 104.426V105.35C139.124 105.511 139.061 105.666 138.949 105.78C138.838 105.894 138.686 105.958 138.528 105.958H132.271C132.113 105.958 131.962 105.893 131.85 105.779C131.739 105.665 131.676 105.511 131.675 105.35V100.502C131.676 100.341 131.739 100.187 131.85 100.073C131.962 99.9586 132.113 99.8942 132.271 99.8935H138.528C138.686 99.8935 138.838 99.9576 138.949 100.072C139.061 100.186 139.124 100.341 139.124 100.502V101.426C139.124 101.458 139.137 101.489 139.159 101.512C139.182 101.535 139.212 101.548 139.244 101.548H143.258C143.29 101.548 143.32 101.535 143.343 101.512C143.365 101.489 143.378 101.458 143.378 101.426V99.1827C143.378 97.7262 141.9 96.5609 140.077 96.5609Z" fill="#E0E4EC"/>
    <path d="M127.421 96.5609H111.188C111.167 96.5606 111.147 96.5656 111.13 96.5756C111.112 96.5855 111.097 96.6 111.086 96.6177C111.076 96.6353 111.07 96.6554 111.069 96.6761C111.068 96.6968 111.073 96.7174 111.082 96.7357L112.631 99.841C112.641 99.8612 112.656 99.8782 112.675 99.89C112.693 99.9019 112.715 99.9081 112.737 99.908H117.059C117.075 99.908 117.09 99.9112 117.105 99.9173C117.12 99.9235 117.133 99.9325 117.144 99.9438C117.155 99.9552 117.164 99.9687 117.17 99.9835C117.176 99.9984 117.179 100.014 117.179 100.03V109.198C117.179 109.229 117.191 109.26 117.213 109.282C117.235 109.305 117.265 109.317 117.296 109.317H121.313C121.344 109.317 121.374 109.305 121.396 109.282C121.418 109.26 121.43 109.229 121.43 109.198V100.016C121.43 99.9833 121.443 99.9522 121.465 99.9293C121.487 99.9063 121.518 99.8934 121.55 99.8934H125.872C125.894 99.8932 125.915 99.8868 125.934 99.875C125.953 99.8632 125.968 99.8464 125.978 99.8264L127.527 96.7211C127.533 96.7035 127.535 96.6845 127.533 96.6658C127.531 96.6471 127.524 96.6292 127.514 96.6136C127.504 96.598 127.49 96.5851 127.474 96.5759C127.458 96.5668 127.44 96.5616 127.421 96.5609Z" fill="#E0E4EC"/>
    <path d="M41.7864 109.238L48.0316 96.7124C48.041 96.6941 48.0456 96.6735 48.0448 96.6528C48.0441 96.6321 48.0381 96.612 48.0275 96.5944C48.0169 96.5767 48.0019 96.5622 47.9841 96.5523C47.9663 96.5423 47.9463 96.5373 47.926 96.5376H43.4212C43.3991 96.5371 43.3773 96.5427 43.3581 96.5541C43.339 96.5654 43.3233 96.5819 43.3128 96.6017L39.4784 104.31C39.4681 104.329 39.4529 104.345 39.4343 104.357C39.4157 104.368 39.3945 104.374 39.3728 104.374C39.3512 104.374 39.3299 104.368 39.3113 104.357C39.2927 104.345 39.2775 104.329 39.2673 104.31L35.4186 96.6105C35.4088 96.5906 35.3937 96.574 35.375 96.5627C35.3563 96.5513 35.3348 96.5457 35.313 96.5464H30.8082C30.788 96.5463 30.7681 96.5516 30.7503 96.5615C30.7326 96.5714 30.7176 96.5858 30.7068 96.6033C30.696 96.6207 30.6897 96.6407 30.6885 96.6613C30.6872 96.6819 30.6911 96.7025 30.6998 96.7212L36.9478 109.247C36.9576 109.267 36.9727 109.284 36.9914 109.295C37.0101 109.306 37.0316 109.312 37.0534 109.311H41.6809C41.7035 109.311 41.7255 109.304 41.7442 109.291C41.763 109.278 41.7776 109.26 41.7864 109.238Z" fill="#E0E4EC"/>
    <path d="M28.7656 96.7416C28.7584 96.7261 28.7481 96.7123 28.7353 96.7013C28.7225 96.6902 28.7075 96.6821 28.6914 96.6775C28.3519 96.5902 28.003 96.5462 27.6529 96.5464H18.298C16.475 96.561 15 97.7262 15 99.1827V106.66C15.0013 107.051 15.1058 107.433 15.3024 107.767C15.3108 107.783 15.3222 107.796 15.336 107.806C15.3498 107.817 15.3657 107.824 15.3824 107.827C15.3992 107.831 15.4165 107.831 15.4332 107.827C15.4499 107.823 15.4656 107.816 15.4793 107.805L19.2053 104.869C19.2195 104.857 19.231 104.843 19.2389 104.826C19.2468 104.81 19.2509 104.791 19.2509 104.773V100.502C19.2517 100.341 19.3147 100.187 19.4264 100.073C19.5381 99.9586 19.6893 99.8942 19.8472 99.8935H26.1038C26.2617 99.8942 26.4129 99.9586 26.5246 100.073C26.6362 100.187 26.6993 100.341 26.7 100.502V105.347C26.6993 105.508 26.6362 105.662 26.5246 105.776C26.4129 105.89 26.2617 105.955 26.1038 105.956H20.7059C20.6798 105.955 20.6545 105.964 20.6346 105.982L16.96 108.877C16.9428 108.891 16.9296 108.909 16.9216 108.929C16.9137 108.95 16.9114 108.972 16.9149 108.994C16.9184 109.016 16.9276 109.036 16.9416 109.053C16.9556 109.07 16.9737 109.083 16.9942 109.09C17.4148 109.232 17.855 109.304 18.298 109.303H27.6529C29.476 109.303 30.9509 108.123 30.9509 106.663V101.152C30.9552 101.134 30.9552 101.115 30.9509 101.097L28.7656 96.7416Z" fill="#E0E4EC"/>
    <path d="M72.8325 101.548H68.7214C68.7057 101.548 68.6903 101.551 68.6759 101.557C68.6615 101.564 68.6485 101.573 68.6376 101.584C68.6267 101.595 68.6182 101.609 68.6124 101.624C68.6067 101.639 68.604 101.654 68.6044 101.67V104.219C68.6039 104.245 68.6087 104.27 68.6185 104.293C68.6284 104.316 68.643 104.337 68.6614 104.353L73.8881 109.271C73.8985 109.281 73.9109 109.29 73.9247 109.295C73.9384 109.301 73.9532 109.303 73.968 109.303H79.3515C79.3761 109.302 79.3999 109.294 79.4197 109.279C79.4395 109.265 79.4543 109.244 79.4618 109.22C79.4694 109.196 79.4694 109.17 79.4619 109.147C79.4544 109.123 79.4397 109.102 79.42 109.087L74.3246 104.295H74.413C76.2361 104.295 77.7111 103.112 77.7111 101.656V99.1827C77.7111 97.7262 76.2361 96.5435 74.413 96.5435H62.7158C62.7005 96.5435 62.6853 96.5465 62.6711 96.5526C62.6569 96.5586 62.644 96.5673 62.6331 96.5784C62.6223 96.5895 62.6137 96.6027 62.6078 96.6172C62.6019 96.6317 62.5989 96.6472 62.5989 96.6629V109.189C62.5989 109.221 62.6112 109.251 62.6331 109.273C62.6551 109.296 62.6848 109.308 62.7158 109.308H66.73C66.7456 109.309 66.7611 109.306 66.7756 109.3C66.7901 109.294 66.8034 109.286 66.8145 109.274C66.8257 109.263 66.8346 109.25 66.8406 109.235C66.8467 109.221 66.8498 109.205 66.8498 109.189V100.016C66.8498 99.9833 66.8624 99.9522 66.8849 99.9293C66.9074 99.9063 66.9378 99.8935 66.9696 99.8935H72.8125C72.9706 99.8935 73.1223 99.9576 73.2341 100.072C73.346 100.186 73.4088 100.341 73.4088 100.502V100.93C73.4118 101.09 73.353 101.245 73.2451 101.36C73.1372 101.476 72.9889 101.543 72.8325 101.548Z" fill="#E0E4EC"/>
</svg>
