<?xml version="1.0" encoding="UTF-8"?>
<svg id="_Слой_1" data-name="Слой 1" xmlns="http://www.w3.org/2000/svg" viewBox="0 0 196 136">
    <defs>
        <style>
            .cls-1 {
            fill: #d4d4d4;
            }
        </style>
    </defs>
    <path class="cls-1"
        d="M49.43,54.02l-5.72,22.25,22.25,5.72,5.72-22.25-22.25-5.72Zm9.87,16.7l-4.34-1.11,1.11-4.34,4.34,1.11-1.11,4.34Z" />
    <path class="cls-1"
        d="M32.76,56.51c5.79,0,8.35,3.46,8.35,6.87,0,2.12-.92,3.92-2.61,5.08,2.47,2.81,3.97,6.6,4.43,11h-10.54c-.42-6.11-1.73-8.51-4.47-8.51v8.51h-10.17v-22.95h15.01Zm-4.84,9.15h.28c1.85,0,2.74-.67,2.74-2.15,0-.99-.49-2.28-2.4-2.28h-.62v4.43Z" />
    <path class="cls-1"
        d="M88.4,56.51c7.43,0,8.92,3.76,8.92,6.41,0,1.87-.67,3.6-2.98,4.93,2.9,1.54,3.6,3.3,3.6,5.28,0,3.55-2.49,6.36-7.86,6.36h-16.03v-22.97h14.35Zm-4.18,9.09h.25c2.22,0,3.05-.62,3.05-2.24,0-1.27-.62-2.22-2.68-2.22h-.62v4.47h0Zm0,8.81h.3c2.35,0,3.23-.65,3.23-2.37,0-1.52-.71-2.6-2.84-2.6h-.71v4.96h.02Z" />
    <path class="cls-1" d="M101.04,56.51h10.17v17.2h8.92v5.76h-19.09v-22.95Z" />
    <path class="cls-1"
        d="M123.23,56.51v22.97h22.97v-22.97h-22.97Zm13.72,13.72h-4.48v-4.48h4.48v4.48Z" />
    <path class="cls-1"
        d="M148.94,56.51h11.09l3.39,4.22,3.23-4.22h11.03l-8.69,11.28,9.25,11.69h-11.12l-3.64-4.56-3.51,4.54h-11.03l8.97-11.62-8.97-11.33Z" />
</svg>
