<?xml version="1.0" encoding="UTF-8"?>
<svg id="_Слой_1" data-name="Слой 1" xmlns="http://www.w3.org/2000/svg" viewBox="0 0 196 136">
    <defs>
        <style>
            .cls-1, .cls-2 {
            fill: #d4d4d4;
            }

            .cls-2 {
            fill-rule: evenodd;
            }
        </style>
    </defs>
    <path class="cls-2"
        d="M52.78,72.67c0,.7,.45,1.38,.85,1.71,.49,.41,1.07,.61,1.95,.61h6.99c1.66,0,2.51-.91,2.51-2.52v-4.49c0-1.36-1.09-2.53-2.51-2.53h-9.79v7.21h0Zm9.79-4.38v3.78c0,.27-.13,.4-.37,.4h-6.46c-.31,0-.45-.1-.45-.38v-4.11c2.1,0,4.38,0,6.93,0,.23,0,.35,.1,.35,.31h0Z" />
    <path class="cls-2"
        d="M165.52,71.07c.27,.17,.71,.38,1.11,.39,2.42,0,4.83,0,7.25,0,.57,0,.59,1.02,0,1.02h-8.71l-.4,2.52h9.66c.45,0,.89-.16,1.26-.42,1.56-1.09,1.5-4.22-.01-5.21-.67-.4-1.36-.36-1.8-.36h-6.58c-.59,0-.57-1.01,0-1.03h9.07s.4-2.52,.4-2.52h-9.96c-.48,0-.92,.15-1.3,.4-1.57,1.05-1.54,4.21,0,5.22h0Z" />
    <polygon class="cls-2"
        points="66.19 74.99 68.7 74.99 68.7 70.03 72.01 74.99 74.78 74.99 78.11 70.03 78.11 74.99 80.61 74.99 80.61 65.46 78.11 65.46 73.4 72.48 68.7 65.46 66.19 65.46 66.19 74.99 66.19 74.99" />
    <path class="cls-2"
        d="M105.94,74.99h2.98c.49-.73,.96-1.5,1.45-2.25,.07-.13,.18-.27,.38-.27h5.68s0,2.52,0,2.52h2.5v-9.54h-4.95c-1.9,0-2.65,1.02-3.61,2.53-.21,.34-.41,.66-.57,.93l-3.87,6.08h0Zm6.13-4.96l1.07-1.68c.19-.31,.32-.37,.84-.37h2.45v2.05h-4.35Z" />
    <polygon class="cls-2"
        points="120.37 74.99 122.88 74.99 122.88 69 130.14 74.99 132.65 74.99 132.65 65.46 130.14 65.46 130.14 71.45 122.88 65.46 120.37 65.46 120.37 74.99 120.37 74.99" />
    <path class="cls-2"
        d="M134.02,72.47c0,1.5,.88,2.52,2.51,2.52h9.76s-.29-2.52-.29-2.52h-9.07c-.23,0-.4-.14-.4-.41v-4.08h9.37s.4-2.53,.4-2.53h-12.28v7.02h0Z" />
    <path class="cls-2"
        d="M85.08,72.47c0,1.5,.88,2.52,2.51,2.52h9.76s-.29-2.52-.29-2.52h-9.07c-.23,0-.4-.14-.4-.41v-4.08h9.37s.4-2.53,.4-2.53h-12.28v7.02h0Z" />
    <polygon class="cls-2"
        points="39.36 67.98 44.25 67.98 44.25 74.99 46.76 74.99 46.76 67.98 51.64 67.98 51.64 65.46 39.36 65.46 39.36 67.98 39.36 67.98" />
    <polygon class="cls-2"
        points="152.43 71.45 152.43 74.99 154.94 74.99 154.94 71.45 159.95 65.46 156.72 65.46 153.69 69.09 150.65 65.46 147.42 65.46 152.43 71.45 152.43 71.45" />
    <polygon class="cls-2"
        points="98.49 74.99 105.21 74.99 106.81 72.47 101 72.47 101 65.46 98.49 65.46 98.49 74.99 98.49 74.99" />
    <polygon class="cls-2"
        points="160.13 66.71 160.13 68.32 161.97 68.32 164.42 65.46 161.2 65.46 160.13 66.71 160.13 66.71" />
    <path class="cls-2"
        d="M28.48,57.85c-.04-.16,0-.22,.15-.17,.08-.39,.33-.68,.77-.88,.51-.19,1.08-.14,1.7,.14,.42,.24,.67,.57,.74,.99,.05,.34,.07,.68,.05,1,.04,.08,.03,.18-.05,.3-.07,.07-.15,.13-.26,.17,.01,.2,0,.4-.03,.62-.03,.09,0,.14,.08,.12,.06,0,.1-.02,.11-.07,.05-.16,.14-.23,.26-.23,.2-.03,.34,.02,.42,.15,.02,.08,.05,.12,.11,.13,.31,.08,.64,.16,1,.25,.05,.02,.09,0,.12-.04,.13-.08,.26-.09,.39-.04,.08,.03,.14,.05,.2,.08,.03,.07,.02,.2-.02,.4,0,.13,0,.25-.02,.36,.09,.02,.26,.03,.51,.03,.06,.02,.1,.06,.14,.13,.08,.09,.18,.18,.31,.27,.92,.11,1.33,.19,1.23,.25,.24,.04,.53,.07,.89,.11,0-.04,0-.07,0-.09-.17-.11-.17-.34-.05-.49,.2-.2,.54-.06,.52,.21,0,.18-.08,.29-.22,.33,0,.03,0,.05,0,.06,.15,0,.25,.06,.24,.16,.08,.02,.07,.16-.01,.25-.07,.08-.11,.2-.11,.34,0,.06,0,.11,0,.14,.28,.05,.53,.11,.77,.16,0-.02,.02-.05,.02-.07,.26,.06,.51,.11,.77,.17,.01,.23-.04,.38-.14,.46-.25-.04-.49-.09-.71-.16,0-.04,0-.08,0-.12-.32-.08-.58-.14-.77-.19-.1,.18-.33,.21-.7,.11-.54-.09-.97-.18-1.29-.27-.1-.04-.18-.02-.22,.07-.04,.13-.16,.2-.36,.21-.37,.03-.68,.05-.93,.07-.12,.05-.19,.12-.2,.23,.02,.37,.04,.79,.05,1.26-.21,.07-.43,.13-.67,.2-.13,.03-.22,0-.26-.12-.02-.19-.03-.44-.03-.76-.21,.15-.4,.3-.55,.44-.08,.07-.17,.1-.27,.1-.02,.28-.12,.54-.31,.78,0,.13,0,.28,0,.45,.13,.28,.13,.45,0,.49,0,.31,.01,.59,.02,.83,.61,.51,.5,.87,.79,1.25,.25,.39,.54,.73,.87,1.01,.69,.69,1.11,1.23,1.24,1.63,.17,.47,.22,.91,.15,1.33-.03,.3-.04,.6-.03,.91,.16,.64,.2,1.19,.13,1.65-.04,.07-.1,.13-.19,.18-.26,.24-.35,.6-.26,1.08,.06,.51,.33,.91,.83,1.21,.6,.38,.87,.67,.8,.87-.01,.09,.03,.17,.12,.25,.13,.28,.07,.48-.16,.61-.4,.2-.83,.2-1.29-.01-.3-.13-.54-.32-.71-.59-.04-.05-.06-.12-.06-.21,.01-.06-.05-.15-.21-.25-.19-.17-.3-.22-.32-.13-.02,.07-.11,.04-.26-.08-.33-.23-.48-.4-.45-.52,0-.13,.02-.27,.06-.41,.05-.33,.07-.68,.06-1.07,0-.15-.09-.28-.25-.37-.08-.05-.12-.17-.13-.38,0-.14,.02-.26,.1-.37,.02-.03,0-.07-.03-.11-.14-.13-.23-.32-.26-.56-.03-.17,.05-.44,.24-.81,.05-.06,.03-.12-.04-.18-.35-.16-.55-.34-.6-.56-.02-.31-.02-.51,.02-.62-.57-.21-.99-.55-1.26-1.02-.03-.06-.08-.11-.14-.14-.49-.21-.85-.49-1.08-.83-.11-.11-.25-.21-.42-.3-.14-.06-.28-.04-.4,.07-.12,.23-.36,.47-.7,.71-.18,.15-.36,.3-.53,.44-.18,.13-.36,.23-.55,.31-.14,.06-.26,.17-.36,.32-.24,.25-.52,.42-.85,.5-.05,.38-.21,.62-.5,.71-.41,.16-.76,.36-1.03,.58-.12,.1-.21,.24-.27,.42-.07,.23-.26,.42-.56,.58-.08,.03-.17,.05-.25,.04,0,.34-.01,.62-.01,.86,0,.21-.12,.36-.34,.44-.16,0-.3,.06-.42,.16-.07,.06-.11,.17-.11,.33,0,.18-.09,.3-.29,.37-.25,.14-.66,.21-1.24,.21-.39-.03-.59-.11-.61-.24-.03-.12,0-.27,.1-.43-.02-.2,.07-.36,.26-.5,.09-.05,.24-.14,.43-.26,.31-.29,.58-.57,.81-.85,.11-.13,.14-.28,.09-.47-.05-.23-.01-.44,.11-.63,.17-.16,.33-.31,.48-.45,.07-.09,.11-.19,.1-.3-.06-.33-.02-.55,.12-.68,.29-.18,.59-.34,.89-.49,.08-.04,.12-.11,.11-.21-.01-.17,.04-.33,.16-.48,.24-.32,.56-.71,.94-1.16,.06-.05,.07-.1,.04-.15-.09-.08-.12-.18-.11-.32,.01-.07,.1-.21,.27-.39,.21-.29,.44-.63,.69-1.01,.07-.09,.08-.18,.02-.26-.1-.12-.11-.26,0-.42,.11-.11,.2-.19,.27-.24,.12-.06,.21-.03,.27,.09,.05,.08,.1,.09,.15,.02,.2-.11,.37-.23,.52-.37,.01-.14,.1-.22,.25-.25,.05-.02,.06-.08,.05-.18,0-.31,.03-.63,.08-.97-.18-.06-.28-.28-.31-.65-.04-.31-.06-.65-.07-1.02-.04-.07-.08-.09-.14-.07-.91,.2-1.43,.27-1.54,.19-.09-.04-.17-.04-.25,0-.25,.07-.45,.06-.59-.03-.31-.31-.42-.63-.35-.96,0-.11,.05-.21,.17-.31,.14-.1,.29-.29,.45-.57,.07-.19,.17-.31,.31-.37,.21-.11,.36-.2,.45-.26,.13-.13,.32-.26,.57-.39,.14-.03,.24-.09,.29-.19,.15-.17,.33-.25,.52-.26,.21,0,.4-.08,.56-.21,.24-.22,.61-.3,1.11-.25,0-.18,.07-.31,.24-.38,0-.03,0-.07-.05-.1-.17-.04-.29-.16-.36-.36-.01-.07,0-.17,.02-.28-.16,.03-.23-.01-.18-.12,.05-.05,.11-.09,.19-.12,.05-.03,.03-.06-.05-.09-.14-.08-.18-.16-.13-.24,.04-.14,.11-.21,.22-.2,.09,.09,.15,.09,.19,0h0Zm8.99,3.56c.08,0,.15,.07,.15,.15s-.07,.15-.15,.15-.15-.07-.15-.15,.07-.15,.15-.15h0Zm-6.05-1.52c.1-.14,.15-.3,.11-.46-.61,.2-1.27,.14-1.97-.19-.03,0-.04,.01-.02,.07,.12,.45,.41,.69,.89,.73,.16,.02,.32-.09,.47-.32,.08-.13,.15-.14,.21-.04,.15,.26,.24,.32,.31,.21h0Z" />
    <polygon class="cls-1"
        points="19.44 74.11 19.44 73.31 19.16 73.31 19.16 73.15 19.91 73.15 19.91 73.31 19.63 73.31 19.63 74.11 19.44 74.11 19.44 74.11" />
    <polygon class="cls-1"
        points="20.04 74.11 20.04 73.15 20.33 73.15 20.5 73.8 20.67 73.15 20.96 73.15 20.96 74.11 20.78 74.11 20.78 73.36 20.59 74.11 20.4 74.11 20.22 73.36 20.22 74.11 20.04 74.11 20.04 74.11" />
</svg>
