<svg width="142" height="48" viewBox="0 0 142 48" fill="none" xmlns="http://www.w3.org/2000/svg">
    <path
        d="M5.21 29.8505C5.5 29.6005 5.82 29.5805 6.09 29.8005C6.5 30.1305 6.63 30.6305 6.42 31.1205C6 32.1105 4.71 32.4105 3.75 31.7505C3.08 31.2905 2.77 30.6305 2.76 29.8305C2.76 29.4005 2.76 28.9805 2.76 28.5105C2.91 28.3905 3.14 28.2105 3.35 28.0105C4.64 26.7605 6.53 26.7705 7.87 28.0605C8.2 28.3805 8.5 28.7205 8.82 29.0505C8.9 29.1305 8.99 29.2005 9.07 29.2705C9.1 29.2505 9.13 29.2305 9.16 29.2105C9.13 29.0905 9.11 28.9605 9.05 28.8505C7.63 26.0105 4.17 25.5105 2.23 27.5605C1.32 28.5205 0.99 29.7305 1.33 31.0205C1.69 32.3905 2.56 33.3805 3.98 33.7305C5.25 34.0405 6.31 33.5905 7.12 32.5905C7.61 31.9905 7.68 31.3005 7.54 30.5605C7.53 30.4905 7.51 30.4305 7.54 30.3605C7.94 31.3105 7.96 32.2605 7.38 33.1505C6.53 34.4505 5.27 34.7805 3.82 34.5005C2.1 34.1705 1.08 33.0605 0.51 31.4605C0.4 31.1405 0.19 30.8505 0 30.5005C0.36 30.2405 0.46 29.7305 0.6 29.2505C1.07 27.6305 2.08 26.4705 3.73 26.0705C5.48 25.6505 7.06 26.0505 8.29 27.4505C8.38 27.5505 8.42 27.6805 8.49 27.8005C8.55 27.7605 8.6 27.7305 8.66 27.6905C8.66 27.5805 8.66 27.4705 8.63 27.3705C8.21 25.5305 8.17 23.7005 8.61 21.8505C8.83 20.9005 9.02 19.9205 8.83 18.9305C8.78 18.6605 8.68 18.3905 8.58 18.0805C8.93 18.0805 9.27 18.1205 9.6 18.0805C10.39 17.9805 10.98 17.5505 11.43 16.9005C12.08 15.9505 12.72 14.9805 13.42 14.0605C14.22 13.0205 15.21 12.1705 16.34 11.4905C17.38 10.8605 18.36 10.1005 19.52 9.71054C20.4 9.41054 21.31 9.19054 22.21 8.95054C22.3 8.93054 22.4 8.95054 22.5 8.95054C22.52 8.98054 22.53 9.02054 22.55 9.05054C22.22 9.20054 21.9 9.39054 21.56 9.49054C20.62 9.77054 19.67 10.0205 18.73 10.2905C18.61 10.3205 18.5 10.4005 18.39 10.4605C18.39 10.5005 18.41 10.5305 18.42 10.5705C18.55 10.5505 18.68 10.5405 18.81 10.5105C20.74 10.0305 22.63 9.99054 24.48 10.8405C26.3 11.6705 27.38 13.0005 27.51 15.0605C27.57 15.9905 27.41 16.8505 26.96 17.6505C26.19 19.0105 24.23 19.6705 22.8 19.0205C22.41 18.8405 22.1 18.5205 21.75 18.2605C21.77 18.2305 21.79 18.2005 21.81 18.1705C21.84 18.1705 21.88 18.1705 21.9 18.1905C23.14 19.4105 26.09 18.7705 26.67 16.4605C27.07 14.8805 26.49 13.5305 25.28 12.5005C24.05 11.4505 22.6 11.0305 20.96 11.1405C19.94 11.2105 18.94 11.3405 18.01 11.7405C15.99 12.5905 14.43 13.9705 13.33 15.8705C13.28 15.9505 13.27 16.0405 13.21 16.2005C13.68 16.1205 14.08 16.0505 14.48 16.0005C16.46 15.7605 19.15 16.6205 20.13 19.0705C20.25 19.3805 20.4 19.6805 20.49 20.0005C20.59 20.3705 20.82 20.5905 21.12 20.7805C22.92 21.8805 25.36 21.6505 26.93 20.2405C28.02 19.2605 28.83 18.1305 29.09 16.6505C29.41 14.8005 29.11 13.1005 27.93 11.6105C27.61 11.2105 27.62 11.2005 27.96 10.6605C28.27 11.1105 28.6 11.5005 28.84 11.9405C29.96 13.9505 30.27 16.0805 29.42 18.2305C28.46 20.6505 26.68 22.1505 24 22.4305C23.01 22.5305 22.06 22.3905 21.15 22.0005C21.08 21.9705 21.01 21.9605 20.89 21.9205C20.85 22.1805 20.81 22.4205 20.78 22.6505C20.6 23.8505 20.09 24.8905 19.11 25.6305C17.84 26.5805 16.47 26.5005 15.08 25.9305C14.72 25.7905 14.4 25.5405 14.03 25.3205C13.99 25.4005 13.94 25.4805 13.92 25.5705C13.51 28.1705 13.98 30.5705 15.73 32.5905C17.18 34.2605 18.84 35.7405 20.88 36.6605C22.04 37.1805 23.31 37.4505 24.53 37.8405C25.56 38.1705 26.59 38.4905 27.6 38.8805C28.11 39.0805 28.57 39.4005 29.04 39.6905C29.25 39.8205 29.37 39.8205 29.52 39.6105C30.45 38.2805 31.78 37.7405 33.36 37.7105C34.38 37.6905 35.4 37.6905 36.42 37.6405C37.19 37.6105 37.86 37.3405 38.33 36.6205C38.8 37.1705 39.39 37.5005 40.07 37.6105C40.67 37.7105 41.29 37.7705 41.9 37.7705C54.48 37.8005 67.06 37.8205 79.64 37.8305C80.12 37.8305 80.44 37.9105 80.54 38.4305C80.58 38.6305 80.69 38.8105 80.7 39.0705C80.43 38.9705 80.16 38.8605 79.89 38.7605C78.12 38.0605 76.31 37.8905 74.47 38.4805C73.98 38.6405 73.54 38.9305 73.07 39.1305C72.82 39.2405 72.54 39.3505 72.28 39.3505C63.95 39.3505 55.62 39.3305 47.29 39.3205C43.69 39.3205 40.09 39.3005 36.5 39.3005C35.53 39.3005 34.58 39.4105 33.69 39.8205C32.81 40.2205 32.12 40.8105 31.96 41.8205C31.91 42.1505 31.94 42.5105 32 42.8405C32.43 45.3305 30.77 47.2905 28.54 47.6305C27.06 47.8505 25.75 47.3705 24.76 46.2305C24.5 45.9305 24.39 45.4905 24.26 45.1005C24.09 44.5405 23.97 43.9705 23.82 43.3705C23.87 43.3705 23.99 43.3805 24.1 43.3505C24.4 43.2605 24.73 43.2105 24.98 43.0305C25.59 42.5905 26.22 42.3905 26.96 42.6205C27.81 42.8905 28.2 43.9805 27.67 44.6205C27.37 44.9905 26.89 45.0405 26.5 44.7405C26.94 44.6905 27.23 44.4205 27.23 44.0705C27.23 43.7005 26.92 43.3605 26.51 43.3005C25.81 43.1905 25.16 43.7105 25.11 44.4305C25.04 45.3105 25.51 46.0005 26.37 46.2905C27.19 46.5605 27.93 46.4005 28.58 45.8505C29.3 45.2305 29.62 44.4405 29.43 43.5105C29.07 41.7805 27.95 40.6805 26.39 39.9505C24.75 39.1805 23.01 38.8205 21.21 38.7405C20.23 38.7005 19.35 38.9205 18.68 39.7005C18.65 39.7405 18.61 39.7705 18.57 39.8005C18.55 39.8105 18.53 39.8005 18.49 39.8205C18.47 39.5905 18.45 39.3605 18.42 39.1305C18.3 38.4005 17.91 37.8605 17.29 37.4805C16.19 36.8005 15.07 36.1605 13.99 35.4405C12.29 34.3005 10.9 32.8205 9.62 31.2305C8.8 30.2105 7.91 29.2505 6.79 28.5505C6.11 28.1205 5.39 28.0305 4.65 28.4105C3.74 28.8805 3.44 29.9905 4.03 30.7505C4.17 30.9305 4.39 31.0905 4.61 31.1905C5.08 31.3905 5.57 31.1705 5.73 30.7205C5.87 30.3305 5.71 30.0705 5.19 29.8605L5.21 29.8505ZM14.83 32.3705L14.9 32.3105C14.86 32.2305 14.83 32.1405 14.79 32.0605C14.47 31.4005 14.11 30.7505 13.82 30.0705C13.2 28.6005 13.07 27.0605 13.17 25.4805C13.21 24.7805 13.29 24.0805 13.05 23.3705C12.77 22.5505 12.85 21.7105 13.19 20.8805C13.75 19.5305 15.67 18.7105 16.91 19.5905C17.94 20.3105 18.14 21.8005 17.27 22.6005C16.75 23.0805 15.59 22.9605 15.51 22.0905C16.25 22.6605 16.95 22.4405 17.15 21.5705C17.35 20.6705 16.43 19.7905 15.47 19.9505C14.06 20.1905 13.53 21.6705 13.82 22.7205C14.3 24.4905 16.51 25.5205 18.4 23.9705C19.78 22.8405 19.87 20.6305 19 19.2105C17.61 16.9605 14.71 16.8005 12.83 17.9005C12.68 17.9905 12.54 18.1805 12.48 18.3505C12.3 18.8405 12.13 19.3505 12 19.8605C11.57 21.5405 11.35 23.2205 11.57 24.9605C11.9 27.6205 12.86 29.9905 14.54 32.0805C14.62 32.1805 14.74 32.2605 14.84 32.3505L14.83 32.3705ZM11.3 19.5205C11.3 19.5205 11.2 19.4905 11.16 19.4705C10.52 20.4805 10.03 21.5705 9.79 22.7505C9.22 25.5305 9.66 28.2005 10.86 30.7505C12 33.1705 16.28 36.5405 17.71 36.1605C17.71 36.1405 17.71 36.1105 17.69 36.0905C17.63 36.0405 17.57 36.0005 17.51 35.9605C15.45 34.4705 13.61 32.7805 12.38 30.5005C11.38 28.6305 10.81 26.6605 10.69 24.5605C10.6 22.9805 10.81 21.4205 11.24 19.8905C11.27 19.7705 11.29 19.6405 11.31 19.5105L11.3 19.5205ZM33.01 39.0305C32.81 39.0105 32.73 38.9705 32.66 39.0005C31.76 39.3105 31.03 39.8505 30.57 40.7005C30.39 41.0305 30.53 41.3505 30.91 41.5905C31.23 40.4905 31.93 39.6805 33 39.0405L33.01 39.0305Z"
        fill="#E0E4EC" />
    <path
        d="M100.68 4.37048C101.12 5.26048 101.51 6.05048 101.89 6.85048C103.87 10.9905 106.04 15.0405 108.38 18.9905C109.76 21.3205 111.1 23.6705 112.56 25.9505C113.37 27.2205 114.39 28.3605 115.34 29.5305C115.68 29.9505 115.76 29.9305 116.2 29.6005C117.3 28.7705 118.44 28.0205 119.74 27.5605C121.07 27.0805 122.43 26.9105 123.78 27.4605C125.27 28.0605 126.12 29.2105 126.4 30.7805C126.84 33.2905 124.82 34.9905 122.95 35.4205C121.14 35.8305 119.43 35.4505 117.87 34.5405C116.94 34.0005 116.11 33.2905 115.27 32.6205C114.99 32.4005 114.78 32.3605 114.48 32.5405C112.49 33.7405 110.53 35.0105 108.49 36.1205C106.02 37.4505 103.5 38.6905 100.96 39.8905C99.26 40.6905 97.51 41.4105 95.74 42.0505C93.65 42.8105 91.47 43.2105 89.22 43.1405C87.23 43.0805 85.35 42.6405 83.57 41.7405C82.04 40.9705 80.46 40.3105 78.79 39.9005C77.55 39.6005 76.4 39.7605 75.3 40.3805C74.51 40.8305 73.96 41.4505 73.97 42.4005C73.97 43.3005 74.55 43.8205 75.31 44.1905C74.21 44.4405 72.77 43.5305 72.43 42.7605C72.05 41.9005 72.46 40.4605 73.26 39.7605C74 39.1205 74.91 38.9005 75.84 38.7505C77.34 38.5105 78.75 38.7905 80.11 39.4405C80.73 39.7405 81.35 40.0405 81.98 40.3205C82.13 40.3905 82.32 40.3705 82.49 40.3905C82.42 40.2305 82.39 40.0405 82.27 39.9305C81.54 39.2305 81.1 38.3805 80.94 37.3905C80.89 37.0805 80.89 36.7705 80.86 36.3805C81.6 36.7305 82.1 37.2105 82.54 37.7505C82.91 38.2105 83.22 38.7105 83.57 39.1905C83.67 39.3205 83.81 39.4105 83.93 39.5205C83.99 39.3705 84.1 39.2305 84.11 39.0705C84.15 38.4605 84.32 37.9105 84.69 37.4305C85.32 36.6105 86.43 36.3005 87.37 36.7005C87.81 36.8905 88.16 37.1905 88.3 37.6805C88.27 37.6805 88.24 37.7105 88.23 37.7005C87.71 37.2605 87.13 37.0805 86.49 37.4105C85.8 37.7605 85.39 38.3205 85.34 39.1005C85.27 40.2405 86.02 41.2805 87.25 41.8305C88.18 42.2505 89.17 42.3505 90.17 42.3705C92.99 42.4505 95.66 41.7505 98.24 40.6905C101.95 39.1705 105.48 37.3005 108.85 35.1205C110.44 34.0905 112.01 33.0305 113.44 31.7705C113.86 31.4105 113.88 31.3105 113.56 30.8605C112.43 29.2905 111.27 27.7405 110.18 26.1505C109.53 25.2105 108.97 24.2005 108.39 23.2205C108.21 22.9105 108 22.7705 107.62 22.7705C106.18 22.7905 104.74 22.7705 103.3 22.7705C102.8 22.7705 102.73 22.8305 102.73 23.3105C102.73 26.1705 102.72 29.0205 102.72 31.8805C102.72 33.0405 103.52 33.9505 104.66 34.1205C104.92 34.1605 105.15 34.2005 105.19 34.5905C102.81 34.5905 100.45 34.5905 98.09 34.5705C98.07 34.5005 98.05 34.4405 98.04 34.3705C98.19 34.2905 98.34 34.1405 98.5 34.1305C99.63 34.0805 100.62 33.0305 100.63 31.5505C100.63 22.7405 100.66 13.9205 100.67 5.11048C100.67 4.91048 100.67 4.70048 100.67 4.38048L100.68 4.37048ZM122.39 28.7305C121.97 28.7905 121.53 28.8105 121.12 28.9205C119.68 29.3205 118.41 30.0705 117.16 30.8705C116.88 31.0505 116.86 31.2605 117.1 31.5105C117.39 31.8105 117.69 32.1005 118.02 32.3605C119.5 33.5305 121.15 34.1005 123.05 33.6905C123.77 33.5305 124.43 33.2305 124.98 32.7305C126.07 31.7505 126.01 30.3505 124.82 29.4805C124.1 28.9505 123.27 28.7605 122.38 28.7305H122.39ZM102.75 17.1805C102.75 18.1305 102.75 19.0705 102.74 20.0205C102.74 20.3805 102.88 20.5605 103.23 20.5605C104.23 20.5605 105.22 20.5805 106.22 20.5605C106.65 20.5605 106.77 20.3205 106.56 19.9505C105.45 18.0305 104.34 16.1205 103.23 14.2105C103.17 14.1005 103.02 14.0405 102.91 13.9605C102.86 14.0905 102.77 14.2105 102.77 14.3405C102.76 15.2905 102.77 16.2305 102.76 17.1805H102.75Z"
        fill="#E0E4EC" />
    <path
        d="M45.01 4.53051C45.01 4.68051 45.03 4.83051 45.03 4.98051C45.03 9.76051 45.01 14.5305 45.01 19.3105C45.01 19.9805 45.11 20.0505 45.78 19.9205C49.31 19.1905 52.45 17.6405 55.3 15.4605C56.69 14.4005 57.64 13.0105 58.05 11.2905C58.28 10.3405 58.1 9.61051 57.47 8.76051C58.25 9.21051 58.56 9.85051 58.64 10.6305C58.81 12.4005 58.09 13.8705 57.02 15.2005C55.66 16.9005 53.93 18.1505 52.1 19.2905C50.03 20.5805 47.83 21.5805 45.44 22.1505C45.13 22.2205 44.99 22.4005 44.99 22.7305C44.99 25.7305 44.98 28.7405 44.99 31.7405C44.99 32.9305 45.81 33.8305 47 34.0105C47.23 34.0505 47.47 34.0705 47.53 34.3605C47.12 34.5405 40.7 34.5105 40.31 34.2805C40.52 34.1705 40.67 34.0305 40.83 34.0205C42.09 33.9505 42.91 32.7805 42.91 31.6105C42.9 28.8205 42.91 26.0205 42.91 23.2305C42.91 22.6905 42.85 22.6205 42.31 22.6605C40.78 22.7605 39.24 22.8705 37.71 22.9605C37.36 22.9805 37.19 23.1905 37.04 23.4605C35.86 25.4805 34.57 27.4305 33.13 29.2805C31.72 31.0905 30.19 32.7905 28.22 34.0305C26.87 34.8805 25.41 35.3805 23.79 35.3405C21.83 35.2905 20.32 33.7805 20.27 31.8305C20.21 29.7905 21.04 28.0605 22.25 26.5105C24.49 23.6405 27.55 22.1105 31.06 21.3705C32.59 21.0505 34.12 20.7505 35.7 20.7805C36.02 20.7805 36.23 20.6305 36.38 20.3605C38.07 17.3905 39.8 14.4405 41.44 11.4305C42.6 9.29051 43.63 7.08051 44.72 4.90051C44.78 4.77051 44.85 4.65051 44.92 4.52051C44.95 4.52051 44.98 4.53051 45.01 4.54051V4.53051ZM33.62 23.0005C33.62 23.0005 33.62 22.9705 33.62 22.9605C32.46 23.0705 31.29 23.1405 30.13 23.3105C28.07 23.6105 26.08 24.1705 24.3 25.2805C22.44 26.4405 21.1 27.9705 20.86 30.2505C20.75 31.3205 20.87 32.2905 21.91 32.9205C23.02 33.5905 24.15 33.5805 25.31 33.1105C26.69 32.5405 27.91 31.7005 29 30.6905C30.28 29.5005 31.35 28.1305 32.36 26.7305C33.09 25.7205 33.77 24.6805 34.46 23.6505C34.55 23.5205 34.64 23.2705 34.58 23.2005C34.49 23.0905 34.27 23.0605 34.1 23.0305C33.94 23.0005 33.78 23.0305 33.62 23.0305V23.0005ZM42.94 17.0805C42.94 16.1505 42.94 15.2105 42.94 14.2805C42.94 14.1405 42.85 14.0005 42.8 13.8605C42.67 13.9505 42.49 14.0105 42.42 14.1405C41.27 16.0905 40.14 18.0505 39.01 20.0005C38.74 20.4705 38.84 20.6605 39.39 20.6305C40.4 20.5805 41.4 20.4905 42.4 20.4205C42.84 20.3905 42.93 20.2905 42.93 19.8505C42.93 18.9305 42.93 18.0105 42.93 17.0805H42.94Z"
        fill="#E0E4EC" />
    <path
        d="M124.95 36.2005C125.15 36.0805 125.34 35.9505 125.55 35.8405C127.99 34.5705 129.76 32.7005 130.66 30.0805C130.91 29.3605 131.06 28.6105 130.88 27.8305C130.81 27.5305 130.71 27.3505 130.33 27.4405C129.95 27.5305 129.55 27.5305 129.16 27.5505C128.2 27.5805 127.72 28.1205 127.84 29.0705C127.47 29.0205 127.13 28.6205 127.06 28.1305C127.03 27.9205 127.03 27.6805 127.11 27.4805C127.22 27.1705 127.11 27.0305 126.84 26.9005C125.61 26.3105 124.56 25.5005 123.85 24.3405C122.66 22.3605 122.45 20.2605 123.45 18.1405C124.24 16.4605 125.47 15.2405 127.34 14.7905C128.24 14.5705 129.13 14.5505 130.05 14.7105C130.37 14.7705 130.71 14.6805 131.04 14.6505C131.04 14.6005 131.06 14.5505 131.06 14.5005C130.94 14.4105 130.83 14.3005 130.7 14.2305C128.94 13.3005 127.08 12.7405 125.08 12.7105C123.99 12.7005 122.93 12.9505 121.9 13.3205C120.16 13.9605 118.7 14.9505 117.8 16.6305C117.34 17.4905 116.99 18.3805 117.31 19.3805C117.48 19.9105 117.81 20.3105 118.34 20.5105C118.85 20.6905 119.55 20.4305 119.87 19.9605C120.15 19.5405 120.11 18.8905 119.75 18.5205C119.58 18.3405 119.34 18.2305 119.14 18.1005C120.05 17.8005 121.19 18.5105 121.45 19.5505C121.73 20.6705 121.28 21.6805 120.22 22.2905C119.26 22.8505 118.09 22.7505 117.33 21.9605C116.93 21.5405 116.65 21.0105 116.31 20.5305C116.11 20.2505 115.9 19.9705 115.62 19.5905C115.89 18.7205 116.13 17.6805 116.52 16.7005C117.09 15.2605 118.19 14.2605 119.49 13.4605C121.37 12.3005 123.45 11.9005 125.61 12.0105C127.82 12.1305 129.89 12.8005 131.74 14.0405C131.99 14.2105 132.16 14.1905 132.32 13.9505C132.44 13.7705 132.57 13.5905 132.72 13.3705C132.96 13.6705 133.07 13.9905 133.07 14.3505C133.07 14.6705 133.18 14.8305 133.5 14.9205C135.28 15.4405 136.57 16.5905 137.49 18.1705C137.58 18.3305 137.68 18.4905 137.79 18.6405C138.15 19.1705 138.58 19.6205 139.34 19.7005C138.49 20.5005 138.43 21.5005 138.46 22.5005C138.52 24.1705 138.27 25.7905 137.73 27.3605C137.17 28.9805 136.26 30.3905 135.12 31.6605C134.85 31.9605 134.57 32.2605 134.3 32.5605C134.23 32.6305 134.18 32.7305 134.13 32.8105C134.15 32.8405 134.17 32.8605 134.2 32.8905C134.32 32.8305 134.45 32.7905 134.57 32.7205C136.18 31.8305 137.82 31.8105 139.38 32.7505C140.56 33.4605 141.3 34.5505 141.4 35.9705C141.44 36.5105 141.35 37.0705 141.34 37.6205C141.34 37.9705 141.39 38.3205 141.41 38.6105C140.92 39.0505 140.45 39.5105 139.93 39.9205C138.35 41.1905 136.11 41.2005 134.58 39.9205C133.18 38.7505 133.2 36.3305 134.74 35.3405C134.05 36.0405 133.88 36.8905 134.05 37.8105C134.28 39.0505 135.13 39.8405 136.52 40.0605C138.8 40.4105 141.37 38.2705 140.69 35.6405C140.09 33.3105 137.16 31.5205 134.44 33.0905C133.99 33.3505 133.58 33.6605 133.14 33.9405C133.06 33.9905 132.97 34.0305 132.89 34.0805L132.99 34.2305C133.12 34.1805 133.26 34.1405 133.38 34.0705C134.2 33.6105 135.04 33.2105 135.97 33.0405C137.34 32.8005 138.7 33.5205 139.29 34.7805C139.44 35.1105 139.61 35.4305 139.77 35.7605C139.63 36.0705 139.45 36.4105 139.31 36.7705C138.79 38.0805 137.51 38.6405 136.24 38.1005C135.48 37.7805 135.11 37.0105 135.34 36.2205C135.46 35.8205 135.85 35.5205 136.27 35.5005C136.64 35.4905 136.9 35.6305 137.04 35.9905C137 36.0105 136.98 36.0305 136.96 36.0205C136.53 35.9105 136.22 36.0205 136.1 36.3505C135.98 36.6905 136.19 37.1005 136.58 37.2705C137.16 37.5305 137.95 37.1905 138.24 36.5405C138.72 35.4905 137.95 34.2305 136.75 34.1005C135.76 33.9905 134.85 34.2905 133.96 34.6705C132.98 35.0905 132.02 35.5805 131.05 36.0305C129.07 36.9505 126.98 37.5805 124.87 38.1605C124.34 38.3105 123.81 38.5005 123.31 38.7205C122.62 39.0305 122.07 39.5005 121.73 40.2105C121.58 40.5305 121.33 40.8005 121.1 41.1405C121.04 41.0305 121.01 40.9805 120.99 40.9205C120.76 40.2805 120.3 39.8605 119.66 39.7005C119.1 39.5605 118.53 39.4405 117.96 39.4305C113.83 39.4005 109.7 39.4005 105.58 39.4005C104.89 39.4005 104.2 39.4005 103.5 39.3405C103.77 39.2105 104.05 39.1105 104.29 38.9605C105.71 38.0405 107.24 37.7705 108.92 37.8605C110.63 37.9505 112.35 37.9105 114.05 37.8205C116.69 37.6705 119.34 37.6805 121.94 37.1005C122.82 36.9005 123.68 36.5705 124.55 36.3105C124.69 36.2705 124.83 36.2305 124.97 36.1905C124.97 36.2505 124.96 36.3105 124.95 36.3705C125.03 36.3505 125.12 36.3405 125.2 36.3205C126.82 35.9205 128.31 35.2405 129.73 34.3705C130.44 33.9305 131.18 33.5105 131.68 32.8205C131.91 32.5105 131.98 32.0605 132.25 31.8105C132.52 31.5605 132.99 31.5405 133.31 31.3205C134.46 30.5405 135.31 29.4805 135.97 28.2605C137.56 25.3105 137.81 22.2605 136.46 19.1705C135.52 17.0205 133.38 15.5705 130.87 15.9505C129.04 16.2305 127.79 17.1805 127.27 19.0005C127.24 19.0905 127.23 19.2005 127.17 19.2705C126.78 19.8405 125.58 20.2205 124.85 20.0005C125.63 19.4305 126.15 18.6805 126.52 17.8205C126.81 17.1505 127.28 16.6205 127.8 16.1205C127.88 16.0505 127.94 15.9505 128.01 15.8705C127.99 15.8305 127.97 15.8005 127.95 15.7605C127.67 15.8205 127.38 15.8605 127.11 15.9605C125.06 16.6705 123.91 18.6105 123.85 20.6605C123.79 22.5405 124.61 24.0605 126.02 25.2705C126.75 25.8905 127.56 26.3605 128.52 26.5605C129.91 26.8505 131.08 26.4105 132.16 25.5605C132.44 25.3405 132.79 25.1605 133.13 25.0505C133.61 24.8905 133.99 25.1105 134.22 25.6005C133.59 25.3405 133.17 25.6505 132.77 26.0505C132.47 26.3505 132.15 26.6505 131.86 26.9605C131.79 27.0305 131.74 27.1505 131.73 27.2505C131.7 27.7305 131.72 28.2105 131.67 28.6805C131.6 29.5005 131.4 30.2805 130.98 31.0005C129.95 32.7805 128.54 34.1805 126.8 35.2405C126.21 35.6005 125.58 35.8805 124.97 36.2005H124.95Z"
        fill="#E0E4EC" />
    <path
        d="M85.7999 6.71048C87.3199 4.64048 88.8399 2.57048 90.3699 0.490479C90.3899 0.490479 90.4199 0.500479 90.4399 0.510479V0.860478C90.4199 11.9105 90.4 22.9605 90.38 34.0105C90.38 34.5105 90.36 34.5305 89.86 34.5305C88.41 34.5305 86.95 34.5305 85.5 34.5305C85.36 34.5305 85.23 34.5005 85.08 34.4205C85.48 34.1505 85.8199 33.7405 86.3699 33.8805C87.0199 34.0405 87.48 33.7505 87.83 33.2705C88.2 32.7505 88.42 32.1605 88.43 31.5105C88.45 29.8705 88.45 28.2405 88.46 26.6005C88.47 19.8905 88.48 13.1905 88.49 6.48048C88.49 6.28048 88.49 6.08048 88.45 5.89048C88.33 5.35048 87.8199 5.15048 87.3699 5.48048C87.1799 5.62048 86.96 5.81048 86.89 6.02048C86.71 6.56048 86.24 6.58048 85.86 6.77048C85.84 6.75048 85.82 6.73048 85.79 6.70048L85.7999 6.71048Z"
        fill="#E0E4EC" />
    <path
        d="M47.34 32.6705C48.65 31.7005 49.81 30.5905 50.72 29.2305C50.76 29.2505 50.79 29.2605 50.83 29.2805C50.82 29.3805 50.81 29.4705 50.79 29.5705C50.73 29.8905 50.63 30.2205 50.6 30.5405C50.54 31.0905 50.7 31.5805 51.09 32.0005C52.06 33.0305 54.31 33.5505 55.63 33.0205C56.82 32.5505 57.32 31.3605 56.81 30.1805C56.44 29.3105 55.81 28.6805 54.95 28.3205C54.3 28.0505 53.64 27.8305 52.97 27.6205C52.03 27.3305 51.14 26.9405 50.46 26.2005C49.26 24.8905 49.49 22.8105 50.97 21.7505C52.37 20.7605 53.92 20.5105 55.58 20.9005C56.18 21.0405 56.69 21.3605 57.14 21.7805C57.23 21.8605 57.31 21.9605 57.41 22.0305C58.36 22.7305 58.84 22.7005 59.65 22.1305C59.76 22.0505 59.89 21.9905 60.09 21.8705C59.81 22.7605 57.22 25.2605 56.49 25.3205C56.51 25.1905 56.52 25.0605 56.54 24.9405C56.7 24.0805 56.41 23.3905 55.68 22.9105C54.39 22.0805 52.79 22.4105 52.07 23.6605C51.61 24.4705 51.78 25.3605 52.55 26.0905C53.28 26.7905 54.16 27.2005 55.13 27.4705C55.63 27.6105 56.14 27.7305 56.6 27.9505C57.95 28.5805 58.7 29.6605 58.82 31.1505C58.92 32.4605 58.11 33.7705 56.79 34.2905C54.95 35.0105 53.08 35.0505 51.28 34.1305C50.71 33.8405 50.22 33.3705 49.74 32.9405C49.13 32.3705 48.58 32.2605 47.83 32.6305C47.7 32.7005 47.55 32.7305 47.41 32.7805C47.39 32.7405 47.36 32.7105 47.34 32.6705Z"
        fill="#E0E4EC" />
    <path
        d="M79.79 14.3005C81.31 12.2505 82.84 10.2105 84.42 8.09045C84.42 8.30045 84.44 8.42045 84.44 8.54045C84.43 17.0205 84.41 25.5005 84.4 33.9705C84.4 34.3038 84.23 34.4705 83.89 34.4705C82.39 34.4705 80.88 34.4705 79.38 34.4705C79.26 34.4705 79.14 34.4705 79.02 34.4705C79.52 34.1305 79.91 33.6405 80.64 33.8805C81.1 34.0305 81.54 33.7205 81.77 33.3405C82.07 32.8405 82.28 32.2905 82.44 31.7305C82.55 31.3505 82.52 30.9205 82.52 30.5205C82.53 25.0805 82.54 19.6405 82.55 14.2005C82.55 13.9805 82.54 13.7605 82.49 13.5405C82.38 12.9705 81.89 12.7705 81.41 13.0905C81.24 13.2005 81.05 13.3505 80.98 13.5305C80.78 14.0705 80.34 14.2305 79.79 14.3105V14.3005Z"
        fill="#E0E4EC" />
    <path
        d="M79.09 30.4105C79.21 31.5305 78.94 32.5205 78.12 33.3205C76.93 34.4805 74.88 34.7605 73.22 33.9805C71.71 33.2705 70.84 32.0205 70.41 30.4605C69.86 28.5105 69.71 26.5405 70.5 24.6005C71.17 22.9605 72.25 21.7305 74.08 21.4205C76.98 20.9305 78.79 22.4705 79.1 25.1105C79.19 25.8505 79.17 25.8505 78.49 26.1405C76.46 27.0005 74.44 27.8705 72.41 28.7305C71.89 28.9505 71.83 29.0705 71.92 29.6305C72.1 30.7305 72.64 31.6005 73.44 32.3805C74.82 33.7105 78.47 33.2605 79.01 30.6805C79.03 30.5905 79.07 30.5005 79.1 30.4105H79.09ZM77.23 24.6805C77.15 23.6905 76.61 22.9905 75.79 22.5005C75.36 22.2405 74.88 22.1505 74.37 22.2305C73.56 22.3605 73.02 22.8605 72.59 23.4905C71.89 24.5105 71.71 25.6905 71.63 26.8905C71.6 27.3005 71.84 27.4205 72.25 27.2505C73.78 26.6005 75.31 25.9505 76.84 25.3005C77.12 25.1805 77.29 25.0105 77.24 24.6805H77.23Z"
        fill="#E0E4EC" />
    <path
        d="M64.3801 18.6605C64.4101 18.8105 64.48 18.9505 64.48 19.1005C64.48 20.2105 64.48 21.3205 64.48 22.4205C64.48 23.0705 64.57 23.1605 65.23 23.1605C65.64 23.1605 66.0401 23.1505 66.4501 23.1705C66.5801 23.1705 66.7701 23.2305 66.8301 23.3305C67.0901 23.7805 67.3201 24.2605 67.5801 24.7805C67.3201 24.7805 67.0901 24.7805 66.8601 24.7805C66.2601 24.7805 65.65 24.7805 65.05 24.7805C64.64 24.7805 64.5301 24.9005 64.4901 25.3005C64.4801 25.4205 64.4901 25.5505 64.4901 25.6705C64.4901 27.0705 64.4801 28.4805 64.4901 29.8805C64.4901 30.4305 64.5101 30.9905 64.5401 31.5405C64.5801 32.3605 65.3901 33.2005 66.2401 33.2905C66.5901 33.3305 66.9601 33.3305 67.3101 33.2705C68.4301 33.0905 68.9301 32.4905 69.0701 31.2805C69.3601 32.6205 68.83 34.0105 67.66 34.4205C66.2 34.9305 64.8501 34.6905 63.6101 33.7705C63.2101 33.4705 63.0101 33.0505 62.9201 32.5805C62.8301 32.1105 62.7501 31.6305 62.7401 31.1605C62.7201 29.2905 62.7401 27.4205 62.7401 25.5505C62.7401 24.8805 62.6401 24.7805 61.9701 24.7805C61.4501 24.7805 60.94 24.7805 60.3 24.7805C62.1 22.9705 63.59 21.0705 64.2701 18.6505C64.3201 18.6505 64.3701 18.6505 64.4201 18.6605H64.3801Z"
        fill="#E0E4EC" />
    <path
        d="M94.33 19.2305C95.22 20.3005 96.12 21.3705 97.05 22.4905C96.25 22.6405 96.09 23.1505 96.09 23.8305C96.09 27.2305 96.09 30.6205 96.08 34.0205C96.08 34.5405 96.06 34.5605 95.54 34.5605C94.16 34.5605 92.78 34.5605 91.4 34.5605C91.23 34.5605 91.06 34.5305 90.88 34.5205C91.14 34.0705 91.65 33.8105 92.09 33.9105C92.77 34.0705 93.28 33.7905 93.66 33.2705C94.1 32.6905 94.21 31.9905 94.21 31.2805C94.21 27.4805 94.22 23.6805 94.23 19.8705C94.23 19.6805 94.23 19.4805 94.23 19.2905C94.26 19.2805 94.3 19.2605 94.33 19.2505V19.2305Z"
        fill="#E0E4EC" />
    <path
        d="M102.63 37.9505C101.75 38.4105 100.86 38.8705 99.97 39.3105C99.82 39.3805 99.64 39.3905 99.47 39.3905C95.12 39.3905 90.78 39.3805 86.43 39.3705C86.01 39.3705 85.92 39.2705 86.01 38.8605C86.13 38.3505 86.4 37.9405 86.91 37.7805C87.39 37.6205 87.79 37.7805 88.14 38.1505C88.39 38.4205 88.48 38.3805 88.65 38.0705C88.7 37.9805 88.83 37.9205 88.94 37.8605C88.99 37.8305 89.06 37.8605 89.12 37.8605C93.53 37.8605 97.94 37.8805 102.35 37.8805C102.44 37.8805 102.52 37.8805 102.61 37.8805C102.61 37.9105 102.63 37.9305 102.64 37.9605L102.63 37.9505Z"
        fill="#E0E4EC" />
    <path
        d="M95.3601 12.9905C95.4801 13.3805 95.58 13.7305 95.69 14.0805C95.82 14.4905 95.96 14.5705 96.37 14.4805C96.72 14.4105 97.06 14.3205 97.51 14.2205C97.21 14.5505 96.9801 14.8105 96.7501 15.0705C96.4201 15.4405 96.4101 15.5305 96.7501 15.9105C96.8601 16.0405 96.9901 16.1605 97.1101 16.2805C97.2201 16.3905 97.33 16.5105 97.5201 16.7105C97.1301 16.6305 96.84 16.5705 96.55 16.5005C95.93 16.3605 95.8601 16.3905 95.6501 17.0205C95.5601 17.3105 95.46 17.6005 95.34 17.9505C95.21 17.5305 95.1 17.1705 94.98 16.8105C94.88 16.4805 94.6801 16.3605 94.3301 16.4505C93.9901 16.5405 93.64 16.6105 93.19 16.7105C93.51 16.3505 93.75 16.0705 94.01 15.8005C94.24 15.5605 94.22 15.3505 94.01 15.1305C93.75 14.8605 93.5001 14.5705 93.1801 14.2105C93.6401 14.3105 94.0001 14.3805 94.3501 14.4805C94.7001 14.5805 94.8901 14.4405 94.9901 14.1105C95.1001 13.7505 95.2201 13.3905 95.3501 12.9805L95.3601 12.9905Z"
        fill="#E0E4EC" />
    <path
        d="M21.89 14.6105C22.23 14.2405 22.6 13.8405 23.17 13.6905C23.94 13.4905 24.56 13.7005 25.05 14.2805C25.57 14.9005 25.73 15.6205 25.41 16.3805C25.12 17.0605 24.17 17.3905 23.48 17.0905C23.08 16.9105 22.82 16.4205 22.89 15.9905C22.97 15.5505 23.32 15.3305 23.87 15.4005C23.73 15.4505 23.63 15.4805 23.55 15.5305C23.29 15.6905 23.21 15.9505 23.28 16.2305C23.35 16.5005 23.53 16.6705 23.83 16.6905C24.53 16.7305 25 16.2105 24.91 15.4805C24.79 14.4905 23.92 13.9105 22.92 14.1805C22.55 14.2805 22.2 14.4705 21.88 14.6005L21.89 14.6105Z"
        fill="#E0E4EC" />
    <path
        d="M17.54 15.5904C18.29 15.3304 18.98 15.0204 19.54 14.4504C20.11 13.8704 20.47 13.2204 20.31 12.3204C20.79 12.4204 21.11 12.6704 21.3 13.0804C21.53 13.5804 21.4 14.2204 21.02 14.6204C20.38 15.2904 19.54 15.4804 18.68 15.5804C18.31 15.6204 17.93 15.5804 17.55 15.5804L17.54 15.5904Z"
        fill="#E0E4EC" />
    <path
        d="M22.35 17.3705C21.39 16.5105 20.16 16.3705 19.15 16.0905C19.68 15.9405 20.33 15.7504 20.99 15.5704C21.1 15.5404 21.24 15.5304 21.34 15.5704C22.09 15.8404 22.48 16.5304 22.35 17.3804V17.3705Z"
        fill="#E0E4EC" />
    <path
        d="M27.17 11.2305C27.45 11.4905 27.51 11.9105 27.41 12.3405C26.68 11.6805 25.96 11.0205 25.29 10.4105C25.93 10.4905 26.65 10.4105 27.36 10.1705C27.58 10.0905 27.71 10.2305 27.65 10.4005C27.55 10.6605 27.37 10.8905 27.17 11.2205V11.2305Z"
        fill="#E0E4EC" />
    <path
        d="M35.17 36.7304C36.14 35.9804 36.41 35.0704 35.93 33.9804C36.58 33.9404 37.08 34.6304 36.9 35.3004C36.72 35.9704 35.96 36.6204 35.17 36.7304Z"
        fill="#E0E4EC" />
    <path
        d="M23.58 9.73045C24.71 9.46045 25.72 9.20045 26.53 8.46045C26.84 9.10045 26.53 9.68045 25.87 9.77045C25.14 9.86045 24.41 9.91045 23.58 9.73045Z"
        fill="#E0E4EC" />
    <path
        d="M24.72 7.13048C25.05 7.56048 25.1 7.97048 25.04 8.40048C25.03 8.49048 24.89 8.60048 24.78 8.63048C24.15 8.86048 23.52 9.07048 22.85 9.23048C23.65 8.70048 24.29 8.05048 24.71 7.12048L24.72 7.13048Z"
        fill="#E0E4EC" />
    <path
        d="M19.4399 16.8604C20.1399 16.8304 20.7599 17.2104 20.9799 17.8304C21.1499 18.3004 21.0799 18.6804 20.8299 18.8804C20.3699 18.2104 19.8999 17.5304 19.4399 16.8604Z"
        fill="#E0E4EC" />
    <path
        d="M35.78 37.1105C36.72 36.7805 37.22 36.1405 37.49 35.3005C38.02 35.7505 38 36.3005 37.48 36.6605C37 36.9905 36.47 37.1505 35.78 37.1105Z"
        fill="#E0E4EC" />
    <path
        d="M83.62 38.3305C83.49 38.1405 83.41 38.0205 83.3 37.8705H83.7801C83.7301 38.0205 83.69 38.1405 83.62 38.3305Z"
        fill="#E0E4EC" />
    <path
        d="M126.97 19.9604C127.04 21.6804 127.86 22.9205 129.21 23.8505C130.44 24.6905 131.79 24.3705 132.74 23.4605C133.01 23.2005 132.98 23.0404 132.63 22.9004C132.5 22.8504 132.36 22.8105 132.21 22.7605C132.65 22.2305 133.45 22.1905 133.89 22.6705C134.47 23.3105 134.71 24.0905 134.84 24.9805C134.6 24.7605 134.42 24.5805 134.23 24.4205C133.99 24.2305 133.73 24.2105 133.44 24.3705C132.92 24.6505 132.39 24.9104 131.86 25.1504C131.68 25.2304 131.48 25.2804 131.29 25.2904C130.93 25.3104 130.65 25.4404 130.39 25.7204C130.08 26.0504 130.03 25.9905 129.76 25.6205C129.56 25.3405 129.28 25.0904 128.99 24.9004C128.2 24.3604 127.45 23.7804 126.94 22.9704C126.67 22.5404 126.45 22.0605 126.28 21.5805C126.06 20.9405 126.28 20.4704 126.96 19.9704L126.97 19.9604Z"
        fill="#E0E4EC" />
    <path
        d="M134.14 20.1005C133.5 20.2205 133.45 20.2005 133.14 19.7305C132.59 18.9005 131.4 18.6405 130.64 19.2105C130.21 19.5305 130.02 19.9605 130.11 20.5005C130.2 21.0505 130.52 21.4305 131.07 21.5405C131.31 21.5905 131.57 21.5205 131.81 21.5105C131.7 22.1105 130.9 22.3805 130.31 21.9605C129.58 21.4305 129.23 20.6805 129.39 19.8105C129.54 19.0005 130.17 18.5405 130.93 18.3205C132.22 17.9405 133.68 18.7605 134.14 20.1105V20.1005Z"
        fill="#E0E4EC" />
    <path
        d="M135.31 18.5505C136.97 20.6605 137.07 24.0605 136.01 26.4105C136.06 25.9505 136.11 25.5105 136.16 25.0805C136.34 23.5805 135.93 22.2105 135.27 20.8905C134.89 20.1305 134.89 19.3505 135.32 18.5505H135.31Z"
        fill="#E0E4EC" />
    <path
        d="M135.49 25.5205C135.43 23.4305 134.51 21.9005 132.58 21.0305C133.27 20.3705 134.36 20.5505 134.84 21.2905C135.63 22.5205 135.64 23.8705 135.57 25.2405C135.57 25.3305 135.52 25.4205 135.49 25.5105V25.5205Z"
        fill="#E0E4EC" />
</svg>
