<?xml version="1.0" encoding="UTF-8"?>
<svg id="_Слой_1" data-name="Слой 1" xmlns="http://www.w3.org/2000/svg" viewBox="0 0 196 136">
    <defs>
        <style>
            .cls-1 {
            fill: #d4d4d4;
            fill-rule: evenodd;
            }
        </style>
    </defs>
    <path class="cls-1"
        d="M63.36,99.43l.06,9.4c1.02,1.85,5.63,.87,6.55-1.38,1.07-2.62,1.15-8.55-6.61-8.01h0Zm-3.55-.88v.35s1.36-.21,1.59,.67c.02,.58-.03,9.74-.03,9.74,0,0-.07,.83-1.29,.8,.01,.13,0,.17,0,.17,0,0,3-.07,4.34,.17,9.72,1.75,10.68-11.74,2.71-11.82l-7.31-.07h0Z" />
    <path class="cls-1"
        d="M82.91,99.09c2.58-.17,4.78,2.45,4.78,5.1,.06,2.74-.65,5.36-3.36,5.61-2.26,0-4.56-1.08-5.09-5.32,0-2.66,.64-5.18,3.66-5.39h0Zm.53-.78c3.32,0,6.5,2,6.5,5.9s-3.09,6.32-6.41,6.32-6.45-2.13-6.45-6.03,3.04-6.19,6.35-6.19h0Z" />
    <path class="cls-1"
        d="M94.22,98.34l-.36,1.63s-.13,.32,.02,.85c.14-.37,.16-.95,.98-1.27,.83-.03,3.28-.03,3.28-.03l-.05,9.84s-.02,.87-1.24,.75c-.01,.14-.01,.18-.01,.18l5.01-.02v-.18s-1.57,.23-1.65-.72c-.01-.5-.09-9.85-.09-9.85l2.89,.07s.99,.02,.98,1.24c.14,.08,.22-.03,.23-.17,.01-.14,.06-1.65,.06-1.65,0,0,.24-.52-.07-.57-.3,.1-.65,.16-.87,.16s-8.37-.01-8.37-.01c0,0-.37-.21-.75-.24h0Z" />
    <path class="cls-1"
        d="M113.2,101.51l-2.08,5.36,4-.05-1.92-5.31h0Zm.26-3.21l-4.48,11.02s-.46,.92-1.71,.84c0,.1,0,.15,0,.15h4.1s-.01-.21-.01-.21c0,0-1.32,.1-1.15-.55,.16-.55,.64-1.88,.64-1.88h4.59s.9,2.15,.9,2.15c0,0,.1,.25-.32,.28,0,.16,0,.18,0,.18l4.09,.06v-.27s-.99,.28-1.54-.47c-.4-.68-.98-1.93-.98-1.93,0,0,.62,.06,.98-.16,.37-.15,1.03-.35,1.84-.35,.1-.13-.02-.27-.32-.29-.31-.02-2.83-.02-2.83-.02l-3.44-8.5s-.18-.55-.34-.04h0Z" />
    <path class="cls-1"
        d="M129,101.58s-.37-2.03-.28-2.52c3.13-1.84,10.03-.28,5.57,6.1-.46,.58-2.26,2.52-4.02,3.81,1.28,.02,3.56-.07,4.09-.09,1.4-.06,1.35-1.73,1.83-1.74l-.42,2.45s-.01,.73-.85,.66c-.84-.01-6.69,.02-6.69,.02,0,0-.55,.01-.05-.43,.84-.79,5.55-4.42,5.4-8.21-.12-3.23-3.94-3.7-4.58-.06h0Z" />
    <path class="cls-1"
        d="M76.52,67.21c.68,.43,1.12,.85,1.78,1.38l5.34,4.95c1.11,1.06,3.97,3.94,5.06,5.22,.75,.87,1.07,.96,1.62,1.82-.2,.07-2.7,.65-4.15,1.15-3.02,1.04-5.77,2.7-8.4,1.81-.39-.13-2.18-1.84-3.01-2.42-.49-.34-.95-.67-1.51-1.06-1.6-1.12-2.06-.35,.07-5.3,.56-1.3,1.03-2.46,1.56-3.73,.46-1.11,1.1-2.9,1.64-3.81h0Zm38.37-29.92c1.1,.38,3.76,1.9,4.41,2.72,.55,.69,.39,.75,.19,1.75l-1.08,8.48c-1.5,.05-1.07-.12-2-.75-1.56-1.05-6.91-5-8.63-6.39l-3.3-2.66c.24-.23-.08-.11,.47-.25l4.89-1.1c2.55-.64,2.94-.81,5.05-1.8h0Zm-43.86,1.71c1.12-.63,1.72-.15,3.61-1.52,.51-.37,1.67-.33,2.38-.23,.73,.1,2.42,1.51,3.2,1.98,.45,.28,2.46,1.81,2.79,2.35l1,1.61c1.37,.07,1.13-.01,2.86,1.25l16.57,10.93c3.56,2.48,7.72,5,11.3,7.5l10.21,6.68c-.29,.63-.64,2.82-.83,3.69-.88,4.01-2,5.72-3.8,9.58-2.59,.1-4.63,.08-7.16,.04-.82-.01-.62,.16-1.06-.28-1.48-1.43-4.17-4.58-5.67-6.03-.52-.5-.98-.97-1.49-1.52-4.14-4.41-2.18-3.08-2.99-4.18l-8.33-7.87c-1.91-1.86-3.63-3.86-5.61-5.96-.51-.54-.76-1.04-1.29-1.53l-.15-.13c-.14-.14-.09-.08-.22-.23l-2.42-2.75c-.43-.39-.39-.38-.7-.74l-2.18-2.24c-.48-.5-.85-1.02-1.31-1.56l-2.08-2.21c-.31-.31-.53-.41-.84-.73-.99-1.03-1.82-2.02-2.82-3.04-.8-.82-2.75-2.41-2.98-2.87h0Zm9.99-12.3l-17.09,.35c-.92,3.4,0,1.68,0,5.23v6.43c-.14,1.86-.63,2.8-.63,5.29,0,.84-.18,2.75,.22,3.41,.71,1.16,.69,2.14,.99,3.82,.27,1.49,.56,1.33-.11,2.45l-.31,2.84,1.46,1.43v2.5c-.86,.8,.11,.23-1.72,1.56l.16,7.54,1.81,1.31-.38,6.43c-1.91,1.37-1.5,3.03-1.44,4.73l.23,6.41-.42,3.29c4.28,1.08,3.34,.74,8.23,.74,4.32,0,3.76,.04,8.04-.47l.11,.73c.66-.04,1.35-.08,2-.14,1.82-.18,1.09-.39,1.72-.61,.45-.16,5.32,.97,6.11,1.14,.44-.49,.21-.29,.82-.69,.33,.7,1.74,2.29,2.31,2.99l1.76-1.66,3.09,1.2,.9-.76c.35,.42,.57,.94,1.2,1.02,.92,.12,1.07-1.4,3.09-1.44l11.72-.39c.15-.15,.24-.23,.4-.39l.6-.49c.77,.46,1.1,.91,2.15,.84,3.23-.21,1.54,.78,5.71,.56,.72-.04,.54-.22,1.17-.44l1.35-.21c-.29-.79-.48-.68-1.07-1.27l7.43,1.5c-.1-8.74-.08-19.4,.03-28.4l-2,.15c.07-.58,.94-.36,1.01-1.54,.09-1.48,.07-6.54-.14-7.62-.11-.55-1.52-2.17-1.89-2.67,.45-1.22,.49-1.14,1.32-2.13-.07-.65-.22-.83-.5-1.57l2.18-.71c.02-1.25,.16-6.27,.08-7.86l-.88-8.57,.67-2.14,.03-2.2c-1.88-1.08-1.63-1.2-2.94-1.19-1.17,0-2.75-.05-3.87-.31-1.44-.33-1.05-.56-2.63,1.06l-.72-1.56c-2.26-.17-9.49-.8-11.21-.8-2.2,0-1.88,.17-2.62,2.66l-3.16,.32-.42-1.37-2.86-.03,.3-.33c.56-.53,.36-.32,.8-1.26h-11.51c-.38,.7-1.08,1.24-1.9,1.51-1.15,.38-.58-.23-1.3,.42-.54,.49-.64,.46-1.49,.44-1.13-.02-2.3-.06-3.43-.11-.52-.02-1.1,.03-1.6-.09-.77-.18-.55-.38-.97-.88h0Z" />
</svg>
