<?xml version="1.0" encoding="UTF-8"?>
<svg id="_Слой_1" data-name="Слой 1" xmlns="http://www.w3.org/2000/svg"
    xmlns:xlink="http://www.w3.org/1999/xlink" viewBox="0 0 196 136">
    <defs>
        <style>
            .cls-1 {
            fill: none;
            }

            .cls-2 {
            clip-path: url(#clippath);
            }

            .cls-3 {
            clip-path: url(#clippath-1);
            }

            .cls-4 {
            fill: #d4d4d4;
            fill-rule: evenodd;
            }
        </style>
        <clipPath id="clippath">
            <rect class="cls-1" x="-19.53" y="25.69" width="235.06" height="84.62" />
        </clipPath>
        <clipPath id="clippath-1">
            <rect class="cls-1" x="-19.53" y="25.69" width="235.06" height="84.62" />
        </clipPath>
    </defs>
    <g class="cls-2">
        <g class="cls-3">
            <path class="cls-4"
                d="M151.85,69.26v-.44c0-2.68,0-5.37,0-8.05,0-1.31-.59-2.07-1.85-2.4-.1-.03-.21-.04-.3-.08-.11-.06-.21-.14-.31-.22,.11-.07,.21-.18,.33-.2,1.53-.35,3.06-.69,4.59-1.03,1.82-.4,3.64-.81,5.47-1.21,.12-.03,.25-.02,.38-.03,.01,.03,.03,.07,.04,.1-.13,.11-.26,.23-.39,.34-.48,.44-1.01,.83-1.43,1.32-.5,.58-.69,1.3-.69,2.07,0,6.78,0,13.55,0,20.33,0,.87-.14,.97-.93,.59-2.89-1.4-4.46-3.73-4.84-6.9-.02-.15-.06-.3-.04-.44,.1-.64-.24-1.01-.7-1.39-2.34-1.94-4.66-3.9-6.98-5.86-.09-.07-.18-.14-.31-.24,0,.17-.02,.29-.02,.41,0,3.1,0,6.19,0,9.29,0,1.26,.58,2.16,1.68,2.73,.17,.09,.36,.16,.52,.26,.11,.06,.2,.16,.31,.25-.32,.19-10.53,.19-10.88,0,.18-.12,.32-.24,.48-.31,.58-.27,1.12-.58,1.5-1.12,.35-.5,.55-1.05,.55-1.67,0-4.06,0-8.12,0-12.18,0-.97-.54-1.67-1.49-1.93-.25-.07-.52-.11-.76-.2-.09-.03-.15-.15-.23-.22,.08-.06,.16-.17,.24-.18,1.58-.24,3.17-.48,4.76-.7,.12-.02,.28,.07,.38,.16,3.46,2.9,6.92,5.81,10.37,8.72,.16,.13,.31,.26,.54,.45" />
            <path class="cls-4"
                d="M57.07,63.61c-.05-.15-.11-.29-.15-.44-.51-1.86-1.29-3.58-2.64-4.99-1.2-1.26-2.63-2.06-4.44-1.98-1.59,.07-2.86,.82-3.94,1.94-1.34,1.4-2.17,3.09-2.64,4.95-.93,3.68-.75,7.27,.94,10.72,.73,1.5,1.77,2.75,3.25,3.59,1.06,.6,2.19,.77,3.38,.68,.47-.04,.79-.29,.86-.75,.1-.6,.17-1.2,.19-1.81,.03-1.13-.01-2.27,.01-3.4,.02-1.03-.42-1.82-1.27-2.32-.56-.33-1.22-.51-1.83-.75-.23-.09-.49-.14-.71-.24-.1-.05-.15-.2-.22-.3,.1-.06,.2-.13,.31-.16,.07-.03,.16,0,.24,0,3.78,0,7.57,0,11.35,0,.15,0,.3,.09,.45,.13-.12,.1-.23,.24-.37,.3-.25,.11-.52,.17-.77,.28-.86,.39-1.34,1.03-1.34,2.01,0,1.56-.02,3.12,0,4.68,0,.31-.1,.51-.32,.71-1.18,1.06-2.56,1.77-4.06,2.25-2.47,.78-5,1.11-7.57,.7-3.26-.52-5.79-2.27-7.65-4.97-3.5-5.09-3.01-11.96,1.14-16.52,3.42-3.76,9-4.77,13.61-2.46,.61,.31,1.23,.62,1.85,.9,.72,.32,1.48,.5,2.27,.49,.29,0,.42,.11,.45,.38,.03,.34,.11,.68,.1,1.03-.04,1.58-.1,3.16-.17,4.74,0,.23-.11,.45-.17,.67-.05,0-.09,0-.14,0" />
            <path class="cls-4"
                d="M105.53,63.2h.34c2.01,0,4.01,0,6.02,0,.08,0,.16,0,.24,0,.18,.04,.2,.16,.07,.27-.1,.09-.23,.15-.36,.2-.68,.3-1.03,.85-1.05,1.57-.03,1.19-.02,2.38,0,3.58,0,.48,.37,.85,.86,.86,1.5,.01,3,.01,4.51,0,.5,0,.87-.34,.88-.84,.02-1.23,.03-2.45-.02-3.68-.03-.7-.4-1.23-1.08-1.5-.03-.01-.07-.03-.09-.05-.1-.1-.19-.2-.29-.3,.12-.04,.24-.11,.36-.11,2.02,0,4.04,0,6.05,0,.11,0,.22,.01,.4,.1-.08,.09-.15,.24-.25,.28-1,.38-1.27,1.14-1.26,2.13,.02,3.5,.01,6.99,0,10.49,0,.93,.31,1.63,1.22,1.99,.11,.04,.17,.18,.26,.28-.12,.04-.24,.11-.35,.11-2.03,0-4.06,0-6.09,0-.11,0-.22-.06-.34-.1,.08-.1,.15-.24,.25-.28,.96-.37,1.26-1.12,1.25-2.08-.01-.91,0-1.81,0-2.72,0-.79-.32-1.12-1.1-1.12-1.38,0-2.75,0-4.13,0-.7,0-1.04,.33-1.04,1.03,0,1.01,0,2.02,0,3.03,0,.84,.33,1.49,1.16,1.81,.06,.03,.14,.05,.18,.1,.06,.07,.1,.16,.15,.24-.08,.03-.16,.08-.24,.08-1.54,0-2.98,.46-4.39,1.03-.84,.34-1.69,.63-2.72,.63,.16-.15,.27-.26,.37-.36,.8-.76,1.42-1.62,1.6-2.74,.05-.3,.07-.62,.07-.92,0-3.54,0-7.09,0-10.63,0-.92-.31-1.63-1.22-1.99-.12-.05-.2-.18-.31-.28,.03-.04,.05-.08,.08-.12" />
            <path class="cls-4"
                d="M78.79,67.7c0,.18-.02,.29-.02,.4,0,2.71,0,5.41,0,8.11,0,.91,.3,1.61,1.2,1.96,.06,.02,.13,.06,.17,.11,.05,.06,.1,.14,.08,.2-.01,.05-.12,.1-.18,.1-.42,0-.85,0-1.27,0-1.64,0-3.28,0-4.92,0-.13,0-.26-.02-.39-.04-.01-.03-.03-.07-.04-.1,.11-.09,.21-.21,.34-.27,.88-.35,1.2-1.04,1.2-1.93,0-3.56,0-7.13,0-10.69,0-.89-.31-1.59-1.19-1.93-.06-.02-.14-.05-.18-.1-.05-.06-.08-.15-.12-.23,.07-.03,.14-.09,.21-.09,1.25,0,2.5,0,3.75,0,.11,0,.24,.11,.32,.21,2.34,3,4.68,6,7.02,9,.07,.09,.15,.19,.29,.26v-.46c0-2.22,0-4.45,0-6.67,0-.9-.31-1.58-1.19-1.93-.09-.04-.2-.09-.25-.17-.03-.04,.03-.17,.08-.22,.03-.04,.13-.01,.2-.01,2.04,0,4.08,0,6.12,0,.1,0,.2,.01,.43,.03-.14,.16-.21,.31-.31,.35-1.01,.38-1.28,1.17-1.27,2.16,.02,3.23,0,6.46,0,9.7,0,1.28,.12,2.54,.65,3.73,.15,.34,.35,.67,.55,1.06-.15-.01-.26,0-.37-.03-.88-.2-1.6-.68-2.18-1.36-.6-.71-1.17-1.44-1.74-2.17-2.26-2.89-4.51-5.78-6.77-8.67-.06-.08-.13-.15-.24-.28" />
            <path class="cls-4"
                d="M102.21,60.25c1.06,1.61,1.83,3.32,2.32,5.15-.03,.02-.06,.05-.09,.07-.1-.03-.22-.05-.31-.1-.34-.17-.67-.36-1-.53-.73-.38-1.27-.91-1.66-1.66-1.14-2.16-3.27-2.57-4.99-2.13-1.29,.34-1.85,1.79-1.1,2.9,.28,.41,.68,.78,1.09,1.07,1.64,1.16,3.3,2.27,4.95,3.42,.5,.35,.99,.71,1.44,1.12,1.84,1.68,2.28,3.8,1.83,6.15-.47,2.46-2.2,4-4.78,4.33-1.66,.21-3.29,.11-4.89-.41-.89-.29-1.77-.32-2.65,.13-.45-.45-.72-1.01-.89-1.6-.46-1.57-.54-3.18-.32-4.8,.01-.08,.03-.15,.08-.34,.15,.25,.26,.43,.37,.61,.53,.84,1,1.73,1.61,2.51,1.31,1.68,3.04,2.64,5.21,2.62,2.03-.01,3.06-1.81,2.6-3.47-.18-.65-.66-1.09-1.19-1.46-1.64-1.14-3.28-2.27-4.92-3.4-.37-.25-.73-.52-1.08-.79-1.85-1.44-2.66-4.2-1.8-6.32,.79-1.96,2.36-2.97,4.39-3.34,1.32-.24,2.6,.03,3.88,.3,.64,.14,1.28,.29,1.92-.03" />
            <path class="cls-4"
                d="M58.64,79.23c1.58-1.17,2.69-2.58,2.37-4.76-.83,.47-1.64,.93-2.49,1.4,.36-.83,.83-1.56,1.36-2.26,1.62-2.12,3.8-3.46,6.3-4.27,.99-.32,2.04-.48,3.08-.66,.33-.06,.68,0,1.02,.05,.24,.03,.38,.17,.31,.46-.05,.22-.05,.46-.04,.68,.03,.54,.27,.93,.81,1.12,.44,.16,.89,.32,1.16,.75,.06,.1,.11,.21,.19,.38-.2,.01-.34,.03-.48,.03-2.18,.04-4.35,.21-6.48,.67q-.86,.19-.86,1.08c0,.78,0,1.56,0,2.34,0,.66,.34,.99,1,.99,.91,0,1.81-.02,2.72,0,1.46,.03,2.6-.59,3.43-1.75,.36-.51,.63-1.08,.97-1.67,.03,.16,.08,.31,.08,.47,.01,1.43-.32,2.79-.8,4.12-.08,.22-.23,.18-.38,.18-1.93,0-3.85,.02-5.78,0-2.32-.03-4.62,.1-6.89,.66-.16,.04-.34,.04-.51,.06-.02-.02-.04-.05-.07-.07" />
            <path class="cls-4"
                d="M124.75,78.4c.12-.06,.24-.14,.37-.19,.28-.1,.57-.16,.85-.26,.89-.34,1.28-.91,1.28-1.85,0-3.46,0-6.92,0-10.39,0-1-.43-1.6-1.38-1.92-.26-.09-.53-.15-.79-.24-.12-.04-.22-.12-.36-.19,.26-.2,8.73-.23,9.15-.04-.14,.09-.23,.18-.34,.21-.28,.1-.57,.17-.85,.26-.95,.33-1.35,.91-1.35,1.91,0,3.46,0,6.92,0,10.39,0,.92,.36,1.48,1.22,1.83,.33,.13,.68,.21,1.01,.32,.09,.03,.16,.13,.24,.21-.09,.04-.19,.12-.28,.12-2.82,0-5.64,0-8.46,0-.1,0-.19-.03-.29-.05-.01-.04-.02-.08-.03-.12" />
            <path class="cls-4"
                d="M91.18,57.46c-.79,.15-1.53,.33-2.27,.42-2.38,.26-4.76,.49-7.1,1.05-1.35,.32-2.65,.78-3.9,1.4-.1,.05-.2,.11-.3,.17,.01,.03,.03,.06,.04,.09,.33-.09,.66-.19,1.05-.3-.02,.57,.38,.74,.78,.9,.3,.12,.59,.26,.89,.39,0,.04-.01,.08-.02,.12-.22,0-.44,0-.67,0-1.62-.07-3.14-.47-4.5-1.4-.43-.29-.8-.64-.94-1.18-.06-.25,0-.4,.18-.56,1.6-1.38,3.41-2.39,5.37-3.14,2.3-.88,4.66-1.56,7.05-2.15,.66-.16,1.13,.04,1.5,.61,.25,.38,.47,.78,.71,1.17,.35,.57,.76,1.12,1.36,1.37,.49,.21,.57,.57,.75,1.05" />
            <path class="cls-4"
                d="M115.61,61.57c.34-.15,.67-.29,1-.43,.32-.14,.64-.27,.68-.69,0-.04,.2-.11,.29-.09,.27,.06,.54,.16,.81,.24,.01-.03,.03-.06,.04-.08-.1-.06-.19-.12-.3-.17-1.76-.9-3.64-1.45-5.58-1.75-1.8-.28-3.61-.46-5.41-.71-.68-.09-1.35-.26-2.02-.39-.09-.02-.17-.06-.27-.1,.14-.41,.22-.77,.71-.97,.6-.26,1.02-.81,1.36-1.37,.24-.39,.47-.79,.71-1.17,.36-.56,.82-.78,1.47-.62,2.87,.7,5.71,1.5,8.42,2.71,1.47,.66,2.82,1.52,4.04,2.58,.21,.18,.28,.37,.16,.6-.17,.31-.34,.68-.6,.89-1.57,1.24-3.39,1.7-5.37,1.65-.03,0-.06-.02-.09-.03,0,0-.01-.02-.05-.07" />
            <path class="cls-4"
                d="M104.59,52.28c-.19,.08-.39,.17-.58,.25-.93,.34-1.88,.66-2.8,1.03-.88,.35-1.52,.99-1.87,1.87-.39,.97-.72,1.97-1.07,2.96-.02,.06-.02,.14-.06,.19-.06,.08-.14,.19-.2,.19-.07,0-.17-.11-.2-.19-.15-.46-.25-.93-.43-1.37-.31-.78-.64-1.56-1.02-2.32-.32-.64-.9-1.05-1.54-1.31-.93-.38-1.89-.7-2.83-1.05-.2-.07-.38-.17-.57-.25,0-.04,0-.08,0-.13,.2-.09,.39-.19,.6-.27,.8-.29,1.6-.55,2.39-.84,1.18-.43,2-1.22,2.44-2.4,.31-.85,.59-1.7,.89-2.56,.01-.04,.01-.1,.04-.13,.08-.11,.17-.22,.25-.33,.08,.12,.19,.22,.24,.35,.2,.6,.39,1.2,.56,1.8,.54,1.87,1.73,3.07,3.61,3.6,.55,.16,1.09,.34,1.63,.53,.19,.06,.36,.16,.54,.25,0,.05,0,.09,0,.14" />
            <path class="cls-4"
                d="M72.19,67.73c-.16-.35-.3-.7-.49-1.04-.55-.98-1.27-1.77-2.4-2.07-.26-.07-.54-.11-.81-.11-.87-.01-1.74,0-2.61,0-.65,0-.99,.34-.99,1,0,1.12,0,2.25-.01,3.37,0,.13-.1,.31-.2,.37-1.3,.65-2.49,1.46-3.6,2.53,0-.19,0-.3,0-.42,0-1.93-.01-3.85-.02-5.78,0-1.34-.48-2.43-1.66-3.16-.07-.04-.12-.1-.18-.15,0,0,0-.02,0-.08,.17,.02,.33,.02,.49,.05,1.27,.24,2.53,.57,3.82,.7,1.76,.18,3.54,.21,5.32,.28,.8,.03,1.6,.01,2.41,0,.2,0,.31,.05,.37,.25,.4,1.2,.68,2.42,.7,3.7,0,.2-.03,.39-.05,.59-.02,0-.05,0-.07,0" />
            <path class="cls-4"
                d="M81.23,83.69c-.19,.1-.29,.16-.39,.2-.56,.22-.81,.62-.8,1.22,.01,1.23,0,2.45,0,3.68,0,.65,.26,1.01,.88,1.23,.17,.06,.34,.13,.51,.19,0,.03-.02,.07-.03,.1h-4.41s-.02-.05-.03-.07c.09-.06,.17-.14,.26-.19,.33-.17,.55-.45,.56-.81,.02-1.29,0-2.58-.04-3.9-.06,.11-.12,.22-.17,.33-.56,1.26-1.12,2.53-1.69,3.79-.15,.32-.37,.61-.55,.91l-.12-.04c-.76-1.71-1.53-3.43-2.29-5.14-.03,0-.07,.01-.1,.02v.45c0,1.02,0,2.04,0,3.06,0,.6,.12,1.12,.72,1.39,.05,.02,.08,.1,.15,.19h-2.88s-.01-.06-.02-.08c.14-.06,.27-.13,.41-.17,.74-.25,.99-.59,.99-1.36,0-1.15-.02-2.29,0-3.44,.01-.69-.23-1.18-.91-1.4-.08-.03-.15-.09-.31-.19,.18-.03,.26-.05,.34-.05,.99,0,1.97,0,2.96,0,.22,0,.32,.09,.4,.28,.48,1.1,.97,2.2,1.49,3.38,.08-.17,.14-.27,.19-.37,.45-1,.89-2.01,1.35-3.01,.05-.11,.19-.25,.29-.26,1-.02,1.99-.01,2.99,0,.05,0,.1,.03,.25,.07" />
            <path class="cls-4"
                d="M90.33,87.69c0,.51-.05,1,.01,1.47,.06,.46,.41,.72,.84,.87,.18,.06,.35,.13,.53,.19,0,.03-.01,.07-.02,.1h-4.96s-.02-.04-.03-.05c.08-.05,.16-.11,.25-.15,.15-.06,.31-.1,.45-.17,.45-.22,.7-.57,.69-1.09,0-1.25,0-2.5,0-3.75,0-.6-.25-1-.82-1.22-.11-.04-.2-.11-.3-.16,0-.03,.02-.06,.02-.09,.11,0,.21-.02,.32-.02,1.25,0,2.5,0,3.75,0,.74,0,1.44,.15,2.06,.55,1.28,.81,1.28,2.19,0,2.99-.64,.4-1.35,.55-2.1,.55-.23,0-.45,0-.69,0m-.08-.48c.16,0,.29,.03,.4,0,.68-.18,1.22-.85,1.17-1.68-.04-.7-.56-1.31-1.26-1.47-.27-.06-.32,.03-.32,.26,0,.63,0,1.26,0,1.88v1.01" />
            <path class="cls-4"
                d="M102.94,83.44c.69,0,1.35-.01,2.01,.01,.1,0,.23,.16,.28,.28,.81,1.79,1.61,3.59,2.39,5.39,.22,.5,.53,.84,1.07,.97,.11,.03,.2,.1,.3,.15,0,.03-.02,.05-.03,.08h-4.35l-.04-.08c.12-.06,.23-.12,.35-.17,.61-.21,.71-.44,.46-1.03q-.39-.92-1.39-.92c-.56,0-1.12-.01-1.68,0-.11,0-.27,.11-.32,.21-.15,.27-.27,.56-.37,.85-.16,.45-.04,.69,.41,.85,.16,.06,.31,.12,.46,.18,0,.03-.01,.06-.02,.09h-2.88s-.02-.04-.02-.07c.11-.05,.22-.13,.34-.16,.5-.12,.81-.43,1.01-.9,.68-1.56,1.37-3.12,2.08-4.67,.13-.29,.19-.55,0-.83-.04-.06-.05-.14-.08-.25m.64,1.47s-.06,0-.1,0c-.38,.85-.76,1.7-1.15,2.59h2.4c-.4-.9-.78-1.75-1.15-2.6" />
            <path class="cls-4"
                d="M134.11,90.33h-4.95s-.02-.05-.03-.08c.11-.05,.21-.12,.33-.16,.86-.29,1.06-.57,1.06-1.48,0-1.28,0-2.57,0-3.85v-.48c-.56,.07-1.09,.08-1.6,.2-.57,.13-.65,.78-.97,1.18-.03-.02-.06-.03-.09-.05v-1.96h7.54v1.96s-.06,.04-.09,.06c-.31-.41-.41-1.04-.97-1.18-.5-.12-1.03-.14-1.6-.21v.46c0,1.34,0,2.68,0,4.02,0,.69,.26,1.06,.92,1.28,.16,.06,.33,.12,.49,.19-.01,.04-.02,.07-.04,.11" />
            <path class="cls-4"
                d="M121.48,85.87c-.08-.14-.15-.27-.24-.4-.54-.85-1.28-1.3-2.31-1.16-.97,.14-1.53,.77-1.81,1.67-.5,1.56,.26,3.07,1.74,3.48,1.06,.29,2.09-.1,2.71-1.01,.05-.08,.11-.16,.17-.23,.03,.01,.05,.02,.08,.04-.06,.16-.11,.33-.19,.48-.49,.91-1.3,1.37-2.28,1.54-1.34,.24-2.58,0-3.64-.9-1.56-1.32-1.54-3.56,.05-4.84,1.25-1,2.67-1.13,4.16-.67,.43,.13,.83,.33,1.3,.18,.07-.02,.26,.07,.26,.13,.06,.56,.09,1.12,.13,1.69-.04,0-.08,.01-.12,.02" />
            <path class="cls-4"
                d="M60.52,83.63h4.99s.02,.04,.03,.07c-.09,.05-.18,.12-.28,.16-.93,.32-1.11,.57-1.11,1.56,0,1.1,0,2.2,0,3.3,0,.75,.26,1.1,.98,1.34,.12,.04,.24,.08,.35,.13,.03,.01,.04,.05,.09,.12h-4.99s-.02-.04-.03-.06c.11-.05,.21-.12,.32-.16,.86-.29,1.07-.58,1.07-1.48,0-1.13,0-2.27,0-3.4,0-.71-.25-1.06-.94-1.3-.13-.04-.26-.09-.38-.15-.02-.01-.04-.05-.09-.13" />
            <path class="cls-4"
                d="M126.78,68.81v3.58c-1.6-.1-3.18-.2-4.87-.31,.22-.27,.37-.51,.58-.69,.18-.15,.41-.26,.63-.33,.78-.24,1.05-.7,.99-1.61-.05-.67,0-.78,.68-.78,.66,0,1.32,.09,1.99,.14" />
            <path class="cls-4"
                d="M136.11,75.85c-1.33-.82-2.71-1.53-4.16-2.11-.08-.03-.17-.16-.17-.24-.01-.84,0-1.69,0-2.6,1.98,1.24,3.37,2.9,4.33,4.96" />
        </g>
    </g>
</svg>
