<svg width="32" height="31" viewBox="0 0 32 31" fill="none" xmlns="http://www.w3.org/2000/svg">
    <g clip-path="url(#clip0_210_9985)">
        <path
            d="M25.0212 2.33861C23.6097 0.739759 21.0554 0.0548096 17.7876 0.0548096H8.30426C7.63634 0.0548096 7.06871 0.537302 6.96275 1.19009L3.01394 26.0356C2.93636 26.5257 3.31857 26.9684 3.81809 26.9684H9.67233L11.1425 17.7159L11.0971 18.0073C11.2012 17.3545 11.7669 16.872 12.4348 16.872H15.2163C20.6826 16.872 24.9607 14.6696 26.2114 8.2988C26.2492 8.10959 26.3079 7.7463 26.3079 7.7463C26.6636 5.38871 26.3059 3.78987 25.0212 2.33861Z"
            fill="white" />
        <path
            d="M27.7892 8.95349C26.4307 15.2259 22.0958 18.5447 15.216 18.5447H12.7222L10.8604 30.3288H14.9057C15.4904 30.3288 15.988 29.9069 16.0788 29.3336L16.1261 29.0838L17.0571 23.2353L17.1176 22.9136C17.2084 22.3403 17.7061 21.9183 18.2888 21.9183H19.0287C23.8101 21.9183 27.5527 19.9922 28.6463 14.4198C29.0853 12.1833 28.8734 10.3083 27.7892 8.95349Z"
            fill="white" />
    </g>
    <defs>
        <clipPath id="clip0_210_9985">
            <rect width="30.274" height="30.274" fill="white"
                transform="translate(0.794922 0.0548096)" />
        </clipPath>
    </defs>
</svg>
