<svg width="40" height="37" viewBox="0 0 40 37" fill="none" xmlns="http://www.w3.org/2000/svg">
    <path d="M29.4014 18.1911L33.3925 14.507L37.3836 18.1911L33.3925 21.8752L29.4014 18.1911Z"
        fill="currentColor" />
    <path d="M2.84277 18.1905L6.8339 14.5064L10.825 18.1905L6.8339 21.8746L2.84277 18.1905Z"
        fill="currentColor" />
    <path
        d="M20.1165 26.7688L13.4998 20.661L9.50879 24.345L20.1165 34.1368L30.7243 24.345L26.7333 20.661L20.1165 26.7688Z"
        fill="currentColor" />
    <path
        d="M20.1165 9.61479L26.7333 15.7226L30.7243 12.0386L20.1165 2.24686L9.50879 12.0386L13.4998 15.7226L20.1165 9.61479Z"
        fill="currentColor" />
    <path d="M16.1689 18.1918L20.1101 14.5538L24.0512 18.1918L20.1101 21.8298L16.1689 18.1918Z"
        fill="currentColor" />
</svg>
