<svg width="25" height="24" viewBox="0 0 25 24" fill="none" xmlns="http://www.w3.org/2000/svg">
    <path
        d="M16.4641 3.00002C14.9852 2.99667 13.5583 3.54602 12.4634 4.54032C11.3685 3.54602 9.94158 2.99667 8.46258 3.00002C8.16154 3.00042 7.86084 3.02047 7.56241 3.06003C6.43341 3.22837 5.37584 3.71522 4.51378 4.46345C3.65172 5.21167 3.02094 6.19024 2.69545 7.28433C2.36995 8.37842 2.36324 9.54265 2.6761 10.6404C2.98897 11.7382 3.60843 12.724 4.4618 13.4821C5.87208 14.7723 9.18272 17.9029 11.0731 19.6933C11.4441 20.0421 11.9341 20.2363 12.4434 20.2363C12.9526 20.2363 13.4426 20.0421 13.8136 19.6933C15.704 17.9029 19.0146 14.7723 20.4249 13.4821C21.2776 12.7266 21.8976 11.744 22.2125 10.6492C22.5274 9.55434 22.5241 8.3925 22.2031 7.29945C21.8821 6.2064 21.2567 5.22729 20.3998 4.47657C19.5429 3.72584 18.4901 3.23452 17.3643 3.06003C17.0659 3.02069 16.7652 3.00065 16.4641 3.00002Z"
        fill="currentColor"/>
</svg>
