<svg width="122" height="43" viewBox="0 0 122 43" fill="none" xmlns="http://www.w3.org/2000/svg">
    <g clip-path="url(#clip0_210_9992)">
        <path d="M114.332 19.7612L111.49 22.2418L114.056 24.9856L116.899 22.505L114.332 19.7612Z"
            fill="currentColor" />
        <path d="M108.668 21.9931L104.878 25.2889L108.291 28.952L112.082 25.6562L108.668 21.9931Z"
            fill="currentColor" />
        <path d="M119.459 18.8881L117.565 20.5365L119.272 22.3653L121.165 20.7169L119.459 18.8881Z"
            fill="currentColor" />
        <path d="M109.279 8.44494L106.435 10.9188L108.995 13.667L111.84 11.1931L109.279 8.44494Z"
            fill="currentColor" />
        <path d="M117.035 13.4231L115.146 15.0721L116.854 16.8989L118.744 15.2499L117.035 13.4231Z"
            fill="currentColor" />
        <path
            d="M12.7707 13.5775L10.9138 22.8748H10.7851L8.25584 13.5775H6.63679L4.27254 22.8748H4.14389L2.10734 13.5775H0.0683594L3.01517 26.038H4.98133L7.38199 17.266H7.51064L9.98412 26.038H11.9503L14.8995 13.5775H12.7707Z"
            fill="currentColor" />
        <path d="M105.978 15.6472L102.185 18.9461L105.598 22.6092L109.392 19.3103L105.978 15.6472Z"
            fill="currentColor" />
        <path d="M103.27 9.405L99.4775 12.7024L102.891 16.3655L106.683 13.0681L103.27 9.405Z"
            fill="currentColor" />
        <path d="M111.893 13.9714L109.055 16.4457L111.621 19.1924L114.459 16.718L111.893 13.9714Z"
            fill="currentColor" />
        <path d="M114.602 7.99101L112.709 9.63937L114.415 11.4682L116.309 9.81984L114.602 7.99101Z"
            fill="currentColor" />
        <path
            d="M83.4599 17.3363L81.3942 23.8104H81.285L78.9572 17.3387H76.957L80.4476 26.1294C80.0106 27.4308 79.2485 28.3781 78.0105 28.3781V29.8155C80.1005 29.8155 81.2098 28.5516 82.12 26.1247L85.4091 17.3363H83.4599Z"
            fill="currentColor" />
        <path
            d="M23.2302 21.3342C23.2327 18.4618 21.8321 17.0432 19.5576 17.0432C16.8293 17.0432 15.4287 18.9729 15.4287 21.6461C15.4287 24.4247 16.6861 26.2513 19.7397 26.2513C21.048 26.2513 22.1404 25.8996 22.9584 25.4376V24.1081C21.9583 24.6826 21.048 25.0203 20.0674 25.0203C18.1959 25.0203 17.3026 24.0917 17.3026 21.979H23.2302V21.3342ZM17.339 20.7996C17.5381 19.0456 18.3949 18.2179 19.5042 18.2179C20.4873 18.2179 21.4146 18.9518 21.5044 20.7996H17.339Z"
            fill="currentColor" />
        <path d="M116.837 25.3134L113.993 27.7887L116.557 30.5375L119.401 28.0622L116.837 25.3134Z"
            fill="currentColor" />
        <path
            d="M76.3821 21.3342C76.387 18.4618 74.984 17.0432 72.7119 17.0432C69.9812 17.0432 68.583 18.9729 68.583 21.6461C68.583 24.4247 69.838 26.2513 72.8916 26.2513C74.1999 26.2513 75.2874 25.8996 76.1078 25.4376V24.1081C75.1102 24.6826 74.1999 25.0203 73.2193 25.0203C71.3478 25.0203 70.4521 24.0917 70.4521 21.979H76.3821V21.3342ZM70.4885 20.7996C70.6924 19.0456 71.5492 18.2179 72.6585 18.2179C73.6368 18.2179 74.5689 18.9518 74.6587 20.7996H70.4885Z"
            fill="currentColor" />
        <path
            d="M111.848 28.4273L108.142 31.7288L101.884 25.0015L103.624 23.5219L99.2429 18.783L100.993 17.3011L96.5461 12.5669L103.486 6.5313L105.69 8.86207L109.411 5.65434L111.61 7.85613L113.076 6.58758C112.749 6.40468 112.421 6.23586 112.088 6.08344C109.974 5.08454 107.6 4.52179 105.1 4.52179C96.3204 4.52179 89.1572 11.439 89.1572 19.9226C89.1572 28.4039 96.3204 35.3211 105.1 35.3211C107.952 35.3211 110.639 34.5919 112.957 33.3139C113.722 32.8966 114.419 32.444 115.055 31.968L111.848 28.4273Z"
            fill="currentColor" />
        <path
            d="M29.2356 17.0432C28.2525 17.0432 27.3252 17.4113 26.7767 17.6927V12.6841L24.8857 13.1226V25.3884C25.9781 25.9488 27.4685 26.249 28.4345 26.249C31.0731 26.249 32.7091 24.6475 32.7091 21.36C32.7091 18.5532 31.4906 17.0432 29.2356 17.0432ZM28.4345 25.0179C27.9782 25.0179 27.3447 24.9851 26.7621 24.7389V18.9917C27.4903 18.6048 28.0195 18.4126 28.7428 18.4126C29.9613 18.4126 30.8012 19.1348 30.8012 21.3624C30.8012 24.209 29.7817 25.0179 28.4345 25.0179Z"
            fill="currentColor" />
        <path
            d="M63.8906 17.0385C61.7982 17.0385 60.07 17.8639 59.252 18.3375V26.0333H61.1404V19.0762C61.7036 18.7596 62.6333 18.4431 63.359 18.4431C64.2936 18.4431 64.9999 18.6893 64.9999 20.0774V26.0356H66.8908V19.6764C66.8908 17.8686 66.0704 17.0432 63.8906 17.0385Z"
            fill="currentColor" />
        <path
            d="M44.9724 13.5775L41.0838 23.4H40.9915L36.916 13.5775H34.7168V26.038H36.3528V17.2144H36.5155L40.2269 26.038H41.3896L45.101 17.001H45.2637V26.038H47.2274V13.5775H44.9724Z"
            fill="currentColor" />
        <path
            d="M53.3759 17.0432C50.9752 17.0432 49.2275 18.572 49.2275 21.6461C49.2275 24.6498 50.8854 26.2513 53.3759 26.2513C55.8688 26.2513 57.5242 24.6498 57.5242 21.6461C57.5242 18.5696 55.7766 17.0432 53.3759 17.0432ZM53.3759 25.0179C52.0845 25.0179 51.1379 24.0565 51.1379 21.6461C51.1379 19.2731 52.1768 18.2718 53.3759 18.2718C54.6138 18.2718 55.6139 19.2731 55.6139 21.6461C55.6139 24.0542 54.6672 25.0179 53.3759 25.0179Z"
            fill="currentColor" />
    </g>
    <defs>
        <clipPath id="clip0_210_9992">
            <rect width="121.096" height="42.3836" fill="currentColor" transform="translate(0.0683594)" />
        </clipPath>
    </defs>
</svg>
