<svg width="32" height="32" viewBox="0 0 32 32" fill="none" xmlns="http://www.w3.org/2000/svg">
    <path d="M14.46 18.7887L18.7313 16.3106L14.46 13.8203V18.7887Z" fill="currentColor" />
    <path
        d="M16.0002 0.904907C12.9545 0.904907 9.97711 1.80808 7.44466 3.50022C4.9122 5.19235 2.93838 7.59745 1.77282 10.4114C0.607258 13.2253 0.302294 16.3216 0.896493 19.3089C1.49069 22.2961 2.95737 25.0401 5.11105 27.1938C7.26473 29.3474 10.0087 30.8141 12.9959 31.4083C15.9832 32.0025 19.0795 31.6975 21.8934 30.532C24.7073 29.3664 27.1124 27.3926 28.8046 24.8601C30.4967 22.3277 31.3999 19.3503 31.3999 16.3046C31.3999 12.2203 29.7774 8.30336 26.8894 5.41536C24.0014 2.52737 20.0845 0.904907 16.0002 0.904907ZM24.1053 19.0299C24.1056 19.4327 24.0265 19.8315 23.8725 20.2037C23.7186 20.5759 23.4928 20.9141 23.2081 21.199C22.9234 21.4839 22.5853 21.7099 22.2133 21.8641C21.8412 22.0183 21.4423 22.0977 21.0396 22.0977H10.9609C10.5581 22.0977 10.1593 22.0183 9.78723 21.8641C9.41515 21.7099 9.07709 21.4839 8.79238 21.199C8.50768 20.9141 8.2819 20.5759 8.12795 20.2037C7.974 19.8315 7.8949 19.4327 7.89516 19.0299V13.5792C7.8949 13.1765 7.974 12.7776 8.12795 12.4054C8.2819 12.0332 8.50768 11.695 8.79238 11.4101C9.07709 11.1252 9.41515 10.8992 9.78723 10.745C10.1593 10.5908 10.5581 10.5115 10.9609 10.5115H21.0396C21.4423 10.5115 21.8412 10.5908 22.2133 10.745C22.5853 10.8992 22.9234 11.1252 23.2081 11.4101C23.4928 11.695 23.7186 12.0332 23.8725 12.4054C24.0265 12.7776 24.1056 13.1765 24.1053 13.5792V19.0299Z"
        fill="currentColor" />
</svg>
