<svg width="37" height="46" viewBox="0 0 37 46" fill="none" xmlns="http://www.w3.org/2000/svg">
    <g filter="url(#filter0_d_918_16138)">
        <path
            d="M18.7337 21.8519C18.5879 21.8373 18.4129 21.8373 18.2525 21.8519C14.7816 21.7353 12.0254 18.8915 12.0254 15.3915C12.0254 11.8186 14.9129 8.9165 18.5004 8.9165C22.0733 8.9165 24.9754 11.8186 24.9754 15.3915C24.9608 18.8915 22.2046 21.7353 18.7337 21.8519Z"
            fill="currentColor"/>
        <path
            d="M11.4418 27.233C7.91263 29.5955 7.91263 33.4455 11.4418 35.7934C15.4522 38.4768 22.0293 38.4768 26.0397 35.7934C29.5689 33.4309 29.5689 29.5809 26.0397 27.233C22.0439 24.5643 15.4668 24.5643 11.4418 27.233Z"
            fill="currentColor"/>
    </g>
    <defs>
        <filter id="filter0_d_918_16138" x="-7" y="-2" width="51" height="51" filterUnits="userSpaceOnUse"
                color-interpolation-filters="sRGB">
            <feFlood flood-opacity="0" result="BackgroundImageFix"/>
            <feColorMatrix in="SourceAlpha" type="matrix" values="0 0 0 0 0 0 0 0 0 0 0 0 0 0 0 0 0 0 127 0"
                           result="hardAlpha"/>
            <feOffset/>
            <feGaussianBlur stdDeviation="4"/>
            <feComposite in2="hardAlpha" operator="out"/>
            <feColorMatrix type="matrix" values="0 0 0 0 0.239216 0 0 0 0 0.596078 0 0 0 0 1 0 0 0 0.37 0"/>
            <feBlend mode="normal" in2="BackgroundImageFix" result="effect1_dropShadow_918_16138"/>
            <feBlend mode="normal" in="SourceGraphic" in2="effect1_dropShadow_918_16138" result="shape"/>
        </filter>
    </defs>
</svg>
