<svg width="46" height="46" viewBox="0 0 46 46" fill="none" xmlns="http://www.w3.org/2000/svg">
    <g filter="url(#filter0_d_918_16143)">
        <path
            d="M18.3587 21.8519C18.2129 21.8373 18.0379 21.8373 17.8775 21.8519C14.4066 21.7353 11.6504 18.8915 11.6504 15.3915C11.6504 11.8186 14.5379 8.9165 18.1254 8.9165C21.6983 8.9165 24.6004 11.8186 24.6004 15.3915C24.5858 18.8915 21.8296 21.7353 18.3587 21.8519Z"
            fill="currentColor"/>
        <path opacity="0.5" fill-rule="evenodd" clip-rule="evenodd"
              d="M28.1818 11.833C28.1818 11.4188 28.5176 11.083 28.9318 11.083C32.1766 11.083 34.786 13.7098 34.786 16.9372C34.786 20.0989 32.2774 22.6737 29.1495 22.7908C29.109 22.7923 29.0685 22.7906 29.0284 22.7855C28.9767 22.7791 28.9049 22.7779 28.8251 22.7868C28.4134 22.8325 28.0426 22.5358 27.9968 22.1242C27.9511 21.7125 28.2477 21.3417 28.6594 21.2959C28.8189 21.2782 28.9845 21.275 29.1449 21.2896C31.4471 21.1764 33.286 19.2706 33.286 16.9372C33.286 14.5354 31.3454 12.583 28.9318 12.583C28.5176 12.583 28.1818 12.2472 28.1818 11.833Z"
              fill="currentColor"/>
        <path
            d="M11.0668 27.233C7.53763 29.5955 7.53763 33.4455 11.0668 35.7934C15.0772 38.4768 21.6543 38.4768 25.6647 35.7934C29.1939 33.4309 29.1939 29.5809 25.6647 27.233C21.6689 24.5643 15.0918 24.5643 11.0668 27.233Z"
            fill="currentColor"/>
        <path opacity="0.5" fill-rule="evenodd" clip-rule="evenodd"
              d="M31.0583 26.2518C31.1494 25.8477 31.5508 25.594 31.9549 25.685C33.0697 25.9362 34.1515 26.3819 35.0572 27.0728C36.3557 28.0478 37.0608 29.3881 37.0608 30.7844C37.0608 32.1803 36.356 33.5204 35.058 34.4954C34.1398 35.1994 33.0415 35.6629 31.8992 35.9009C31.4937 35.9854 31.0965 35.7251 31.012 35.3196C30.9275 34.9141 31.1878 34.5169 31.5933 34.4324C32.5496 34.2332 33.4333 33.8517 34.1478 33.3031L34.1545 33.2979L34.1546 33.2979C35.1294 32.5668 35.5608 31.6476 35.5608 30.7844C35.5608 29.9211 35.1294 29.0019 34.1546 28.2708L34.1494 28.2669L34.1494 28.2669C33.4514 27.7339 32.5801 27.3635 31.6251 27.1483C31.221 27.0573 30.9673 26.6559 31.0583 26.2518Z"
              fill="currentColor"/>
    </g>
    <defs>
        <filter id="filter0_d_918_16143" x="0.419922" y="0.916504" width="44.6406" height="44.8896"
                filterUnits="userSpaceOnUse" color-interpolation-filters="sRGB">
            <feFlood flood-opacity="0" result="BackgroundImageFix"/>
            <feColorMatrix in="SourceAlpha" type="matrix" values="0 0 0 0 0 0 0 0 0 0 0 0 0 0 0 0 0 0 127 0"
                           result="hardAlpha"/>
            <feOffset/>
            <feGaussianBlur stdDeviation="4"/>
            <feComposite in2="hardAlpha" operator="out"/>
            <feColorMatrix type="matrix" values="0 0 0 0 0.239216 0 0 0 0 0.596078 0 0 0 0 1 0 0 0 0.37 0"/>
            <feBlend mode="normal" in2="BackgroundImageFix" result="effect1_dropShadow_918_16143"/>
            <feBlend mode="normal" in="SourceGraphic" in2="effect1_dropShadow_918_16143" result="shape"/>
        </filter>
    </defs>
</svg>
