<?xml version="1.0" encoding="UTF-8"?>
<svg id="_Слой_1" data-name="Слой 1" xmlns="http://www.w3.org/2000/svg" viewBox="0 0 196 136">
    <defs>
        <style>
            .cls-1 {
            fill: #d4d4d4;
            fill-rule: evenodd;
            }
        </style>
    </defs>
    <path class="cls-1"
        d="M76.11,73.44c-4-7.7-6.92-16.03-10.67-23.84-1.15-1.29-1.98-2.56-3.26-2.56-3.12-.2-6.39-.37-9.48-.54-.36-.02-.35,.61-.02,.63,3.31,.2,3.68,1.15,4.06,1.81,.47,.81,.95,1.76,1.43,2.81,.12,.27,.12,.2,.01,.47-1.67,4.26-3.32,8.5-4.93,12.79-.2,.53-.49,.92-.87,1.3-.89,.89-1.96,1.79-2.57,2.65-.24,.34-.28,.4-.13,.75,.22,.52,.39,1.11-.1,2.11-1.32,2.74-2.66,5.25-4.03,7.97-.82,.63-2.99,1.29-5.59,1.93-.73,.18-1.02,.43-.13,.37,2.41-.15,4.96-.25,7.5-.23,1.87,.01,3.73,0,5.5,.13,.28,.02,.8-.16,.35-.42-.85-.48-1.64-1.21-1.18-2.26,1.3-3.02,2.46-6.03,3.79-9.1,3.05-.56,6.32-.61,10.59-.2,1.42,3.3,2.73,6.28,4.15,9.58,.12,.24,.12,.87-.01,1.04-.23,.3-1.2,.55-1.6,.76-.45,.24-.12,.53,.13,.51,3.46-.24,6.83-.27,9.93-.04-.65,1.48-1.36,1.54-2.08,1.9-.33,.16-.14,.54,.27,.54,3.55,0,7.33-.1,10.87-.09,.61,0,.44-.37,.26-.48-.5-.32-.97-.58-1.36-1.04-.15-.18-.13-.17-.15-.4-.02-.21-.04-.4-.05-.64-.02-.38,.06-.32-.19-.57-.12-.11-.2-.2-.28-.33v-23.12c.78-.99,1.36-.86,2.65-1.03,.55-.07,1.01-.38,2.44-.53,.75-.08,.3-.45-.48-.45-4.08,.04-8.1,.09-11.04-.08-1.96-.11-1.71-.26-3.93-.56-.11-.01-.24,0-.36,.03-.26,.09-.35,.28-.05,.41,2.58,1.13,3.45,1.99,3.45,3.76,0,6.72,.08,13.42,.07,20.12-1.21-1.91-1.9-3.89-2.93-5.88h0Zm-15.21-16.11c1.6,3.67,2.96,6.82,4.56,10.48-3.26,.29-5.78,.26-8.71-.05,1.51-3.67,2.65-6.76,4.16-10.43h0Z" />
    <path class="cls-1"
        d="M104.97,67.11c-2.23,0-4.04,2.84-4.04,6.35s1.81,6.35,4.04,6.35,4.04-2.84,4.04-6.35-1.81-6.35-4.04-6.35h0Z" />
    <path class="cls-1"
        d="M95.23,58.41c-5.01,2.79-8.21,7.65-8.21,14.41,0,3.16,1.21,7.66,2.76,9.21l-.05-1.79c2.8,4.51,6.6,7.55,12.85,7.55,1.36,0,1.48-.5,.37-1.08-3.55-1.86-5.49-3.75-6.6-5.67-1.11-1.92-1.93-4.61-1.96-7.89-.07-5.79,3.27-12.24,10.74-12.22,7.47,.02,10.85,6.27,10.85,12.66,0,4.86-2.33,10.04-7.5,12.43-1.31,.6-3.87,1.13-2.06,1.46,.71,.13,1.4,.1,2.03,.1,1.53-.01,2.76-.24,3.21-.31-1.25,.34-1.44,.35-3.07,.54-.2,.02-.42,0-.66,0-2.06,0,1.12,.36,1.82,.36,3.87,0,6.75-1.65,9.24-4.14,2.9-2.9,4.25-7.19,4.25-10.81,0-10.95-8.78-15.59-17.79-15.59s-13.6,5.03-14.91,7.29c.61-1.12,1.14-1.99,1.61-2.68,.37-.55,1.87-2,3.18-3.08,1.15-.95,2.33-1.37,2.11-1.69-.06-.09-.95,.25-2.2,.95h0Z" />
    <path class="cls-1"
        d="M124.11,57.96c.17,7.25,.02,14.16-.09,21.41-.04,1.4-.08,2.21-.41,3.18-.16,.46-1.41,.87-3.88,1.43-.48,.11-.53,.3,0,.3,4.37,.02,8.75,0,13.14,.02,.11-.07,.3-.2,.41-.31,.11-.11,.21-.21-.15-.31-1.07-.31-1.81-.74-1.82-1.3-.06-5.46-.09-10.85-.1-16.31,1.78,.67,10.32,7.07,11.85,8.46-.86-.57-1.95-1.37-2.79-1.94-.76-.51-1.02-.28-.3,.3,3.83,3.08,8.02,7.05,10.85,11.7,.58,.96,.79,.69,1.11-.05,1.6-3.65,2.57-7.47,3.18-11.16,.21-1.25-.18-.24-.08-.76,.23-1.14,.48-2.46,.55-3.66,.06-.86-.22-.73-.42,0-.64,2.36-.94,3.31-1.78,5.66,1.42-8.69,.69-17.75-.36-21.79-1.05-4.04-.62-2.96-1.47-4.57-.17-.32-.36-.2-.52-.03-1.55,1.64-2.62,2.77-3.83,4.22,1.21-.99,1.74-1.6,2.39-2.08-3.25,3.73-6.45,7.37-9.7,11.1-.78,.89-.44,.92,.42,.05l7.05-7.35c-1.49,1.78-2.86,3.38-4.35,5.16-.64,.77-.43,.73,.27,.1,1.02-.93,1.75-1.71,2.77-2.64,1.89,4.87,1.39,10.43,.21,17.24-4.38-3.35-12.07-8.98-14.94-13.68v-2.96c0-1.04,.64-1.3,1.27-2.1,.25-.32,.17-.56-.11-.55-1.37,.04-2.89,.22-4.26,.35l-1.18,.55c-1.38,.01-3.22-.09-3.3,.15-1.9,.02-3.79,0-5.69,.02-1.15,0-1.14,.32,0,.45,1.24,.14,2.03,.02,4.48,.58,.75,.17,1.26,.51,1.58,1.14h0Z" />
</svg>
