<?xml version="1.0" encoding="UTF-8"?>
<svg id="_Слой_1" data-name="Слой 1" xmlns="http://www.w3.org/2000/svg" viewBox="0 0 196 136">
    <defs>
        <style>
            .cls-1 {
            fill: #d4d4d4;
            }
        </style>
    </defs>
    <path class="cls-1"
        d="M133.37,89.62v8.85c0,1.66-.46,3.31-1.31,4.75l-2.64,4.4c-.72,1.2-2.46,1.2-3.18,0l-2.64-4.4c-.85-1.44-1.31-3.08-1.31-4.75v-4.45l2.44,1c.52,.2,1.07,.3,1.63,.3,1.29,0,2.51-.54,3.34-1.44,1.2-1.29,2.48-2.72,3.68-4.25Z" />
    <path class="cls-1"
        d="M138.91,51.07v.15c0,.98-.79,1.77-1.77,1.77h-3.77v10.18c-1.57-1.7-3.08-2.86-3.92-3.45-.78-.57-1.7-.87-2.68-.87-1.4,0-2.73,.63-3.62,1.75l-.87,1.11v-8.72h-3.77c-.98,0-1.77-.79-1.77-1.77v-.15c0-.13,.02-.24,.04-.35,.17-.81,.89-1.42,1.74-1.42h7.46v-12.93l-1.7-3.01c-.41-.91,.07-2.03,1-2.23,1.7-.39,3.4-.39,5.1,0,.92,.2,1.4,1.33,1,2.23l-1.7,3.01v12.93h7.46c.98,0,1.77,.79,1.77,1.77Z" />
    <path class="cls-1"
        d="M124.76,69.62v12.93s1.05,1.85,1.83,1.85c3.64,0,5.45-9.24-1.83-14.78Zm-27.3,0v12.93s1.05,1.85,1.83,1.85c3.64,0,5.45-9.24-1.83-14.78Zm-20.52,12.41c.3,.31,.35,.78,.13,1.13l-4.4,7.44c-.33,.57-1.11,.61-1.51,.09l-4.45-6.06c-.11-.15-.18-.35-.18-.55v-12.62h-9.11s1.83,14.78-12.73,31.4l-.91-.91c-.54-.55-.68-1.39-.33-2.09,2.16-4.58,9.57-22.04,4.88-39.49l9.09-7.39s-7.28-3.69-14.55,3.69v-2.84c0-.54,.24-1.05,.63-1.4,2.6-2.23,12.36-10.53,13.93-10.53,1.83,0,20.02,9.57,20.02,11.08,0,1.05-3.64,3.69-3.64,3.69v22.16l3.14,3.18Zm11.14,2.96l-2.79,5.65c-.28,.55-1.02,.68-1.46,.24l-4.1-4.17c-.28-.28-.35-.7-.17-1.05l1.51-3.1v-21.41c0-1.66-.65-3.27-1.81-4.45l5.82-4.43c.61-.46,1.46-.02,1.46,.74v29.55l1.35,1.39c.28,.28,.35,.7,.18,1.05Zm11.69,6.15c-.28,.37-.78,.46-1.18,.22l-7.68-4.67c-.41-.26-.55-.78-.33-1.2l1.42-2.94v-22.16l-1.27-2.99c-.35-.85-.02-1.85,.76-2.31,1.77-1.05,4.95-2.59,6.67-3.4,.68-.33,1.5-.17,2.03,.37l.92,.94s-3.64,1.85-3.64,5.54v7.39l3.16-3.2c.31-.33,.81-.37,1.18-.11,1.44,1.07,4.77,4.73,4.77,16.24,0,3.1-5.15,10.14-6.8,12.28Zm8.13-31.29l1.26-7.46c.09-.61,.76-.96,1.33-.68l4.97,2.49c.61,.3,.68,1.13,.17,1.55l-6.22,4.97c-.66,.54-1.63-.04-1.5-.87Zm9.29,25.14l-2.79,5.65c-.28,.55-1.02,.68-1.44,.24l-4.12-4.17c-.28-.28-.33-.7-.17-1.05l1.53-3.1v-12.17l-1.46-2.09c-.22-.31-.22-.72-.02-1.05l2.79-4.23c.28-.42,.85-.55,1.26-.26l4.05,2.73c.39,.26,.52,.76,.31,1.16l-1.48,3.12v12.78l1.37,1.39c.28,.28,.35,.7,.17,1.05Zm9.81,6.35c-.24,.28-.63,.35-.98,.22l-7.63-3.1c-.48-.2-.7-.78-.46-1.27l1.37-2.79v-12.6c0-.22,.07-.42,.2-.59l6.56-8.31c.31-.39,.85-.46,1.24-.18,2.14,1.53,8.39,6.65,8.39,14.3,0,4.82-6.87,12.41-8.68,14.33Zm26.6-6.35l-2.79,5.65c-.28,.55-1.02,.68-1.46,.24l-2.73-2.79v-16.62l-1.18-1.2c-.35-.35-.94-.35-1.29,0l-1.18,1.2v11.08l1.37,1.39c.28,.28,.35,.7,.17,1.05l-2.79,5.65c-.28,.55-1.02,.68-1.44,.24l-4.12-4.17c-.28-.28-.33-.7-.17-1.05l1.53-3.1v-12.93l-1.29-1.31c-.31-.31-.35-.79-.11-1.16l2.6-3.97c.31-.5,1-.55,1.4-.15l2.84,2.9,3.01-3.05c.35-.35,.92-.35,1.27,0l6,6.1c.35,.35,.35,.94,0,1.29l-1.18,1.2v11.08l1.37,1.39c.28,.28,.33,.7,.17,1.05ZM59.25,62.23h7.28v-5.54l-3.64-3.69c-4.21,3.01-3.64,9.24-3.64,9.24Z" />
</svg>
