<?xml version="1.0" encoding="UTF-8"?>
<svg id="_Слой_1" data-name="Слой 1" xmlns="http://www.w3.org/2000/svg" viewBox="0 0 196 136">
    <defs>
        <style>
            .cls-1 {
            fill: #d4d4d4;
            }
        </style>
    </defs>
    <path class="cls-1"
        d="M26.67,66.17c.26-.46,.18-.99,.27-1.48,.62-3.26,1.98-6.14,4.12-8.68,2.6-3.07,5.86-5.07,9.74-6.04,2.12-.53,4.27-.65,6.47-.41,3.48,.39,6.59,1.64,9.33,3.79,3.71,2.91,5.99,6.69,6.87,11.33,.3,1.57,.39,3.15,.26,4.72-.33,3.97-1.74,7.52-4.34,10.58-2.72,3.21-6.14,5.26-10.25,6.19-.52,.12-1.06,.18-1.59,.26-.15,.02-.31,0-.42,.14h-3.85c-.09-.11-.21-.12-.34-.14-1.9-.18-3.7-.72-5.43-1.52-3.18-1.47-5.77-3.65-7.72-6.56-1.29-1.92-2.19-4.02-2.7-6.28-.15-.69-.16-1.41-.42-2.07v-3.83Zm19.42-14.77c.09,.33,.17,.64,.26,.95,.84,2.94,1.75,5.86,2.79,8.74,1.02,2.83,2.13,5.63,3.43,8.35,1.41,2.97,3.2,5.69,5.3,8.22,.14,.17,.26,.38,.51,.42,3.31-3.96,4.53-10.26,2.47-15.83-2.3-6.24-8.26-10.67-14.77-10.87Zm-7.8,17.02c2.54-5.46,4.21-11.15,5.7-16.92-4.65-.06-11.17,3.3-14.03,9.76-2.6,5.85-1.38,12.58,1.83,16.5,1.15-.91,5.14-6.35,5.67-7.78-2.33-.27-4.47,.15-6.44,1.6,.23-.5,.23-.49,.44-.69,1.32-1.23,2.97-1.74,4.69-2.13,.7-.16,1.43-.06,2.14-.34Zm16.79,12.92s-.01-.11-.04-.14c-1.53-1.47-2.93-3.07-4.35-4.64-1.16-1.29-2.56-2.26-3.98-3.23-2.06-1.41-4.32-2.31-6.74-2.82-.2-.04-.4-.08-.69,.03-1.75,3.17-3.51,6.41-5.56,9.45,5.77,5.83,15.44,6.15,21.36,1.35Zm-10.81-24.39c-1.01,4.1-2.54,7.85-4.15,11.6,.72,.27,1.48,.24,2.19,.43,.69,.18,1.39,.34,2.08,.54,.71,.21,1.4,.47,2.1,.73,.67,.25,1.27,.68,2.02,.93-1.89-4.61-2.99-9.35-4.23-14.24Z" />
    <path class="cls-1"
        d="M110.33,62.17c-.37-.29-.84-.21-1.19-.52,.8-.28,1.59-.18,2.33-.35,.37-.08,.59,.16,.6,.59,.02,.69,0,1.38,0,2.07,0,.89,0,1.78,0,2.77,.66-.47,1.3-.79,2.04-.92,2.28-.38,3.61,.93,3.63,2.92,.02,1.43,0,2.86,0,4.29,0,.23,0,.46,0,.67,.33,.36,.84,.29,1.18,.58-.48,.21-2.76,.27-4.21,.11,.33-.44,.92-.3,1.28-.67,0-.07,.03-.17,.03-.27,0-1.61,0-3.22,0-4.83,0-.47-.12-.91-.28-1.34-.22-.57-.62-.84-1.24-.83-.5,0-.96,.12-1.41,.33-.7,.33-1.11,.77-1.07,1.65,.08,1.5,.02,3.01,.02,4.52,0,.25-.04,.51,.06,.79,.33,.29,.84,.26,1.25,.55-.59,.17-3.2,.21-4.35,.08,.33-.44,.93-.29,1.29-.68v-11.54Z" />
    <path class="cls-1"
        d="M153.73,65.92c1.18,.13,2.03,.74,2.66,1.7,.13,.2,.12,.44,.12,.67,0,1.66,.01,3.32,0,4.98,0,.61-.1,1.22-.31,1.8-.55,1.51-1.85,2.41-3.45,2.46-1.06,.03-2.04-.15-2.89-.81-.12-.09-.24-.19-.35-.3-.05-.05-.09-.12-.13-.18,.14-.2,.27-.08,.38,0,.26,.21,.54,.38,.85,.51,1.58,.64,3.8,.03,4.04-2.38,.04-.4,.06-.81-.01-1.24-.46,.05-.89,.09-1.31,.16-1.82,.29-3.91-.68-4.75-2.29-.58-1.13-.54-2.34-.1-3.49,.58-1.5,2.3-3.05,4.39-2.87,1.53,.13,2.79,.78,3.7,2.04,0,0-.02,.04-.06,.12-.32-.24-.62-.5-.95-.72-.95-.64-1.97-.97-3.11-.63-.8,.24-1.42,.71-1.77,1.48-.57,1.26-.65,2.57-.26,3.88,.25,.82,.81,1.41,1.66,1.67,.66,.21,1.32,.4,2.02,.14,.38-.14,.58-.36,.57-.79-.02-1.4,0-2.81,0-4.21,0-.32-.1-.6-.27-.86-.19-.3-.45-.55-.69-.83Z" />
    <path class="cls-1"
        d="M84.45,74.19c-1.48,.63-2.77,.08-3.81-1.13-.4-.47-.81-.92-1.25-1.35-.94-.94-2.06-1.59-3.35-1.94-.1-.03-.2-.05-.3-.06-.07,0-.15,.02-.28,.03-.48,.84-.98,1.69-1.47,2.56-.29,.51-.66,.97-1.02,1.44-.14,.18-.31,.34-.5,.48-.31,.23-.59,.24-.76,.03-.21-.25-.17-.53,.02-.77,.25-.32,.51-.64,.8-.93,.72-.73,1.3-1.58,1.89-2.41,.1-.14,.22-.28,.19-.53-.63-.19-1.22-.04-1.85,.24,.4-.56,.57-.64,2.33-1,1.09-2.37,1.78-4.9,2.47-7.46,.27,.92,.54,1.83,.81,2.75,.53,1.79,1.18,3.53,1.98,5.22,.55,1.16,1.26,2.22,2.1,3.19,.38,.45,.87,.78,1.35,1.13,.22,.16,.5,.26,.65,.52Zm-7.19-9.14c-.39,1.35-1,2.58-1.46,3.93,1.03,.1,1.92,.46,2.94,.83-.61-1.64-1.01-3.21-1.48-4.76Z" />
    <path class="cls-1"
        d="M136.24,69.55c-.68-.18-1.23,.11-1.91,.13,.71-.61,1.5-.62,2.28-.82,1.09-2.36,1.76-4.89,2.46-7.45,.12,.39,.25,.77,.36,1.16,.12,.39,.21,.79,.33,1.18,.62,2.03,1.31,4.02,2.26,5.93,.51,1.01,1.16,1.92,1.86,2.8,.34,.42,.79,.72,1.22,1.05,.28,.21,.57,.42,.87,.64-.95,.45-1.93,.39-2.75-.14-.59-.38-1.06-.88-1.5-1.42-1.1-1.34-2.42-2.34-4.12-2.8-.17-.05-.34-.1-.58-.04-.27,.28-.46,.67-.66,1.05-.55,1.01-1.13,2-1.85,2.91-.18,.22-.38,.41-.62,.57-.21,.14-.42,.2-.63,.02-.21-.18-.2-.42-.11-.63,.15-.33,.38-.6,.64-.85,.42-.41,.82-.85,1.16-1.33,.42-.6,.92-1.15,1.27-1.92Zm2.52-4.76c-.36,1.51-.93,2.8-1.45,4.18,1.04,.14,1.94,.45,2.94,.87-.65-1.68-1.01-3.31-1.5-5.04Z" />
    <path class="cls-1"
        d="M168.76,72.38c.15,.24-.02,.37-.12,.5-1.74,2.18-5.26,2.1-6.84-.21-1.23-1.8-1.42-3.75-.37-5.71,.74-1.38,1.97-2.11,3.51-2.31,1.01-.13,1.99,.07,2.92,.46,1.31,.55,1.84,1.93,1.2,3.09-.41,.73-1.13,.97-1.87,1.03-1.2,.09-2.4,.12-3.6-.09-.27-.05-.55-.09-.89,.05-.09,1.64,.34,3.07,1.71,4.09,1.01,.75,2.71,.64,3.75-.35,.19-.18,.34-.43,.61-.54Zm-5.98-3.98c.88,.26,1.73,.21,2.57,.18,.33-.01,.66-.09,.97-.19,.68-.23,1.13-.91,1.1-1.59-.03-.67-.51-1.31-1.13-1.5-.98-.3-2.12,.09-2.73,.93-.47,.64-.73,1.34-.78,2.17Z" />
    <path class="cls-1"
        d="M130.46,72.47c-.14,.37-.38,.67-.68,.93-1.63,1.37-4.11,1.38-5.72,0-.74-.63-1.17-1.47-1.43-2.4-.35-1.27-.34-2.51,.23-3.72,.89-1.88,2.92-2.98,5.15-2.59,.58,.1,1.15,.23,1.68,.52,1.08,.59,1.53,1.74,1.08,2.78-.36,.84-1.11,1.13-1.91,1.22-1.14,.14-2.3,.11-3.44-.06-.33-.05-.65-.09-.96-.03-.4,.45-.12,.92-.07,1.35,.11,.99,.53,1.88,1.29,2.53,1.34,1.14,2.96,.96,4.23-.19,.14-.13,.27-.28,.4-.43,.05,.03,.1,.06,.15,.09Zm-6.09-4.07c1.17,.28,2.28,.28,3.39,.03,.2-.04,.38-.15,.56-.25,.68-.37,.73-1,.66-1.66-.07-.62-.43-1.06-1.02-1.21-.73-.18-1.48-.16-2.14,.3-.95,.67-1.27,1.66-1.45,2.78Z" />
    <path class="cls-1"
        d="M90.21,73.69c.42,.38,.96,.3,1.32,.65-.8,.17-4.1,.14-4.69-.05,.42-.28,.92-.24,1.33-.55v-8.13c-.32-.3-.8-.2-1.17-.52,.45-.29,.94-.1,1.38-.18,.48-.08,.95-.15,1.4-.22,.38,.16,.44,.44,.43,.77-.01,.64,0,1.27,0,2.03,1.18-1.2,2.42-2.13,4.06-2.4,.23,.5-.11,.79-.37,1.07-.23,.25-.57,.34-.88,.44-.97,.32-1.79,.87-2.49,1.61-.18,.19-.33,.38-.32,.66,0,1.61,0,3.21,0,4.82Z" />
    <path class="cls-1"
        d="M105.52,66.75c-.23-.22-.43-.42-.64-.6-1.05-.91-2.8-1.03-3.94-.24-.85,.59-1.21,1.5-1.46,2.45-.3,1.18-.13,2.33,.34,3.44,.5,1.18,1.39,1.91,2.69,1.98,1.06,.05,2.01-.32,2.75-1.13,.09-.1,.13-.3,.33-.22,.11,.1,.07,.19,0,.27-1.11,1.38-2.58,1.93-4.29,1.7-2.72-.37-4.05-2.67-3.9-4.95,.1-1.51,.69-2.75,1.81-3.75,1.66-1.48,4.81-1.23,6.24,.55,.09,.11,.22,.23,.07,.49Z" />
</svg>
