<svg width="149" height="40" viewBox="0 0 149 40" fill="none" xmlns="http://www.w3.org/2000/svg">
    <path
        d="M39.5632 20.2021C39.4932 20.9321 39.4032 21.652 39.3732 22.382C39.3232 23.422 39.0432 24.412 38.8232 25.412C38.6832 26.022 38.4332 26.6221 38.1932 27.2021C37.9332 27.8521 37.6532 28.502 37.3332 29.132C36.7632 30.242 36.0932 31.292 35.3232 32.272C34.6532 33.112 33.9232 33.892 33.1432 34.622C32.2332 35.472 31.2232 36.202 30.1632 36.852C29.1032 37.502 27.9932 38.0721 26.8032 38.4621C26.1632 38.6721 25.5232 38.902 24.8732 39.072C24.2732 39.232 23.6532 39.332 23.0432 39.432C22.4032 39.532 21.7532 39.5921 21.1032 39.6521C20.7232 39.6821 20.3432 39.692 19.9632 39.672C19.2632 39.632 18.5632 39.572 17.8632 39.482C17.2332 39.402 16.6032 39.312 15.9832 39.172C15.3232 39.022 14.6632 38.842 14.0332 38.612C13.2732 38.332 12.5332 38.002 11.7932 37.672C10.8632 37.252 10.0132 36.712 9.17321 36.122C7.97322 35.272 6.88321 34.302 5.90321 33.212C4.76321 31.932 3.79322 30.532 3.05322 28.982C2.77322 28.392 2.49321 27.812 2.24321 27.212C2.07321 26.792 1.95321 26.342 1.82321 25.902C1.68321 25.442 1.54322 24.972 1.41322 24.502C1.35322 24.282 1.36322 24.042 1.30322 23.822C1.07322 23.092 1.06322 22.332 1.02322 21.572C0.983221 20.962 0.943214 20.352 0.953214 19.752C0.953214 19.202 1.03321 18.642 1.07321 18.092C1.07321 17.982 1.09321 17.872 1.10321 17.772C1.10321 17.432 1.11322 17.092 1.25322 16.772C1.30322 16.652 1.32322 16.512 1.33322 16.372C1.38322 15.772 1.58321 15.212 1.76321 14.642C2.00321 13.912 2.24322 13.182 2.55322 12.472C3.06322 11.292 3.69322 10.172 4.42322 9.11202C5.26322 7.88202 6.24322 6.79205 7.33322 5.79205C8.02322 5.16205 8.74321 4.56202 9.54321 4.08202C10.1032 3.75202 10.6332 3.37202 11.2032 3.08202C11.8732 2.73202 12.5732 2.43204 13.2632 2.13204C13.9732 1.82204 14.7132 1.62202 15.4632 1.42202C16.2932 1.21202 17.1232 1.04205 17.9732 0.95205C18.8532 0.86205 19.7232 0.772026 20.6032 0.802026C21.7232 0.842026 22.8432 0.922021 23.9432 1.17202C24.6532 1.33202 25.3732 1.49205 26.0632 1.70205C26.9832 1.98205 27.8632 2.36205 28.7232 2.79205C29.5032 3.18205 30.2532 3.60203 30.9632 4.09203C32.0032 4.81203 32.9732 5.60204 33.8632 6.50204C34.7332 7.37204 35.5232 8.29204 36.1932 9.31204C36.8232 10.272 37.4332 11.262 37.8532 12.332C38.1732 13.132 38.4832 13.942 38.7532 14.762C38.9232 15.282 38.9932 15.842 39.1132 16.382C39.1532 16.582 39.2232 16.772 39.2432 16.972C39.3932 18.042 39.5432 19.112 39.5532 20.212L39.5632 20.2021ZM33.8832 30.782C33.9832 30.662 34.0632 30.582 34.1132 30.502C34.5432 29.832 34.9932 29.172 35.3832 28.472C35.6932 27.922 35.9432 27.332 36.1832 26.742C36.4232 26.152 36.6332 25.5521 36.8232 24.9521C36.9532 24.5521 37.0532 24.142 37.1232 23.732C37.2832 22.882 37.3532 22.022 37.4232 21.152C37.5032 20.112 37.3532 19.092 37.3632 18.072C37.3632 18.022 37.3432 17.962 37.3332 17.912C37.1932 17.242 37.0732 16.562 36.9232 15.892C36.8632 15.602 36.7532 15.322 36.6632 15.042C36.5232 14.602 36.4232 14.152 36.2332 13.732C35.9232 13.022 35.5732 12.332 35.2132 11.652C34.5332 10.352 33.6432 9.19204 32.6232 8.13204C32.2632 7.76204 31.8932 7.40202 31.4932 7.08202C30.8632 6.57202 30.2332 6.05202 29.5532 5.61202C28.5532 4.97202 27.5032 4.41203 26.3832 3.99203C24.8032 3.39203 23.1732 3.01202 21.4832 2.92202C21.4032 2.92202 21.3332 2.95204 21.2132 2.97204C21.2432 3.10204 21.2532 3.22202 21.2932 3.33202C21.6432 4.54202 21.9832 5.75203 22.3432 6.96203C22.6432 7.96203 22.9432 8.95204 23.2632 9.94204C23.5432 10.802 23.8632 11.652 24.1632 12.502C24.4632 13.342 24.7332 14.182 25.0532 15.022C25.3832 15.892 25.7432 16.752 26.1132 17.612C26.6632 18.912 27.2032 20.212 27.7832 21.492C28.1932 22.392 28.6432 23.272 29.1332 24.122C29.7032 25.102 30.3132 26.062 30.9532 27.002C31.6432 28.022 32.3932 29.002 33.1332 29.992C33.3432 30.272 33.6032 30.502 33.8632 30.782H33.8832ZM18.8832 3.02203C18.6932 3.01203 18.5732 2.98203 18.4532 2.99203C17.8632 3.05203 17.2632 3.08203 16.6832 3.21203C15.6232 3.45203 14.5932 3.76203 13.5832 4.18203C12.5732 4.60203 11.6332 5.12203 10.7332 5.71203C9.38321 6.60203 8.18321 7.68203 7.12321 8.90203C6.87321 9.19203 6.62321 9.47204 6.40321 9.78204C5.54321 11.032 4.77321 12.322 4.20321 13.742C3.82321 14.682 3.53322 15.652 3.33322 16.642C3.19322 17.362 3.08322 18.102 3.02322 18.852C2.92322 20.022 3.03321 21.182 3.07321 22.342C3.07321 22.422 3.09322 22.502 3.11322 22.582C3.25322 23.232 3.39322 23.872 3.52322 24.522C3.66322 25.222 3.90322 25.902 4.16322 26.562C4.33322 27.002 4.55321 27.422 4.73321 27.852C5.10321 28.712 5.65321 29.472 6.15321 30.252C6.18321 30.292 6.23322 30.322 6.30322 30.372C6.39322 30.292 6.49321 30.232 6.57321 30.142C6.82321 29.862 7.08321 29.572 7.31321 29.272C8.15321 28.162 8.98322 27.042 9.83322 25.932C10.6432 24.882 11.3532 23.762 12.0432 22.632C12.1032 22.542 12.1232 22.422 12.1832 22.282C11.7332 22.252 11.3332 22.182 10.9532 22.212C10.2932 22.262 9.63322 22.272 8.97322 22.412C8.23322 22.562 7.54322 22.802 6.86322 23.112C6.38322 23.332 5.94322 23.642 5.55322 23.992C5.46322 24.072 5.37322 24.202 5.19322 24.132C5.23322 23.872 5.41321 23.722 5.56321 23.562C6.77321 22.252 8.32322 21.552 10.0232 21.132C10.9432 20.902 11.8732 20.732 12.8332 20.712C12.9932 20.712 13.0732 20.632 13.1232 20.492C13.3532 19.882 13.6032 19.282 13.8532 18.682C14.3632 17.412 14.8832 16.152 15.3832 14.882C15.5932 14.352 15.7832 13.822 15.9532 13.272C16.2432 12.372 16.5132 11.462 16.7832 10.562C17.0732 9.62204 17.3732 8.68203 17.6532 7.74203C17.8632 7.01203 18.0532 6.28203 18.2532 5.55203C18.3732 5.12203 18.5132 4.70203 18.6232 4.27203C18.7232 3.88203 18.7832 3.48204 18.8732 3.03204L18.8832 3.02203ZM30.5232 34.112C30.4132 34.002 30.3632 33.932 30.3132 33.882C29.9232 33.492 29.5132 33.112 29.1332 32.712C28.4732 32.012 27.8332 31.292 27.1832 30.592C26.6132 29.972 26.0432 29.352 25.4532 28.762C24.9932 28.292 24.5232 27.822 24.0032 27.402C23.4732 26.962 22.8932 26.582 22.3232 26.192C21.3232 25.502 20.3132 24.832 19.2032 24.312C18.1632 23.832 17.0932 23.462 15.9932 23.172C15.5132 23.042 15.0232 22.932 14.5332 22.812C14.2532 22.742 14.1732 22.762 14.0232 23.002C13.8332 23.312 13.6832 23.652 13.5032 23.972C12.8832 25.082 12.2832 26.202 11.6432 27.302C10.8232 28.702 9.98321 30.092 9.15321 31.492C8.95321 31.832 8.71322 32.142 8.50322 32.472C8.33322 32.742 8.32322 32.772 8.56321 32.982C9.10322 33.452 9.63321 33.952 10.2132 34.352C11.1532 35.012 12.1032 35.652 13.1932 36.062C13.9832 36.352 14.7532 36.672 15.5532 36.932C16.0532 37.092 16.5932 37.1221 17.0932 37.2721C17.6432 37.4321 18.2032 37.482 18.7732 37.492C18.9732 37.492 19.1832 37.522 19.3732 37.552C19.9432 37.652 20.5032 37.652 21.0732 37.552C21.2732 37.522 21.4732 37.482 21.6732 37.492C22.5732 37.512 23.4432 37.2821 24.3132 37.0921C24.8132 36.9821 25.3132 36.8321 25.7932 36.6521C26.5132 36.3821 27.2432 36.1221 27.9332 35.7721C28.6432 35.4121 29.3132 34.972 29.9832 34.552C30.1632 34.442 30.3132 34.282 30.5132 34.122L30.5232 34.112ZM19.2932 8.94204C19.2932 8.94204 19.2332 8.96204 19.2132 8.97204C19.0832 9.46204 18.9632 9.96205 18.8232 10.4521C18.6232 11.142 18.4032 11.822 18.1732 12.502C17.8332 13.512 17.5132 14.532 17.1232 15.522C16.4732 17.172 15.7832 18.802 15.1032 20.442C15.0632 20.552 15.0332 20.662 14.9932 20.772C16.0232 20.982 17.0232 21.142 18.0032 21.392C18.9732 21.642 19.9232 21.962 20.8732 22.272C21.8232 22.582 22.7032 23.082 23.6032 23.542C23.1632 22.352 22.7232 21.202 22.3032 20.052C22.1732 19.702 22.0732 19.332 21.9732 18.972C21.8032 18.392 21.6432 17.802 21.4732 17.222C21.3432 16.792 21.2032 16.3721 21.0732 15.9521C20.9732 15.6321 20.8832 15.302 20.8032 14.982C20.6632 14.442 20.5332 13.912 20.4032 13.372C20.0832 12.082 19.7732 10.802 19.4532 9.51205C19.4032 9.32205 19.3532 9.13205 19.2932 8.95205V8.94204Z"
        fill="#E0E4EC" />
    <path
        d="M86.1832 7.40198C86.2632 7.37198 86.3432 7.32198 86.4332 7.31198C86.7832 7.27198 87.1332 7.25198 87.4832 7.22198C87.8632 7.19198 88.2432 7.16197 88.6132 7.11197C89.0932 7.04197 89.3132 7.21197 89.3132 7.71197C89.3132 9.08197 89.3132 10.452 89.3132 11.822C89.3132 12.072 89.3132 12.332 89.3132 12.652C89.4532 12.572 89.5332 12.542 89.6032 12.492C90.2432 11.962 91.0132 11.752 91.8232 11.702C92.4232 11.662 93.0132 11.702 93.5732 11.962C94.1732 12.242 94.6032 12.672 94.8632 13.292C95.1032 13.862 95.1632 14.442 95.1632 15.032C95.1632 16.482 95.1632 17.932 95.1632 19.382C95.1632 20.002 95.2232 20.072 95.8432 20.232C95.9532 20.262 96.0532 20.272 96.1532 20.322C96.2732 20.372 96.3732 20.452 96.5532 20.562C96.3932 20.622 96.3132 20.672 96.2232 20.682C96.0332 20.712 95.8432 20.732 95.6532 20.732C94.6532 20.732 93.6432 20.732 92.6432 20.732C92.4032 20.732 92.1632 20.732 91.9332 20.592C92.0332 20.382 92.2032 20.342 92.3732 20.282C92.4732 20.252 92.5832 20.242 92.6932 20.212C93.2532 20.082 93.3432 19.952 93.3432 19.382C93.3432 17.782 93.3432 16.182 93.3432 14.582C93.3432 14.102 93.2232 13.662 93.0432 13.242C92.8332 12.772 92.3032 12.292 91.5032 12.452C90.8632 12.582 90.2532 12.812 89.7232 13.212C89.4332 13.432 89.2832 13.672 89.2832 14.062C89.3032 15.822 89.2832 17.582 89.2932 19.342C89.2932 19.962 89.3832 20.072 89.9932 20.212C90.2432 20.262 90.4832 20.322 90.6832 20.582C90.5532 20.622 90.4632 20.672 90.3632 20.672C89.0132 20.672 87.6532 20.672 86.3032 20.652C86.2332 20.652 86.1632 20.602 86.0032 20.552C86.1832 20.442 86.2832 20.362 86.3932 20.312C86.5332 20.262 86.6832 20.232 86.8232 20.202C87.3632 20.082 87.4732 19.962 87.4732 19.412C87.4732 15.812 87.4732 12.202 87.4732 8.60199C87.4732 8.52199 87.4732 8.44197 87.4732 8.36197C87.4832 8.10197 87.3532 7.96197 87.1132 7.89197C86.8832 7.82197 86.6532 7.74198 86.4232 7.65198C86.3232 7.61198 86.2432 7.55198 86.1532 7.50198C86.1532 7.47198 86.1532 7.43198 86.1532 7.40198H86.1832Z"
        fill="#E0E4EC" />
    <path
        d="M133.183 19.3121C133.043 19.3421 132.943 19.3521 132.853 19.3721C131.953 19.5721 131.033 19.6221 130.143 19.4421C128.653 19.1321 127.483 18.322 126.783 16.922C126.593 16.532 126.483 16.122 126.453 15.672C126.413 14.972 126.493 14.2921 126.713 13.6321C126.903 13.0621 127.233 12.5721 127.643 12.1221C128.233 11.4821 128.913 10.9921 129.743 10.7121C130.313 10.5221 130.903 10.4921 131.503 10.5421C132.283 10.6021 132.993 10.8521 133.643 11.2421C134.163 11.5521 134.653 11.9221 135.033 12.4121C135.113 12.5221 135.163 12.662 135.223 12.772C135.053 12.902 134.983 12.8221 134.903 12.7421C134.513 12.3621 134.093 12.0321 133.603 11.7821C132.883 11.4121 132.143 11.2321 131.333 11.3521C130.403 11.4921 129.683 11.9421 129.193 12.7321C128.843 13.2921 128.713 13.9421 128.663 14.5921C128.633 14.9821 128.653 15.3821 128.653 15.772C128.653 16.272 128.783 16.7321 128.963 17.1921C129.233 17.8621 129.763 18.252 130.393 18.552C130.803 18.752 131.253 18.7821 131.693 18.8421C132.083 18.8921 132.473 18.8021 132.833 18.6321C133.093 18.5121 133.203 18.3221 133.203 18.022C133.183 17.302 133.203 16.5821 133.203 15.8721C133.203 15.1821 133.183 14.492 133.203 13.802C133.233 13.072 132.823 12.5921 132.343 12.1321C132.253 12.0521 132.153 11.9821 132.043 11.9021C132.203 11.7421 132.363 11.7821 132.523 11.8221C133.463 12.0421 134.173 12.6121 134.793 13.3121C134.993 13.5421 135.083 13.8121 135.083 14.1321C135.073 15.9721 135.083 17.8221 135.083 19.6621C135.083 20.8421 134.673 21.8721 133.903 22.7321C133.303 23.4021 132.503 23.7421 131.603 23.8221C131.143 23.8621 130.683 23.8521 130.223 23.8221C129.283 23.7521 128.493 23.3321 127.803 22.7021C127.773 22.6721 127.733 22.642 127.723 22.612C127.713 22.522 127.723 22.4321 127.713 22.3521C127.803 22.3521 127.903 22.322 127.963 22.362C128.263 22.542 128.533 22.7921 128.843 22.9421C129.523 23.2621 130.223 23.3621 130.973 23.1521C131.313 23.0521 131.643 22.9521 131.943 22.7521C132.503 22.3821 132.823 21.8621 132.973 21.2121C133.083 20.7121 133.233 20.2121 133.193 19.6921C133.193 19.5821 133.173 19.4821 133.153 19.3221L133.183 19.3121Z"
        fill="#E0E4EC" />
    <path
        d="M117.133 7.13208C117.233 7.43208 117.363 7.72208 117.433 8.01208C117.813 9.58209 118.323 11.1121 118.863 12.6321C119.233 13.6721 119.733 14.6721 120.183 15.6821C120.533 16.4821 121.043 17.1821 121.553 17.8821C122.163 18.7121 122.913 19.4221 123.793 19.9721C123.973 20.0821 124.143 20.2121 124.323 20.3421C124.213 20.5321 124.033 20.5521 123.883 20.5821C122.803 20.8421 121.803 20.6921 120.983 19.8921C120.253 19.1721 119.573 18.3921 118.833 17.6821C118.133 17.0121 117.313 16.5121 116.413 16.1421C116.103 16.0121 115.773 15.9421 115.453 15.8421C115.073 15.7221 115.003 15.7421 114.803 16.1021C114.543 16.5521 114.293 17.0021 114.053 17.4521C113.553 18.3721 112.983 19.2421 112.313 20.0421C112.123 20.2721 111.833 20.4321 111.583 20.6121C111.443 20.7121 111.303 20.6721 111.183 20.5521C110.883 20.2621 110.853 19.8921 111.143 19.5321C111.433 19.1821 111.743 18.8321 112.053 18.4921C112.793 17.7121 113.403 16.8321 113.993 15.9421C114.053 15.8521 114.073 15.7521 114.133 15.6221C113.693 15.5321 113.303 15.6021 112.903 15.6421C112.483 15.6821 112.223 16.0521 111.773 16.2021C111.823 16.0521 111.833 15.9621 111.873 15.9321C112.073 15.7721 112.263 15.5821 112.483 15.4721C113.053 15.1921 113.653 14.9821 114.293 14.9321C114.503 14.9121 114.613 14.8121 114.683 14.6421C114.983 13.8821 115.293 13.1321 115.553 12.3721C115.833 11.5621 116.063 10.7421 116.303 9.92206C116.503 9.23206 116.663 8.53207 116.833 7.84207C116.873 7.70207 116.863 7.54207 116.883 7.40207C116.893 7.28207 116.903 7.15207 117.133 7.12207V7.13208ZM116.843 10.9521C116.353 12.2921 115.873 13.6221 115.383 14.9721C115.733 15.0421 116.053 15.1021 116.383 15.1821C116.693 15.2621 117.003 15.3521 117.313 15.4521C117.623 15.5621 117.923 15.6821 118.303 15.8321C117.643 14.2021 117.313 12.5621 116.843 10.9421V10.9521Z"
        fill="#E0E4EC" />
    <path
        d="M60.9333 20.3521C60.1933 20.7021 59.4933 20.8321 58.7633 20.6021C58.2433 20.4421 57.8033 20.172 57.4333 19.782C56.8033 19.132 56.1733 18.4821 55.5433 17.8221C55.4233 17.6921 55.3033 17.562 55.1633 17.462C54.3833 16.872 53.5833 16.3221 52.6433 16.0121C52.3833 15.9321 52.1233 15.852 51.8633 15.802C51.7633 15.782 51.6233 15.842 51.5433 15.912C51.4533 15.982 51.3933 16.102 51.3333 16.212C50.8633 17.022 50.4233 17.852 49.9233 18.632C49.5633 19.202 49.1233 19.7221 48.7133 20.2621C48.6633 20.3221 48.5933 20.372 48.5333 20.422C48.1833 20.692 47.9133 20.712 47.6933 20.502C47.4233 20.242 47.4133 19.9521 47.6933 19.6021C47.9333 19.2921 48.1933 19.002 48.4633 18.712C49.3333 17.792 50.0833 16.792 50.7533 15.652C50.3133 15.542 49.9033 15.622 49.4933 15.672C49.0633 15.722 48.7833 16.0621 48.3933 16.2021C48.3733 16.1821 48.3533 16.1521 48.3333 16.132C48.4433 16.002 48.5233 15.842 48.6533 15.752C48.9633 15.552 49.2733 15.352 49.6133 15.242C50.0133 15.102 50.4533 15.0221 50.8733 14.9521C51.0633 14.9221 51.1733 14.832 51.2333 14.672C51.4233 14.182 51.6133 13.6921 51.8033 13.2021C51.8933 12.9721 51.9833 12.752 52.0533 12.522C52.3533 11.602 52.6533 10.672 52.9333 9.74203C53.0733 9.28203 53.1633 8.80205 53.2733 8.32205C53.3533 7.96205 53.4233 7.61204 53.5033 7.25204C53.5133 7.20204 53.5533 7.16204 53.6033 7.09204C53.6733 7.17204 53.7433 7.22204 53.7533 7.28204C53.9233 7.86204 54.0733 8.45205 54.2433 9.04205C54.4233 9.65205 54.6233 10.2521 54.8133 10.8521C54.9333 11.2321 55.0733 11.622 55.2033 12.002C55.3833 12.512 55.5433 13.022 55.7533 13.522C56.1133 14.362 56.4733 15.212 56.9033 16.022C57.5833 17.292 58.3933 18.472 59.5233 19.392C59.9033 19.702 60.3133 19.962 60.7033 20.242C60.7633 20.292 60.8333 20.322 60.9033 20.362L60.9333 20.3521ZM53.3433 10.962C53.2833 11.192 53.2333 11.422 53.1533 11.642C52.8033 12.632 52.5033 13.6521 52.0333 14.6021C51.9833 14.7021 51.9833 14.822 51.9533 14.972C52.3133 15.042 52.6333 15.102 52.9433 15.182C53.2533 15.262 53.5733 15.3421 53.8733 15.4521C54.1733 15.5521 54.4633 15.682 54.7533 15.802C54.7733 15.782 54.7933 15.762 54.8233 15.742C54.2233 14.192 53.8533 12.582 53.3333 10.962H53.3433Z"
        fill="#E0E4EC" />
    <path
        d="M105.203 15.492C104.493 15.412 103.783 15.322 103.063 15.252C102.793 15.222 102.523 15.2021 102.253 15.2021C101.973 15.2021 101.933 15.252 101.913 15.532C101.863 16.032 101.983 16.512 102.103 16.972C102.283 17.702 102.563 18.382 103.113 18.932C103.513 19.332 103.963 19.642 104.513 19.782C104.813 19.862 105.093 20.0221 105.423 19.9521C105.683 19.9021 105.943 19.822 106.203 19.752C106.713 19.632 107.153 19.382 107.533 19.022C107.683 18.882 107.823 18.732 107.953 18.582C108.033 18.492 108.133 18.4121 108.223 18.5121C108.273 18.5721 108.263 18.7221 108.223 18.7921C107.853 19.3521 107.363 19.812 106.773 20.122C106.053 20.502 105.273 20.742 104.433 20.692C103.493 20.642 102.643 20.342 101.873 19.782C100.893 19.052 100.383 18.052 100.113 16.902C100.013 16.482 99.9533 16.052 99.8933 15.622C99.8233 15.052 99.9533 14.492 100.103 13.942C100.473 12.642 101.303 11.712 102.453 11.062C103.023 10.732 103.633 10.552 104.303 10.522C104.793 10.502 105.283 10.482 105.763 10.562C106.793 10.732 107.773 11.032 108.423 11.942C109.113 12.912 108.783 14.372 107.743 14.932C107.143 15.252 106.493 15.362 105.833 15.412C105.633 15.432 105.423 15.412 105.223 15.412V15.462L105.203 15.492ZM103.703 14.5421V14.592C104.283 14.542 104.863 14.5221 105.443 14.4521C105.863 14.4021 106.213 14.1821 106.433 13.8221C106.723 13.3621 106.783 12.852 106.643 12.332C106.413 11.492 105.673 11.172 104.803 11.172C104.213 11.172 103.683 11.442 103.213 11.812C102.503 12.382 102.253 13.192 102.073 14.032C102.063 14.082 102.073 14.142 102.073 14.192C102.073 14.352 102.143 14.4521 102.293 14.4821C102.413 14.5121 102.533 14.522 102.653 14.532C103.003 14.532 103.353 14.532 103.713 14.532L103.703 14.5421Z"
        fill="#E0E4EC" />
    <path
        d="M139.483 15.442C139.403 14.352 139.783 13.362 140.403 12.472C140.943 11.702 141.703 11.182 142.573 10.822C143.293 10.522 144.033 10.502 144.803 10.532C145.323 10.552 145.823 10.662 146.313 10.812C146.873 10.982 147.393 11.242 147.793 11.702C148.453 12.452 148.563 13.452 148.003 14.332C147.723 14.782 147.253 15.022 146.753 15.182C145.793 15.472 144.813 15.502 143.813 15.372C143.193 15.292 142.583 15.232 141.963 15.192C141.493 15.162 141.443 15.212 141.473 15.692C141.563 17.002 141.923 18.212 142.923 19.152C143.233 19.442 143.603 19.642 144.013 19.752C144.193 19.802 144.373 19.892 144.553 19.912C144.793 19.942 145.033 19.922 145.273 19.912C145.363 19.912 145.453 19.842 145.543 19.822C146.263 19.712 146.813 19.322 147.303 18.812C147.393 18.712 147.483 18.612 147.593 18.532C147.643 18.492 147.783 18.482 147.803 18.512C147.843 18.572 147.873 18.702 147.843 18.752C147.663 19.002 147.473 19.262 147.243 19.462C146.833 19.822 146.403 20.152 145.893 20.342C144.953 20.692 144.003 20.842 143.003 20.532C142.203 20.292 141.523 19.902 140.923 19.322C140.503 18.912 140.263 18.402 140.013 17.892C139.633 17.132 139.463 16.312 139.483 15.432V15.442ZM143.303 14.532C143.683 14.532 144.063 14.552 144.443 14.532C144.823 14.512 145.183 14.432 145.533 14.262C146.403 13.832 146.703 12.282 145.753 11.572C145.373 11.282 144.913 11.132 144.423 11.152C143.673 11.192 143.033 11.522 142.543 12.072C142.023 12.662 141.733 13.372 141.643 14.162C141.623 14.372 141.673 14.452 141.893 14.502C142.013 14.532 142.133 14.532 142.253 14.532C142.603 14.532 142.953 14.532 143.303 14.532Z"
        fill="#E0E4EC" />
    <path
        d="M68.1033 20.5621C67.9433 20.7021 67.7433 20.7121 67.5633 20.7121C66.2933 20.7121 65.0133 20.7121 63.7433 20.7121C63.5633 20.7121 63.3733 20.6521 63.1533 20.6221C63.2933 20.3421 63.5333 20.3221 63.7433 20.2521C63.9433 20.1921 64.1533 20.1221 64.3633 20.0621C64.5833 20.0021 64.6533 19.8421 64.6433 19.6321C64.6433 19.5521 64.6433 19.4721 64.6433 19.3921C64.6433 16.9721 64.6433 14.5421 64.6433 12.1221C64.6433 12.0521 64.6433 11.9821 64.6433 11.9221C64.6333 11.5521 64.5833 11.5021 64.2133 11.3921C63.9833 11.3221 63.7533 11.2421 63.5233 11.1521C63.4633 11.1221 63.3833 11.0421 63.3933 10.9821C63.3933 10.9221 63.4833 10.8621 63.5533 10.8321C63.6233 10.8021 63.7133 10.8021 63.7933 10.8121C64.5633 10.8221 65.3333 10.7821 66.0933 10.5921C66.4533 10.5021 66.7533 10.7721 66.7633 11.1621C66.7733 11.7621 66.7633 12.3521 66.7633 12.9521C66.7633 13.0821 66.7633 13.2221 66.7633 13.4321C67.0133 13.2021 67.2033 13.0221 67.3933 12.8421C68.2333 12.0221 69.2233 11.4521 70.3333 11.1021C70.4833 11.0521 70.6533 11.0321 70.8133 11.0121C71.0133 10.9821 71.1133 11.0721 71.0633 11.2621C70.9933 11.5021 70.8933 11.7521 70.7633 11.9621C70.5433 12.2921 70.2133 12.4621 69.8433 12.5821C68.7333 12.9321 67.7833 13.5121 66.9833 14.3721C66.8333 14.5321 66.7633 14.7021 66.7733 14.9221C66.7733 16.4821 66.7733 18.0321 66.7733 19.5921C66.7733 19.8621 66.8533 20.0321 67.1233 20.1021C67.3333 20.1621 67.5333 20.2321 67.7433 20.2921C67.8933 20.3421 68.0533 20.3721 68.1233 20.5721L68.1033 20.5621Z"
        fill="#E0E4EC" />
    <path
        d="M76.1933 15.8221C76.2333 16.7521 76.5033 17.782 77.1533 18.692C77.5433 19.242 78.0533 19.612 78.7133 19.782C79.0133 19.852 79.2933 19.982 79.6233 19.972C80.1433 19.952 80.6233 19.772 81.1033 19.592C81.6033 19.402 81.9833 19.072 82.3333 18.682C82.3633 18.652 82.3833 18.6121 82.4233 18.6021C82.4933 18.5821 82.5733 18.5821 82.6433 18.5721C82.6433 18.6621 82.7033 18.7721 82.6633 18.8221C82.5133 19.0321 82.3633 19.242 82.1733 19.412C81.6833 19.862 81.1133 20.232 80.4833 20.432C79.7733 20.652 79.0533 20.782 78.2833 20.672C77.4433 20.542 76.6833 20.272 76.0133 19.772C75.2433 19.212 74.7633 18.4421 74.4133 17.5721C74.0233 16.5821 74.0333 15.5721 74.2533 14.5721C74.5733 13.1321 75.3233 11.932 76.6433 11.192C77.5933 10.662 78.6133 10.432 79.7333 10.662C80.7133 10.862 81.5533 11.252 82.2633 11.942C82.4233 12.102 82.5633 12.2921 82.6933 12.4821C82.7233 12.5321 82.7033 12.672 82.6733 12.692C82.6033 12.722 82.4933 12.722 82.4233 12.692C82.3333 12.642 82.2733 12.542 82.2033 12.462C81.3133 11.472 79.6333 11.0721 78.4033 11.6021C77.5833 11.9521 77.0433 12.572 76.7033 13.372C76.3933 14.102 76.2133 14.862 76.2033 15.832L76.1933 15.8221Z"
        fill="#E0E4EC" />
    <path
        d="M92.8431 26.1121C92.8931 25.8621 93.0431 25.8621 93.1731 25.8621C93.9631 25.8621 94.7431 25.8621 95.5331 25.8621C95.6531 25.8621 95.7831 25.8621 95.8331 26.0321C95.7831 26.2021 95.6132 26.2021 95.4832 26.2521C95.1032 26.4021 95.0732 26.4221 95.0732 26.8021C95.0732 28.6621 95.0732 30.5121 95.0732 32.3721C95.0732 32.7521 95.0931 32.7721 95.4631 32.8621C95.5831 32.8921 95.7032 32.8921 95.8232 32.9321C95.9632 32.9821 96.1031 33.0521 96.2731 33.1321C95.9031 33.3721 93.7631 33.3921 93.0331 33.1921C93.0131 33.0221 93.1332 32.9721 93.2632 32.9221C93.6832 32.7621 93.6831 32.7521 93.6831 32.3121C93.6831 31.5921 93.6831 30.8721 93.6831 30.1621C93.6831 29.7121 93.5831 29.6121 93.1331 29.6021C92.4131 29.6021 91.6932 29.6021 90.9832 29.6021C90.5232 29.6021 90.3831 29.7521 90.3731 30.2221C90.3631 30.9221 90.3731 31.6321 90.3731 32.3321C90.3731 32.7021 90.4331 32.7621 90.8031 32.8521C90.9031 32.8821 91.0231 32.8821 91.1231 32.9121C91.2531 32.9521 91.3831 33.0221 91.5631 33.1021C91.2831 33.3421 90.9931 33.2421 90.7531 33.2821C90.4931 33.3321 90.2131 33.3021 89.9431 33.3121C89.6731 33.3121 89.4031 33.3221 89.1331 33.3121C88.8631 33.3021 88.6032 33.2521 88.3232 33.2221C88.3232 32.9821 88.4631 32.9421 88.6031 32.9021C89.0431 32.7521 89.0432 32.7521 89.0432 32.3021C89.0432 30.5121 89.0432 28.7221 89.0432 26.9421C89.0432 26.4221 89.0031 26.3921 88.4931 26.2521C88.3131 26.2021 88.1431 26.1421 87.9631 26.0921C87.9931 25.8521 88.1332 25.8521 88.2632 25.8521C88.7632 25.8521 89.2632 25.8521 89.7632 25.8521C90.0832 25.8521 90.4132 25.8421 90.7332 25.8521C90.8732 25.8521 91.0431 25.8221 91.1231 26.0721C91.0031 26.1321 90.8831 26.2121 90.7531 26.2521C90.4831 26.3421 90.3531 26.5121 90.3531 26.7921C90.3531 27.3221 90.3531 27.8521 90.3531 28.3721C90.3531 28.7721 90.4231 28.8321 90.8031 28.8321C91.6331 28.8321 92.4531 28.8321 93.2831 28.8321C93.6131 28.8321 93.6631 28.7821 93.6731 28.4521C93.6831 27.8721 93.6731 27.2921 93.6731 26.7021C93.6731 26.4821 93.5731 26.3521 93.3631 26.2821C93.1831 26.2221 93.0132 26.1621 92.8232 26.0921L92.8431 26.1121Z"
        fill="#E0E4EC" />
    <path
        d="M125.443 26.0721C125.443 25.8721 125.573 25.8521 125.703 25.8521C125.933 25.8521 126.163 25.8521 126.393 25.8521C127.043 25.8521 127.693 25.8421 128.343 25.8521C128.983 25.8621 129.623 25.8521 130.243 25.9521C131.563 26.1521 132.623 26.7421 133.173 28.0321C133.433 28.6521 133.443 29.3021 133.343 29.9521C133.113 31.3221 132.303 32.2821 131.093 32.9021C130.423 33.2521 129.703 33.3821 128.933 33.2721C128.453 33.2021 127.993 33.1221 127.593 32.8621C127.053 32.5021 126.723 32.0021 126.723 31.3421C126.713 29.9921 126.723 28.6321 126.723 27.2821C126.723 27.1621 126.723 27.0421 126.723 26.9121C126.713 26.5421 126.603 26.4021 126.243 26.3021C126.063 26.2521 125.873 26.2221 125.693 26.1821C125.603 26.1621 125.533 26.1121 125.463 26.0821L125.443 26.0721ZM128.013 29.2121C128.013 29.8221 128.013 30.4321 128.013 31.0421C128.013 31.3421 128.053 31.6321 128.103 31.9221C128.183 32.3921 128.493 32.6421 128.973 32.6721C129.203 32.6821 129.433 32.6721 129.663 32.6721C130.503 32.7021 131.403 32.0521 131.703 31.1421C131.923 30.4821 132.043 29.7921 131.913 29.0721C131.703 27.9321 131.183 27.0421 130.063 26.6121C129.563 26.4221 129.033 26.3621 128.503 26.4421C128.153 26.4921 128.043 26.6321 128.013 26.9821C128.003 27.1021 128.003 27.2221 128.003 27.3421C128.003 27.9621 128.003 28.5821 128.003 29.2121H128.013Z"
        fill="#E0E4EC" />
    <path
        d="M77.4532 30.8221C77.4732 30.6021 77.5032 30.4721 77.5032 30.3421C77.5032 29.1721 77.5032 28.0121 77.5032 26.8421C77.5032 26.4021 77.4732 26.3821 77.0532 26.2421C76.9532 26.2121 76.8432 26.1721 76.7432 26.1321C76.7032 26.1221 76.6832 26.0821 76.6632 26.0721C76.6432 25.8921 76.7532 25.8521 76.8632 25.8521C77.4832 25.8521 78.1132 25.8521 78.7332 25.8521C78.8032 25.8521 78.8832 25.9321 79.0332 26.0221C78.8332 26.1221 78.7032 26.1921 78.5732 26.2421C78.1532 26.4021 78.1532 26.4021 78.1532 26.8621C78.1532 28.0921 78.1532 29.3321 78.1532 30.5621C78.1532 31.2621 78.1532 31.9721 78.1532 32.6721C78.1532 32.7821 78.1532 32.8921 78.1432 32.9921C78.1132 33.2021 77.9732 33.2621 77.7932 33.1421C77.7132 33.0921 77.6532 33.0121 77.5832 32.9421C76.7632 32.0421 75.9432 31.1421 75.1132 30.2421C74.4532 29.5221 73.8032 28.7921 73.1532 28.0721C73.0432 27.9521 72.9332 27.8521 72.7632 27.6821C72.7332 27.8621 72.6932 27.9621 72.6932 28.0521C72.6932 29.4621 72.6932 30.8721 72.6932 32.2821C72.6932 32.6721 72.7432 32.7321 73.1432 32.8321C73.2632 32.8621 73.3832 32.8721 73.5032 32.8921C73.6232 32.9121 73.6232 32.9221 73.7632 33.1021C73.4132 33.3521 71.9032 33.3821 71.2832 33.1521C71.2432 32.9921 71.3532 32.9421 71.4732 32.9121C71.8999 32.7788 72.1132 32.4921 72.1132 32.0521C72.1132 30.6121 72.1132 29.1821 72.1132 27.7421C72.1132 27.4221 72.0632 27.1121 71.9032 26.8421C71.7332 26.5421 71.4932 26.3121 71.1432 26.2021C71.0232 26.1621 70.9032 26.1121 70.7932 26.0721C70.7932 25.8721 70.9032 25.8421 71.0132 25.8421C71.2332 25.8421 71.4432 25.8321 71.6632 25.8421C71.9332 25.8621 72.2032 25.8821 72.4732 25.9121C72.9632 25.9721 73.3232 26.2721 73.6332 26.6121C74.4032 27.4521 75.1432 28.3121 75.8932 29.1621C76.3032 29.6221 76.7232 30.0821 77.1432 30.5421C77.2032 30.6121 77.2832 30.6621 77.4432 30.7921L77.4532 30.8221Z"
        fill="#E0E4EC" />
    <path
        d="M116.353 30.712C116.353 30.592 116.383 30.472 116.383 30.352C116.383 29.192 116.383 28.022 116.383 26.862C116.383 26.422 116.353 26.392 115.943 26.262C115.793 26.212 115.643 26.162 115.423 26.092C115.523 25.982 115.573 25.892 115.643 25.882C115.783 25.852 115.943 25.852 116.083 25.852C116.533 25.852 116.973 25.852 117.423 25.852C117.563 25.852 117.723 25.832 117.803 26.012C117.723 26.202 117.543 26.202 117.403 26.262C117.003 26.412 116.963 26.452 116.963 26.882C116.963 28.792 116.963 30.702 116.963 32.612C116.963 32.752 116.963 32.882 116.953 33.022C116.923 33.242 116.783 33.292 116.623 33.132C116.373 32.882 116.143 32.622 115.903 32.362C114.833 31.192 113.773 30.022 112.703 28.852C112.433 28.552 112.153 28.252 111.873 27.952C111.793 27.872 111.703 27.802 111.573 27.682C111.553 27.842 111.523 27.932 111.523 28.022C111.523 29.442 111.523 30.862 111.523 32.292C111.523 32.732 111.563 32.772 111.983 32.852C112.143 32.882 112.303 32.912 112.453 32.962C112.513 32.982 112.553 33.082 112.563 33.142C112.563 33.172 112.473 33.242 112.413 33.252C111.843 33.272 111.283 33.292 110.713 33.302C110.503 33.302 110.293 33.252 110.003 33.212C110.123 33.082 110.163 33.012 110.233 32.972C110.303 32.932 110.393 32.932 110.473 32.912C110.903 32.802 110.933 32.772 110.933 32.342C110.933 30.732 110.933 29.122 110.933 27.502C110.933 26.932 110.593 26.472 110.053 26.262C109.943 26.222 109.833 26.162 109.723 26.112C109.703 26.112 109.703 26.062 109.673 26.002C109.743 25.962 109.813 25.882 109.893 25.872C110.473 25.842 111.053 25.872 111.623 26.022C111.943 26.102 112.203 26.312 112.423 26.552C113.033 27.232 113.653 27.922 114.263 28.612C114.833 29.242 115.403 29.882 115.973 30.512C116.063 30.612 116.163 30.682 116.263 30.772C116.293 30.752 116.323 30.742 116.353 30.722V30.712Z"
        fill="#E0E4EC" />
    <path
        d="M118.723 25.9821C118.843 25.9321 118.913 25.902 118.973 25.882C119.033 25.862 119.103 25.8521 119.173 25.8521C120.403 25.8521 121.643 25.8521 122.873 25.8521C123.143 25.8521 123.413 25.892 123.683 25.932C124.023 25.982 124.293 26.162 124.443 26.472C124.493 26.562 124.513 26.682 124.503 26.782C124.503 26.932 124.383 26.992 124.243 26.912C124.173 26.872 124.123 26.8021 124.053 26.7621C123.843 26.6121 123.613 26.502 123.343 26.502C122.813 26.502 122.283 26.492 121.753 26.502C121.423 26.502 121.353 26.582 121.343 26.922C121.333 27.412 121.333 27.902 121.343 28.382C121.343 28.742 121.443 28.832 121.813 28.842C122.183 28.842 122.543 28.842 122.913 28.842C123.233 28.842 123.273 28.792 123.363 28.492C123.463 28.162 123.463 28.162 123.703 27.972C123.723 28.002 123.763 28.032 123.763 28.062C123.763 28.762 123.773 29.472 123.773 30.172C123.773 30.252 123.743 30.322 123.723 30.422C123.473 30.332 123.453 30.112 123.383 29.942C123.243 29.582 123.203 29.532 122.843 29.522C122.503 29.512 122.163 29.512 121.823 29.522C121.423 29.542 121.343 29.622 121.343 30.002C121.343 30.542 121.333 31.082 121.343 31.632C121.343 31.822 121.393 32.012 121.453 32.182C121.573 32.532 121.733 32.632 122.093 32.622C122.713 32.602 123.293 32.482 123.833 32.142C124.133 31.952 124.343 31.702 124.543 31.432C124.603 31.342 124.663 31.262 124.733 31.172C124.943 31.252 124.933 31.3921 124.923 31.5421C124.863 32.2421 124.473 32.712 123.893 33.052C123.663 33.182 123.423 33.242 123.153 33.242C122.193 33.252 121.233 33.292 120.273 33.302C119.943 33.302 119.603 33.252 119.263 33.222C119.253 33.002 119.373 32.962 119.503 32.912C119.993 32.742 120.033 32.692 120.033 32.192C120.033 30.432 120.033 28.672 120.033 26.912C120.033 26.472 119.983 26.4121 119.553 26.2921C119.383 26.2421 119.213 26.212 119.043 26.162C118.973 26.142 118.913 26.082 118.723 25.972V25.9821Z"
        fill="#E0E4EC" />
    <path
        d="M61.4133 26.102C61.4633 25.852 61.6333 25.862 61.7733 25.862C62.1533 25.862 62.5333 25.862 62.9133 25.862C63.3733 25.862 63.8333 25.862 64.2933 25.862C64.4433 25.862 64.6033 25.852 64.6733 26.092C64.5133 26.152 64.3633 26.222 64.2033 26.272C63.8933 26.382 63.8333 26.432 63.8333 26.772C63.8333 28.082 63.8133 29.402 63.8533 30.712C63.8833 31.612 64.3033 32.332 65.2133 32.582C66.0533 32.822 67.1233 32.802 67.7433 32.062C67.8633 31.922 67.9933 31.762 68.0533 31.592C68.2233 31.112 68.3833 30.612 68.3833 30.092C68.3833 29.022 68.3933 27.952 68.3933 26.882C68.3933 26.422 68.3733 26.392 67.9333 26.252C67.7833 26.202 67.6333 26.152 67.4133 26.082C67.5533 25.982 67.6233 25.882 67.6933 25.882C68.3333 25.882 68.9633 25.882 69.6033 25.882C69.6533 25.882 69.6933 25.962 69.7933 26.042C69.6333 26.132 69.5133 26.212 69.3833 26.262C69.1433 26.342 69.0533 26.512 69.0533 26.752C69.0533 27.442 69.0633 28.132 69.0533 28.822C69.0533 29.142 69.0033 29.472 68.9733 29.792C68.9533 30.032 68.9233 30.272 68.9033 30.522C68.8133 31.322 68.5633 32.042 67.9733 32.632C67.6733 32.932 67.3233 33.122 66.9233 33.232C66.1033 33.472 65.2633 33.452 64.4333 33.282C63.4433 33.072 62.7633 32.312 62.6133 31.332C62.5033 30.582 62.4633 29.822 62.4633 29.062C62.4633 28.342 62.4633 27.622 62.4633 26.912C62.4633 26.462 62.4033 26.392 61.9533 26.262C61.7833 26.212 61.6033 26.152 61.4333 26.092L61.4133 26.102Z"
        fill="#E0E4EC" />
    <path
        d="M86.2132 31.6321C86.3832 31.8121 86.2832 31.9221 86.2032 32.0221C85.8632 32.4621 85.4132 32.7621 84.9232 32.9921C84.1632 33.3521 83.3532 33.3521 82.5732 33.2021C81.7032 33.0321 80.9932 32.4921 80.5132 31.7321C80.1132 31.0921 79.8332 30.3921 79.8732 29.6221C79.9532 28.0121 80.6732 26.7721 82.1332 26.0321C82.6332 25.7821 83.1932 25.7221 83.7632 25.7721C84.7332 25.8521 85.5632 26.2421 86.1932 27.0021C86.2932 27.1221 86.3932 27.2221 86.2232 27.4221C86.1132 27.3221 86.0032 27.2221 85.9032 27.1321C85.3632 26.6321 84.7332 26.3321 84.0032 26.3521C83.1032 26.3821 82.3932 26.7821 81.9732 27.6121C81.6232 28.3021 81.4432 29.0321 81.5132 29.8121C81.5732 30.5321 81.7832 31.2321 82.2232 31.8121C82.6432 32.3521 83.1832 32.6821 83.9232 32.6921C84.7332 32.7021 85.4032 32.4321 85.9532 31.8521C86.0232 31.7721 86.1132 31.7221 86.2232 31.6421L86.2132 31.6321Z"
        fill="#E0E4EC" />
    <path
        d="M101.163 25.442C101.213 25.562 101.273 25.682 101.313 25.802C101.393 26.042 101.453 26.292 101.533 26.542C101.803 27.382 102.043 28.222 102.353 29.042C102.643 29.822 103.013 30.582 103.473 31.292C103.913 31.962 104.463 32.502 105.123 32.952C105.193 33.002 105.253 33.072 105.353 33.172C105.223 33.232 105.133 33.282 105.033 33.302C104.383 33.422 103.793 33.342 103.303 32.852C103.033 32.572 102.753 32.292 102.493 31.992C101.943 31.352 101.243 30.922 100.463 30.622C100.033 30.452 99.8431 30.552 99.6231 30.972C99.2731 31.642 98.9031 32.302 98.4231 32.892C98.3231 33.022 98.2031 33.132 98.0731 33.232C97.8931 33.362 97.7231 33.352 97.5931 33.232C97.4331 33.082 97.4131 32.942 97.5731 32.732C97.7231 32.532 97.9131 32.342 98.0731 32.142C98.4631 31.642 98.8531 31.142 99.2431 30.642C99.2931 30.582 99.3031 30.502 99.3431 30.412C98.8731 30.192 98.5431 30.552 98.1131 30.622C98.1631 30.542 98.1931 30.432 98.2631 30.382C98.4931 30.212 98.7331 30.062 99.0331 30.062C99.4131 30.062 99.6331 29.872 99.7831 29.512C100.293 28.312 100.643 27.062 100.933 25.802C100.963 25.692 101.003 25.582 101.043 25.472C101.083 25.472 101.113 25.472 101.153 25.462L101.163 25.442ZM100.133 29.962C100.683 30.112 101.173 30.252 101.713 30.402C101.453 29.522 101.213 28.672 100.953 27.782C100.663 28.552 100.403 29.252 100.133 29.972V29.962Z"
        fill="#E0E4EC" />
    <path
        d="M146.323 29.552C146.323 29.552 146.273 29.582 146.253 29.582C145.513 29.642 144.773 29.702 144.033 29.752C143.443 29.792 142.843 29.802 142.253 29.842C141.753 29.882 141.263 29.962 140.763 29.992C140.193 30.032 139.633 30.042 139.063 30.082C138.823 30.092 138.583 30.142 138.343 30.172C138.233 30.182 138.133 30.222 138.023 30.222C137.223 30.262 136.433 30.292 135.633 30.322C135.443 30.322 135.253 30.362 135.073 30.372C134.823 30.392 134.713 30.312 134.703 30.052C134.693 29.692 134.693 29.322 134.703 28.952C134.703 28.652 134.773 28.582 135.073 28.602C135.453 28.622 135.823 28.672 136.203 28.702C136.773 28.742 137.333 28.782 137.903 28.822C138.683 28.882 139.463 28.952 140.243 29.012C140.423 29.022 140.593 29.052 140.773 29.052C141.793 29.052 142.793 29.122 143.803 29.272C144.333 29.352 144.883 29.292 145.423 29.322C145.733 29.342 146.033 29.402 146.343 29.442C146.343 29.472 146.343 29.502 146.343 29.532L146.323 29.552Z"
        fill="#E0E4EC" />
    <path
        d="M49.5032 29.492C49.7632 29.442 50.0232 29.372 50.2832 29.352C50.5332 29.322 50.7932 29.332 51.0532 29.342C51.8932 29.362 52.7232 29.192 53.5532 29.132C53.6432 29.132 53.7432 29.102 53.8332 29.112C54.9332 29.132 56.0232 29.002 57.1132 28.872C57.2432 28.852 57.3832 28.852 57.5232 28.862C58.5532 28.892 59.5732 28.742 60.5932 28.642C60.9932 28.602 61.0732 28.662 61.0832 29.062C61.0832 29.402 61.0832 29.742 61.0832 30.072C61.0832 30.342 61.0032 30.392 60.7232 30.382C60.3332 30.362 59.9432 30.352 59.5532 30.332C58.9632 30.302 58.3532 30.332 57.7732 30.222C56.6832 30.032 55.5932 30.102 54.5032 30.002C54.4232 30.002 54.3332 30.0021 54.2632 29.9821C53.7532 29.8021 53.2132 29.882 52.6932 29.842C52.0332 29.792 51.3732 29.712 50.7232 29.652C50.4632 29.632 50.2132 29.632 49.9532 29.612C49.8132 29.612 49.6732 29.602 49.5232 29.592C49.5232 29.562 49.5232 29.532 49.5232 29.502L49.5032 29.492Z"
        fill="#E0E4EC" />
    <path
        d="M108.923 33.242C107.963 33.322 107.003 33.402 106.023 33.212C106.063 32.982 106.213 32.952 106.353 32.902C106.753 32.762 106.783 32.7321 106.783 32.3221C106.783 30.4921 106.783 28.662 106.783 26.842C106.783 26.472 106.713 26.4021 106.363 26.2921C106.153 26.2221 105.933 26.162 105.633 26.082C105.763 25.972 105.823 25.902 105.893 25.872C105.983 25.842 106.083 25.8521 106.173 25.8521C106.873 25.8521 107.583 25.8521 108.283 25.8521C108.433 25.8521 108.613 25.812 108.703 25.992C108.683 26.182 108.523 26.192 108.403 26.242C108.163 26.332 108.063 26.492 108.073 26.742C108.073 26.792 108.073 26.852 108.073 26.902C108.073 28.692 108.073 30.4721 108.073 32.2621C108.073 32.3021 108.073 32.3421 108.073 32.3821C108.083 32.7321 108.133 32.7921 108.483 32.8821C108.573 32.9121 108.673 32.9121 108.753 32.9521C108.833 32.9921 108.903 33.082 108.973 33.142C108.953 33.172 108.933 33.2021 108.913 33.2321L108.923 33.242Z"
        fill="#E0E4EC" />
</svg>
