<?xml version="1.0" encoding="UTF-8"?>
<svg id="_Слой_1" data-name="Слой 1" xmlns="http://www.w3.org/2000/svg" viewBox="0 0 196 136">
    <defs>
        <style>
            .cls-1 {
            fill: #d4d4d4;
            }
        </style>
    </defs>
    <polygon class="cls-1" points="40.21 103.09 62.96 103.09 63.83 101.76 53.42 85.64 40.21 103.09" />
    <polygon class="cls-1"
        points="75.33 83.76 110.92 83.76 102.28 64.02 100.53 64.02 100.53 71.81 82.84 71.81 95.52 51.62 86.14 39.76 54.62 84.22 65.19 100.92 71.67 100.92 68.17 95.17 75.33 83.76" />
    <polygon class="cls-1"
        points="139.05 85.64 128.64 101.76 129.51 103.09 152.26 103.09 139.05 85.64" />
    <polygon class="cls-1"
        points="106.33 39.76 96.95 51.62 124.3 95.17 120.8 100.92 127.28 100.92 137.85 84.22 106.33 39.76" />
    <polygon class="cls-1"
        points="105.84 38.48 105.84 30.77 96.23 30.77 86.63 30.77 86.63 38.48 96.23 50.85 105.84 38.48" />
    <polygon class="cls-1"
        points="77.59 91.67 73.51 101.05 75.88 101.05 78.74 94.45 81.58 101.05 83.93 101.05 79.91 91.67 77.59 91.67" />
    <path class="cls-1"
        d="M97.9,97.14c1.02,0,1.86-.83,1.86-1.86v-1.76c0-1.02-.83-1.86-1.86-1.86h-5.26v2.17h4.95v1.14h-4.98v6.07h2.17v-3.84l2.74,3.84h2.66l-2.78-3.91h.51Z" />
    <polygon class="cls-1"
        points="117.51 91.67 114.73 91.67 111.98 95.06 111.98 91.67 109.82 91.67 109.82 95.02 111.98 97.64 114.75 101.05 117.53 101.05 113.7 96.35 117.51 91.67" />
</svg>
