<?xml version="1.0" encoding="UTF-8"?>
<svg id="_Слой_1" data-name="Слой 1" xmlns="http://www.w3.org/2000/svg" viewBox="0 0 196 136">
    <defs>
        <style>
            .cls-1 {
            fill: #d4d4d4;
            }
        </style>
    </defs>
    <path class="cls-1"
        d="M75.89,47.54h13.53s.04,8.72,.04,8.72c0,.07-.06,.13-.14,.13h-10.31c-.15,0-.27-.12-.27-.27h0s0-5.54,0-5.54c0-.08-.04-.16-.11-.22-1-.86-1.91-1.79-2.73-2.81Z" />
    <path class="cls-1"
        d="M93.26,47.52h10.7v8.67c-.01,.11-.11,.19-.22,.19h-10.32c-.12,0-.21-.09-.21-.2,0,0,0,0,0,0l.05-8.66Z" />
    <path class="cls-1"
        d="M107.77,47.52h13.44l.08,.09s.02,.12-.04,.17l-2.73,2.54c-.06,.06-.1,.15-.1,.25v5.7c0,.07-.1,.12-.21,.12h-10.32c-.09,0-.16-.07-.17-.17-.09-2.92-.08-5.82,.04-8.7Z" />
    <path class="cls-1"
        d="M118.34,72.53c-.07,.02-3.46,12.22-3.8,13.41-.03,.1-.11,.17-.2,.17h-6.37c-.14,0-.27-.1-.31-.25-.32-1.14-3.57-13.13-3.59-13.12-.05,0-.1,.07-.1,.14l.02,12.89c0,.19-.14,.35-.32,.35h-21.75c-.12,0-.21-.1-.21-.22,0,0,0,0,0,0,.01-2.97,0-5.94-.02-8.9-.02-2.19-.84-2.14-2.75-2.09-.08,0-.14,.06-.14,.13v10.81c0,.15-.13,.27-.29,.27h-14.95c-.23,0-.41-.18-.41-.41h0v-6.22c.01-.17-.14-.31-.32-.31-.01,0-.02,0-.03,0-1.27,.11-2.54,.12-3.81,.03-.07,0-.13,.06-.16,.15l-1.58,6.48c-.04,.16-.19,.27-.36,.27h-13.35c-.15,0-.28-.12-.28-.26,0-.03,0-.05,.01-.08l10.16-31.37c.03-.1,.09-.16,.14-.16h20.94c.11,0,.21,.07,.21,.15h0v4.29c0,.15,.11,.27,.25,.27h0c3.83,0,7.7,0,11.59,0,2.78,0,5.46,.8,6.45,3.73,.03,.09,.08,.14,.14,.14,.06,0,.11-.08,.11-.19,0,0,0,0,0,0l-.04-3.53c0-.07,.09-.14,.19-.14,0,0,0,0,0,0h14.2c.09,0,.17,.06,.19,.16l3.01,10.64c.08,.27,.16,.25,.25-.06l2.97-10.61c.02-.08,.09-.13,.16-.13h7.9c.23,0,.42-.18,.42-.4h0v-4.09c0-.13,.09-.23,.21-.23h20.73c.18,0,.33,.12,.39,.3l10.11,31.24c.04,.14-.04,.29-.18,.33-.03,0-.06,.01-.08,.01h-13.37c-.14,0-.26-.08-.29-.2l-1.6-6.5c-.04-.15-.17-.25-.32-.23-1.29,.11-2.59,.11-3.88,.02-.07,0-.13,.08-.14,.18,0,0,0,0,0,.01v6.51c0,.11-.09,.21-.21,.21h-15.24c-.13,0-.23-.09-.23-.21h0v-13.3s-.03-.07-.06-.07c0,0,0,0,0,0Zm-57.79-.37c.76-.11,1.66,0,2.45-.05,.08,0,.15-.06,.15-.14v-10.04c0-.13-.03-.15-.1-.06-.02,.03-.04,.07-.05,.11-.87,3.31-1.75,6.63-2.63,9.97-.02,.09,.03,.18,.12,.21,.02,0,.04,0,.07,0Zm73.58-9.49c-.07,3.09-.08,6.2-.01,9.31,0,.11,.05,.2,.11,.19l2.47-.02c.1,0,.17-.09,.17-.2,0-.02,0-.04,0-.05-.91-3.31-1.78-6.63-2.6-9.96-.01-.06-.03-.1-.06-.12-.08-.06-.11-.04-.09,.09,.03,.25,.04,.51,.04,.76Zm-53.11,2.63c-.68-.21-1.37-.26-2.08-.17-.08,.01-.14,.09-.14,.19v3.46c0,.09,.05,.16,.12,.17,0,0,0,0,0,0l1.73-.04c.6-.01,.91-.29,.92-.82l.03-1.96c0-.44-.19-.71-.58-.83Zm7.96,6.29c2.1,.59,3.44,1.91,4.03,3.97,.02,.08,.05,.13,.09,.17,.08,.07,.12,.02,.12-.13l.02-7.64c0-.07-.03-.13-.08-.14,0,0,0,0-.01,0-.04,0-.07,.04-.08,.09-.67,1.97-2.01,3.15-4.02,3.57-.19,.04-.22,.08-.08,.12Z" />
    <path class="cls-1"
        d="M89.36,97.41l-13.51-.02,2.77-2.82c.07-.07,.11-.15,.11-.22v-5.54c0-.15,.12-.28,.28-.28h10.25c.11,0,.21,.1,.21,.22,0,0,0,0,0,0l-.1,8.65Z" />
    <path class="cls-1"
        d="M103.89,97.4h-10.64l-.02-8.7c0-.09,.08-.17,.17-.17h10.12c.26,0,.48,.21,.48,.46,0,0,0,0,0,0l-.11,8.4Z" />
    <path class="cls-1"
        d="M121.26,97.39h-13.53s-.02-8.69-.02-8.69c0-.09,.08-.17,.17-.17h10.32c.11,0,.2,.1,.2,.22h0s0,5.59,0,5.59c0,.09,.04,.17,.1,.23,.99,.86,1.91,1.79,2.74,2.8Z" />
</svg>
