<svg width="146" height="41" viewBox="0 0 146 41" fill="none" xmlns="http://www.w3.org/2000/svg">
    <path d="M137.285 34.4525H121.155V34.8225H137.285V34.4525Z" fill="#E0E4EC" />
    <path d="M30.8356 34.4525H14.7056V34.8225H30.8356V34.4525Z" fill="#E0E4EC" />
    <path
        d="M101.955 20.0526C101.915 19.3226 101.915 7.11256 101.955 6.37256C101.995 5.59256 102.285 4.9626 103.515 4.6626H98.0151C99.2451 4.9626 99.5351 5.60256 99.5751 6.37256C99.6151 7.10256 99.6151 19.3126 99.5751 20.0526C99.5351 20.8326 99.2451 21.4626 98.0151 21.7726H103.515C102.285 21.4726 101.995 20.8326 101.955 20.0526Z"
        fill="#E0E4EC" />
    <path
        d="M119.995 4.6626C119.995 4.6626 121.845 4.68254 122.065 7.35254V17.0226C118.025 13.1126 108.895 4.38257 108.895 4.38257V19.0826C108.675 21.7526 106.815 21.7526 106.825 21.7726H113.145C113.145 21.7726 110.775 21.6426 110.775 18.8026V18.6025V9.60254C111.675 10.5925 123.685 21.8526 123.925 22.0726L123.945 7.81256V7.62256C123.945 4.78256 126.325 4.68259 126.315 4.65259H119.995V4.6626Z"
        fill="#E0E4EC" />
    <path
        d="M23.3654 24.0625L13.9954 0.58252L3.67537 26.2725C2.96537 28.0425 -0.0146384 28.3325 0.0153616 28.3825H5.65536L13.1354 8.4425L20.6254 28.3825H28.2254C28.2254 28.3825 25.3454 28.2025 23.3754 24.0625H23.3654Z"
        fill="#E0E4EC" />
    <path
        d="M66.0752 18.9025L59.8052 3.20251L52.9052 20.3825C52.4352 21.5625 50.4352 21.7625 50.4552 21.7925H54.2252L59.2252 8.46252L64.2352 21.7925H69.3152C69.3152 21.7925 67.3952 21.6725 66.0752 18.9025Z"
        fill="#E0E4EC" />
    <path
        d="M128.515 8.27252C128.415 7.55252 127.945 4.38251 130.705 2.26251C129.645 1.83251 130.485 0.442505 130.485 0.442505C130.485 0.442505 127.415 2.81253 128.515 8.28253V8.27252Z"
        fill="#E0E4EC" />
    <path d="M19.4751 21.1925H6.24512V22.4225H19.4751V21.1925Z" fill="#E0E4EC" />
    <path d="M63.8153 16.4625H54.9854V17.2025H63.8153V16.4625Z" fill="#E0E4EC" />
    <path
        d="M34.6451 39.0024C33.1551 37.6924 32.7651 35.9925 32.7651 34.5225C32.7651 33.4925 33.0851 31.6924 34.5451 30.3624C35.6351 29.3624 37.0852 28.7524 39.3452 28.7524C40.2852 28.7524 40.8551 28.8125 41.5451 28.9025C42.1251 28.9825 42.6051 29.1125 43.0651 29.1625C43.2351 29.1825 43.2951 29.2525 43.2951 29.3425C43.2951 29.4625 43.2451 29.6424 43.2151 30.1824C43.1851 30.6824 43.2051 31.5224 43.1651 31.8224C43.1451 32.0524 43.1151 32.1724 42.9851 32.1724C42.8651 32.1724 42.8351 32.0525 42.8351 31.8425C42.8151 31.3725 42.6251 30.8424 42.2451 30.4424C41.7451 29.9124 40.5552 29.5024 39.1552 29.5024C37.8352 29.5024 36.9651 29.8324 36.2951 30.4424C35.1851 31.4624 34.8951 32.9024 34.8951 34.3824C34.8951 38.0024 37.6452 39.7924 39.6852 39.7924C41.0352 39.7924 41.8551 39.6424 42.4651 38.9424C42.7251 38.6524 42.9251 38.2124 42.9851 37.9424C43.0351 37.7024 43.0652 37.6425 43.1852 37.6425C43.2951 37.6425 43.3251 37.7524 43.3251 37.8724C43.3251 38.0524 43.1451 39.3825 42.9951 39.8925C42.9151 40.1525 42.8551 40.2225 42.6051 40.3325C41.9951 40.5725 40.8451 40.6824 39.8651 40.6824C37.7851 40.6824 36.0352 40.2225 34.6552 39.0225L34.6451 39.0024Z"
        fill="#E0E4EC" />
    <path
        d="M53.6452 33.3624C53.6452 31.0524 53.6452 30.6224 53.6152 30.1424C53.5852 29.6224 53.4652 29.3824 52.9652 29.2724C52.8452 29.2424 52.5852 29.2224 52.3752 29.2224C52.2052 29.2224 52.1152 29.1924 52.1152 29.0824C52.1152 28.9724 52.2252 28.9424 52.4452 28.9424C53.2552 28.9424 54.2052 28.9924 54.5252 28.9924C55.0452 28.9924 56.1952 28.9424 56.6652 28.9424C57.6252 28.9424 58.6452 29.0324 59.4652 29.5924C59.8952 29.8824 60.4952 30.6524 60.4952 31.6724C60.4952 32.7924 60.0252 33.8324 58.4852 35.0724C59.8352 36.7724 60.8852 38.1224 61.7852 39.0724C62.6352 39.9524 63.2552 40.0624 63.4852 40.1024C63.6552 40.1324 63.7852 40.1424 63.9152 40.1424C64.0452 40.1424 64.0952 40.1924 64.0952 40.2624C64.0952 40.3824 63.9852 40.4124 63.8052 40.4124H62.3652C61.5152 40.4124 61.1352 40.3324 60.7352 40.1224C60.0852 39.7724 59.5052 39.0624 58.6552 37.8924C58.0452 37.0524 57.3452 36.0224 57.1552 35.7924C57.0752 35.7024 56.9852 35.6824 56.8852 35.6824L55.5652 35.6524C55.4852 35.6524 55.4452 35.6824 55.4452 35.7724V35.9824C55.4452 37.3924 55.4452 38.5924 55.5252 39.2324C55.5752 39.6724 55.6652 40.0124 56.1152 40.0724C56.3452 40.1024 56.6752 40.1324 56.8552 40.1324C56.9752 40.1324 57.0352 40.1824 57.0352 40.2524C57.0352 40.3624 56.9252 40.4024 56.7352 40.4024C55.8552 40.4024 54.7252 40.3524 54.5052 40.3524C54.2152 40.3524 53.2552 40.4024 52.6552 40.4024C52.4552 40.4024 52.3552 40.3524 52.3552 40.2524C52.3552 40.1724 52.4152 40.1324 52.5952 40.1324C52.8252 40.1324 53.0052 40.1024 53.1452 40.0724C53.4452 40.0124 53.5252 39.6824 53.5852 39.2324C53.6652 38.5924 53.6652 37.3924 53.6652 35.9924V33.3124L53.6452 33.3624ZM55.4352 34.5624C55.4352 34.7324 55.4652 34.7924 55.5752 34.8324C55.8952 34.9424 56.3552 34.9824 56.7352 34.9824C57.3452 34.9824 57.5452 34.9224 57.8152 34.7224C58.2752 34.3924 58.7152 33.6924 58.7152 32.4424C58.7152 30.2824 57.2852 29.6624 56.3852 29.6624C56.0052 29.6624 55.7352 29.6724 55.5752 29.7224C55.4652 29.7524 55.4352 29.8124 55.4352 29.9324V34.5524V34.5624Z"
        fill="#E0E4EC" />
    <path
        d="M73.2151 33.3625C73.2151 31.0525 73.2151 30.6225 73.1851 30.1425C73.1551 29.6225 73.035 29.3825 72.535 29.2725C72.415 29.2425 72.155 29.2225 71.945 29.2225C71.775 29.2225 71.6851 29.1925 71.6851 29.0825C71.6851 28.9725 71.795 28.9425 72.015 28.9425C72.425 28.9425 72.8651 28.9525 73.2451 28.9525C73.6351 28.9725 73.985 28.9825 74.205 28.9825C74.695 28.9825 77.715 28.9825 78.005 28.9725C78.295 28.9425 78.5351 28.9125 78.6551 28.8825C78.7351 28.8625 78.825 28.8225 78.8951 28.8225C78.9651 28.8225 78.985 28.8825 78.985 28.9625C78.985 29.0725 78.9051 29.2525 78.8651 29.9525C78.8551 30.1025 78.825 30.7725 78.785 30.9525C78.775 31.0325 78.735 31.1225 78.635 31.1225C78.535 31.1225 78.4951 31.0425 78.4951 30.9125C78.4951 30.8025 78.4751 30.5425 78.4051 30.3625C78.2951 30.0925 78.145 29.9025 77.385 29.8125C77.125 29.7825 75.535 29.7525 75.225 29.7525C75.145 29.7525 75.1151 29.8025 75.1151 29.9025V33.7525C75.1151 33.8625 75.125 33.9225 75.225 33.9225C75.555 33.9225 77.3051 33.9225 77.6551 33.8925C78.0251 33.8625 78.245 33.8125 78.385 33.6625C78.495 33.5425 78.5551 33.4625 78.6251 33.4625C78.6851 33.4625 78.735 33.4925 78.735 33.5825C78.735 33.6725 78.6751 33.9125 78.6151 34.6925C78.6051 34.9925 78.5551 35.6025 78.5551 35.7125C78.5551 35.8325 78.555 36.0025 78.415 36.0025C78.305 36.0025 78.2751 35.9425 78.2751 35.8625C78.2551 35.7125 78.2551 35.5125 78.2151 35.3125C78.1351 35.0125 77.9251 34.7825 77.3651 34.7225C77.0751 34.6925 75.575 34.6725 75.205 34.6725C75.125 34.6725 75.1151 34.7325 75.1151 34.8225V36.0225C75.1151 36.5425 75.0951 37.9425 75.1151 38.3825C75.1451 39.4325 75.3851 39.6625 76.9351 39.6625C77.3251 39.6625 77.9651 39.6625 78.3651 39.4825C78.7651 39.3025 78.945 38.9825 79.045 38.3625C79.075 38.1925 79.1051 38.1325 79.2151 38.1325C79.3351 38.1325 79.3351 38.2525 79.3351 38.4025C79.3351 38.7525 79.215 39.7825 79.135 40.0925C79.025 40.4925 78.895 40.4925 78.315 40.4925C77.175 40.4925 76.3351 40.4625 75.6851 40.4425C75.0351 40.4125 74.565 40.3925 74.105 40.3925C73.935 40.3925 73.605 40.3925 73.235 40.4025C72.885 40.4025 72.4851 40.4325 72.1851 40.4325C71.9851 40.4325 71.885 40.3825 71.885 40.2825C71.885 40.2025 71.9451 40.1625 72.1251 40.1625C72.3551 40.1625 72.535 40.1325 72.675 40.1025C72.975 40.0425 73.0551 39.7125 73.1151 39.2625C73.1951 38.6225 73.195 37.4225 73.195 36.0225V33.3425L73.2151 33.3625Z"
        fill="#E0E4EC" />
    <path
        d="M90.9153 33.3625C90.9153 31.0525 90.9153 30.6225 90.8853 30.1425C90.8553 29.6225 90.7353 29.3825 90.2353 29.2725C90.1153 29.2425 89.8553 29.2225 89.6453 29.2225C89.4753 29.2225 89.3853 29.1925 89.3853 29.0825C89.3853 28.9725 89.4953 28.9425 89.7153 28.9425C90.1253 28.9425 90.5653 28.9525 90.9453 28.9525C91.3353 28.9725 91.6853 28.9825 91.9053 28.9825C92.3953 28.9825 95.4153 28.9825 95.7053 28.9725C95.9953 28.9425 96.2353 28.9125 96.3553 28.8825C96.4353 28.8625 96.5253 28.8225 96.5953 28.8225C96.6653 28.8225 96.6853 28.8825 96.6853 28.9625C96.6853 29.0725 96.6052 29.2525 96.5652 29.9525C96.5552 30.1025 96.5253 30.7725 96.4953 30.9525C96.4753 31.0325 96.4453 31.1225 96.3453 31.1225C96.2453 31.1225 96.2053 31.0425 96.2053 30.9125C96.2053 30.8025 96.1853 30.5425 96.1153 30.3625C96.0053 30.0925 95.8553 29.9025 95.0953 29.8125C94.8353 29.7825 93.2453 29.7525 92.9353 29.7525C92.8553 29.7525 92.8253 29.8025 92.8253 29.9025V33.7525C92.8253 33.8625 92.8353 33.9225 92.9353 33.9225C93.2653 33.9225 95.0153 33.9225 95.3653 33.8925C95.7253 33.8625 95.9553 33.8125 96.0953 33.6625C96.2053 33.5425 96.2653 33.4625 96.3353 33.4625C96.3953 33.4625 96.4453 33.4925 96.4453 33.5825C96.4453 33.6725 96.3853 33.9125 96.3253 34.6925C96.3053 34.9925 96.2653 35.6025 96.2653 35.7125C96.2653 35.8325 96.2653 36.0025 96.1253 36.0025C96.0153 36.0025 95.9853 35.9425 95.9853 35.8625C95.9653 35.7125 95.9653 35.5125 95.9253 35.3125C95.8453 35.0125 95.6353 34.7825 95.0753 34.7225C94.7853 34.6925 93.2853 34.6725 92.9153 34.6725C92.8353 34.6725 92.8253 34.7325 92.8253 34.8225V36.0225C92.8253 36.5425 92.8053 37.9425 92.8253 38.3825C92.8553 39.4325 93.0953 39.6625 94.6453 39.6625C95.0353 39.6625 95.6753 39.6625 96.0753 39.4825C96.4653 39.3025 96.6552 38.9825 96.7552 38.3625C96.7852 38.1925 96.8153 38.1325 96.9253 38.1325C97.0453 38.1325 97.0453 38.2525 97.0453 38.4025C97.0453 38.7525 96.9253 39.7825 96.8453 40.0925C96.7353 40.4925 96.6053 40.4925 96.0253 40.4925C94.8853 40.4925 94.0453 40.4625 93.3953 40.4425C92.7453 40.4125 92.2752 40.3925 91.8152 40.3925C91.6452 40.3925 91.3153 40.3925 90.9453 40.4025C90.5953 40.4025 90.2053 40.4325 89.8953 40.4325C89.6953 40.4325 89.5953 40.3825 89.5953 40.2825C89.5953 40.2025 89.6553 40.1625 89.8353 40.1625C90.0653 40.1625 90.2453 40.1325 90.3853 40.1025C90.6853 40.0425 90.7653 39.7125 90.8253 39.2625C90.9053 38.6225 90.9053 37.4225 90.9053 36.0225V33.3425L90.9153 33.3625Z"
        fill="#E0E4EC" />
    <path
        d="M107.595 33.3624C107.595 31.0524 107.595 30.6224 107.565 30.1424C107.535 29.6224 107.415 29.3824 106.915 29.2724C106.795 29.2424 106.535 29.2224 106.325 29.2224C106.155 29.2224 106.065 29.1924 106.065 29.0824C106.065 28.9724 106.175 28.9424 106.395 28.9424C107.205 28.9424 108.155 28.9924 108.585 28.9924C109.055 28.9924 110.015 28.9424 110.925 28.9424C112.825 28.9424 115.365 28.9424 117.025 30.6724C117.785 31.4624 118.495 32.7224 118.495 34.5324C118.495 36.4524 117.685 37.9024 116.835 38.7724C116.135 39.4824 114.555 40.5624 111.745 40.5624C111.195 40.5624 110.575 40.5124 109.995 40.4724C109.415 40.4224 108.885 40.3824 108.505 40.3824C108.335 40.3824 108.005 40.3824 107.635 40.3924C107.285 40.3924 106.885 40.4224 106.585 40.4224C106.385 40.4224 106.285 40.3724 106.285 40.2724C106.285 40.1924 106.345 40.1524 106.525 40.1524C106.755 40.1524 106.935 40.1224 107.075 40.0924C107.375 40.0324 107.455 39.7024 107.515 39.2524C107.595 38.6124 107.595 37.4124 107.595 36.0124V33.3324V33.3624ZM109.495 35.0324C109.495 36.6424 109.515 37.8124 109.525 38.1024C109.545 38.4824 109.575 39.0924 109.695 39.2524C109.895 39.5424 110.485 39.8624 111.685 39.8624C113.235 39.8624 114.265 39.5624 115.185 38.7724C116.155 37.9324 116.465 36.5524 116.465 34.9824C116.465 33.0524 115.655 31.8024 115.005 31.1824C113.605 29.8424 111.875 29.6624 110.685 29.6624C110.385 29.6624 109.815 29.7124 109.695 29.7724C109.555 29.8324 109.515 29.9124 109.515 30.0724C109.495 30.5924 109.495 31.9124 109.495 33.1124V35.0224V35.0324Z"
        fill="#E0E4EC" />
    <path
        d="M139.346 12.7325L138.346 11.9426C135.396 9.57257 134.576 8.25258 134.576 6.52258C134.576 4.26258 136.176 2.56258 138.806 2.64258C143.226 2.77258 144.126 7.61254 144.186 7.54254V1.61255C144.126 1.59255 144.066 1.57255 143.996 1.55255C143.076 1.29255 141.576 0.912598 139.266 0.912598C134.326 0.912598 131.056 3.89259 131.056 8.03259C131.056 11.0826 132.816 13.2826 136.726 16.5226L136.776 16.5626L137.776 17.3525C140.726 19.7225 141.546 21.0426 141.546 22.7726C141.546 25.0326 139.946 26.6526 137.316 26.6526C132.356 26.6526 130.726 21.5626 130.666 21.6326V27.5626C130.726 27.5826 130.786 27.6026 130.856 27.6226C131.776 27.8826 134.536 28.3826 136.856 28.3826C141.796 28.3826 145.066 25.4026 145.066 21.2626C145.066 18.2126 143.246 15.9725 139.336 12.7325H139.346Z"
        fill="#E0E4EC" />
    <path
        d="M89.9454 11.8525L89.3055 11.3425C87.3955 9.81253 86.8654 8.95252 86.8654 7.83252C86.8654 6.37252 87.9054 5.27251 89.6054 5.32251C92.4654 5.41251 93.0454 8.53249 93.0854 8.49249V4.66254C93.0854 4.66254 93.0055 4.6325 92.9655 4.6225C92.3655 4.4525 91.4055 4.21252 89.9055 4.21252C86.7055 4.21252 84.5955 6.1325 84.5955 8.8125C84.5955 10.7825 85.7354 12.2025 88.2654 14.3025L88.2954 14.3325L88.9355 14.8425C90.8455 16.3725 91.3755 17.2325 91.3755 18.3525C91.3755 19.8125 90.3454 20.8625 88.6354 20.8625C85.4254 20.8625 84.3754 17.5725 84.3354 17.6125V21.4525C84.3354 21.4525 84.4154 21.4825 84.4554 21.4925C85.0554 21.6625 86.8354 21.9825 88.3354 21.9825C91.5354 21.9825 93.6454 20.0625 93.6454 17.3825C93.6454 15.4125 92.4754 13.9625 89.9454 11.8625V11.8525Z"
        fill="#E0E4EC" />
    <path
        d="M77.0553 11.8525L76.4153 11.3425C74.5053 9.81253 73.9753 8.95252 73.9753 7.83252C73.9753 6.37252 75.0153 5.27251 76.7153 5.32251C79.5753 5.41251 80.1553 8.53249 80.1953 8.49249V4.66254C80.1953 4.66254 80.1153 4.6325 80.0753 4.6225C79.4753 4.4525 78.5153 4.21252 77.0153 4.21252C73.8153 4.21252 71.7053 6.1325 71.7053 8.8125C71.7053 10.7825 72.8453 12.2025 75.3753 14.3025L75.4053 14.3325L76.0453 14.8425C77.9553 16.3725 78.4853 17.2325 78.4853 18.3525C78.4853 19.8125 77.4553 20.8625 75.7453 20.8625C72.5353 20.8625 71.4853 17.5725 71.4453 17.6125V21.4525C71.4453 21.4525 71.5253 21.4825 71.5653 21.4925C72.1653 21.6625 73.9453 21.9825 75.4453 21.9825C78.6453 21.9825 80.7553 20.0625 80.7553 17.3825C80.7553 15.4125 79.5853 13.9625 77.0553 11.8625V11.8525Z"
        fill="#E0E4EC" />
    <path
        d="M45.4254 11.8525L44.7854 11.3425C42.8754 9.81253 42.3455 8.95252 42.3455 7.83252C42.3455 6.37252 43.3854 5.27251 45.0854 5.32251C47.9454 5.41251 48.5254 8.53249 48.5654 8.49249V4.66254C48.5654 4.66254 48.4854 4.6325 48.4454 4.6225C47.8454 4.4525 46.8854 4.21252 45.3854 4.21252C42.1854 4.21252 40.0754 6.1325 40.0754 8.8125C40.0754 10.7825 41.2155 12.2025 43.7455 14.3025L43.7755 14.3325L44.4154 14.8425C46.3254 16.3725 46.8554 17.2325 46.8554 18.3525C46.8554 19.8125 45.8254 20.8625 44.1154 20.8625C40.9054 20.8625 39.8554 17.5725 39.8154 17.6125V21.4525C39.8154 21.4525 39.8955 21.4825 39.9355 21.4925C40.5355 21.6625 42.3154 21.9825 43.8154 21.9825C47.0154 21.9825 49.1255 20.0625 49.1255 17.3825C49.1255 15.4125 47.9554 13.9625 45.4254 11.8625V11.8525Z"
        fill="#E0E4EC" />
    <path
        d="M32.5353 11.8525L31.8953 11.3425C29.9853 9.81253 29.4553 8.95252 29.4553 7.83252C29.4553 6.37252 30.4953 5.27251 32.1953 5.32251C35.0553 5.41251 35.6353 8.53249 35.6753 8.49249V4.66254C35.6753 4.66254 35.5953 4.6325 35.5553 4.6225C34.9553 4.4525 33.9953 4.21252 32.4953 4.21252C29.2953 4.21252 27.1853 6.1325 27.1853 8.8125C27.1853 10.7825 28.3253 12.2025 30.8553 14.3025L30.8853 14.3325L31.5253 14.8425C33.4353 16.3725 33.9653 17.2325 33.9653 18.3525C33.9653 19.8125 32.9353 20.8625 31.2253 20.8625C28.0153 20.8625 26.9653 17.5725 26.9253 17.6125V21.4525C26.9253 21.4525 27.0053 21.4825 27.0453 21.4925C27.6453 21.6625 29.4253 21.9825 30.9253 21.9825C34.1253 21.9825 36.2353 20.0625 36.2353 17.3825C36.2353 15.4125 35.0653 13.9625 32.5353 11.8625V11.8525Z"
        fill="#E0E4EC" />
</svg>
