<svg width="155" height="20" viewBox="0 0 155 20" fill="none" xmlns="http://www.w3.org/2000/svg">
    <path
        d="M124.245 16.5216C121.145 16.5216 118.055 16.5216 114.955 16.5216C114.595 16.5216 114.335 16.4516 114.295 16.0416C114.335 15.6016 114.325 15.1616 114.295 14.7316V13.2616C114.405 12.7016 114.645 12.2116 115.105 11.8516L115.855 11.6016C116.525 11.6016 117.195 11.6016 117.865 11.6016C119.215 11.6016 120.575 11.6016 121.925 11.6016C122.435 11.6016 122.515 11.5216 122.515 11.0016C122.515 10.6916 122.505 10.3716 122.495 10.0616C122.495 9.75165 122.515 9.43164 122.515 9.12164C122.515 8.49164 122.465 8.44165 121.845 8.44165C118.515 8.44165 115.175 8.44165 111.845 8.44165C111.735 8.44165 111.615 8.44162 111.505 8.47162C111.475 8.47162 111.445 8.47165 111.415 8.50165C111.125 8.59165 111.175 8.83163 111.175 9.04163C111.175 12.3816 111.175 15.7216 111.175 19.0616C111.175 19.2016 111.125 19.3616 111.255 19.4816L111.335 19.6516H124.715C124.905 19.5016 124.945 19.3016 124.945 19.0716C124.945 18.4416 124.945 17.8117 124.945 17.1917C124.945 16.5717 124.895 16.5216 124.265 16.5216H124.245ZM111.595 8.5116C111.595 8.5116 111.595 8.53163 111.595 8.54163C111.595 8.54163 111.575 8.5316 111.575 8.5116H111.595Z"
        fill="#E0E4EC" />
    <path
        d="M15.4949 16.6917C15.3549 16.4116 15.4049 16.0716 15.2249 15.8016C15.1849 15.5116 15.1149 15.2316 14.9849 14.9716C14.9249 14.7816 14.8749 14.5916 14.8149 14.4016C14.7949 14.2016 14.7449 14.0116 14.6449 13.8316C14.6049 13.5416 14.5249 13.2616 14.4049 13.0016C14.3349 12.6116 14.2249 12.2216 14.0749 11.8616C14.0449 11.5816 13.9549 11.3116 13.8449 11.0516L13.6549 10.4016C13.5749 10.1516 13.5049 9.91162 13.4249 9.66162C13.4049 9.34162 13.2949 9.04165 13.1749 8.75165C13.1349 8.46165 13.0549 8.18163 12.9349 7.92163C12.9149 7.70163 12.8449 7.49162 12.7549 7.28162C12.6549 6.81162 12.5249 6.3416 12.3449 5.8916C12.1749 5.2516 12.0349 4.60163 11.7849 3.98163C11.5149 3.01163 11.2349 2.04159 10.9649 1.07159C10.8949 0.821594 10.7949 0.591611 10.6249 0.401611H7.67487C7.61487 0.541611 7.56487 0.671604 7.61487 0.831604C8.02487 2.1916 8.42487 3.56163 8.83487 4.92163C8.95487 5.36163 9.08487 5.80164 9.20487 6.24164C9.32487 6.65164 9.44487 7.05161 9.57487 7.46161C9.58487 7.74161 9.76487 7.98161 9.72487 8.27161C9.58487 8.45161 9.38487 8.46161 9.17487 8.46161C7.62487 8.46161 6.07487 8.46161 4.52487 8.46161C3.72487 8.46161 3.63487 8.5416 3.49487 9.3316C3.37487 9.6016 3.28487 9.87162 3.25487 10.1616C3.15487 10.3416 3.10487 10.5316 3.08487 10.7316C2.95487 11.0216 2.84487 11.3117 2.81487 11.6317C2.68487 11.9817 2.55487 12.3316 2.50487 12.7016C2.38487 12.9816 2.28487 13.2716 2.24487 13.5816C2.11487 13.8416 2.04487 14.1216 2.00487 14.4116C1.88487 14.6716 1.80487 14.9516 1.76487 15.2416C1.64487 15.5016 1.56487 15.7816 1.52487 16.0616C1.42487 16.2616 1.34487 16.4617 1.34487 16.6917C1.29487 16.8316 1.24487 16.9616 1.19487 17.1016C0.974871 17.8216 0.754871 18.5416 0.534871 19.2616C0.464871 19.6116 0.594871 19.6916 0.944871 19.6816C1.81487 19.6516 2.69487 19.6716 3.57487 19.6716C3.65487 19.5216 3.80487 19.4216 3.85487 19.2316C4.07487 18.4216 4.31487 17.6116 4.54487 16.8016C4.63487 16.4716 4.79487 16.1616 4.82487 15.8216C4.94487 15.5916 5.00487 15.3416 5.04487 15.0816C5.12487 14.8116 5.20487 14.5316 5.28487 14.2616C5.36487 14.0516 5.45487 13.8416 5.46487 13.6016C5.58487 13.3116 5.69487 13.0116 5.71487 12.7016C5.88487 12.3916 5.89487 12.0116 6.11487 11.7116C6.17487 11.6816 6.23487 11.6516 6.28487 11.6116C7.20487 11.6116 8.13487 11.6416 9.05487 11.6016C9.72487 11.5716 10.2849 11.7616 10.7649 12.2116C10.9649 12.4816 11.1049 12.7816 11.2149 13.1016C11.2649 13.3816 11.3449 13.6616 11.4549 13.9216C11.4749 14.0916 11.5149 14.2616 11.6049 14.4216C11.6249 14.6216 11.6749 14.8116 11.7749 14.9916C11.8149 15.2816 11.8849 15.5516 12.0149 15.8116C12.0549 16.1516 12.1849 16.4716 12.2849 16.7916C12.4949 17.5216 12.7149 18.2516 12.9049 18.9916C12.9749 19.2516 13.0749 19.4716 13.2549 19.6616H16.2049C16.2549 19.5216 16.3049 19.3916 16.2549 19.2316C15.9949 18.3916 15.7449 17.5417 15.4849 16.6917H15.4949Z"
        fill="#E0E4EC" />
    <path
        d="M124.695 0.371704H118.865H115.085H115.005H111.315C111.195 0.551704 111.145 0.751689 111.145 0.981689C111.155 1.59169 111.145 2.21166 111.145 2.82166C111.145 2.99166 111.075 3.18166 111.225 3.33167C111.285 3.49167 111.415 3.51166 111.555 3.51166C112.895 3.51166 114.235 3.5017 115.575 3.4917C116.695 3.4917 117.815 3.4917 118.935 3.4917H122.625C123.235 3.4917 123.845 3.50166 124.455 3.51166C124.635 3.51166 124.815 3.49171 124.845 3.25171C124.845 3.25171 124.845 3.23168 124.845 3.22168C124.875 3.10168 124.885 2.9917 124.875 2.8717C124.935 2.1517 124.875 1.43168 124.875 0.72168C124.875 0.57168 124.755 0.481714 124.665 0.381714L124.695 0.371704Z"
        fill="#E0E4EC" />
    <path
        d="M153.995 17.3617C153.995 16.9517 153.995 16.5417 153.995 16.1317V14.9817V12.7617V11.5317C153.995 11.2017 153.995 10.8717 153.995 10.5517V9.73169V8.58167V6.69171V4.89166C153.995 3.53166 153.995 2.17171 154.015 0.811707C154.015 0.631707 153.925 0.511714 153.825 0.381714H150.545C150.545 0.381714 150.545 0.43167 150.535 0.46167C150.345 0.46167 150.265 0.611709 150.185 0.751709C149.805 1.42171 149.425 2.08171 149.045 2.75171L147.815 4.88171C147.445 5.47171 147.085 6.07166 146.775 6.70166C146.505 7.09166 146.275 7.51171 146.055 7.94171C145.695 8.45171 145.695 8.45166 145.365 7.89166C145.245 7.68166 145.115 7.48168 144.985 7.28168C144.415 6.22168 143.825 5.18168 143.185 4.16168C142.575 3.09168 141.965 2.03167 141.375 0.96167C141.245 0.73167 141.095 0.531663 140.875 0.391663H137.595C137.545 0.471663 137.495 0.551663 137.445 0.641663C137.385 1.32166 137.415 2.01171 137.435 2.69171V5.56171V7.86169V9.58167V11.4717V13.4417V15.2517V16.8117C137.435 17.6217 137.435 18.4417 137.415 19.2517C137.415 19.4317 137.505 19.5517 137.595 19.6817H140.385C140.455 19.5417 140.565 19.4317 140.555 19.2417C140.535 18.5117 140.535 17.7817 140.535 17.0517V14.0117C140.535 13.3817 140.535 12.7517 140.535 12.1217V10.6417V8.75171V7.11169C140.535 6.93169 140.535 6.76166 140.555 6.58167C140.555 6.46167 140.515 6.31167 140.665 6.27167C140.825 6.23167 140.865 6.38169 140.925 6.48169C141.235 6.99169 141.535 7.51167 141.845 8.02167C142.175 8.67167 142.535 9.29167 142.925 9.90167C143.095 10.3117 143.335 10.6817 143.585 11.0417C143.755 11.4217 143.975 11.7817 144.205 12.1217C144.605 12.8217 144.985 13.5217 145.395 14.2117C145.595 14.5617 145.835 14.5617 146.045 14.2117C146.335 13.7317 146.595 13.2417 146.865 12.7517C147.085 12.4917 147.215 12.1717 147.365 11.8717C147.595 11.5617 147.785 11.2217 147.945 10.8717C148.165 10.5617 148.355 10.2317 148.505 9.89166C148.765 9.59166 148.885 9.22171 149.065 8.88171C149.305 8.63171 149.435 8.31166 149.595 8.01166C149.835 7.66166 150.045 7.30169 150.215 6.92169C150.335 6.73169 150.455 6.53167 150.585 6.34167C150.625 6.28167 150.675 6.2317 150.755 6.2417C150.855 6.2617 150.875 6.33169 150.875 6.42169C150.875 6.53169 150.875 6.64171 150.875 6.75171C150.875 9.54171 150.875 12.3417 150.885 15.1317C150.885 16.4917 150.885 17.8517 150.875 19.2217C150.875 19.3117 150.875 19.4117 150.955 19.4817C150.985 19.5417 151.005 19.5917 151.035 19.6517H153.825C153.925 19.5217 154.015 19.4017 154.015 19.2217C153.995 18.6017 153.995 17.9717 153.995 17.3517V17.3617Z"
        fill="#E0E4EC" />
    <path
        d="M85.7747 0.791687C85.7747 0.611687 85.6747 0.481704 85.5547 0.371704H82.8447C82.7847 0.441704 82.6747 0.481685 82.6747 0.601685C82.5847 0.691685 82.6147 0.811682 82.6147 0.911682C82.6147 6.98168 82.6147 13.0517 82.6147 19.1317C82.6147 19.3517 82.6647 19.5317 82.8547 19.6617H84.4147H85.5647C85.7647 19.4917 85.7847 19.2717 85.7847 19.0317C85.7847 14.7517 85.7847 10.4717 85.7847 6.20166C85.7847 6.09166 85.7647 5.98171 85.7547 5.88171C85.8247 4.19171 85.7647 2.5017 85.7847 0.801697L85.7747 0.791687Z"
        fill="#E0E4EC" />
    <path
        d="M94.4148 0.371704C94.0848 0.771704 94.2748 1.2417 94.2548 1.6817V3.57166V6.28168C94.2548 6.45168 94.2548 6.6317 94.2348 6.8017C94.2048 7.3117 94.3148 7.82166 94.1548 8.32166C94.0048 8.43165 93.8248 8.42169 93.6448 8.42169C92.6048 8.42169 91.5748 8.42169 90.5348 8.42169C90.0948 8.42169 89.9848 8.53169 89.9848 8.98169C89.9848 9.40169 89.9648 9.83171 89.9848 10.2517C90.0048 10.6217 89.8948 11.0117 90.0548 11.3717C90.1448 11.6017 90.3448 11.5817 90.5348 11.5817C91.1748 11.5817 91.8148 11.5817 92.4548 11.5817C92.8848 11.5817 93.2548 11.7217 93.5848 11.9917C93.9648 12.3017 94.1348 12.7217 94.2448 13.1717C94.2448 13.8217 94.2448 14.4717 94.2448 15.1217C94.2448 16.0817 94.2448 17.0317 94.2448 17.9917C94.2448 18.2717 94.2248 18.5517 94.2248 18.8417C94.2248 19.1217 94.1648 19.4117 94.4048 19.6317H97.1948C97.3248 19.4617 97.4048 19.2817 97.3448 19.0617C97.3448 17.3617 97.3448 15.6717 97.3448 13.9717C97.3448 13.5017 97.3448 13.0417 97.3448 12.5717V9.1217V4.61169V1.98169C97.3448 1.78169 97.3648 1.58171 97.3548 1.38171C97.3348 1.03171 97.4648 0.651675 97.1948 0.341675H94.4048L94.4148 0.371704Z"
        fill="#E0E4EC" />
    <path
        d="M43.7047 0.371704H40.9147C40.8547 0.471704 40.7147 0.531702 40.7447 0.681702C40.6747 0.821702 40.7047 0.971704 40.7047 1.1217C40.7047 4.3017 40.7047 7.48169 40.7047 10.6717C40.7047 11.6017 40.7047 12.5317 40.7047 13.4617C40.7047 13.5717 40.7347 13.6917 40.6247 13.7617C40.4847 13.8417 40.4447 13.6917 40.3547 13.6417C40.2547 13.3817 40.1147 13.1417 39.9347 12.9217C39.7147 12.4717 39.4847 12.0417 39.1847 11.6417C38.9547 11.1417 38.6847 10.6717 38.3747 10.2117C38.1447 9.77167 37.9347 9.3217 37.6247 8.9317C37.2447 8.2017 36.8547 7.47168 36.3947 6.78168C35.8047 5.68168 35.1847 4.6017 34.5247 3.5517C34.3147 3.1017 34.0547 2.67171 33.7747 2.25171C33.5047 1.90171 33.4147 1.44169 33.1147 1.11169C32.9847 0.811694 32.8347 0.541714 32.5347 0.381714H29.2547C28.9547 0.821714 29.1347 1.31167 29.1047 1.77167V3.25171C29.1047 3.80171 29.1047 4.34166 29.1047 4.89166V6.86169V9.81171V11.2917V13.0117V14.4917V15.1517C29.1047 15.3117 29.1047 15.4817 29.1047 15.6417C29.1047 15.8917 29.1047 16.1317 29.1047 16.3817V17.0417C29.1047 17.7317 29.1047 18.4217 29.0847 19.1117C29.0847 19.3217 29.1347 19.5017 29.2547 19.6717H32.0447C32.1347 19.5417 32.2347 19.4217 32.2247 19.2417C32.2147 18.5117 32.2147 17.7817 32.2047 17.0517V16.3117V15.7417C32.2047 15.5217 32.2047 15.3017 32.2047 15.0817C32.2047 14.9217 32.2047 14.7517 32.2047 14.5917C32.2047 14.3417 32.2047 14.1017 32.2047 13.8517C32.2047 13.5817 32.2047 13.3017 32.2047 13.0317V11.2217V9.66168C32.2047 9.09168 32.2047 8.51171 32.2047 7.94171C32.2047 7.51171 32.2247 7.08166 32.2247 6.64166C32.2247 6.52166 32.2247 6.40171 32.2847 6.31171C32.3147 6.28171 32.3547 6.26168 32.3847 6.22168C32.7147 6.55168 32.8447 7.00169 33.1247 7.36169C33.4547 7.98169 33.7947 8.58169 34.1747 9.17169C34.3947 9.63169 34.6547 10.0617 34.9247 10.4817C35.1747 10.9617 35.4247 11.4317 35.7347 11.8717C35.9547 12.3317 36.2147 12.7617 36.4847 13.1817C36.5847 13.4117 36.7147 13.6417 36.8747 13.8417C36.9947 14.1417 37.1647 14.4117 37.3547 14.6717C37.4347 14.8817 37.5447 15.0717 37.6847 15.2417C37.8247 15.4917 37.9647 15.7317 38.0947 15.9817C38.2047 16.1717 38.3247 16.3617 38.4347 16.5517C38.5247 16.7917 38.6647 17.0117 38.8147 17.2217C39.3047 18.0517 39.6747 18.9517 40.3247 19.6717H43.6047C43.8547 19.5117 43.8447 19.2717 43.8447 19.0217C43.8447 13.0317 43.8447 7.04169 43.8447 1.04169C43.8447 0.891687 43.8947 0.741694 43.7847 0.611694C43.7547 0.541694 43.7147 0.461663 43.6847 0.391663L43.7047 0.371704Z"
        fill="#E0E4EC" />
    <path
        d="M70.6049 1.76166C70.5949 1.40166 70.6749 1.0417 70.5749 0.681702C70.5749 0.631702 70.5749 0.581687 70.5349 0.541687C70.5049 0.481687 70.4848 0.421704 70.4548 0.371704H69.3848H66.0248H56.0149C55.9849 0.441704 55.9549 0.511665 55.9249 0.581665C55.8149 0.701665 55.8649 0.84168 55.8649 0.97168C55.8649 1.62168 55.8649 2.2817 55.8649 2.9317C55.8649 3.4317 55.9349 3.50171 56.4349 3.50171C57.9749 3.50171 59.5149 3.50171 61.0549 3.50171C61.2949 3.50171 61.5149 3.5317 61.6749 3.7417C61.6749 4.5917 61.6948 5.43168 61.7048 6.28168V8.09167V9.98169C61.7048 10.7717 61.7048 11.5717 61.7048 12.3617V13.8417V15.5617V16.2217C61.7048 16.4117 61.7048 16.6017 61.7048 16.7917V18.1917V18.7617C61.6948 19.0717 61.6149 19.3917 61.8549 19.6617H64.6449C64.6449 19.6617 64.6449 19.6117 64.6449 19.5817C64.9249 19.4117 64.7849 19.1517 64.7949 18.9217V18.3517V16.8717V15.9717V15.1517C64.7949 14.9617 64.7949 14.7717 64.7949 14.5817V13.5917C64.7949 13.0417 64.7949 12.5017 64.7949 11.9517V9.98169C64.7949 9.30169 64.7949 8.6117 64.7949 7.9317C64.8649 6.8717 64.7248 5.8017 64.8848 4.7417C65.1348 4.1817 65.5349 3.79167 66.1149 3.58167C66.4649 3.56167 66.8249 3.53167 67.1749 3.52167C68.1449 3.52167 69.1149 3.52167 70.0849 3.52167C70.5549 3.52167 70.6249 3.44168 70.6249 2.97168C70.6249 2.57168 70.6249 2.18168 70.6149 1.78168C70.5949 1.76168 70.5849 1.78168 70.5648 1.78168H70.5749H70.6049V1.76166ZM67.9149 1.84167C67.9149 1.84167 67.9149 1.84167 67.9049 1.84167H67.9149ZM61.0049 1.60168C61.0049 1.60168 61.0148 1.60168 61.0248 1.60168C61.0248 1.60168 61.0149 1.60168 61.0049 1.60168Z"
        fill="#E0E4EC" />
</svg>
