<?xml version="1.0" encoding="UTF-8"?>
<svg id="_Слой_1" data-name="Слой 1" xmlns="http://www.w3.org/2000/svg" viewBox="0 0 196 136">
    <defs>
        <style>
            .cls-1 {
            fill: #d4d4d4;
            }
        </style>
    </defs>
    <path class="cls-1"
        d="M55.37,84.57c-2.82,.35-7.34-.83-9.13-1.87,.29,.21,4.97,.49,5.07,.36-.1-.13-1.54-1.17-1.45-1.28l4.73,.27c-1.12-.93-5.15-3.14-5.07-5.01-.46,.05-1.15-1.3-1.05-1.57-4.67-3.69-5.49-23.67-12.57-23.75,1.38,.01,4.96,7.29,4.8,7.32,.07-.19-3.85-5.7-4.13-5.63,.23,.19,.79,2.08,.64,2.31-.16-.34-1.83-1.33-2.06-1.35,.71,.79-1.38,4.65-1.94,4.57l3.25,.83c-.18,.49-2.68,.54-2.82,.57,0,0-2.17,4.62-2.68,5.65-2.53,2.91-.81,.41-.32,3.47h-1.87c-.08,.93-1.74,4.18-2.32,4.63l2.12,.93c-3.86,.48-3.09,11.24-8.79,10.76,.58,.8-.94,2.39-1.49,2.3l6.65-1.08c-1.21-.19-7.11,3.58-7.29,4.03,3.87-.53,2.82-1.13,8.28-3.48,3.2-1.21,9.15-2.19,9.15-2.19-2.39-.76-7.77,1.36-9.96,.75,.96-.58,7.81-1.62,8.2-1.64-1.05-.58-3.3-.89-5.01-.84-1.88-1.32,3.08-9.3,3.28-10.15l-1-.09c1.38-.82,10.53-2.04,10.26,1.44l4.64-.72-3.94,2.56c4.32,3.43-4.5,3.86-5.76,5.81,.48-.21,3.94-.38,4.1-.31,0-.13-3.82,.79-3.41,.93,3.38-.34,18.38,5.63,21.36,.97,0,0-.86,.19-2.47,.52Zm-20.22-13.54c-1.33,.42-3.45,.26-3.45,.26,2.19-1.98,2.59-6.47,4.18-8.85,.46,1.36,1.04,2.44,2.01,3.73,.04,1.58,.6,2.61,1.3,3.81,0,0-2.71,.63-4.05,1.04Z" />
    <path class="cls-1"
        d="M146.26,84.01c-2.54-.1-6.22-.83-8.35-2.05,1.55,.3,3.12,.39,4.76,.4-.23-.38-.88-.67-1.08-1.21,1.62,.17,3.22,.46,4.85,.72-9.4-5.57-9.5-28.88-20.72-30.79,2.45,1.24,4.66,4.78,6.55,7.27-1.74-1.89-3.6-3.89-5.62-5.54,.53,.72,.99,1.49,1.13,2.41-.62-.53-1.49-.95-2.33-1.24,.59,1.66,.05,3.64-1.38,4.95,1.18,.26,2.34,.43,3.55,.59-5.51,.75-3.12,5.42-6.55,7.83-.42,.39,.26,.24,.39,.51,.13,.27,.8,.99,.69,1.54-3-.6-2.34,2.79-4.01,4.7,.7,.35,1.43,.61,2.13,.92-4.22,2.05-2.73,10.38-8.8,10.23,.29,.95-.34,2.03-1.45,2.3,2.15-.33,4.26-.6,6.47-.8-2.47,.3-5.07,2.03-7.16,3.76,5.73-1.74,11.07-4.51,17.54-5.14-2.98-.64-7.15,1.36-10.22,.53,2.33-.63,5.69-.89,8.41-1.36-1.66-.87-3.26-.59-5.03-.97-1.08-2.46,2.21-7.27,3.22-10.18-.35-.09-.71-.05-1.08-.09,2.86-.84,9.68-2.83,10.87,.9,1.62-.33,3.28-.68,4.93-.9-1.45,.87-2.88,1.81-4.29,2.74,3.91,3.55-4.45,4.01-6.12,6.39,1.18-.32,2.79-.6,4.2-.68-1.1,.34-2.42,.47-3.51,1.25,6.4-.92,14.74,4.53,20.87,.8-1.19,.06-1.47,.18-2.85,.19Zm-19.22-13.24c-1.32,.39-2.43,.41-3.74,.43,2.56-2.29,2.5-5.91,3.98-8.95,1.87,2.35,2.54,4.8,4.02,7.27-1.37,.37-2.94,.85-4.26,1.24Z" />
    <path class="cls-1"
        d="M52.02,63.29c.55-.43,2.24-6.78,1.79-7.96,1.24,.78,.78-1.99,.63-2.15,1.5,2.33,6.85,3.48,9.14,2.19,.74,.42,4.66,2.82,1.97-.64,.72-.51,3.98,1.69,4.39,1.83v-.96c2.3-.37,8.98,1.08,11.29-.59,1.01-1.5,1.46-1.73,3.25-1.33-3.44,1.76-.42,7.92-.96,10.15,.01,.24-6.11-7.27-7.22-5.62-5.59-.19-4.08,.57-4.57,5.39,.31,1.19-.28,22.78,.78,22.68,.67,.65,6.41-.32,7.04,0,0-.03-4.76,1.25-2.47,1.69l-3.61,1.28c.57,.04,6.28-1.37,6.95,0-1.56-.7-16.84,3.68-18.93,4.98,.24-.24,6.22-4.16,7.36-3.98-.8,.33-10.06,1.05-11.2,.76,9.69-.14,7.36-12.64,7.18-16.94l3.43,.18-2.47-1.92c.88-.45-.14-1.17-.41-1.65l3.66-2.06-3.38,.18c-.89-2.3,2.36-12.58-3.47-10.42-2.47,.91-4.71,.09-4.71,.09-.44-.23-3.99,3.19-3.89,3.96,0,0-1.55,.84-1.55,.84Z" />
    <path class="cls-1"
        d="M85.01,55.22c.76,.01,13.42,.94,15.31-.26-.08,.24,2.85,1.2,2.42,1.8-2.07-.59-6.84,.83-7.39,3.64l2.16-.52s-2.99,2.07-3.17,2.77c.13,.66,1.54-1.45,2.02-.92,.47,1.41-1.13,2.26-2.07,2.9l-.04-.7c-7.74,4.9-3.89-.02-4.27-5.67-.99-.26-4.3-1.16-5.19-1.54l3.4-.22-3.18-1.28Z" />
    <path class="cls-1"
        d="M90.12,67.88c-.4,2.77,.23,8.34-1.93,10.69l3.51-.79c-1.74,3.82-10.22-.37-9.59,6.6,.54-1.77,9.42-3.54,10.56-3.52-1.89,.98-10.17,3.19-11.52,5.19,11.77-6.12,19.36-1.54,29.73-3.17,.7,.36-10.35-1.57-10.25-1.06,.76,.05,11.02-.05,12.45,.04,2.88-1.56-1.94-8.5-3.21-8.4,3.03,5.18-6.91,6.48-9.68,5.28,0,0,.7-.97,.7-.97-1.43,.12-3.54,2.77-4.27-.13-.65-4.73-.3-7.05-.44-10.38-.04,.83-2.15,.29-1.54-.57-1.5-.29-3.07,1.01-4.53,1.19Z" />
    <path class="cls-1"
        d="M165.24,64.64c.69-9.55-11.07-13.31-17.86-7.22-3.04,6.15-2.69,3.2-1.18,7.81,.73,3.69,3.38,2.92,5.72,3.74l-3.69,.32c2.19,.48,15.27,3.07,13.64,8.29-5.72,9.8-14.87-2.8-16.26-6.38-.11,.46,1.5,6.27,2.14,6.64-.1-.02-3.45-2.84-3.05-3.69-.79,8.12,15.52,11.64,19.62,5.45-.87,7.29-14.45,2.75-16.26,1.82,4.27,6.05,20.05,4.22,18.23-6.15,1.76-8.49-10.46-9.21-14.49-12.19-2.25-7.33,8.36-2.89,9.41,.11-.22-4.12-9.45-6.66-11.18-3.53,3.2-6.08,13.85,1.22,12.46,3.74l.16-3.42,2.57,4.65Z" />
</svg>
