<?xml version="1.0" encoding="UTF-8"?>
<svg id="_Слой_1" data-name="Слой 1" xmlns="http://www.w3.org/2000/svg" viewBox="0 0 196 136">
    <defs>
        <style>
            .cls-1 {
            fill: #d4d4d4;
            }
        </style>
    </defs>
    <path class="cls-1"
        d="M159.94,53.4v29.21h7.66c2.3,0,4.17-1.87,4.17-4.17v-20.88c0-2.3-1.86-4.17-4.17-4.17h-7.66Zm3.88,25.52v-21.83h2.87c.66,0,1.2,.54,1.2,1.2v19.44c0,.66-.54,1.2-1.2,1.2h-2.87Zm-68.66-25.52v29.21h9.58v-3.69h-5.7v-9.29h5.7v-3.69h-5.7v-8.86h5.7v-3.69h-9.58Zm28.39,0h3.88v29.21h-3.88v-29.21Zm-13.93,0v29.21h3.88v-12.98h5.7v-3.69h-5.7v-8.86h5.7v-3.69h-9.58Zm23.32,0v29.21h9.58v-3.69h-5.7v-9.29h5.7v-3.69h-5.7v-8.86h5.7v-3.69h-9.58Zm-50.33,0v29.21h9.62v-3.69h-5.75v-25.52h-3.88Zm64.79,0v29.21h9.62v-3.69h-5.75v-25.52h-3.88Zm-89.49,3.69v25.52h3.88v-25.52h3.78v-3.69h-11.4v3.69h3.73Zm14.03,0v25.52h3.88v-25.52h3.78v-3.69h-11.4v3.69h3.73Zm-33.33,25.52h3.93l1.03-7.33h4.66l1.03,7.33h3.93l-4.88-29.21h-4.83l-4.88,29.21Zm5.47-10.92l1.82-12.93,1.82,12.93h-3.64Zm-19.83,7.23v3.69h7.85c2.17,0,3.93-1.76,3.93-3.93v-7.96c0-1.79-1.76-2.96-1.98-2.96h-.04c.41,0,1.88-1.05,1.88-3.11v-7.52c0-2.06-1.67-3.73-3.73-3.73h-7.9v25.52Zm3.88,0v-9.29h2.83c.66,0,1.2,.54,1.2,1.2v6.9c0,.66-.54,1.2-1.2,1.2h-2.83Zm0-12.88v-8.95h2.68c.66,0,1.2,.54,1.2,1.2v6.56c0,.66-.54,1.2-1.2,1.2h-2.68Z" />
</svg>
