<svg width="102" height="102" viewBox="0 0 102 102" fill="none" xmlns="http://www.w3.org/2000/svg">
    <g clip-path="url(#clip0_864_43226)">
        <path d="M32.3055 35.7181C18.2262 35.7181 6.8125 47.1318 6.8125 61.2112C6.8125 75.2905 18.2262 86.7042 32.3055 86.7042H69.6952C83.7746 86.7042 95.1883 75.2905 95.1883 61.2112C95.1883 47.1318 83.7746 35.7181 69.6952 35.7181H32.3055ZM91.7891 61.2112C91.775 73.4076 81.8915 83.2911 69.6952 83.3051H32.3055C20.1033 83.3051 10.2116 73.4132 10.2116 61.2112C10.2116 49.0092 20.1035 39.1173 32.3055 39.1173H69.6952C81.8917 39.1312 91.7752 49.0149 91.7891 61.2112Z" fill="currentColor"/>
        <path d="M45.9006 32.3192H56.0979C57.0365 32.3192 57.7973 31.5584 57.7973 30.6197C57.7973 29.681 57.0363 28.9202 56.0979 28.9202H45.9006C44.962 28.9202 44.2012 29.6812 44.2012 30.6197C44.2012 31.5582 44.9622 32.3192 45.9006 32.3192Z" fill="currentColor"/>
        <path d="M49.2991 27.2206H52.6982C53.6369 27.2206 54.3977 26.4596 54.3977 25.5211C54.3977 24.5825 53.6369 23.8217 52.6982 23.8217H49.2991C48.3604 23.8217 47.5996 24.5827 47.5996 25.5211C47.5996 26.4596 48.3604 27.2206 49.2991 27.2206Z" fill="currentColor"/>
        <path d="M91.7882 9.91241C94.1294 9.08468 95.5337 6.69072 95.1138 4.2432C94.694 1.79567 92.5719 0.00677159 90.0887 0.00677159C87.6055 0.00677159 85.4835 1.79567 85.0636 4.2432C84.6438 6.69072 86.0481 9.08468 88.3893 9.91241V17.0505C79.0383 6.15059 65.3605 -0.0766782 50.9994 0.027883C36.6396 -0.0782716 22.9618 6.14621 13.6096 17.0437V9.90563C15.9508 9.07791 17.3551 6.68395 16.9353 4.23642C16.5155 1.78889 14.3934 0 11.9102 0C9.42699 0 7.3049 1.78889 6.88486 4.23642C6.46502 6.68395 7.86933 9.07791 10.2105 9.90563V21.4082C3.40725 31.4606 -0.151613 43.3567 0.013295 55.4939C0.013295 85.9191 17.6443 102 50.9994 102C84.3544 102 101.985 85.9191 101.985 55.4939C102.149 43.3591 98.5903 31.4656 91.7882 21.4149V9.91241ZM90.0887 3.42702C91.0274 3.42702 91.7882 4.18803 91.7882 5.12649C91.7882 6.06495 91.0274 6.82596 90.0887 6.82596C89.1501 6.82596 88.3893 6.06495 88.3893 5.12649C88.3893 4.18803 89.1501 3.42702 90.0887 3.42702ZM11.9102 3.42702C12.8488 3.42702 13.6096 4.18803 13.6096 5.12649C13.6096 6.06495 12.8488 6.82596 11.9102 6.82596C10.9715 6.82596 10.2107 6.06495 10.2107 5.12649C10.2107 4.18803 10.9715 3.42702 11.9102 3.42702ZM50.9994 98.6011C29.2912 98.6011 3.41243 91.123 3.41243 55.4941C3.41243 25.8117 23.8714 3.42722 50.9994 3.42722C78.1273 3.42722 98.5863 25.8119 98.5863 55.4941C98.5865 91.123 72.7077 98.6011 50.9994 98.6011Z" fill="currentColor"/>
        <path d="M27.2067 47.615C22.5136 47.615 18.709 51.4196 18.709 56.1127C18.709 60.8058 22.5136 64.6105 27.2067 64.6105C31.8998 64.6105 35.7045 60.8058 35.7045 56.1127C35.6987 51.4218 31.8974 47.6206 27.2067 47.615ZM27.2067 61.2111C24.3909 61.2111 22.1081 58.9283 22.1081 56.1125C22.1081 53.2967 24.3909 51.0139 27.2067 51.0139C30.0227 51.0139 32.3053 53.2967 32.3053 56.1125C32.3053 58.9285 30.0225 61.2111 27.2067 61.2111Z" fill="currentColor"/>
        <path d="M66.2949 56.1125C66.2949 60.8057 70.0996 64.6103 74.7927 64.6103C79.4858 64.6103 83.2904 60.8057 83.2904 56.1125C83.2904 51.4194 79.4858 47.6148 74.7927 47.6148C70.1019 47.6206 66.3007 51.4218 66.2949 56.1125ZM74.7927 51.0139C77.6084 51.0139 79.8913 53.2968 79.8913 56.1125C79.8913 58.9283 77.6084 61.2112 74.7927 61.2112C71.9769 61.2112 69.6941 58.9283 69.6941 56.1125C69.6941 53.2968 71.9769 51.0139 74.7927 51.0139Z" fill="currentColor"/>
        <path d="M57.7982 64.6103H44.2019C42.3245 64.6103 40.8027 66.1321 40.8027 68.0094C40.8027 73.6412 45.3682 78.2066 50.9999 78.2066C56.6317 78.2066 61.1972 73.6412 61.1972 68.0094C61.1972 66.1321 59.6753 64.6103 57.7982 64.6103ZM50.9999 74.8075C47.2455 74.8075 44.2019 71.7639 44.2019 68.0094H57.7982C57.7982 71.7639 54.7546 74.8075 50.9999 74.8075Z" fill="currentColor"/>
    </g>
    <defs>
        <clipPath id="clip0_864_43226">
            <rect width="102" height="102" fill="white"/>
        </clipPath>
    </defs>
</svg>
