<?xml version="1.0" encoding="UTF-8"?>
<svg id="_Слой_1" data-name="Слой 1" xmlns="http://www.w3.org/2000/svg" viewBox="0 0 196 136">
    <defs>
        <style>
            .cls-1 {
            fill: #d4d4d4;
            }
        </style>
    </defs>
    <path class="cls-1"
        d="M25.26,68.19v-16.38h6.24c1.35,0,2.54,.22,3.57,.65,1.03,.44,1.89,1.02,2.58,1.76s1.22,1.6,1.57,2.6c.35,.99,.54,2.05,.54,3.18,0,1.25-.2,2.37-.6,3.38-.39,1-.94,1.87-1.67,2.58-.73,.71-1.6,1.26-2.61,1.66-1.02,.39-2.15,.6-3.4,.6h-6.23v-.03Zm10.22-8.22c0-.67-.09-1.28-.26-1.81-.17-.55-.44-1.02-.77-1.41-.33-.39-.74-.7-1.22-.91-.48-.22-1.03-.33-1.63-.33h-2.13v8.99h2.12c.61,0,1.16-.12,1.66-.33,.48-.23,.9-.54,1.22-.94,.33-.41,.58-.89,.75-1.44,.17-.55,.26-1.15,.26-1.8" />
    <path class="cls-1"
        d="M25.26,84.32v-14.31h5.46c1.18,0,2.22,.19,3.12,.57,.9,.38,1.65,.89,2.26,1.54,.61,.64,1.06,1.41,1.36,2.26,.3,.87,.46,1.79,.46,2.77,0,1.09-.17,2.08-.51,2.95-.35,.89-.83,1.63-1.47,2.26-.64,.62-1.39,1.1-2.28,1.45-.89,.35-1.87,.51-2.96,.51h-5.46Zm8.93-7.19c0-.58-.07-1.1-.23-1.6-.16-.48-.38-.89-.67-1.23-.29-.33-.65-.61-1.07-.8-.42-.19-.9-.29-1.42-.29h-1.84v7.85h1.86c.54,0,1.02-.1,1.44-.29,.42-.2,.78-.48,1.07-.83,.29-.35,.51-.77,.65-1.25,.15-.48,.22-1,.22-1.57" />
    <path class="cls-1"
        d="M70.86,68.19v-16.38h6.3c1.29,0,2.48,.22,3.51,.65,1.03,.44,1.89,1.02,2.58,1.76,.7,.74,1.22,1.6,1.57,2.6,.35,.99,.54,2.05,.54,3.18,0,1.25-.2,2.37-.6,3.38-.39,1-.94,1.87-1.67,2.58-.73,.71-1.6,1.26-2.61,1.66-1.02,.39-2.15,.6-3.4,.6h-6.23v-.03Zm10.22-8.22c0-.67-.09-1.28-.26-1.81-.17-.55-.44-1.02-.77-1.41s-.74-.7-1.22-.91c-.48-.22-1.03-.33-1.63-.33h-2.12v8.99h2.12c.61,0,1.16-.12,1.65-.33,.48-.23,.9-.54,1.22-.94,.33-.41,.58-.89,.75-1.44,.16-.55,.25-1.15,.25-1.8" />
    <polygon class="cls-1"
        points="52.92 64.5 51.47 68.2 41.26 68.2 41.26 51.81 52.95 51.81 52.95 55.51 45.41 55.51 45.41 58.04 52.27 58.04 52.27 61.68 45.41 61.68 45.41 64.5 52.92 64.5" />
    <path class="cls-1"
        d="M59.64,51.81h4.37l6.24,16.38h-4.34l-1.18-3.16h-5.95l-1.15,3.16h-4.21l6.21-16.38Zm3.82,9.68l-1.68-4.59-1.68,4.59h3.37Z" />
    <path class="cls-1"
        d="M42.89,70h3.82l5.46,14.31h-3.8l-1.03-2.76h-5.2l-1,2.76h-3.67l5.43-14.31Zm3.34,8.46l-1.47-4.01-1.47,4.01h2.93Z" />
    <polygon class="cls-1"
        points="109.45 51.84 112.88 58.23 116.32 51.84 120.86 51.84 114.91 62.41 114.91 68.2 110.63 68.2 110.63 62.37 104.82 51.86 109.45 51.86 109.45 51.84" />
    <polygon class="cls-1"
        points="64.32 84.32 64.32 70 68.08 70 68.08 81.08 74.17 81.08 72.9 84.32 64.32 84.32" />
    <rect class="cls-1" x="75.42" y="70" width="3.76" height="14.31" />
    <polygon class="cls-1"
        points="107.39 70 107.39 84.32 103.63 84.32 103.63 78.66 98.1 78.66 98.1 84.32 94.34 84.32 94.34 70 98.1 70 98.1 75.43 103.63 75.43 103.63 70 107.39 70" />
    <polygon class="cls-1"
        points="119.53 73.21 116.38 73.21 116.38 84.32 112.62 84.32 112.62 73.21 108.68 73.21 108.68 70 120.82 70 119.53 73.21" />
    <polygon class="cls-1"
        points="53.43 69.99 56.43 75.59 59.44 69.99 63.42 69.99 58.2 79.25 58.2 84.32 54.46 84.32 54.46 79.21 49.36 69.99 53.43 69.99" />
    <path class="cls-1"
        d="M104.57,61.23c-.55-.68-1.29-1.16-2.24-1.44,.78-.35,1.38-.89,1.77-1.58,.39-.7,.6-1.44,.6-2.21,0-.52-.09-1.03-.26-1.54-.17-.49-.44-.94-.75-1.34-.32-.39-.73-.71-1.18-.96-.46-.25-.99-.36-1.55-.36h-8.7v16.39h7.24c.8,0,1.57-.09,2.28-.25,.73-.16,1.35-.41,1.89-.75,.54-.33,.97-.77,1.28-1.31,.3-.54,.46-1.16,.46-1.9-.03-1.15-.3-2.08-.84-2.76m-8.7-5.97h3.37c.28,0,.61,.12,.81,.35,.2,.23,.41,.62,.41,1.16,0,.61-.22,1.03-.45,1.23-.23,.2-.6,.3-.89,.3h-3.24v-3.05h-.01Zm4.6,9.2c-.26,.22-.65,.33-.96,.33h-3.59v-3.27h3.73c.29,0,.67,.13,.89,.38,.22,.25,.44,.67,.44,1.25,0,.65-.25,1.09-.51,1.31" />
    <path class="cls-1"
        d="M93.31,76.29h-5.18l-1.31,3.06h3.51v.94c-.71,.57-1.55,.96-2.4,.96-.55,0-1.05-.1-1.5-.29-.45-.19-.83-.46-1.15-.81-.32-.35-.57-.77-.76-1.25-.17-.48-.26-1.03-.26-1.63s.09-1.12,.26-1.61c.17-.49,.42-.91,.74-1.28,.32-.36,.68-.64,1.12-.83,.03-.01,.06-.03,.09-.04,.38-.17,.86-.29,1.39-.29,.09,0,.17,0,.26,.01,.04,0,.09,0,.13,.01h.01c.16,.01,.32,.04,.46,.09,.49,.1,.94,.23,1.38,.42,.49,.2,.94,.46,1.36,.75l1.26-3.01c-.38-.33-.78-.62-1.23-.87-.51-.28-1.07-.49-1.67-.64-.61-.14-1.23-.22-1.89-.22-1.06,0-2.03,.19-2.95,.57-.91,.38-1.7,.89-2.38,1.54-.67,.65-1.2,1.42-1.58,2.31-.38,.89-.58,1.84-.58,2.87,0,1.19,.19,2.25,.58,3.18,.38,.93,.9,1.71,1.54,2.37,.64,.64,1.39,1.13,2.26,1.47,.86,.33,1.77,.51,2.71,.51,2.21,0,4.24-.62,5.73-2.35v-5.95Z" />
    <path class="cls-1"
        d="M150.64,53.71l-.33-.38s-.01-.01-.03-.01l-1.02-.12h-.03l-.57,.23s-.01,0-.01,.01l-.28,.29s-.01,.09,.03,.09h.12s.03,0,.03,.01l.13,.13s.03,.01,.04,.01l.87-.12s.06-.07,.03-.1c-.04-.03-.01-.09,.03-.1l.49-.03h.01l.42,.15s.09-.03,.06-.07" />
    <path class="cls-1"
        d="M134.64,58.19l-.42,.06s-.03,.01-.03,.01l-.36,.35s-.03,.07,0,.1l.13,.1s.03,.01,.06,.01l.32-.04s.01,0,.03-.01l.26-.16s.03-.03,.03-.04l.07-.29c0-.06-.03-.1-.09-.09" />
    <path class="cls-1"
        d="M133.91,57.85h0s-.04-.06-.07-.04l-.38,.06s-.04,.01-.04,.04l-.13,.29s-.06,.04-.09,.03l-.73-.32c-.06-.03-.12,.03-.09,.09h0s.01,.03,.01,.04l.84,.67s.06,.01,.07,0l.2-.13s.03-.03,.03-.06v-.33s.03-.04,.04-.06l.29-.2s.04-.04,.03-.07" />
    <path class="cls-1"
        d="M132.42,56.18h1.28s.07-.01,.07-.06v-.13s.06-.09,.1-.06l.29,.14s.03,.01,.04,0h.06s.07-.09,.03-.13l-.42-.39s-.03-.01-.04-.01l-.54-.07s-.06-.03-.06-.07c0-.03-.03-.06-.06-.07l-.46-.03s-.03,0-.03,.01l-.7,.36s-.03,.03-.03,.04l-.06,.26s.03,.09,.07,.09h.15s.03-.01,.03-.03l.1-.09s.1,0,.1,.04v.09c.01,.07,.04,.1,.07,.1" />
    <path class="cls-1"
        d="M142.38,52.76h-.01s-.68-.28-.68-.28h-.48s-.06,.04-.06,.07v.19s.01,.04,.04,.06l.36,.1h.01l.16,.07s.01,.01,.01,.01l.15,.22s.04,.03,.06,.01l.3-.1h.04l.15,.1h.01l.25,.07h.04l.09-.06s.03-.06,0-.09l-.45-.39Z" />
    <path class="cls-1"
        d="M158.17,59.22v-.12s.01-.03,0-.04l-.25-.41s-.01-.03-.04-.03l-.6-.2h-.13s-.07,.03-.07,.07v.25s0,.03,.01,.03l.14,.25,.12,.17s.01,.01,.03,.03l.17,.06h.52s.07-.01,.09-.06" />
    <path class="cls-1"
        d="M157.19,57.85s-.03-.01-.03-.01h-.81s-.04,0-.06,.01l-.2,.22s-.01,.1,.04,.12l.16,.03h.03l.25-.03,.3-.06s.06-.03,.06-.07h0c0-.06,.03-.09,.07-.09h.17s.07-.09,.01-.12" />
    <path class="cls-1"
        d="M170.5,75c-.48-.23-1.05,.12-1.41-.38-.36-.49-1.44-.83-1.44-.83,0,0-.55-.36-1.09-.2-.54,.16-.94-.42-.94-.42,0,0-.54,.16-.81-.2-.28-.36-2.24-.73-2.24-.73,0,0-.99,.16-1.09-.23-.09-.39-.25-.6-.39-.51-.16,.09-.09,.26-.48,.2-.39-.06-.86-.12-1.23-.33-.38-.22-.73-.22-1.02-.15-.16,.04-.45-.06-.68-.15v-.64s.29-.73,.29-.73l.03-3.93,.33-.75,.2,3.4,.33-7.53-.28-.48,.35-.65-.17-.2,.04-.83-.62-1.34-.81-.42-.28-.28-.29-2.5-.42,2.57-.15,.13-.12-.15-.23-1.5-.19,1.95-.17-.6-.26,.96-.36,.3-.26,1.35,.04,.26,.19,.61v1.55l-.22,.68v2.35l.35,2.11,.16-1.51,.23,.7-.23,2.86,.06,1.54c-.13-.07-.28-.16-.39-.25,0,0-.32,.04-.71-.2-.39-.25-.41,.06-.83-.09-.42-.15-.09-.6-.46-.58-.38,0-.77,.13-1.89-.15,0,0-.15-.04-.38-.1v-.8l.09-.58v-4.56s.22-1.02,.25-1.02,.01,4.66,.01,4.66l.2-.48,.29-6.72-.36-1.16,.07-2.44,.44-1.38-.3-1.51-.46-.17-.39-1.03-.2,.52-.78-.36-.23-1.16-.3,1.41-.28-2.4-.42,2.77-.64,.77-.06,.55-.28,.76,.12,.86-.2,.73,.26,.46,.15,3.86v.03l.07,.22v.36s-.07,2.35-.07,2.35l.32,1.23v3.22s.03,.17,.03,.17c-.19-.07-.32-.13-.39-.17-.41-.29-.71-.89-1.5-.94-.28-.13-.28-.28-.62-.41-.35-.13-1.07-.55-1.35-.52-.29,.03-.64,.1-.64,.1l-.14-.04,.07-3.35-.2-.84,.06-3.08,.19-.77,.13,3.31,.16-4.62,.32-.86-.07-.78-.03-.74-.06-1-.16-.9-.28-.07-.2-2.13-.32,1.77-.1-1.64-.23,1.06-.2-2.67-.68,2.76-.89,.32-1.25,.32-.65,1.25v2.51s.51,1.29,.51,1.29l-.03,2.24,.61,1.65-.36,.78,.14,3.14v.17s-.04-.01-.06-.01c-.41-.12-.33-.51-.58-.64,0,0-.61,.38-1.47,.16-.86-.22-2.6-.81-2.6-.81,0,0-.07-.01-.19-.06v-1.79l.33-.89,.04-1.8,.12-.28-.04-.74,.26-.49,.2-.74-.48-2.24-.19,.93-.33-3.77-.61,3.14-.32-1.9-.32,1.34-1-.06-1.09,.87v.62l-.32,.65,.07,.89-.07,.65v1.36s-.36,1.36-.36,1.36l.51,2.16v.03c-.94,.06-2.79-.16-3.28-.44-.49-.29-.68-.64-1.23-.64s-.49-.16-.94-.46c-.45-.32-.97-.64-1.05-.65-.22-.03-.33-.19-.48-.28-.23-.13-.6-.17-.83-.22-.13-.03-.28-.06-.41,0-.1,.04-.16,.12-.23,.19-.09,.1-.19,.19-.28,.29-.1,.1-1.45,.52-1.57,1.22-.1,.58-.84,.97,.57,2.66,1,1.21,3.83,.91,4.02,1.26,.19,.36,.97,.15,1.19,.29s1.35,1.18,1.79,1.19c.44,.01,.49-.16,.71,0,.22,.16,1.15,.38,1.15,.38,0,0,.41,.23,.93,.26v.78l.12,.49,.16,7.58,.3-6.17,.17,.6,.04,5.17,.35,1.54-.06,1.74,.12,.64v1.64s.42,3.93,.42,3.93l.41-3.93-.04-2.08,.28-.91v-2.93s.25,4.81,.25,4.81l.35-7.45-.06-.49,.58-1.68v-1.67s.2-.45,.2-.45v-.83l.3,.04s1.95,.13,1.99,.57c.04,.44,.71,1,1.99,1.21,.77,.03,.89,.51,.89,.51,0,0,.01,.04,.06,.1v.07l-.03,1.67,.3,1.34-.03,1.57,.15,.86,.17,6.29,.2-2.89,.04,4.18,.22,3.01,.57-6.72-.07-1.97,.35-1.13,.09-4.53,.22-1.64s.06-.01,.09-.01l.04,5.95,.48-6c.23-.03,.39-.06,.39-.06,0,0,.7-.25,.91,.17,.22,.42,.42,.91,.6,.86,.19-.07,.52-.23,.67,.13,.16,.36,.26,.38-.3,.44-.04,0-.04,.17,.25,.29,.29,.12,.36,.15,.57,0,.86-.58,1.39-.45,1.39-.45,0,0,.7-.17,.9,.06,.01,.01,.03,.04,.06,.06l.03,2.4-.22,1.03,.51,4.59,.19-3.73,.3,.45,.15,6.42,.32-2.73v-1.41l.33-.86v-4.43l.32-1.07c.19,.06,.35,.14,.42,.25,.22,.33,1.38-.04,1.68,0,.3,.04,1.57,.35,1.57,.35,0,0-.1,.26,.2,.22,.3-.03,1.32-.68,1.71-.64,.09,.01,.17,.01,.25,.01l.06,.42v2.11s-.19,1.77-.19,1.77l.42,.93,.26,6.23,.35-3.95,.28-.84,.12-3.47,.22,4.75,.35-6.47-.22-1.25c1.35,.23,3.46,.65,3.7,1.03,.36,.57,.8,.51,.68,0-.07-.33-.42-.62-.7-.8-.36-.22,1.51,.22,1.51,.22,.81,.25,2.02,.55,2.25,.52,.32-.03,.46,.03,.64,.22,.17,.17,.25,.6,.89,.49,.64-.1,.91-.26,1.55,0,.65,.26,1.48,.17,1.96,.17,.48,.06,.8-.25,.32-.49m-37.69-6.1l-.2-7.4-.07-.75-.1-.83c-.01-.1-.16-.12-.19-.01v.03l.16,6.55-.48-6.84h0s-.12-.54-.12-.54c-.01-.04,.01-.1,.07-.12l.13-.03s.07-.04,.07-.09l.03-.28c0-.06,.06-.1,.12-.09l.12,.03s.07,.04,.07,.09l.06,.6s.01,.06,.04,.07l.38,.25s.04,.04,.04,.09l-.13,9.28Zm1.77-9.65s-.03,.01-.03,.03l-.09,.19v.03l-.07,2.21c0,.09-.13,.09-.13,0l-.23-2.16h0s-.17-.36-.17-.36c-.01-.03-.04-.04-.07-.04l-.15,.03s-.06,.03-.06,.06l-.04,.74c0,.07-.12,.09-.13,0l-.12-.7s0-.01-.01-.03l-.17-.22h-.01s-1.1-.97-1.1-.97c-.03-.01-.06-.01-.09,0l-.04,.03s-.04,.06-.01,.09l.12,.19s0,.09-.03,.1l-.07,.03s-.04,0-.06-.01l-.35-.26s-.03-.03-.03-.06v-.78s-.01-.03-.03-.04l-.2-.22s-.03-.04-.01-.07l.38-.83v-.44s0-.04,.01-.06l.73-.44h.01l.52-.16h.03l.93,.17s.01,0,.03,.01l.89,.61s.01,.01,.01,.01l.48,.8s0,.01,.01,.03l.1,.71v.03l-.09,.46s0,.01-.01,.03l-.3,.45s-.01,.01-.01,.03l-.03,.44v.03l.03,.1s0,.06-.03,.07l-.28,.15Zm4.78-5.23l.19-.25s.06-.03,.09-.01c.04,.01,.06,.06,.03,.1l-.07,.15-.09,.13s-.07,.04-.12,.01l-.04-.04s0-.06,.01-.09m3.5,.06s-.09-.03-.1,.01l-.12,.55c-.01,.06-.1,.06-.1-.01l-.04-.73s-.06-.07-.09-.04l-.19,.15s-.01,.01-.03,.01h-.06s-.04,0-.06-.01l-.15-.42-.03,.07h0s-.01,.13-.01,.13h0s.07,.38,.07,.38h0s.09,.19,.09,.19v.03l-.03,.29h0s-.12,.28-.12,.28h0s-.17,10.34-.17,10.34l-.14-5.87c0-.07-.1-.07-.1,0s-.1,.07-.1,0l-.04-4.56s-.01-.04-.03-.04l-.16-.07s-.01-.01-.03-.03l-.15-.19s-.01-.01-.03-.03l-.29-.1s.09,.13,.09,.15,.07,.16,.1,.2v.03l-.07,1.67c0,.07-.1,.07-.1,0l-.1-1.76s-.01-.04-.04-.04l-.38-.1h-.04l-.09,.06s-.03,.01-.03,.03c-.01,.1-.09,.48-.09,.49s-.1-.19-.13-.28c-.01-.01-.03-.03-.04-.03h-.51s-.15,.03-.15,.03l.13-.2s.01-.01,.03-.01l.32-.12s.03-.01,.03-.04l.04-.16s.07-.06,.1-.01l.07,.1s.03,.03,.04,.03h.22s.04-.04,.04-.07v-.44s-.03-.03-.03-.04l-.07-.06s-.03-.06,0-.09l.22-.22h0s.12-.2,.12-.2c.01-.03,.06-.03,.09-.01l.3,.29s.01,.04,0,.07l-.13,.17h0s-.01,.06-.01,.06c0,.01,0,.04,.01,.06l.29,.32s.01,.01,.03,.01l.49,.07s.03,0,.04-.01l.17-.17s.01-.03,.01-.04l-.07-.49s0-.01-.01-.03l-.38-.48s-.03-.01-.04-.01l-.6-.04s-.33-.06-.33-.07,.07-.2,.09-.28c0-.01,.03-.03,.04-.03l.42-.06s.03-.01,.04-.03l.09-.17s.03-.03,.04-.03l.75-.13h.03l.7,.22h.01l.49,.28s.01,.01,.01,.01l.51,.81s.01,.01,.01,.03l-.09,2.16-.04,.52-.13-1.68s0-.01-.01-.03l-.32-.51Zm7.55,3.31v.58s.01,.01,.01,.01l-.1,.32h0s-.13,6.21-.13,6.21l-.22-7.2s.01-.04,.03-.04l.36-.17s.03-.03,.03-.04v-.15s-.01-.04-.03-.04l-.32-.17s-.03-.03-.03-.04l-.04-.44-.1,.2h-.06l-.04-1.25c0-.07-.1-.07-.1,0l-.09,1.32s-.01,.03-.01,.04l-.13,.1s-.06,.01-.07-.01l-.16-.2h-.01s-.09-.29-.09-.29c0-.03-.03-.04-.06-.04h-.01s-.06,.03-.06,.06v.19s-.03,.06-.06,.06h-.16s-.03-.03-.03-.03l-.09-.1s-.03-.01-.04-.01l-.65-.03s-.06,.01-.06,.04l-.04,.28s0,.04,.01,.04l.35,.29s.03,.01,.04,.01h.26s.01-.01,.01-.01l.38-.17h.03l.19,.03s.03,.01,.04,.03l.22,.44s.03,.03,.04,.03l.28,.04s.04,.03,.04,.06c-.01,.65-.16,8.13-.17,10.19-.03-1.74-.15-7.32-.19-9.12,0-.06-.1-.07-.1,0l-.06,.32c-.01,.06-.1,.06-.1,0l-.1-.73s0-.01-.01-.01l-.13-.2s-.01-.01-.01-.03v-.1s.04-.06,.07-.04l.19,.09s.06,0,.07-.03l.09-.19v-.04l-.2-.44s-.06-.04-.09-.01l-.22,.19s-.01,.01-.01,.03l-.09,.51s-.01,.03-.01,.03l-.17,.16s-.01,.03-.01,.04l-.1,3.03c0,.06-.09,.07-.1,.01l-.1-.49h0s-.01-3.18-.01-3.18c0-.03-.03-.06-.06-.06h-.13s-.04-.01-.06-.04l-.04-.29s0-.03-.01-.03l-.32-.3s-.01-.03-.01-.04l.04-.87s.01-.04,.04-.04h.1s.06,0,.06,.03l.04,.19s.03,.04,.06,.04l.26-.04s.06-.06,.03-.09l-.28-.28s-.01-.03-.01-.04l.03-.22s0-.03-.01-.04l-.16-.19s-.01-.03-.01-.03v-.83s.01-.03,.03-.03l.49-.67s.01-.01,.03-.01l.68-.23s.04-.03,.03-.06v-.09s.03-.06,.06-.06l1,.03s.03,0,.03,.01l.41,.32,.51,.58h.01s.25,.78,.25,.78h0v.35s0,.03-.01,.04l-.32,.32-.33,.35s-.01,.03-.01,.04v.58s-.01,.03-.03,.04l-.16,.16s-.01,.06,0,.09l.17,.12s.01,0,.01,.01l.22,.06s.04,.04,.03,.06l-.09,.32s-.01,.03-.03,.03l-.29,.16c.04-.07,.03-.06,.03-.04m5.14,13.12l.09-.9,.16-1.83,.12,2.87c-.12-.04-.23-.09-.36-.15m1.57-9.55s0,.03-.01,.04l-.07,.07s-.01,.03-.01,.04v.67c-.01,.09-.13,.09-.15,.01l-.09-.52s-.03-.06-.06-.06c-.04,0-.07,.03-.07,.06l-.03,.61h0s-.06,.22-.06,.22h0s-.12,7.94-.12,7.94l-.2-8.58s-.01-.06-.04-.06l-.07-.03s-.04-.03-.04-.06v-.17s-.01-.03-.01-.04h-.01s-.03-.09,0-.12l.17-.15s.01-.01,.01-.03l.09-.19s.03-.04,.06-.04h.44s.06,.01,.06,.04v.04s.04,.03,.06,.04l.09,.03s.03,.01,.04,.04l.04,.12v.06Zm.55-1.26l-.13-.12s-.06-.03-.09-.01l-.19,.1s-.04,.06-.03,.1l.09,.15s.01,.03,.01,.04l-.03,.3s-.03,.07-.07,.06h-.03s-.06-.01-.06-.04l-.09-.29s-.03-.04-.06-.04h-.6s-.03-.01-.04,0l-.13,.09s-.01,.01-.03,.03l-.03,.07s-.03,.04-.06,.04h-.01s-.07-.03-.07-.07v-.13s.01-.03,.01-.04l.2-.2s.01-.03,.01-.04l.03-.2s.03-.06,.06-.06h.12s.04-.03,.06-.06l.04-.12s.03-.04,.06-.04h.03s.06,.01,.07,.04l.04,.1s.03,.04,.06,.04h.04s.07-.04,.07-.09v-.13s-.01-.01-.03-.03l-.17-.23s-.03-.03-.04-.03h-.04s-.06,.01-.07,.04l-.06,.13s-.04,.04-.07,.04h-.04s-.06-.03-.06-.07v-.42l-.04-.1s-.04-.04-.09-.04l-.3,.07s-.01,0-.01,.01l-.35,.23s-.03,.03-.03,.04l-.1,.33h0s-.03,.17,0,.17,.3-.01,.39-.03c.01,0,.03-.01,.04-.03l.06-.06s.04-.03,.06-.03h.1s.06,.06,.06,.09v.09s-.03,.04-.04,.04l-.19,.16s-.03,.03-.03,.06v.26s.01,.01,.01,.01l-.14,1.22h0s-.12,.54-.12,.54v-1.77s.01-.03,0-.04l-.1-.13s-.12-.03-.12,.03c-.03,.1-.06,.22-.06,.22,0-.01-.07-.33-.09-.44,0-.01-.01-.04-.03-.04-.06-.03-.2-.1-.2-.13s.01-.36,.01-.45c0-.01,0-.03,.01-.04l.25-.32s.03-.01,.04-.03l.19-.04s.03-.01,.03-.01l.26-.28s.03-.06,.01-.09v-.03s-.03-.07,.01-.1l.41-.25s.01-.01,.03-.01l1-.04s.03,0,.04,.01l.36,.23,.03,.03,.15,.33s.01,.01,.01,.03l.57,.52s.01,.01,.01,.03l.09,.23v.29s-.04,.06-.07,.06h-.06s-.07,.06-.06,.1l.04,.12v.04l-.13,.36-.07,.22h0s-.06,2.85-.06,2.85c0,.09-.13,.09-.15,0l-.22-2.48-.09-.89s-.01-.03-.03-.04" />
    <polygon class="cls-1"
        points="122.05 71.24 122.05 70.13 121.65 70.13 121.65 69.99 122.63 69.99 122.63 70.13 122.23 70.13 122.23 71.24 122.05 71.24" />
    <path class="cls-1"
        d="M122.79,71.24v-1.25h.25l.29,.89c.03,.09,.04,.15,.06,.19,.01-.04,.04-.12,.07-.2l.3-.87h.22v1.25h-.16v-1.05l-.36,1.05h-.15l-.36-1.06v1.06h-.16Z" />
</svg>
