<?xml version="1.0" encoding="UTF-8"?>
<svg id="_Слой_1" data-name="Слой 1" xmlns="http://www.w3.org/2000/svg" viewBox="0 0 196 136">
    <defs>
        <style>
            .cls-1 {
            fill: none;
            }

            .cls-2 {
            fill: #d4d4d4;
            }
        </style>
    </defs>
    <polygon class="cls-1" points="61.46 61.77 61.45 61.76 61.46 61.77 61.46 61.77" />
    <polygon class="cls-1" points="62.02 63.33 62.03 63.33 62.02 63.33 62.02 63.33" />
    <path class="cls-1" d="M50.62,57.67s.02-.06,.03-.09c-.01,.03-.02,.06-.03,.09Z" />
    <path class="cls-1"
        d="M27.12,17.88V118.12H168.88V17.88H27.12ZM163.14,108.6c-.11,0-.21,0-.32,0-43.22,0-86.43,0-129.65-.01-.12,0-.42,.22-.41-.17h0v-40.18c1.1,0,2.21,0,3.31-.03,3.61-.08,7.21-.17,10.82-.26,1.83-.05,3.67-.09,5.5-.16,.42-.02,.54,.07,.48,.51-.13,1-.2,2.01-.3,3.06,1.08-.54,2.2-.94,3.13-1.67h0c.6-.51,.61-.52,.11-1.16-.15-.19-.22-.6-.63-.32-.09,.06-.15-.07-.19-.15-.04-.09-.13-.2,.02-.26,.14-.06,.21-.15,.07-.26-.17-.13-.15-.5-.48-.42-.14,.03-.21,.04-.29-.1-.07-.13-.04-.19,.05-.3,.18-.23,.05-.56,.24-.86,.16,.08,.34,.17,.52,.26,.06,.03,.1,.12,.19,.04,.07-.07,.02-.13,.02-.2,.01-.47-.33-.79-.49-1.19h0c-.08-.11-.16-.22-.25-.35-.14,.1-.29,.2-.43,.3q-.44,.3-.66-.21c-.23,.27-.46,.52-.74,.84-.03-.3-.05-.53-.08-.8-.29,.16-.55,.3-.83,.46-.08-.51,.06-.92,.34-1.33-.3,.07-.57,.13-.86,.19-.03-.54,.32-.91,.53-1.44-.27,.16-.45,.27-.73,.44,.21-.49,.39-.91,.59-1.37-.31,.11-.56,.37-.92,.21,.23-.6,.53-1.18,.62-1.86-.29,0-.48,.25-.78,.29,.16-.49,.4-.94,.49-1.53-.25,.16-.45,.28-.7,.44,.07-.5,.13-.94,.19-1.39-.06-.08,.04-.21-.09-.27-.08,.08-.15,.16-.3,.32,.02-1.27,.29-2.39,.69-3.55,.5,.88,1.24,1.44,2.18,1.86-.23,.13-.48,.06-.62,.23,.51,.21,1.02,.42,1.57,.65-.3,.15-.61,.09-.98,.14,.55,.57,1.22,.88,1.84,1.34-.36,.17-.71,.16-1.19,.09,.7,.56,1.46,.62,2.18,.86-.18,.33-.51,.42-.92,.51,.48,.29,.93,.31,1.4,.39-.16,.33-.41,.53-.78,.65,.36,.27,.8,.27,1.2,.48-.31,.06-.57,.12-.97,.2,.41,.14,.7,.23,1.05,.35-.35,.18-.65,.34-.99,.51,.42,.27,.83,.07,1.25,.07-.1,.24-.36,.24-.48,.44,.14,.1,.3,.2,.46,.31,.08,.06,.24,.1,.2,.22-.03,.08-.16,.13-.25,.17-.35,.16-.74-.02-1.09,.13h0c.09,.06,.14,.14,0,.17-.14,.02-.29-.01-.52-.03,0,0,0,0,0,0,.26,.44,.49,.83,.71,1.22h0c.05-.09,.1-.18,.15-.27,0,0,0,0,0,0,.02-.13,.03-.27,.05-.43,.3,.11,.64,.09,.8,.44,.05,.11,.13,.09,.22,.03,.08-.05,.17-.1,.1-.21-.29-.4,.01-.77,.04-1.22,.23,.22,.42,.4,.6,.57,.1,.09,.09,.42,.32,.2,.2-.2,.73-.1,.58-.62,0-.01,0-.03,0-.05,.01-.19-.09-.48,.07-.55,.15-.07,.41,.03,.59,.12,.41,.21,.71,.09,.8-.37,.01-.06,.03-.12,.03-.18,0-.41,.15-.42,.46-.22,.14,.09,.3,.32,.51,.14,.21-.18-.02-.34-.03-.51,0-.04,0-.09,0-.13,0-.03,0-.06-.01-.09-.12-.09-.08-.24-.13-.35,.04,0,.07,0,.1,0-.02-.01-.05-.01-.1,0-.09-.08-.05-.19-.06-.28,0,0,0,0,0,0,0,0,0,0,0,0-.09-.28-.18-.56-.27-.85-.03-.1-.05-.17-.17-.16h0c-.31,.72-.63,.74-1.47,.08-.36,.63-.47,.74-.97,.92,.06-.13,.11-.22,.16-.32,.07-.14,.14-.31,.05-.43-.13-.18-.25,.07-.39,.05-.09,0-.18,.04-.27,.05-.21,0-.42,0-.68,0,.14-.24,.37-.38,.44-.64-.07-.15-.26-.02-.36-.14,.19-.38,.58-.69,.55-1.26-.28,.43-.59,.72-1.07,.82,0-.41,.2-.77,.26-1.21-.25,.13-.46,.24-.76,.4,.21-.46,.47-.79,.6-1.18,.18-.52,.15-.56-.39-.51-.1,0-.23,.16-.31-.02-.05-.11,.08-.17,.12-.26,.11-.23,.22-.46,.35-.72-.25-.04-.47-.08-.73-.13,.38-.4,1.01-.65,.87-1.45-.4,.57-.91,.62-1.5,.57,.28-.33,.62-.54,.82-.88,.07-.13,.2-.28,.08-.42-.13-.16-.23,.04-.35,.07-.18,.04-.34,.05-.59-.03,.63-.45,1.16-.89,1.32-1.72-.42,.34-.76,.62-1.27,.59,.37-.71,.8-1.38,.68-2.29-.25,.35-.54,.51-.96,.56,.52-.6,.88-1.21,.86-1.98-.14-.1-.21,.1-.35,.06,.09-.42,.35-.81,.35-1.27-.23,.03-.29,.31-.56,.28,.29-1.21,.58-2.41,.89-3.67,1.21,1.03,2.39,2.04,3.58,3.06-.01,.03-.03,.06-.04,.09-.38-.08-.76-.17-1.14-.25,.56,.93,1.56,1.08,2.48,1.43-.44,.38-.92,.43-1.43,.35,.23,.52,1.05,.96,2.7,1.44-.32,.38-.75,.48-1.18,.57,0,0,0,0,0,0,0,0,0,0,0,0-.09,.05-.23-.01-.3,.11,.33,.48,.78,.76,1.37,.83,.19,0,.39-.06,.57,0,.23,.06,.04,.11-.03,.15-.47,.23-.93,.46-1.46,.72,.84,.34,1.67,.28,2.56,.41-.64,.43-1.22,.79-2.02,.61,.23,.34,.56,.43,.86,.54,.53,.18,1.06,.34,1.62,.41,.27,.03,.32,.14,.15,.37-.29,.38-.7,.42-1.21,.37,.45,.55,1.07,.54,1.65,.74-.64,.3-1.25,.38-1.92,.27,.36,.31,.72,.61,1.11,.94-.31,.17-.62,.05-.97,.18,.56,.46,1.2,.48,1.88,.61-.46,.38-.99,.37-1.52,.56,.43,.24,.81,.46,1.2,.69-.39,.38-.76,.39-1.87,.08q-.17,.61-.95,.55c-.11,.06-.11,.16-.1,.26h0s.02,.06,.03,.08c.05,.13,.1,.25,.14,.38,0,0,0,0,0,0,.05,.11,0,.26,.11,.35,.17,.29,.27,.61,.35,.93,.03,.02,.03,.04,.02,.07h0c.08,.04,.07,.22,.23,.16,.13-.05,.14-.13,.11-.25-.08-.28,.13-.48,.24-.69,.11-.2,.2,.06,.31,.09,.24,.06,.19,.5,.5,.42,.39-.1-.02-.41,.12-.62,.09-.12,.1-.43,.18-.41,.25,.06,.52,.18,.66,.43,.05,.08,.02,.23,.18,.17,.14-.05,.07-.14,.04-.22-.1-.32,.18-.49,.28-.73,.05-.13,.14-.04,.21,.02,.2,.15,.33,.37,.5,.59-.03-.43,.06-.82,.25-1.23,.24,.23,.51,.4,.63,.7,.04,.1,.07,.16,.18,.12,.08-.03,.2-.05,.18-.16-.07-.32,.08-.68,.29-.72,.24-.05,.47,.26,.63,.5,0,0,0,0,0,0,0,0,0,0,0,0,.24-.12,.18-.41,.35-.59,.28-.31,.41-.23,.58,.06,.12,.01,.24,.02,.36,.03,.33-.27,.64-.56,1.03-.74,.2-.09-.02-.28,.08-.4,.14-.17,.29-.34,.44-.51h0s-.06-.06-.1-.09h0c-.08,.03-.16,.07-.25,.09-.16,.05-.32,.22-.49,.05-.17-.17,.03-.32,.09-.5-.16,.01-.32,.16-.45-.01-.03,0-.04-.03-.04-.07-.05-.07-.09-.14-.14-.21h0c-.28-.19-.44-.06-.62,.17-.37,.47-.78,.92-1.17,1.38-.45-.58-.46-.58,.01-1.05,1.31-1.29,2.34-2.82,3.5-4.23,.48-.58,.47-.59,1.26-.32-.43,.51-.85,1-1.27,1.49-.13,.15-.24,.26-.17,.54,.09,.35-.27,.65-.36,1h0s0,0,0,0c.04,.04,.08,.08,.12,.12,.2-.16,.39-.33,.59-.48,.1-.07,.2-.23,.34-.09,.13,.13,.07,.28-.03,.4-.27,.34-.54,.69-.84,1.07,.37-.04,.61-.28,.91-.39,.2-.07,.43-.33,.61-.13,.2,.24-.11,.41-.23,.61,.05-.01,.09,0,.1,.06h0c.18-.03,.35-.3,.55-.01,.06,.09,.13,0,.19-.04,.37-.21,.74-.42,1.1-.64,.25-.16,.22-.77-.03-.92-.05-.03-.12-.07-.13-.11-.13-.65-.43-1.26-.29-1.95,.22-1.07,.4-2.14,.59-3.21,.02-.13,.04-.27-.04-.4-.56-.86-1.25-1.59-2.15-2.11-.26-.15-.57,0-.85-.08q.18-.72,.91-.71c.49,0,.98-.02,1.46,.03,.48,.05,.54-.14,.49-.56-.07-.51-.06-1.03-.07-1.54,0-.39,.17-.56,.58-.51,.22,.02,.3,.11,.31,.3,.01,.26,.07,.43,.4,.39,.25-.03,.57,.08,.57-.35,0-.36,.25-.32,.5-.33,.29-.02,.38,.11,.38,.37,0,.22,.1,.33,.34,.31,.17-.02,.33-.01,.5,0,.16,0,.23-.03,.26-.21,.22-1.35,.22-2.73-.11-4.02-.23-.91-.28-1.83-.51-2.73-.07-.3-.02-.44,.31-.39,.22,.03,.32-.11,.44-.25,.69-.82,1.4-1.64,2.08-2.47,.19-.24,.27-.22,.45,.01,.61,.77,1.24,1.53,1.88,2.29,.13,.16,.23,.37,.5,.34,.17-.02,.13,.13,.14,.23,.03,.77,.05,1.55,.08,2.32,0,.11,.05,.28-.14,.27-.52-.01-.31,.39-.35,.62-.04,.27-.19,.63,.26,.75,.82,.22,1.03,.77,.92,1.56-.06,.42-.02,.85,0,1.27,0,.17-.12,.44,.23,.42,.26-.01,.63,.14,.63-.33,0-.29,.15-.32,.4-.34,.58-.06,.51,.37,.52,.68,.03,.95,.09,1.92-.11,2.86-.18,.87-.06,1.71,.08,2.56,.03,.19,.11,.39-.14,.51-.16,.08-.1,.24-.1,.37,0,.91,.28,1.78,.46,2.69,.15-.64,.28-1.29,.45-1.92,.45-1.66,.33-3.37,.44-5.06,.16-2.51,.25-5.03,.36-7.55,.01-.23,.08-.38,.27-.52,.65-.49,1.29-1.01,1.93-1.51,.18-.14,.25-.28,.3-.51,.21-1.09-.13-2.14-.27-3.2-.06-.44-.02-.75,.33-1.08,.79-.75,1.54-1.55,2.29-2.34,.19-.2,.36-.25,.63-.13,.61,.27,1.23,.5,1.84,.76,.24,.1,.39,.11,.34-.21-.04-.23,.17-.58-.28-.65-.09-.01-.02-.1,0-.14,.11-.3,.24-.59,.34-.89,.06-.18,.19-.16,.33-.16,.59,0,1.18,0,1.78,0,.24,0,.38-.04,.34-.32-.01-.07,0-.15,0-.23,0-.38,.04-.72,.23-1.09,.27-.52,.14-1.16,.08-1.75-.01-.11-.04-.21-.05-.32-.01-.39-.26-.93,.53-.79,.05,0,.11-.05,.16-.08,.82-.63,1.79-.84,2.79-.96,.26-.03,.51-.03,.77,.03,.7,.16,.94,.49,.74,1.16-.09,.29,.02,.33,.25,.4,1.59,.54,3.2,.39,4.81,.16,.19-.03,.39-.04,.59-.07h0c.1-.09,.23-.14,.33-.03,.03,.03-.07,.11-.14,.12h0c-1.79,1.3-3.77,2.04-6.01,2-.38,0-.75-.07-1.12-.16-.37-.09-.52-.28-.36-.66,.07-.15,.13-.3,.19-.46,.11-.33,.01-.44-.35-.38-1.07,.16-1.85,.77-2.53,1.57-.1,.12-.22,.27,0,.4,.1,.06,.09,.16,.08,.24-.18,.92,.3,1.66,.66,2.44,.06,.13,.17,.25,.15,.45-.56-.19-.58,.15-.54,.56,0,.06,0,.12,0,.18-.13,.86,.03,1.54,1.05,1.68,.18,.03,.23,.14,.17,.33-.09,.3-.12,.63-.21,.93-.33,1.03-.02,2.04,.01,3.06,.02,.78,.39,1.37,.81,1.97,.61,.89,1.19,1.79,1.8,2.68,.13,.19,.17,.38,.17,.6,.03,2.38,.11,4.77,.08,7.15,0,.91-.28,1.82-.37,2.74-.15,1.62-.21,3.24,.5,4.78,.08,.16,.17,.32,.27,.47,.08,.12,.19,.23,.33,.39,.21-1.19,.25-2.33,.17-3.47-.02-.3-.06-.61-.04-.91,.03-.43-.06-.77-.5-.93-.24-.09-.2-.24-.1-.42,.26-.51,.48-1.05,.77-1.54,.42-.72,.62-1.47,.52-2.3-.04-.33,.03-.54,.43-.46,.31,.06,.46-.11,.58-.37,.19-.43,.42-.84,.6-1.27,.1-.23,.18-.26,.4-.13,.67,.42,1.36,.8,2.01,1.24,.32,.22,.65,.18,.96,.11,.27-.06,.24-.37,.21-.6,0-.08-.11-.16-.08-.25,.28-.77-.11-1.27-.57-1.85-.77-.96-.51-1.94,.56-2.61,.23-.14,.29-.24,.18-.52-.6-1.66-.75-3.36-.4-5.1,.19-.94,.45-1.03,1.23-.44,.56,.42,1.1,.87,1.53,1.42,.29,.36,.63,.52,1.07,.57,.92,.11,1.83,.22,2.75,.37,.52,.08,.43-.4,.69-.64,.48,.45,.96,.91,1.44,1.36-.02,.04-.03,.07-.03,.07-.82,.07-1.05,.58-1.1,1.33-.05,.83-.21,1.65-.34,2.47-.03,.2,.07,.32,.16,.45,.45,.64,.88,1.3,1.25,2,.09,.17,.17,.35,.23,.54,.15,.44,.07,.58-.39,.64-1.06,.16-2.08-.1-3.07-.42-.99-.32-1.89-.8-2.71-1.44-.07-.06-.14-.11-.22-.16-.02-.01-.05,.01-.1,.02,.21,.56,.44,1.11,.64,1.68,.09,.25,.21,.35,.49,.34,.75-.01,.75,0,.75,.77,0,.49,.03,.97,0,1.46-.07,.95,.08,1.84,.54,2.67,.14,.26,.13,.43-.18,.55-.23,.08-.33,.23-.33,.52,0,2.61,0,5.22,.16,7.83,.01,.2-.03,.39,.28,.4,.22,0,.31-.04,.27-.27-.03-.15-.03-.3-.04-.45-.04-.6-.07-1.18,.26-1.75,.29-.5,.35-1.09,.34-1.67-.02-1.08,.04-2.15,.08-3.23,.01-.26,.08-.33,.34-.3,.53,.07,1.06,.11,1.58,.18,.24,.03,.35-.05,.48-.27,.45-.74,.43-1.53,.31-2.33-.09-.65,.03-.9,.48-1,.45-.1,1.05,.26,1.17,.72,.08,.31,.11,.63,.05,.95-.06,.27,0,.39,.32,.41,1.14,.05,1.46,.47,1.28,1.71-.03,.24,0,.27,.21,.28,.32,.02,.63,.06,.99,.09-.07-.33-.29-.61-.11-.96,.08-.16,.14-.26,.32-.22,.3,.06,.3-.11,.37-.34,.33-1.24-.03-2.43-.24-3.63-.05-.29-.24-.2-.41-.18-.81,.12-1.63,.18-2.45,.15-.16,0-.37,.06-.46-.11-.11-.2,.03-.38,.14-.54,.63-.89,1.51-1.43,2.56-1.69,1.22-.3,2.37-.06,3.45,.58,.08,.05,.16,.1,.22,.16,.16,.16,.42,.28,.36,.53-.05,.23-.33,.25-.52,.3-.7,.17-1.41,.33-2.13,.45-.25,.04-.29,.12-.24,.35,.26,1.22,.47,2.44,.24,3.69-.04,.18-.05,.32,.23,.37,.33,.05,.36,.36,.26,.64-.07,.19-.19,.37-.31,.59,.97,.11,1.89,.26,2.82,.3,.51,.02,.65,.23,.73,.67,.38,1.97,.8,3.93,1.23,5.99,.43-.61,.81-1.16,1.19-1.71,.02,.01,.04,.02,.07,.03-.14,.63-.27,1.26-.4,1.9-.02,.11-.15,.24,.06,.34,.17,.08,.29,.1,.45-.02,.47-.38,.96-.74,1.5-1.06-.25,.41-.51,.83-.74,1.25-.06,.1-.25,.21-.09,.34,.18,.14,.29,0,.4-.15,.67-.93,1.35-1.87,2.03-2.8,.08-.11,.17-.21,.33-.27-.47,1.12-.94,2.25-1.45,3.45,.67-.07,.8-.7,1.27-1.02,0,.23,.01,.43,0,.63-.02,.27,.14,.28,.33,.41,.7,.48,1.11-.18,1.66-.28,.03,0,.05,0,.15,.01-.34,.33-.65,.62-1.06,1.02,.6-.12,.73,.19,.79,.61,.03,.24,.26,.16,.41,.15,.31,0,.59-.02,.64,.41,.05,.35,.23,.09,.33,.02,.61-.48,1.2-.96,1.87-1.39-.44,.67-.88,1.34-1.34,2.05,.48,.1,.92,.19,1.36,.3,.15,.04,.21,0,.27-.14,.48-1.14,.96-2.29,1.45-3.42,.11-.25-.06-.24-.2-.29-.37-.15-.78-.26-.67-.8,0,0,0,0,0,0-.11-.11-.07-.25-.09-.38h0c-.07-.08-.13-.18,0-.23,.09-.03,.09,.08,.09,.15h0c.02,.09,.05,.18,.07,.27h0c.05,.16,.1,.33,.26,.41,.22,.12,.53,.34,.7,.19,.2-.17,.27-.52,.22-.84-.17-1.01-.36-2.03-.32-3.06,.02-.56,.08-1.12,.14-1.68,.03-.27-.06-.4-.29-.54-.3-.2-.79-.11-.92-.61-.03-.11-.29,.03-.41-.09h0c-.2-.17-.34-.37-.5-.65,.32,.13,.39,.46,.69,.48h0c.19-.06,.31-.16,.28-.39-.03-.25,0-.51,0-.79-.17-.03-.2,.25-.37,.14-.14-.09-.1-.24-.11-.38-.02-.26-.03-.51-.05-.77,0-.01-.01-.03-.02-.04-.13-.02-.11,.11-.16,.17-.15,.16-.29,.35-.52,.3-.22-.04-.19-.28-.25-.44-.06-.19-.12-.37-.19-.58-.22,.19-.31,.56-.68,.5-.35-.05-.29-.46-.51-.63-.03-.03-.05-.02-.06,.02-.02,.31-.1,.59-.32,.82-.12,.13-.13,.12-.73-.31,.02,.21,.04,.4,.04,.6,0,.27-.08,.45-.39,.29-.14-.07-.19-.04-.24,.12-.15,.43-.26,.44-.57,.1-.83-.91-.99-1.99-.76-3.14,.27-1.35,.97-2.42,2.23-3.09,.82-.44,1.54-1.02,2.24-1.63,.52-.45,1.13-.55,1.75-.66,.57-.1,1.08-.38,1.66-.44,.89-.09,1.67,.21,2.42,.62,1.2,.65,2.25,1.47,3.06,2.59,.37,.51,.8,.99,1.23,1.46,.64,.69,1.04,1.51,1.46,2.34,.24,.48,.22,.96,.07,1.45-.23,.77-.66,1.42-1.2,2.01-.24,.26-.33,.18-.4-.1-.04-.16-.08-.31-.14-.52-.1,.28-.17,.53-.27,.76-.06,.13-.01,.38-.27,.35-.24-.02-.22-.24-.29-.47-.16,.22-.3,.41-.45,.62-.33-.27-.35-.6-.2-1-.28,.07-.4,.39-.64,.36-.28-.04-.21-.36-.31-.56-.24,.28-.22,.77-.69,.82-.23,.02-.21-.26-.33-.37-.28,.26-.42,.63-.76,.83-.49,.28-.71,.17-.76-.4-.22,0-.35,.17-.49,.28-.32,.24-.47,.11-.53-.21-.04-.2-.04-.42-.06-.64-.32,.02-.45,.17-.46,.51-.01,.79-.07,1.58-.11,2.36-.06,1.07,.23,2.06,.69,3.02,.09,.19,.19,.37,.2,.59,.2,0,.35-.12,.51-.2h0s0,0,0,0c.03-.06,.07-.12,.1-.18h0v-.3c-.15,.09-.17,.32-.34,.28-.19-.04-.21-.24-.24-.4-.14-.71-.14-1.42,.13-2.1,.34-.87,1.12-1.12,1.95-1.29,1.78-.36,2.96,.49,3.88,1.88,.39,.59,.38,1.19,.05,1.8-.29,.53-.69,.97-1.23,1.24-.17,.08-.48,.36-.46-.17,0-.15-.1-.1-.19-.09-.14,.02-.27-.05-.28-.17-.05-.47-.26-.3-.5-.15-.18,.11-.43,.32-.42-.15,0-.14-.1-.14-.19-.08-.32,.23-.66,.44-.62,.92,.02,.24,.01,.49,0,.73-.01,.36,0,.62,.41,.86,.71,.43,.66,1.92,0,2.42-.35,.27-.98,.2-1.28-.14-.67-.75-.43-1.99,.47-2.45,.01,0,.03,0,.04-.01,.16-.11,.13-1.48-.04-1.59-.55-.36-1.47-.24-1.93,.25-.06,.06-.09,.16-.11,.24-.28,1.27-.56,2.54-.69,3.84-.03,.29,.08,.37,.31,.42,.31,.07,.61,.18,.93,.21,.62,.05,1,.37,1.28,.91,.3,.59,.69,1.14,1.01,1.72,.13,.24,.28,.33,.57,.31,2.25-.19,4.5-.36,6.76-.54,1.97-.15,3.93-.31,5.9-.46,2-.16,3.99-.31,5.99-.46,.15-.01,.3,0,.45-.01v40.36h0c-.04,.06,.09,.19-.09,.18Z" />
    <path class="cls-2"
        d="M75.8,84.45c.03,.88,.04,1.72,.04,2.52,.81-.02,1.44-.33,1.9-.9,.46-.58,.69-1.54,.69-2.9s-.22-2.38-.65-3.15c-.43-.77-1.12-1.11-2.07-1.04,0,1,0,1.98,.02,2.92,.01,.94,.03,1.79,.06,2.54Z" />
    <polygon class="cls-2" points="69.55 60.3 69.55 60.3 69.55 60.3 69.55 60.3" />
    <polygon class="cls-2" points="69.56 60.3 69.55 60.3 69.55 60.3 69.56 60.3" />
    <polygon class="cls-2" points="69.55 60.3 69.56 60.3 69.56 60.3 69.55 60.3" />
    <polygon class="cls-2" points="62.74 62.67 62.74 62.67 62.74 62.67 62.74 62.67" />
    <path class="cls-2"
        d="M42.16,107.42c2.19-.21,4.38-.42,6.57-.6,2.01-.17,4.02-.34,6.03-.49,2.53-.19,5.05-.36,7.58-.53,2.17-.14,4.33-.28,6.5-.37,4.58-.2,9.16-.41,13.74-.54,5.74-.17,11.47-.24,17.21-.21,5.22,.02,10.44,.12,15.66,.3,4.25,.14,8.49,.33,12.74,.55,3.42,.17,6.85,.39,10.27,.64,3.96,.28,7.93,.58,11.88,.97,3.21,.31,6.43,.62,9.64,.94,1.09,.11,2.17,.23,3.25,.35h0v-40.36c-.15,0-.3,0-.45,.01-2,.15-3.99,.31-5.99,.46-1.97,.15-3.93,.31-5.9,.46-2.25,.18-4.51,.35-6.76,.54-.29,.02-.43-.07-.57-.31-.33-.58-.71-1.13-1.01-1.72-.28-.55-.66-.86-1.28-.91-.31-.03-.62-.14-.93-.21-.24-.05-.34-.13-.31-.42,.13-1.3,.42-2.57,.69-3.84,.02-.09,.05-.18,.11-.24,.46-.49,1.38-.61,1.93-.25,.17,.11,.2,1.48,.04,1.59-.01,0-.03,0-.04,.01-.9,.46-1.13,1.7-.47,2.45,.3,.34,.93,.41,1.28,.14,.66-.5,.71-2,0-2.42-.4-.24-.42-.5-.41-.86,0-.24,.02-.49,0-.73-.04-.48,.3-.7,.62-.92,.09-.06,.19-.06,.19,.08,0,.47,.25,.26,.42,.15,.24-.15,.44-.33,.5,.15,.01,.12,.14,.19,.28,.17,.09-.01,.2-.06,.19,.09-.02,.53,.29,.26,.46,.17,.54-.27,.94-.71,1.23-1.24,.34-.61,.34-1.21-.05-1.8-.92-1.39-2.1-2.25-3.88-1.88-.83,.17-1.6,.41-1.95,1.29-.27,.68-.27,1.39-.13,2.1,.03,.16,.05,.36,.24,.4,.17,.04,.2-.19,.34-.28v.3h0c.32,.22,.44-.07,.6-.26,.3,.61,.36,.62,.74,.13,.13,.08,.09,.22,.1,.33,.02,.39-.16,.51-.52,.38-.34-.12-.64-.34-1.01-.39h0c-.16,.08-.3,.2-.51,.2,0-.22-.11-.4-.2-.59-.45-.95-.75-1.95-.69-3.02,.04-.79,.1-1.58,.11-2.36,0-.34,.13-.49,.46-.51,.02,.23,.02,.44,.06,.64,.06,.32,.21,.46,.53,.21,.15-.11,.28-.28,.49-.28,.06,.57,.27,.68,.76,.4,.34-.19,.49-.57,.76-.83,.12,.11,.1,.39,.33,.37,.47-.05,.45-.54,.69-.82,.11,.2,.04,.52,.31,.56,.24,.03,.35-.28,.64-.36-.16,.4-.13,.74,.2,1,.15-.21,.29-.4,.45-.62,.07,.22,.05,.45,.29,.47,.25,.02,.21-.22,.27-.35,.1-.23,.17-.48,.27-.76,.05,.21,.09,.36,.14,.52,.07,.28,.16,.36,.4,.1,.54-.59,.97-1.24,1.2-2.01,.15-.49,.17-.97-.07-1.45-.42-.82-.82-1.65-1.46-2.34-.43-.47-.86-.95-1.23-1.46-.81-1.12-1.86-1.94-3.06-2.59-.75-.41-1.53-.7-2.42-.62-.58,.06-1.1,.34-1.66,.44-.62,.11-1.24,.21-1.75,.66-.69,.61-1.42,1.2-2.24,1.63-1.26,.67-1.96,1.74-2.23,3.09-.23,1.15-.07,2.23,.76,3.14,.31,.34,.42,.33,.57-.1,.06-.16,.1-.19,.24-.12,.31,.15,.4-.02,.39-.29,0-.19-.03-.39-.04-.6,.6,.44,.6,.44,.73,.31,.22-.23,.31-.51,.32-.82,0-.05,.02-.06,.06-.02,.22,.17,.16,.58,.51,.63,.37,.06,.46-.31,.68-.5,.07,.21,.13,.39,.19,.58,.05,.17,.03,.4,.25,.44,.23,.04,.38-.14,.52-.3,.05-.06,.03-.19,.16-.17,.01,.02,.02,.03,.02,.04,.02,.26,.03,.51,.05,.77,0,.13-.03,.28,.11,.38,.17,.11,.2-.17,.37-.14,0,.27-.02,.53,0,.79,.02,.23-.09,.33-.28,.39h0c-.06,.06-.12,.11-.19,.17h0c.12,.12,.38-.02,.41,.09,.13,.49,.62,.41,.92,.61,.22,.14,.32,.27,.29,.54-.07,.56-.12,1.12-.14,1.68-.04,1.03,.14,2.05,.32,3.06,.05,.32-.02,.66-.22,.84-.17,.15-.48-.07-.7-.19-.15-.09-.2-.26-.26-.41h0c-.03,.06-.05,.12-.08,.18,0,0,0,0,0,0,0,0,0,0,0,0-.1,.54,.31,.65,.67,.8,.13,.05,.3,.04,.2,.29-.49,1.14-.97,2.28-1.45,3.42-.06,.13-.12,.18-.27,.14-.44-.11-.88-.2-1.36-.3,.46-.71,.9-1.38,1.34-2.05-.67,.43-1.27,.92-1.87,1.39-.1,.08-.28,.33-.33-.02-.06-.43-.33-.42-.64-.41-.15,0-.38,.09-.41-.15-.06-.42-.19-.73-.79-.61,.41-.39,.72-.69,1.06-1.02-.09,0-.12-.02-.15-.01-.54,.1-.96,.77-1.66,.28-.19-.13-.36-.14-.33-.41,.02-.2,0-.4,0-.63-.47,.32-.6,.95-1.27,1.02,.5-1.2,.98-2.33,1.45-3.45-.16,.06-.25,.17-.33,.27-.68,.93-1.36,1.86-2.03,2.8-.11,.15-.22,.29-.4,.15-.16-.13,.03-.24,.09-.34,.24-.42,.49-.83,.74-1.25-.54,.32-1.03,.68-1.5,1.06-.16,.13-.28,.11-.45,.02-.21-.1-.08-.23-.06-.34,.13-.63,.27-1.27,.4-1.9-.02,0-.04-.02-.07-.03-.38,.55-.76,1.09-1.19,1.71-.43-2.06-.85-4.03-1.23-5.99-.09-.45-.23-.65-.73-.67-.93-.04-1.86-.19-2.82-.3,.12-.22,.24-.4,.31-.59,.1-.28,.07-.58-.26-.64-.29-.05-.27-.18-.23-.37,.24-1.25,.03-2.47-.24-3.69-.05-.23-.01-.31,.24-.35,.71-.13,1.42-.28,2.13-.45,.19-.05,.47-.07,.52-.3,.06-.25-.21-.38-.36-.53-.06-.06-.14-.11-.22-.16-1.07-.65-2.22-.88-3.45-.58-1.04,.26-1.93,.8-2.56,1.69-.11,.16-.25,.34-.14,.54,.09,.17,.3,.11,.46,.11,.82,.03,1.64-.04,2.45-.15,.18-.03,.36-.11,.41,.18,.21,1.2,.57,2.39,.24,3.63-.06,.24-.07,.41-.37,.34-.18-.04-.24,.06-.32,.22-.18,.35,.04,.63,.11,.96-.36-.04-.67-.08-.99-.09-.2-.01-.24-.04-.21-.28,.17-1.24-.15-1.66-1.28-1.71-.33-.01-.38-.14-.32-.41,.07-.32,.03-.64-.05-.95-.12-.46-.72-.81-1.17-.72-.45,.1-.57,.35-.48,1,.12,.81,.14,1.59-.31,2.33-.13,.22-.23,.3-.48,.27-.53-.07-1.06-.11-1.58-.18-.26-.04-.33,.03-.34,.3-.04,1.08-.1,2.15-.08,3.23,.01,.58-.04,1.18-.34,1.67-.34,.57-.3,1.15-.26,1.75,.01,.15,.02,.3,.04,.45,.04,.23-.04,.28-.27,.27-.31,0-.27-.21-.28-.4-.16-2.61-.16-5.22-.16-7.83,0-.28,.11-.43,.33-.52,.31-.11,.32-.29,.18-.55-.46-.83-.61-1.72-.54-2.67,.04-.48,0-.97,0-1.46,0-.76,0-.78-.75-.77-.28,0-.4-.09-.49-.34-.19-.56-.42-1.12-.64-1.68,.04-.01,.08-.03,.1-.02,.08,.05,.15,.1,.22,.16,.82,.63,1.73,1.12,2.71,1.44,1,.32,2.01,.57,3.07,.42,.46-.07,.54-.2,.39-.64-.06-.19-.14-.37-.23-.54-.36-.7-.79-1.36-1.25-2-.09-.13-.2-.25-.16-.45,.13-.82,.28-1.65,.34-2.47,.05-.75,.28-1.26,1.1-1.33,0,0,.01-.03,.03-.07-.48-.45-.96-.91-1.44-1.36-.26,.24-.17,.73-.69,.64-.91-.15-1.83-.26-2.75-.37-.44-.05-.78-.21-1.07-.57-.44-.54-.98-.99-1.53-1.42-.77-.59-1.04-.5-1.23,.44-.35,1.74-.2,3.44,.4,5.1,.1,.28,.04,.37-.18,.52-1.06,.67-1.33,1.65-.56,2.61,.47,.58,.85,1.08,.57,1.85-.03,.09,.07,.17,.08,.25,.02,.23,.06,.54-.21,.6-.31,.07-.64,.11-.96-.11-.65-.44-1.35-.82-2.01-1.24-.21-.13-.3-.1-.4,.13-.18,.43-.41,.84-.6,1.27-.12,.26-.26,.43-.58,.37-.39-.08-.47,.13-.43,.46,.1,.83-.1,1.58-.52,2.3-.29,.49-.5,1.03-.77,1.54-.1,.19-.15,.33,.1,.42,.44,.16,.53,.5,.5,.93-.02,.3,.02,.61,.04,.91,.08,1.14,.03,2.28-.17,3.47-.14-.17-.25-.27-.33-.39-.1-.15-.2-.31-.27-.47-.72-1.53-.66-3.15-.5-4.78,.09-.92,.36-1.83,.37-2.74,.03-2.38-.05-4.77-.08-7.15,0-.22-.05-.41-.17-.6-.6-.89-1.19-1.79-1.8-2.68-.42-.6-.78-1.2-.81-1.97-.03-1.02-.34-2.03-.01-3.06,.1-.3,.12-.63,.21-.93,.06-.2,.01-.31-.17-.33-1.02-.15-1.18-.82-1.05-1.68,0-.06,0-.12,0-.18-.05-.4-.03-.74,.54-.56,.02-.2-.09-.32-.15-.45-.36-.77-.83-1.52-.66-2.44,.01-.08,.03-.18-.08-.24-.23-.13-.11-.28,0-.4,.67-.79,1.46-1.41,2.53-1.57,.36-.05,.46,.05,.35,.38-.05,.16-.12,.31-.19,.46-.16,.37-.01,.57,.36,.66,.37,.09,.74,.15,1.12,.16,2.24,.04,4.21-.7,6.01-2-.06-.03-.13-.06-.19-.09h0c-.2,.02-.39,.04-.59,.07-1.61,.23-3.22,.38-4.81-.16-.22-.08-.33-.11-.25-.4,.2-.68-.03-1-.74-1.16-.26-.06-.51-.06-.77-.03-1,.12-1.97,.33-2.79,.96-.05,.04-.11,.09-.16,.08-.79-.14-.54,.41-.53,.79,0,.11,.03,.21,.05,.32,.06,.59,.19,1.23-.08,1.75-.2,.38-.23,.71-.23,1.09,0,.08-.01,.15,0,.23,.05,.28-.09,.33-.34,.32-.59-.01-1.18,0-1.78,0-.14,0-.27-.02-.33,.16-.1,.3-.23,.59-.34,.89-.02,.05-.09,.13,0,.14,.44,.07,.24,.41,.28,.65,.05,.32-.1,.31-.34,.21-.61-.26-1.24-.49-1.84-.76-.27-.12-.43-.07-.63,.13-.75,.79-1.5,1.59-2.29,2.34-.35,.33-.39,.64-.33,1.08,.14,1.06,.47,2.1,.27,3.2-.04,.23-.12,.38-.3,.51-.65,.5-1.28,1.02-1.93,1.51-.19,.14-.26,.29-.27,.52-.11,2.52-.2,5.03-.36,7.55-.11,1.69,0,3.4-.44,5.06-.17,.64-.3,1.28-.45,1.92-.17-.91-.45-1.78-.46-2.69,0-.13-.06-.29,.1-.37,.25-.12,.17-.32,.14-.51-.14-.85-.25-1.69-.08-2.56,.19-.94,.14-1.9,.11-2.86-.01-.31,.06-.74-.52-.68-.25,.03-.39,.05-.4,.34,0,.47-.37,.32-.63,.33-.35,.02-.22-.25-.23-.42-.01-.42-.05-.86,0-1.27,.11-.79-.09-1.34-.92-1.56-.44-.12-.29-.48-.26-.75,.03-.23-.17-.63,.35-.62,.19,0,.14-.16,.14-.27-.02-.77-.05-1.55-.08-2.32,0-.09,.04-.24-.14-.23-.27,.03-.37-.18-.5-.34-.63-.76-1.27-1.51-1.88-2.29-.18-.23-.26-.25-.45-.01-.68,.83-1.39,1.65-2.08,2.47-.12,.14-.23,.28-.44,.25-.33-.05-.39,.1-.31,.39,.22,.9,.27,1.82,.51,2.73,.33,1.29,.33,2.67,.11,4.02-.03,.19-.1,.22-.26,.21-.17,0-.34-.01-.5,0-.24,.02-.34-.09-.34-.31,0-.26-.09-.39-.38-.37-.25,.02-.5-.03-.5,.33,0,.43-.32,.32-.57,.35-.32,.04-.38-.13-.4-.39,0-.18-.09-.27-.31-.3-.41-.05-.59,.12-.58,.51,.01,.52,0,1.03,.07,1.54,.05,.42,0,.6-.49,.56-.48-.05-.97-.02-1.46-.03q-.73-.01-.91,.71c.28,.07,.59-.07,.85,.08,.9,.51,1.59,1.24,2.15,2.11,.08,.13,.06,.26,.04,.4-.19,1.07-.38,2.15-.59,3.21-.14,.7,.17,1.31,.29,1.95,0,.04,.08,.08,.13,.11,.25,.16,.28,.76,.03,.92-.36,.23-.73,.43-1.1,.64-.06,.03-.13,.13-.19,.04-.2-.29-.37-.02-.55,.01h0c-.1,.09-.19,.18-.37,.2,.08-.13,.15-.22,.27-.26h0c.12-.19,.43-.37,.23-.61-.18-.2-.4,.06-.61,.13-.29,.1-.53,.35-.91,.39,.3-.38,.57-.73,.84-1.07,.1-.13,.16-.27,.03-.4-.15-.14-.25,.02-.34,.09-.2,.15-.39,.32-.59,.48-.09,.11-.15,.25-.38,.27,.1-.15,.19-.27,.27-.39h0c.08-.35,.45-.65,.36-1-.07-.28,.04-.38,.17-.54,.42-.49,.84-.98,1.27-1.49-.79-.28-.78-.27-1.26,.32-1.17,1.41-2.19,2.94-3.5,4.23-.48,.47-.47,.48-.01,1.05,.4-.46,.8-.91,1.17-1.38,.18-.23,.35-.36,.62-.17h0c.07-.09,.15-.18,.27-.33,.01,.26-.15,.42-.09,.61-.01-.02-.03-.04-.04-.07,0,.03,0,.06,.04,.07,.13,.17,.29,.02,.45,.01-.07,.18-.26,.33-.09,.5,.17,.17,.33,0,.49-.05,.08-.03,.17-.06,.25-.09h0c.09-.09,.2-.15,.37-.17-.07,.14-.16,.21-.28,.27-.15,.17-.3,.33-.44,.51-.1,.12,.12,.31-.08,.4-.39,.18-.71,.47-1.03,.74-.11,.2,.05,.26,.17,.34,.1,.07,.28,.08,.24,.27-.05,.2-.24-.02-.32,.1-.01,.09,0,.2-.04,.25-.32,.37-.33,.36-.36,.98,0,.13-.08,.23-.22,.23,0,0,0,0-.01,0h0s0,0,0,0c0,0,0,0,0,0,.02,.01,.04,.02,.06,.04,0,0-.01,0-.02,0,.14,.15,.3,.29,.17,.53-.04,.08-.06,.18-.17,.18-.02,0-.06-.02-.07-.05-.07-.12,.04-.15,.1-.21,.03-.03,.07-.06,.02-.12-.06,.02-.13,.04-.2,.06-.02,.03-.05,.07-.07,.1-.15,.24-.31,.48-.56,.64h0c.03,.25-.17,.24-.32,.29-1.29,.42-2.57,.86-3.82,1.39-.51,.22-.52,.22-.66-.31-.02-.08,0-.18-.01-.27h0s0,0,0,0c-.02-.08-.11-.21,.02-.22,.38-.04,.16-.15,.04-.25,0,0,0,0,0,0,0,0,0,0,0,0-.09,.07-.2,.11-.32,.09h0c-.13-.01-.24,.13-.43,.05,.24-.34,0-.69,.05-1.05-.11-.14-.19-.29-.32-.4-.2-.17,0-.24,.06-.35,.01-.03,0-.05-.02-.07q-.65-.18-.35-.93c-.11-.09-.06-.23-.11-.35-.04,.06-.08,.12-.12,.19-.16-.11-.04-.43-.32-.46h0c-.21,.13-.19,.32-.09,.49,.14,.24-.02,.28-.19,.33,0,0,0,0,0,0,.01,.1-.02,.2,.06,.28,.05-.01,.08,0,.1,0,.27,.02-.05,.25,.02,.35,0,0,0,0,0,0h0s0,0,0,0h0s0,.06,.01,.09c.21,.12,.34,.22,.29,.53-.08,.44,.35,.78,.94,.85-.17,.23-.39,.16-.67,.09,0,0,0,0,0,0,.23,.29,.51,.4,.73,.59-.05,.29-.38,.23-.53,.42-.09,.11-.18-.09-.16-.17,.03-.17-.02-.29-.14-.4,0,0,0,0,0,0h0c-.07,.01-.09-.04-.12-.09-.11,.09,.04,.26-.21,.37-.34,.15,.26,.39,.08,.65,.38,.22,0,.38-.04,.56h0c.2,.25,.21,.42-.14,.59-1.26,.62-2.44,1.38-3.59,2.2,0,0,0,0,0,0h0c.05,.14,.27,.36-.16,.26-.28-.06-.41,.12-.31,.41,.09,.26,.14,.43-.27,.34-.25-.06-.57-.02-.43,.41,.08,.23,.02,.3-.23,.27-.27-.03-.56,.28-.81-.05-.93,.73-2.05,1.12-3.13,1.67,.1-1.05,.16-2.06,.3-3.06,.06-.45-.06-.53-.48-.51-1.83,.07-3.67,.12-5.5,.16-3.61,.09-7.21,.18-10.82,.26-1.1,.02-2.21,.02-3.31,.03v40.18c1.25-.13,2.5-.27,3.75-.4,1.88-.2,3.77-.41,5.65-.6Zm100.83-43.37c.25,0,.28,.3,.28,.53,0,.23-.04,.54-.28,.53-.24,0-.25-.32-.27-.55,.03-.2,.04-.5,.26-.5Zm-4.33-9.41c-.09-.29-.12-.65,.05-.96,.04-.08,.1-.17,.2-.11,.08,.05,.21,.1,.13,.24-.28,.46,.03,.76,.35,1.11-.31-.05-.66-.06-.73-.27Zm9.03,30.07c-.04-3.66-.09-8.3-.14-12.71,.75,0,10.67-1.18,13.11-1.21v6.28c0,.94,.03,1.02,.08,2.15-.75,.03-1.49,.04-2.21,.04-.62,.03-1.27,.04-1.95,.04s-1.29,.01-1.83,.04c-.03,.58-.03,1.11-.02,1.59,.01,.48,.02,1.87,.02,2.25v1.18c.16,0,.63,0,1.41,.02,.78,.02,1.97,0,3.58-.07v4.42c0,.89,.01,.9,.04,1.98h-1.41c-.46,0-.98,0-1.57-.02-.59-.01-1.22-.02-1.89-.02v1.05c0,.7,.04,2.59,.12,3.75,.43,.03,.94,.06,1.53,.09,.48,.03,1.07,.07,1.77,.11,.7,.04,1.48,.08,2.33,.11-.03,.49-.04,1.1-.04,1.83-.03,.61-.04,1.36-.04,2.26v4.38c-1.18-.03-11.38-.88-13.07-.91-.03-2.53,.31-5.96,.28-9.09-.03-2.7-.06-5.88-.1-9.54Zm-1.15-10.79c-.03,.61-.05,1.65-.08,2.41-.03,.67-.05,1.48-.06,2.42-.01,.94,0,1.3,.02,2.52h-1.14c-.38,0-.83,0-1.36-.02-.53-.01-1.13-.02-1.81-.02v4.09c0,1.51,0,3.92,.02,5.79,.01,1.87,.03,1.9,.06,4.16,.03,2.26,.05,4.79,.08,7.58-.52-.03-1.13-.04-1.83-.04-.62,0-1.39,0-2.3,.02-.91,.01-1.97,.04-3.2,.07,.03-1.8,.04-3.88,.04-6.23,0-2,0-2.37-.02-5.19-.01-2.82-.03-6-.06-9.54l-4.35,.04c.03-.41,.04-.96,.04-1.65,0-.58,0-1.35-.02-2.31-.01-.96-.03-2.15-.06-3.57,0,0,13.38-.48,16.04-.54Zm-22.59-.49h2.46c.97,0,2.11-.01,3.42-.04,0,2.87,.01,4.4,.04,7.71,.03,2.82,.05,6.04,.07,9.67,.01,3.63,.05,7.42,.11,11.37h-7.93v-8.8c0-2.73-.01-5.92-.04-9.58-.03-3.66-.07-6.06-.13-10.33h2Zm-9.49-32.93c.11-.05,.22-.09,.32-.16,.12-.09,.18-.02,.26,.06,.11,.1,.06,.18-.01,.26-.22,.25-.43,.5-.67,.78q-.59-.58,.1-.93Zm1.23-.23c.04-.09,.13-.24,.27-.16,.13,.07,.14,.2,.1,.35-.2,.8-.39,1.6-.59,2.43-.07-.05-.08-.05-.09-.06-.71-.88-.74-1-.13-1.93,.14-.21,.33-.38,.43-.62Zm-.47-.98c.14,0,.24,.1,.26,.21,.03,.16-.16,.19-.25,.29-.19,.21-.26-.08-.45-.1,0,.2,0,.35-.26,.4-1.18,.25-1.19,.26-1.92-.81,.86,0,1.74,0,2.62,0Zm4.06,13.93c.28-.09,.56,.03,.71,.33,.1,.21,.2,.43,.31,.65-.3,.02-.58,.02-.85-.07-.17-.05-.49,.14-.48-.19,0-.26,0-.63,.32-.73Zm-1.36-.09c.26-.1,.48-.1,.49,.28,0,.12,.04,.24,.07,.35,.05,.2,.03,.31-.23,.28-.38-.06-.76-.09-1.22-.14,.33-.29,.52-.62,.88-.76Zm-7.58-7.78c-.13-.42-.23-.74-.33-1.08q.56,.08,.33,1.08Zm-.68-2.3c-.03,.72-.31,1.38-.3,2.18-.92-.94-.78-1.8,.3-2.18Zm-6.94,30.35c.62-.03,5.65-1.05,6.69-1.1,.37,1.11,.92,2.52,1.43,3.98,.42,1.26,.94,2.79,1.56,4.59,.62,1.8,1.34,3.84,2.15,6.13-.08-1.74-.21-3.95-.38-6.62-.17-2.67-.41-4.68-.72-8.42,.53,.03,5.81,.04,6.88,0,.03,2.34-.1,24.32,.04,29.12-.45,.06-4.69,.52-5.87,.61-.42-1.2-.9-2.57-1.43-4.11-.48-1.31-1.04-2.38-1.69-4.17-.65-1.79-1.36-3.76-2.15-5.94,.06,1.49,.13,3.3,.21,5.44,.08,2.14,.22,4.74,.42,7.8-.56,0-1.21-.01-1.94-.04-.62-.03-1.37-.05-2.26-.06-.89-.01-1.86-.02-2.93-.02,.03-2.11,.04-4.59,.04-7.42,0-2.43-.02-5.35-.04-8.76-.03-3.41,.06-6.65,0-11Zm-28.44-24.37c-.37-.38-.7-.72-1.01-1.04,.93-.28,1.07-.15,1.01,1.04Zm27.88,24.65c-.03,.61-.06,2.03-.07,2.97-.02,.94,0,3.35,.02,4.57h-1.22c-.41,0-.29,0-.86-.02-.57-.01-1.21-.02-1.94-.02v4.09c0,1.51,0,1.88,.02,3.75,.01,1.87,.04,2.14,.07,4.4,.03,2.26,.06,4.79,.09,7.58-.55-.03-1.2-.04-1.96-.04-.67,0-1.49,0-2.46,.02-.97,.01-2.11,.04-3.42,.07,.03-1.8,.04-3.88,.04-6.23,0-2,0-2.61-.02-5.43-.02-2.82-.04-6-.07-9.54l-4.06,.04c.03-.41,.04-.96,.04-1.65,0-.58,0-1.35-.02-2.31-.01-.96-.04-2.15-.07-3.57,0,0,12.91,.89,15.88,1.32Zm-33.79,19.65c.03-2.51,.05-5.51,.06-9.02,.01-3.51,.15-7.22,.15-11.65,1.25-.22,5.76-.1,6.73-.1,3.87,0,5.66,.23,7.46,2,1.8,1.77,3.43,4.18,3.43,7.66,0,1.84-.19,3.37-.82,4.59-.63,1.23-1.48,2.23-2.57,3.01,.17,.56,.58,1.85,1.25,3.86,.67,2.02,1.64,4.44,2.92,7.97-.58,.03-1.27,.07-2.05,.13-.67,.06-1.49,.12-2.46,.19-.97,.07-2.09,.13-3.34,.19l-.71-2.84c-.22-.92-.5-1.66-.84-2.96-.33-1.29-.72-2.75-1.17-4.36-.03,.03-.08,.04-.17,.04h-.42l.17,8.98h-4.64c-.95,0-1.98,.01-3.09,.04,.03-2.23,.06-4.8,.08-7.73Zm-14.56-19.81c1.16-.74,2.66-1.1,4.47-1.1s3.36,.34,4.56,1.02c1.19,.68,2.13,1.67,2.81,2.95,.68,1.28,1.15,2.85,1.4,4.69,.25,1.85,.38,3.95,.38,6.3-.03,2.62-.23,4.84-.6,6.66-.38,1.82-.93,3.29-1.67,4.41-.74,1.12-1.67,1.94-2.81,2.45-1.14,.51-2.48,.76-4.03,.76-1.66,0-3.06-.31-4.21-.92-1.15-.62-2.09-1.52-2.81-2.73-.72-1.2-1.25-2.69-1.59-4.46-.33-1.77-.5-3.81-.5-6.14s.13-4.25,.4-6.08c.27-1.83,.74-3.41,1.42-4.74,.68-1.32,1.61-2.35,2.77-3.09Zm-18.26,18.69c-.03-2.67-.07-5.84-.11-9.52-.04-3.67-.11-7.96-.2-12.37,1.16,.03,2.48,.03,3.96,0,1.28,0,2.79,.11,4.53,.08,1.74-.03,3.7,.05,5.88-.01-.03,.55-.04,1.21-.04,1.96-.03,.67-.04,1.48-.04,2.44v3.4c-.41-.03-.91-.04-1.52-.04-.52,0-1.19,0-2,.02-.81,.02-1.77,.04-2.87,.07v1.61c0,.52,0,1.16-.02,1.92-.02,.75,0,.94,.02,1.9h1.89c1,0,1.33-.03,3.02-.09v2.81c0,.67-.12,2.64-.12,3.58s.01-.09,.04,1.01c-.38-.03-.84-.04-1.39-.04h-1.06c-.73,0-1.24,.02-2.25,.04,.03,1.31,.05,3.58,.07,5.03,.01,1.45,.05,5.96,.11,7.58l-7.84,1.64s-.02-9.91-.04-13.02Z" />
    <path class="cls-2"
        d="M57.42,94.68c.09,.62,.22,1.02,.38,1.2,.16,.19,.36,.28,.6,.28,.19,0,.35-.09,.5-.28,.15-.19,.27-.59,.36-1.2,.09-.61,.16-1.53,.2-2.73,.04-1.2,.06-2.84,.06-4.9,0-1.95-.02-3.52-.06-4.7-.04-1.18-.11-2.07-.2-2.69-.09-.61-.22-1.02-.38-1.22-.16-.2-.35-.3-.56-.3-.27,0-.48,.11-.64,.34-.16,.23-.28,.68-.36,1.34-.08,.67-.13,1.61-.16,2.81-.03,1.2-.04,2.77-.04,4.7s.03,3.51,.08,4.68c.05,1.16,.13,2.05,.22,2.67Z" />
    <path class="cls-2"
        d="M60.72,60.04c.14-.31,.46-.38,.73-.49,.26-.11,.34,.16,.47,.31q.78,.06,.95-.55c1.11,.31,1.48,.29,1.87-.08-.39-.22-.78-.44-1.2-.69,.53-.19,1.06-.18,1.52-.56-.68-.12-1.32-.15-1.88-.61,.35-.13,.67-.01,.97-.18-.39-.33-.75-.64-1.11-.94,.67,.11,1.28,.03,1.92-.27-.58-.2-1.2-.19-1.65-.74,.51,.05,.91,0,1.21-.37,.18-.23,.13-.34-.15-.37-.56-.07-1.09-.22-1.62-.41-.3-.1-.63-.2-.86-.54,.8,.18,1.38-.18,2.02-.61-.89-.14-1.72-.07-2.56-.41,.53-.26,1-.49,1.46-.72-.16-.13-.39,0-.54-.14-.58-.07-1.03-.35-1.37-.83-.05-.05-.14-.09-.14-.15,0-.08,.09-.05,.14-.04,.1,.02,.2,.05,.3,.08,0,0,0,0,0,0,.44-.08,.87-.18,1.18-.57-1.65-.48-2.47-.92-2.7-1.44,.51,.08,.99,.03,1.43-.35-.92-.35-1.92-.49-2.48-1.43,.38,.08,.76,.17,1.14,.25,.01-.03,.03-.06,.04-.09-1.19-1.01-2.38-2.03-3.58-3.06-.31,1.27-.6,2.47-.89,3.67,.27,.03,.32-.26,.56-.28,0,.46-.26,.85-.35,1.27,.14,.05,.21-.16,.35-.06,.02,.77-.35,1.38-.86,1.98,.42-.05,.71-.21,.96-.56,.11,.91-.31,1.58-.68,2.29,.51,.03,.86-.25,1.27-.59-.16,.83-.69,1.27-1.32,1.72,.25,.08,.42,.07,.59,.03,.12-.03,.23-.23,.35-.07,.11,.14,0,.29-.08,.42-.2,.33-.54,.54-.82,.88,.6,.05,1.11,0,1.5-.57,.14,.8-.49,1.05-.87,1.45,.26,.05,.48,.08,.73,.13-.13,.26-.24,.49-.35,.72-.04,.09-.17,.15-.12,.26,.08,.17,.21,.03,.31,.02,.54-.05,.57,0,.39,.51-.13,.39-.39,.72-.6,1.18,.3-.16,.52-.27,.76-.4-.06,.45-.26,.8-.26,1.21,.48-.1,.79-.39,1.07-.82,.04,.57-.36,.87-.55,1.26,.1,.12,.28,0,.36,.14-.07,.26-.3,.4-.44,.64,.26,0,.47,0,.68,0,.09,0,.18-.05,.27-.05,.14,.02,.27-.24,.39-.05,.09,.12,.02,.29-.05,.43-.05,.1-.09,.19-.16,.32,.5-.18,.61-.29,.97-.92,.83,.65,1.16,.64,1.47-.08h0s-.15,.02-.1-.08Z" />
    <polygon class="cls-2" points="55.47 63.91 55.47 63.9 55.46 63.9 55.47 63.91" />
    <path class="cls-2"
        d="M55.4,64.04c-.03-.14-.09-.33,.06-.41,.09-.05,.26,.03,.35,.14,.06,.07,.13,.07,.18-.01h0c.35-.15,.74,.03,1.09-.13,.09-.04,.23-.09,.25-.17,.04-.12-.12-.16-.2-.22-.15-.11-.32-.22-.46-.31,.12-.2,.39-.2,.48-.44-.42,0-.82,.2-1.25-.07,.33-.17,.64-.33,.99-.51-.35-.12-.64-.21-1.05-.35,.4-.08,.66-.13,.97-.2-.4-.21-.84-.21-1.2-.48,.37-.12,.61-.32,.78-.65-.47-.08-.92-.1-1.4-.39,.41-.09,.73-.19,.92-.51-.72-.24-1.48-.31-2.18-.86,.48,.07,.83,.07,1.19-.09-.62-.45-1.29-.76-1.84-1.34,.37-.05,.67,.01,.98-.14-.54-.22-1.06-.43-1.57-.65,.15-.17,.39-.09,.62-.23-.93-.43-1.67-.98-2.18-1.86-.4,1.16-.68,2.28-.69,3.55,.14-.15,.22-.23,.3-.32,.03-.04,.06-.12,.1-.13,.08-.02,.09,.06,.08,.11-.01,.06-.04,.13-.06,.19-.01,.03-.02,.06-.03,.09-.06,.44-.12,.89-.19,1.39,.24-.15,.45-.28,.7-.44-.1,.58-.33,1.03-.49,1.53,.3-.04,.48-.28,.78-.29-.09,.68-.39,1.26-.62,1.86,.36,.16,.61-.1,.92-.21-.2,.46-.38,.88-.59,1.37,.27-.16,.46-.27,.73-.44-.21,.53-.56,.9-.53,1.44,.29-.06,.56-.12,.86-.19-.28,.41-.41,.81-.34,1.33,.29-.16,.54-.3,.83-.46,.03,.27,.05,.5,.08,.8,.28-.32,.51-.58,.74-.84q.22,.51,.66,.21c.14-.1,.29-.2,.43-.3,.09,.13,.17,.24,.25,.35h0c.37-.1,.7-.24,.57-.73Z" />
    <path class="cls-2"
        d="M55.76,63.85c-.23-.13-.29-.07-.3,.05,.23,.02,.38,.05,.52,.03,.15-.02,.09-.11,0-.17h0c0,.23-.15,.14-.23,.09Z" />
    <path class="cls-2"
        d="M56.28,69.67c.19-.08,.4-.06,.34-.39-.04-.27,.24-.33,.44-.34,.23,0,.33-.02,.26-.3-.06-.22,.08-.38,.3-.43,.12-.03,.24-.03,.26-.19,0,0,0,0,0,0-.19-.26-.37-.53-.48-.88,.11,.02,.17,.01,.19,.04,.31,.34,.52,.35,.87,.03,.13-.12,.08-.2,0-.3-.03-.05-.11-.13-.03-.19,.08-.06,.18-.08,.24,.02,.09,.17,.2,.25,.34,.09,.15-.16,.54-.08,.46-.46-.01-.07-.02-.12,.05-.15,.35-.17,.78-.55,1.05-.46,.59,.21,.72-.26,1.02-.48,0-.02,0-.03,0-.05,.11-.31,.1-.6-.13-.86-.11-.13-.07-.27,.03-.36,.12-.11,.17-.27,.31-.36-.07-.16-.14-.31-.21-.47-.03-.08-.1-.18,.02-.23,.13-.06,.19,.03,.22,.15,.04,.2,.12,.38,.1,.59,.02,0,.04,0,.05,.02,.06,.05,.12,.1,.14,.17,.09,.41,.26,.24,.44,.08-.1-.17-.26-.24-.39-.34-.09-.08-.22-.16-.15-.29,0,0,0,0,0,0,0,0,0,0,0,0,0,0,0,0,0,0,.06-.1,.18-.06,.28-.04,.07,.01,.14,.05,.21-.02-.53-.04-.91-.4-.83-.89,.04-.26-.14-.35-.21-.51,0,.04,0,.09,0,.13,.02,.17,.25,.34,.03,.51-.22,.18-.37-.05-.51-.14-.31-.19-.46-.18-.46,.22,0,.06-.02,.12-.03,.18-.09,.46-.39,.58-.8,.37-.18-.09-.44-.19-.59-.12-.16,.07-.06,.36-.07,.55,0,.02,0,.03,0,.05,.15,.52-.38,.42-.58,.62-.23,.22-.22-.11-.32-.2-.19-.17-.37-.35-.6-.57-.03,.45-.33,.82-.04,1.22,.08,.1-.02,.15-.1,.21-.09,.06-.17,.08-.22-.03-.16-.34-.5-.32-.8-.44-.02,.17-.03,.3-.05,.43,0,0,0,0,0,0h0c0,.17,0,.34,.15,.51-.26,.03-.25-.14-.31-.24h0c-.23-.39-.45-.78-.71-1.22,0,.06,0,.12,0,.18,.06,.57-.06,.69-.64,.68h0c.16,.39,.51,.71,.49,1.19,0,.07,.05,.13-.02,.2-.09,.08-.13,0-.19-.04-.18-.09-.36-.18-.52-.26-.19,.3-.06,.63-.24,.86-.09,.12-.12,.17-.05,.3,.08,.14,.15,.14,.29,.1,.33-.08,.31,.28,.48,.42,.14,.11,.08,.19-.07,.26-.15,.07-.06,.18-.02,.26,.04,.08,.09,.21,.19,.15,.41-.28,.49,.13,.63,.32,.5,.65,.5,.66-.11,1.16h0c.19-.06,.37,.07,.57-.02Zm4.13-6.06c.11-.05,.25-.25,.33-.11,.25,.41,.45,.85,.67,1.27,.03,.09-.05,.1-.09,.14-.08,.07-.14,.03-.19-.03-.27-.34-.55-.69-.82-1.03-.11-.14,.03-.2,.1-.24Zm-1.67,1c.68-.48,.68-.48,1.18,.16,.15,.19,.29,.37,.46,.58-.11,.05-.19,.09-.27,.13q-1,.45-1.47-.55c-.07-.15-.04-.22,.09-.32Zm-1.04,.62c.14,0,.17,.09,.22,.16,.12,.22,.25,.44,.37,.66,.05,.09,.13,.18-.01,.26-.09,.05-.17,.02-.23-.08-.16-.25-.32-.5-.48-.76-.11-.18,.09-.18,.13-.25Zm-.46,1.54c-.32-.2-.42-.56-.56-.89,.27,.24,.47,.53,.56,.89Zm-.82,.87c.18,.08,.24,.24,.3,.4,.09,.11,.21,.21,.18,.39-.16-.04-.2-.17-.26-.28-.01-.01-.02-.02-.03-.03-.08-.15-.29-.22-.25-.43,0-.02,.05-.05,.06-.04Zm-.3-.35c-.06,.04-.12,.02-.15-.03-.15-.19-.29-.38-.43-.58-.04-.05-.04-.12,.03-.15,.03-.02,.1-.02,.12,0,.17,.21,.33,.42,.5,.64-.03,.05-.04,.1-.07,.12Z" />
    <path class="cls-2"
        d="M62.51,63.26c-.06,.07-.14,.03-.21,.02-.1-.02-.22-.05-.28,.04,.28,.07,.5,.14,.67-.09-.59-.06-1.02-.41-.94-.85,.06-.31-.08-.41-.29-.53,.08,.17,.25,.25,.21,.51-.08,.49,.3,.85,.83,.89Z" />
    <path class="cls-2"
        d="M56.51,69.73c.25,.03,.31-.04,.23-.27-.14-.43,.17-.46,.43-.41,.4,.09,.36-.08,.27-.34-.11-.29,.03-.47,.31-.41,.42,.09,.2-.12,.16-.26h0s-.01-.02-.02-.03c0,0,0,0,0,0-.02,.16-.13,.16-.26,.19-.22,.05-.36,.21-.3,.43,.07,.28-.03,.29-.26,.3-.2,0-.48,.07-.44,.34,.05,.33-.15,.3-.34,.39-.2,.09-.39-.05-.57,.02h0c.25,.33,.54,.01,.81,.05Z" />
    <path class="cls-2"
        d="M62.17,63.62c.13,.1,.28,.17,.39,.34-.19,.16-.36,.32-.44-.08-.02-.07-.08-.13-.14-.17-.02-.01-.04,0-.05-.02,0,.03,0,.05,0,.08,0,0,0,0,0,0,.12,.11,.17,.23,.14,.4-.01,.08,.07,.28,.16,.17,.15-.19,.48-.13,.53-.42-.22-.19-.5-.3-.73-.59,0,0,0,0,0,0-.07,.13,.06,.22,.15,.29Z" />
    <path class="cls-2"
        d="M61.79,63.65c-.14,.09-.19,.25-.31,.36-.1,.09-.14,.24-.03,.36,.23,.26,.24,.55,.13,.86,0,.02,0,.03,0,.05,.01,0,.02-.02,.04-.03h0c.05-.18,.43-.34,.04-.56,.17-.26-.43-.5-.08-.65,.25-.11,.1-.28,.21-.37,0,0,0,0,0,0,0,0,0-.02-.01-.02Z" />
    <path class="cls-2"
        d="M55.47,64.09c0-.07,0-.13,0-.18,0,0,0,0,0,0,0,0,0,0,0,0,0-.12,.07-.19,.3-.05,.08,.05,.23,.15,.23-.09-.06,.08-.12,.08-.18,.01-.1-.11-.27-.19-.35-.14-.14,.07-.09,.27-.06,.41,.12,.5-.2,.63-.57,.73,.59,.01,.7-.11,.64-.68Z" />
    <path class="cls-2"
        d="M62.77,62.62c.1-.2,.21-.23,.33,.03,.13,.29,.22,.59,.32,.89,0,0,.02,0,.03,0,.42,.15,.1,.34,.04,.51,.06-.01,.12-.02,.14,.04,.15,.6,.49,.21,.75,.15,.4-.09,.03-.34,.09-.5,0-.02,.04-.04,.08-.1,.19,.57,.55,.22,.86,.16,.21-.04,.07-.18,.07-.28,0-.1-.07-.23,.07-.27,.15-.05,.15,.08,.2,.18,.17,.4,.43,.04,.64,.05,.19,0,.28-.12,.19-.33-.03-.08-.16-.24,.04-.3,.19-.06,.13,.12,.16,.2,.17,.45,.43,.04,.64,.05,.17,.01,.32-.09,.21-.32-.05-.11-.15-.29,.03-.34,.18-.04,.18,.17,.18,.29,.01,.22,.15,.23,.29,.23,0,0,0,0,0,0,.2-.2,.32-.47,.54-.66,0,0,0,0,0,0-.1-.06-.1-.16-.03-.27,.04-.07,.13-.1,.19-.04,.05,.05,.02,.11,0,.17,.18-.04,.2-.03,.28,.13,.09-.22-.17-.26-.2-.42,0-.01,0-.03,0-.04-.2-.01-.34-.02-.47-.03,.15-.08,.29-.12,.47-.01,0-.01,0-.02,0-.04,.04-.06,.08-.13,.08-.21-.03-.44,.05-.83,.41-1.11-.06-.09-.1-.19-.1-.3,0-.1,.11-.1,.17-.09,.17,.03,.09,.14,.08,.23,0,0,0,0,0-.01,.09-.06,.25-.1,.04-.23-.14-.09-.38-.2-.13-.43-.12-.01-.24-.02-.36-.03,0,.11,0,.21,0,.32,0,.22-.01,.51-.24,.52-.23,0-.57,.06-.68-.3,0,0,0,0,0,0-.16-.24-.39-.55-.63-.5-.2,.04-.35,.4-.29,.72,.02,.11-.1,.13-.18,.16-.11,.04-.14-.02-.18-.12-.12-.3-.39-.47-.63-.7-.19,.41-.28,.8-.25,1.23-.17-.21-.3-.43-.5-.59-.07-.06-.16-.15-.21-.02-.1,.24-.38,.41-.28,.73,.03,.08,.1,.17-.04,.22-.17,.06-.14-.09-.18-.17-.14-.25-.41-.37-.66-.43-.08-.02-.09,.29-.18,.41-.14,.2,.26,.52-.12,.62-.3,.08-.25-.36-.5-.42-.11-.03-.2-.29-.31-.09-.11,.21-.33,.41-.24,.69,.04,.12,.02,.2-.11,.25-.16,.06-.15-.12-.23-.16h0c-.04,.29,.2,.46,.3,.69Zm5.61-2.13c.09-.01,.13,.06,.16,.13,.07,.24,.13,.49,.2,.73,.03,.11-.03,.16-.12,.2-.14,.06-.15-.04-.17-.13-.06-.25-.12-.49-.18-.74-.01-.1,0-.19,.12-.2Zm-1.14,.4c.16-.07,.19,.05,.21,.14,.07,.26,.12,.53,.18,.79,.03,.09-.04,.12-.11,.16-.14,.07-.14-.05-.17-.12-.08-.24-.15-.49-.23-.73-.05-.13,.01-.19,.12-.24Zm-1.02,.42c.22,.28,.18,.65,.34,.91,0,.1-.02,.15-.08,.17-.07,.02-.11-.03-.14-.08-.03-.05-.04-.11-.05-.17-.05-.27-.22-.52-.18-.81,0-.02,.1-.04,.11-.03Zm-1.08,.36c.09,.01,.12,.07,.14,.15,.07,.26,.13,.53,.22,.78,.04,.11,.01,.16-.08,.21-.15,.07-.14-.05-.16-.13-.08-.27-.16-.55-.24-.82-.03-.1,0-.18,.12-.19Zm-1.13,.41c.1-.06,.16-.02,.2,.09,.08,.31,.17,.61,.25,.92,0,.06-.01,.12-.08,.14-.08,.02-.14,0-.17-.1-.1-.29-.19-.57-.3-.85-.06-.14,.05-.15,.11-.19Z" />
    <path class="cls-2" d="M68.93,61.77s0,0,0,0c0,0,.01,0,.02,.01,0,0,0,0,0,0Z" />
    <path class="cls-2"
        d="M63.45,63.53s-.02,0-.03,0c0,.01,.01,.03,.02,.04,0,0,0,0,0,0,.12,.11,.33,.21-.04,.25-.13,.01-.04,.14-.02,.22t0,0s.07,0,.11-.01c.06-.17,.38-.36-.04-.51Z" />
    <path class="cls-2"
        d="M68.67,62.29c-.22,.19-.34,.45-.54,.66,0,0,0,0,0,0,.02,0,.05,0,.07,0h0s0,0,0,0c.25-.16,.41-.39,.56-.64-.03,0-.05-.02-.07-.04,0,0,0,0,0,0Z" />
    <path class="cls-2"
        d="M69.61,60.02c.2,.14,.04,.17-.04,.23,0,0,0,0,0,.01,0,.01,0,.03,0,.04,0,0,0,0,0,0,0,0,0,0,0,0,.08-.12,.27,.1,.32-.1,.05-.19-.13-.2-.24-.27-.12-.08-.28-.15-.17-.34-.25,.23,0,.33,.13,.43Z" />
    <path class="cls-2"
        d="M62.41,62.27c.13,.11,.22,.27,.32,.4h0s0,0,0,0c0,0,0,0,0,0h0s0,0,0,0c0-.02,.02-.04,.03-.06-.1-.23-.34-.4-.3-.69h0c-.05,.11-.25,.18-.06,.35Z" />
    <path class="cls-2"
        d="M68.91,61.85c.03,.16,.29,.2,.2,.42-.08-.16-.09-.16-.28-.13,0,.02-.02,.05-.02,.07,.07-.02,.14-.04,.2-.06,.05,.06,0,.09-.02,.12-.07,.05-.17,.09-.1,.21,.01,.02,.05,.05,.07,.05,.11,0,.13-.11,.17-.18,.14-.25-.02-.39-.17-.53-.02,0-.04,0-.06,0,0,.01,0,.03,0,.04Z" />
    <path class="cls-2"
        d="M69.55,60.3c-.04,.05-.08,.11-.12,.16-.01-.01-.02-.03-.03-.04-.36,.28-.43,.67-.41,1.11,0,.08-.04,.14-.08,.21,0,.01,0,.02,0,.04t0,0s0,0,.01,0c.15,0,.22-.1,.22-.23,.04-.62,.04-.62,.36-.98,.05-.05,.03-.17,.04-.25,0,0,0,0,0,0,0,0,0,0,0,0Z" />
    <path class="cls-2"
        d="M61.32,60.71c-.07-.21,0-.36,.21-.44-.08-.09-.11-.2-.02-.27,.12-.09,.19,.09,.3,.12,0,0,0,0,0,0h0c0-.1,0-.2,.1-.26-.49-.26-.83-.17-1.09,.26h0c.12-.02,.14,.06,.17,.16,.08,.28,.18,.56,.27,.85,0,0,0,0,0,0,.09-.13,.11-.26,.06-.42Z" />
    <path class="cls-2"
        d="M61.46,60.8c-.1-.18-.12-.36,.09-.49h0s-.01-.02-.02-.03c-.21,.07-.28,.23-.21,.44,.05,.16,.03,.29-.06,.42,.17-.05,.33-.09,.19-.33Z" />
    <path class="cls-2"
        d="M61.92,59.86c-.12-.16-.21-.43-.47-.31-.27,.11-.59,.18-.73,.49-.05,.11,.06,.06,.1,.08,.26-.44,.6-.52,1.09-.26Z" />
    <path class="cls-2"
        d="M69,59.92c0-.13,0-.27,.12-.37-.17-.29-.31-.36-.58-.06-.17,.19-.11,.47-.35,.59,0,0,0,0,0,0,.12,.05,.24,.11,.37,.15,.29,.07,.42-.02,.44-.32Z" />
    <path class="cls-2"
        d="M68.87,60.39c.23,0,.24-.3,.24-.52,0-.11,0-.21,0-.32-.13,.09-.11,.24-.12,.37-.02,.29-.16,.39-.44,.32-.13-.03-.25-.09-.37-.15,.11,.36,.46,.31,.68,.3Z" />
    <path class="cls-2"
        d="M62.02,61.6c.11,.11,.35,.06,.43,.26-.08-.32-.18-.64-.35-.93,.06,.23-.04,.44-.08,.67Z" />
    <path class="cls-2"
        d="M62.45,61.86c-.08-.2-.32-.15-.43-.26,.04-.23,.14-.44,.08-.67q-.3,.75,.35,.93Z" />
    <path class="cls-2"
        d="M61.57,60.26c.19-.02,.28,.12,.28,.26,0,.21,.12,0,.14,.06,0,0,0,0,0,0,0,0,0,0,0,0-.05-.13-.1-.25-.14-.38-.08,.05-.23-.09-.28,.05Z" />
    <path class="cls-2"
        d="M61.85,60.53c0-.15-.08-.28-.28-.26,0,.02-.02,.02-.02,.05,0,0,0,0,0,0h0c.28,.03,.16,.35,.32,.46,.04-.07,.08-.13,.12-.19,0,0,0,0,0,0-.03-.06-.15,.16-.14-.06Z" />
    <polygon class="cls-2" points="61.55 60.31 61.55 60.31 61.55 60.31 61.55 60.31" />
    <path class="cls-2"
        d="M137.99,54.49h0c-.3-.02-.37-.35-.69-.48,.16,.28,.3,.49,.5,.65-.05-.18,.13-.11,.19-.17Z" />
    <path class="cls-2" d="M137.99,54.49c-.06,.06-.24-.01-.19,.17h0c.06-.06,.13-.11,.19-.17Z" />
    <path class="cls-2"
        d="M61.84,60.21s-.02-.06-.03-.08c-.03,.02-.07,.02-.11,.02,.04,.02,.08,.03,.15,.06Z" />
    <path class="cls-2"
        d="M61.51,60c-.09,.07-.07,.18,.02,.27,0,0,.01,0,.02,0,0-.14,.01-.17,.15-.12,.04,0,.08,0,.11-.02,0,0,0,0,0,0-.11-.03-.18-.22-.3-.12Z" />
    <path class="cls-2" d="M61.53,60.28s0,.02,.02,.03c0-.02,0-.03,0-.04,0,0-.01,0-.02,0Z" />
    <path class="cls-2"
        d="M61.56,60.25s0,0,0,0c0,0,0,0,0,0,0,0,0,0,0,0,.05-.15,.2,0,.28-.05-.06-.03-.11-.04-.15-.06-.06,0-.13,0-.14,.11Z" />
    <path class="cls-2"
        d="M61.57,60.26s0,0,0,0c0,0,0,0,0,0,0,.01,0,.03,0,.04,0-.02,.01-.03,.02-.05Z" />
    <path class="cls-2"
        d="M61.56,60.25c.02-.1,.08-.11,.14-.11-.14-.05-.16-.02-.15,.12,0,0,0,0,0,0,0,0,0,0,0,0Z" />
    <path class="cls-2" d="M61.56,60.26s0,0,0,0c0,.02,0,.02,0,.04,0,0,0,0,0,0,0-.01,0-.03,0-.04Z" />
    <path class="cls-2"
        d="M61.45,61.76c-.05-.06-.03-.13-.02-.19,.02-.06,.03-.13,0-.15-.03,0-.06,0-.1,0,.05,.12,.01,.26,.13,.35h0s0,0,0,0Z" />
    <path class="cls-2"
        d="M61.44,61.57c-.02,.07-.03,.13,.02,.19-.07-.09,.25-.33-.02-.35,.04,.02,.03,.09,0,.15Z" />
    <polygon class="cls-2" points="61.46 61.77 61.46 61.77 61.46 61.77 61.46 61.77" />
    <path class="cls-2"
        d="M138.42,60.87c-.02-.09-.05-.18-.07-.27-.03,.03-.06,.05-.1,.08h0c.02,.13-.02,.27,.09,.38-.03-.08-.08-.18,.08-.18Z" />
    <path class="cls-2"
        d="M138.42,60.87h0c-.16,0-.1,.1-.08,.18,0,0,0,0,0,0,.02-.06,.05-.12,.08-.18Z" />
    <path class="cls-2"
        d="M108.37,25.4s0,0,0,0h0c.07-.01,.17-.09,.14-.12-.1-.11-.23-.06-.33,.03,.09-.03,.19-.08,.19,.09Z" />
    <path class="cls-2" d="M108.37,25.4s0,0,0,0c0-.17-.1-.12-.19-.09h0c.06,.03,.13,.06,.19,.09Z" />
    <path class="cls-2" d="M61.6,65.32s.02-.04,.03-.06c-.01,0-.03,.02-.04,.03,0,.01,0,.02,0,.03Z" />
    <polygon class="cls-2" points="62.74 62.67 62.74 62.67 62.74 62.67 62.74 62.67 62.74 62.67" />
    <path class="cls-2"
        d="M62.8,63.61c.1,.04,.17-.01,.25-.02-.07-.1-.12-.2-.16-.31,0,.11-.02,.22-.1,.33Z" />
    <path class="cls-2"
        d="M62.8,63.61c.08-.11,.1-.22,.1-.33-.06-.2-.08-.41-.16-.6,0,0,0,0,0,0-.05,.35,.19,.71-.05,1.05,.19,.08,.29-.06,.43-.05-.03-.03-.04-.06-.06-.09-.08,.01-.15,.06-.25,.02Z" />
    <path class="cls-2"
        d="M62.9,63.27c.03,.11,.08,.21,.16,.31,0,0,.02,0,.03,0,0,0,0,0,0,0-.06-.23-.14-.45-.24-.67,.03,.12,.05,.24,.05,.36Z" />
    <path class="cls-2"
        d="M63.08,63.58s0,0,0,0c0,0-.02,0-.03,0,.02,.03,.03,.06,.06,.09h0s-.02-.06-.03-.09Z" />
    <path class="cls-2" d="M68.92,61.76s0,0,0,0c-.07-.04-.16-.02-.24-.05,.08,.05,.17,.01,.24,.05Z" />
    <path class="cls-2" d="M69,61.81s-.04-.02-.06-.04c.01,.01,.02,.02,.03,.04,0,0,.01,0,.02,0Z" />
    <polygon class="cls-2" points="68.92 61.76 68.92 61.76 68.92 61.76 68.92 61.76 68.92 61.76" />
    <path class="cls-2"
        d="M68.68,61.72c.08,.03,.17,0,.24,.05h0c-.18-.11-.33-.07-.47,.01,.13,0,.27,.02,.47,.03,0-.01,0-.03,0-.04-.07-.03-.16,0-.24-.05Z" />
    <polygon class="cls-2" points="68.92 61.76 68.92 61.76 68.92 61.76 68.92 61.76" />
    <path class="cls-2"
        d="M68.91,61.81s.04,0,.06,0c-.01-.01-.02-.02-.03-.04,0,0-.01,0-.02-.01,0,0,0,0,0,0,0,.01,0,.03,0,.04Z" />
</svg>
