<svg width="49" height="37" viewBox="0 0 49 37" fill="none" xmlns="http://www.w3.org/2000/svg">
    <g clip-path="url(#clip0_210_9968)">
        <path fill-rule="evenodd" clip-rule="evenodd"
            d="M9.53664 17.8133L9.81688 16.6886C10.8936 16.3586 13.0912 16.2087 13.5042 17.3934C13.7402 18.0832 13.0617 20.9475 12.929 21.7873L11.8818 21.8023C11.6458 21.5024 11.8375 22.0573 11.6753 21.3224C10.6723 22.2372 8.53368 22.0873 8.69592 20.2427C8.85816 18.4131 10.4216 18.6531 12.1178 18.3831C12.0883 17.2134 10.6428 17.5284 9.52189 17.7983L9.53664 17.8133ZM17.4276 17.6333C16.4689 17.6333 16.3214 17.4234 15.4807 17.7983C15.5839 18.863 16.1296 18.4431 16.8818 18.953C18.3125 19.9128 16.7786 22.8821 13.3715 21.6074L13.5632 20.5276C14.5219 20.7226 15.0087 20.9175 15.7461 20.4976C15.9231 18.983 13.283 19.9728 14.0205 17.5433C14.4187 16.2237 16.1739 16.4036 17.6193 16.5386L17.4128 17.6333H17.4276ZM2.73715 15.3389L4.99382 15.4139L5.22981 19.013L6.45401 16.1337C6.86699 15.0989 6.58675 15.3239 9.18265 15.3539L8.01745 21.7873L6.749 21.7723L7.44222 17.1534L5.56904 21.8023L4.04985 21.7573C4.0056 20.8576 3.93186 17.6933 3.69587 17.0935L2.9289 21.7723L1.60145 21.7573L2.73715 15.3389ZM24.2566 29.0006L24.876 28.2508C23.6371 28.0858 23.4158 28.4457 22.8554 27.426L25.702 27.396C25.879 27.0961 26.174 26.8111 26.3215 26.4662C23.0766 26.2413 22.1621 27.0811 21.6459 25.6414H26.8525L27.4277 24.7266L20.9969 24.6966L20.7019 23.9318L27.6342 23.9018C28.0324 23.6769 28.0324 23.4219 28.1357 22.9571L21.5722 22.9421C20.3922 22.9571 20.3185 23.227 20.0972 22.1322H28.3569L28.6224 21.2025L26.2035 21.1725L26.0855 21.8023L24.699 21.7423L25.5693 16.5086L26.882 16.6886C26.882 16.7185 26.9114 16.8235 26.9114 16.8685C26.9114 16.8985 26.9262 16.9435 26.9262 16.9585L26.9999 17.2284C27.3687 16.7785 27.6047 16.4486 28.4601 16.4786L28.0177 17.6933C27.7669 18.0232 27.0294 17.6483 26.7197 18.5481L28.1652 18.6081C28.3274 17.6633 28.5044 17.3784 28.7699 16.6136L28.7846 16.1637L19.7432 16.1787L19.7137 16.5086C20.2005 16.5086 20.1857 16.4186 20.466 16.6586L20.3332 17.5433C19.4187 17.7683 19.4482 17.2134 19.3597 18.4281C19.4925 18.6531 19.3302 18.5331 19.6105 18.6081L20.1857 18.6231C21.1149 15.5488 23.8878 16.2237 24.522 17.1834C24.8613 17.6933 25.2005 19.3729 24.3598 19.5079L21.5427 19.5379C21.6754 21.0525 23.3863 20.7376 24.4925 20.3627C24.4483 20.9925 24.4925 21.5024 23.9173 21.7124C23.4601 21.8773 22.5014 21.8323 21.9999 21.7124C20.7609 21.4274 20.23 20.7976 20.1415 19.4329L19.6105 19.4179C19.1238 19.193 19.5072 19.4179 19.2565 18.803C19.05 20.0627 18.4895 20.8726 20.0235 20.6926C19.935 21.4424 20.0382 21.6974 19.227 21.7873C16.8671 22.0723 17.6341 20.4676 18.0176 18.3232C18.6223 14.904 18.1503 15.3239 19.8612 15.3539L28.6519 15.3689L28.4749 14.4391L19.9792 14.4091L20.1415 13.6593L28.1799 13.6143C27.9734 12.3396 27.9292 12.6545 25.0088 12.6545H20.5545C20.8642 11.5598 20.7019 11.8597 23.5928 11.8597H27.5014L27.0884 10.9149L21.4247 10.8999L21.8082 10.1201L26.5427 10.0901C25.938 8.83043 25.9675 9.19035 22.6194 9.13036C23.0471 8.05062 23.7993 8.32055 25.112 8.32055C24.7433 7.7207 24.4778 7.76569 24.2566 7.25581C23.7108 6.97088 23.2241 6.461 22.6784 6.07109C18.5043 3.07181 12.8405 2.75689 8.29769 5.00635C4.2121 7.01587 0.200255 11.6648 0.244503 18.0982C0.303501 27.291 8.23869 33.9944 17.2211 32.4348C21.4394 31.7 22.5014 29.9604 24.2418 28.9856L24.2566 29.0006Z"
            fill="white" fill-opacity="0.12" />
        <path fill-rule="evenodd" clip-rule="evenodd"
            d="M33.8878 16.6436C38.4601 15.6988 37.7078 17.9933 37.3391 19.8528C37.2211 20.4077 37.2211 21.5024 36.7934 21.8024C36.6901 21.8024 36.0854 21.8174 36.0264 21.7874C35.6134 21.6224 35.8052 22.1173 35.7462 21.3525C34.5072 22.0723 32.5456 22.2373 32.7815 20.2277C32.9733 18.6231 34.5662 18.3682 36.1887 18.4432C36.1297 17.2584 35.0677 17.4534 33.5928 17.8283L33.9025 16.6436H33.8878ZM38.4011 16.5086L39.6253 16.5236C39.64 16.5536 39.6548 16.5986 39.6548 16.6286L39.8465 17.1835C40.0678 16.8385 40.4807 16.5386 41.1297 16.5236L40.9527 17.5884L40.348 17.8283C39.1385 18.2332 39.2123 19.7778 38.8878 21.8024H37.5161L38.4011 16.5086ZM44.9056 15.3689H46.1593L45.0826 21.8174C43.6814 21.8323 44.0206 21.9073 43.5781 21.3675C42.6637 22.7471 39.9203 21.4724 40.761 18.6231C41.3805 16.4936 43.4749 15.9238 44.5073 17.1835L44.9203 15.3539L44.9056 15.3689ZM24.2711 7.27083C24.4924 7.78071 24.7726 7.73572 25.1266 8.33558C23.8139 8.33558 23.0617 8.05065 22.6339 9.14539C25.9821 9.20537 25.9526 8.84546 26.5573 10.1052L21.8227 10.1351L21.4392 10.915L27.103 10.93L27.516 11.8747H23.6074C20.7313 11.8747 20.8788 11.5898 20.569 12.6695H25.0234C27.9437 12.6695 27.988 12.3546 28.1945 13.6293L20.156 13.6743L19.9938 14.4241L28.4895 14.4541L28.6665 15.3839L19.8758 15.3689L19.7578 16.2087L28.7992 16.1937L28.7845 16.6436C29.4629 15.9837 29.3449 15.6388 30.6134 15.2639C31.6606 14.964 32.3243 15.1889 33.3568 15.4139L33.1355 16.7936C31.3656 16.2537 30.2151 16.3887 29.8022 18.2482C29.3449 20.2427 30.8936 20.9926 32.5308 20.1977C32.3833 21.6524 32.1473 22.0123 30.4659 21.7874C29.3007 21.6374 28.9467 21.0675 28.4305 20.3627H26.3213L26.2033 21.1875L28.6222 21.2175L28.3567 22.1473H20.097C20.3183 23.242 20.392 22.9721 21.572 22.9571L28.1355 22.9721C28.0175 23.422 28.0322 23.6919 27.634 23.9169L20.7018 23.9468L20.9968 24.7117L27.4275 24.7417L26.8523 25.6564H21.6457C22.162 27.0811 23.0764 26.2563 26.3213 26.4812C26.1738 26.8262 25.8788 27.1111 25.7018 27.411L22.8552 27.441C23.4009 28.4458 23.6369 28.1009 24.8759 28.2658L24.2564 29.0156C26.3655 30.5903 28.0027 31.9099 31.4098 32.5098C34.5072 33.0497 37.7373 32.4498 40.23 31.2051C51.0266 25.7914 50.7316 10.1951 40.1415 5.03637C36.3362 3.19181 31.2919 3.02685 27.3538 5.12635C25.4511 6.13111 24.9939 6.85093 24.2859 7.28583L24.2711 7.27083Z"
            fill="white" fill-opacity="0.6" />
        <path fill-rule="evenodd" clip-rule="evenodd"
            d="M1.60059 21.7724L2.92803 21.7874L3.695 17.1085C3.93099 17.7084 4.00474 20.8726 4.04899 21.7724L5.56818 21.8174L7.44136 17.1685L6.74813 21.7874L8.01658 21.8024L9.18179 15.3689C6.58589 15.3389 6.86613 15.114 6.45314 16.1487L5.22894 19.028L4.99295 15.4289L2.73629 15.3539L1.60059 21.7724ZM42.6925 20.5877C41.5863 19.4329 42.5302 17.5134 43.5627 17.7683C44.5804 18.0233 44.3886 20.5577 42.6925 20.5877ZM44.4919 17.1835C43.4594 15.9238 41.3798 16.4936 40.7455 18.6231C39.9048 21.4575 42.6482 22.7472 43.5627 21.3675C44.0052 21.9074 43.6659 21.8174 45.0671 21.8174L46.1438 15.3689H44.8901L44.4771 17.1985L44.4919 17.1835ZM34.359 20.6027C34.1525 19.5979 35.067 19.208 35.9372 19.388C35.9815 20.4077 35.2735 20.9626 34.359 20.6027ZM33.8871 16.6586L33.5773 17.8433C35.0523 17.4834 36.129 17.2885 36.1732 18.4582C34.5508 18.3832 32.9578 18.6381 32.7661 20.2428C32.5154 22.2523 34.4918 22.0873 35.7307 21.3675C35.7897 22.1323 35.598 21.6374 36.011 21.8024C36.07 21.8324 36.6747 21.8174 36.7779 21.8174C37.2204 21.5324 37.2204 20.4227 37.3237 19.8678C37.7072 17.9933 38.4446 15.7138 33.8723 16.6586H33.8871ZM11.8809 19.343C11.9104 19.8528 11.8219 20.2428 11.4974 20.4977C11.2762 20.6627 10.6125 20.8576 10.347 20.6027C9.52102 19.8378 11.0697 19.328 11.8662 19.343H11.8809ZM9.53577 17.8133C10.6567 17.5434 12.1022 17.2285 12.1317 18.3982C10.4355 18.6681 8.87205 18.4282 8.70981 20.2577C8.53281 22.1023 10.6715 22.2523 11.6892 21.3375C11.8514 22.0723 11.6597 21.5174 11.8957 21.8174L12.9429 21.8024C13.0756 20.9476 13.7541 18.0983 13.5181 17.4084C13.1051 16.2087 10.9222 16.3587 9.83076 16.7036L9.55052 17.8283L9.53577 17.8133ZM21.763 18.5632C21.9548 17.7983 22.2793 17.4834 23.1495 17.6034C23.4592 18.0533 23.4592 17.9183 23.5182 18.5632H21.763ZM20.1996 18.6381L20.1406 19.4479C20.2291 20.8126 20.7748 21.4275 21.999 21.7274C22.5005 21.8474 23.4592 21.8924 23.9165 21.7274C24.4917 21.5324 24.4474 21.0076 24.4917 20.3777C23.3855 20.7526 21.6745 21.0676 21.5418 19.5529L24.3589 19.5229C25.1997 19.388 24.8604 17.7234 24.5212 17.1985C23.887 16.2387 21.1141 15.5639 20.1849 18.6381H20.1996ZM28.7838 16.6436C28.5183 17.4084 28.3413 17.6934 28.179 18.6381V19.4629L28.4298 20.3777C28.946 21.0825 29.3 21.6524 30.4652 21.8024C32.1466 22.0273 32.3826 21.6674 32.5301 20.2128C30.8782 21.0076 29.3442 20.2577 29.8015 18.2632C30.2292 16.3887 31.3797 16.2687 33.1348 16.8086L33.3561 15.4289C32.3236 15.219 31.6599 14.994 30.6127 15.2789C29.3442 15.6389 29.4622 15.9988 28.7838 16.6586V16.6436ZM17.6185 16.5386C16.173 16.4187 14.4178 16.2237 14.0196 17.5434C13.2821 19.9728 15.9075 18.9831 15.7453 20.4977C14.9931 20.9176 14.5211 20.7226 13.5624 20.5277L13.3706 21.6074C16.7777 22.8821 18.2969 19.9278 16.881 18.9531C16.1288 18.4432 15.583 18.8781 15.4798 17.7983C16.3205 17.4084 16.4532 17.6334 17.4267 17.6334L17.6332 16.5386H17.6185Z"
            fill="white" />
        <path fill-rule="evenodd" clip-rule="evenodd"
            d="M19.2705 18.8178L19.3738 18.4579C19.4623 17.2432 19.4328 17.7981 20.3472 17.5731L20.48 16.6884C20.1997 16.4484 20.2145 16.5384 19.7278 16.5384L19.7573 16.2085L19.8752 15.3687C18.1643 15.3387 18.6363 14.9188 18.0316 18.338C17.6481 20.4824 16.8811 22.0871 19.241 21.8021C20.0375 21.7122 19.949 21.4572 20.0375 20.7074C18.5183 20.8874 19.0788 20.0775 19.2705 18.8178ZM26.2027 21.2023L26.3207 20.3775L26.4682 19.4777L26.7337 18.5779C27.0582 17.6781 27.7957 18.053 28.0317 17.7231L28.4742 16.5084C27.6039 16.4784 27.368 16.8083 27.014 17.2582L26.9402 16.9883C26.9402 16.9733 26.9255 16.9283 26.9255 16.8983C26.9255 16.8683 26.896 16.7483 26.896 16.7184L25.5833 16.5384L24.7131 21.7721L26.0995 21.8321L26.2175 21.2023H26.2027ZM37.5156 21.8021H38.8872C39.2117 19.7776 39.138 18.233 40.3474 17.8281L40.9522 17.5881L41.1292 16.5234C40.4802 16.5384 40.0672 16.8383 39.846 17.1832L39.6542 16.6284C39.6395 16.5984 39.6395 16.5534 39.6247 16.5234L38.4005 16.5084L37.5156 21.8021Z"
            fill="white" />
        <path fill-rule="evenodd" clip-rule="evenodd"
            d="M42.6919 20.5875C44.4028 20.5575 44.5946 18.0231 43.5621 17.7681C42.5149 17.5132 41.5857 19.4327 42.6919 20.5875Z"
            fill="white" fill-opacity="0.6" />
        <path fill-rule="evenodd" clip-rule="evenodd"
            d="M11.8818 19.3428C11.0853 19.3278 9.53662 19.8377 10.3626 20.6025C10.6281 20.8425 11.2918 20.6475 11.513 20.4975C11.8375 20.2576 11.9113 19.8527 11.8965 19.3428H11.8818ZM26.3215 20.3626L28.4306 20.3776L28.1799 19.4628H26.469L26.3215 20.3626Z"
            fill="white" fill-opacity="0.12" />
        <path fill-rule="evenodd" clip-rule="evenodd"
            d="M34.3597 20.6024C35.2889 20.9474 35.9821 20.4075 35.9379 19.3877C35.0529 19.2228 34.1532 19.6127 34.3597 20.6024ZM26.4688 19.4627H28.1797V18.6379L26.7342 18.5629L26.4688 19.4627Z"
            fill="white" fill-opacity="0.6" />
        <path fill-rule="evenodd" clip-rule="evenodd"
            d="M21.7637 18.563H23.5189C23.4746 17.9331 23.4599 18.0531 23.1501 17.6032C22.2799 17.4832 21.9554 17.7982 21.7637 18.563Z"
            fill="white" fill-opacity="0.12" />
        <path fill-rule="evenodd" clip-rule="evenodd"
            d="M19.2715 18.8179C19.5222 19.4327 19.1387 19.2078 19.6255 19.4327L20.1564 19.4477L20.2154 18.6379L19.6402 18.6229C19.3452 18.5629 19.5075 18.6679 19.3895 18.443L19.2862 18.8029L19.2715 18.8179Z"
            fill="white" fill-opacity="0.6" />
    </g>
    <defs>
        <clipPath id="clip0_210_9968">
            <rect width="48.4384" height="36.3288" fill="white" transform="translate(0 0.0274048)" />
        </clipPath>
    </defs>
</svg>
