<svg width="166" height="88" viewBox="0 0 166 88" fill="none" xmlns="http://www.w3.org/2000/svg">
    <path d="M67.3045 15.7217C69.3675 13.6151 71.8166 11.944 74.5122 10.8039C77.2077 9.66377 80.0967 9.07697 83.0144 9.07697C85.932 9.07697 88.8211 9.66377 91.5166 10.8039C94.2121 11.944 96.6612 13.6151 98.7242 15.7217L105.001 9.31298C102.113 6.36187 98.6836 4.02079 94.9091 2.42353C91.1346 0.826273 87.0888 0.00415039 83.0029 0.00415039C78.9171 0.00415039 74.8713 0.826273 71.0968 2.42353C67.3223 4.02079 63.8931 6.36187 61.0051 9.31298L67.3045 15.7217Z" fill="white"/>
    <path d="M106.829 11.3317L100.51 17.7957C103.28 21.4118 104.91 25.8003 105.187 30.3821C105.463 34.9639 104.373 39.5236 102.059 43.4596L90.6218 31.7783L84.3909 16.8169H84.3595V37.0218L96.7043 49.6265C92.795 52.7499 87.974 54.4469 83.01 54.4469C78.0461 54.4469 73.2251 52.7499 69.3158 49.6265L81.6691 37.0218V16.8927L75.4069 31.7783L63.9665 43.4596C61.6524 39.5236 60.562 34.9635 60.8391 30.3815C61.1162 25.7995 62.7478 21.4111 65.5185 17.7957L59.1992 11.3317C55.3943 15.9618 52.9627 21.6046 52.1901 27.597C51.4175 33.5895 52.336 39.6826 54.8378 45.1604C57.3395 50.6382 61.3205 55.2732 66.313 58.5207C71.3054 61.7682 77.102 63.4933 83.0215 63.4933C88.941 63.4933 94.7375 61.7682 99.73 58.5207C104.722 55.2732 108.703 50.6382 111.205 45.1604C113.707 39.6826 114.625 33.5895 113.853 27.597C113.08 21.6046 110.649 15.9618 106.844 11.3317H106.829Z" fill="white"/>
    <path d="M157.17 82.5788L161.609 78.2967C161.883 78.0574 162.135 77.7921 162.36 77.5043C162.665 77.0959 162.845 76.6042 162.876 76.0915C162.899 75.7507 162.896 75.4069 162.893 75.0661C162.892 74.9096 162.877 74.7536 162.848 74.6C162.812 74.4199 162.757 74.2442 162.685 74.0757L155.182 81.335C154.934 81.5653 154.698 81.8083 154.474 82.0632C154.127 82.4825 153.939 83.0147 153.943 83.5634C153.943 84.0849 153.943 84.6558 153.943 85.1773H161.604C161.898 85.1775 162.185 85.0849 162.425 84.9122C162.7 84.7199 162.92 84.4571 163.064 84.1503C163.208 83.8435 163.27 83.5034 163.244 83.1644V82.5818L157.17 82.5788Z" fill="white"/>
    <path d="M161.912 73.0853C161.618 72.8234 161.243 72.6767 160.853 72.6716H156.391C156.242 72.6715 156.093 72.6921 155.949 72.7328C155.388 72.9226 154.922 73.3294 154.651 73.866C154.358 74.3754 154.211 74.9591 154.229 75.5497V76.7149H156.768V75.2584H159.649L161.912 73.0853Z" fill="white"/>
    <path d="M141.813 72.6658V77.4257C141.813 77.4581 141.8 77.4893 141.777 77.5122C141.755 77.5352 141.725 77.548 141.693 77.548H134.483C134.452 77.548 134.421 77.5352 134.399 77.5122C134.376 77.4893 134.363 77.4581 134.363 77.4257V72.6658C134.363 72.6501 134.36 72.6346 134.355 72.6201C134.349 72.6056 134.34 72.5924 134.329 72.5813C134.318 72.5703 134.305 72.5614 134.291 72.5554C134.277 72.5494 134.262 72.5464 134.246 72.5464H130.232C130.217 72.546 130.201 72.5488 130.187 72.5546C130.172 72.5604 130.159 72.5692 130.148 72.5803C130.137 72.5914 130.128 72.6047 130.122 72.6194C130.116 72.6341 130.113 72.6499 130.113 72.6658V85.1919C130.113 85.2078 130.116 85.2236 130.122 85.2383C130.128 85.2529 130.137 85.2662 130.148 85.2774C130.159 85.2885 130.172 85.2972 130.187 85.303C130.201 85.3089 130.217 85.3117 130.232 85.3113H134.246C134.278 85.3113 134.307 85.2987 134.329 85.2763C134.351 85.2539 134.363 85.2235 134.363 85.1919V80.4261C134.363 80.3937 134.376 80.3626 134.399 80.3396C134.421 80.3167 134.452 80.3038 134.483 80.3038H141.693C141.725 80.3038 141.755 80.3167 141.777 80.3396C141.8 80.3626 141.813 80.3937 141.813 80.4261V85.186C141.813 85.2177 141.825 85.2481 141.847 85.2705C141.869 85.2929 141.899 85.3055 141.93 85.3055H145.947C145.978 85.3055 146.007 85.2929 146.029 85.2705C146.051 85.2481 146.063 85.2177 146.063 85.186V72.66C146.063 72.6283 146.051 72.5979 146.029 72.5755C146.007 72.5531 145.978 72.5405 145.947 72.5405H141.93C141.914 72.5405 141.898 72.5438 141.883 72.5501C141.869 72.5565 141.856 72.5658 141.845 72.5775C141.834 72.5893 141.825 72.6031 141.82 72.6183C141.814 72.6335 141.812 72.6496 141.813 72.6658Z" fill="white"/>
    <path d="M45.8757 75.7652V72.6658C45.8757 72.6498 45.8726 72.634 45.8666 72.6194C45.8605 72.6047 45.8516 72.5914 45.8405 72.5803C45.8293 72.5691 45.8161 72.5604 45.8015 72.5546C45.787 72.5487 45.7715 72.5459 45.7559 72.5463H35.1372C35.1154 72.5456 35.0939 72.5513 35.0752 72.5626C35.0565 72.574 35.0414 72.5906 35.0316 72.6104L33.1829 76.3158C33.1786 76.334 33.1786 76.3529 33.1829 76.3711V85.1831C33.1829 85.199 33.186 85.2148 33.192 85.2295C33.1981 85.2442 33.207 85.2575 33.2181 85.2686C33.2293 85.2797 33.2425 85.2884 33.2571 85.2943C33.2716 85.3001 33.2871 85.3029 33.3027 85.3025H45.7787C45.7943 85.3029 45.8098 85.3001 45.8244 85.2943C45.8389 85.2884 45.8521 85.2797 45.8633 85.2686C45.8745 85.2575 45.8833 85.2442 45.8894 85.2295C45.8954 85.2148 45.8986 85.199 45.8986 85.1831V82.0778C45.8986 82.0453 45.8859 82.0142 45.8635 81.9913C45.841 81.9683 45.8105 81.9554 45.7787 81.9554H37.5422C37.5104 81.9554 37.48 81.9425 37.4575 81.9196C37.435 81.8967 37.4224 81.8655 37.4224 81.8331V80.4261C37.4224 80.3936 37.435 80.3625 37.4575 80.3396C37.48 80.3166 37.5104 80.3037 37.5422 80.3037H44.3465C44.3623 80.3037 44.3779 80.3006 44.3924 80.2944C44.4069 80.2883 44.4201 80.2793 44.4313 80.2679C44.4424 80.2565 44.4512 80.2431 44.4572 80.2282C44.4633 80.2134 44.4664 80.1975 44.4664 80.1814V77.6733C44.4664 77.6408 44.4537 77.6097 44.4313 77.5868C44.4088 77.5638 44.3783 77.5509 44.3465 77.5509H37.5422C37.5104 77.5509 37.48 77.538 37.4575 77.5151C37.435 77.4921 37.4224 77.461 37.4224 77.4286V76.0187C37.4224 75.9862 37.435 75.9551 37.4575 75.9322C37.48 75.9092 37.5104 75.8963 37.5422 75.8963H45.7645C45.7804 75.8956 45.7959 75.8916 45.8102 75.8845C45.8246 75.8775 45.8373 75.8675 45.8477 75.8552C45.8581 75.843 45.866 75.8286 45.8708 75.8132C45.8756 75.7977 45.8773 75.7814 45.8757 75.7652Z" fill="white"/>
    <path d="M93.9768 72.5608H89.3493C89.3275 72.5601 89.306 72.5658 89.2873 72.5772C89.2686 72.5885 89.2535 72.6051 89.2437 72.6249L82.9957 85.151C82.987 85.1697 82.9831 85.1903 82.9844 85.2109C82.9856 85.2315 82.9919 85.2515 83.0027 85.2689C83.0135 85.2864 83.0285 85.3007 83.0462 85.3107C83.064 85.3206 83.0839 85.3258 83.1041 85.3258H87.6089C87.6307 85.3265 87.6522 85.3208 87.6709 85.3095C87.6896 85.2981 87.7047 85.2815 87.7145 85.2617L91.5575 77.5625C91.5677 77.5431 91.5829 77.5268 91.6015 77.5154C91.6201 77.5041 91.6414 77.4981 91.663 77.4981C91.6847 77.4981 91.7059 77.5041 91.7245 77.5154C91.7431 77.5268 91.7583 77.5431 91.7686 77.5625L95.6087 85.2617C95.6192 85.2816 95.6349 85.298 95.654 85.3094C95.6732 85.3207 95.695 85.3264 95.7171 85.3258H100.222C100.242 85.3261 100.262 85.3211 100.28 85.3111C100.298 85.3012 100.313 85.2867 100.323 85.2691C100.334 85.2514 100.34 85.2313 100.341 85.2106C100.341 85.1899 100.337 85.1694 100.327 85.151L94.0823 72.6249C94.0723 72.6053 94.0571 72.5889 94.0385 72.5776C94.0198 72.5663 93.9985 72.5605 93.9768 72.5608Z" fill="white"/>
    <path d="M82.5306 72.6105L79.7917 78.0957C79.7822 78.1161 79.7673 78.1332 79.7486 78.1453C79.7299 78.1573 79.7083 78.1637 79.6862 78.1637C79.6641 78.1637 79.6425 78.1573 79.6238 78.1453C79.6051 78.1332 79.5901 78.1161 79.5806 78.0957L76.8418 72.6105C76.832 72.5906 76.8169 72.574 76.7982 72.5627C76.7795 72.5513 76.758 72.5457 76.7362 72.5464H73.6835C73.6614 72.5458 73.6396 72.5515 73.6205 72.5628C73.6013 72.5741 73.5856 72.5906 73.5751 72.6105L70.8391 78.0957C70.8296 78.1161 70.8147 78.1332 70.796 78.1453C70.7773 78.1573 70.7557 78.1637 70.7336 78.1637C70.7115 78.1637 70.6899 78.1573 70.6712 78.1453C70.6525 78.1332 70.6375 78.1161 70.628 78.0957L67.8892 72.6105C67.8794 72.5906 67.8642 72.574 67.8455 72.5627C67.8268 72.5513 67.8054 72.5457 67.7836 72.5464H63.2788C63.2582 72.5455 63.2379 72.5502 63.2197 72.5599C63.2015 72.5696 63.1861 72.5841 63.1751 72.6018C63.1641 72.6195 63.1579 72.6399 63.1571 72.6608C63.1562 72.6818 63.1608 72.7026 63.1703 72.7211L69.4183 85.2472C69.4281 85.2671 69.4433 85.2836 69.462 85.295C69.4807 85.3063 69.5022 85.312 69.5239 85.3113H71.9432C71.9649 85.3117 71.9863 85.3059 72.0049 85.2945C72.0235 85.2832 72.0387 85.2668 72.0488 85.2472L75.1043 79.1298C75.1146 79.1103 75.1298 79.0941 75.1484 79.0827C75.167 79.0714 75.1882 79.0654 75.2099 79.0654C75.2315 79.0654 75.2528 79.0714 75.2714 79.0827C75.29 79.0941 75.3052 79.1103 75.3154 79.1298L78.371 85.2472C78.3807 85.2671 78.3959 85.2836 78.4146 85.295C78.4333 85.3063 78.4548 85.312 78.4765 85.3113H80.8901C80.9122 85.3115 80.9339 85.3057 80.953 85.2944C80.972 85.2832 80.9878 85.2669 80.9985 85.2472L87.2466 72.7211C87.256 72.7028 87.2605 72.6823 87.2598 72.6616C87.2591 72.6409 87.2531 72.6207 87.2425 72.6031C87.2318 72.5855 87.2169 72.571 87.1991 72.561C87.1813 72.5511 87.1613 72.546 87.141 72.5464H82.6362C82.6144 72.5457 82.5929 72.5513 82.5742 72.5627C82.5555 72.574 82.5404 72.5906 82.5306 72.6105Z" fill="white"/>
    <path d="M125.077 72.5609H115.722C115.311 72.5593 114.902 72.6212 114.51 72.7445C114.494 72.749 114.48 72.7567 114.468 72.7673C114.455 72.7778 114.445 72.7909 114.438 72.8056L112.441 76.8169C112.437 76.8351 112.437 76.854 112.441 76.8722V82.6779C112.441 84.1345 113.919 85.3171 115.739 85.3171H125.094C126.917 85.3171 128.395 84.1374 128.395 82.6779V80.4262C128.395 80.3937 128.382 80.3626 128.36 80.3396C128.337 80.3167 128.307 80.3038 128.275 80.3038H124.244C124.212 80.3038 124.182 80.3167 124.159 80.3396C124.137 80.3626 124.124 80.3937 124.124 80.4262V81.3496C124.124 81.5111 124.061 81.6659 123.949 81.7801C123.838 81.8943 123.686 81.9584 123.528 81.9584H117.271C117.113 81.9576 116.962 81.8933 116.85 81.7792C116.739 81.6652 116.676 81.5108 116.675 81.3496V76.5023C116.676 76.3411 116.739 76.1866 116.85 76.0726C116.962 75.9586 117.113 75.8942 117.271 75.8935H123.528C123.686 75.8935 123.838 75.9576 123.949 76.0718C124.061 76.186 124.124 76.3408 124.124 76.5023V77.4257C124.124 77.4582 124.137 77.4893 124.159 77.5122C124.182 77.5352 124.212 77.5481 124.244 77.5481H128.258C128.29 77.5481 128.32 77.5352 128.343 77.5122C128.365 77.4893 128.378 77.4582 128.378 77.4257V75.1827C128.378 73.7262 126.9 72.5609 125.077 72.5609Z" fill="white"/>
    <path d="M112.421 72.5609H96.1877C96.1675 72.5606 96.1474 72.5656 96.1296 72.5756C96.1119 72.5855 96.0969 72.6 96.0863 72.6177C96.0756 72.6353 96.0696 72.6554 96.0689 72.6761C96.0682 72.6968 96.0728 72.7174 96.0822 72.7357L97.6313 75.841C97.641 75.8612 97.656 75.8782 97.6747 75.89C97.6934 75.9019 97.7149 75.9081 97.7369 75.908H102.059C102.075 75.908 102.09 75.9112 102.105 75.9173C102.12 75.9235 102.133 75.9325 102.144 75.9438C102.155 75.9552 102.164 75.9687 102.17 75.9835C102.176 75.9984 102.179 76.0143 102.179 76.0304V85.1977C102.179 85.2294 102.191 85.2598 102.213 85.2821C102.235 85.3045 102.265 85.3171 102.296 85.3171H106.313C106.344 85.3171 106.374 85.3045 106.396 85.2821C106.418 85.2598 106.43 85.2294 106.43 85.1977V76.0158C106.43 75.9833 106.443 75.9522 106.465 75.9293C106.487 75.9063 106.518 75.8934 106.55 75.8934H110.872C110.894 75.8932 110.915 75.8868 110.934 75.875C110.953 75.8632 110.968 75.8464 110.978 75.8264L112.527 72.7211C112.533 72.7035 112.535 72.6845 112.533 72.6658C112.531 72.6471 112.524 72.6292 112.514 72.6136C112.504 72.598 112.49 72.5851 112.474 72.5759C112.458 72.5668 112.44 72.5616 112.421 72.5609Z" fill="white"/>
    <path d="M26.7864 85.2385L33.0316 72.7124C33.041 72.6941 33.0456 72.6735 33.0448 72.6528C33.0441 72.6321 33.0381 72.612 33.0275 72.5944C33.0169 72.5767 33.0019 72.5622 32.9841 72.5523C32.9663 72.5423 32.9463 72.5373 32.926 72.5376H28.4212C28.3991 72.5371 28.3773 72.5427 28.3581 72.5541C28.339 72.5654 28.3233 72.5819 28.3128 72.6017L24.4784 80.3096C24.4681 80.3291 24.4529 80.3454 24.4343 80.3567C24.4157 80.3681 24.3945 80.3741 24.3728 80.3741C24.3512 80.3741 24.3299 80.3681 24.3113 80.3567C24.2927 80.3454 24.2775 80.3291 24.2673 80.3096L20.4186 72.6105C20.4088 72.5906 20.3937 72.574 20.375 72.5627C20.3563 72.5513 20.3348 72.5457 20.313 72.5464H15.8082C15.788 72.5463 15.7681 72.5516 15.7503 72.5615C15.7326 72.5714 15.7176 72.5858 15.7068 72.6033C15.696 72.6207 15.6897 72.6407 15.6885 72.6613C15.6872 72.6819 15.6911 72.7025 15.6998 72.7212L21.9478 85.2472C21.9576 85.2671 21.9727 85.2836 21.9914 85.295C22.0101 85.3064 22.0316 85.312 22.0534 85.3113H26.6809C26.7035 85.3109 26.7255 85.3038 26.7442 85.2909C26.763 85.2779 26.7776 85.2597 26.7864 85.2385Z" fill="white"/>
    <path d="M13.7656 72.7416C13.7584 72.7261 13.7481 72.7123 13.7353 72.7013C13.7225 72.6902 13.7075 72.6821 13.6914 72.6775C13.3519 72.5902 13.003 72.5462 12.6529 72.5464H3.29803C1.47498 72.561 0 73.7262 0 75.1827V82.6605C0.0012713 83.0505 0.105759 83.433 0.302415 83.7674C0.310772 83.7827 0.322237 83.7959 0.336038 83.8063C0.349838 83.8166 0.365652 83.8239 0.382415 83.8275C0.399178 83.831 0.416499 83.8309 0.433212 83.8271C0.449924 83.8233 0.465639 83.8158 0.479298 83.8053L4.20528 80.8689C4.21951 80.8575 4.23101 80.8429 4.23892 80.8262C4.24683 80.8096 4.25093 80.7913 4.25092 80.7728V76.5023C4.25167 76.3411 4.31474 76.1866 4.4264 76.0726C4.53806 75.9586 4.68928 75.8942 4.84719 75.8935H11.1038C11.2617 75.8942 11.4129 75.9586 11.5246 76.0726C11.6362 76.1866 11.6993 76.3411 11.7 76.5023V81.3467C11.6993 81.5079 11.6362 81.6623 11.5246 81.7763C11.4129 81.8903 11.2617 81.9547 11.1038 81.9555H5.70594C5.67985 81.9552 5.65452 81.9645 5.63461 81.9817L1.95999 84.8773C1.94284 84.8908 1.92959 84.9087 1.92165 84.9293C1.9137 84.9499 1.91136 84.9722 1.91487 84.994C1.91838 85.0159 1.92762 85.0363 1.94159 85.0532C1.95556 85.0701 1.97375 85.0828 1.99423 85.0899C2.41476 85.2321 2.85504 85.3039 3.29803 85.3026H12.6529C14.476 85.3026 15.9509 84.1228 15.9509 82.6634V77.1519C15.9552 77.1337 15.9552 77.1147 15.9509 77.0966L13.7656 72.7416Z" fill="white"/>
    <path d="M57.8325 77.5481H53.7214C53.7057 77.5481 53.6903 77.5512 53.6759 77.5574C53.6615 77.5636 53.6485 77.5727 53.6376 77.5841C53.6267 77.5955 53.6182 77.609 53.6124 77.6238C53.6067 77.6386 53.604 77.6545 53.6044 77.6704V80.2193C53.6039 80.2445 53.6087 80.2696 53.6185 80.2927C53.6284 80.3158 53.643 80.3365 53.6614 80.3533L58.8881 85.2705C58.8985 85.2813 58.9109 85.2897 58.9247 85.2952C58.9384 85.3007 58.9532 85.3032 58.968 85.3026H64.3515C64.3761 85.3024 64.3999 85.2943 64.4197 85.2795C64.4395 85.2646 64.4543 85.2438 64.4618 85.22C64.4694 85.1961 64.4694 85.1705 64.4619 85.1466C64.4544 85.1227 64.4397 85.1019 64.42 85.087L59.3246 80.2951H59.413C61.2361 80.2951 62.7111 79.1124 62.7111 77.6558V75.1827C62.7111 73.7262 61.2361 72.5435 59.413 72.5435H47.7158C47.7005 72.5435 47.6853 72.5465 47.6711 72.5526C47.6569 72.5586 47.644 72.5673 47.6331 72.5784C47.6223 72.5895 47.6137 72.6027 47.6078 72.6172C47.6019 72.6317 47.5989 72.6472 47.5989 72.6629V85.189C47.5989 85.2206 47.6112 85.251 47.6331 85.2734C47.6551 85.2958 47.6848 85.3084 47.7158 85.3084H51.73C51.7456 85.3088 51.7611 85.306 51.7756 85.3002C51.7901 85.2943 51.8034 85.2856 51.8145 85.2745C51.8257 85.2633 51.8346 85.25 51.8406 85.2353C51.8467 85.2207 51.8498 85.2049 51.8498 85.189V76.0158C51.8498 75.9833 51.8624 75.9522 51.8849 75.9293C51.9074 75.9063 51.9378 75.8935 51.9696 75.8935H57.8125C57.9706 75.8935 58.1223 75.9576 58.2341 76.0718C58.346 76.186 58.4088 76.3408 58.4088 76.5023V76.9305C58.4119 77.0902 58.353 77.2447 58.2451 77.3604C58.1372 77.476 57.9889 77.5435 57.8325 77.5481Z" fill="white"/>
</svg>
