<svg width="29" height="28" viewBox="0 0 29 28" fill="none" xmlns="http://www.w3.org/2000/svg">
    <path
        d="M28.3618 12.239L26.4038 10.022C26.0412 9.6011 25.7366 8.81533 25.7366 8.25407V5.8687C25.7366 4.38136 24.4748 3.16061 22.9374 3.16061H20.4718C19.8917 3.16061 19.065 2.86595 18.6299 2.51516L16.3383 0.620897C15.3376 -0.206966 13.6987 -0.206966 12.6979 0.620897L10.3773 2.51516C9.94222 2.86595 9.13002 3.16061 8.54987 3.16061H6.04075C4.50337 3.16061 3.24155 4.38136 3.24155 5.8687V8.25407C3.24155 8.8013 2.95148 9.58707 2.58889 10.008L0.630907 12.239C-0.210302 13.2212 -0.210302 14.7928 0.630907 15.7469L2.58889 17.9779C2.95148 18.3849 3.24155 19.1847 3.24155 19.7319V22.1313C3.24155 23.6186 4.50337 24.8394 6.04075 24.8394H8.56438C9.13002 24.8394 9.95672 25.1341 10.3918 25.4848L12.6834 27.3791C13.6841 28.207 15.3231 28.207 16.3238 27.3791L18.6154 25.4848C19.0505 25.1341 19.8627 24.8394 20.4428 24.8394H22.9084C24.4458 24.8394 25.7076 23.6186 25.7076 22.1313V19.7459C25.7076 19.1847 26.0122 18.3989 26.3748 17.9779L28.3328 15.761C29.2175 14.8068 29.2175 13.2212 28.3618 12.239Z"
        fill="#FF9500"/>
    <path
        d="M26.025 10.3484L26.0249 10.3484L26.029 10.353L27.9848 12.5675C27.9851 12.5679 27.9855 12.5683 27.9858 12.5687C28.6784 13.3649 28.6708 14.661 27.9662 15.421L27.966 15.4209L27.958 15.43L26 17.647L26 17.6469L25.996 17.6516C25.7663 17.9183 25.5734 18.2754 25.4379 18.6315C25.3027 18.987 25.2076 19.3859 25.2076 19.7459V22.1313C25.2076 23.327 24.1854 24.3394 22.9084 24.3394H20.4428C20.0785 24.3394 19.6719 24.4296 19.307 24.5595C18.9422 24.6895 18.5757 24.8746 18.3016 25.0956L18.3015 25.0956L18.2968 25.0995L16.0052 26.9937L16.0051 26.9938C15.1893 27.6687 13.8179 27.6687 13.0021 26.9938L13.002 26.9937L10.7104 25.0995L10.7104 25.0994L10.7057 25.0956C10.4303 24.8736 10.0592 24.6886 9.69399 24.5593C9.32878 24.4299 8.92212 24.3394 8.56438 24.3394H6.04075C4.76379 24.3394 3.74155 23.327 3.74155 22.1313V19.7319C3.74155 19.3818 3.65152 18.9847 3.52025 18.6291C3.38963 18.2753 3.19969 17.9124 2.96355 17.6468C2.9631 17.6463 2.96265 17.6458 2.96219 17.6453L1.00671 15.4171L1.00596 15.4163C0.334319 14.6545 0.327421 13.3644 1.00883 12.5664L2.96469 10.3378L2.96471 10.3378L2.96773 10.3343C3.19929 10.0655 3.38859 9.70627 3.51994 9.3524C3.65124 8.99867 3.74155 8.60477 3.74155 8.25407V5.8687C3.74155 4.67296 4.76379 3.66061 6.04075 3.66061H8.54987C8.91423 3.66061 9.32085 3.5704 9.68574 3.44045C10.0505 3.31053 10.417 3.12539 10.6911 2.90441L10.6912 2.90442L10.6935 2.9025L13.0141 1.00823L13.0141 1.00824L13.0166 1.00616C13.8324 0.33128 15.2038 0.33128 16.0196 1.00616L16.0197 1.00628L18.3113 2.90054L18.3113 2.90057L18.3161 2.90441C18.5915 3.12651 18.9629 3.31157 19.3303 3.44102C19.6982 3.57063 20.108 3.66061 20.4718 3.66061H22.9374C24.2144 3.66061 25.2366 4.67296 25.2366 5.8687V8.25407C25.2366 8.61412 25.3317 9.01301 25.4669 9.3685C25.6024 9.7246 25.7953 10.0817 26.025 10.3484Z"
        stroke="black" stroke-opacity="0.24"/>
    <path d="M15.338 9.2V19H13.518V10.726H11.446V9.2H15.338Z" fill="white"/>
</svg>
