<svg width="122" height="100" viewBox="0 0 122 100" fill="none" xmlns="http://www.w3.org/2000/svg">
    <g clip-path="url(#clip0_2588_57931)">
        <path d="M0.294922 79.5423V91.7446C0.294922 96.6992 4.04588 99.8572 9.50885 99.8572C15.2552 99.8572 18.7724 96.5269 18.7724 91.4104V79.5423H13.9087V91.1875C13.9087 93.9773 12.3484 95.7074 9.56069 95.7074C6.50553 95.7074 5.15873 93.7178 5.15873 91.4104V79.5423H0.294922ZM21.1371 79.7109V99.6582H28.8838C33.1743 99.6582 36.82 97.6878 36.82 93.7798C36.82 89.7006 32.8557 88.7965 32.8557 88.7965C32.8557 88.7965 35.7912 88.0623 35.7912 84.5723C35.7912 81.0847 32.0809 79.7109 28.8838 79.7109H21.1371ZM26.0372 83.4997H28.3888C30.0208 83.4997 31.0651 84.2737 31.0651 85.6205C31.0651 86.8252 30.1791 87.7343 28.5126 87.7343H26.0374V83.4997H26.0372ZM26.0372 90.8546H28.6363C31.0802 90.8546 31.9277 91.985 31.9277 93.334C31.9277 94.9037 30.8315 95.824 28.8838 95.824H26.0374V90.8547L26.0372 90.8546ZM38.661 79.7094H43.5495V99.6567H38.661V79.7094ZM92.0022 99.6567H87.1136V79.7094H102.46V83.8327H92.0022V88.4016H101.532V91.7446H92.0022V99.6567ZM104.255 79.7094V83.8327H110.566V99.6567H115.517V83.8327H121.705V79.7094H104.255ZM49.1304 93.0241L45.2469 95.5807C45.2469 95.5807 46.5888 100 53.3164 100C57.7964 100 61.093 97.6459 61.093 93.5073C61.093 86.8376 50.7356 88.2525 50.7356 84.8225C50.7356 83.9198 51.6271 83.1224 53.2724 83.1224C55.9124 83.1224 56.9157 85.4542 56.9157 85.4542L60.8003 82.9994C60.8003 82.9994 59.2831 79.3577 53.4675 79.3577C48.6882 79.3577 46.1494 82.1185 46.1494 84.9674C46.1494 91.7644 56.2053 90.2891 56.2053 93.8562C56.2053 95.0599 55.1518 95.9445 53.5111 95.9343C50.2604 95.9343 49.1304 93.0241 49.1304 93.0241ZM73.7164 79.3485C67.9595 79.3485 65.3935 82.1623 65.3935 82.1623L66.1361 82.8309C66.1361 82.8309 62.4116 85.213 62.4116 90.3285C62.4116 96.2148 67.4534 99.9956 73.7435 99.9956C81.0521 99.9956 85.1991 95.1399 85.1991 89.6807C85.1991 83.8595 80.4646 79.3485 73.7164 79.3485ZM73.8208 83.4891C77.7242 83.4891 80.2564 86.1754 80.2564 89.6634C80.2564 93.1151 77.7544 95.876 73.8208 95.876C69.9346 95.876 67.3814 93.4325 67.3814 90.1892C67.3814 87.2374 69.6013 85.9511 69.6013 85.9511L68.7969 85.2267C68.7969 85.2267 70.5086 83.4891 73.8208 83.4891ZM58.7558 0C33.6484 0 22.8111 20.1227 22.8111 20.1227L26.0012 22.1791C26.0012 22.1791 21.9868 29.053 22.0979 37.8697C22.0979 55.8682 38.0096 72.8228 61.433 72.8228C82.7123 72.8228 100.29 57.2276 100.29 37.914C100.29 12.7247 78.5965 0 58.7559 0H58.7558ZM58.9736 6.14028C78.5899 6.14028 93.8117 20.3737 93.8117 36.9207C93.8117 54.4617 79.16 66.6604 62.0864 66.6604C49.5207 66.6604 38.1853 58.0442 38.1853 46.2308C38.1853 39.4077 42.2129 34.6507 46.7262 32.1155L47.3867 32.7608C46.1516 33.631 42.6297 38.725 42.6297 43.7317C42.6297 53.0263 50.7246 59.4635 60.9236 59.4635C73.9152 59.4635 82.5796 49.4862 82.5796 37.9015C82.5796 24.4227 69.3662 12.9797 53.4647 12.9797C44.6696 12.9797 37.2048 16.3854 32.9154 19.3921L32.2479 18.848C37.8595 11.0571 47.5776 6.14028 58.9736 6.14028ZM53.1204 19.0346C63.2679 19.0346 73.1749 25.0792 75.6478 33.6592L74.7484 33.966C70.3083 28.6865 63.0328 24.3112 54.4414 24.3112C38.6323 24.3112 30.3298 37.2463 31.5487 48.0497L30.6177 48.3567C30.6177 48.3567 28.8716 44.8875 28.8716 40.7738C28.8716 28.8612 39.7363 19.0346 53.1204 19.0346ZM59.8273 33.985C64.6315 33.985 68.4737 37.4912 68.4737 41.6533C68.4737 45.0975 66.0178 47.1388 66.0178 47.1388L68.9268 48.9703C68.9268 48.9703 66.0422 53.0481 60.1541 53.0481C54.5217 53.0481 49.5404 48.9547 49.5404 43.4501C49.5404 37.7781 54.9587 33.985 59.8273 33.985Z" fill="white"/>
    </g>
    <defs>
        <clipPath id="clip0_2588_57931">
            <rect width="121.41" height="100" fill="white" transform="translate(0.294922)"/>
        </clipPath>
    </defs>
</svg>
