<?xml version="1.0" encoding="UTF-8"?>
<svg id="_Слой_1" data-name="Слой 1" xmlns="http://www.w3.org/2000/svg" viewBox="0 0 196 136">
    <defs>
        <style>
            .cls-1 {
            fill: #d4d4d4;
            }
        </style>
    </defs>
    <polygon class="cls-1"
        points="110.81 42.87 107.81 39.82 104.59 36.64 91.41 36.64 88.27 39.82 85.27 42.87 94.88 42.87 94.88 70.4 98.04 73.53 101.21 70.4 101.21 42.87 98.04 39.82 101.21 42.87 110.81 42.87 110.81 42.87" />
    <g>
        <path class="cls-1"
            d="M91.41,58.13v-12.28h-6.14v14.96l4.83,4.78,2.25-2.18,2.22-2.16-3.16-3.12h0Zm16.3-12.28h-3.02v12.28l-3.16,3.12,2.22,2.16,2.25,2.18,4.83-4.78v-14.96s-3.12,0-3.12,0h0Z" />
        <path class="cls-1"
            d="M81.74,41.79l8.27-8.26,.24-.25h15.5l.24,.25,8.27,8.26,.25,.25v20.22l-.25,.25-15.68,15.38-.59,.57-.59-.57-15.67-15.38-.25-.25v-20.22l.25-.25h0Zm9.2-6.83l-7.78,7.77v18.84l14.84,14.56,14.84-14.56v-18.84l-7.78-7.77h-14.12Z" />
        <path class="cls-1"
            d="M173.76,82.54l5.06-.83c-.05-1.96-.67-3.72-1.85-4.98-1.15-1.23-2.84-2-5.06-2.04-1.43-.03-2.63,.34-3.6,.97-.92,.6-1.63,1.45-2.12,2.44-.49,1-.76,2.14-.78,3.33-.03,1.69,.43,3.44,1.42,4.96,.11,.17,.27,.37,.44,.59,.22,.27,.48,.56,.7,.8,.77,.84,1.58,1.56,2.37,2.26,.63,.56,1.25,1.1,1.85,1.72,.79,.81,1.21,1.59,1.38,2.27,.12,.5,.11,.95,.02,1.33-.1,.4-.3,.74-.54,.97-.2,.19-.43,.33-.67,.39-.11,.03-.22,.04-.32,.04-.45,0-.88-.24-1.24-.69-.3-.38-.56-.92-.73-1.6-.12-.47-.19-1.01-.21-1.61l-5.01,.27c.22,2.39,.84,4.76,2.16,6.41,1.09,1.37,2.69,2.25,4.99,2.24,.84,0,1.92-.14,2.93-.5,.76-.28,1.47-.68,2.02-1.27,.55-.6,1.09-1.47,1.47-2.43,.34-.85,.55-1.76,.54-2.59-.07-4.17-2.76-6.63-5.49-9.14-.46-.42-.92-.85-1.39-1.3-.93-.89-1.33-1.89-1.39-2.74-.03-.37,.01-.72,.1-1.03,.1-.32,.26-.6,.46-.81,.24-.25,.54-.41,.88-.43,0,0,.03,0,.06,0,.48,0,.87,.29,1.13,.87,.2,.45,.35,1.09,.4,1.91,0,.08,.01,.16,.02,.24h0Zm-22.3-7.56l-.02,26.5h5.2v-7.05s0-2.38,0-2.38l.92,2.19,3.02,7.23h5.95l-6.17-15.11-.08-.2,.1-.19,5.55-11h-5.9l-2.48,4.65-.9,1.7v-1.92s.02-4.43,.02-4.43h-5.2Zm-15.41,0l-.02,26.5h5.42l.02-8.37v-3s.93,2.86,.93,2.86l2.75,8.52h5.32l.02-26.5h-5.21v12.28l-.94-3.09-2.78-9.19h-5.51Zm-11.42,0l-4.49,26.5h5.41l1.05-5.45,.07-.39h2.46l.06,.4,.87,5.44h5.34l-4.31-26.5h-6.47ZM26.53,101.48l.94-7.07,.47-3.56,.47,3.56,.94,7.07h4.84l4.16-26.5h-5.35l-.97,6.03-.53,3.31-.42-3.32-.75-6.01h-5.13l-.75,6.01-.42,3.32-.53-3.31-.97-6.03h-5.34l4.49,26.5h4.84s0,0,0,0h0Zm19.7-6.57c0,.26-.22,.47-.48,.47l.48-.47h0Zm-2.91-13.51c0-.4,.17-.76,.43-1.02,.01-.01,.02-.02,.03-.03,.26-.25,.61-.4,1-.4s.76,.16,1.03,.43h0c.26,.26,.43,.62,.43,1.02v13.51c0,.4-.17,.75-.43,1.02h0s0,0,0,0c-.27,.27-.64,.43-1.03,.43-.4,0-.76-.16-1.03-.43h0s0,0,0,0h0c-.27-.27-.42-.63-.43-1.02v-13.5h0Zm.96,0v13.49c0,.14,.06,.26,.14,.35h0c.09,.09,.21,.14,.35,.14,.13,0,.26-.05,.35-.14h0c.09-.09,.15-.22,.14-.35v-13.48c0-.13-.05-.26-.15-.35h0s0,0,0,0c-.09-.09-.21-.14-.35-.14-.12,0-.24,.04-.33,.13,0,0-.01,.01-.02,.02-.09,.09-.15,.22-.15,.35h0Zm-5.49-3.02c-.44,1.17-.6,2.65-.65,4.12v12.54c0,1.83,.74,3.49,1.94,4.69,1.2,1.2,2.86,1.94,4.69,1.94s3.49-.74,4.69-1.94c1.2-1.2,1.94-2.86,1.94-4.69h0v-13.79h0c0-1.84-.74-3.5-1.94-4.7-1.2-1.2-2.86-1.95-4.69-1.95s-3.49,.74-4.69,1.95c-.53,.53-.97,1.15-1.3,1.83h0Zm21.07,8c-.44,.29-1,.3-1.77,.3h-.48v-.48s.04-5.47,.04-5.47v-.48h.48c.3,0,.17,0,.22,0,1.15,0,2.19-.02,2.19,1.42v2.86c0,1-.21,1.53-.68,1.84h0Zm6.28,8.72v-6.63c-.04,.12-.1,.24-.17,.35-.33,.58-.76,1.09-1.17,1.43l1.34,4.84h0Zm.79,6.36l-3.13-11.27-.09-.34,.3-.19c.37-.23,.8-.72,1.13-1.31,.28-.5,.48-1.04,.48-1.52l.02-5.97v-.02h0c0-2.07-.88-3.53-2.05-4.48-1.18-.96-2.66-1.4-3.85-1.41h-.02s-7.3,0-7.3,0l-.06,26.5h5.25v-9.98s.01-.48,.01-.48h.91l.09,.36,2.56,10.1h5.73s0,0,0,0h0Zm20.13-5.55c-.42,.28-.97,.36-1.68,.36h-.48v-.48s.02-15.07,.02-15.07v-.48h1.63c.47,0,.79,.17,1,.47,.18,.26,.26,.59,.26,.97l-.04,12.63c0,.79-.24,1.29-.71,1.59h0Zm-1.2-.62c.3-.02,.52-.08,.68-.18,.18-.12,.28-.37,.28-.8l.04-12.63c0-.19-.02-.34-.08-.42-.03-.04-.1-.07-.22-.07h-.68l-.02,14.09h0Zm-6.26-20.34l-.04,20.17h0v.48s.01,5.86,.01,5.86h7.27c1.52,0,3.01-.79,4.14-1.95,1.19-1.21,1.97-2.8,1.97-4.3l.02-13.71h0s0,0,0,0c0-1.58-.71-3.22-1.83-4.46-1.11-1.23-2.63-2.07-4.26-2.07h0s-7.3,0-7.3,0h0s0,0,0,0h0Zm-1.01,26.5v-5.38s-6.32,0-6.32,0v-.48s.04-20.65,.04-20.65h-5.18l-.06,26.5h11.52Zm19.09-13.54c0-.32,.13-.6,.33-.81,.21-.21,.49-.33,.81-.33s.6,.13,.8,.33h0c.21,.22,.33,.51,.33,.81v9.11c0,.3-.12,.59-.33,.8h0c-.21,.22-.5,.34-.8,.33-.3,0-.59-.12-.81-.33h0c-.21-.21-.33-.5-.33-.81v-9.11h0Zm5.47,9.21v-9.31h0s0,0,0,0c0-1.15-.45-2.25-1.27-3.06-.78-.79-1.87-1.27-3.06-1.27s-2.28,.48-3.06,1.27c-.78,.78-1.27,1.86-1.27,3.06v9.32c0,1.15,.45,2.25,1.27,3.06,.78,.78,1.87,1.27,3.06,1.27,1.15,0,2.25-.45,3.06-1.27,.78-.78,1.27-1.87,1.27-3.06h0s0,0,0,0h0Zm1.19-13.64l-.02,17.98h3.76l.02-6.77v-.48h3.22v-3.7s-3.24,0-3.24,0v-.48s.02-2.29,.02-2.29v-.48h4.43v-3.78h-8.2Zm9.7-2.89l-.04,20.86h5.14l.1-20.86v-.48h3.89v-5.16h-13.01v5.16h3.92v.48h0Zm8.61,.48h-2.46l-.07,14.92,2.53-14.92h0Zm-64.07,4.65c.35-.01,.61-.04,.76-.14,.18-.12,.26-.42,.26-1.04v-2.86c0-.41-.45-.46-.99-.46l-.03,4.51h0Zm105.3,6.67v-.2s.47-.03,.47-.03l5.99-.32,.51-.03v.51c-.01,.72,.06,1.35,.19,1.88,.14,.54,.33,.96,.55,1.24,.17,.21,.34,.32,.5,.33,.03,0,.06,0,.09-.01,.08-.02,.16-.07,.24-.14,.12-.12,.22-.29,.28-.51,.06-.24,.06-.54-.02-.88-.13-.53-.48-1.15-1.14-1.83-.56-.57-1.17-1.11-1.8-1.67-.81-.71-1.64-1.44-2.45-2.33-.22-.24-.49-.55-.73-.85-.19-.24-.37-.47-.5-.67-1.1-1.68-1.61-3.62-1.57-5.49,.01-.61,.08-1.22,.21-1.8l-3.34,6.62,2.53,6.21h0Zm15.51-9.84l-6,.99-.55,.09v-.56c-.01-.24-.02-.49-.04-.73-.05-.71-.16-1.24-.32-1.58-.09-.21-.18-.32-.25-.32-.01,0,0,0,0,0-.09,0-.18,.06-.26,.14-.1,.1-.18,.24-.23,.42-.06,.2-.09,.43-.07,.69,.05,.64,.37,1.41,1.1,2.12,.44,.42,.91,.85,1.38,1.28,2.88,2.65,5.72,5.25,5.8,9.83,.02,.96-.22,2-.61,2.96-.43,1.06-1.03,2.04-1.66,2.72-.66,.71-1.51,1.2-2.39,1.52-1.12,.41-2.32,.55-3.25,.56-1.89,.01-3.37-.52-4.52-1.4l.19,.46,.27,.66h-8.01l-.12-.29-2.23-5.33v5.15s0,.48,0,.48h-13.13l-.11-.33-1.94-5.99v5.85s-.01,.48-.01,.48h-13.14l-.06-.4-.87-5.43h-.86l-1.04,5.45-.07,.39h-13.32v-.48s.02-13.72,.02-13.72h-4.02v1.33s3.23,0,3.23,0v.48s-.01,4.66-.01,4.66v.48h-3.22v6.77s-.02,.48-.02,.48h-5.67v-2.59c-.22,.38-.5,.73-.81,1.04-.96,.96-2.28,1.55-3.74,1.55s-2.78-.59-3.74-1.55c-.93-.93-1.51-2.2-1.55-3.61-.38,1.06-1.04,2.08-1.86,2.92-1.3,1.33-3.04,2.24-4.83,2.24h-26.39l-.09-.36-1.78-7.03v6.92s-.01,.48-.01,.48h-7.16v-.48s0-3.22,0-3.22c-.34,.62-.77,1.19-1.28,1.69-1.37,1.38-3.27,2.22-5.37,2.22s-3.99-.85-5.37-2.22c-1.37-1.37-2.22-3.27-2.22-5.37v-6.44l-2.11,13.41-.06,.41h-6.49l-.06-.42-.52-3.93-.52,3.93-.06,.42h-6.48l-.07-.4-4.65-27.46-.09-.56h7.28l.06,.4,.5,3.13,.39-3.11,.05-.42h6.82l.05,.42,.39,3.11,.5-3.13,.06-.4h7.28l-.09,.55-.25,1.61c.09-.1,.18-.19,.27-.29,1.38-1.37,3.27-2.22,5.37-2.22s3.99,.85,5.37,2.22c.52,.52,.97,1.12,1.32,1.77v-3.17s0-.48,0-.48h8.25s.01,0,.01,0c1.38,0,3.09,.51,4.45,1.62,.85,.68,1.56,1.6,1.99,2.75v-3.89s.01-.48,.01-.48h7.07v.48s-.04,20.65-.04,20.65h5.38l.04-20.65v-.48h8.25c1.92,0,3.69,.97,4.97,2.39,1.27,1.41,2.07,3.28,2.07,5.1h0s0,0,0,0v4.31c.26-.65,.65-1.24,1.15-1.73,.96-.96,2.28-1.55,3.74-1.55s2.78,.59,3.74,1.55c.32,.32,.59,.67,.82,1.06v-2.13s0-.48,0-.48h9.7v-1.45s-3.9,0-3.9,0v-.48s-.02-6.12-.02-6.12v-.48s22.77,0,22.77,0l.06,.4,3.1,19.06,.02-18.98v-.48h7.18l.1,.34,1.95,6.43v-6.77h13.29v.48s-.01,2.99-.01,2.99l1.71-3.21,.14-.25h8.03l-.35,.69-.61,1.21c.37-.4,.8-.76,1.26-1.07,1.12-.73,2.5-1.15,4.13-1.12,2.5,.04,4.42,.93,5.74,2.34,1.43,1.53,2.15,3.68,2.12,6.04v.4s-.4,.06-.4,.06h0Zm-52.01,7.85l.51-3.72,.49,3.72h-1Z" />
    </g>
</svg>
