<svg width="47" height="47" viewBox="0 0 47 47" fill="none" xmlns="http://www.w3.org/2000/svg">
    <g filter="url(#filter0_d_918_16128)">
        <path fill-rule="evenodd" clip-rule="evenodd"
              d="M9.97403 16.475C10.1815 16.1165 10.6403 15.9941 10.9988 16.2016L23.5001 23.4362L35.9139 16.2455C36.2723 16.0379 36.7312 16.1601 36.9388 16.5185C37.1464 16.877 37.0242 17.3358 36.6658 17.5434L23.8762 24.9518C23.6438 25.0864 23.3571 25.0865 23.1246 24.9519L10.2475 17.4998C9.889 17.2924 9.76656 16.8336 9.97403 16.475Z"
              fill="currentColor"/>
        <path fill-rule="evenodd" clip-rule="evenodd"
              d="M23.5 23.5376C23.9142 23.5376 24.25 23.8734 24.25 24.2876V37.5147C24.25 37.9289 23.9142 38.2647 23.5 38.2647C23.0858 38.2647 22.75 37.9289 22.75 37.5147V24.2876C22.75 23.8734 23.0858 23.5376 23.5 23.5376Z"
              fill="currentColor"/>
        <path fill-rule="evenodd" clip-rule="evenodd"
              d="M23.5005 8.16505C24.6883 8.16307 25.9177 8.40989 26.8936 8.94452L26.8978 8.94683L34.6841 13.2774C34.6839 13.2773 34.6843 13.2775 34.6841 13.2774C35.7111 13.8463 36.6016 14.8138 37.2327 15.8841C37.8639 16.9545 38.2791 18.2008 38.2791 19.3731V27.6127C38.2791 28.785 37.8639 30.0313 37.2327 31.1017C36.6016 32.172 35.7118 33.1391 34.6848 33.708C34.6845 33.7082 34.685 33.7079 34.6848 33.708L26.8978 38.039L26.896 38.04C25.9257 38.5762 24.695 38.8226 23.5072 38.8226C22.3194 38.8226 21.0888 38.5762 20.1184 38.04L20.1166 38.039L12.3304 33.7084C12.3302 33.7083 12.3306 33.7085 12.3304 33.7084C11.3033 33.1395 10.4128 32.172 9.78175 31.1017C9.15056 30.0313 8.73535 28.785 8.73535 27.6127V19.3731C8.73535 18.2008 9.15056 16.9545 9.78175 15.8841C10.4129 14.8137 11.3029 13.8464 12.3301 13.2776L20.114 8.96288C20.1146 8.96254 20.1153 8.96219 20.1159 8.96185C21.0865 8.41747 22.3139 8.16703 23.5005 8.16505ZM23.503 9.66505C22.4992 9.66672 21.5399 9.88262 20.8483 10.2709L20.8448 10.2728L13.0573 14.5895C12.32 14.9977 11.6056 15.7441 11.0739 16.646C10.542 17.5479 10.2354 18.5329 10.2354 19.3731V27.6127C10.2354 28.4529 10.542 29.4379 11.0739 30.3398C11.6056 31.2417 12.3197 31.9879 13.057 32.3962L13.0582 32.3968L20.8439 36.7271C20.8437 36.727 20.8442 36.7272 20.8439 36.7271C21.536 37.1094 22.5005 37.3226 23.5072 37.3226C24.514 37.3226 25.4779 37.1097 26.17 36.7274C26.1699 36.7275 26.1702 36.7273 26.17 36.7274L33.9562 32.3968L33.9575 32.3962C34.6947 31.9879 35.4088 31.2417 35.9406 30.3398C36.4724 29.4379 36.7791 28.4529 36.7791 27.6127V19.3731C36.7791 18.5329 36.4724 17.5479 35.9406 16.646C35.4088 15.7441 34.6947 14.9979 33.9575 14.5897L33.9562 14.589L26.1729 10.2601C26.1723 10.2597 26.1716 10.2593 26.1709 10.259C25.47 9.87554 24.5055 9.66338 23.503 9.66505Z"
              fill="currentColor"/>
    </g>
    <defs>
        <filter id="filter0_d_918_16128" x="-2" y="-2" width="51" height="51" filterUnits="userSpaceOnUse"
                color-interpolation-filters="sRGB">
            <feFlood flood-opacity="0" result="BackgroundImageFix"/>
            <feColorMatrix in="SourceAlpha" type="matrix" values="0 0 0 0 0 0 0 0 0 0 0 0 0 0 0 0 0 0 127 0"
                           result="hardAlpha"/>
            <feOffset/>
            <feGaussianBlur stdDeviation="4"/>
            <feComposite in2="hardAlpha" operator="out"/>
            <feColorMatrix type="matrix" values="0 0 0 0 0.239216 0 0 0 0 0.596078 0 0 0 0 1 0 0 0 0.37 0"/>
            <feBlend mode="normal" in2="BackgroundImageFix" result="effect1_dropShadow_918_16128"/>
            <feBlend mode="normal" in="SourceGraphic" in2="effect1_dropShadow_918_16128" result="shape"/>
        </filter>
    </defs>
</svg>
