<?xml version="1.0" encoding="UTF-8"?>
<svg id="_Слой_1" data-name="Слой 1" xmlns="http://www.w3.org/2000/svg"
    xmlns:xlink="http://www.w3.org/1999/xlink" viewBox="0 0 196 136">
    <defs>
        <style>
            .cls-1 {
            fill: none;
            }

            .cls-2 {
            clip-path: url(#clippath);
            }

            .cls-3 {
            fill: #d4d4d4;
            }

            .cls-4 {
            fill: url(#_Безымянный_градиент_3);
            }
        </style>
        <clipPath id="clippath">
            <rect class="cls-1" x="23.68" y="53.88" width="148.65" height="28.24" />
        </clipPath>
        <linearGradient id="_Безымянный_градиент_3" data-name="Безымянный градиент 3" x1="99.93"
            y1="-1180.81" x2="97.61" y2="-1189.19"
            gradientTransform="translate(0 -1126.1) scale(1 -1)" gradientUnits="userSpaceOnUse">
            <stop offset=".38" stop-color="#d4d4d4" />
            <stop offset=".44" stop-color="#d4d4d4" />
            <stop offset=".49" stop-color="#d4d4d4" />
            <stop offset=".54" stop-color="#d4d4d4" />
            <stop offset=".58" stop-color="#d4d4d4" />
        </linearGradient>
    </defs>
    <g class="cls-2">
        <g>
            <path class="cls-3"
                d="M32.12,58h-1.84c-.58,0-1.13,.23-1.54,.63-.41,.4-.64,.95-.64,1.52v1.92c0,.66,.2,1.31,.57,1.86,.37,.55,.9,.98,1.52,1.23l5.49,2.22c.79,.32,1.47,.87,1.95,1.57,.48,.7,.73,1.53,.73,2.38v6.3c0,1.16-.47,2.28-1.3,3.1-.83,.82-1.96,1.29-3.13,1.29h-5.91c-1.15,0-2.26-.46-3.08-1.26-.82-.81-1.27-1.91-1.27-3.05v-2.54h4.54v.78c0,.52,.21,1.01,.57,1.37,.37,.36,.87,.57,1.39,.57h1.65c.56,0,1.09-.22,1.49-.61,.4-.39,.62-.92,.62-1.48v-2.05c-.03-.65-.25-1.28-.61-1.82-.37-.54-.88-.97-1.47-1.25l-5.27-2.14c-.86-.31-1.6-.88-2.12-1.63-.52-.75-.8-1.64-.79-2.54v-6.04c0-1.18,.48-2.3,1.32-3.13,.84-.83,1.97-1.3,3.16-1.3h5.86c1.16,0,2.27,.46,3.09,1.27,.82,.81,1.28,1.91,1.28,3.06v2.55h-4.48v-.97c0-.23-.04-.46-.13-.68-.09-.22-.22-.41-.38-.58-.16-.17-.36-.3-.58-.39-.22-.09-.45-.14-.68-.14Z" />
            <path class="cls-3"
                d="M32.12,58h-1.84c-.58,0-1.13,.23-1.54,.63-.41,.4-.64,.95-.64,1.52v1.92c0,.66,.2,1.31,.57,1.86,.37,.55,.9,.98,1.52,1.23l5.49,2.22c.79,.32,1.47,.87,1.95,1.57,.48,.7,.73,1.53,.73,2.38v6.3c0,1.16-.47,2.28-1.3,3.1-.83,.82-1.96,1.29-3.13,1.29h-5.91c-1.15,0-2.26-.46-3.08-1.26-.82-.81-1.27-1.91-1.27-3.05v-2.54h4.54v.78c0,.52,.21,1.01,.57,1.37,.37,.36,.87,.57,1.39,.57h1.65c.56,0,1.09-.22,1.49-.61,.4-.39,.62-.92,.62-1.48v-2.05c0-1.23-.03-3.29-1.17-3.75l-5.66-2.55c-1.62-.6-2.57-1.11-2.57-3.13l-.31-6.05c0-2.44,1.31-3.84,3.77-3.84l5.92-.1c2.41,0,4.46,1.5,4.46,3.88v2.55h-4.49v-.97c0-.23-.04-.47-.13-.68-.09-.22-.22-.41-.38-.58-.16-.17-.36-.3-.58-.39-.22-.09-.45-.14-.69-.14Z" />
            <path class="cls-3"
                d="M32.21,57.33l-1.2,.05c-1.2,0-3.64,.77-3.64,1.96l-.15,2.64c0,1.35,1.21,3.45,2.47,3.96l5.53,2.45c1.62,.65,2.27,1.35,2.27,3.08l-.05,5.87c0,2.42-1.26,3.47-3.7,3.47l-5.78-.29c-2.4,0-3.58-2.31-3.58-4.7l-.71-.66h4.54l-.53,.47c0,1.07,.05,2.98,1.14,2.98l2.48,.25c1.16,0,3.05-.56,3.05-1.71l.35-3.43c0-1.23-.78-3.27-1.92-3.73l-5.66-2.55c-1.62-.6-2.57-1.11-2.57-3.13l-.31-6.05c0-2.44,1.31-3.84,3.77-3.84l5.92-.1c2.41,0,3.73,1.4,3.73,3.78l.15,2.31-3.31-.55c0-.99-1.29-2.55-2.28-2.55Z" />
            <path class="cls-3"
                d="M32.12,58h-1.84c-1.2,0-3.1,.73-3.1,1.92l.05,2.35c0,1.35,1.2,3.5,2.47,4l5.34,2.41c1.62,.66,2.47,1.06,2.47,2.79l-.05,5.87c0,2.42-1.01,3.33-3.45,3.33l-5.97,.49c-2.4,0-3.13-1.43-3.13-3.82l2.17-1.15,1.15-1.03v.78c0,.26,.05,.51,.15,.74,.1,.24,.24,.45,.42,.63,.18,.18,.4,.32,.64,.42,.24,.1,.49,.15,.75,.15h1.65c.56,0,1.09-.22,1.49-.61,.4-.39,.62-.92,.62-1.48v-2.05c0-1.23-.03-3.29-1.17-3.75l-5.66-2.55c-1.62-.6-2.57-1.11-2.57-3.13l-.31-6.05c0-2.44,1.31-3.84,3.77-3.84l5.92-.1c2.41,0,4.46,1.5,4.46,3.88v2.55h-4.48v-.97c0-.23-.04-.47-.13-.68-.09-.22-.22-.41-.38-.58-.16-.17-.36-.3-.58-.39-.22-.09-.45-.14-.69-.14Z" />
            <path class="cls-3"
                d="M32.12,58h-1.84c-1.2,0-3.1,.73-3.1,1.92l.05,2.35c0,1.35,1.2,3.5,2.47,4l5.34,2.41c1.62,.66,2.47,1.06,2.47,2.79l-.05,5.87c0,2.42-1.01,3.33-3.45,3.33l-5.97,.49c-2.4,0-3.13-1.43-3.13-3.82l2.17-1.15s1.77,2.81,2.84,2.81l2.47-.1c1.16,0,2.52-2.26,2.52-3.42l-.2-1.77c0-1.23-.78-3.27-1.92-3.73l-5.66-2.55c-1.62-.6-2.57-1.11-2.57-3.13l-.31-6.05c0-2.44,1.31-3.84,3.77-3.84l5.92-.1c2.41,0,3.88,1.55,3.88,3.94l.26,2.19-.12-.21-3.62,.04-.43,.48v-.97c0-.23-.04-.46-.13-.68-.09-.22-.22-.41-.38-.58-.16-.17-.36-.3-.58-.39-.22-.09-.45-.14-.68-.14Z" />
            <path class="cls-3"
                d="M32.12,57.72h-1.84c-.33,0-.66,.06-.97,.18-.31,.13-.59,.31-.82,.55-.23,.24-.41,.51-.53,.82-.12,.31-.18,.64-.16,.96v1.92c0,1.42,.83,2.6,2.41,3.34,0,0,4.01,1.68,5.49,2.3,.7,.29,1.3,.78,1.73,1.41,.42,.63,.65,1.37,.65,2.12v6.3c0,2.35-1.97,4.08-4.41,4.08h-5.31c-2.49,0-4.41-1.75-4.41-4.12v-2.16h3.97v.53c0,.59,.23,1.15,.64,1.57s.98,.65,1.57,.66h1.65c.64-.01,1.24-.27,1.7-.71,.45-.44,.72-1.04,.75-1.67v-2.05c-.01-.72-.23-1.41-.64-2.01s-.98-1.06-1.65-1.33l-5.27-2.14c-1.38-.6-2.73-1.89-2.73-3.91v-6.04c0-2.13,1.92-4.15,4.21-4.15h5.94c1.06,0,2.08,.42,2.83,1.16,.75,.74,1.17,1.75,1.17,2.81v2.28h-3.92v-.64c0-.27-.04-.54-.14-.79-.1-.25-.25-.48-.44-.68-.19-.19-.42-.35-.67-.45-.25-.1-.52-.15-.8-.15Z" />
            <path class="cls-3"
                d="M27.91,75.42c-.02,.39,.03,.78,.12,1.15,.11,.37,.32,.7,.61,.96,.28,.26,.63,.44,1.01,.53,.19,.04,.38,.06,.58,.05h.59c.39,0,.79,.02,1.18,0,.38-.04,.75-.17,1.08-.38,.33-.21,.6-.49,.8-.82,.21-.33,.33-.71,.35-1.1,0,.4-.11,.79-.3,1.13-.19,.35-.46,.65-.8,.87-.33,.23-.72,.37-1.12,.41-.4,.03-.79,0-1.19,.02h-.58c-.2,0-.4-.01-.6-.06-.4-.09-.76-.29-1.05-.57-.29-.28-.5-.63-.61-1.01-.08-.39-.11-.79-.08-1.18Z" />
            <path class="cls-3" d="M27.91,75.42h-3.97l-.07-.07h4.13l-.09,.07Z" />
            <path class="cls-3"
                d="M27.79,62.15c0,.62,.19,1.22,.53,1.74,.34,.51,.79,.94,1.33,1.25,.54,.29,1.11,.55,1.68,.77l1.72,.71,1.71,.73,.86,.36c.29,.12,.57,.27,.82,.45,.51,.36,.93,.84,1.22,1.39,.28,.55,.43,1.17,.42,1.79-.01-.61-.17-1.21-.47-1.75-.29-.54-.71-1-1.22-1.35-.53-.31-1.09-.57-1.67-.78l-1.72-.72-1.71-.72c-.58-.22-1.15-.48-1.69-.79-.54-.33-.99-.77-1.33-1.3-.32-.54-.49-1.15-.47-1.77Z" />
            <path class="cls-3"
                d="M23.93,58.32c0-.39,.06-.78,.17-1.15,.12-.37,.29-.73,.5-1.06,.43-.66,1.03-1.2,1.74-1.55,.18-.09,.36-.17,.54-.24,.19-.06,.38-.11,.58-.14,.39-.06,.78-.09,1.18-.07h4.69c.39,0,.78,0,1.18,.03,.39,.05,.78,.15,1.15,.3,.36,.16,.7,.37,1.01,.62,.6,.51,1.04,1.18,1.26,1.94,.1,.38,.15,.76,.16,1.15-.01-.77-.26-1.53-.69-2.17-.44-.64-1.06-1.14-1.78-1.44-.36-.14-.74-.23-1.12-.28-.38-.03-.78-.02-1.17-.02h-4.69c-.39-.02-.78,0-1.16,.06-.19,.03-.38,.08-.56,.14-.18,.06-.36,.14-.53,.22-1.05,.52-1.86,1.43-2.25,2.53-.12,.37-.19,.75-.2,1.14Z" />
            <path class="cls-3"
                d="M39.51,53.99h19.04l-1.09,4.27h-6.6v23.76h-4.85v-23.74h-6.5v-4.29Z" />
            <path class="cls-3" d="M39.51,53.99h19.04l-1.09,4.27h-6.6v1.42h-4.85v-1.4h-6.5v-4.29Z" />
            <path class="cls-3"
                d="M39.51,53.99h19.04l-.42,.32-7.27,1.82h-4.85s-6.18-1.82-6.18-1.82l-.32-.32Z" />
            <path class="cls-3" d="M50.52,81.71l.35,.31h-4.85l.33-.31h4.18Z" />
            <path class="cls-3"
                d="M39.83,54.3h18.3l-.87,3.62h-6.41c-.09,0-.17,.03-.23,.09-.06,.06-.1,.14-.1,.23v23.46h-4.18v-23.48c0-.08-.03-.15-.09-.21-.06-.06-.13-.09-.21-.09h-6.21v-3.63Z" />
            <path class="cls-3" d="M39.51,53.99l.32,.32,.57,3.05-.89,.92v-4.29Z" />
            <path class="cls-3" d="M58.13,54.31h-18.3l-.07-.06h18.45l-.08,.06Z" />
            <path class="cls-3"
                d="M68.33,82.02h4.81l-7.5-28.02h-4.71l-7.55,28.02h4.91l.72-2.8h8.58l.73,2.8Zm-8.3-6.52l3.22-12.24,3.32,12.24h-6.53Z" />
            <path class="cls-3"
                d="M68.33,77.88l-2.98-23.59,.3-.32h-4.72l.29,.32-2.67,23.24h8.6l1.18,.35Zm-9.12-1.79l4.04-14.72,3.82,14.72h-7.86Z" />
            <path class="cls-3"
                d="M68.49,76.55l-4.1-17.26h-1.98l-4.93,17.26h11.01Zm-8.46-1.05l3.22-12.24,3.32,12.24h-6.53Z" />
            <path class="cls-3"
                d="M68.33,82.02h4.81l-.44-.31-6.98-21.64-5.13,.15-6.74,21.5-.47,.31h4.91l.72-2.8h8.58l.74,2.8Zm-9.46-5.6l4.36-15.43,4.39,15.57-8.75-.13Z" />
            <path class="cls-3"
                d="M68.49,76.55l-4.1-17.26h-1.98l-4.93,17.26h11.01Zm-8.46-1.05l-.93,1.04,4.19-15.71,4.18,15.73-.9-1.05h-6.53Z" />
            <path class="cls-3"
                d="M68.54,81.71h4.16l-7.35-27.42h-4.13l-7.36,27.42h4.19l.65-2.56c.02-.08,.07-.15,.13-.2,.06-.05,.14-.08,.22-.08h8.45c.08,0,.17,.03,.23,.08,.07,.05,.12,.12,.14,.2l.68,2.56Zm-8.9-6.06l.09-.36,3.51-13.32,3.68,13.68c.01,.05,.01,.1,0,.16-.01,.05-.03,.1-.07,.14-.03,.04-.07,.08-.12,.1-.05,.02-.1,.04-.15,.04h-6.6c-.05,0-.11-.01-.16-.04-.05-.02-.09-.06-.13-.1-.03-.04-.06-.09-.07-.15-.01-.05,0-.11,0-.16Z" />
            <path class="cls-3"
                d="M72.71,81.71l-3.72-13.69-3.7-13.7,.06,.04h-4.13l.06-.04-3.7,13.7-3.72,13.69,3.64-13.71,3.66-13.71v-.04h4.23v.04s3.67,13.71,3.67,13.71l3.64,13.71Z" />
            <path class="cls-3"
                d="M66.93,75.66c.02,.08,.02,.17-.02,.24-.03,.08-.1,.14-.17,.18-.08,.03-.17,.04-.25,.04h-.25l-.99,.02-1.97,.02-1.98-.02-.99-.02h-.25c-.09,0-.17,0-.25-.04-.08-.04-.14-.1-.17-.18-.03-.08-.04-.16-.02-.24-.02,.08,0,.16,.03,.23,.04,.07,.1,.13,.17,.16,.07,.03,.16,.04,.23,.03h.25l.99-.02,1.98-.02,1.97,.02,.99,.02h.25c.08,.01,.16,0,.24-.02,.08-.03,.14-.08,.18-.16,.04-.07,.05-.15,.03-.23Z" />
            <path class="cls-3"
                d="M86.16,53.99v17.27l-7.22-17.27h-4.88v28.03h4.84v-17.29l7.22,17.29h4.9v-28.03h-4.85Z" />
            <path class="cls-3"
                d="M86.16,53.99l.33,.32,1.12,1.74-1.12,18.26-7.85-20,.3-.32h-4.88l.32,.32,4.2,2.18,8.2,19.6,3.23-20.78,.67-1.01,.34-.32h-4.85Z" />
            <path class="cls-3"
                d="M86.16,71.26l-7.22-17.27-.3,.32,.25,6.9,7.36,17.02,.23-5.14-.33-1.82Z" />
            <path class="cls-3" d="M74.38,81.71l-.32,.31h4.84l-.32-.31-2.48-5.77-1.71,5.77Z" />
            <path class="cls-3"
                d="M86.16,53.99v17.27l.33,1.82-7.92-10.02,.32,1.66,7.22,17.29h4.9l-.34-.31-4.18-27.4-.33-.32Z" />
            <path class="cls-3"
                d="M86.5,54.31v18.78l-7.85-18.78h-4.26v27.4h4.2v-18.65s7.83,18.65,7.83,18.65h4.27v-27.4h-4.18Z" />
            <path class="cls-3"
                d="M86.5,73.09c-.67-1.56-1.34-3.12-2-4.68l-1.98-4.69c-.67-1.56-1.31-3.13-1.96-4.7l-1.95-4.7,.03,.02c-1.42,0-2.85-.02-4.27-.04,1.42,0,2.84-.04,4.27-.04h.03v.02l1.98,4.69c.66,1.56,1.32,3.12,1.97,4.69l1.95,4.7c.67,1.57,1.29,3.14,1.93,4.71Z" />
            <path class="cls-3" d="M90.68,54.24h-4.18v.13h4.18v-.13Z" />
            <path class="cls-3"
                d="M102.14,77.54v-.75l-.55,.54c-.13,.13-.31,.21-.5,.22h-4.04v-19.07h4.04c.19,0,.37,.06,.5,.18l.52,.5v-.91c.06-1.23,.78-2.92,2.07-3.82-.3-.28-.69-.43-1.1-.43h-10.85v28.02h10.85c.39,0,.77-.14,1.06-.4-.62-.48-1.13-1.1-1.47-1.81-.35-.7-.52-1.48-.52-2.26Z" />
            <path class="cls-3"
                d="M101.56,56.83c.76-.58,1.49-1.53,2.6-2.41-.3-.28-.69-.43-1.1-.43h-10.85l.31,.32,2.17,2.53h6.86Z" />
            <path class="cls-4"
                d="M97.03,58.48h4.04c.19,0,.37,.06,.5,.18l.52,.5v-.91c.06-1.23-6.21-1.11-6.21-1.11l-.17,1.13,.11,14.09,1.21-13.88Z" />
            <path class="cls-3"
                d="M101.07,79.28c-.14,.13-6.25,.33-6.25,.33l-2.29,2.1-.31,.31h10.85c.39,0,.77-.14,1.06-.4l-3.06-2.34Z" />
            <path class="cls-3"
                d="M102.14,77.54v-.75l-.55,.54c-.13,.13-.31,.21-.5,.22h-4.04l-.34,.2-1.74,.96,4.54,.83s2.63-.35,2.63-2Z" />
            <path class="cls-3"
                d="M102.14,77.54v-.29s-.34,.32-.47,.44c-.18,.13-.4,.2-.62,.2h-3.94s-.1,0-.14-.03c-.04-.02-.09-.04-.12-.08-.03-.03-.06-.07-.08-.12-.02-.04-.03-.09-.03-.14v-19.06s0-.09,.01-.13c.02-.04,.04-.08,.07-.11,.03-.03,.07-.05,.11-.07,.04-.02,.08-.02,.13-.02h4.02c.24,0,.47,.09,.64,.25l.37,.36v-.58c.13-1.33,.74-2.57,1.73-3.49-.13-.13-.28-.23-.45-.29-.17-.07-.35-.1-.53-.1h-10.32v27.42h9.88c.41,0,1.12,0,1.46-.3-.55-.48-.99-1.08-1.29-1.75s-.45-1.39-.44-2.12Z" />
            <path class="cls-3"
                d="M103.83,54.69c-.17-.17-.38-.28-.62-.32-.23-.04-.47-.05-.71-.03l-1.42,.02h-5.7c-.95,0-1.9-.03-2.85-.05,.95-.02,1.9-.04,2.85-.05l2.85-.02,2.85,.02,1.42,.02c.24,0,.48,.01,.71,.06,.23,.05,.45,.17,.61,.35Z" />
            <path class="cls-3"
                d="M114.99,53.99h-7.51c-1.17,0-2.28,.46-3.11,1.28-.82,.82-1.29,1.92-1.29,3.08v19.41c0,1.16,.47,2.26,1.29,3.08,.82,.82,1.94,1.28,3.11,1.28h7.51c1.16,0,2.28-.46,3.11-1.28,.82-.82,1.29-1.92,1.29-3.08v-19.41c0-1.16-.47-2.26-1.29-3.08-.82-.82-1.94-1.28-3.11-1.28Zm-.44,21.82c0,.46-.19,.91-.52,1.24-.33,.33-.78,.51-1.25,.51h-3.08c-.47,0-.92-.18-1.25-.51-.33-.33-.52-.77-.52-1.24v-15.62c0-.46,.19-.91,.52-1.24,.33-.33,.78-.51,1.25-.51h3.08c.47,0,.92,.18,1.25,.51,.33,.33,.52,.77,.52,1.24v15.62Z" />
            <path class="cls-3"
                d="M114.58,57.72l-6.27-.25c-2.42,0-3.24,22.09-.83,22.09h7.51c2.42,0,2.01-21.84-.41-21.84Zm-.03,18.09c0,.46-.19,.91-.52,1.24-.33,.33-.78,.51-1.25,.51h-3.08c-.47,0-.92-.18-1.25-.51-.33-.33-.52-.77-.52-1.24v-15.62c0-.46,.19-.91,.52-1.24,.33-.33,.78-.51,1.25-.51h3.08c.47,0,.92,.18,1.25,.51,.33,.33,.52,.77,.52,1.24v15.62Z" />
            <path class="cls-3"
                d="M114.82,54.3h-7.11c-.56,0-1.12,.11-1.64,.32-.52,.21-.99,.53-1.39,.92-.4,.4-.71,.86-.93,1.38-.21,.52-.32,1.07-.32,1.63v18.98c0,1.11,.44,2.17,1.24,2.96s1.86,1.23,2.98,1.23h7.2c.55,0,1.1-.11,1.61-.32,.51-.21,.98-.52,1.37-.91,.39-.39,.7-.85,.91-1.36,.21-.51,.32-1.05,.32-1.6v-19.01c0-.55-.11-1.1-.32-1.62-.21-.51-.53-.98-.92-1.37-.39-.39-.86-.7-1.38-.92-.52-.21-1.07-.32-1.63-.32Zm.04,5.88v15.83c0,.25-.05,.49-.14,.71-.09,.23-.23,.43-.41,.61-.17,.17-.38,.31-.61,.4-.23,.09-.47,.14-.72,.14h-3.28c-.55,0-1.07-.22-1.46-.6-.39-.38-.61-.91-.61-1.45v-15.72c0-.53,.21-1.03,.59-1.4,.38-.37,.89-.58,1.42-.58h3.15c.55,0,1.08,.22,1.47,.61,.39,.39,.61,.91,.61,1.46h0Z" />
            <path class="cls-3"
                d="M119.07,58.52c-.01-.85-.28-1.67-.77-2.37-.49-.69-1.18-1.23-1.98-1.53-.4-.15-.81-.23-1.24-.25-.42-.03-.85,0-1.28,0h-6.41c-.42,.03-.84,.12-1.23,.27-.8,.31-1.48,.84-1.97,1.54-.49,.7-.76,1.52-.77,2.37,0-.42,.06-.84,.17-1.25,.13-.41,.31-.8,.55-1.15,.49-.71,1.18-1.26,1.99-1.58,.4-.16,.83-.25,1.26-.28,.22-.02,.43-.02,.64-.02h3.2s2.56,0,2.56,0c.43,0,.85,0,1.28,.02,.43,.03,.86,.12,1.26,.28,.81,.31,1.51,.86,2,1.57,.24,.36,.42,.74,.55,1.15,.11,.41,.17,.82,.17,1.24Z" />
            <path class="cls-3"
                d="M114.86,76.02c0,.4-.11,.79-.34,1.12-.23,.33-.57,.58-.96,.71-.19,.06-.39,.1-.6,.1h-2.97c-.4,.03-.81-.04-1.18-.2-.37-.17-.68-.44-.89-.78-.21-.34-.32-.73-.31-1.13,.01,.39,.13,.77,.35,1.09,.22,.32,.53,.58,.89,.73,.18,.08,.36,.13,.55,.15,.19,.02,.39,.02,.59,.02h2.37c.39,.03,.78,0,1.16-.08,.37-.12,.7-.35,.94-.66,.24-.31,.37-.68,.38-1.07Z" />
            <path class="cls-3"
                d="M134.78,58.26v-4.27h-14.07v28.03h4.84v-9.92h5.83v-4.24h-5.83v-9.6h9.23Z" />
            <path class="cls-3" d="M134.47,54.32l.31-.34h-14.07l.31,.34,5.37,1.29,8.08-1.29Z" />
            <path class="cls-3" d="M134.78,58.26l-.31-.33-9.26-.02-.95,6.41,1.28,3.53v-9.6h9.23Z" />
            <path class="cls-3" d="M120.71,53.99l4.22,14.2h6.1l.35-.33h-5.83v-9.6l-4.84-4.27Z" />
            <path class="cls-3"
                d="M134.47,57.93v-3.6h-13.45v27.39h4.21v-9.61c0-.09,.04-.17,.1-.24,.06-.06,.15-.1,.24-.1h5.46v-3.57h-5.46c-.09,0-.18-.04-.24-.1-.06-.06-.1-.15-.1-.24v-9.54c0-.1,.04-.2,.11-.27,.07-.07,.17-.11,.28-.11h8.85Z" />
            <path class="cls-3"
                d="M131.03,68.19h-5.46s-.09-.01-.14-.03c-.03-.01-.06-.03-.08-.05h5.76l-.08,.08Z" />
            <path class="cls-3" d="M134.47,54.32h-13.45l-.06-.06h13.57l-.06,.06Z" />
            <path class="cls-3"
                d="M150.97,58.26l1.15-4.27h-16.11v28.03h4.84v-9.92h6.71l1.08-4.24h-7.78v-9.6h10.12Z" />
            <path class="cls-3" d="M151.61,54.32l.51-.34h-16.11l.34,.34,5.34,1.29,9.92-1.29Z" />
            <path class="cls-3" d="M150.97,58.26l-.31-.33-10.19-.06-.9,6.46,1.28,3.53v-9.6h10.12Z" />
            <path class="cls-3" d="M136.01,53.99l4.22,14.2h7.87l.53-.33h-7.78v-9.6l-4.84-4.27Z" />
            <path class="cls-3"
                d="M150.66,57.93l.95-3.6h-15.26v27.39h4.21v-9.61s0-.09,.03-.13c.02-.04,.04-.08,.07-.11,.03-.03,.07-.06,.11-.07,.04-.02,.09-.03,.13-.02h6.36l.85-3.57h-7.21s-.09,0-.13-.02c-.04-.02-.08-.04-.11-.07-.03-.03-.06-.07-.07-.11-.02-.04-.03-.08-.03-.13v-9.54c0-.1,.04-.2,.12-.27,.07-.07,.17-.11,.28-.11h9.71Z" />
            <path class="cls-3"
                d="M148.11,68.19h-7.2s-.06,0-.1-.02c-.04,0-.07-.02-.1-.05h7.5l-.1,.06Z" />
            <path class="cls-3" d="M151.61,54.32h-15.26l-.07-.06h15.42l-.1,.06Z" />
            <path class="cls-3"
                d="M162.09,60.75h-4.5v-2.44c.02-1.17,.51-2.29,1.34-3.11,.84-.83,1.96-1.3,3.14-1.32h5.83c2.35,0,4.42,1.99,4.42,4.32v5.97c0,.66-.14,1.31-.4,1.91-.26,.6-.65,1.14-1.13,1.6l-7.57,7.1c-.23,.21-.41,.47-.53,.75-.12,.28-.19,.59-.19,.9v1.36h9.84v4.22h-14.73v-6.88c0-.61,.13-1.21,.37-1.77,.24-.56,.6-1.06,1.05-1.48l7.65-7.11c.36-.34,.66-.75,.85-1.2,.2-.45,.3-.95,.3-1.44v-2.23c0-.48-.19-.93-.53-1.27-.34-.34-.8-.53-1.28-.53h-2.14c-.46,0-.91,.18-1.24,.5-.33,.32-.52,.76-.53,1.22l-.04,.92Z" />
            <path class="cls-3"
                d="M163.22,74.78c-.23,.21-.41,.47-.53,.75-.12,.28-.19,.59-.19,.9v1.36h9.84l-.34,.36-13.31,2.76,.97-5.78c0-1.24,3.56-.36,3.56-.36Z" />
            <path class="cls-3"
                d="M169.33,59.33s.33,6.87-.64,7.78l-11.1,10.52v-2.5c0-.61,.13-1.21,.37-1.77,.25-.56,.6-1.06,1.05-1.48l7.65-7.11c.36-.34,.66-.75,.85-1.2,.2-.45,.3-.95,.3-1.44v-2.23c0-1,.64-2.23-.36-2.23,0,0,1.87-.67,1.87,1.66Z" />
            <path class="cls-3"
                d="M161.68,60.43h-3.68v-1.75c0-.58,.1-1.16,.32-1.7,.22-.54,.54-1.03,.95-1.45,.41-.42,.9-.75,1.44-.98,.54-.23,1.12-.35,1.71-.35l5.05-.02c2.64,0,4.46,2,4.46,4.47v5.56c.01,.55-.09,1.09-.3,1.59-.21,.51-.52,.96-.92,1.34l-7.49,6.94c-.9,.85-1.19,1.58-1.19,2.54v1.52h9.96l-.04,3.47-13.97-.02v-6.08c-.01-.67,.11-1.33,.37-1.94,.26-.61,.65-1.17,1.14-1.62l7.57-6.98c.34-.3,.62-.67,.81-1.08,.19-.41,.3-.86,.32-1.31v-2.8c-.02-.55-.25-1.08-.65-1.47-.4-.39-.94-.6-1.5-.6h-2.31c-.53,0-1.03,.2-1.41,.56-.38,.36-.61,.85-.63,1.37v.8Z" />
            <path class="cls-3" d="M171.98,78.15h-9.96v-.06h10.03l-.06,.06Z" />
            <path class="cls-3"
                d="M157.99,58.69c0-.8,.19-1.58,.58-2.28,.4-.7,.98-1.28,1.68-1.68,.71-.39,1.51-.58,2.32-.57l2.39-.02h2.39c.81-.01,1.61,.18,2.33,.56,.71,.39,1.29,.97,1.68,1.68,.38,.7,.57,1.49,.56,2.29,0-.79-.22-1.56-.61-2.25-.39-.69-.97-1.25-1.66-1.63-.71-.36-1.49-.54-2.29-.52l-2.39,.02h-2.39c-.79-.02-1.57,.16-2.27,.54-.69,.39-1.27,.96-1.67,1.64-.4,.68-.62,1.45-.63,2.24Z" />
            <path class="cls-3"
                d="M157.97,75.52c-.01-.71,.12-1.42,.41-2.07,.3-.65,.73-1.23,1.28-1.7l3.12-2.9,3.14-2.87,.79-.72c.27-.23,.53-.48,.76-.75,.46-.54,.73-1.23,.76-1.94,0,.72-.26,1.42-.71,1.98-.23,.28-.48,.53-.76,.77l-.77,.74-3.12,2.9-3.14,2.86c-.54,.45-.98,1.02-1.29,1.65-.3,.64-.46,1.35-.46,2.06Z" />
        </g>
    </g>
</svg>
