<?xml version="1.0" encoding="UTF-8"?>
<svg id="_Слой_1" data-name="Слой 1" xmlns="http://www.w3.org/2000/svg" viewBox="0 0 196 136">
    <defs>
        <style>
            .cls-1 {
            fill: none;
            }

            .cls-2 {
            fill: #d4d4d4;
            }
        </style>
    </defs>
    <path class="cls-1"
        d="M142.06,85.7c1.81-3.48,2.86-4.9,2.86-4.9,2.46-3.39,6.06-3.15,6.06-3.15v-1.48h-16.83v1.51c2.86,.13,4.87,1.4,5.13,3.2,.23,1.57-.4,3.29-.57,3.71,.52,.15,1.03,.3,1.54,.47,.6,.2,1.2,.41,1.81,.64Z" />
    <path class="cls-1"
        d="M111.31,84.54l.88,1.66c.98-.43,1.98-.8,2.99-1.14,2.8-.92,5.81-1.51,8.87-1.77,0-.01,0-.03-.01-.04-.41-1.61-.17-2.74-.17-2.74,.56-2.81,4.37-2.81,4.37-2.81v-1.49h-21.45c.38,.4,.62,.97,.62,1.76v1.1c1.68,1.25,2.75,3.22,3.91,5.47Z" />
    <path class="cls-1"
        d="M132.14,99.7s-1.23-2.36-2.72-5.31c-4.33-.14-8.81,.27-12.26,1.2l.06,.11,9.5,18.15h2.36s3.81-8.12,8.36-18.02c.06-.15,.12-.28,.18-.42-1.04-.25-2.16-.46-3.33-.62l-2.14,4.91Z" />
    <path class="cls-1"
        d="M55.2,75.36h-7.98c-1.8,0-3.3,.6-3.3,2.62v3.79h6.63v-1.21h1.31v2.22h-4.64c-1.76,0-3.3,.59-3.3,2.58v7.45c0,2,1.52,2.58,3.3,2.58h11.27v-17.4c0-2.01-1.5-2.62-3.3-2.62Zm-3.33,14.86h-1.31v-2.26h1.31v2.26Z" />
    <path class="cls-1"
        d="M58.83,49.32V25.84h-11.15c-2.12,0-3.18,.83-3.18,2.5v14.82c-.05,1.64,1.01,2.46,3.18,2.46h4.76v1.25h-7.94v4.91h11.15c2.12,0,3.18-.82,3.18-2.46Zm-6.39-8.62h-1.55v-9.91h1.55v9.91Z" />
    <path class="cls-1"
        d="M95.57,72.73h7.98c1.77,0,3.3-.58,3.3-2.58v-3.83h-6.63v1.25h-1.31v-2.26h7.94v-9.99c0-2.01-1.5-2.62-3.3-2.62h-7.98c-1.8,0-3.3,.6-3.3,2.62v14.82c0,2,1.52,2.58,3.3,2.58Zm3.33-14.82h1.31v2.22h-1.31v-2.22Z" />
    <path class="cls-1"
        d="M114.86,64.07h7.43v-5.19h-7.43v-.97h7.43v-5.19h-10.76c-1.79,0-3.3,.62-3.3,2.62v17.4h6.63v-8.66Z" />
    <path class="cls-1"
        d="M66.99,50.51h-6.63v3.46h-1.59v5.15h1.59v11.04c0,2,1.52,2.58,3.3,2.58h7.98c1.79,0,3.3-.56,3.3-2.58v-10.03h-6.59v7.45h-1.35v-8.46h7.94v-5.15h-7.94v-3.46Z" />
    <path class="cls-1"
        d="M125.07,70.15c0,2,1.52,2.58,3.3,2.58h7.98c1.79,0,3.3-.56,3.3-2.58v-10.03h-6.59v7.45h-1.35v-8.46h7.94v-5.15h-7.94v-1.67h-6.63v1.67h-1.59v5.15h1.59v11.04Z" />
    <path class="cls-1"
        d="M83.51,74.74h-6.63v1.87h-1.59v5.15h1.59v11.04c0,2,1.52,2.58,3.3,2.58h7.98c1.79,0,3.3-.56,3.3-2.58v-10.03h-6.59v7.45h-1.35v-8.46h7.94v-5.15h-7.94v-1.87Z" />
    <path class="cls-1"
        d="M111.5,45.62h11.15V20.89h-6.39v4.95h-4.76c-2.14,0-3.2,.83-3.18,2.5v14.82c-.05,1.64,1.01,2.46,3.18,2.46Zm3.21-14.82h1.55v9.91h-1.55v-9.91Z" />
    <path class="cls-1"
        d="M67.82,90.22h-1.31v-14.86h-6.63v17.44c0,2,1.52,2.58,3.3,2.58h7.98c1.77,0,3.3-.58,3.3-2.58v-17.44h-6.63v14.86Z" />
    <path class="cls-1"
        d="M98.76,30.8h1.55v14.82h6.39V28.34c0-.73-.36-1.34-1.08-1.83-.67-.44-1.37-.66-2.09-.66-2.12,0-3.7,.42-4.76,1.25v-1.25h-6.39v19.78h6.39v-14.82Z" />
    <path class="cls-1"
        d="M79.59,45.62h11.15V28.34c0-1.66-1.06-2.5-3.18-2.5h-7.98c-2.12,0-3.18,.83-3.18,2.5v3.67h6.39v-1.21h1.55v2.46h-4.76c-2.12,.03-3.18,.84-3.18,2.46v7.45c0,1.64,1.06,2.46,3.18,2.46Zm3.21-7.41h1.55v2.5h-1.55v-2.5Z" />
    <path class="cls-1"
        d="M66.85,38.21h1.55v11.12c0,.68,.37,1.27,1.12,1.79,.67,.44,1.37,.66,2.09,.66h4.7v20.95h6.63v-14.82h1.31v14.82h6.63v-17.4c0-2.01-1.5-2.62-3.3-2.62h-4.64v-4.95h-.18v-.9h-7.98v-9.09c0-.99-.53-1.68-1.59-2.07,1.06-.39,1.59-1.08,1.59-2.07v-5.3c0-1.66-1.06-2.5-3.18-2.5h-11.15v21.95h6.39v-9.58Zm0-7.41h1.55v2.46h-1.55v-2.46Z" />
    <path class="cls-1"
        d="M104.23,94.98l-.03-.1c-.09-.35-.02-.84,.06-1.18,.24-.99,.85-1.92,1.49-2.69,.53-.62,1.07-1.19,1.65-1.73v-7.66c-.11-.14-.23-.27-.35-.39-.34-.33-.67-.69-1.04-1-.68-.56-1.72-.66-2.56-.73l-1.6-.14-.11-4h-5.62c-1.8,0-3.3,.6-3.3,2.62v14.82c0,2,1.52,2.58,3.3,2.58h7.98c.12,0,.24-.01,.36-.02-.06-.1-.12-.2-.18-.29l-.06-.09Zm-3.45-4.76h-1.31v-9.67h1.31v9.67Z" />
    <path class="cls-1"
        d="M106.79,76.22h-3.21l.04,1.49c1.58,.14,2.8,.62,3.79,1.36v-1.1c0-.79-.23-1.35-.62-1.76Z" />
    <path class="cls-1" d="M118,67.08v5.48h4.9c-.31-.71-.45-1.48-.45-2.28v-3.2h-4.45Z" />
    <rect class="cls-2" x="98.9" y="57.91" width="1.31" height="2.22" />
    <rect class="cls-2" x="82.8" y="38.21" width="1.55" height="2.5" />
    <rect class="cls-2" x="50.55" y="87.96" width="1.31" height="2.26" />
    <rect class="cls-2" x="66.85" y="30.8" width="1.55" height="2.46" />
    <rect class="cls-2" x="50.89" y="30.8" width="1.55" height="9.91" />
    <path class="cls-2"
        d="M149.86,81.76c.17-.05,.63-.18,.81-.17l4.04,.27v-9.34h-12.34c.29-.7,.41-1.46,.41-2.23v-19.07h-7.94v-1.67h-12.39v.42h-10.67c-1.4,0-2.83,.28-3.99,1.09-1.16-.79-2.6-1.09-3.99-1.09h-7.98c-1.39,0-2.83,.3-3.99,1.09-1.16-.79-2.6-1.09-3.99-1.09h-1.74v-1.04h39.89V18.2h-12.39v4.95h-1.76c-1.46,0-2.98,.33-4.16,1.21-.02-.01-.03-.02-.05-.03-1.12-.75-2.4-1.17-3.76-1.17-.59,0-1.18,.03-1.76,.09v-.09h-12.39v.18c-.59-.13-1.2-.18-1.8-.18h-7.98c-1.39,0-2.83,.3-3.99,1.09-1.16-.79-2.6-1.09-3.99-1.09h-23.93c-3.42,0-6.18,1.84-6.18,5.5v26.44h14.15c.05,0,.1,0,.16,0v7.04h1.59v8.16c0,.81,.15,1.6,.47,2.32h-10.75c-3.42,0-6.18,1.84-6.18,5.5v14.82c0,1.21,.33,2.37,1.07,3.33,1.24,1.6,3.16,2.13,5.1,2.13h23.93c1.65,0,3.29-.38,4.51-1.49,1.22,1.11,2.87,1.49,4.51,1.49h7.98c1.38,0,2.83-.29,3.99-1.07,1.16,.8,2.59,1.07,3.99,1.07h7.18c.19,.68,.22,1.36,.27,2.07,.01,.21-.13,.78-.18,1.01-.18,.94-.28,1.85-.16,2.8,.41,3.31,2.87,4.44,5.92,3.65,2.19-.57,3.52-1.82,4.61-3.76,.05-.09,.09-.17,.14-.26,.21,.14,.41,.3,.61,.46,.89,.73,2.08,1.32,3.26,1.36l6.32,12.08h7l1.05-2.1c.88-1.77,1.74-3.55,2.59-5.33,.73-1.54,1.46-3.09,2.18-4.65,1.21-.02,2.43-.62,3.34-1.37,.2-.16,.4-.31,.61-.46,.04,.09,.09,.18,.14,.26,1.09,1.94,2.42,3.19,4.61,3.76,3.05,.79,5.51-.34,5.92-3.65,.12-.96,.02-1.86-.16-2.8-.04-.23-.19-.79-.18-1.01,.04-.56,.04-1.13,.17-1.68,.2-.88,.64-1.71,1.14-2.46l.25-.37,.11-.44c.29-1.17-.03-2.41-.55-3.48-.37-.77-.87-1.51-1.42-2.17-.28-.33-.56-.66-.85-.99-1.14-1.28-2.37-2.28-3.82-3.12,.47-.89,.93-1.8,1.51-2.62,.47-.67,1.12-1.12,1.9-1.37ZM108.32,28.34c-.03-1.66,1.03-2.5,3.18-2.5h4.76v-4.95h6.39v24.73h-11.15c-2.17,0-3.23-.82-3.18-2.46v-14.82Zm-15.95-2.5h6.39v1.25c1.06-.83,2.65-1.25,4.76-1.25,.72,0,1.42,.22,2.09,.66,.72,.49,1.08,1.1,1.08,1.83v17.28h-6.39v-14.82h-1.55v14.82h-6.39V25.84Zm-15.95,9.87c0-1.61,1.06-2.43,3.18-2.46h4.76v-2.46h-1.55v1.21h-6.39v-3.67c0-1.66,1.06-2.5,3.18-2.5h7.98c2.12,0,3.18,.83,3.18,2.5v17.28h-11.15c-2.12,0-3.18-.82-3.18-2.46v-7.45Zm-15.95-9.87h11.15c2.12,0,3.18,.83,3.18,2.5v5.3c0,.99-.53,1.68-1.59,2.07,1.06,.39,1.59,1.08,1.59,2.07v9.09h7.98v.9h.18v4.95h4.64c1.8,0,3.3,.6,3.3,2.62v17.4h-6.63v-14.82h-1.31v14.82h-6.63v-20.95h-4.7c-.72,0-1.42-.22-2.09-.66-.75-.52-1.12-1.12-1.12-1.79v-11.12h-1.55v9.58h-6.39V25.84Zm-4.8,25.94h-11.15v-4.91h7.94v-1.25h-4.76c-2.17,0-3.23-.82-3.18-2.46v-14.82c0-1.66,1.06-2.5,3.18-2.5h11.15v23.48c0,1.64-1.06,2.46-3.18,2.46Zm2.84,43.59h-11.27c-1.77,0-3.3-.58-3.3-2.58v-7.45c0-1.98,1.53-2.58,3.3-2.58h4.64v-2.22h-1.31v1.21h-6.63v-3.79c0-2.01,1.5-2.62,3.3-2.62h7.98c1.8,0,3.3,.6,3.3,2.62v17.4Zm15.95-2.58c0,2-1.52,2.58-3.3,2.58h-7.98c-1.77,0-3.3-.58-3.3-2.58v-17.44h6.63v14.86h1.31v-14.86h6.63v17.44Zm.48-33.68h-7.94v8.46h1.35v-7.45h6.59v10.03c0,2.02-1.51,2.58-3.3,2.58h-7.98c-1.77,0-3.3-.58-3.3-2.58v-11.04h-1.59v-5.15h1.59v-3.46h6.63v3.46h7.94v5.15Zm16.52,22.64h-7.94v8.46h1.35v-7.45h6.59v10.03c0,2.02-1.51,2.58-3.3,2.58h-7.98c-1.77,0-3.3-.58-3.3-2.58v-11.04h-1.59v-5.15h1.59v-1.87h6.63v1.87h7.94v5.15Zm32.03-27.8h1.59v-1.67h6.63v1.67h7.94v5.15h-7.94v8.46h1.35v-7.45h6.59v10.03c0,2.02-1.51,2.58-3.3,2.58h-7.98c-1.77,0-3.3-.58-3.3-2.58v-11.04h-1.59v-5.15Zm-.58,18.6h-4.9v-5.48h4.45v3.2c0,.79,.14,1.56,.45,2.28Zm-14.68-17.23c0-2,1.51-2.62,3.3-2.62h10.76v5.19h-7.43v.97h7.43v5.19h-7.43v8.66h-6.63v-17.4Zm-15.95,14.82v-14.82c0-2.01,1.5-2.62,3.3-2.62h7.98c1.8,0,3.3,.6,3.3,2.62v9.99h-7.94v2.26h1.31v-1.25h6.63v3.83c0,2-1.52,2.58-3.3,2.58h-7.98c-1.77,0-3.3-.58-3.3-2.58Zm54.12,11.69c-.72,1.02-1.29,2.17-1.87,3.27-.24,.44-.46,.89-.69,1.33,.75,.34,1.48,.71,2.16,1.13,1.14,.72,2.02,1.51,2.91,2.52,.27,.3,.52,.61,.78,.92,.65,.77,1.26,1.7,1.49,2.69,.08,.34,.15,.83,.06,1.18l-.03,.1-.06,.09c-.64,.96-1.17,2-1.42,3.13-.08,.36-.13,.72-.16,1.09-.02,.3-.03,.59-.05,.89-.03,.47,.12,1.07,.21,1.53,.14,.73,.24,1.43,.14,2.18-.26,2.08-1.55,2.45-3.44,1.96-.9-.23-1.68-.66-2.33-1.33-.44-.45-.73-.93-1.03-1.47-.23-.41-.31-.94-.13-1.39,.08-.21,.2-.54,.24-.8-1.42,.12-2.79,.94-3.86,1.81-.56,.46-1.28,.91-2.03,.91-.32,0-.69-.09-.93-.31l-.19-.17c-.96,2.1-1.93,4.2-2.93,6.28-.84,1.77-1.69,3.54-2.57,5.3l-.5,.99h-4.56l-6.51-12.44-.04,.04c-.24,.22-.61,.31-.93,.31-.75,0-1.47-.45-2.03-.91-1.07-.87-2.44-1.68-3.86-1.81,.04,.25,.15,.58,.24,.8,.17,.45,.1,.98-.13,1.39-.3,.54-.6,1.02-1.03,1.47-.65,.67-1.43,1.1-2.33,1.33-1.88,.49-3.18,.12-3.44-1.96-.09-.74,0-1.45,.14-2.18,.09-.46,.24-1.06,.21-1.53-.02-.3-.03-.59-.05-.89-.03-.37-.08-.73-.16-1.09-.23-1.01-.69-1.96-1.24-2.84-.12,0-.24,.02-.36,.02h-7.98c-1.77,0-3.3-.58-3.3-2.58v-14.82c0-2.01,1.5-2.62,3.3-2.62h5.62l-.02-.94h28.31v5.09h-1.8c-.45,0-1.01,.12-1.43,.27-.54,.19-1.06,.49-1.18,1.09-.11,.55,.01,1.4,.15,1.94,.03,.11,.08,.24,.13,.36,3.72-.16,7.48,.17,11.03,.98l.07-.17c.33-.77,.6-2,.48-2.83-.18-1.22-2.46-1.62-3.44-1.67l-1.72-.08v-5.03h20.43v5.21l-1.91-.13c-.46-.03-1.1,.12-1.55,.26-1.19,.38-2.21,1.1-2.93,2.13Z" />
    <path class="cls-2"
        d="M108.22,82.79c-.24-.37-.52-.8-.82-1.17v7.66c.16-.15,.31-.31,.48-.46,.83-.71,1.74-1.31,2.69-1.83l-.85-1.62c-.46-.88-.96-1.75-1.5-2.58Z" />
    <path class="cls-2"
        d="M136.9,102.23c.43,.09,.72-.05,.97-.39,.14-.2,.28-.49,.34-.73v-.06s.04-.05,.04-.05c.57-1.27,1.45-2.73,2.73-3.38-.21-.06-.43-.1-.65-.11-.36-.03-.81,0-1.17,.07l-.6,.14c-.65,1.48-1.31,2.97-1.98,4.44l.31,.07Z" />
    <path class="cls-2" d="M132,95.5l.4-.93c-.3-.03-.61-.05-.91-.07,.17,.33,.34,.67,.51,1Z" />
    <path class="cls-2"
        d="M115.11,97.5c-.22,.02-.44,.05-.65,.11,1.28,.66,2.16,2.12,2.73,3.38l.02,.05v.06c.07,.24,.21,.53,.35,.73,.25,.34,.55,.49,.97,.39h.05s-2.44-4.67-2.44-4.67c-.33-.06-.73-.08-1.05-.06Z" />
    <rect class="cls-2" x="99.46" y="80.55" width="1.31" height="9.67" />
    <rect class="cls-2" x="114.71" y="30.8" width="1.55" height="9.91" />
    <path class="cls-2"
        d="M103.46,79.5c.84,.07,1.88,.18,2.56,.73,.37,.3,.69,.67,1.04,1,.12,.12,.24,.25,.35,.39v-2.55c-1-.74-2.21-1.22-3.79-1.36l-.04-1.49h3.21c-.6-.63-1.58-.86-2.68-.86h-2.36l.11,4,1.6,.14Z" />
    <path class="cls-2"
        d="M150.87,79.45l1.91,.13v-5.21h-20.43v5.03l1.72,.08c.97,.04,3.26,.45,3.44,1.67,.12,.83-.14,2.07-.48,2.83l-.07,.17c.6,.14,1.19,.28,1.77,.44,.17-.42,.8-2.15,.57-3.71-.26-1.8-2.28-3.07-5.13-3.2v-1.51h16.83v1.48s-3.6-.24-6.06,3.15c0,0-1.05,1.42-2.86,4.9,.6,.23,1.19,.47,1.77,.74,.23-.44,.45-.89,.69-1.33,.59-1.1,1.15-2.25,1.87-3.27,.72-1.03,1.73-1.74,2.93-2.13,.44-.14,1.08-.29,1.55-.26Z" />
    <path class="cls-2"
        d="M111.31,84.54c-1.16-2.24-2.23-4.22-3.91-5.47v2.55c.3,.37,.58,.8,.82,1.17,.54,.84,1.03,1.7,1.5,2.58l.85,1.62c.53-.29,1.07-.55,1.62-.8l-.88-1.66Z" />
    <path class="cls-2"
        d="M132,95.5c-.17-.33-.34-.67-.51-1-.69-.05-1.38-.09-2.08-.11,1.5,2.94,2.72,5.31,2.72,5.31l2.14-4.91c-.61-.08-1.23-.16-1.87-.22l-.4,.93Z" />
    <path class="cls-2"
        d="M106.79,76.22h21.45v1.49s-3.81,0-4.37,2.81c0,0-.24,1.12,.17,2.74,0,0,0,.03,.01,.04,.62-.05,1.24-.1,1.87-.12-.05-.12-.1-.25-.13-.36-.14-.54-.26-1.39-.15-1.94,.12-.6,.64-.9,1.18-1.09,.42-.15,.98-.27,1.43-.27h1.8v-5.09h-28.31l.02,.94h2.36c1.1,0,2.08,.23,2.68,.86Z" />
    <path class="cls-2"
        d="M136.36,102.11l.22,.05c.67-1.48,1.33-2.96,1.98-4.44l-.38,.09,.95-1.98c-.48-.15-.99-.29-1.52-.42-.06,.14-.12,.28-.18,.42-4.55,9.9-8.36,18.02-8.36,18.02h-2.36l-9.5-18.15-.06-.11c-.29,.08-.59,.16-.86,.24-.15,.05-.32,.1-.39,.13,.01,.16,.1,.38,.2,.62l.2,.05,.07,.25-.19-.08c.12,.3,.25,.6,.26,.81l-.18-.04s-.08,0-.12-.02l2.44,4.66,.6-.13,.35,.74-.42,.39,6.51,12.44h4.56l.5-.99c.88-1.76,1.73-3.53,2.57-5.3,.99-2.09,1.97-4.18,2.93-6.28l-.08-.08,.27-.89Z" />
    <path class="cls-2"
        d="M139.55,87.5v2.51c.19-.11,.38-.21,.56-.32,.2-.44,.4-.86,.59-1.26-.21-.26-.43-.52-.64-.77-.17-.05-.35-.11-.52-.16Z" />
    <path class="cls-2"
        d="M129.42,94.39c-.17-.33-.33-.66-.51-1-4.22-.1-8.49,.35-12.2,1.36l.44,.84c3.45-.93,7.93-1.34,12.26-1.2Z" />
    <path class="cls-2"
        d="M134.67,93.9l-.39,.89c1.17,.16,2.29,.37,3.33,.62,.12-.29,.24-.58,.36-.86-1.06-.26-2.17-.48-3.3-.65Z" />
    <path class="cls-2"
        d="M138.9,86.75c.76,.22,1.51,.47,2.26,.73,.14-.29,.27-.55,.41-.81-1.07-.42-2.16-.79-3.28-1.08l-.39,.9c.34,.09,.67,.16,1.01,.26Z" />
    <path class="cls-2"
        d="M112.19,86.2l.39,.74c2.52-1.09,6.37-2.23,11.89-2.6-.21-.48-.36-.84-.41-1.04-3.06,.26-6.07,.85-8.87,1.77-1.01,.33-2.01,.7-2.99,1.14Z" />
    <path class="cls-2"
        d="M136.12,92.1c.21-.18,.32-.49,.32-.95v-1.32l-1.08,2.47c.33,0,.59-.05,.76-.2Z" />
    <path class="cls-2"
        d="M120.91,85.68c1.33-.18,2.66-.31,3.99-.41-.13-.27-.24-.52-.34-.75-5.52,.37-9.37,1.5-11.88,2.59l.37,.69c1.2-.43,2.39-.85,3.6-1.18,1.42-.39,2.85-.68,4.27-.94Z" />
    <path class="cls-2" d="M113.36,88.33s-.03,0-.04,0l.6,1.14v-.3c0-.39-.18-.68-.56-.83Z" />
    <path class="cls-2" d="M139.55,90.92c.06-.13,.12-.27,.18-.41-.06-.07-.12-.15-.18-.22v.63Z" />
    <path class="cls-2"
        d="M128.82,93.22c-1.12-2.21-2.32-4.59-3.23-6.5,0,.05-.02,.1-.02,.16v3.4c0,.19,.05,.37,.13,.53,.11,.18,.26,.34,.45,.48,.15,.12,.32,.2,.5,.27,.16,.06,.32,.09,.47,.08v.28c-2.07,.07-4.14,.24-6.21,.51v-.28c.33-.05,.66-.22,.99-.53,.38-.34,.57-.71,.57-1.1v-3.39c0-.4-.18-.72-.56-.96-.33-.21-.66-.28-1-.23v2.82c-.6-.46-1.21-.91-1.81-1.35-.43-.18-.86-.37-1.3-.55-.09,.02-.17,.04-.26,.06v2.53c.52-.6,1.04-1.18,1.56-1.77v3.1c-.52-.35-1.04-.71-1.56-1.04v1.69c0,.46,.25,.76,.76,.91,.4,.12,.84,.13,1.31,.04v.28c-1.17,.26-2.34,.57-3.51,.92l.52,.98c3.63-.99,7.95-1.45,12.2-1.35Z" />
    <path class="cls-2"
        d="M134.74,93.72c1.14,.17,2.25,.38,3.3,.64,.15-.35,.29-.69,.44-1.02-1.08-.29-2.17-.53-3.25-.74l-.49,1.12Z" />
    <path class="cls-2"
        d="M138.37,85.41c1.13,.29,2.23,.64,3.3,1.07,.14-.27,.27-.52,.4-.77-.61-.23-1.21-.44-1.81-.64-.51-.17-1.02-.32-1.54-.47-.03,.06-.04,.1-.04,.1l-.31,.71Z" />
    <path class="cls-2" d="M107.4,92.58v-.61c-.47,.55-1.83,2.18-1.93,3.15,0,0,.53-1.53,1.93-2.53Z" />
    <path class="cls-2"
        d="M104.84,94.83l.03-.14s-.04-2.18,2.39-4.16c0,0-1.79,1.91-2.25,3.78,0,0,.63-2.06,2.28-3.32,0,0-2.06,2.37-2.18,3.59,0,0,.74-1.96,2.3-3.17v-2.13c-.58,.54-1.12,1.11-1.65,1.73-.65,.77-1.26,1.7-1.49,2.69-.08,.34-.15,.83-.06,1.18l.03,.1,.06,.09c.06,.09,.12,.19,.18,.29,.23-.01,.45-.03,.67-.07-.11-.17-.25-.4-.28-.46Z" />
    <path class="cls-2" d="M107.07,94.14c-.09,.12-.19,.25-.29,.39,.11-.11,.21-.25,.29-.39Z" />
    <path class="cls-2"
        d="M105.79,95.13c.22-.49,.7-1.3,1.58-2.01,.01-.11,.03-.21,.03-.32v-.2c-.18,.21-1.34,1.61-1.69,2.55,.03,0,.05-.01,.08-.02Z" />
    <path class="cls-2"
        d="M106.22,94.94c.24-.35,.57-.74,.99-1.1,.07-.19,.12-.4,.15-.64-.32,.38-.96,1.18-1.34,1.84,.07-.03,.13-.06,.19-.1Z" />
    <path class="cls-2" d="M107.4,91.92v-.4c-.69,.74-2.13,2.4-2.17,3.49,0,0,.61-1.82,2.17-3.09Z" />
    <path class="cls-2"
        d="M145.16,88.21c.9,.59,1.25,.88,2.02,1.64-.35-.24-.68-.5-1.02-.74-.9-.64-1.86-1.17-2.84-1.65-.13,.26-.27,.53-.4,.79v2.68c-.09-.03-.17-.07-.26-.1-.21-.26-.41-.51-.62-.77-.32,.66-.63,1.33-.94,2v.14s-.03-.03-.04-.05c-.07,.15-.14,.3-.2,.44,.12-.07,.25-.14,.37-.2,.47-.25,.95-.49,1.43-.72,.09,.03,.17,.07,.26,.1v3.09c-.89-.35-1.77-.67-2.65-.97-.15,.32-.29,.65-.43,.97,2.35,.73,4.37,1.71,5.82,2.93-1.62-1.14-3.64-2.05-5.9-2.75-.22,.5-.45,1-.67,1.51-.17,.39-.35,.77-.52,1.16l.6-.14c.35-.08,.81-.1,1.17-.07,.22,.02,.44,.05,.65,.11-1.28,.66-2.16,2.12-2.73,3.38l-.02,.05v.06c-.07,.24-.21,.53-.35,.73-.25,.34-.55,.49-.97,.39l-.31-.07c-.14,.31-.27,.61-.41,.92l.19,.17c.24,.22,.61,.31,.93,.31,.75,0,1.47-.45,2.03-.91,1.07-.87,2.44-1.68,3.86-1.81-.04,.25-.15,.58-.24,.8-.17,.45-.1,.98,.13,1.39,.3,.54,.6,1.02,1.03,1.47,.65,.67,1.43,1.1,2.33,1.33,1.88,.49,3.18,.12,3.44-1.96,.09-.74,0-1.45-.14-2.18-.09-.46-.24-1.06-.21-1.53,.02-.3,.03-.59,.05-.89,.03-.37,.08-.73,.16-1.09,.25-1.13,.79-2.17,1.42-3.13l.06-.09,.03-.1c.09-.35,.02-.84-.06-1.18-.24-.99-.85-1.92-1.49-2.69-.26-.31-.52-.62-.78-.92-.88-1.01-1.76-1.8-2.91-2.52-.68-.42-1.41-.79-2.16-1.13-.14,.27-.28,.54-.42,.81,.59,.29,1.18,.61,1.74,.96Zm-5.28,11.16c.22-.17,.4-.11,.4-.11-.14,0-.63,.43-.63,.43l.23-.32Zm-.49,.73c.28-.2,.94-.38,.94-.38-.74,.35-1.12,.69-1.12,.69l.18-.31Zm-.42,.77c.98-.7,1.6-.79,1.6-.79-.77,.4-1.79,1.22-1.79,1.22l.19-.44Zm-.67,1.4l.26-.41c1.27-1.32,2.27-1.44,2.27-1.44-.87,.42-2.54,1.85-2.54,1.85Zm.76-5.38l.07-.25,1.14-.28-1.21,.53Zm1.02,0l-.49,.02c.2-.13,.92-.27,.92-.27-.41,.15-.43,.25-.43,.25Zm4.59,6.09c1.09,1.36,2.99,1.47,2.99,1.47-1.96,.34-3.25-1.32-3.25-1.32,1,1.61,3.32,1.82,3.32,1.82-.75,.16-1.83-.11-2.51-.58-.69-.47-1.74-1.77-1.56-2.5,.18-.72,.62-.47,1.1,.13s.92,1.15,1.45,1.11c.53-.04,.56-.86,.56-.86,.2,1.04-.54,1.25-.54,1.25,.43,.38,1.65,.32,1.65,.32-1.85,.58-3.2-.84-3.2-.84Zm1.13-.87c.33,.25,.79-.19,.79-.19-.03,.07-.26,.37-.55,.43-.29,.06-.78-.49-.9-.66-.12-.17-.56-.78-.56-.78,.21,.11,.89,.94,1.21,1.2Zm-.84-1.15s.4,.39,.71,.65,.66,.04,.66,.04c0,0-.1,.23-.48,.21-.37-.02-.89-.89-.89-.89Zm.92,1.68c.39,.2,.78-.28,.78-.28-.04,.21-.22,.39-.56,.49-.34,.1-.74-.37-.97-.73-.23-.36-.75-.97-.75-.97,.43,.14,.85,1.07,1.49,1.49Zm3.15,1.31c-.28,1-.83,.91-.83,.91,.67-.38,.7-.99,.7-.99-.39,.5-.84,.5-.84,.5,.86-.63,.79-.99,.79-.99-.28,.34-.67,.34-.67,.34,.84-.57,.66-.87,.66-.87-.3,.42-.67,.4-.67,.4,0,0,.18-.16,.49-.46s.05-.36,.05-.36c-.39,.46-.71,.29-.71,.29,.65-.23,.75-.77,.55-.66-.21,.11-.4,.04-.4,.04,0,0,.38-.19,.26-.38-.12-.19-.28,.03-.33-.07-.05-.1,.06-.08,.12-.14,.06-.07-.12-.35-.31-.52-.19-.17-.6-.49-.93-.55-.33-.06-.22,.23-.22,.23,.33,.02,.82,.12,.82,.12-.14,.1-.67,.11-.67,.11l.22,.3,.68,.05c-.11,.2-.64,.18-.64,.18l.04,.22,.66,.06c-.27,.25-.62,.22-.62,.22v.29c.13,0,.61,.03,.61,.03-.08,.12-.61,.25-.61,.25v.28c.21,.03,.52,.07,.52,.07-.18,.1-.73,.08-.64,.39,.1,.13,.54,.18,.54,.18-.61,.19-1.01,0-1.01,0,.52-.79,.27-1.48,.27-1.48-1.35-2.78-5.33-1.86-5.33-1.86,2.45-1.1,4.7,.57,4.7,.57-1.28-1.8-4.53-1.13-4.53-1.13,2.41-.97,4.36,.41,4.36,.41-1.43-1.65-4.67-.76-4.67-.76,2.72-1.26,4.57,.26,4.57,.26-1.3-1.53-4.29-.86-4.29-.86,2.64-.92,4.31,.4,4.31,.4,0,0-.94-.76-1.81-.96-.87-.2-2.53,.1-2.53,.1,.6-.34,2.41-.32,2.41-.32,0,0-.05-.11-.37-.23-.32-.12-1.78-.07-1.78-.07,.46-.22,1.09-.19,1.09-.19,0,0-.04-.13-.29-.19-.25-.06-1.24,.08-1.24,.08l.64-.29c-.47-.19-2.26-.78-2.24-.75l.67-.39c.97,.18,2.67,1.02,4.43,1.99,1.76,.97,2.79,2.53,3.19,3.05s1.04,2.17,.76,3.18Zm-1.11-9.83c1.13,.84,1.71,2.25,1.71,2.25-.08-.89-1.68-2.77-1.68-2.77,1.24,.88,1.78,2.21,1.78,2.21,.04-.67-1.83-2.85-1.83-2.85,1.53,1.13,1.95,2.62,1.95,2.62-.02-.91-1.83-3.03-1.83-3.03,1.44,1.01,1.98,2.57,1.98,2.57-.12-1.16-2.11-3.34-2.11-3.34,1.7,1.27,2.35,3.24,2.35,3.24-.05-1.43-2.53-3.86-2.53-3.86,1.82,1.16,2.66,3.44,2.66,3.44-.11-1.22-2.18-3.59-2.18-3.59,1.65,1.26,2.28,3.32,2.28,3.32-.47-1.88-2.25-3.78-2.25-3.78,2.43,1.98,2.39,4.16,2.39,4.16l.03,.14c-.06,.09-.4,.66-.4,.66-2.09,3.52-.94,6.95-.94,6.95h-.03s-.08-.3-.08-.3c-.41-2.01-2.37-3.66-2.37-3.66,.91,.35,2.13,2.28,2.13,2.28-.22-.9-1.81-2.55-1.81-2.55,.62,.35,1.68,1.68,1.68,1.68-.16-.5-2.11-2.57-2.11-2.57,1.1,.66,2.24,2.32,2.24,2.32-.28-1.08-2.2-2.88-2.2-2.88,1.08,.52,2.22,2.3,2.22,2.3-.04-.39-1.42-2.13-1.42-2.13,.92,.73,1.46,1.67,1.46,1.67-.01-.59-1.46-2.25-1.46-2.25,.98,.64,1.54,1.76,1.54,1.76-.1-.69-1.79-2.49-1.79-2.49,1.31,.9,1.87,2.08,1.87,2.08-.41-1.31-1.91-2.65-1.91-2.65,1.16,.7,2.05,2.21,2.05,2.21-.31-1.06-2.39-2.96-2.39-2.96,1.44,.8,2.5,2.72,2.5,2.72-.35-1.19-1.99-2.85-1.99-2.85,1.24,.71,2.1,2.5,2.1,2.5-.1-.79-1.57-2.56-1.57-2.56Z" />
    <path class="cls-2"
        d="M126.4,84.23c.78-.03,1.57-.04,2.41-.04h0c2.59,.06,5.21,.3,7.76,.81l.37-.86c-3.55-.81-7.31-1.14-11.03-.98,.07,.16,.14,.32,.2,.46,.09,.2,.19,.4,.28,.61Z" />
    <path class="cls-2"
        d="M131.5,94.5c.31,.02,.61,.04,.91,.07l.4-.92c-.6-.07-1.21-.12-1.83-.16,.17,.34,.34,.67,.51,1.01Z" />
    <path class="cls-2"
        d="M106.22,94.94c-.06,.03-.13,.07-.19,.1-.18,.32-.31,.6-.3,.77,0,0,.16-.38,.49-.87Z" />
    <path class="cls-2"
        d="M127.12,85.13v.02c1.29,0,2.59,.01,3.88,.12,1.3,.11,2.59,.32,3.89,.55v-.02c.2,.04,.41,.09,.61,.13,.14,.03,.29,.05,.43,.07v.02c.06,.01,.13,.03,.19,.04l.38-.87c-2.52-.5-5.12-.74-7.68-.8-.8,0-1.57,0-2.32,.03,.11,.24,.22,.49,.34,.73,.1,0,.19-.01,.29-.02Z" />
    <path class="cls-2"
        d="M135.5,86.27c-.24,.01-.47,.06-.67,.19-.3,.19-.53,.49-.71,.89-.35,.79-.7,1.58-1.04,2.38-.35,.8-.69,1.6-1.04,2.42-.6-.05-1.2-.09-1.81-.13,.22,.43,.44,.86,.66,1.29,.67,.04,1.34,.1,2,.17l3.03-6.95c-.12-.1-.26-.18-.42-.25Z" />
    <path class="cls-2"
        d="M130.43,86.68c0,.07,.02,.16,.06,.25,.26,.59,.52,1.17,.77,1.76,.26,.59,.52,1.18,.78,1.77,.21-.54,.43-1.08,.64-1.62,.21-.54,.43-1.07,.65-1.61,.03-.07,.05-.16,.05-.25,0-.3-.16-.59-.48-.87-.29-.26-.58-.41-.86-.44-.34-.04-.69,.05-1.04,.25-.38,.22-.57,.48-.57,.77Z" />
    <path class="cls-2"
        d="M118.54,102.23c-.43,.09-.72-.05-.97-.39-.14-.2-.28-.49-.34-.73v-.06s-.04-.05-.04-.05c-.57-1.27-1.45-2.73-2.73-3.38,.21-.06,.43-.1,.65-.11,.32-.02,.71,0,1.05,.06l-.34-.65-.45-.02s-.03-.1-.43-.25c0,0,.63,.12,.87,.25l-.17-.33-.46-.2,.41,.1-.17-.32c-.34,.09-1.76,.56-2.17,.73l.64,.29s-.99-.14-1.24-.08c-.25,.06-.29,.19-.29,.19,0,0,.63-.03,1.09,.19,0,0-1.46-.05-1.78,.07-.32,.12-.37,.23-.37,.23,0,0,1.82-.02,2.41,.32,0,0-1.65-.3-2.53-.1-.87,.2-1.81,.96-1.81,.96,0,0,1.67-1.31,4.31-.4,0,0-2.99-.67-4.29,.86,0,0,1.85-1.53,4.57-.26,0,0-3.24-.89-4.67,.76,0,0,1.95-1.38,4.36-.41,0,0-3.25-.67-4.53,1.13,0,0,2.25-1.68,4.7-.57,0,0-3.98-.92-5.33,1.86,0,0-.25,.7,.27,1.48,0,0-.4,.2-1.01,0,0,0,.44-.05,.54-.18,.09-.31-.46-.29-.64-.39,0,0,.31-.05,.52-.07v-.28s-.52-.12-.61-.25c0,0,.48-.04,.62-.03v-.29s-.35,.04-.63-.22l.66-.06,.04-.22s-.52,.02-.64-.18l.68-.05,.22-.3s-.53,0-.67-.11c0,0,.49-.1,.82-.12,0,0,.11-.29-.22-.23s-.74,.38-.93,.55-.37,.45-.31,.52c.06,.07,.17,.05,.12,.14-.05,.1-.21-.12-.33,.07-.12,.19,.26,.38,.26,.38,0,0-.19,.07-.4-.04-.21-.11-.1,.42,.55,.66,0,0-.32,.18-.71-.29,0,0-.26,.06,.05,.36s.49,.46,.49,.46c0,0-.37,.02-.67-.4,0,0-.17,.3,.66,.87,0,0-.39,0-.67-.34,0,0-.07,.36,.79,.99,0,0-.45,0-.84-.5,0,0,.03,.61,.7,.99,0,0-.55,.1-.83-.91s.36-2.66,.76-3.18c.41-.52,1.44-2.08,3.19-3.05s3.46-1.81,4.43-1.99l.55,.32-.4-.75c-1.95,.66-3.7,1.49-5.13,2.5,1.29-1.08,3.02-1.97,5.04-2.67l-.51-.97c-.66,.22-1.33,.46-1.99,.7v-.28c.33-.13,.65-.39,.99-.78,.21-.24,.35-.47,.45-.7l-2.75-5.2c-.6,.33-1.09,.63-1.44,.87-.5,.34-.87,.63-1.41,.99,.77-.67,1.2-1.12,2-1.6,.23-.14,.49-.28,.76-.43l-.38-.72c-.95,.52-1.86,1.12-2.69,1.83-.17,.15-.32,.3-.48,.46v2.13c.12-.09,.23-.19,.36-.27,0,0-.14,.14-.36,.37v.4c.06-.05,.11-.1,.17-.15,0,0-.07,.08-.17,.2v.61s.03-.02,.04-.03c0,0-.03,.03-.04,.05v.2c0,.12-.02,.21-.03,.32,.06-.05,.12-.11,.19-.16,0,0-.08,.1-.2,.23-.03,.23-.08,.45-.15,.64,.1-.08,.19-.16,.3-.24,0,0-.19,.23-.44,.55-.08,.14-.18,.27-.29,.39-.44,.6-.91,1.36-.96,1.83,0,0,.58-1.41,1.71-2.25,0,0-1.47,1.76-1.57,2.56,0,0,.86-1.78,2.1-2.5,0,0-1.64,1.66-1.99,2.85,0,0,1.06-1.91,2.5-2.72,0,0-2.08,1.91-2.39,2.96,0,0,.88-1.52,2.05-2.21,0,0-1.5,1.34-1.91,2.65,0,0,.56-1.18,1.87-2.08,0,0-1.69,1.8-1.79,2.49,0,0,.56-1.12,1.54-1.76,0,0-1.45,1.66-1.46,2.25,0,0,.55-.94,1.46-1.67,0,0-1.38,1.75-1.42,2.13,0,0,1.15-1.78,2.22-2.3,0,0-1.91,1.8-2.2,2.88,0,0,1.14-1.66,2.24-2.32,0,0-1.95,2.06-2.11,2.57,0,0,1.07-1.33,1.68-1.68,0,0-1.58,1.65-1.81,2.55,0,0,1.22-1.93,2.13-2.28,0,0-1.96,1.65-2.37,3.66l-.08,.3h-.03s1.15-3.43-.94-6.95c0,0-.06-.09-.12-.2-.21,.04-.44,.06-.67,.07,.55,.88,1.01,1.82,1.24,2.84,.08,.36,.13,.72,.16,1.09,.02,.3,.03,.59,.05,.89,.03,.47-.12,1.07-.21,1.53-.14,.73-.24,1.43-.14,2.18,.26,2.08,1.55,2.45,3.44,1.96,.9-.23,1.68-.66,2.33-1.33,.44-.45,.73-.93,1.03-1.47,.23-.41,.31-.94,.13-1.39-.08-.21-.2-.54-.24-.8,1.42,.12,2.79,.94,3.86,1.81,.56,.46,1.28,.91,2.03,.91,.32,0,.69-.09,.93-.31l.04-.04-.52-1h-.05Zm-8.76-.61c.31-.26,.71-.65,.71-.65,0,0-.52,.88-.89,.89s-.48-.21-.48-.21c0,0,.35,.22,.66-.04Zm-.14,.51c.33-.25,1-1.08,1.21-1.2,0,0-.44,.61-.56,.78-.12,.17-.6,.72-.9,.66-.29-.06-.52-.36-.55-.43,0,0,.46,.44,.79,.19Zm-.08,.52c.64-.42,1.06-1.35,1.49-1.49,0,0-.52,.61-.75,.97-.23,.36-.64,.83-.97,.73-.34-.1-.52-.27-.56-.49,0,0,.39,.48,.78,.28Zm.66,1.73c-.69,.47-1.77,.74-2.51,.58,0,0,2.32-.21,3.32-1.82,0,0-1.29,1.67-3.25,1.32,0,0,1.9-.11,2.99-1.47,0,0-1.35,1.42-3.2,.84,0,0,1.22,.06,1.65-.32,0,0-.74-.21-.54-1.25,0,0,.03,.83,.56,.86,.53,.04,.96-.51,1.45-1.11s.93-.86,1.1-.13c.18,.72-.87,2.03-1.56,2.5Zm5.33-5l.23,.32s-.49-.42-.63-.43c0,0,.17-.06,.4,.11Zm.49,.73l.18,.31s-.37-.34-1.12-.69c0,0,.65,.18,.94,.38Zm.42,.77l.19,.44s-1.02-.83-1.79-1.22c0,0,.62,.09,1.6,.79Zm-1.86-.45s1,.12,2.27,1.44l.26,.41s-1.66-1.42-2.54-1.85Z" />
    <path class="cls-2"
        d="M105.79,95.13s-.05,.01-.08,.02c-.06,.16-.1,.31-.1,.43,0,0,.05-.18,.18-.45Z" />
    <path class="cls-2"
        d="M132.41,94.57c.64,.06,1.26,.13,1.87,.22l.39-.89c-.61-.09-1.23-.18-1.86-.25l-.4,.92Z" />
    <path class="cls-2"
        d="M141.16,87.48c.58,.21,1.17,.42,1.75,.64v.13c.13-.27,.27-.53,.4-.79-.57-.28-1.15-.54-1.75-.78-.13,.26-.27,.53-.41,.81Z" />
    <path class="cls-2"
        d="M126.08,85.2v-.04c.22,0,.44,0,.66,0,.03,0,.06,0,.09,0-.12-.24-.23-.49-.34-.73-.67,.02-1.32,.05-1.94,.1,.1,.23,.22,.48,.34,.75,.4-.03,.79-.05,1.19-.07Z" />
    <path class="cls-2"
        d="M130.03,92c-.45-.99-.97-2.08-1.48-3.18-.31-.66-.6-1.33-.9-1.99-.21-.46-.41-.78-.61-.99-.13-.14-.27-.23-.43-.3-.16,.07-.31,.16-.47,.29-.33,.26-.5,.57-.54,.9,.92,1.9,2.11,4.29,3.23,6.5,.69,.01,1.38,.05,2.07,.09-.22-.43-.44-.86-.66-1.29-.07,0-.14-.01-.21-.01Z" />
    <path class="cls-2"
        d="M136.44,87.79c0-.45-.11-.82-.34-1.09-.05-.06-.12-.12-.18-.18l-3.03,6.95c.63,.07,1.25,.15,1.86,.24l.49-1.12c-.12-.02-.23-.05-.35-.07v-.28c.18,.03,.33,.04,.48,.05l1.08-2.47v-2.03Z" />
    <path class="cls-2"
        d="M115.8,96.89s.04,.02,.05,.03h-.04s.34,.65,.34,.65c.04,0,.08,0,.12,.02l.18,.04c-.02-.21-.14-.52-.26-.81l-.57-.25,.17,.33Z" />
    <polygon class="cls-2"
        points="119.19 102.08 118.59 102.22 119.12 103.22 119.54 102.82 119.19 102.08" />
    <path class="cls-2" d="M136.36,102.11l-.27,.89,.08,.08c.14-.31,.27-.61,.41-.92l-.22-.05Z" />
    <path class="cls-2"
        d="M124.47,84.33c.62-.04,1.27-.08,1.94-.1-.09-.2-.19-.4-.28-.61-.06-.14-.14-.3-.2-.46-.62,.03-1.25,.07-1.87,.12,.06,.2,.2,.56,.41,1.04Z" />
    <path class="cls-2"
        d="M130.98,93.49c-.69-.05-1.38-.08-2.07-.1,.17,.34,.34,.67,.51,1,.7,.02,1.39,.06,2.08,.11-.17-.34-.34-.67-.51-1.01Z" />
    <path class="cls-2"
        d="M138.14,85.34c.08,.02,.15,.05,.23,.07l.31-.71s.02-.04,.04-.1c-.58-.16-1.17-.31-1.77-.44l-.37,.86c.52,.1,1.05,.2,1.56,.33Z" />
    <path class="cls-2"
        d="M136.49,85.19l-.38,.87c.59,.13,1.19,.27,1.78,.42l.39-.9c-.07-.02-.13-.04-.2-.06-.53-.13-1.06-.23-1.59-.34Z" />
    <path class="cls-2"
        d="M113.92,90.86v-1.4l-.6-1.14c-.32-.12-.64-.12-.95,0v-.28c.22-.08,.45-.16,.67-.24l-.37-.69c-.62,.27-1.16,.53-1.62,.78l2.75,5.2c.07-.18,.12-.36,.12-.53v-1.7Z" />
    <path class="cls-2"
        d="M112.19,86.2c-.55,.24-1.09,.51-1.62,.8l.38,.72c.47-.25,1-.51,1.62-.78l-.39-.74Z" />
    <path class="cls-2"
        d="M140.7,88.43c-.19,.4-.39,.82-.59,1.26,.33-.19,.66-.38,.99-.56v2.93c.31-.67,.62-1.33,.94-2-.23-.28-.45-.56-.68-.84-.22-.27-.43-.53-.65-.79Z" />
    <path class="cls-2"
        d="M137.61,95.41c.53,.13,1.04,.26,1.52,.42l-.95,1.98,.38-.09c.17-.39,.35-.77,.52-1.16,.22-.5,.44-1.01,.67-1.51-.58-.18-1.17-.34-1.78-.49-.12,.28-.24,.57-.36,.86Z" />
    <path class="cls-2"
        d="M138.48,93.34c-.14,.33-.29,.67-.44,1.02,.61,.15,1.21,.32,1.78,.5,.14-.32,.29-.65,.43-.97-.45-.15-.91-.31-1.36-.44-.14-.04-.28-.07-.42-.11Z" />
    <path class="cls-2"
        d="M141.67,86.48c.59,.24,1.18,.5,1.75,.78,.14-.27,.28-.54,.42-.81-.58-.27-1.17-.51-1.77-.74-.13,.25-.26,.5-.4,.77Z" />
    <path class="cls-2"
        d="M139.55,90.92v2.16c.09,.03,.17,.05,.26,.08,.35-.2,.7-.38,1.05-.57,.07-.15,.14-.3,.2-.44-.44-.55-.89-1.09-1.33-1.63-.06,.13-.12,.27-.18,.41Z" />
    <path class="cls-2"
        d="M114.96,95.29l.4,.75,.12,.07s-.03,0-.07,.02l.17,.32,.53,.13c-.1-.24-.19-.47-.2-.62,.06-.02,.23-.08,.39-.13,.28-.09,.57-.16,.86-.24l-.44-.84c-.6,.16-1.18,.35-1.75,.54Z" />
    <path class="cls-2"
        d="M116.1,93.6c-.58,.17-1.16,.36-1.74,.55l.51,.97c.56-.2,1.15-.38,1.75-.54l-.52-.98Z" />
</svg>
