<svg width="158" height="41" viewBox="0 0 158 41" fill="none" xmlns="http://www.w3.org/2000/svg">
    <path
        d="M13.6666 21.7471V19.1129C13.6666 17.383 13.5095 15.7317 11.8601 14.277C10.3677 12.9403 8.36488 12.665 6.83328 12.665C4.20207 12.665 2.67048 13.4907 1.8065 14.277C0.274902 15.6924 0 17.4616 0 19.1129V34.5249C0 36.1762 0.274902 37.9454 1.8065 39.3608C2.67048 40.1471 4.20207 40.9727 6.83328 40.9727C8.36488 40.9727 10.3677 40.6975 11.8601 39.3608C13.5095 37.9061 13.6666 36.2548 13.6666 34.5249V27.2514H6.67619V30.9471H8.24706V34.6428C8.24706 34.9573 8.20779 35.665 8.08997 36.0189C7.81507 36.7659 7.18672 36.8445 6.83328 36.8445C6.47983 36.8445 5.85149 36.7659 5.57658 36.0189C5.45877 35.665 5.4195 34.9573 5.4195 34.6428V18.995C5.4195 18.6411 5.45877 17.9727 5.57658 17.6189C5.85149 16.8719 6.36202 16.7932 6.83328 16.7932C7.30454 16.7932 7.81507 16.8719 8.08997 17.6189C8.20779 17.9727 8.24706 18.6411 8.24706 18.995V21.7471H13.6666Z"
        fill="#3478F6" />
    <path
        d="M29.6152 40.5796L27.0625 13.0582H17.9515L15.3203 40.5796H20.9361L21.2503 37.0804H23.6851L23.9993 40.5796H29.6152ZM21.4074 33.2274L22.4284 17.265H22.5855L23.5281 33.2274H21.4074Z"
        fill="#3478F6" />
    <path
        d="M42.6058 40.5796L45.4334 26.9368H45.5905L45.3548 30.5932V40.5796H50.7743V13.0582H44.0982L41.1528 28.824H40.9957L38.0503 13.0582H31.3741V40.5796H36.7936V30.5932L36.558 26.9368H36.7151L39.5426 40.5796H42.6058Z"
        fill="#3478F6" />
    <path
        d="M53.5412 40.5796H66.4615V36.7266H58.9607V27.3693H64.1445V23.5163H58.9607V16.9112H65.8332V13.0582H53.5412V40.5796Z"
        fill="#3478F6" />
    <path
        d="M78.8858 40.5773L83.0344 12.9023H77.4768L75.3634 30.8515L73.2499 12.9023H67.6924L71.8801 40.5773H78.8858Z"
        fill="white" />
    <path
        d="M97.8437 40.5773L95.2997 12.9023H86.2198L83.5976 40.5773H89.1943L89.5074 37.0586H91.9339L92.247 40.5773H97.8437ZM89.6639 33.1841L90.6815 17.1326H90.838L91.7774 33.1841H89.6639Z"
        fill="white" />
    <path d="M112.277 40.5773V36.7028H104.998V12.9023H99.5966V40.5773H112.277Z" fill="white" />
    <path
        d="M127.394 7.03905H121.993V34.6469C121.993 35.6749 121.837 36.1493 121.759 36.3865C121.485 36.9795 121.132 37.0982 120.585 37.0982C120.037 37.0982 119.684 36.9795 119.41 36.3865C119.332 36.1493 119.176 35.6749 119.176 34.6469V12.9023H113.775V34.4493C113.775 36.2284 114.088 38.2447 115.966 39.668C117.61 40.9331 119.958 40.9727 120.585 40.9727C121.132 40.9727 123.559 40.9331 125.242 39.668C127.16 38.2052 127.394 36.2284 127.394 34.4888V7.03905Z"
        fill="white" />
    <path
        d="M130.058 40.5773H142.935V36.7028H135.459V27.2933H140.625V23.4188H135.459V16.7768H142.308V12.9023H130.058V40.5773Z"
        fill="white" />
    <path
        d="M143.919 31.8004V33.9353C143.919 35.9912 144.193 38.1656 146.502 39.7075C148.067 40.7354 149.789 40.9727 151.159 40.9727C153.038 40.9727 154.564 40.6564 155.856 39.3912C157.578 37.6912 157.538 35.9121 157.538 34.3702V32.7888C157.538 28.3608 155.973 27.2142 154.251 25.5537L151.12 22.5095C150.376 21.7978 149.476 20.7304 149.476 19.1094V18.4768C149.476 17.8443 149.437 17.4094 149.867 16.8954C150.141 16.5396 150.494 16.3814 150.924 16.3814C151.55 16.3814 151.903 16.7373 152.02 16.9349C152.294 17.3698 152.294 18.0815 152.294 19.5443V21.2048H157.538V19.5048C157.538 17.6071 157.538 15.7489 155.816 14.1279C154.368 12.7442 152.411 12.5069 150.807 12.5069C149.515 12.5069 147.245 12.586 145.68 14.1279C144.858 14.9582 144.075 16.421 144.075 18.0419V19.1094C144.075 20.4141 144.153 21.956 144.936 23.4979C145.367 24.3281 146.071 25.2374 146.815 25.9491L150.533 29.5468C151.59 30.5748 152.137 31.405 152.137 33.3423V34.4097C152.137 34.6074 152.137 35.833 151.981 36.2679C151.824 36.7423 151.472 37.0982 150.846 37.0982C150.102 37.0982 149.75 36.6633 149.554 36.1888C149.437 35.9121 149.32 35.3981 149.32 33.8562V31.8004H143.919Z"
        fill="white" />
    <path d="M124.694 0.972656L130.76 7.03905H118.628L124.694 0.972656Z" fill="white" />
</svg>
