<?xml version="1.0" encoding="UTF-8"?>
<svg id="_Слой_1" data-name="Слой 1" xmlns="http://www.w3.org/2000/svg" viewBox="0 0 196 136">
    <defs>
        <style>
            .cls-1 {
            fill: #d4d4d4;
            fill-rule: evenodd;
            }
        </style>
    </defs>
    <path class="cls-1"
        d="M102.19,46.58h1.23c.64,0,1.2-.04,1.66-.15,.44-.09,.83-.26,1.16-.48,.5-.31,.86-.7,1.09-1.14,.22-.44,.33-.96,.33-1.55-.04-1.16-.42-1.99-1.16-2.48-.74-.5-1.62-.74-2.63-.72-.37,0-.66,.02-.9,.06-.22,.04-.39,.09-.5,.15-.09,.06-.17,.17-.22,.31-.04,.15-.06,.35-.06,.64v5.35h0Zm6.94-1.36c-.61,.61-2.36,1.44-2.36,1.44l-2.28,.83c-.35-.15-.83-.2-1.47-.2h-.83v3.44c-.04,.88,.09,1.44,.37,1.69,.28,.24,.92,.39,1.91,.4v.61h-6.79v-.61c1.03-.02,1.67-.17,1.97-.4,.28-.24,.4-.81,.37-1.69v-8.68c0-.61-.04-1.07-.13-1.34-.09-.28-.31-.46-.63-.55-.33-.09-.81-.15-1.47-.18v-.61h6.42c.94,0,1.73,.06,2.41,.17,.66,.11,1.23,.29,1.71,.57,.53,.28,.96,.66,1.25,1.14,.31,.48,.48,1.05,.48,1.69-.02,.92-.33,1.69-.94,2.3h0Z" />
    <path class="cls-1"
        d="M104.44,47.5s.83,.18,1.36,1.23c.52,1.05,4.67,8.78,10.12,8.45v-.48s-5.54-2.7-7.34-7.64c0,0-.44-2.15-1.71-2.45l-2.43,.88h0Z" />
    <path class="cls-1"
        d="M62.51,71.57l1.88,6.64v.24c-1.14,.42-2.5,1.16-3.62,1.97l1.75-8.85h0Zm17.85-2.17l3.51,3.44-3.51,2.87v-6.31h0Zm-57.7-11.92h10.63c-.39,1.14-.55,2.04-.55,3.13,0,3.66,3.26,16.71,3.55,18.14l4.88-20.28,4.93,19.82c.75-3.99,3.05-17.35,3.05-18.31s-.28-1.56-1.29-2.5h11.13c-2.61,2.67-3.27,5.3-3.7,7.91-.68,4.1-3.62,20.4-3.62,21.97,0,1.07,.31,2.26,1.03,3.26,1.71-1.03,2.32-2.8,2.56-4.07,.7-3.42,3.24-14.99,3.24-15.95,0-.86-.63-1.88-1.78-2.35l10.4-5.96c-.18,1.56-.37,2.41-.37,3.61,0,2.67,2.45,9.68,2.83,11.24,.99-.13,2.01-.24,3.53-.33v2.26c-.86,.15-1.88,.42-2.8,.79,.96,3.05,1.45,6.31,3,9.48,.86-1.12,1.16-2.41,1.16-3.61v-14.61l-3.97-2.02c3.42-2.37,7.23-4.77,10.8-6.92l10.47,10.8-6.22,5.85,4.38,2.17v6.16c0,1.14,1.16,2.65,2.41,3.9h-6.07c-.37,0-1.77-1.84-1.88-2.02-.18-.33-.79-1.71-.79-2.3v-2.63l-3.26-2.06v5.46c0,1.18,1.09,2.34,2.02,3.55h-17.24c.66-1.6,1.21-2.94,1.21-4.47,0-1.64-.59-3.11-.99-4.77-1.09,.68-5.89,3.02-5.89,5.35,0,1.45,.88,2.23,2.58,3.88h-19.48c.22-1.03,.39-2.58,.39-2.7,0-1.1-1.36-8.56-1.51-9.57l-.07-.09c-.24,1.07-1.89,7.25-1.89,9.38,0,1.23,.17,1.31,.61,2.98h-10.86c1.53-1.42,2.02-2.01,2.02-3.39,0-1.47-.75-4.23-1.03-5.43-1.73-7.41-3.22-14.81-5.43-22.17-.24-.79-1.47-1.75-2.12-2.59h0Z" />
    <path class="cls-1"
        d="M133.4,70.85l1.82,6.22c-.96,.64-2.45,1.31-3.57,2.12l1.75-8.33h0Zm-18.71-1.86l3.13,3.27-3.13,2.94v-6.22h0Zm-14.83-12.66l8.21,8.32-4.29,2.56-2.74-2.74c-.66,.61-1.32,1.27-1.93,1.93v20.48c.61,.61,1.27,1.29,1.88,1.9l4.65-3.7,1.9,4.75c.74-.92,1.43-2.72,1.43-3.83v-15.55l-3.92-2.1c3.5-2.24,7.52-4.42,11.26-6.57l9.79,10.58-6.33,6.07,4.25,1.95v6.95c0,.42,.42,1.4,.55,1.71,.98-1.14,1.07-2.59,1.38-3.9,.68-2.91,3.11-14.11,3.11-15.2,0-1.14-.42-1.67-1.84-2.56l10.84-6.11h.18c-.26,1.14-.44,2.47-.44,3.62,0,.79,2.17,10.74,2.78,10.74l3.83-.44v2.45c-.96,.24-3.07,.68-3.07,.98,0,.53,2.32,8.61,3.55,10.8,.46-.44,.81-1.89,.81-2.59v-16.06l-4.19-1.64c3.72-2.87,8-5.74,11.9-8.43l3.64,3.81v-1.23h16.3v7.21c-.94-.55-1.77-1.51-2.65-1.51h-2.89v16.26c.02,1.6,1.2,4.42,2.93,5.78h-11.09c1.95-1.69,2.47-4.03,2.47-5.76v-16.28h-2.37c-.77,0-1.78,.55-2.58,1.51l-3.2-2.96-2.1,1.49v5.57h5.32v5.98c-.68-.68-1.44-1.01-2.15-1.01h-3.16v7.58c0,1.23,.83,2.74,2.08,3.88h-17.75c.63-1.29,1.34-3.2,1.34-4.62,0-1.49-1.03-4.51-1.31-5.61-2.39,1.53-6.14,3.48-6.14,6.2,0,1.51,.96,2.32,2.74,4.05h-12.57c-.13,0-.29-.24-.4-.31-1.1-.88-1.97-3.16-1.97-4.34v-3.07l-3.2-2.13v6.09c0,1.25,.99,2.39,1.95,3.77h-9.81l-6.7,6-7.76-8.43v-24.03l7.51-8.26h0Z" />
    <path class="cls-1"
        d="M85.16,38.95c1.31,0,2.52,.17,3.62,.53,1.1,.37,2.06,.86,2.85,1.55,.79,.66,1.4,1.45,1.82,2.39,.44,.92,.64,1.95,.64,3.04,0,1.42-.39,2.7-1.16,3.88-.77,1.18-1.84,2.1-3.22,2.78-1.36,.66-2.91,1.01-4.62,1.01-1.27,0-2.47-.18-3.57-.53-1.1-.37-2.08-.88-2.91-1.55-.85-.68-1.49-1.47-1.95-2.39-.48-.9-.7-1.9-.7-2.96s.22-2.12,.68-3.05c.44-.94,1.1-1.77,1.93-2.47,.85-.72,1.84-1.27,2.96-1.66,1.12-.39,2.32-.57,3.61-.57h0Zm-.39,.5c-1.45,0-2.65,.29-3.62,.88-.96,.59-1.67,1.38-2.13,2.37-.46,.98-.7,2.06-.7,3.22,0,.9,.15,1.8,.42,2.72,.29,.92,.72,1.77,1.29,2.5,.59,.75,1.32,1.36,2.23,1.8,.9,.44,1.93,.68,3.11,.68,1.45,0,2.67-.31,3.62-.9,.96-.59,1.67-1.38,2.12-2.37,.44-1.01,.66-2.1,.66-3.31,0-.98-.13-1.91-.4-2.82-.28-.9-.68-1.71-1.25-2.43-.55-.7-1.29-1.29-2.17-1.71-.88-.44-1.95-.64-3.16-.64h0Z" />
    <path class="cls-1"
        d="M128.52,50.23c-.17,.5-.33,.94-.52,1.31-.2,.37-.39,.66-.59,.88-.24,.28-.55,.46-.94,.57-.39,.09-.88,.13-1.47,.13-.44,0-3.55-.02-3.9-.06-.35-.04-.64-.13-.85-.24-.2-.11-.33-.29-.4-.57-.07-.29-.11-.72-.09-1.32v-8.83c-.02-.63,.02-1.09,.11-1.38,.07-.29,.26-.48,.53-.57,.28-.11,.96-.33,1.53-.37v-.37h-6.88v.37c.57,.04,1.73,.26,2.01,.37,.28,.09,.44,.28,.52,.57,.07,.29,.11,.75,.11,1.38v8.96c.02,.9-.07,1.49-.31,1.75-.24,.26-1.05,.4-1.93,.44v.4h12.95c.07-.24,.15-.39,.26-.85,.11-.46,.2-.92,.29-1.38,.11-.46,.18-.83,.22-1.07l-.64-.13h0Z" />
    <path class="cls-1"
        d="M67.48,39.63h-5.28v.61c1.1,.09,1.16,1.03,.86,1.64-.31,.75-.72,1.66-1.23,2.74-.52,1.07-1.07,2.17-1.64,3.31-.57,1.14-1.09,2.17-1.56,3.11h-.06c-.66-1.27-1.29-2.52-1.91-3.79-.63-1.25-1.18-2.39-1.67-3.4-.48-1.01-.85-1.78-1.1-2.32-.24-.46-.28-.77-.09-.94,.18-.18,.75-.29,1.73-.35v-.61h-6.88v.61c.81,.04,1.4,.17,1.8,.4,.39,.24,.77,.74,1.14,1.51,.55,1.07,1.16,2.26,1.82,3.61,.66,1.32,1.32,2.7,2.02,4.12,.68,1.42,1.34,2.8,1.99,4.14h.86c.74-1.53,1.51-3.07,2.3-4.65,.81-1.56,1.53-2.98,2.17-4.19,.66-1.23,1.12-2.12,1.38-2.61,.5-.94,.96-1.55,1.36-1.82,.42-.28,1.09-.44,1.99-.5v-.61h0Z" />
    <path class="cls-1"
        d="M74.12,39.63h-6.4v.61c1.1,.09,1.86,.24,2.1,.44,.22,.2,.2,.59-.11,1.2-.29,.75-.72,1.66-1.23,2.74-.52,1.07-1.05,2.17-1.62,3.31-.59,1.14-1.1,2.17-1.58,3.11h-.06c-.66-1.27-1.29-2.52-1.91-3.79-.63-1.25-1.18-2.39-1.67-3.4-.48-1.01-.85-1.78-1.09-2.32-.26-.46-.15-1.23,.81-1.29v-.61h-5.59v.61c.81,.04,.92,.17,1.32,.4,.39,.24,.77,.74,1.14,1.51,.55,1.07,1.16,2.26,1.82,3.61,.66,1.32,1.32,2.7,2.02,4.12,.68,1.42,1.34,2.8,1.99,4.14h.86c.74-1.53,1.51-3.07,2.3-4.65,.81-1.56,1.53-2.98,2.19-4.19,.64-1.23,1.1-2.12,1.38-2.61,.48-.94,.94-1.55,1.34-1.82,.42-.28,1.09-.44,1.99-.5v-.61h0Z" />
    <path class="cls-1"
        d="M131.43,39.45v.61c.72,.04,1.25,.09,1.6,.18,.35,.09,.57,.29,.68,.57,.11,.29,.15,.75,.15,1.38v8.89c.04,.92-.11,1.49-.42,1.73-.33,.26-1.09,.4-2.26,.42v.61h6.73c1.73,0,3.31-.15,4.73-.44,1.42-.29,2.67-.77,3.74-1.4,1.1-.64,1.95-1.45,2.58-2.45,.61-.98,.92-2.13,.94-3.48-.02-1.03-.24-1.95-.68-2.76-.44-.79-1.01-1.45-1.75-1.99-.88-.66-1.99-1.14-3.33-1.44-1.32-.31-2.91-.46-4.71-.44h-7.98Zm4.84,2.26c0-.42,.04-.74,.09-.9,.06-.18,.17-.29,.28-.35,.15-.09,.4-.17,.77-.22,.37-.04,.86-.07,1.45-.07,.98,0,1.86,.07,2.67,.22,.81,.15,1.55,.39,2.19,.7,1.14,.53,1.99,1.25,2.54,2.19,.55,.92,.83,1.97,.83,3.11s-.28,2.3-.85,3.31c-.55,.99-1.42,1.8-2.56,2.41-1.16,.61-2.61,.9-4.38,.92-1.05,.02-1.8-.11-2.3-.42-.5-.29-.74-.85-.74-1.67v-9.22h0Z" />
    <path class="cls-1"
        d="M83.3,45.15c-.61,0-1.1,.09-1.53,.29-.4,.18-.72,.42-.92,.74-.2,.29-.31,.61-.31,.96,0,.37,.11,.72,.33,1.01,.22,.29,.53,.52,.94,.7,.4,.17,.86,.26,1.38,.26s.96-.07,1.36-.24c.42-.17,.74-.4,.98-.7,.24-.29,.37-.66,.37-1.09,0-.39-.11-.72-.35-1.01-.24-.29-.55-.52-.94-.68-.39-.17-.83-.24-1.31-.24h0Zm-.15,.24c.46,0,.83,.17,1.1,.5,.29,.31,.42,.77,.44,1.36-.02,.53-.15,.94-.4,1.21-.26,.26-.57,.4-.96,.4-.33,0-.63-.09-.86-.26-.24-.17-.4-.39-.53-.66-.13-.28-.18-.59-.2-.92,.02-.51,.15-.92,.4-1.2,.28-.29,.61-.44,.99-.44h.02Z" />
    <path class="cls-1"
        d="M89.81,46.12c-.02-.18-.04-.37-.06-.55-.02-.17-.02-.29-.04-.35h-3.48v.2c.2,.02,.33,.04,.42,.06,.09,.04,.17,.09,.18,.17,.04,.09,.04,.22,.04,.39v2.15c0,.18,0,.31-.04,.4-.02,.09-.09,.15-.18,.17-.09,.04-.22,.06-.42,.06v.2h2.45v-.2c-.22,0-.39-.02-.5-.06-.11-.02-.18-.07-.2-.17-.04-.09-.06-.22-.04-.4v-.92h.28c.22,0,.4,.02,.52,.04,.11,.02,.2,.06,.24,.11,.06,.07,.09,.17,.11,.29h.28v-1.16h-.28c-.02,.13-.06,.22-.11,.28-.04,.07-.13,.11-.24,.13-.11,.02-.29,.02-.52,.02h-.28v-1.29c-.02-.09,0-.15,.04-.17,.04-.04,.13-.04,.26-.04h.26c.22,0,.11,.02,.24,.04,.11,.02,.22,.07,.29,.13,.07,.06,.13,.13,.18,.22,.06,.07,.09,.17,.13,.29l.46-.04h0Z" />
</svg>
