<?xml version="1.0" encoding="UTF-8"?>
<svg id="_Слой_1" data-name="Слой 1" xmlns="http://www.w3.org/2000/svg" viewBox="0 0 196 136">
    <defs>
        <style>
            .cls-1 {
            fill: #d4d4d4;
            }
        </style>
    </defs>
    <path class="cls-1"
        d="M100.59,117.55c.31-1.33,.67-2.65,.89-3.99,1.39-8.75,1.92-17.56,1.96-26.41,.02-3.4,.05-6.79,.15-10.19,.21-6.99,.48-13.97,.69-20.96,.06-2.1,.34-4.17,1.13-6.1,.58-1.42,1.36-2.77,2.9-3.5,1.49-.71,2.89-1.59,4.61-2.56-.5-.14-.83-.35-1.09-.28-2.19,.52-4.31-.01-6.48-.18-4.14-.32-8.33-.12-12.49-.05-1.6,.02-3.13,.84-4.8,.37-.92-.26-1.91-.3-2.86-.44,3.89,1.95,7.51,4.08,8.55,8.6-.46-.13-.96-.27-1.47-.41-.05,.14-.11,.29-.16,.43,.67,.39,1.34,.77,2.14,1.24,.05,.25,.18,.7,.2,1.15,.2,3.63,.45,7.25,.55,10.88,.13,5.02,.09,10.05,.21,15.07,.16,6.65,.33,13.3,.64,19.94,.17,3.74,.57,7.48,.98,11.2,.22,2.02,.68,4.02,1.03,6.04-.03-.05-.05-.09-.07-.14,.48,1.12,2.2,1.3,2.8,.3Z" />
    <path class="cls-1"
        d="M53.46,40.15c.84,4.27,1.67,8.52,2.51,12.82,.16-.07,.06-.01,.05-.02-1.68-2.32-4.08-3.78-6.54-5.05-1.41-.73-3.09-1.12-4.69-1.27-2.8-.27-5.63-.58-8.43,.08-2.8,.66-4.1,1.65-4.79,4.52-.69,2.86-.5,5.76-.15,8.64,.15,1.23,1.04,1.96,2.19,2.12,2.38,.33,4.78,.72,7.16,.69,1.99-.03,3.44,.8,4.87,1.92,.47,.37,.93,.75,1.48,1.21-2.15,1.72-4.12,3.51-7.15,3.38-1.89-.08-3.8,.2-5.69,.38-1.97,.19-3.24,1.35-3.28,3.35-.05,2.67-.08,5.37,.32,8,.48,3.16,1.94,4.1,5.15,4.58,3.56,.53,7.21,.57,10.74-.38,1.39-.37,2.67-1.21,3.98-1.86,.3-.15,.56-.39,.98-.68-.06,.51-.1,.84-.16,1.34,.95-1.04,1.8-1.97,2.8-3.07,.39,4.1-.91,7.6-1.62,11.18-.05,.26-.57,.61-.87,.61-10.9-.04-21.8-.11-32.7-.19-.81,0-1.61-.14-2.24-.2,.29-.6,.65-1.22,.91-1.87,.54-1.35,1.21-2.67,1.51-4.07,.5-2.34,1.02-4.73,1.07-7.11,.23-9.69,.27-19.38,.42-29.08,.05-3.04-.9-5.84-1.87-8.65-.15-.44-.55-.8-.98-1.39,.66-.07,1.19-.21,1.71-.17,6.78,.64,13.58,.23,20.37,.29,4.14,.04,8.28-.06,12.42-.1,.17,0,.35,.03,.53,.05Z" />
    <path class="cls-1"
        d="M177.41,48.86c-.41-.58-.83-1.16-1.24-1.74-.06,.04-.12,.07-.18,.11,.88,1.77,1.75,3.54,2.63,5.3-.05,.06-.1,.12-.15,.19-1.34-.98-2.7-1.94-4.03-2.93-2.29-1.7-4.95-2.37-7.71-2.7-2.63-.31-5.27-.44-7.91,.08-2.2,.43-3.64,1.71-4.17,3.84-.75,3.02-.65,6.1-.07,9.14,.25,1.3,1.08,2.24,2.39,2.39,2.84,.33,5.7,.47,8.55,.75,.56,.05,1.15,.25,1.63,.55,1.1,.69,2.14,1.48,3.3,2.3-1.41,1.02-2.76,2.1-4.22,2.98-.54,.33-1.37,.2-2.07,.26-2.28,.19-4.57,.35-6.85,.57-1.7,.16-2.67,1.01-2.87,2.72-.4,3.42-.27,6.8,1.01,10.09,.88,2.25,2.82,2.84,4.81,3.12,3.48,.49,6.97,.38,10.44-.45,2.33-.56,4.07-1.88,5.6-3.61,.17-.2,.39-.36,.85-.45-.04,.66-.08,1.32-.13,2.18,.32-.5,.56-.88,.97-1.52,.17,.63,.44,1.08,.38,1.48-.46,2.93-.96,5.85-1.53,8.75-.05,.23-.69,.49-1.06,.49-6.23,.03-12.46,.01-18.7,0-4.82,0-9.63,0-14.45,0-.76,0-1.52,0-2.25,0,1.43-1.94,2.58-4.02,3.16-6.27,.58-2.24,.97-4.58,1.01-6.88,.12-7.89,.12-15.78,.03-23.67-.04-3.48,.09-7.03-1.04-10.39-.53-1.59-1.41-3.06-2.13-4.59-.06-.12-.09-.24-.12-.31,.84-.07,1.63-.22,2.42-.2,6.79,.21,13.57,.47,20.36,.66,1.72,.05,3.48-.3,5.18-.11,2,.23,3.94,.06,5.88-.27,.81-.14,1.17,.03,1.3,.97,.28,1.95,.76,3.88,1.15,5.81,.08,.4,.11,.81,.17,1.21-.11,.05-.22,.1-.33,.14Z" />
    <path class="cls-1"
        d="M85.69,90.14c.7,.51,1.4,1.02,2.33,1.7-3.59,1.62-7.02,1.08-10.59,.52,.84-.46,1.6-.87,2.65-1.43-.75-.11-1.18-.17-1.61-.24-.03-.15-.09-.26-.05-.34,1.22-2.79,.74-5.54-.23-8.26-.51-1.43-1.06-2.85-1.67-4.24-.47-1.08-.66-1.09-1.47-.29-.65,.64-1.29,1.3-2,2.02-.9-.95-1.74-1.84-2.74-2.9-1.79,2.57-2.52,5.31-3.2,8.07-.74,2.98,.15,5.53,1.93,7.73-3.99,.64-8.01,.64-12.09-.42,.91-.68,1.71-1.29,2.76-2.08-.48,.04-.64,.04-.8,.08-.83,.21-1.18-.01-.85-.9,1.36-3.64,2.74-7.27,4.08-10.92,.74-2.01,1.61-4.02,2-6.1,.24-1.26-.05-2.78-.55-4-1.94-4.77-3.36-9.68-4.65-14.65-.3-1.18-.98-2.26-1.47-3.39-.1-.23-.14-.49-.21-.73,.25-.03,.5-.09,.75-.1,1.05-.02,2.1-.05,3.16-.03,1.34,.02,2.68,.13,4.02,.12,.77,0,1.54-.1,2.3-.24,.68-.13,1.34-.37,1.88-.52-.67,1.43-1.52,2.83-1.98,4.34-.7,2.3-.35,4.67,.42,6.89,.7,2.01,1.72,3.92,2.62,5.91,1.08-.53,1.9-.94,3.05-1.5,.48,.35,1.28,.94,2.21,1.63,2.85-5.37,5.62-10.73,1.65-16.96,1.74,1.06,3.48,.52,5.21,.36,.94-.09,1.9,.17,2.85,.16,1.04,0,2.07-.14,3.11-.23,.36-.03,.71-.09,1.06-.14,.03,.21,.07,.31,.05,.34-2.21,2.47-2.48,5.72-3.49,8.67-1.07,3.14-2.07,6.32-3.31,9.39-1.21,2.98-1.05,5.76,.14,8.7,1.79,4.42,3.38,8.92,5.04,13.39,.29,.79-.1,.97-.8,.8-.47-.11-.94-.25-1.41-.38-.04,.06-.07,.12-.11,.18Z" />
    <path class="cls-1"
        d="M139.41,83.88c-.4,2.32-.77,4.64-1.2,6.94-.33,1.77-.37,1.78-2.11,1.81-6.47,.1-12.94,.18-19.4,.26-2.05,.03-4.1,.09-6.15,.05-1.62-.03-1.84-.42-1.28-1.99,.4-1.13,1-2.22,1.22-3.38,.4-2.07,.79-4.18,.81-6.27,.09-7.78,.05-15.57,.03-23.36,0-2.5-.54-4.9-1.61-7.17-.24-.51-.43-1.03-.69-1.64,2.57,0,5.06-.05,7.54,.02,1.24,.03,2.48,.31,3.72,.38,.45,.02,.91-.25,1.48-.41-.31,.96-.6,1.89-.91,2.81-1.31,3.88-1.51,7.85-1.3,11.91,.2,3.85,.03,7.71,.07,11.57,.03,2.26,0,4.53,.28,6.76,.4,3.26,2.13,4.76,5.42,4.68,2.03-.05,4.06-.46,6.06-.85,1.45-.28,2.86-.8,4.29-1.21,.14-.04,.3-.14,.4-.09,1.27,.57,2.12-.19,2.93-1.06,.13,.07,.27,.15,.4,.22Z" />
    <path class="cls-1"
        d="M126.38,40.54c-1.93,.61-3.97,.75-6.06,0,.26-.2,.49-.39,.51-.4,0-1.48,0-2.74,0-4,0-1.31-.01-2.62,0-3.93,0-.53-.12-.89-.76-.89-1.7,.01-3.39,0-5.28,0,.07,3.11-.17,6.16,.25,9.29-1.77,.68-3.8,.24-5.89-.04,.18-.14,.41-.29,.6-.49,.15-.16,.36-.37,.36-.56,.02-5.8,.06-11.6,0-17.39,0-.94-.45-1.87-.64-2.62h5.93c-.88,1.45-.56,3.23-.6,4.96-.02,1.06-.04,2.13,.02,3.18,.02,.3,.33,.83,.53,.83,1.84,.06,3.68,.04,5.34,.04v-9.19c1.73,.69,3.7,.71,5.73,.07-1.16,1.41-.79,3.01-.8,4.53-.02,4.21,0,8.42-.01,12.64,0,.98-.1,1.97,.02,2.94,.05,.39,.54,.73,.77,1.02Z" />
    <path class="cls-1"
        d="M80.05,21.15c-.15,.25-.32,.5-.45,.76-.14,.27-.26,.55-.25,.91,.52-.63,1.02-1.29,1.57-1.89,.97-1.06,2.11-1.7,3.63-.65,.09,.06,.19,.19,.26,.17,1.99-.5,2.5,1.3,3.26,2.34,2.29,3.14,3.15,6.81,3.24,10.67,.04,2.01,.08,4.01,.19,6.01,.02,.34,.39,.66,.62,1.04-2.27,.68-4.53,.41-7,.06,2.14-.8,1.09-2.42,1.11-3.73,0-.32-.59-.92-.94-.95-1.39-.12-2.79-.14-4.18-.04-.77,.06-1.22,.64-1.19,1.5,.04,1.12-.18,2.3,1.02,3.05-.02,.09-.05,.18-.07,.27h-6.81c-.07-.07-.13-.15-.2-.22,1.27-1.04,.97-2.41,.98-3.72,.02-3.33,.19-6.65,1.38-9.81,.76-2.02,1.65-3.98,3.23-5.53,.14-.13,.3-.24,.45-.36,.05,.04,.09,.07,.14,.11Zm3.06,11.67c1.87-.23,2.92-.09,3.02-2.57,.02-.65,.11-1.35-.08-1.94-.61-1.9-1.29-3.78-2.05-5.62-.28-.69-1.15-.71-1.52-.07-1.3,2.2-2.33,4.51-2.38,7.12-.04,2.03,1.04,3.07,3.02,3.1Z" />
    <path class="cls-1"
        d="M59.12,40.79c.34-1.1,.85-2.03,.88-2.98,.13-5.37,.18-10.74,.13-16.11,0-.9-.64-1.79-1-2.75,.5,.08,1.13,.25,1.76,.28,2.25,.1,4.51,.02,6.74,.26,3.06,.33,4.93,1.69,5.44,4.44,.67,3.59-1.31,6.83-5.07,7.64-.99,.21-2.35,.18-2.83,.81-.5,.65-.19,1.96-.17,2.98,.03,1.87,.14,3.73,1.38,5.42h-7.26Zm8.97-12.09c.32-1.08,.64-1.9,.8-2.75,.36-1.91-.74-3.78-2.44-4.29-.68-.21-1.31-.22-1.32,.75-.01,2.38,0,4.76,0,7.15,1.34,.55,2.78,.14,3.88-1.15,.03-.03,0-.12,0-.21-.25,.14-.48,.27-.9,.5Z" />
    <path class="cls-1"
        d="M103.6,40.82h-7.07c-.07-.06-.14-.12-.21-.18,1.54-.98,1.25-2.46,1.25-3.85,0-4.35,.01-8.71,0-13.06,0-1.69-.3-1.99-1.96-2.01-.88-.01-1.77-.01-2.65-.03-.06,0-.13-.05-.29-.12-.03-1.23-.2-2.5,.69-3.77,1.05,1.81,2.67,2.1,4.45,2.11,2.33,.01,4.66,.13,6.99,.09,.84-.02,1.68-.38,2.61-.6,.04,1.1,.54,2.25-.24,3.44-.2,.3,.18,.98,.13,1.58-.17-.27-.33-.54-.51-.81-.82-1.25-2.07-1.67-3.46-1.71-.29,0-.7,.42-.86,.74-.16,.32-.1,.76-.1,1.14-.05,4.24-.1,8.49-.14,12.73-.01,1.55-.14,3.15,1.36,4.3Z" />
    <path class="cls-1"
        d="M132.55,25.56c-.58,.55-1.01,.95-1.44,1.35,.05,.05,.09,.1,.14,.14,.54-.35,1.05-.8,1.64-1.04,2.87-1.16,6.09,1.46,5.73,4.55-.24,2.08-1.03,3.73-2.99,4.64-1.78,.83-3.59,.52-4.94-.88-2.58-2.68-1.81-7.43,1.2-8.57,.15-.06,.31-.09,.66-.2Zm2.77,7.9c-.07-.05-.14-.11-.2-.16,.97-1.02,1.19-2.23,1.05-3.54-.14-1.35-1.24-2.53-2.4-2.57-1.02-.03-1.86,.82-2.16,2.22-.38,1.74,.21,3.05,1.59,4.16,1.07,.86,2.27,.76,3-.49-.32,.14-.6,.25-.88,.37Z" />
    <path class="cls-1"
        d="M133.99,31.86c-.47-.45-.84-.81-1.3-1.24,.43-.4,.82-.76,1.24-1.15,.44,.34,.82,.64,1.32,1.04-.4,.43-.79,.85-1.26,1.35Z" />
</svg>
