<?xml version="1.0" encoding="UTF-8"?>
<svg id="_Слой_1" data-name="Слой 1" xmlns="http://www.w3.org/2000/svg" viewBox="0 0 196 136">
    <defs>
        <style>
            .cls-1 {
            fill: none;
            }

            .cls-2 {
            fill: #d4d4d4;
            }
        </style>
    </defs>
    <rect class="cls-1" x="67.21" y="56.55" width="11.36" height="11.52" />
    <path class="cls-1"
        d="M13.81,45.28v45.44H182.19V45.28H13.81Zm41.14,42.33H15.72V48.39H54.95v39.23Zm31.43-31.06v19.64h-7.81v3.08h7.81v8.34h-15.44v-11.42h-3.73v11.42h-8.52V48.39h27.69v8.16Zm31.42,31.06h-27.16V48.39h8.16v30.88h11.18v-30.88h7.81v39.23Zm31.24-31.06h-18.99v6.32h18.99v24.74h-26.98v-8.34h18.99v-8.06h-18.99v-22.83h26.98v8.16Zm31.24,0h-9.59v31.06h-7.63v-31.06h-9.94v-8.16h27.16v8.16Z" />
    <path class="cls-2"
        d="M15.72,87.61H54.95V48.39H15.72v39.23Zm18.67-18.87l1.74-1.74,1.74,1.74-1.74,1.74-1.74-1.74Zm-.71-3.03v-2.41h4.91v2.41h-4.91Zm14.91,10.34l-5.19,5.19-4.26-5.99,3.47-3.47,5.98,4.27Zm-6.9-5.18l-3.47,3.47-1.71-1.71,3.47-3.47,1.71,1.71Zm-1.88-16.11l-1.22,7.25h-4.91l-1.21-7.25h7.34Zm-9.13,11.53h2.41v4.91h-2.41v-4.91Zm-8.54-1.22l7.25,1.22v4.91l-7.25,1.21v-7.34Z" />
    <path class="cls-2"
        d="M58.69,56.55v31.06h8.52v-11.42h3.73v11.42h15.44v-8.34h-7.81v-3.08h7.81v-27.81h-27.69v8.16Zm8.52,0h11.36v11.52h-11.36v-11.52Z" />
    <polygon class="cls-2"
        points="153.12 56.55 163.06 56.55 163.06 87.61 170.69 87.61 170.69 56.55 180.28 56.55 180.28 48.39 153.12 48.39 153.12 56.55" />
    <polygon class="cls-2"
        points="109.99 79.27 98.8 79.27 98.8 48.39 90.64 48.39 90.64 87.61 117.8 87.61 117.8 48.39 109.99 48.39 109.99 79.27" />
    <polygon class="cls-2"
        points="122.06 71.21 141.05 71.21 141.05 79.27 122.06 79.27 122.06 87.61 149.04 87.61 149.04 62.87 130.04 62.87 130.04 56.55 149.04 56.55 149.04 48.39 122.06 48.39 122.06 71.21" />
</svg>
