<?xml version="1.0" encoding="UTF-8"?>
<svg id="_Слой_1" data-name="Слой 1" xmlns="http://www.w3.org/2000/svg" viewBox="0 0 196 136">
    <defs>
        <style>
            .cls-1 {
            fill: none;
            }

            .cls-2 {
            fill: #d4d4d4;
            }
        </style>
    </defs>
    <path class="cls-1"
        d="M80.56,104.25l.97-3.04c-14.1-3.86-8.3-15.02-8.3-15.02-3.28-1.72-1.5-13.04-1.5-13.04-9.8,13.96-24.77,4.01-24.77,4.01l-4.73-6.13,2.46-13.62c-1.06-1.11-3.72-4.59-3.72-9.51-.19-13.52,14.58-12.51,14.58-12.51v-1.59l10.78,1.93-.23-2.13-1.22-1.8,.63-7.72c11.54-2.37,12.27,.87,12.27,.87l.76-2.22c10.08-1.26,11.65,1.81,11.65,1.81l.1-1.66,10.72-.68H40.95V113.8h56.53l-7.23-7.38-9.71-2.17Z" />
    <path class="cls-1"
        d="M147.34,74.45c-5.6,9.42-17.67,4.68-17.67,4.68l-6.78-.1c.89,4.73-1.04,7.15-1.04,7.15,4.73,10.82-8.23,14.97-8.23,14.97l.7,3.24-9.56,2.27-7.26,7.14h57.56V38.86l-4.66,13.67c8.06,11.69,.34,17.63-3.04,21.92Z" />
    <path class="cls-1"
        d="M100.98,22.2l.48,1.88,6.13-.19,.24,.92,.63-.23-.05-.91,6.91-.41,.34,1.06h.58l-.05-1.3,8.16-.58,.05,1.05,5.7,.18-.58,9.64h4.97l-1.21,4.54c1.93-1.26,8.74-1.16,8.74-1.16l.53-1.06,12.48,3.24V22.2h-54.06Z" />
    <polygon class="cls-2" points="94.83 59.07 99.14 59.07 96.99 50.18 94.83 59.07" />
    <path class="cls-2"
        d="M125.65,61.66l2.9,4.86,2-6.72c3.13,2.02,5.88,3.07,8.26,3.14,1.63,.05,2.46-.49,2.5-1.64,.02-.54-.26-1-.84-1.37-.58-.37-1.73-.84-3.48-1.41-3.08-.99-5.37-2.32-6.88-3.98-.34,2.99-1.83,5.36-4.48,7.12Z" />
    <path class="cls-2"
        d="M72,30.63c.64-.07,1.05-.2,1.24-.4,.19-.19,.27-.46,.23-.79-.04-.34-.22-.6-.55-.76-.16-.09-.47-.11-.91-.06l-.9,.1,.21,1.98,.67-.07Z" />
    <path class="cls-2"
        d="M85.99,29.64c0-.88-.54-1.32-1.61-1.32h-1.02v2.68h1.06c1.05,0,1.57-.45,1.57-1.36Z" />
    <path class="cls-2"
        d="M72.37,33.33l-.75,.08,.25,2.31,.58-.06c.61-.07,1.02-.18,1.23-.34,.3-.23,.42-.56,.38-.99-.05-.51-.32-.84-.8-.98-.19-.06-.48-.06-.89-.02Z" />
    <polygon class="cls-2" points="96.52 27.92 95.87 32.74 98.02 32.55 96.52 27.92" />
    <path class="cls-2" d="M119.32,50.98h-1.9v4.92h1.98c1.95,0,2.93-.83,2.93-2.5s-1-2.42-3.01-2.42Z" />
    <path class="cls-2"
        d="M142.03,36.69s-6.81-.1-8.74,1.16l1.21-4.54h-4.97l.58-9.64-5.7-.18-.05-1.05-8.16,.58,.05,1.3h-.58l-.34-1.06-6.91,.41,.05,.91-.63,.23-.24-.92-6.13,.19-.48-1.88h0l-10.72,.68-.1,1.66s-1.57-3.06-11.65-1.81l-.76,2.22s-.72-3.24-12.27-.87l-.63,7.72,1.22,1.8,.23,2.13-10.78-1.93v1.59s-14.77-1.01-14.58,12.51c0,4.93,2.66,8.4,3.72,9.51l-2.46,13.62,4.73,6.13s14.97,9.95,24.77-4.01c0,0-1.78,11.32,1.5,13.04,0,0-5.8,11.16,8.3,15.02l-.97,3.04,9.71,2.17,7.23,7.38,7.26-7.14,9.56-2.27-.7-3.24s12.97-4.15,8.23-14.97c0,0,1.93-2.41,1.04-7.15l6.78,.1s12.07,4.73,17.67-4.68c3.38-4.3,11.11-10.24,3.04-21.92l4.66-13.67-12.48-3.24-.53,1.06Zm-18.2-12.11l4.42,.05-.12,10.52,4.03,.04-1.23,4.52-7.28-.07,.12-10.54h-1.15s1.2-4.51,1.2-4.51Zm-16.92,.41l1.99,7.02,1.29-7.33,3.92-.37,2.6,6.96,.63-7.27,5.25-.5-2.44,15.35-4.93,.47-2.32-6.65-.98,6.96-4.95,.47-5.3-14.62,5.25-.5Zm-15.39,3.7l.67-4.41,6.87-.61,5.28,14.03-4.51,.4-.6-1.86-3.87,.34-.27,1.94-4.45,.4,1.94-10.33-1.06,.09Zm-12.35-4.61h4.67c1.91,0,3.36,.37,4.36,1.12,1.35,1.01,2.02,2.45,2.02,4.33,0,1.98-.81,3.52-2.44,4.61l2.7,4.59h-5.04l-1.91-4.06h-.17v4.06h-4.19v-10.26h-1.08l1.08-4.39Zm-13.09,5.68l.58-4.6,4.8-.52c1.61-.17,2.79-.13,3.53,.12,.63,.22,1.15,.61,1.57,1.18,.42,.57,.67,1.23,.75,2,.16,1.47-.42,2.66-1.72,3.57,.51,.13,.93,.3,1.26,.52,.95,.62,1.5,1.58,1.64,2.87,.09,.82-.03,1.59-.35,2.3-.32,.71-.79,1.23-1.4,1.57-.69,.38-1.91,.66-3.66,.85l-4.79,.52-1.13-10.48-1.06,.11Zm-1.07,38.63c-2.16,2.24-5.03,3.47-8.61,3.7-1.79,.11-3.46,.02-5.01-.26-1.55-.29-3.7-.91-6.44-1.88l1.83-9.84c3.31,1.8,6.16,2.62,8.53,2.47,1.63-.1,2.4-.75,2.33-1.95-.04-.57-.36-1.01-.97-1.34-.61-.33-1.81-.71-3.6-1.13-6.33-1.48-9.65-4.64-9.95-9.51-.22-3.5,.99-6.3,3.64-8.4,1.84-1.45,3.84-2.25,6.02-2.38,.91-.06,2.24,.03,3.98,.25l.25-1.47,8.73,.91-1.95,10.4c-3.25-1.27-5.73-1.85-7.46-1.74-1.82,.11-2.7,.74-2.63,1.87,.03,.4,.17,.69,.45,.87,.31,.28,1.78,.76,4.4,1.43,5.94,1.5,9.06,4.73,9.38,9.69,.21,3.3-.77,6.07-2.93,8.31Zm7.41,1.67l-.91-18.63-6.26,.22,1.42-7.33,10.49-.45,.17-.84,9.66-.36-1.56,8.17-6.77,.2,.91,18.63-7.16,.39Zm1.04,17.84c1.1,.27,3.04,0,3.04,0-5.4-3.74-2.51-12.15-2.51-12.15l4.06,1.83,3.14,10.79-3.14,9.74c-5.65-3.28-4.59-10.21-4.59-10.21Zm41.67,10.6l-10.22,2.26-7.4,7.51-.02,.02-7.42-7.53-10.19-2.25h-.03s3.03-10.14,3.03-10.14l-3.03-10.12h0s10.22-2.26,10.22-2.26l7.41-7.53h0s7.42,7.53,7.42,7.53l10.22,2.25v.02s-3.03,10.1-3.03,10.1l3.03,10.13h0Zm6.21-10.59s1.06,6.92-4.59,10.21l-3.14-9.74,3.14-10.79,4.06-1.83s2.89,8.42-2.51,12.15c0,0,1.94,.27,3.04,0Zm30.21-47.83l-2.91,9.73c-3.11-1.51-5.53-2.29-7.26-2.34-1.82-.06-2.75,.45-2.79,1.54-.01,.38,.11,.67,.36,.87,.28,.3,1.7,.89,4.25,1.77,5.77,1.98,8.58,5.34,8.43,10.09-.1,3.16-1.33,5.7-3.7,7.64-2.36,1.94-5.33,2.84-8.92,2.73-1.79-.06-3.45-.3-4.97-.71-.98-.27-2.22-.71-3.66-1.29h-9.09l-3.56-7.46h-.32v7.46h-7.8v-.36h-7.87l-.87-3.57h-7.75l-.87,3.57h-8.91l5.68-18.94h-2.11l2.11-8.11h13.76l6.83,23.1v-14.52h-2.02l2.02-8.07h8.71c3.56,0,6.27,.69,8.12,2.06,.67,.5,1.24,1.05,1.73,1.66,.48-2.55,1.87-4.56,4.22-6.02,1.96-1.21,4.04-1.78,6.22-1.71,.91,.03,2.23,.23,3.94,.61l.39-1.38,8.6,1.67Z" />
    <path class="cls-2"
        d="M86.85,94.27h0s.22-.01,.22-.01v-.08s0,0,0,0h-.22s-.01-.41-.01-.41c-.95-1.74-1.49-3.73-1.49-5.85,0-1.9,.44-3.69,1.22-5.29h0s-.03-.02-.03-.02l.02-.04v-.06s.04,0,.04,0l.05-.08h0s-6.8-4.16-6.8-4.16l3.03,10.12-3.03,10.13h.03s0,0,0,0l7.17-4.26h-.21Zm-6.64,3.81l2.9-9.7-2.89-9.64,6.15,3.76c-.82,1.69-1.24,3.51-1.24,5.42,0,2.2,.58,4.36,1.68,6.25l-6.6,3.92Z" />
    <path class="cls-2"
        d="M86.36,82.49l-6.15-3.76,2.89,9.64-2.9,9.7,6.6-3.92c-1.1-1.89-1.68-4.05-1.68-6.25,0-1.9,.42-3.72,1.24-5.42Zm.14,11.59l-5.94,3.52,2.72-9.1,.04-.12-.04-.12-2.7-9.04,5.5,3.36c-.78,1.67-1.17,3.46-1.17,5.33,0,2.17,.55,4.29,1.6,6.17Z" />
    <path class="cls-2"
        d="M115.12,78.27l-6.65,4.01s0,0,0,0l.11,.19h-.02c.82,1.65,1.28,3.49,1.28,5.44,0,2.27-.61,4.38-1.69,6.21l6.98,4.39-3.03-10.13,3.02-10.1Zm-.37,19.74l-6.31-3.97c1.05-1.86,1.61-3.98,1.61-6.13,0-1.96-.44-3.82-1.3-5.55l6-3.61-2.87,9.63,2.88,9.63Z" />
    <path class="cls-2"
        d="M114.75,78.75l-6,3.61c.86,1.73,1.3,3.59,1.3,5.55,0,2.16-.56,4.27-1.61,6.13l6.31,3.97-2.88-9.63,2.87-9.63Zm-.37,18.77l-5.65-3.55c1.01-1.85,1.54-3.94,1.54-6.06,0-1.92-.42-3.76-1.24-5.46l5.34-3.22-2.7,9.03-.04,.12,.04,.12,2.69,9.02Z" />
    <polygon class="cls-2" points="87.1 94.23 87.1 94.23 87.06 94.25 87.11 94.25 87.1 94.23" />
    <path class="cls-2"
        d="M97.73,100.15s-.1,0-.14,0c-4.37,0-8.2-2.3-10.37-5.74h-.01s-.09-.15-.09-.15h-.06s-7.17,4.26-7.17,4.26l10.19,2.25,7.42,7.53,.02-.02,.23-8.13h0Zm-.43,7.65l-7.12-7.23-9.71-2.14,6.56-3.89c2.28,3.64,6.18,5.82,10.49,5.84l-.21,7.43Z" />
    <path class="cls-2"
        d="M87.03,94.53l-6.56,3.89,9.71,2.14,7.12,7.23,.21-7.43c-4.31-.03-8.21-2.2-10.49-5.84Zm10.07,12.75l-6.72-6.82-.09-.09-.13-.03-9.11-2.01,5.91-3.51c2.3,3.54,6.11,5.67,10.33,5.76l-.19,6.7Z" />
    <path class="cls-2"
        d="M97.96,100.13v.02s-.22,0-.22,0c0,0,0,0,0,0l-.23,8.13,7.4-7.51,10.22-2.26h0s-6.98-4.39-6.98-4.39c-2.07,3.52-5.85,5.9-10.2,6.02Zm16.61-1.73l-9.77,2.16-7.06,7.17,.21-7.37c4.18-.12,8.08-2.38,10.27-5.95l6.34,3.99Z" />
    <path class="cls-2"
        d="M97.95,100.36l-.21,7.37,7.06-7.17,9.77-2.16-6.34-3.99c-2.19,3.57-6.09,5.83-10.27,5.95Zm10.34-5.65l5.71,3.59-9.19,2.03-.13,.03-.09,.09-6.63,6.73,.19-6.61c4.11-.18,7.92-2.39,10.13-5.86Z" />
    <polygon class="cls-2"
        points="97.42 75.66 97.49 75.66 97.49 68.46 97.48 68.47 97.4 75.66 97.42 75.66" />
    <path class="cls-2" d="M87.06,94.17v.08s.04-.02,.04-.02c-.01-.02-.03-.04-.04-.06Z" />
    <path class="cls-2"
        d="M97.59,75.66c4.73,0,8.84,2.69,10.88,6.62l6.65-4.01v-.02s-10.21-2.25-10.21-2.25l-7.42-7.54v7.2s.07,0,.1,0Zm.11-6.67l7.09,7.2,9.77,2.15-6.01,3.62c-2.17-4-6.3-6.49-10.85-6.53v-6.45Z" />
    <path class="cls-2"
        d="M108.55,81.97l6.01-3.62-9.77-2.15-7.09-7.2v6.45c4.55,.04,8.68,2.53,10.85,6.53Zm-10.63-12.45l6.67,6.78,.09,.09,.13,.03,9.18,2.02-5.35,3.23c-2.2-3.89-6.24-6.33-10.71-6.44v-5.71Z" />
    <path class="cls-2" d="M108.58,82.47l-.11-.19c.03,.06,.06,.13,.09,.2h.02Z" />
    <path class="cls-2" d="M87.11,94.25s-.01-.01-.01-.02v.02h.01Z" />
    <path class="cls-2" d="M87.11,94.26l.09,.16h.01c-.03-.06-.07-.11-.11-.16h0Z" />
    <path class="cls-2" d="M97.96,100.16v-.02c-.07,0-.14,.02-.22,.02h.22Z" />
    <path class="cls-2"
        d="M86.67,82.37l-.04-.04s.06-.05,.13-.11c1.99-3.78,5.89-6.39,10.43-6.54h0s.22-.01,.22-.01l.08-7.2-7.41,7.53-10.22,2.25h0s6.8,4.16,6.8,4.16c0-.01,.01-.03,.02-.04Zm-6.25-4.02l9.76-2.15,7.08-7.19-.07,6.45c-4.49,.14-8.53,2.67-10.62,6.65l-6.15-3.76Z" />
    <path class="cls-2"
        d="M97.18,75.45l.07-6.45-7.08,7.19-9.76,2.15,6.15,3.76c2.09-3.98,6.13-6.51,10.62-6.65Zm-10.71,6.35l-5.49-3.35,9.17-2.02,.13-.03,.09-.09,6.66-6.76-.07,5.7c-4.41,.21-8.36,2.68-10.49,6.55Z" />
    <path class="cls-2" d="M86.65,82.41l-.05,.08h.02s.02-.06,.04-.08Z" />
    <polygon class="cls-2" points="86.53 82.59 86.56 82.61 86.56 82.55 86.53 82.59" />
    <polygon class="cls-2" points="97.42 75.66 97.4 75.66 97.4 75.66 97.42 75.66" />
    <path class="cls-2" d="M86.63,82.33l.04,.04c.03-.05,.06-.1,.09-.16-.06,.06-.11,.1-.13,.11Z" />
    <path class="cls-2" d="M97.27,75.66h.13s-.22,0-.22,0h0s.06,0,.09,0h0Z" />
    <path class="cls-2" d="M97.27,75.66h0s.09,0,.13,0h-.13Z" />
    <polygon class="cls-2" points="86.85 94.25 86.85 94.27 87.05 94.26 87.06 94.25 86.85 94.25" />
    <polygon class="cls-2" points="87.06 94.25 87.05 94.26 87.11 94.26 87.11 94.25 87.06 94.25" />
    <polygon class="cls-2" points="87.11 94.25 87.11 94.25 87.11 94.26 87.12 94.26 87.11 94.25" />
    <polygon class="cls-2" points="86.56 82.61 86.56 82.61 86.56 82.61 86.56 82.61" />
    <path class="cls-2"
        d="M87.05,94.15l-.06-.11h0c-.06-.1-.11-.19-.16-.29v.42s.23,0,.23,0h0s0,0,0-.01Z" />
    <polygon class="cls-2" points="86.56 82.49 86.56 82.55 86.6 82.49 86.56 82.49" />
    <path class="cls-2" d="M86.99,94.04l.06,.11s-.04-.07-.06-.11h0Z" />
    <path class="cls-2" d="M86.61,82.49h-.02s-.04,.06-.04,.06v.06s0,0,0,0c.02-.04,.03-.08,.05-.12Z" />
    <path class="cls-2"
        d="M109.4,87.91c0-1.72-.38-3.37-1.09-4.9l-.27,10.35c.87-1.67,1.35-3.54,1.35-5.44Z" />
    <path class="cls-2" d="M96.68,99.66c-1.62-.5-4.83-1.61-7.16-3.13,1.94,1.82,4.44,2.92,7.16,3.13Z" />
    <path class="cls-2"
        d="M107.21,81.05c-2.18-3.06-5.68-4.92-9.5-4.95v.41c1.06,.31,6.79,2.07,9.5,4.54Z" />
    <path class="cls-2"
        d="M85.78,87.91c0,1.67,.36,3.3,1.03,4.8l-.22-9.07c-.53,1.35-.81,2.78-.81,4.26Z" />
    <path class="cls-2"
        d="M97.18,76.42v-.28s-.12,.01-.12,.01v-.04c-3.79,.17-7.21,2.13-9.29,5.25,2.06-1.68,6.43-4.94,9.35-4.94,.02,0,.04,0,.05,0Z" />
    <path class="cls-2"
        d="M107.9,82.56c-1.76-3.19-10.38-5.65-10.47-5.67h-.05s0-.01,0-.01c-3.32-.25-9.19,4.69-10.27,5.62-.02,.04-.05,.08-.07,.12-.02,.03-.02,.06-.04,.09l.27,10.91c.04,.07,.07,.14,.11,.21l.04-.02,.11,.2c.74,1.39,2.77,2.62,4.83,3.56v-2.42c-2.97-1.58-4.96-4.49-4.96-7.81,0-5.02,4.53-9.08,10.11-9.08s10.11,4.06,10.11,9.08c0,3.32-1.99,6.23-4.95,7.81v2.43h-10.29c2.67,1.22,5.4,1.96,5.45,1.97l.17,.04v.11c4.01-.13,7.75-2.32,9.79-5.79h-.17s.29-11.35,.29-11.35Z" />
    <path class="cls-2" d="M86.67,82.37s-.01,.03-.02,.04h0s.02-.04,.02-.04h0Z" />
    <path class="cls-2"
        d="M85.78,87.91c0-1.48,.28-2.91,.81-4.26l-.03-1.03c-.77,1.6-1.22,3.4-1.22,5.29,0,2.12,.54,4.11,1.49,5.85l-.03-1.04c-.67-1.5-1.03-3.14-1.03-4.8Z" />
    <path class="cls-2"
        d="M97.53,99.92c-.17-.05-.47-.14-.85-.25-2.72-.21-5.22-1.31-7.16-3.13-.98-.64-1.8-1.36-2.28-2.13h-.02c2.17,3.46,6,5.76,10.37,5.76,.05,0,.1,0,.14,0h0s0,0,0,0h-.22s0-.24,0-.24Z" />
    <path class="cls-2" d="M87.27,93.88l.1-.06c-.04-.07-.07-.14-.11-.21v.27Z" />
    <path class="cls-2"
        d="M87.11,82.49s-.08,.07-.11,.1v.11s.03-.06,.04-.09c.02-.04,.05-.08,.07-.12Z" />
    <path class="cls-2" d="M87.1,94.23l-.04-.07h0s.03,.04,.04,.07c0,0,0,0,0,0Z" />
    <path class="cls-2"
        d="M97.59,75.66s-.07,0-.1,0h.22v.43c3.82,.04,7.33,1.89,9.5,4.95,.4,.37,.74,.75,.98,1.14l.17-.1,.11,.19s0,0,0,0c-2.04-3.93-6.15-6.62-10.88-6.62Z" />
    <path class="cls-2"
        d="M108.32,83c.71,1.54,1.09,3.18,1.09,4.9,0,1.91-.48,3.77-1.35,5.44v.56s-.28,0-.28,0c-2.05,3.47-5.78,5.67-9.8,5.79v.44c4.33-.12,8.11-2.5,10.18-6.02,1.07-1.82,1.69-3.94,1.69-6.21,0-1.95-.46-3.79-1.28-5.43l-.23,.14v.39Z" />
    <path class="cls-2"
        d="M97.05,76.11v.04h.12s0-.48,0-.48c-4.54,.15-8.44,2.76-10.43,6.54,.18-.16,.54-.46,1.02-.85,2.08-3.12,5.5-5.08,9.29-5.25Z" />
    <path class="cls-2"
        d="M97.61,76.1v.79s-.24-.02-.24-.02h.05c.09,.04,8.71,2.5,10.47,5.69v-.07s.19,0,.19,0c0,0,0,0,0-.01-.26-.5-.56-.98-.88-1.43-2.71-2.47-8.44-4.23-9.5-4.54v-.41s-.02,0-.03,0h-.06Z" />
    <path class="cls-2"
        d="M108.19,82.19c-.24-.4-.58-.78-.98-1.14,.32,.45,.62,.93,.88,1.43,0,0,0,0,0,.01h.24s0,.12,0,.12l.23-.14c-.03-.07-.06-.14-.09-.2l-.11-.19-.17,.1Z" />
    <path class="cls-2" d="M97.61,76.1h.06s.02,0,.03,0v-.43h-.09s0,.43,0,.43Z" />
    <path class="cls-2"
        d="M108.03,82.8l-.11-.2s-.02-.03-.03-.04l-.29,11.34h.17s0,0,0,0c.1-.18,.18-.36,.27-.54l.27-10.35c-.05-.1-.09-.2-.13-.3l-.16,.09Z" />
    <path class="cls-2" d="M107.77,93.9h.27s.01-.55,.01-.55c-.09,.18-.17,.37-.27,.54,0,0,0,0,0,0Z" />
    <path class="cls-2" d="M108.32,83v-.39s-.13,.09-.13,.09c.05,.1,.09,.2,.13,.3Z" />
    <path class="cls-2"
        d="M107.9,82.56s.02,.03,.03,.04l.11,.2,.16-.09c-.03-.07-.06-.14-.09-.21h-.19s0,.06,0,.06Z" />
    <path class="cls-2" d="M108.33,82.62v-.12s-.24,0-.24,0c.04,.07,.06,.14,.09,.21l.14-.09Z" />
    <path class="cls-2"
        d="M97.81,99.54s-2.78-.76-5.45-1.97h-.02c-2.06-.95-4.08-2.17-4.83-3.57l-.11-.2-.04,.02s.04,.08,.06,.12l.02,.03,.02,.03c.57,.95,1.27,1.79,2.05,2.52,2.33,1.53,5.53,2.63,7.16,3.13,.3,.02,.61,.06,.91,.06h.03s.05,0,.08,0h.02s.02,0,.02,0c.08,0,.16-.02,.24-.02v-.11s-.16-.04-.16-.04Z" />
    <path class="cls-2"
        d="M89.52,96.53c-.78-.73-1.47-1.57-2.05-2.52l-.02-.03-.02-.03s-.04-.08-.06-.12l-.1,.06v.28s-.21,0-.21,0l.04,.07s.01,.01,.01,.02h0c.03,.06,.07,.1,.11,.16h.02c.48,.76,1.3,1.48,2.28,2.12Z" />
    <path class="cls-2"
        d="M97.73,99.72h-.04s-.05,0-.08,0h-.03c-.31,0-.61-.04-.91-.06,.38,.12,.68,.2,.85,.25v.23s.21,0,.21,0c.07,0,.14-.01,.22-.02v-.44c-.06,0-.14,.02-.22,.02Z" />
    <path class="cls-2"
        d="M97.38,76.87l-.11-.03v-.71h-.09s0,.3,0,.3c-.02,0-.04,0-.05,0-2.93,0-7.3,3.26-9.35,4.94-.24,.36-.46,.74-.66,1.13,1.08-.93,6.95-5.87,10.27-5.62h0Z" />
    <path class="cls-2"
        d="M86.99,82.48v.1s.07-.06,.11-.1c.2-.39,.42-.77,.66-1.13-.48,.39-.84,.7-1.02,.85-.03,.05-.06,.1-.09,.16h0s-.02,.04-.02,.04c-.01,.03-.02,.06-.04,.08h.38Z" />
    <path class="cls-2" d="M97.27,76.13v-.46s-.06,0-.09,0v.46s.09-.01,.09-.01Z" />
    <polygon class="cls-2"
        points="97.38 76.87 97.61 76.89 97.61 76.1 97.53 76.1 97.27 76.13 97.27 76.84 97.38 76.87" />
    <path class="cls-2"
        d="M97.27,75.67v.46l.26-.03h.09s0-.43,0-.43h-.19s-.02,0-.02,0c-.04,0-.09,0-.13,0Z" />
    <polygon class="cls-2" points="87.28 94.25 87.11 94.25 87.12 94.26 87.28 94.25" />
    <path class="cls-2"
        d="M86.58,83.64l.22,9.07c.14,.31,.29,.61,.46,.9l-.27-10.91c-.15,.31-.29,.63-.41,.95Z" />
    <path class="cls-2" d="M87.05,94.15s0,0,0,.01h0s0,0,0,0h0Z" />
    <path class="cls-2"
        d="M87.27,93.88v-.27c-.17-.3-.33-.59-.46-.9l.03,1.04c.05,.1,.1,.19,.16,.29l.28-.16Z" />
    <path class="cls-2"
        d="M87,82.7v-.11s-.07,.06-.08,.07l-.12,.11-.24-.15s0,0,0,0l.03,1.03c.12-.32,.26-.64,.41-.95Z" />
    <path class="cls-2"
        d="M87.05,94.15h0s.22,0,.22,0v-.28s-.29,.16-.29,.16c.02,.04,.04,.07,.06,.11Z" />
    <path class="cls-2"
        d="M86.61,82.49s-.03,.08-.05,.12l.24,.15,.12-.11s.04-.03,.08-.07v-.1s-.38,0-.38,0Z" />
    <path class="cls-2"
        d="M99.39,90.05c0,1.57,1.28,2.85,2.85,2.85s2.85-1.28,2.85-2.85-1.28-2.85-2.85-2.85-2.85,1.28-2.85,2.85Z" />
    <path class="cls-2"
        d="M95.77,90.05c0-1.57-1.28-2.85-2.85-2.85s-2.85,1.28-2.85,2.85,1.28,2.85,2.85,2.85,2.85-1.28,2.85-2.85Z" />
    <path class="cls-2"
        d="M98.32,88.38c.17,0,.33-.06,.46-.19l1.85-1.84c.26-.25,.26-.67,0-.92-.25-.26-.67-.26-.92,0l-1.85,1.84c-.26,.25-.26,.67,0,.92,.13,.13,.3,.19,.46,.19Z" />
    <path class="cls-2"
        d="M94.08,85.43c-.25,.26-.25,.67,0,.92l1.85,1.84c.13,.13,.29,.19,.46,.19s.34-.06,.46-.19c.25-.26,.25-.67,0-.92l-1.85-1.84c-.26-.25-.67-.25-.92,0Z" />
    <polygon class="cls-2" points="99 93.42 97.49 90.8 95.97 93.42 99 93.42" />
</svg>
