<?xml version="1.0" encoding="UTF-8"?>
<svg id="_Слой_1" data-name="Слой 1" xmlns="http://www.w3.org/2000/svg" viewBox="0 0 196 136">
    <defs>
        <style>
            .cls-1 {
            fill: #d4d4d4;
            }
        </style>
    </defs>
    <path class="cls-1"
        d="M144.97,74.5c-3.1,0-6.19,0-9.29,0-.36,0-.62-.07-.66-.48,0,0,0,0,0,0,.04-.44,.03-.88,0-1.31h0s0,0,0,0v-1.47c.11-.56,.35-1.05,.81-1.41h0l.75-.25s0,0,0,0h0c.67,0,1.34,0,2.01,0,1.35,0,2.71,0,4.06,0,.51,0,.59-.08,.59-.6,0-.31-.01-.63-.02-.94,0,0,0,0,0,0,0-.31,.02-.63,.02-.94,0-.63-.05-.68-.67-.68-3.33,0-6.67,0-10,0-.11,0-.23,0-.34,.03-.03,0-.06,0-.09,.03-.29,.09-.24,.33-.24,.54,0,3.34,0,6.68,0,10.02,0,.14-.05,.3,.08,.42,0,0,0,0,0,0l.08,.17h13.38c.19-.15,.23-.35,.23-.58,0-.63,0-1.26,0-1.88,0-.62-.05-.67-.68-.67Zm-13-1.21h0s0,0,0,0h0Zm.35-6.8s0,.02,0,.03c0,0-.02-.01-.02-.03h.02Z" />
    <path class="cls-1"
        d="M36.23,74.67s0,0,0,0c-.14-.28-.09-.62-.27-.89h0c-.04-.29-.11-.57-.24-.83h0c-.06-.19-.11-.38-.17-.57h0s0,0,0,0c-.02-.2-.07-.39-.17-.57,0,0,0,0,0,0-.04-.29-.12-.57-.24-.83,0,0,0,0,0,0-.07-.39-.18-.78-.33-1.14h0c-.03-.28-.12-.55-.23-.81,0,0,0,0,0,0,0,0,0,0,0,0l-.19-.65h0c-.08-.25-.15-.49-.23-.74,0,0,0,0,0,0,0,0,0,0,0,0-.02-.32-.13-.62-.25-.91-.04-.29-.12-.57-.24-.83h0c-.02-.22-.09-.43-.18-.64h0c-.1-.47-.23-.94-.41-1.39h0s0,0,0,0c-.17-.64-.31-1.29-.56-1.91-.27-.97-.55-1.94-.82-2.91-.07-.25-.17-.48-.34-.67h-2.95c-.06,.14-.11,.27-.06,.43,.41,1.36,.81,2.73,1.22,4.09,.12,.44,.25,.88,.37,1.32h0c.12,.41,.24,.81,.37,1.22h0s0,0,0,0c.01,.28,.19,.52,.15,.81,0,0,0,0,0,0-.14,.18-.34,.19-.55,.19-1.55,0-3.1,0-4.65,0-.8,0-.89,.08-1.03,.87-.12,.27-.21,.54-.24,.83,0,0,0,0,0,0,0,0,0,0,0,0-.1,.18-.15,.37-.17,.57,0,0,0,0,0,0,0,0,0,0,0,0-.13,.29-.24,.58-.27,.9,0,0,0,0,0,0h0c-.13,.35-.26,.7-.31,1.07,0,0,0,0,0,0h0c-.12,.28-.22,.57-.26,.88,0,0,0,0,0,0-.13,.26-.2,.54-.24,.83-.12,.26-.2,.54-.24,.83,0,0,0,0,0,0-.12,.26-.2,.54-.24,.82,0,0,0,0,0,0-.1,.2-.18,.4-.18,.63h0c-.05,.14-.1,.27-.15,.41-.22,.72-.44,1.44-.66,2.16-.07,.35,.06,.43,.41,.42,.87-.03,1.75-.01,2.63-.01,.08-.15,.23-.25,.28-.44,.22-.81,.46-1.62,.69-2.43,.09-.33,.25-.64,.28-.98,0,0,0,0,0,0h0c.12-.23,.18-.48,.22-.74,0,0,0,0,0,0h0c.08-.27,.16-.55,.24-.82,.08-.21,.17-.42,.18-.66,0,0,0,0,0,0,.12-.29,.23-.59,.25-.9,.17-.31,.18-.69,.4-.99h0s0,0,0,0c.06-.03,.12-.06,.17-.1,0,0,0,0,0,0,0,0,0,0,0,0,.92,0,1.85,.03,2.77-.01,.67-.03,1.23,.16,1.71,.61,0,0,0,0,0,0h0c.2,.27,.34,.57,.45,.89h0c.05,.28,.13,.56,.24,.82,0,0,0,0,0,0,.02,.17,.06,.34,.15,.5,0,0,0,0,0,0h0c.02,.2,.07,.39,.17,.57h0c.04,.29,.11,.56,.24,.82h0s0,0,0,0c.04,.34,.17,.66,.27,.98h0c.21,.73,.43,1.46,.62,2.2,.07,.26,.17,.48,.35,.67h2.95c.05-.14,.1-.27,.05-.43-.26-.84-.51-1.69-.77-2.54Z" />
    <path class="cls-1"
        d="M145.43,58.35h-5.83s-3.78,0-3.78,0h-.08s-3.69,0-3.69,0c-.12,.18-.17,.38-.17,.61,.01,.61,0,1.23,0,1.84,0,.17-.07,.36,.08,.51h0c.06,.16,.19,.18,.33,.18,1.34,0,2.68-.01,4.02-.02,1.12,0,2.24,0,3.36,0,0,0,0,0,0,0h3.69c.61,0,1.22,.01,1.83,.02,.18,0,.36-.02,.39-.26h0s0-.02,0-.03c.03-.12,.04-.23,.03-.35,.06-.72,0-1.44,0-2.15,0-.15-.12-.24-.21-.34Z" />
    <path class="cls-1"
        d="M174.73,75.34s0,0,0,0c0-.41,0-.82,0-1.23h0s0,0,0,0v-1.15s0,0,0,0v-2.22h0s0,0,0,0v-1.23s0,0,0,0c0,0,0,0,0,0,0-.33,0-.66,0-.98h0v-.82s0,0,0,0v-1.15h0s0,0,0,0v-1.89s0,0,0,0h0v-1.8s0,0,0,0h0c0-1.36,0-2.72,.02-4.08,0-.18-.09-.3-.19-.43h-3.28s0,.05-.01,.08h0c-.19,0-.27,.15-.35,.29-.38,.67-.76,1.33-1.14,2,0,0,0,0,0,0h0l-1.23,2.13c-.37,.59-.73,1.19-1.04,1.82h0c-.27,.39-.5,.81-.72,1.24h0c-.36,.51-.36,.51-.69-.05-.12-.21-.25-.41-.38-.61-.57-1.06-1.16-2.1-1.8-3.12,0,0,0,0,0,0h0c-.61-1.07-1.22-2.13-1.81-3.2-.13-.23-.28-.43-.5-.57h-3.28c-.05,.08-.1,.16-.15,.25,0,0,0,0,0,0,0,0,0,0,0,0-.06,.68-.03,1.37-.01,2.05v2.87h0v2.3h0v1.72s0,0,0,0c0,0,0,0,0,0v1.89s0,0,0,0v1.97s0,0,0,0h0v1.81h0v1.56h0c0,.81,0,1.63-.02,2.44,0,.18,.09,.3,.18,.43h2.79c.07-.14,.18-.25,.17-.44-.02-.73-.02-1.46-.02-2.19h0v-3.04s0,0,0,0c0,0,0,0,0,0,0-.63,0-1.26,0-1.89,0,0,0,0,0,0,0,0,0,0,0,0v-1.48h0v-1.89h0v-1.64s0,0,0,0c0-.18,0-.35,.02-.53,0-.12-.04-.27,.11-.31,.16-.04,.2,.11,.26,.21,.31,.51,.61,1.03,.92,1.54h0c.33,.65,.69,1.27,1.08,1.88h0s0,0,0,0c.17,.41,.41,.78,.66,1.14h0c.17,.38,.39,.74,.62,1.08h0c.4,.7,.78,1.4,1.19,2.09,.2,.35,.44,.35,.65,0,.29-.48,.55-.97,.82-1.46,0,0,0,0,0,0,0,0,0,0,0,0,.22-.26,.35-.58,.5-.88,0,0,0,0,0,0,0,0,0,0,0,0,.23-.31,.42-.65,.58-1,0,0,0,0,0,0,0,0,0,0,0,0,.22-.31,.41-.64,.56-.98,0,0,0,0,0,0h0c.26-.3,.38-.67,.56-1.01,0,0,0,0,0,0h0c.24-.25,.37-.57,.53-.87h0c.24-.35,.45-.71,.62-1.09,.12-.19,.24-.39,.37-.58,.04-.06,.09-.11,.17-.1,.1,.02,.12,.09,.12,.18,0,.11,0,.22,0,.33,0,2.79,0,5.59,.01,8.38,0,0,0,0,0,0,0,0,0,0,0,0,0,1.36,0,2.72-.01,4.09,0,.09,0,.19,.08,.26h0c.03,.06,.05,.11,.08,.17h2.79c.1-.13,.19-.25,.19-.43-.02-.62-.02-1.25-.02-1.87Zm-3.04-.33s0,0,0,0c0,0,0,0,0,0h0Z" />
    <path class="cls-1"
        d="M106.5,58.77c0-.18-.1-.31-.22-.42h-2.71c-.06,.07-.17,.11-.17,.23h0c-.09,.09-.06,.21-.06,.31,0,6.07,0,12.14,0,18.22,0,.22,.05,.4,.24,.53h1.56s1.15,0,1.15,0c.2-.17,.22-.39,.22-.63,0-4.28,0-8.56,0-12.83,0-.11-.02-.22-.03-.32,0,0,0,0,0,0h0s0,0,0,0h0c.07-1.69,.01-3.38,.03-5.08Z" />
    <path class="cls-1"
        d="M115.15,58.35c-.33,.4-.14,.87-.16,1.31h0v1.89h0v2.71c0,.17,0,.35-.02,.52-.03,.51,.08,1.02-.08,1.52,0,0,0,0,0,0,0,0,0,0,0,0-.15,.11-.33,.1-.51,.1-1.04,0-2.07,0-3.11,0-.44,0-.55,.11-.55,.56,0,.42-.02,.85,0,1.27,.02,.37-.09,.76,.07,1.12,.09,.23,.29,.21,.48,.21,.64,0,1.28,0,1.92,0,.43,0,.8,.14,1.13,.41,.38,.31,.55,.73,.66,1.18,0,0,0,0,0,0h0c0,.65,0,1.3,0,1.95,0,0,0,0,0,0,0,0,0,0,0,0,0,.96,0,1.91,0,2.87,0,0,0,0,0,0,0,0,0,0,0,0,0,.28-.02,.56-.02,.85,0,.28-.06,.57,.18,.79h2.79c.13-.17,.21-.35,.15-.57h0s0,0,0,0c0-1.7,0-3.39,0-5.09h0s0,0,0,0c0-.47,0-.93,0-1.4h0v-3.45s0,0,0,0v-4.51s0,0,0,0c0,0,0,0,0,0v-2.63h0c0-.2,.02-.4,.01-.6-.02-.35,.11-.73-.16-1.04h-2.79Z" />
    <path class="cls-1"
        d="M64.43,58.35h-2.79c-.06,.1-.2,.16-.17,.31,0,0,0,0,0,0-.07,.14-.04,.29-.04,.44,0,3.18,0,6.36,0,9.55,0,.93,0,1.86,0,2.79,0,.11,.03,.23-.08,.3-.14,.08-.18-.07-.27-.12h0c-.1-.26-.24-.5-.42-.72,0,0,0,0,0,0-.22-.45-.45-.88-.75-1.28,0,0,0,0,0,0,0,0,0,0,0,0-.23-.5-.5-.97-.81-1.43-.23-.44-.44-.89-.75-1.28,0,0,0,0,0,0,0,0,0,0,0,0-.38-.73-.77-1.46-1.23-2.15h0s0,0,0,0c-.59-1.1-1.21-2.18-1.87-3.23-.21-.45-.47-.88-.75-1.3h0c-.27-.35-.36-.81-.66-1.14,0,0,0,0,0,0-.13-.3-.28-.57-.58-.73h-3.28c-.3,.44-.12,.93-.15,1.39v1.48h0c0,.55,0,1.09,0,1.64v1.97s0,0,0,0v2.95h0v1.48s0,0,0,0v1.72s0,0,0,0v1.48s0,0,0,0v.66h0c0,.16,0,.33,0,.49h0c0,.25,0,.49,0,.74v.66c0,.69,0,1.38-.02,2.07,0,.21,.05,.39,.17,.56h2.79c.09-.13,.19-.25,.18-.43-.01-.73-.01-1.46-.02-2.19v-.74h0v-.57h0c0-.22,0-.44,0-.66,0,0,0,0,0,0,0-.16,0-.33,0-.49h0c0-.25,0-.49,0-.74,0-.27,0-.55,0-.82h0v-1.81s0,0,0,0h0v-1.56h0s0,0,0,0c0-.57,0-1.15,0-1.72,0-.43,.02-.86,.02-1.3,0-.12,0-.24,.06-.33,.03-.03,.07-.05,.1-.09,0,0,0,0,0,0,.33,.33,.46,.78,.74,1.14h0c.33,.62,.67,1.22,1.05,1.81,0,0,0,0,0,0,0,0,0,0,0,0,.22,.46,.48,.89,.75,1.31,.25,.48,.5,.95,.81,1.39h0c.22,.46,.48,.89,.75,1.31h0c.1,.23,.23,.46,.39,.66,0,0,0,0,0,0,.12,.3,.29,.57,.48,.83h0c.08,.21,.19,.4,.33,.57,.14,.25,.28,.49,.41,.74h0s0,0,0,0c.11,.19,.23,.38,.34,.57,.09,.24,.23,.46,.38,.67h0c.49,.83,.86,1.73,1.51,2.45h3.28c.25-.16,.24-.4,.24-.65,0-5.99,0-11.98,0-17.98,0-.15,.05-.3-.06-.43-.03-.07-.07-.15-.1-.22Zm-11.3,5.83s0,0,0,0h0s0,0,0,0Z" />
    <path class="cls-1"
        d="M91.33,59.75c-.01-.36,.07-.72-.03-1.08,0-.05,0-.1-.04-.14,0,0,0,0,0,0h0s0,0,0,0c-.03-.06-.05-.12-.08-.17h-1.07s0,0,0,0h-3.36s-10.01,0-10.01,0c-.03,.07-.06,.14-.09,.21-.11,.12-.06,.26-.06,.39,0,.65,0,1.31,0,1.96,0,.5,.07,.57,.57,.57,1.54,0,3.08,0,4.62,0,.24,0,.46,.03,.62,.24h0c0,.85,.02,1.69,.03,2.54,0,0,0,0,0,0,0,0,0,0,0,0v1.81h0v1.89c0,.79,0,1.59,0,2.38h0v1.48s0,0,0,0v1.72h0v.66s0,0,0,0c0,.19,0,.38,0,.57,0,0,0,0,0,0v1.4s0,0,0,0v.57h0c-.01,.31-.09,.63,.15,.9h2.79s0-.05,0-.08c0,0,0,0,0,0,0,0,0,0,0,0,.28-.17,.14-.43,.15-.66,0,0,0,0,0,0,0,0,0,0,0,0v-.57s0,0,0,0v-1.48s0,0,0,0v-.9s0,0,0,0v-.82c0-.19,0-.38,0-.57,0,0,0,0,0,0v-.99h0c0-.55,0-1.09,0-1.64h0v-1.97h0c0-.68,0-1.37,0-2.05,0,0,0,0,0,0h0c.07-1.06-.07-2.13,.09-3.19,0,0,0,0,0,0,0,0,0,0,0,0,.25-.56,.65-.95,1.23-1.16h0c.35-.02,.71-.05,1.06-.06,.97,0,1.94,0,2.91,0,.47,0,.54-.08,.54-.55,0-.4,0-.79-.01-1.19-.02-.02-.03,0-.05,0h.01s.03,0,.03,0Zm-2.69,.08s0,0-.01,0c0,0,0,0,0,0,0,0,0,0,0,0,0,0,0,0,0,0h0Zm-6.91-.24s0,0,0,0c0,0,.01,0,.02,0,0,0-.01,0-.02,0Z" />
</svg>
