<?xml version="1.0" encoding="UTF-8"?>
<svg id="_Слой_1" data-name="Слой 1" xmlns="http://www.w3.org/2000/svg" viewBox="0 0 196 136">
    <defs>
        <style>
            .cls-1 {
            fill: #d4d4d4;
            }
        </style>
    </defs>
    <path class="cls-1"
        d="M134.21,77.91c-.31-.08-.64-.13-.94-.24-.62-.21-1.22-.47-1.84-.67-.29-.09-.61-.15-.92-.14-2.65,.09-5.31,.2-7.96,.28-1.2,.04-2.41,.04-3.61,0-.46-.02-1.13,.16-1.17-.69,0-.08-.39-.2-.6-.2-2.08,.08-4.17,.19-6.25,.28-.83,.04-1.66,.05-2.49,.09-1.22,.06-2.44,.19-3.66,.18-1.13-.01-2.27-.27-3.39-.23-1,.03-1.99,.39-2.99,.48-.89,.08-1.79-.02-2.68,.01-.63,.02-1.26,.1-1.89,.2-1.41,.24-2.8,.32-4.22-.06-.49-.13-1.06,.03-1.61,.06-.23-1.21-.7-1.45-2.02-1.2-.96,.18-1.94,.22-2.92,.28-1.35,.08-2.73-.03-4.05,.21-1.36,.25-2.65,.31-3.98-.03-.08-.02-.2,.09-.31,.14,.03,.07,.05,.14,.08,.21,.46,.09,.92,.17,1.38,.26,.01,.08,.03,.17,.04,.25l-2.25,.34c-.71-1.37-1.87-.5-2.78-.46-3.53,.15-7.05,.43-10.57,.69-.55,.04-1.1,.21-1.65,.33,0,.08,.01,.17,.02,.25,.45,.08,.9,.15,1.46,.24-.55,.73-1.83-.23-2.03,1.04-.11-.79-.22-1.57-.34-2.39-.86,.07-1.41,.56-1.66,1.28-.21,.6-.53,.68-1.13,.54,.08-.44,.17-.89,.27-1.45-1.93,.2-3.81,.4-5.7,.6l.07-.33c-.32-.16-.64-.48-.95-.46-2.55,.12-5.1,.31-7.64,.48-.73,.05-1.47,.17-2.18,.07-.35-.05-.63-.54-.94-.83,.05-.13,.11-.25,.16-.38,.68,0,1.37,.02,2.05,0,.81-.02,1.62-.07,2.43-.12,.09,0,.23-.01,.24-.06,.49-1.19,1.55-.47,2.32-.64,.82-.18,1.72-.06,2.59-.05,.52,0,1.04,.09,1.55,.04,.16-.02,.37-.31,.44-.52,.2-.64,.38-1.29,.5-1.95,.34-1.88,.92-3.61,2.57-4.78,.15-.11,.22-.32,.36-.53-.33-.29-.63-.55-1.03-.9-.18,.35-.33,.64-.58,1.11-.18-.55-.31-.98-.51-1.61-.37-.09-.91-.21-1.53-.35,.5-2.26,1.02-4.65,1.51-6.88,.14,.52,.33,1.12,.45,1.73,.03,.17-.13,.37-.19,.56-.31,.94-.64,1.87-.91,2.81-.23,.78-.12,1.45,.85,1.7,1.58-4.91,3.16-9.85,4.75-14.78,.08-.03,.17-.05,.25-.08,.28,1.43,1.18,.38,1.74,.67,.05-.06,.1-.13,.16-.19-.39-.48-.73-1.02-1.2-1.41-.42-.35-.47-.67-.3-1.13,.58-1.55,1.17-3.1,1.7-4.67,.39-1.16,.13-1.44-1.03-1.23-.52-1.37,2.48-7.25,5.08-10.37-.27,.86-.53,1.71-.8,2.57,.09,.06,.18,.11,.27,.17,.18-.27,.36-.54,.55-.8,.13-.18,.3-.5,.44-.5,.97,.03,1.95,.11,2.92,.21,.95,.1,1.9,.38,2.83,.33,2.93-.15,5.85-.45,8.78-.62,1.89-.11,3.79-.13,5.68-.12,1.12,0,2.25,.19,3.37,.21,.95,.02,1.9-.14,2.85-.11,.6,.02,1.19,.24,1.78,.36,.09,.02,.18-.02,.27-.03,1.24-.15,2.49-.29,3.73-.46,.54-.07,1.27,.33,1.52-.55,.29,.1,.59,.21,.68,.24,.4-.13,.68-.27,.96-.31,.37-.04,.76-.05,1.13,.02,.35,.06,.68,.25,1.03,.35,.42,.11,.86,.27,1.28,.25,2.41-.14,4.82-.35,7.23-.49,.21-.01,.43,.3,.67,.48,.65-.74,1.44-.58,1.84,.61,.25,.75,.63,.73,1.2,.68,2.91-.25,5.81-.57,8.72-.71,4.09-.19,8.17-.09,12.24,.46,1.5,.2,3.02,.31,4.52,.49,.78,.1,1.29,.59,1.16,1.39-.27,1.71,.57,2.74,1.92,3.55,.73,.43,1.42,.92,2.1,1.42,.29,.21,.5,.51,.64,.9-.28-.15-.55-.31-.83-.46-.03,.04-.05,.07-.08,.11,.43,.34,.86,.68,1.31,1.03-1.83,2.26-1.56,4.68-1.48,7.06,.05,1.63,.11,3.26,.11,4.89,0,.34-.23,.68-.31,1.04-.11,.38-.28,.76-.31,1.15-.06,.82-.16,1.68-.01,2.48,.2,1.06,.61,2.07,.99,3.28,.51,.2,.76,.68,.68,1.56-.18,2.02-.2,4.04-.3,6.07-.03,.62,.3,.85,.86,.81,.9-.05,1.8-.12,2.7-.19,.62-.05,1.24-.17,1.86-.18,.34,0,.68,.15,.82,.19,.55-.05,.92-.08,1.29-.12,.89-.1,1.69-.12,2.57,.37,.56,.31,1.47,0,2.22-.04,.67-.03,1.34-.14,1.99-.09,.33,.03,.62,.36,.95,.51,.27,.12,.57,.25,.86,.25,1.13,0,2.27-.06,3.4-.09,.17,0,.33,.04,.54,.06,.28,2.73,.56,5.42,.84,8.12,.1,0,.21,0,.31,0v-1.83c.1,0,.2,0,.3,0,.14,1.8,.28,3.6,.42,5.4-.08,.02-.17,.05-.25,.07-.19-.32-.37-.65-.69-1.19v6.52c-.12,.04-.44,.15-.76,.25,.45,.79,.89,1.56,1.46,2.56-19.4,1.04-38.66,2.08-57.95,3.11-.07-.63-.22-1.04,.44-1.09,1.24-.1,2.49-.19,3.73-.32,1.68-.18,3.37-.62,5.02-.51,1.04,.07,1.78-.34,2.38-.81,1-.78,2.06-.49,3.09-.54,2.45-.12,4.9-.15,7.36-.19,.54,0,1.08-.03,1.28-.58,.31-.84,1.02-.58,1.69-.71,.05-.33,.1-.68,.19-1.3,.23,1.16,.42,2.07,.66,3.26,.64-.6,1.26-.97,1.54-1.51,.28-.56,.57-.63,1.13-.51-.04,.32-.08,.62-.16,1.18,1.88-.09,3.7-.18,5.52-.27l-.08,.25c.26,.15,.52,.42,.78,.42,1.1-.02,2.22-.03,3.31-.22,.5-.09,.96-.55,1.38-.91,.09-.08-.03-.48-.14-.69-.26-.51-.57-.99-.73-1.61,.13,.1,.28,.19,.38,.31,.11,.13,.18,.3,.27,.45q.81,1.42,2.4,1.17c-.17-.14-.34-.28-.51-.42,.14-.13,.26-.28,.41-.38,1.05-.77,2.16-.76,3.36-.34,.84,.3,1.74,.44,2.7,.67-.21,.1-.36,.17-.65,.32,1.02,.15,1.9,.28,2.78,.41,.16-1.28,.27-1.35,1.46-1.24,.48,.04,.98,0,1.63,0v-9.14c.55-.13,1.01-.1,1.17-.3,.36-.47,.02-1.9-.43-2.1-.13,.4-.26,.8-.39,1.2-.09,0-.17,0-.26-.01v-4.19c-.13,0-.26,0-.38,0v2.99c-.11,0-.21,0-.32,0v-3.07c-1.1-.13-1.94-1.17-3-.19-.1-.35-.23-.57-.21-.79,.06-1.19-.56-1.26-1.55-1.14-1.3,.16-2.64,.21-3.95,.13-.43-.03-.82-.06-1.22,.05-.13,.03-.25,.12-.37,.19-.26,.15-.52,.44-.79,.44-1.13,.03-2.26-.1-3.38-.03-1.37,.08-2.72,.31-4.17,.48,.07,.85,.13,1.64,.19,2.42-.05,0-.09,.02-.14,.03-.07-.28-.14-.56-.24-1-1.63,.15-3.27,.3-4.84,.44-.25,.53-.44,.95-.63,1.37h2.66c.05,.93,.1,1.88,.16,2.93-1.2,.06-2.32,.12-3.47,.18v.96h3.25c0,.75,.06,1.5-.04,2.23-.03,.23-.48,.55-.77,.58-.74,.08-1.5,.03-2.29,.03v1.18h3.59c.04,.94,.09,1.88,.13,2.95-2.5,.11-4.94,.21-7.52,.32-.16-3.72-.32-7.37-.48-11.09,1.27-.08,2.45-.15,3.63-.22,0-.05,.02-.11,.03-.16Zm-27.2-39.34c-.04,.06-.09,.12-.13,.18,.36,.3,.71,.59,1.27,1.05h-1.86c.42-.17,.66-.27,.9-.37-.47-.23-1.22-.43-1.21-.62,.02-.9-.61-.58-.86-.68-.09,.36-.17,.68-.21,.84-.53-.42-.95-1.05-1.43-1.1-2.29-.24-4.6-.4-6.91-.44-4.32-.06-8.65-.02-13-.02-.1,3.23-.2,6.53-.3,9.82-.44-.76-.76-1.51-1.03-2.27-.67-1.87-1.31-3.75-2-5.61-.1-.26-.32-.64-.54-.67-1.1-.17-2.21-.26-3.32-.46-1.32-.23-2.81-.46-4.17,.21-.11,.05-.28,0-.43-.02-.51-.09-1.03-.31-1.53-.28-.96,.06-1.91,.28-2.87,.41-.43,.06-.89-.02-1.29,.1-.59,.18-1.11,.57-.92,1.27,.17,.65,.02,1.03-.51,1.4-.25,.18-.4,.56-.52,.88-.22,.6-.37,1.23-.58,1.84-.65,1.91-1.31,3.81-1.95,5.72-.09,.27-.19,.61-.1,.84,.27,.66-.13,.93-.6,1.16,.24,.73-1.4,6.24-1.94,6.65,.15,.23,.29,.46,.3,.48-.56,.62-1.05,1.1-1.45,1.63-.5,.67-.4,1.65-1.2,2.25-.2,.15-.83,.95-.31,1.63,.08,.1-.04,.39-.1,.57-.38,1.07-.77,2.14-1.15,3.2-.34,.96-.68,1.92-1.04,2.96,.38,.12,.7,.28,1.03,.32,.78,.08,1.56,.09,2.34,.15,1.29,.1,2.58,.23,3.87,.34,.48,.04,1.03,.22,1.41,.04,.53-.25,.84-.2,1.23,.16,.12,.11,.34,.14,.52,.15,.56,.02,1.11,0,1.54,0,.43-.26,.82-.49,1.22-.73-.05-.13-.23-.38-.18-.57,.35-1.4,.74-2.79,1.13-4.22,.16,.13,.26,.28,.37,.28,2.71,.01,5.42,.01,8.16,.01,.29,1.2,.51,2.23,.78,3.24,.07,.24,.29,.61,.47,.62,1.7,.15,3.4,.27,5.11,.35,.75,.03,1.47,.01,1.66,.93-.49-.02-.99-.05-1.7-.08,.9,.81,2.03,.28,2.64,1.11,0,.01,.09-.04,.15-.05,.38-.05,.78-.2,1.14-.12,2.83,.58,5.65,1.19,8.46,1.83,.31,.07,.57,.38,.99,.67,.43-3.87,.12-7.75,.44-11.6,2.44-.12,4.84-.2,7.23-.36,1.03-.07,2.12-.12,3.07-.49,1.33-.51,2.54-1.32,3.92-2.06v8.88c.13,0,.23,.02,.3,0,.84-.26,1.56-.34,1.65,.86,0,.13,.2,.32,.33,.35,1.2,.24,2.41,.53,3.62,.66,1.35,.14,2.73,.09,4.08,.19,1.3,.1,2.59-.44,3.89-.06,.05,.02,.11,.01,.17,0,.74-.1,1.47-.22,2.21-.31,.1-.01,.21,.07,.31,.11,1.5,.63,2.55,.09,2.87-1.46,0-.04,.08-.08,.12-.11,.52,.62,.74,.61,1.11,.09,.7-.03,1.37,.13,1.79-.12,.78-.46,1.13-.27,1.38,.49,.17-.03,.31-.11,.43-.08,.91,.24,1.66,.09,2.24-.74,.18-.25,.54-.38,.92-.62,.09-.21,.26-.6,.43-1,.07,0,.15,.01,.22,.02v1.14c.1,0,.21,0,.31,0,.02-.32,.16-.73,.02-.96-.44-.72-.19-1.17,.33-1.48,.07-.94-.05-1.87,.24-2.63,.79-2.05,.16-3.88-.61-5.72-.47-1.12-1.18-2.07-2.32-2.61-.89-.42-1.78-.87-2.71-1.32,1.21-.79,2.48-1.37,3.05-2.99,.45-1.27,.98-2.52,1.15-3.85-.09-.39-.12-.8-.12-1.21,0-.22,.15-.48,.07-.66-.49-1.2-1.01-2.39-1.56-3.57-.18-.39-.47-.59-.99-.41-.26,.09-.73,0-.93-.19-1.12-1.12-2.48-1.79-3.94-2.27-1.54-.51-3.09-.96-4.75-.89-1.98,.08-3.95,.06-5.93,.05-2.75,0-5.5-.03-8.24-.06-.6,0-.92,.15-.87,.84,.05,.85,.01,1.7,.01,2.38-.72-.59-1.4-1.19-2.12-1.73-.71-.53-1.46-1.01-2.2-1.52Zm54.25,45.78c.11-.09,.23-.18,.34-.27-.14-.39-.28-.78-.42-1.17-.2,.31-.45,.61-.55,.94-.03,.1,.4,.33,.63,.5Z" />
    <path class="cls-1"
        d="M45.22,98.98h5.2c0,.07,0,.14,0,.21-2.4,.08-4.79,.15-7.19,.24-.93,.03-1.87,.04-2.8,.14-.49,.05-.95,.29-1.49,.47-.07-.3-.15-.6-.24-.97-1.66,.08-3.34,.15-5.06,.23-.08-.31-.14-.58-.21-.85-.05-.01-.11-.03-.16-.04-1.61-.16-1.75-.19-1.54-1.76,.23-1.76,.1-3.48-.1-5.22-.13-1.1-.29-2.2-.64-3.29,.05,1.22,.09,2.44,.17,3.66,.07,1.23,.18,2.46,.28,3.7-.1,0-.2,.01-.3,.02-.2-2.99-.4-5.98-.6-8.97,.06,0,.12-.02,.17-.03,.08,.3,.16,.59,.28,1.06,.92-3.29,.17-6.36-.09-9.43-.07,0-.15,0-.22,0,.11,2.54,.22,5.08,.33,7.62-.06,0-.13,.02-.19,.02-.04-.15-.12-.3-.13-.46-.09-1.87-.16-3.73-.24-5.6,0-.23,.02-.47,0-.7-.11-1.31,0-1.5,1.28-1.56,.84-.04,1.7,.06,2.54,.16,.21,.03,.4,.28,.78,.56-.76,.18-1.23,.3-1.77,.43,.57,1.51,1.93,2.21,2.75,3.45-.77-.21-1.55-.43-2.46-.68,.32,.68,.65,1.27-.36,1.58,.3,.44,.55,.78,.79,1.14,.2,.29,.6,.64,.54,.87-.09,.33-.51,.57-.91,.98,.24,.68,.56,1.55,.85,2.42,.04,.12-.02,.28-.03,.42-.08,.88-.27,1.76-.21,2.63,.13,1.81,.39,3.62,.62,5.55,.54-.04,1.08-.08,1.62-.11,3.2-.14,6.4-.28,9.6-.42,1.16-.05,2.33-.11,3.5-.12,.62,0,.92-.2,.82-.88-.08-.52-.09-1.06,.01-1.61,.09,.56,.18,1.12,.27,1.73,1.15-.21,2.26-.43,3.38-.61,.62-.1,1.25-.15,1.88-.22,.97-.1,1.94-.2,2.91-.3,.11-.01,.23-.06,.34-.05,2.82,.24,5.62,0,8.42-.37,.32-.04,.66,.11,1.11,.19,.35-.45,1-.42,1.62-.04,.34,.21,.95,.11,1.4,0,.87-.2,1.7-.69,2.65-.16-.34,.02-.68,.04-1.02,.06,.05,.14,.09,.27,.19,.57-.25-.16-.35-.25-.47-.29-.17-.05-.36-.08-.54-.07-.04,0-.13,.26-.1,.29,.14,.11,.3,.25,.47,.27,.87,.1,1.75,.19,2.4-.72,.44,.7,.94,1.09,1.66,.39,.09-.09,.33,0,.51-.01,1.22-.03,2.43-.04,3.65-.09,1.54-.05,3.08-.16,4.61-.18,.84,0,1.69,.19,2.53,.2,.53,0,1.07-.14,1.58-.29,.15-.04,.32-.34,.32-.52,.02-.88,.21-1.08,1.14-.99,.05,.41,.1,.84,.16,1.27h1.73c-.07-.98-.14-1.9-.21-2.81,.09-.03,.18-.07,.28-.1,.18,.56,.37,1.12,.5,1.5,2.25-.09,4.42-.17,6.59-.26,.55-.02,1.1-.07,1.66-.11,.71-.04,1.06,.27,1.08,1.02,.02,.73,.13,1.45,.21,2.28-1.58,.07-3.14,.14-4.71,.21-4.29,.21-8.57,.44-12.86,.63-4.78,.22-9.55,.38-14.33,.61-.86,.04-1.81-.16-2.57,.54-.09,.08-.34,.03-.5-.01-1.77-.42-3.51-.19-5.26,.18-.52,.11-1.1-.11-1.65-.07-4.08,.25-8.17,.44-12.24,.85-1.33,.13-2.68-.01-3.98,.29,0,.09,0,.19,0,.28Z" />
    <path class="cls-1"
        d="M88,79.81c3.42,0,5.9,2.43,5.92,5.79,.02,3.33-2.56,5.85-5.99,5.86-3.4,0-5.94-2.53-5.92-5.92,.01-3.31,2.54-5.73,5.99-5.73Zm-.06,3.68c-1.09,.01-1.86,.84-1.86,1.99,0,1.36,.75,2.25,1.91,2.24,1.12,0,1.87-.85,1.86-2.09-.01-1.3-.78-2.16-1.9-2.14Z" />
    <path class="cls-1"
        d="M143.61,77.71c2.2,0,4.28-.15,6.33,.04,2.51,.24,4.36,2.38,4.5,4.85,.16,2.74-1.29,5.06-3.86,5.62-2.08,.45-4.25,.51-6.52,.76-.16-3.87-.31-7.5-.46-11.27Zm4.29,7.57c.94-.07,1.8-.17,2.24-1.03,.44-.86,.41-1.78-.18-2.56-.53-.71-1.32-.83-2.25-.7,.06,1.44,.13,2.82,.19,4.29Z" />
    <path class="cls-1"
        d="M114.34,78.91c2.14,0,4.1-.13,6.04,.03,2.85,.23,4.79,2.46,4.83,5.28,.04,2.78-1.88,5.07-4.7,5.42-1.45,.18-2.93,.1-4.4,.18-.4,.02-.79,.17-1.29,.29-.16-3.8-.31-7.43-.47-11.19Zm4.3,7.57c.97-.08,1.86-.15,2.28-1.09,.38-.84,.36-1.73-.21-2.48-.54-.71-1.33-.82-2.26-.68,.06,1.44,.13,2.82,.19,4.25Z" />
    <path class="cls-1"
        d="M49.08,88.62c.77,1.14,1.67,2.45,2.73,4.01-1.55,.04-2.9,.1-4.25,.1-.18,0-.39-.31-.52-.52-.53-.86-1.02-1.73-1.66-2.81v3.64c-1.14,0-2.27,.03-3.4-.03-.17,0-.46-.37-.47-.57-.16-3.44-.29-6.88-.43-10.42,.76-.05,1.47-.14,2.18-.14,1.32,0,2.61-.28,3.94-.13,2.59,.29,4.16,2.33,3.38,4.72-.23,.71-.88,1.29-1.5,2.16Zm-3.87-4.01v2.22c.42-.13,1.03,.33,.99-.55,0-.05,.17-.1,.25-.16,.17-.15,.49-.36,.46-.45-.11-.33-.27-.74-.54-.89-.31-.18-.76-.13-1.16-.17Z" />
    <path class="cls-1"
        d="M110.29,90.23c-1.47,.06-2.74,.14-4.01,.13-.17,0-.43-.42-.49-.68-.13-.53-.41-.72-.93-.64-.26,.04-.52,.02-.79,.03q-1.44,.03-1.86,1.5c-1.33,.06-2.69,.13-4.2,.2,.36-1.23,.69-2.36,1.03-3.48,.73-2.37,1.5-4.73,2.21-7.1,.16-.53,.39-.75,.96-.75,1.05,0,2.1-.1,3.15-.1,.25,0,.64,.2,.72,.41,1.39,3.4,2.73,6.82,4.2,10.5Zm-7.16-3.74c.61-.03,1.08-.05,1.62-.08-.32-1.13-.62-2.15-.95-3.31-.12,.67-.2,1.19-.3,1.7-.1,.51-.22,1.02-.37,1.69Z" />
    <path class="cls-1"
        d="M63.53,84.03c-1.1,.05-2.17,.1-3.3,.15v1h3.14c.04,.88,.09,1.75,.14,2.75-1.05,.07-2.08,.13-3.18,.2,.02,.39,.04,.73,.06,1.08h3.57c.05,.93,.1,1.86,.15,2.88-.57,.04-1.08,.09-1.59,.12-1.72,.08-3.43,.13-5.15,.22-.53,.03-.82-.11-.84-.7-.12-3.35-.27-6.71-.41-10.06,0-.08,.04-.17,.08-.36,2.39-.09,4.79-.18,7.32-.27v2.98Z" />
    <path class="cls-1"
        d="M69.34,80.77h3.81c.11,2.42,.22,4.86,.33,7.27,1.1,0,2.12,.03,3.13-.01,.54-.02,.82,.1,.79,.71-.03,.92,0,1.85,0,2.86-2.44,.1-4.88,.21-7.32,.29-.16,0-.46-.29-.47-.45-.15-3.47-.26-6.94-.38-10.41,0-.05,.05-.1,.12-.25Z" />
    <path class="cls-1" d="M159.64,89.86v-3.74h.24v3.73c-.08,0-.16,0-.24,0Z" />
    <path class="cls-1"
        d="M106.6,96.18c-.33-.29-.53-.47-.73-.64,.34-.18,.66-.41,1.01-.52,.12-.04,.33,.25,.5,.39-.23,.22-.45,.45-.79,.78Z" />
    <path class="cls-1" d="M30.38,96.07c-.79-.53-.47-1.22-.62-1.83,.71,.27,.83,.63,.62,1.83Z" />
    <path class="cls-1"
        d="M79.89,80.48c-.94-.11-1.88-.23-2.81-.34,0-.01,0-.03,0-.04h2.82c0,.13,0,.25,0,.38Z" />
    <path class="cls-1" d="M159.64,82.51v-2.22c.06,0,.12,0,.17,0v2.23c-.06,0-.12,0-.17,0Z" />
    <path class="cls-1"
        d="M97.05,55.69c-.07-.51-.17-1.04-.2-1.57-.05-.94-.06-1.88-.07-2.82,0-.68,0-.68-.76-.59,.03-.12,.03-.27,.09-.32,.65-.5,.83-1.16,.8-1.95,0-.15,.33-.43,.54-.46,.66-.08,1.34-.04,2.01-.08,1.73-.1,3.32,1.16,3.44,2.75,.14,1.77-1.24,3.31-3.08,3.41-.78,.04-1.57,0-2.41,0-.13,.58-.24,1.12-.35,1.61Z" />
    <path class="cls-1"
        d="M124.57,64.15c.38,.14,.59,.21,1.04,.37-.91,.1-1.57,.18-2.36,.26,.17-.3,.28-.5,.45-.8h-1.63c0,.07,0,.14,0,.22,.29,.06,.58,.12,.87,.18,0,.06,.01,.12,.02,.18-.42,.06-.84,.11-1.42,.19,.19-2.04,.37-4.03,.58-6.22,1.52,.12,2.91,.2,4.3,.36,1.11,.13,1.92,1.25,1.99,2.53,.07,1.09-.83,2.15-1.78,2.32-.62,.11-1.24,.24-2.04,.4Z" />
    <path class="cls-1"
        d="M122.52,51.24c-.23-1.44-.78-2.58-.4-3.86,.13-.44,.24-.68,.69-.7,.79-.03,1.57-.06,2.36-.08,1.16-.02,2.02,1.17,1.92,2.13-.04,.42,.07,.89-.08,1.27-.12,.32-.48,.71-.79,.77-1.2,.22-2.42,.32-3.71,.47Z" />
    <path class="cls-1"
        d="M73.01,50.93c.62,2.83,1.24,5.66,1.87,8.53-1.46-.09-2.83-.18-4.44-.29,.41-1.25,.77-2.38,1.14-3.51,.1-.31,.24-.61,.31-.93,.3-1.28,.59-2.56,.88-3.85,.08,.01,.16,.03,.24,.04Z" />
</svg>
