<?xml version="1.0" encoding="UTF-8"?>
<svg id="_Слой_1" data-name="Слой 1" xmlns="http://www.w3.org/2000/svg" viewBox="0 0 196 136">
    <defs>
        <style>
            .cls-1 {
            fill: #d4d4d4;
            }
        </style>
    </defs>
    <path class="cls-1"
        d="M30.28,72.17c.09,0,.18,0,.27,0,4.94,0,9.88,0,14.81,0,.24,0,.35-.07,.45-.29,1.72-3.91,3.46-7.82,5.18-11.73,.09-.21,.19-.28,.43-.28,29.98,0,59.96,0,89.95,0,.25,0,.35,.08,.45,.3,1.72,3.9,3.45,7.8,5.17,11.7,.1,.23,.22,.3,.47,.3,4.8,0,9.59,0,14.39,0,.11,0,.21,0,.36,0-1.77,7.96-3.54,15.9-5.31,23.85H35.59c-.1-.42-.2-.86-.29-1.29-1.64-7.35-3.27-14.7-4.91-22.05-.03-.14-.07-.27-.11-.41,0-.04,0-.07,0-.11Zm3.38,2.72c1.37,6.17,2.74,12.3,4.11,18.43h116.94c1.37-6.14,2.73-12.27,4.11-18.43-.15,0-.26,0-.38,0-4.26,0-8.51,0-12.77,0-.23,0-.35-.06-.45-.28-1.73-3.92-3.47-7.83-5.2-11.75-.08-.19-.17-.26-.38-.26-28.83,0-57.66,0-86.49,0-.21,0-.3,.07-.39,.26-1.73,3.93-3.47,7.85-5.21,11.77-.09,.2-.19,.26-.41,.26-4.37,0-8.74,0-13.11,0-.11,0-.23,0-.38,0Z" />
    <path class="cls-1"
        d="M102.21,57.46c-.16-.71-.31-1.39-.46-2.07-.01,0-.03,0-.04,0-.05,.22-.1,.43-.15,.65-.09,.41-.17,.83-.28,1.24-.02,.07-.13,.18-.2,.18-.68,.01-1.36,0-2.07,0-.31-1.4-.61-2.79-.92-4.2h1.43c.19,.87,.39,1.74,.58,2.62,.02,0,.03,0,.05,0,.19-.87,.38-1.73,.57-2.61h1.99c.19,.87,.39,1.75,.58,2.63,.01,0,.03,0,.04,0,.18-.81,.36-1.61,.52-2.42,.04-.19,.11-.24,.3-.23,.38,.01,.76,0,1.18,0-.08,.38-.16,.74-.24,1.1-.21,.97-.42,1.94-.63,2.9-.03,.12-.04,.22-.2,.22-.68,0-1.36,0-2.08,0Z" />
    <path class="cls-1"
        d="M65.11,57.45v-4.19h2.24c.28,.85,.56,1.72,.86,2.65,.11-.35,.21-.62,.3-.9,.17-.53,.33-1.06,.51-1.59,.03-.08,.13-.18,.2-.18,.7-.01,1.4,0,2.12,0v4.21h-1.39v-2.48s-.04,0-.06-.01c-.03,.09-.06,.17-.09,.26-.22,.68-.44,1.36-.65,2.05-.05,.16-.13,.22-.3,.22-.4-.01-.8-.02-1.2,0-.2,0-.3-.06-.36-.25-.22-.71-.45-1.41-.68-2.12-.02-.05-.03-.1-.1-.14v2.49h-1.41Z" />
    <path class="cls-1"
        d="M60.78,56.26v-1.17h1.87v-.68h-2.17v3.06h-1.67v-4.22h.27c1.45,0,2.91,0,4.36,0,.18,0,.28,.07,.41,.18,.4,.36,.58,.78,.53,1.33-.03,.31-.06,.57-.31,.77-.34,.27-.36,.56-.14,.93,.18,.31,.3,.65,.46,1.02-.56,0-1.07,0-1.59,0-.06,0-.14-.09-.17-.16-.13-.28-.26-.56-.36-.85-.06-.16-.14-.22-.31-.21-.38,.01-.76,0-1.18,0Z" />
    <path class="cls-1"
        d="M83.82,57.48c-.56,0-1.07,0-1.58,0-.06,0-.15-.09-.18-.15-.13-.29-.26-.58-.37-.88-.06-.15-.14-.19-.3-.19-.38,0-.76,0-1.16,0v-1.16h1.85v-.69h-2.15v3.06h-1.7v-4.2c.08,0,.16-.01,.25-.01,1.47,0,2.94,0,4.41,0,.18,0,.28,.08,.41,.19,.41,.36,.52,.79,.52,1.33,0,.45-.25,.7-.5,.97-.14,.15-.16,.27-.07,.46,.2,.41,.38,.83,.58,1.29Z" />
    <path class="cls-1"
        d="M131.02,57.44h-1.69v-4.2h.29c1.44,0,2.89,0,4.33,0,.2,0,.32,.07,.45,.21,.33,.33,.53,.67,.5,1.18-.02,.39-.08,.73-.39,.98-.27,.22-.27,.44-.11,.73,.19,.35,.33,.72,.51,1.12-.56,0-1.08,0-1.59,0-.06,0-.14-.09-.17-.16-.12-.26-.24-.53-.34-.81-.07-.19-.16-.26-.37-.25-.37,.02-.74,0-1.14,0,0-.36,0-.7,.01-1.03,0-.05,.14-.13,.22-.13,.54-.01,1.08,0,1.64,0v-.68h-2.16v3.06Z" />
    <path class="cls-1"
        d="M117.46,57.46c-.56,0-1.08,0-1.6,0-.06,0-.14-.1-.17-.17-.13-.28-.25-.57-.36-.85-.06-.15-.14-.2-.29-.2-.39,.01-.78,0-1.18,0v-1.17h1.87v-.68h-2.17v3.05h-1.68v-4.18c.08,0,.17-.01,.25-.01,1.46,0,2.92,0,4.39,0,.18,0,.28,.07,.41,.18,.41,.36,.54,.79,.52,1.34,0,.39-.17,.64-.41,.87-.23,.22-.24,.41-.1,.69,.19,.36,.33,.74,.52,1.15Z" />
    <path class="cls-1"
        d="M89.96,57.44v-4.18h1.68v3.07h1.92v-1.92h-1.6v-1.16c.38,0,.74,0,1.11,0,.42,0,.83-.01,1.25,0,.11,0,.22,.1,.33,.15,0,0,.01,.01,.02,.02,.48,.45,.69,1,.59,1.66-.03,.18-.03,.38,0,.56,.11,.68-.13,1.22-.61,1.68-.07,.07-.17,.14-.26,.14-1.45,0-2.91,0-4.36,0-.02,0-.03-.01-.08-.03Z" />
    <path class="cls-1"
        d="M74.79,57.47c-.58,0-1.15,0-1.73,0-.17,0-.26-.07-.38-.18-.47-.46-.66-1-.57-1.65,.03-.18,.03-.38,0-.56-.11-.67,.11-1.21,.59-1.66,.09-.08,.22-.16,.33-.16,1.16-.01,2.32-.01,3.48,0,.11,0,.24,.08,.33,.15,.49,.45,.7,1,.61,1.68-.04,.32-.03,.66,0,.98,.02,.33-.1,.57-.28,.84-.29,.45-.64,.62-1.17,.56-.4-.05-.81,0-1.22,0Zm.95-1.15v-1.9h-1.91v1.9h1.91Z" />
    <path class="cls-1"
        d="M84.64,53.27h4.49v1.12h-2.79v.42h2.33v1.14h-2.33v.41h2.79v1.13h-4.48v-4.2Z" />
    <path class="cls-1"
        d="M140.31,56.32c.07,.39,.14,.74,.21,1.12h-4.62v-4.18h3.81c.07,.35,.14,.71,.22,1.1h-2.34v.42h1.85c.07,.38,.15,.74,.22,1.13h-2.06v.42h2.71Z" />
    <path class="cls-1"
        d="M58.28,57.46c-.54,0-1.05,0-1.56,0-.06,0-.13-.07-.17-.13-.05-.09-.09-.19-.12-.29-.05-.17-.14-.23-.32-.23-.54,.01-1.08,0-1.67,0,.16-.39,.3-.75,.46-1.09,.02-.05,.13-.07,.2-.07,.24,0,.47,0,.75,0-.21-.5-.39-.96-.6-1.47-.34,.83-.66,1.62-.98,2.4-.09,.22-.19,.44-.27,.66-.06,.17-.14,.24-.32,.23-.49-.01-.97,0-1.48,0,.04-.11,.07-.18,.1-.25,.56-1.25,1.12-2.5,1.68-3.75,.07-.16,.15-.22,.33-.22,.64,.01,1.28,0,1.91,0,.14,0,.22,.03,.28,.17,.57,1.28,1.15,2.57,1.72,3.85,.02,.05,.04,.11,.07,.2Z" />
    <path class="cls-1"
        d="M128.63,57.45c-.54,0-1.06,0-1.58,0-.06,0-.14-.11-.17-.19-.19-.45-.19-.45-.67-.45-.46,0-.92,0-1.41,0,.15-.38,.29-.72,.44-1.06,.03-.06,.13-.1,.21-.11,.24-.01,.48,0,.76,0-.2-.49-.39-.95-.6-1.46-.07,.16-.12,.26-.16,.36-.36,.89-.73,1.78-1.08,2.68-.07,.17-.15,.24-.35,.24-.48-.01-.95,0-1.46,0,.04-.11,.06-.18,.09-.25,.56-1.25,1.12-2.5,1.68-3.75,.07-.16,.16-.22,.34-.21,.64,.01,1.28,0,1.91,.01,.09,0,.22,.08,.25,.16,.59,1.29,1.17,2.59,1.76,3.89,.02,.04,.03,.08,.05,.15Z" />
    <path class="cls-1"
        d="M107.47,56.81c.16-.39,.3-.74,.46-1.08,.02-.05,.13-.08,.19-.08,.24,0,.48,0,.76,0-.2-.5-.39-.96-.6-1.47-.18,.43-.34,.82-.5,1.21-.25,.61-.51,1.23-.75,1.84-.07,.18-.17,.24-.35,.23-.48-.01-.95,0-1.46,0,.05-.12,.07-.2,.11-.28,.55-1.24,1.11-2.47,1.66-3.71,.07-.16,.15-.24,.35-.23,.63,.01,1.26,0,1.89,.01,.09,0,.23,.06,.27,.13,.6,1.31,1.19,2.63,1.78,3.94,.01,.03,.01,.07,.02,.13-.53,0-1.04,0-1.55,0-.07,0-.16-.12-.2-.2-.19-.44-.18-.44-.65-.44-.46,0-.92,0-1.43,0Z" />
    <path class="cls-1" d="M118.33,53.25h4.48v1.11h-2.8v3.08h-1.68v-4.19Z" />
    <path class="cls-1" d="M120.32,54.81h2.03v1.1h-2.03v-1.1Z" />
    <path class="cls-1"
        d="M73.35,80.4h-6.89v9.77h-5.33v-13.38c.09,0,.19,0,.28,0,4.98,0,9.96,0,14.94,0,.19,0,.31,.06,.43,.2,.6,.7,1.21,1.39,1.81,2.09,.07,.08,.12,.22,.12,.33,0,1.43,0,2.85,0,4.28,0,.11-.05,.25-.12,.33-.61,.71-1.23,1.42-1.85,2.12-.07,.08-.2,.16-.3,.16-2.97,0-5.94,0-8.91,0-.03,0-.07,0-.12-.01v-3.69h5.93v-2.2Z" />
    <path class="cls-1"
        d="M152.12,90.19c-1.77,0-3.5,0-5.22,0-.07,0-.18-.09-.21-.17-.22-.55-.44-1.1-.64-1.66-.07-.18-.15-.24-.34-.24-1.82,0-3.63,0-5.45,0-.1,0-.19,0-.31,0,.03-.1,.05-.18,.08-.25,.44-1.08,.89-2.16,1.32-3.24,.07-.17,.15-.22,.33-.22,.89,0,1.77,0,2.71,0-.64-1.56-1.26-3.09-1.9-4.66-.06,.13-.1,.21-.13,.3-1.34,3.29-2.68,6.59-4.01,9.88-.08,.19-.16,.26-.38,.26-1.71-.01-3.42,0-5.17,0,.04-.1,.07-.18,.1-.25,1.92-4.3,3.83-8.59,5.75-12.89,.08-.17,.17-.23,.36-.23,2.3,0,4.61,0,6.91,0,.17,0,.26,.04,.34,.21,1.92,4.31,3.86,8.62,5.79,12.93,.03,.06,.05,.13,.09,.23Z" />
    <path class="cls-1"
        d="M110.02,88.13c.24-.58,.46-1.11,.67-1.64,.25-.61,.51-1.21,.74-1.82,.08-.21,.18-.26,.39-.25,.79,.01,1.58,0,2.37,0,.09,0,.17,0,.29-.01-.63-1.55-1.25-3.07-1.89-4.64-.06,.12-.1,.2-.13,.29-1.34,3.29-2.68,6.59-4.01,9.88-.08,.2-.18,.27-.4,.27-1.62-.01-3.24,0-4.87,0h-.29c.06-.14,.11-.26,.15-.37,1.9-4.25,3.79-8.5,5.68-12.75,.08-.19,.17-.26,.39-.26,2.29,0,4.57,0,6.86,0,.21,0,.31,.06,.39,.25,1.91,4.29,3.83,8.57,5.75,12.86,.03,.07,.06,.15,.1,.24-.08,0-.15,.02-.21,.02-1.64,0-3.28,0-4.92,0-.18,0-.26-.05-.33-.22-.19-.53-.42-1.05-.6-1.59-.08-.21-.19-.27-.4-.27-1.8,0-3.6,0-5.4,0-.1,0-.19,0-.34,0Z" />
    <path class="cls-1"
        d="M40.62,90.19c.04-.11,.07-.19,.11-.27,1.91-4.27,3.82-8.55,5.72-12.82,.09-.21,.19-.29,.43-.28,2.28,0,4.56,0,6.83,0,.19,0,.3,.04,.38,.23,1.92,4.3,3.84,8.59,5.76,12.89,.03,.07,.06,.14,.1,.24-.09,0-.17,.01-.24,.01-1.62,0-3.24,0-4.87,0-.2,0-.29-.06-.36-.25-.19-.52-.41-1.04-.59-1.56-.07-.19-.16-.27-.38-.26-1.8,.01-3.6,0-5.4,0-.1,0-.21,0-.35,0,.04-.12,.07-.2,.1-.28,.43-1.06,.88-2.13,1.3-3.19,.08-.19,.17-.24,.37-.24,.88,.01,1.75,0,2.68,0-.64-1.56-1.26-3.09-1.9-4.66-.06,.12-.1,.2-.13,.28-1.33,3.29-2.67,6.57-3.99,9.86-.09,.22-.19,.3-.44,.29-1.6-.01-3.21,0-4.81,0h-.31Z" />
    <path class="cls-1" d="M120.32,80.39v-3.58h14.38v3.57h-4.49v9.79h-5.37v-9.78h-4.51Z" />
    <path class="cls-1"
        d="M80.61,76.8c.14,0,.22,0,.3,0,1.85,0,3.7,0,5.56,0,.18,0,.29,.05,.4,.19,1.41,1.83,2.83,3.66,4.25,5.48,.06,.08,.13,.17,.22,.28,1.2-1.6,2.38-3.18,3.6-4.8,.01,.11,.02,.17,.02,.23,0,2.09,0,4.18,0,6.27,0,.11-.03,.23-.09,.32-1.32,1.78-2.65,3.55-3.97,5.32-.02,.02-.04,.04-.08,.09-3.39-4.45-6.77-8.89-10.2-13.38Z" />
    <path class="cls-1" d="M101.52,76.81v13.36h-5.7v-13.36h5.7Z" />
    <path class="cls-1"
        d="M93.49,74.24c-1.23,0-2.46,0-3.7,0-.18,0-.29-.05-.4-.19-.38-.5-.78-.99-1.16-1.49-.07-.1-.12-.24-.12-.36,0-1.48,0-2.96,0-4.44,0-.1,.04-.23,.1-.31,.4-.53,.81-1.05,1.23-1.56,.07-.08,.2-.15,.3-.15,2.49,0,4.98,0,7.47,0,.1,0,.24,.07,.3,.15,.41,.5,.81,1.01,1.2,1.52,.07,.09,.12,.22,.12,.33,0,1.5,0,2.99,0,4.49,0,.1-.05,.23-.11,.31-.39,.51-.79,1-1.18,1.51-.1,.13-.21,.18-.38,.18-1.23,0-2.46,0-3.7,0Zm-1.95-6.18v3.87h3.89v-3.87h-3.89Z" />
    <path class="cls-1" d="M73.46,65.75v8.47h-3.38v-6.19h-5.58v6.19h-3.4v-8.47h12.37Z" />
    <path class="cls-1"
        d="M75.49,65.73h.29c3.11,0,6.22,0,9.33,0,.2,0,.33,.06,.45,.21,.34,.4,.69,.78,1.03,1.19,.07,.09,.13,.22,.13,.33,.01,.87,0,1.74,0,2.6,0,.1-.04,.23-.11,.31-.37,.44-.75,.88-1.14,1.3-.07,.08-.23,.12-.35,.12-1.96,0-3.92,0-5.87,0-.11,0-.21,0-.34,0v2.44h-3.41v-8.49Zm3.41,3.67h4.39v-1.36h-4.39v1.36Z" />
    <path class="cls-1"
        d="M100.67,65.73h9.1v2.26h-5.7v.86h4.77v2.27h-4.78v.83h5.67v2.27h-9.07v-8.49Z" />
    <path class="cls-1"
        d="M121.58,65.81c-.64,.78-1.24,1.51-1.83,2.23-.32,.38-.62,.77-.95,1.15-.12,.14-.12,.24-.02,.39,.94,1.47,1.87,2.94,2.81,4.42,.04,.07,.08,.13,.14,.23-.09,0-.15,.02-.21,.02-1.08,0-2.16,0-3.24,0-.16,0-.25-.05-.34-.19-.38-.65-.77-1.29-1.16-1.94-.04-.07-.09-.15-.16-.24-.08,.09-.14,.15-.2,.22-.55,.66-1.1,1.32-1.66,1.98-.07,.08-.18,.16-.28,.16-.9,.01-1.81,0-2.71,0-.02,0-.05-.01-.09-.02v-8.39h3.4v3.67h.06c.05-.05,.11-.11,.16-.18,.85-1.1,1.71-2.2,2.55-3.3,.12-.16,.25-.22,.44-.21,.98,0,1.97,0,2.95,0,.09,0,.17,0,.33,0Z" />
    <path class="cls-1"
        d="M80.62,78.07c.84,1.09,1.64,2.14,2.44,3.19,.92,1.2,1.84,2.4,2.76,3.61,.07,.09,.13,.22,.14,.33,0,1.62,0,3.24,0,4.86,0,.03,0,.07-.01,.12h-5.33v-12.1Z" />
    <path class="cls-1" d="M128.75,68v6.22h-3.41v-6.19h-2.88v-2.28h9.16v2.25h-2.86Z" />
    <path class="cls-1"
        d="M52.7,69.1c.62,0,1.24,0,1.86,0,.19,0,.26-.06,.31-.23,.18-.6,.39-1.19,.6-1.84,.21,.65,.42,1.25,.6,1.85,.05,.18,.13,.23,.32,.23,.62-.01,1.24,0,1.91,0-.09,.08-.13,.13-.18,.16-.45,.33-.9,.66-1.36,.98-.17,.11-.18,.22-.12,.39,.17,.49,.33,.99,.49,1.49,.03,.09,.05,.18,.09,.34-.62-.45-1.18-.86-1.75-1.27-.57,.42-1.14,.82-1.7,1.23-.01-.01-.03-.02-.04-.03,.18-.54,.34-1.09,.54-1.63,.11-.28,.06-.43-.19-.6-.48-.31-.93-.67-1.39-1,0-.02,.02-.04,.03-.06Z" />
    <path class="cls-1"
        d="M139.03,72.45c-.55-.4-1.05-.75-1.54-1.13-.15-.12-.26-.11-.41,0-.49,.37-1,.73-1.56,1.14,.18-.54,.33-1.02,.48-1.5q.19-.58-.3-.93c-.4-.29-.81-.59-1.19-.93,.61,0,1.21-.01,1.82,0,.22,0,.31-.06,.37-.27,.17-.58,.37-1.16,.58-1.81,.16,.48,.3,.91,.44,1.33,.08,.24,.11,.57,.28,.69,.17,.12,.49,.04,.75,.05,.43,0,.87,0,1.36,0-.08,.08-.12,.12-.17,.16-.46,.33-.91,.67-1.38,1-.14,.1-.17,.19-.11,.35,.18,.53,.35,1.06,.52,1.59,.02,.06,.03,.13,.07,.26Z" />
</svg>
