<?xml version="1.0" encoding="UTF-8"?>
<svg id="_Слой_1" data-name="Слой 1" xmlns="http://www.w3.org/2000/svg" viewBox="0 0 196 136">
    <defs>
        <style>
            .cls-1 {
            fill: #d4d4d4;
            }
        </style>
    </defs>
    <path class="cls-1"
        d="M119.54,37.08c-2.11,3.68-4.23,7.35-6.37,11.07-2.17-.58-4.29-1.15-6.42-1.72-4.24-1.14-8.48-2.28-12.73-3.4-.48-.13-.73-.32-.84-.81-.41-1.72-.87-3.43-1.31-5.15,9.22,0,18.45,0,27.67,0Z" />
    <path class="cls-1"
        d="M89.27,37.08c1.05,3.86,2.11,7.71,3.16,11.57,.69,2.52,1.35,5.04,2.05,7.56,.13,.45,.1,.75-.26,1.07-1.28,1.15-2.54,2.32-3.82,3.5-4.53-7.77-9.17-15.74-13.81-23.7,4.23,0,8.46,0,12.68,0Z" />
    <path class="cls-1"
        d="M170.13,80.97c-.05,.05-.13,.09-.15,.15-.56,1.44-1.65,1.77-3.09,1.59-.87-.11-1.78-.02-2.66-.01-.05,0-.09,.02-.25,.06,.4,.51,.79,.98,1.13,1.48,.15,.22,.3,.51,.3,.77,.02,3.17,.01,6.33,0,9.5,0,.12-.03,.23-.05,.39h-2.45v-12.2h-4.63v-1.86h11.82v.14Z" />
    <path class="cls-1"
        d="M111.9,50.35c-4.61,7.97-9.19,15.88-13.83,23.9-2.14-3.7-4.23-7.3-6.33-10.93,.17-.18,.33-.36,.5-.53,4.5-4.49,9-8.98,13.49-13.48,.37-.38,.69-.46,1.19-.31,1.63,.47,3.28,.89,4.98,1.35Z" />
    <path class="cls-1"
        d="M55.51,88.86c1.55,1.98,3.1,3.95,4.75,6.06-1.08,0-2,.03-2.92-.02-.2-.01-.42-.27-.57-.47-1.07-1.47-2.16-2.94-3.18-4.44-.37-.54-.76-.83-1.52-.61v5.53h-2.6c0-.29,0-.55,0-.8,0-3.64,.02-7.28-.02-10.93,0-.75-.21-1.49-.33-2.24-.07,0-.14,.01-.22,.02,.03-.03,.05-.1,.08-.1,2.25,.03,4.51-.04,6.75,.12,1.63,.11,2.96,1.63,3.22,3.31,.26,1.65-.53,3.17-2.09,3.96-.42,.21-.86,.38-1.36,.6Zm-3.4-6.31v5.27c1.09-.2,2.14-.26,3.08-.6,1.28-.46,1.68-2.34,.89-3.46-1.02-1.45-2.48-1.28-3.97-1.21Z" />
    <path class="cls-1"
        d="M26,94.92c.38-.84,.7-1.56,1.02-2.28,1.44-3.16,2.87-6.33,4.31-9.49,.34-.75,.93-1.49-.16-2.25,.06-.03,.13-.07,.19-.1,.82,0,1.65-.02,2.47,.02,.13,0,.31,.21,.38,.36,2.03,4.5,4.04,9.01,6.05,13.51,.02,.04,0,.09,.02,.25-.8,0-1.61,.03-2.4-.02-.16,0-.36-.28-.45-.47-.46-.97-.91-1.96-1.33-2.95-.15-.35-.33-.52-.74-.51-1.54,.02-3.08,0-4.61,.03-.23,0-.57,.23-.67,.45-.45,.95-.85,1.93-1.22,2.92-.16,.43-.41,.58-.86,.55-.62-.04-1.25,0-2,0Zm9.2-5.66c-.65-1.67-1.27-3.27-1.95-5.03-.77,1.77-1.47,3.37-2.18,5.03h4.13Z" />
    <path class="cls-1"
        d="M132.65,94.96c-.79,0-1.57,.03-2.35-.02-.17,0-.38-.25-.47-.43-.46-.97-.91-1.95-1.33-2.95-.16-.37-.34-.55-.78-.55-1.51,.03-3.02,.03-4.53,0-.44,0-.63,.17-.77,.55-.38,.98-.78,1.96-1.23,2.91-.1,.21-.42,.43-.66,.45-.66,.06-1.34,.02-2.11,.02,.14-.33,.25-.59,.36-.84,1.66-3.66,3.32-7.33,4.99-10.98,.34-.74,.86-1.46-.19-2.18,.06-.04,.12-.08,.17-.11,.84,0,1.69-.01,2.53,.02,.11,0,.26,.2,.32,.33,2.03,4.52,4.05,9.04,6.07,13.56,.02,.04,0,.09,0,.21Zm-7.01-10.69c-.76,1.75-1.46,3.35-2.19,5.02h4.13c-.64-1.66-1.26-3.26-1.94-5.02Z" />
    <path class="cls-1"
        d="M150.85,81.49c-.38,.58-.74,1.12-1.11,1.68-2.62-1.06-5.02-.99-6.72,1.52-1.5,2.21-1.42,4.89,.14,6.68,1.31,1.51,3.21,2.59,6.81,1.06,.33,.56,.67,1.13,1.01,1.7-2.44,1.85-7.4,1.31-9.69-1.19-2.15-2.34-2.89-6.59-.35-9.66,2.35-2.84,6.53-3.71,9.91-1.8Z" />
    <path class="cls-1"
        d="M106,94.91h-2.5v-14.08h9.54c-.22,.53-.38,1.03-.65,1.47-.11,.18-.45,.31-.69,.31-1.87,.03-3.74,.01-5.67,.01v4.4h5.04v2.01h-5.07v5.88Z" />
    <path class="cls-1"
        d="M73.42,82.52c.07,.17,.08,.2,.09,.21,1.3,1.23,1.45,2.77,1.38,4.46-.1,2.54-.03,5.08-.03,7.67h-2.53v-12.29c-.87,0-1.66-.04-2.44,.01-.59,.04-1.01-.11-1.28-.66-.18-.35-.44-.66-.72-1.07h11.49v1.66h-5.96Z" />
    <path class="cls-1"
        d="M96.43,54.66c-.8-2.97-1.62-6.05-2.49-9.27,3.22,.86,6.3,1.68,9.29,2.48-2.26,2.25-4.53,4.52-6.81,6.79Z" />
    <path class="cls-1" d="M89.42,94.87v-14h2.34v14h-2.34Z" />
</svg>
