<?xml version="1.0" encoding="UTF-8"?>
<svg id="_Слой_1" data-name="Слой 1" xmlns="http://www.w3.org/2000/svg" viewBox="0 0 196 136">
    <defs>
        <style>
            .cls-1 {
            fill: #d4d4d4;
            }
        </style>
    </defs>
    <path class="cls-1"
        d="M14.77,81.31c-2.56-2.15-2.55-6.23-2.55-9.26-.01-5.42-.07-8.47,.11-11.98,.05-.94,.16-1.68,.33-2.21,2.1-6.65,12.48-6.89,17.22-3.74,1.46,.97,2.36,2.33,2.7,4.09,.51,2.58,.48,5.1,.39,7.68,0,.05-.04,.09-.09,.09h-8.57s-.08-.03-.08-.07c-.04-.34-.09-.7-.08-1.05,.08-1.95,.06-4.03-.06-6.23-.08-1.47-2.18-1.78-2.76-.61-.07,.14-.12,.39-.14,.72-.34,4.94-.07,9.93-.16,14.88-.02,1.24,.04,2.47,.2,3.69,.08,.61,.36,.97,.94,1.1,1.8,.41,1.97-1.11,2-2.38,.03-1.69,.04-3.37,.03-5.05,0-.04,.03-.08,.07-.08h8.66s.06,.03,.06,.06c.05,1.68,0,3.37-.14,5.05-.11,1.33-.5,2.93-1.35,4.01-2.22,2.85-5.94,3.66-9.36,3.61-2.56-.04-5.38-.64-7.37-2.31Z" />
    <path class="cls-1"
        d="M44.26,59.74c-.01,.4-.03,.69-.05,.88-.87,7.44-1.77,14.88-2.7,22.33,0,.02-.02,.03-.03,.03h-8.13c-.06,0-.1-.05-.1-.1,0,0,0,0,0-.01l4.44-30.08s.04-.07,.08-.07h12.62s.07,.03,.08,.07l5,30.16s0,.04-.03,.04c0,0,0,0,0,0h-8.15s-.06-.02-.07-.06l-.67-5.48c0-.07-.07-.13-.14-.13l-2.71,.04c-.06,0-.11-.05-.11-.11,0,0,0,0,0-.01l.53-4.89c0-.06,.06-.1,.11-.1h1.6s.07-.03,.07-.07c0,0,0,0,0,0-.44-4.03-.93-8.04-1.46-12.05-.02-.17-.06-.29-.13-.38-.03-.05-.05-.04-.05,.01Z" />
    <path class="cls-1"
        d="M109.4,52.87c3.45,.14,7.68,.61,8.72,4.68,.11,.44,.2,1.43,.25,2.97,.1,2.95,.13,5.89,.09,8.84-.03,2.6,0,5.33-.1,7.83-.05,1.19-.35,2.67-1.11,3.67-1.4,1.84-4.58,2.06-6.67,2.08-4.15,.03-8.3,.04-12.46,.03-.04,0-.07-.03-.07-.07v-30.11s.03-.08,.07-.08c3.76-.05,7.51,0,11.27,.16Zm.09,6.52c-.09-1.41-1.51-1.42-2.57-1.44-.03,0-.06,.03-.06,.06,0,0,0,0,0,0v19.67s.04,.08,.08,.08c.77-.01,2.12-.13,2.34-.91,.2-.69,.3-1.61,.3-2.76,0-3.94,.02-7.87,.03-11.81,0-.97-.07-1.94-.13-2.9Z" />
    <path class="cls-1"
        d="M177.4,83.1c-2.66,.09-5.32,.08-7.96,0-.04,0-.08-.03-.08-.08,0-3.43,0-6.85,0-10.27,0-.48-.14-1.05-.31-1.58-1.95-6.14-3.89-12.27-5.83-18.41,0-.02,0-.03,.02-.04,0,0,0,0,.01,0,2.67,0,5.32-.09,7.99,.05,.04,0,.08,.03,.1,.08,2.48,7.84,4.28,13.45,5.39,16.83,.42,1.28,.76,2.24,.77,3.57,0,3.26,0,6.52-.01,9.77,0,.04-.03,.08-.08,.08Z" />
    <path class="cls-1"
        d="M71.08,76.98v5.91s-.04,.09-.09,.09h-13.97s-.09-.04-.09-.09h0v-30.09s.04-.09,.09-.09h8.6s.09,.04,.09,.09h0v23.99s.04,.09,.09,.09h0l5.2,.02s.09,.04,.09,.09h0Z" />
    <path class="cls-1"
        d="M82.03,76.87l5.08,.03c.07,0,.13,.06,.13,.13v5.87s-.03,.07-.07,.07h-13.96s-.08-.04-.08-.08l-.03-30.12s.02-.05,.05-.05h8.65s.08,.03,.08,.07c.02,.24,.04,.48,.04,.72,.02,7.76,.03,15.52,.04,23.28,0,.05,.04,.08,.08,.08Z" />
    <path class="cls-1"
        d="M134.2,83.22c-5,1.05-13.23-.09-13.49-6.81-.31-7.84-.12-15.77-.11-23.62,0-.04,.03-.07,.07-.07h8.63s.07,.03,.07,.07h0c0,7.67,0,15.35,0,23.03,0,.6-.01,1.96,.48,2.38,.51,.44,1.45,.31,1.76-.36,.18-.39,.22-1.66,.22-2.3,0-7.57,0-15.15,0-22.73,0-.04,.03-.07,.07-.07h8.63s.07,.03,.07,.07h0c0,6.74,0,13.48,0,20.23,0,1.13-.03,3.12-.15,4.13-.41,3.26-3.12,5.42-6.23,6.08Z" />
    <path class="cls-1"
        d="M142.44,58.71l-.03-5.9c0-.05,.04-.09,.09-.09h19.08c.05,0,.09,.04,.09,.09v5.9c0,.05-.04,.09-.09,.09h-5c-.05,0-.09,.04-.09,.09v23.99c0,.05-.04,.09-.09,.09h-8.66c-.05,0-.09-.04-.09-.09v-23.99c0-.05-.04-.09-.09-.09h-5.02c-.05,0-.09-.04-.09-.09Z" />
    <path class="cls-1"
        d="M175.78,52.79s.05-.08,.1-.08h7.87s.06,.03,.06,.06c0,0,0,0,0,.01-.03,.12-.09,.34-.19,.65-1.79,5.48-3.59,10.96-5.38,16.44-.02,.06-.05,.06-.09,.02-.02-.03-.03-.06-.02-.1,.01-.03,.01-.07,0-.1-1.23-3.67-2.41-7.36-3.54-11.07-.04-.13-.05-.27-.02-.41,.36-1.82,.76-3.63,1.22-5.42Z" />
    <path class="cls-1"
        d="M90.33,68.2c-.2,2.9-4.83,3.21-5.52,.52-.15-.58-.19-1.68-.19-2.45,0-1.29,.02-2.59,.05-3.88,.06-2.19,2.03-3.14,3.96-2.49,1.34,.45,1.65,1.34,1.73,2.74,.1,1.79,.09,3.65-.04,5.57Zm-2.56-6.48l-.31-.17c-.07-.04-.16-.01-.2,.06-.01,.02-.02,.04-.02,.07-.11,2.35-.12,4.69,0,7.04,0,.05,.04,.08,.09,.08,0,0,.02,0,.03,0l.36-.14c.05-.02,.09-.07,.09-.12,.19-2.24,.2-4.49,.02-6.73,0-.03-.02-.05-.04-.07Z" />
    <path class="cls-1"
        d="M93.58,66.06v4.22s-.04,.09-.09,.09h-2.21s-.09-.04-.09-.09h0v-10.27s.04-.09,.09-.09h3.82s.09,.04,.09,.09h0v1.95s-.04,.09-.09,.09h-1.43s-.09,.04-.09,.09h0v1.77s.04,.09,.09,.09l1.28,.03s.09,.04,.09,.09v1.75s-.04,.08-.08,.09l-1.29,.04s-.08,.04-.08,.09Z" />
    <path class="cls-1"
        d="M182.56,82.03c0,1-.84,1.81-1.9,1.82h0c-1.05,0-1.92-.8-1.92-1.79,0-1,.84-1.81,1.9-1.82h0c1.05,0,1.92,.8,1.92,1.79Zm-.41,.04c.01-.78-.64-1.42-1.47-1.44h0c-.82-.01-1.5,.61-1.52,1.39h0c-.01,.78,.64,1.42,1.47,1.44,.82,.01,1.5-.61,1.52-1.39h0Z" />
    <path class="cls-1"
        d="M181.11,82.25l.43,.65c.06,.09,.04,.12-.07,.12l-.4-.03c-.06,0-.11-.05-.13-.11-.09-.33-.29-.55-.6-.66-.04-.01-.08,0-.1,.04,0,0,0,.02,0,.03v.63c0,.05-.05,.09-.1,.09,0,0,0,0,0,0l-.27-.02s-.08-.04-.08-.08v-1.73s.03-.08,.07-.09c.54-.08,.95-.07,1.24,.03,.53,.18,.42,.73,.02,1.02-.03,.02-.04,.07-.02,.1h0Zm-.27-.79l-.49-.07c-.05,0-.1,.03-.11,.08,0,0,0,0,0,.01v.31c0,.05,.04,.09,.09,.1,.25,.01,.72,.04,.66-.29-.02-.08-.08-.13-.15-.14Z" />
</svg>
