<?xml version="1.0" encoding="UTF-8"?>
<svg id="_Слой_1" data-name="Слой 1" xmlns="http://www.w3.org/2000/svg" viewBox="0 0 196 136">
    <defs>
        <style>
            .cls-1 {
            fill: #d4d4d4;
            }
        </style>
    </defs>
    <path class="cls-1"
        d="M86.56,61.17c.18-.05,.18-.09,0-.13-.62-.11-1.23-.25-1.84-.41-.03,0-.05-.03-.06-.06-.07-.36-.08-.72-.02-1.08,.28-1.68,.44-3.41,.48-5.18,0-.04,.03-.07,.06-.08,.78-.21,1.63-.13,2.46-.36,.04-.01,.06-.05,.06-.09-.42-2.99-.19-6.4,1.94-8.74,.8-.87,1.8-1.36,3-1.46,.55-.05,1.01,.12,1.37,.49,.03,.03,.08,.03,.12,0l.35-.32s.03-.06,.02-.09c-.95-2.08-.3-4.74,1.46-6.17,1.2-.98,2.94-1.29,4.43-.69,.18,.07,.52,.26,1.05,.58,.46,.28,.94,.53,1.44,.75,.02,0,.03,.02,.04,.04l.18,.35s.01,.05,0,.08c-.07,.13-.1,.24-.03,.39,.44,1,.74,2.37,.37,3.41-.2,.56-.94,.72-1.45,.83-.04,0-.07,.05-.06,.09l.15,1.61s.03,.07,.07,.07c.77,.13,1.5-.34,2.3-.45,.15-.02,.31-.04,.48-.06,.03,0,.06-.03,.07-.06l.34-1.42c.05-.19,.1-.19,.16,0,.1,.31,.15,.63,.14,.96,0,.04,.02,.07,.06,.08l.68,.18s.06,.04,.06,.08v.26s.04,.08,.08,.08c3.96,0,7.92,0,11.88,.02,.42,0,.84,0,1.27,.01,.05,0,.08,.04,.08,.08,0,0,0,0,0,0l-.03,.42s.03,.08,.08,.09h0s.27,.02,.27,.02c.05,0,.08-.03,.09-.08,0,0,0,0,0,0v-2.26s.03-.08,.07-.08l.31-.03s.08,.03,.09,.08c0,0,0,0,0,0v1.79s0,.04,.02,.05l.3,.37s.08,.04,.12,.01c0,0,0,0,.01-.01l.16-.19s.08-.04,.12,0c0,0,0,0,0,0,.14,.14,.19,.32,.16,.53-.02,.15-.04,.29-.06,.44,0,.05,.03,.09,.07,.09,0,0,0,0,0,0,1.19,.04,2.38,.04,3.57,0,.02,0,.03,0,.05-.02l.34-.25s.05-.02,.08-.01c.21,.08,.39,.18,.62,.18,.48,0,.97,0,1.46,0,.05,0,.08,.04,.08,.08,0,0,0,0,0,0l-.02,.73s-.04,.08-.08,.08c0,0,0,0,0,0-.69-.04-1.37-.01-2.05,.08-.02,0-.04,0-.06-.01-.27-.19-.55-.28-.84-.27-1.29,.03-2.22-.11-3.27,.17-.47,.13-.94,.09-1.4-.1-.04-.02-.09,0-.11,.04,0,0,0,.01,0,.02-.01,.09-.03,.23-.04,.39-.02,.22-.19,.29-.4,.29-1.63,0-3.25,0-4.88,0-.29,0-.59,.22-.84,.34-.02,0-.03,.02-.04,.04-.31,.73-.91,1.17-1.52,1.63-.02,.02-.03,.04-.03,.06-.03,1.06,.31,2.15,.55,3.16,0,.04-.02,.08-.06,.1l-.92,.28s-.05,.03-.05,.05c-.32,.9-.31,1.91-.67,2.72-.21,.48-.74,.76-1.05,1.03-.58,.49-1.06,1.04-1.89,1.09-.17,0-.18,.06-.03,.15,.02,.01,.03,.03,.03,.05,0,.04-.02,.07-.05,.07,0,0-.01,0-.02,0-.1-.02-.17-.07-.22-.16,0-.01-.01-.03-.01-.04,0-.1-.03-.14-.13-.16-.85-.12-1.56-.31-2.15-.58-1.1-.51-2.17-1.07-3.22-1.68-.04-.02-.09,0-.11,.03,0,0,0,.02,0,.02l-.31,1.3s.02,.09,.06,.1c1.17,.29,1.36,1.27,1.34,2.32-.02,.97-.16,1.97-.26,2.93-.04,.4,.01,.9-.06,1.29-.09,.49-.53,1.82-1.06,1.99-.35,.11-.89-.14-1.24-.24-.04-.01-.08,0-.1,.04l-.29,.57s-.01,.03,0,.05c.08,.42,.21,1.57,.48,1.87,1.24,1.38,2.34,2.89,3.13,4.57,.69,1.47,1.31,3.01,1.86,4.54,.13,.36,.31,.5,.65,.64,.03,.01,.05,.04,.05,.07,.03,.27,.05,.54,.08,.81,.02,.27,.2,.46,.35,.68,0,.01,.01,.03,.01,.05,0,2.12-.16,4.14-.51,6.23-.05,.32-.07,.59-.06,.81,.03,.58,.2,1.23,.22,1.71,.01,.39-.02,.72-.1,.99-.08,.26-.42,.7-.44,1.11-.04,1.01-.09,2.24,.07,3.11,.1,.55,.88,1.32,1.27,1.76,.56,.64,.81,.99,1.49,1.2,.66,.21,1.24,.47,1.84,.84,.02,.01,.03,.03,.04,.05,.12,.44,.14,.88,.05,1.32,0,.03-.03,.06-.07,.06-1.31,.19-3.03,.14-4.05,.13-.79,0-1.78-.42-2.35-.55-1-.23-2.35,.49-3.15-.43-.02-.02-.02-.05-.02-.07,.22-1.09,.34-2.27,.78-3.3,.07-.17,.12-.34,.13-.49,.11-1.24-.19-2.46-.13-3.4,0-.03,0-.05-.03-.07l-.37-.31s-.03-.04-.03-.07c.03-.69-.19-1.2-.35-1.8-.08-.29-.13-.62-.16-.99-.05-.6-.15-1.59-.29-2.95-.05-.53,.13-.99,.55-1.37,.02-.01,.02-.03,.03-.05l.2-1.97s0-.04-.01-.05l-.59-.87s-.06-.04-.1-.03c-.9,.32-1.62,.05-2.13-.7-.96-1.43-1.92-2.85-2.89-4.27-.02-.02-.04-.04-.07-.04-.38,.01-.75-.03-1.12-.12-.02,0-.03-.01-.05-.03-.34-.44-.62-.91-.83-1.42-.05-.11-.1-.11-.15,0-.18,.35-.33,.71-.44,1.09,0,.01-.01,.03-.02,.04-1.19,1.09-1.44,2.4-2.07,3.92-.37,.9-.04,2.13-.96,2.75-.37,.25-.52,.35-.64,.72-.19,.56-.53,.99-1.02,1.31-.12,.08-.24,.28-.38,.6-.25,.58-.47,.93-.36,1.44,.19,.87-.07,1.51-.49,2.41-.34,.73-.66,1.46-.98,2.2-.33,.77-.36,2.04-1.48,2.34-.02,0-.04,.02-.05,.04-.88,1.56-1.5,3.86-.84,5.58,.22,.56,.27,1.15,.15,1.75,0,.04-.04,.06-.07,.07-1.46,.16-2.91,.26-4.35-.08-.03,0-.05-.02-.06-.05-.33-.78-.32-1.74-.11-2.56,.45-1.75,.96-3.51,1.3-5.28,0-.03,0-.05-.02-.07-.21-.23-.31-.5-.32-.8-.01-.66,0-1.32,.33-1.98,.15-.31,.4-.72,.74-1.24,.07-.11,.11-.23,.13-.35,.1-.73,.1-1.48,.43-2.17,.48-1.02,.94-2,1.65-2.81,.09-.11,.17-.23,.22-.36,.16-.38,.38-.81,.66-1.29,.26-.45,.26-.85,.15-1.39-.08-.36-.09-.72-.05-1.08,.2-1.58,.46-3.3,.78-5.14,0-.03,0-.05-.02-.07-.44-.44-.41-1.12-.48-1.63-.04-.28,.12-.55,.25-.79,.02-.03,.01-.07-.02-.1l-.32-.3s-.03-.04-.02-.07c.04-.37,.1-.71,.18-1,.11-.43,.38-.62,.81-.59,.05,0,.08-.03,.09-.08,0,0,0,0,0,0,0-.57-.03-1.13-.11-1.69-.1-.75-.2-1.49-.29-2.24-.09-.73-.11-1.46-.05-2.18,0-.11,.05-.12,.12-.04l.22,.26s.03,.03,.03,.03h.02s.01-.03,.01-.04l-.06-.55s.01-.07,.04-.08c.29-.15,.59-.27,.91-.36Zm21.6-12.12c-.26,.16-.62,.37-1.08,.61-.14,.08-.22,.2-.25,.38,0,.02,0,.04,.01,.06,.3,.48,.56,.98,.78,1.51,.02,.04,.07,.06,.11,.04,0,0,.02,0,.02-.02,.63-.58,1.12-1.23,1.48-1.97,.08-.17,.24-.28,.35-.44,.01-.02,.02-.04,.01-.06-.04-.33-.11-.66-.24-.97-.01-.03-.05-.05-.08-.05-.25,.01-.65-.04-.86,.1-.15,.1-.35,.26-.34,.46,0,.08,.04,.16,.09,.22,.03,.04,.02,.09-.01,.11,0,0,0,0,0,0Z" />
    <path class="cls-1"
        d="M118.73,83.93h15.52s.08-.04,.08-.08c0,0,0,0,0,0v-4.71s-.05-.08-.09-.08c0,0,0,0,0,0-2.42,.03-4.82,.04-7.2,0-.54,0-.96-.05-1.26-.13-.89-.23-1.63-.72-2.23-1.47-.5-.63-.85-1.33-1.06-2.11-.01-.04,.02-.09,.06-.1,0,0,.01,0,.02,0h16.52s.08,.04,.08,.08c0,2.65,0,5.31,0,7.98,0,1.56-.59,2.83-1.76,3.83-1.01,.86-2.07,1.19-3.39,1.19-4.99-.02-9.98-.03-14.96-.02-.58,0-1.02-.04-1.33-.11-1.24-.3-2.32-1.15-3.03-2.19-.71-1.04-.84-2.44-.85-3.67,0-3.55,0-7.11,0-10.66,0-.76,.11-1.49,.32-2.21,.54-1.8,2.12-3.06,3.92-3.44,.34-.07,.81-.11,1.4-.11,4.66,0,9.32,0,13.98,0,.69,0,1.21,.04,1.56,.12,2.07,.45,3.7,2.04,4.07,4.17,0,.04-.02,.09-.07,.1,0,0,0,0-.01,0h-20.29s-.08,.02-.08,.07v13.48s.04,.08,.08,.08Z" />
    <path class="cls-1"
        d="M147.36,88.19c-1.9-.47-3.32-2.12-3.74-3.99-.08-.35-.12-.86-.12-1.53-.02-3.77-.02-7.54,0-11.32,.01-2.63,1.64-4.74,4.23-5.31,.33-.07,.8-.11,1.41-.11,4.57,0,9.13,0,13.7,0,2.37,0,4.55,1.94,4.99,4.24,.06,.3,.09,.74,.09,1.33,0,3.64,0,7.28,0,10.92,0,.78-.02,1.32-.08,1.64-.34,2.05-1.97,3.83-4.06,4.21-.3,.05-.85,.08-1.64,.07-4.52-.05-8.29,.02-13.55-.02-.52,0-.93-.04-1.23-.12Zm15.69-18.01s-.01-.03-.03-.03h-14.62s-.03,.01-.03,.03v14.05s.01,.03,.03,.03h14.62s.03-.01,.03-.03h0v-14.05Z" />
    <path class="cls-1"
        d="M28.12,83.49c6.12-.04,12.2,.02,18.27,0,.05,0,.08,.04,.08,.08,0,0,0,0,0,0-.28,2.39-1.95,4.43-4.33,4.91-.34,.07-.89,.1-1.64,.11-3.25,.01-7.52,.02-12.83,0-1.23,0-2.4-.3-3.4-1.02-1.4-1-2.3-2.61-2.3-4.39,0-3.57,0-7.14,0-10.7,0-.79,.02-1.33,.06-1.64,.28-2.08,1.82-4.03,3.96-4.51,.33-.08,.81-.11,1.44-.11,4.43,0,8.86,0,13.29,0,.76,0,1.31,.03,1.64,.1,2.25,.47,3.8,2.51,4.08,4.72,0,.05-.03,.09-.07,.09,0,0,0,0,0,0-.19,0-.41,.04-.59,.04-5.89,0-11.77,0-17.66,0-.05,0-.08,.04-.08,.08v12.16s.04,.08,.08,.08c0,0,0,0,0,0Z" />
    <path class="cls-1"
        d="M56.13,74.84c4.67,0,9.35,0,14.02,0,2.81,0,5.13,1.78,5.53,4.62,.18,1.25,.09,2.76-.01,4.12-.03,.35-.08,.68-.14,.99-.43,1.95-2.15,3.45-4.07,3.88-.35,.08-.9,.12-1.63,.12-5.29,.03-9.85,.03-13.69,0-2.82-.01-5.07-1.91-5.48-4.71,0-.04,.02-.09,.07-.09,0,0,0,0,.01,0h19.4s.08-.03,.08-.08v-3.95s-.04-.08-.08-.08c-4.85,0-9.67,0-14.47,0-2.44,0-4.62-2.07-5.01-4.43-.04-.26-.06-.64-.05-1.14,.03-1.44-.19-2.95,.29-4.33,.59-1.69,2.03-3.05,3.8-3.45,.32-.07,.78-.11,1.38-.11,4.54,0,9.09,0,13.63,0,.72,0,1.25,.04,1.6,.12,.8,.18,1.52,.56,2.16,1.12,1.04,.91,1.64,2.05,1.81,3.42,0,.04-.03,.09-.07,.09,0,0,0,0-.01,0-.18,0-.37,.03-.53,.03-6.16,.02-12.34,.02-18.53,0-.05,0-.08,.04-.08,.08v3.68s.04,.08,.08,.08Z" />
    <path class="cls-1"
        d="M173.68,67.22c0-.22-.05-.23-.13-.02-.15,.4-.31,.8-.48,1.2-.07,.17-.15,.32-.25,.47-.03,.04-.08,.05-.11,.02-.01,0-.02-.02-.03-.03-.12-.24-.22-.48-.3-.73-.05-.15-.42-1.12-.5-.99-.07,.1-.01,1.49-.01,1.71,0,.05-.04,.08-.08,.08,0,0,0,0-.01,0l-.1-.02s-.07-.04-.07-.08v-2.1s.02-.08,.07-.08c0,0,0,0,0,0l.38,.02s.06,.02,.07,.05l.6,1.56c.04,.11,.08,.11,.12,0l.61-1.55s.04-.05,.06-.05l.38-.05s.09,.03,.09,.07c0,0,0,0,0,0,.01,.45,.02,.9,.03,1.35,0,.28-.04,.54-.13,.79-.1,.25-.15,.24-.16-.03l-.05-1.6Z" />
    <path class="cls-1"
        d="M170.37,66.95l-.02,1.81s-.04,.08-.08,.08c0,0,0,0,0,0h-.1s-.08-.04-.08-.09v-1.85s-.04-.08-.08-.08c0,0,0,0,0,0-.17,0-.33,.02-.48,.03-.09,0-.16,0-.14-.12,0-.04,.04-.06,.07-.07,.57-.04,1.15-.02,1.72,.04,.02,0,.03,.01,.03,.03,.02,.06-.69,.12-.77,.13-.04,0-.07,.04-.07,.08Z" />
</svg>
