<svg width="196" height="136" viewBox="0 0 196 136" fill="none" xmlns="http://www.w3.org/2000/svg">
    <g clip-path="url(#clip0_106_3632)">
        <path d="M25.9399 68V97.08H33.3351H40.7303V86.6791V76.2782H45.9929H51.2212L53.1817 69.9952L55.1079 63.7547L47.9191 63.6273L40.7303 63.5424V57.5991V51.6557L49.5701 51.5708L58.41 51.4435L60.233 45.5001C61.1961 42.2312 62.0216 39.4294 62.0216 39.2171C62.056 39.0473 53.9385 38.9199 43.998 38.9199H25.9399V68Z" fill="#E0E4EC"/>
        <path d="M67.1121 39.2171C66.9745 39.3444 66.8713 52.4623 66.8713 68.2971V97.08H74.2665H81.6617V68V38.9199H74.5073C70.5517 38.9199 67.2153 39.0473 67.1121 39.2171Z" fill="#E0E4EC"/>
        <path d="M91.9807 68V97.08H99.3759H106.771V86.6791V76.3207L111.965 76.1933L117.159 76.0659L119.154 69.783L121.149 63.5424H113.96H106.771V57.5991V51.6557H115.508C123.488 51.6557 124.244 51.6133 124.485 50.8916C124.623 50.5095 125.379 47.9623 126.205 45.2878C127.03 42.6133 127.787 40.0661 127.925 39.6416C128.166 38.9624 127.168 38.9199 110.073 38.9199H91.9807V68Z" fill="#E0E4EC"/>
        <path d="M137.9 39.6416C137.796 40.0661 134.082 52.8019 129.644 68C125.242 83.1555 121.493 95.9337 121.389 96.3158C121.149 97.0375 121.63 97.08 128.165 97.08H135.217L136.042 93.3441L136.868 89.6508L145.363 89.5234L153.859 89.4385L154.788 93.2592L155.717 97.08H162.906C166.827 97.08 170.06 96.9951 170.06 96.9101C170.06 96.7403 153.894 41.3397 153.378 39.6416C153.137 39.0048 152.449 38.9199 145.639 38.9199C138.828 38.9199 138.14 39.0048 137.9 39.6416ZM148.562 66.3868L151.417 78.1886L145.707 78.3159C142.612 78.3584 139.963 78.3159 139.86 78.1886C139.688 77.9763 144.813 55.3491 145.192 54.5C145.295 54.2878 145.432 54.2453 145.535 54.3727C145.639 54.4576 146.98 59.8915 148.562 66.3868Z" fill="#E0E4EC"/>
    </g>
    <defs>
        <clipPath id="clip0_106_3632">
            <rect width="146" height="60" fill="white" transform="translate(25 38)"/>
        </clipPath>
    </defs>
</svg>
