<svg width="32" height="32" viewBox="0 0 32 32" fill="none" xmlns="http://www.w3.org/2000/svg">
    <g clip-path="url(#clip0_335_19492)">
        <path
            d="M16.2265 19.4627C17.9707 19.4627 19.3846 18.0488 19.3846 16.3046C19.3846 14.5604 17.9707 13.1465 16.2265 13.1465C14.4823 13.1465 13.0684 14.5604 13.0684 16.3046C13.0684 18.0488 14.4823 19.4627 16.2265 19.4627Z"
            fill="white" />
        <path
            d="M16.2272 1.26587C7.92155 1.26587 1.18848 7.99894 1.18848 16.3046C1.18848 24.6102 7.92155 31.3433 16.2272 31.3433C24.5328 31.3433 31.2659 24.6102 31.2659 16.3046C31.2659 7.99894 24.5328 1.26587 16.2272 1.26587ZM25.5186 20.1268C25.4464 21.5566 25.0446 22.9665 24.0027 23.9974C22.9506 25.0381 21.5341 25.4258 20.0905 25.4973H12.3639C10.9202 25.4258 9.50381 25.0383 8.45176 23.9974C7.40975 22.9665 7.00804 21.5566 6.93585 20.1268V12.4823C7.00804 11.0526 7.40981 9.64268 8.45176 8.61174C9.50381 7.57106 10.9204 7.1833 12.3639 7.1119H20.0905C21.5342 7.1833 22.9506 7.57088 24.0026 8.61174C25.0446 9.64268 25.4464 11.0526 25.5185 12.4823L25.5186 20.1268Z"
            fill="white" />
        <path
            d="M19.992 8.85365C18.11 8.80204 14.3431 8.80204 12.4611 8.85365C11.4817 8.88054 10.3714 9.12435 9.67361 9.86967C8.94851 10.6444 8.6745 11.5804 8.64671 12.6275C8.59786 14.4654 8.64671 19.9816 8.64671 19.9816C8.67853 21.0286 8.94851 21.9647 9.67361 22.7394C10.3714 23.485 11.4817 23.7286 12.4611 23.7555C14.3431 23.8071 18.11 23.8071 19.992 23.7555C20.9714 23.7286 22.0816 23.4848 22.7794 22.7394C23.5045 21.9647 23.7786 21.0287 23.8063 19.9816V12.6275C23.7786 11.5804 23.5045 10.6444 22.7794 9.86967C22.0814 9.12411 20.9711 8.88054 19.992 8.85365ZM16.2263 21.1997C15.2581 21.1997 14.3117 20.9126 13.5067 20.3747C12.7017 19.8368 12.0743 19.0723 11.7038 18.1778C11.3333 17.2834 11.2364 16.2991 11.4252 15.3496C11.6141 14.4 12.0803 13.5278 12.7649 12.8432C13.4495 12.1586 14.3217 11.6924 15.2713 11.5035C16.2209 11.3146 17.2051 11.4116 18.0996 11.7821C18.994 12.1526 19.7585 12.78 20.2964 13.585C20.8343 14.39 21.1214 15.3364 21.1214 16.3046C21.1214 17.6028 20.6057 18.8479 19.6876 19.7659C18.7696 20.6839 17.5245 21.1997 16.2263 21.1997ZM21.1422 12.4199C20.9486 12.4198 20.7593 12.3624 20.5984 12.2548C20.4374 12.1472 20.3119 11.9942 20.2379 11.8153C20.1638 11.6364 20.1445 11.4396 20.1823 11.2497C20.2201 11.0598 20.3133 10.8854 20.4503 10.7485C20.5872 10.6116 20.7616 10.5184 20.9515 10.4806C21.1414 10.4429 21.3383 10.4623 21.5172 10.5364C21.696 10.6105 21.8489 10.736 21.9565 10.897C22.0641 11.058 22.1215 11.2472 22.1215 11.4409C22.1215 11.5694 22.0961 11.6968 22.0469 11.8156C21.9977 11.9344 21.9256 12.0423 21.8346 12.1332C21.7437 12.2241 21.6357 12.2962 21.5169 12.3454C21.3981 12.3946 21.2708 12.4199 21.1422 12.4199Z"
            fill="white" />
    </g>
    <defs>
        <clipPath id="clip0_335_19492">
            <rect width="30.7993" height="30.7993" fill="white"
                transform="translate(0.827148 0.904907)" />
        </clipPath>
    </defs>
</svg>
