<?xml version="1.0" encoding="UTF-8"?>
<svg id="_Слой_1" data-name="Слой 1" xmlns="http://www.w3.org/2000/svg" viewBox="0 0 196 136">
    <defs>
        <style>
            .cls-1 {
            fill: #d4d4d4;
            }
        </style>
    </defs>
    <path class="cls-1"
        d="M133.23,50.59V23.29c0-.42-.53-.6-.81-.28l-29.83,37.27c-.25,.28-.04,.74,.35,.74h21.55c.6,0,1.12-.28,1.47-.74l6.81-8.49c.28-.32,.46-.74,.46-1.19h0Zm-69.76,1.23l22.39,28c.35,.46,.91,.7,1.51,.7h21.55c.39,0,.6-.42,.35-.7L63.82,23.04c-.28-.32-.81-.14-.81,.28v27.3c.04,.42,.18,.84,.46,1.19h0Z" />
    <path class="cls-1"
        d="M153.02,96.91h5.02v15.37c0,.21,.18,.35,.35,.35h2.88c.21,0,.35-.18,.35-.35v-15.37h6.32c.18,0,.28-.21,.18-.35l-2.18-2.7c-.18-.21-.46-.35-.74-.35h-12.21c-.21,0-.35,.18-.35,.35v2.7c.04,.18,.18,.35,.39,.35m-121.31,15.41l14.74-18.46c.11-.14,0-.35-.18-.35h-3.65c-.28,0-.56,.14-.74,.35l-10.46,13.09v-13.09c0-.21-.18-.35-.35-.35h-2.88c-.21,0-.35,.18-.35,.35v18.46c0,.21,.18,.35,.35,.35h2.81c.25,0,.53-.14,.7-.35m10.42,0l5.05-6.35,5.09,6.35c.18,.21,.46,.35,.74,.35h2.81c.21,0,.35-.18,.35-.35v-18.46c0-.21-.18-.35-.35-.35h-2.35c-.56,0-1.12,.25-1.47,.7l-14.46,18.11c-.11,.14,0,.35,.18,.35h3.65c.32,0,.56-.14,.77-.35m10.46-13.48v8.49l-3.4-4.25,3.4-4.25Zm82.29,13.48l-14.74-18.46c-.18-.21-.46-.35-.74-.35h-2.81c-.21,0-.35,.18-.35,.35v18.46c0,.21,.18,.35,.35,.35h2.81c.28,0,.56-.14,.74-.35l5.09-6.35,5.05,6.35c.18,.21,.46,.35,.74,.35h3.68c.21,0,.32-.21,.18-.35m-11.65-9.23l-3.4,4.25v-8.49l3.4,4.25Zm-40.57-10.07c-5.54,0-10.07,4.49-10.07,10.07s4.49,10.07,10.07,10.07,10.07-4.49,10.07-10.07c0-5.58-4.53-10.07-10.07-10.07m0,16.7c-3.58,0-6.46-2.98-6.46-6.63s2.88-6.63,6.46-6.63,6.46,2.98,6.46,6.63-2.88,6.63-6.46,6.63m63.9-15.86v13.09l-10.46-13.09c-.18-.21-.46-.35-.74-.35h-2.81c-.21,0-.35,.18-.35,.35v8.88c0,.21,.07,.42,.21,.6l2.98,3.75c.14,.18,.39,.07,.39-.14v-7.72l10.46,13.09c.18,.21,.46,.35,.74,.35h2.81c.21,0,.35-.18,.35-.35v-18.46c0-.21-.18-.35-.35-.35h-2.88c-.18,0-.35,.14-.35,.35m-35.16,4v-4c0-.21-.18-.35-.35-.35h-14.74c-.21,0-.35,.18-.35,.35v18.46c0,.21,.18,.35,.35,.35h2.88c.21,0,.35-.18,.35-.35v-15.37h8.25l-5.58,6.98c-.11,.14-.11,.32,0,.46l6.35,7.97c.18,.21,.46,.35,.74,.35h3.68c.18,0,.28-.21,.18-.35l-6.49-8.25,4.53-5.68c.14-.14,.21-.35,.21-.56m-50.53,14.81h8.53c.28,0,.56-.14,.74-.35l2.14-2.7c.11-.14,0-.35-.18-.35h-8v-15.37c0-.21-.18-.35-.35-.35h-2.88c-.21,0-.35,.18-.35,.35v18.46c0,.14,.14,.32,.35,.32" />
</svg>
