<svg width="77" height="29" viewBox="0 0 77 29" fill="none" xmlns="http://www.w3.org/2000/svg">
    <g clip-path="url(#clip0_210_9966)">
        <path
            d="M29.2364 3.14406L19.1571 28.4101H12.5784L7.6218 8.24843C7.31665 7.00492 7.05588 6.55261 6.1409 6.02462C4.64211 5.17339 2.17675 4.37477 0 3.87758L0.152346 3.14421H10.7367C12.0866 3.14421 13.3002 4.09008 13.6054 5.72065L16.2262 20.3442L22.6997 3.14421L29.2364 3.14406ZM55.0052 20.1573C55.0344 13.4925 46.2265 13.1297 46.2898 10.1481C46.3069 9.2379 47.1281 8.27481 48.9264 8.03167C49.8195 7.90686 52.277 7.81539 55.0624 9.15875L56.1541 3.80333C54.6554 3.23189 52.7291 2.68463 50.3348 2.68463C44.1855 2.68463 39.8565 6.12067 39.82 11.037C39.7797 14.6728 42.9086 16.7015 45.2686 17.9123C47.692 19.1512 48.5023 19.9422 48.4938 21.0534C48.4778 22.7492 46.5602 23.4903 44.7714 23.5236C41.6426 23.5748 39.8278 22.6354 38.3785 21.9264L37.2521 27.4659C38.7036 28.1661 41.3916 28.774 44.1732 28.8099C50.709 28.8095 54.9846 25.4101 55.0052 20.1573ZM71.2442 28.4103H77L71.9777 3.14421H66.6643C65.4703 3.14421 64.4637 3.87569 64.0154 4.99628L54.6849 28.4103H61.2156L62.512 24.637H70.495L71.2442 28.4103ZM64.3016 19.4583L67.5779 9.97143L69.4627 19.4583H64.3016ZM38.1278 3.14406L32.9799 28.4101H26.7569L31.906 3.14406H38.1278Z"
            fill="white" />
    </g>
    <defs>
        <clipPath id="clip0_210_9966">
            <rect width="77" height="28" fill="white" transform="translate(0 0.191803)" />
        </clipPath>
    </defs>
</svg>
