<svg width="32" height="32" viewBox="0 0 32 32" fill="none" xmlns="http://www.w3.org/2000/svg">
    <path
        d="M16.3401 0.904907C13.2943 0.904907 10.317 1.80808 7.7845 3.50022C5.25204 5.19235 3.27823 7.59745 2.11267 10.4114C0.947102 13.2253 0.642138 16.3216 1.23634 19.3089C1.83054 22.2961 3.29721 25.0401 5.45089 27.1938C7.60457 29.3474 10.3485 30.8141 13.3358 31.4083C16.323 32.0025 19.4194 31.6975 22.2333 30.532C25.0472 29.3664 27.4523 27.3926 29.1444 24.8601C30.8366 22.3277 31.7397 19.3503 31.7397 16.3046C31.7397 12.2203 30.1173 8.30335 27.2293 5.41536C24.3413 2.52737 20.4243 0.904907 16.3401 0.904907ZM25.2159 22.3314C24.7679 22.3944 22.5769 22.3314 22.4632 22.3314C21.8968 22.3389 21.3503 22.1225 20.9425 21.7294C20.4805 21.2832 20.0675 20.7932 19.616 20.3295C19.483 20.1871 19.3384 20.056 19.1838 19.9375C18.8233 19.661 18.4663 19.7222 18.2965 20.1492C18.164 20.6088 18.0715 21.0789 18.02 21.5544C17.9903 21.9849 17.7173 22.2544 17.2343 22.2842C16.9351 22.2999 16.6358 22.3069 16.3401 22.2982C15.2622 22.2923 14.2011 22.0302 13.2444 21.5334C12.209 20.9571 11.3068 20.1687 10.5967 19.22C9.42949 17.729 8.49676 16.0911 7.66378 14.4023C7.62003 14.3166 6.76605 12.5001 6.74505 12.4144C6.66806 12.1292 6.74505 11.8544 6.9813 11.7582C7.13179 11.7004 9.94573 11.7582 9.99298 11.7582C10.2023 11.7567 10.4067 11.8219 10.5766 11.9443C10.7464 12.0667 10.873 12.2399 10.938 12.4389C11.4586 13.7706 12.1707 15.0192 13.0519 16.1453C13.1753 16.2953 13.3197 16.4267 13.4807 16.5356C13.7099 16.693 13.9269 16.6388 14.0214 16.3728C14.1335 16.0062 14.1994 15.627 14.2174 15.2441C14.2331 14.4846 14.2174 13.9859 14.1754 13.2264C14.1474 12.7399 13.9759 12.3146 13.2584 12.1764C13.0379 12.1362 13.0187 11.9542 13.1604 11.7722C13.4562 11.3959 13.8604 11.3347 14.3136 11.3119C14.9891 11.2734 15.6646 11.2997 16.3401 11.3119H16.4871C16.7811 11.3108 17.0743 11.3408 17.3621 11.4012C17.5323 11.4359 17.6867 11.5247 17.8025 11.6543C17.9182 11.7839 17.989 11.9473 18.0043 12.1204C18.039 12.312 18.0537 12.5067 18.048 12.7014C18.0305 13.5291 17.9903 14.3586 17.9815 15.1863C17.9734 15.5148 18.0034 15.843 18.0708 16.1646C18.167 16.6055 18.4698 16.7158 18.7708 16.3973C19.1609 15.9865 19.5184 15.5459 19.84 15.0796C20.4101 14.2296 20.8799 13.3164 21.24 12.3584C21.436 11.8667 21.59 11.7582 22.115 11.7582H25.1004C25.2779 11.755 25.4549 11.7786 25.6254 11.8282C25.6857 11.844 25.7421 11.8722 25.7911 11.9108C25.8401 11.9495 25.8805 11.9979 25.9099 12.0529C25.9393 12.1079 25.9571 12.1685 25.962 12.2307C25.9669 12.2929 25.959 12.3554 25.9386 12.4144C25.7916 13.0689 25.4381 13.6271 25.0636 14.1644C24.4564 15.0236 23.8159 15.8618 23.1947 16.7105C23.1199 16.8203 23.0516 16.9342 22.9899 17.0518C22.7554 17.4753 22.7729 17.7115 23.1124 18.0615C23.6549 18.6198 24.2342 19.1412 24.7574 19.7152C25.1412 20.1328 25.4878 20.5831 25.7934 21.0609C26.1661 21.6629 25.9299 22.2299 25.2159 22.3314Z"
        fill="white" />
</svg>
