<svg viewBox="0 0 21 20" fill="none" xmlns="http://www.w3.org/2000/svg">
    <path opacity="0.5"
          d="M20 11C20 14.7712 20 16.6569 18.6088 17.8284C17.2175 19 14.9783 19 10.5 19C6.0217 19 3.78246 19 2.39128 17.8284C1 16.6569 1 14.7712 1 11"
          stroke="url(#paint0_linear_208_8042)"/>
    <path
        d="M20 8C20 10.4503 20 11.6753 19.4823 12.6112C19.0269 13.4344 18.3002 14.1037 17.4065 14.5232C16.3904 15 15.0602 15 12.4 15H8.6C5.93972 15 4.60962 15 3.5935 14.5232C2.69974 14.1037 1.97309 13.4344 1.51775 12.6112C1 11.6753 1 10.4503 1 8C1 5.54974 1 4.32465 1.51775 3.38875C1.97309 2.56555 2.69974 1.89626 3.5935 1.47687C4.60962 1 5.93972 1 8.6 1H12.4C15.0602 1 16.3904 1 17.4065 1.47687C18.3002 1.89626 19.0269 2.56555 19.4823 3.38875C20 4.32465 20 5.54974 20 8Z"
        stroke="url(#paint1_linear_208_8042)"/>
    <path d="M10.5 11V5M10.5 5L9 7.5M10.5 5L12 7.5" stroke="url(#paint2_linear_208_8042)" stroke-linecap="round"
          stroke-linejoin="round"/>
    <defs>
        <linearGradient id="paint0_linear_208_8042" x1="10.5" y1="19" x2="10.5" y2="11" gradientUnits="userSpaceOnUse">
            <stop stop-color="#00C52E"/>
            <stop offset="1" stop-color="#00E636"/>
        </linearGradient>
        <linearGradient id="paint1_linear_208_8042" x1="10.5" y1="15" x2="10.5" y2="1" gradientUnits="userSpaceOnUse">
            <stop stop-color="#00C52E"/>
            <stop offset="1" stop-color="#00E636"/>
        </linearGradient>
        <linearGradient id="paint2_linear_208_8042" x1="10.5" y1="11" x2="10.5" y2="5" gradientUnits="userSpaceOnUse">
            <stop stop-color="#00C52E"/>
            <stop offset="1" stop-color="#00E636"/>
        </linearGradient>
    </defs>
</svg>
