<svg width="20" height="20" viewBox="0 0 20 20" fill="none" xmlns="http://www.w3.org/2000/svg">
    <path opacity="0.5"
          d="M1.66699 9.99984C1.66699 6.07146 1.66699 4.10728 2.88738 2.8869C4.10777 1.6665 6.07195 1.6665 10.0003 1.6665C13.9287 1.6665 15.8929 1.6665 17.1132 2.8869C18.3337 4.10728 18.3337 6.07146 18.3337 9.99984"
          stroke="url(#paint0_linear_2635_31926)"/>
    <path
        d="M1.66699 11.6667C1.66699 9.33308 1.66699 8.16634 2.12113 7.27504C2.5206 6.49103 3.15803 5.85361 3.94203 5.45414C4.83333 5 6.00011 5 8.33366 5H11.667C14.0006 5 15.1673 5 16.0587 5.45414C16.8427 5.85361 17.4801 6.49103 17.8795 7.27504C18.3337 8.16634 18.3337 9.33308 18.3337 11.6667C18.3337 14.0002 18.3337 15.167 17.8795 16.0583C17.4801 16.8423 16.8427 17.4797 16.0587 17.8792C15.1673 18.3333 14.0006 18.3333 11.667 18.3333H8.33366C6.00011 18.3333 4.83333 18.3333 3.94203 17.8792C3.15803 17.4797 2.5206 16.8423 2.12113 16.0583C1.66699 15.167 1.66699 14.0002 1.66699 11.6667Z"
        stroke="url(#paint1_linear_2635_31926)"/>
    <path d="M10.0003 9.1665V14.1665M10.0003 14.1665L12.0837 12.0832M10.0003 14.1665L7.91699 12.0832"
          stroke="url(#paint2_linear_2635_31926)" stroke-linecap="round" stroke-linejoin="round"/>
    <defs>
        <linearGradient id="paint0_linear_2635_31926" x1="10.0003" y1="1.6665" x2="10.0003" y2="9.99984"
                        gradientUnits="userSpaceOnUse">
            <stop stop-color="#00C52E"/>
            <stop offset="1" stop-color="#00E636"/>
        </linearGradient>
        <linearGradient id="paint1_linear_2635_31926" x1="10.0003" y1="5" x2="10.0003" y2="18.3333"
                        gradientUnits="userSpaceOnUse">
            <stop stop-color="#00C52E"/>
            <stop offset="1" stop-color="#00E636"/>
        </linearGradient>
        <linearGradient id="paint2_linear_2635_31926" x1="10.0003" y1="9.1665" x2="10.0003" y2="14.1665"
                        gradientUnits="userSpaceOnUse">
            <stop stop-color="#00C52E"/>
            <stop offset="1" stop-color="#00E636"/>
        </linearGradient>
    </defs>
</svg>
