<svg viewBox="0 0 17 18" fill="none" xmlns="http://www.w3.org/2000/svg">
    <path
        d="M16.8335 8.99996C16.8335 4.40829 13.0918 0.666626 8.50016 0.666626C3.9085 0.666625 0.166828 4.40829 0.166828 8.99996C0.166828 13.5916 3.90849 17.3333 8.50016 17.3333C13.0918 17.3333 16.8335 13.5916 16.8335 8.99996ZM9.10849 12.3833L6.16683 9.44163C6.04183 9.31663 5.98349 9.15829 5.98349 8.99996C5.98349 8.84163 6.04183 8.68329 6.16683 8.55829L9.1085 5.61663C9.35016 5.37496 9.75016 5.37496 9.99183 5.61663C10.2335 5.85829 10.2335 6.25829 9.99183 6.49996L8.74183 7.74996L7.49183 8.99996L9.99183 11.5C10.2335 11.7416 10.2335 12.1416 9.99183 12.3833C9.75016 12.625 9.35849 12.625 9.10849 12.3833Z"
        fill="currentColor"/>
</svg>
