<svg viewBox="0 0 17 18" fill="none" xmlns="http://www.w3.org/2000/svg">
    <path
        d="M15.3658 8.67202C15.3256 8.76909 15.2575 8.85206 15.1701 8.91043C15.0828 8.9688 14.9801 8.99996 14.875 8.99997H12.2187V14.3125C12.2184 14.5942 12.1064 14.8642 11.9072 15.0634C11.708 15.2626 11.4379 15.3746 11.1562 15.375H5.84374C5.56205 15.3746 5.29198 15.2626 5.09279 15.0634C4.89361 14.8642 4.78156 14.5942 4.78124 14.3125V8.99997H2.12499C2.01992 8.99996 1.91721 8.96879 1.82985 8.91042C1.74249 8.85204 1.6744 8.76907 1.6342 8.672C1.59399 8.57493 1.58346 8.46811 1.60395 8.36506C1.62444 8.26201 1.67503 8.16735 1.74931 8.09304L8.12431 1.71804C8.22397 1.61845 8.3591 1.5625 8.49999 1.5625C8.64088 1.5625 8.77601 1.61845 8.87566 1.71804L15.2507 8.09304C15.3249 8.16736 15.3755 8.26202 15.396 8.36508C15.4165 8.46813 15.406 8.57495 15.3658 8.67202Z"
        fill="currentColor"/>
</svg>

