<svg width="40" height="40" viewBox="0 0 40 40" fill="none" xmlns="http://www.w3.org/2000/svg">
    <path
        d="M12.6676 14.0093C7.14541 14.0093 2.6687 18.486 2.6687 24.0082C2.6687 29.5304 7.14541 34.0071 12.6676 34.0071H27.3327C32.8549 34.0071 37.3316 29.5304 37.3316 24.0082C37.3316 18.486 32.8549 14.0093 27.3327 14.0093H12.6676ZM35.9984 24.0082C35.9929 28.7919 32.1163 32.6685 27.3327 32.6739H12.6676C7.88166 32.6739 4.00192 28.7941 4.00192 24.0082C4.00192 19.2223 7.88174 15.3425 12.6676 15.3425H27.3327C32.1164 15.348 35.993 19.2246 35.9984 24.0082Z"
        fill="currentColor"/>
    <path
        d="M18.0003 12.6764H21.9999C22.368 12.6764 22.6665 12.378 22.6665 12.0098C22.6665 11.6417 22.368 11.3433 21.9999 11.3433H18.0003C17.6321 11.3433 17.3337 11.6417 17.3337 12.0098C17.3337 12.3779 17.6322 12.6764 18.0003 12.6764Z"
        fill="currentColor"/>
    <path
        d="M19.3333 10.6769H20.6665C21.0347 10.6769 21.3331 10.3784 21.3331 10.0103C21.3331 9.64216 21.0347 9.34375 20.6665 9.34375H19.3333C18.9652 9.34375 18.6667 9.64223 18.6667 10.0103C18.6667 10.3784 18.9652 10.6769 19.3333 10.6769Z"
        fill="currentColor"/>
    <path
        d="M35.9983 3.88787C36.9166 3.56321 37.4674 2.62425 37.3027 1.66428C37.138 0.7043 36.3057 0.00265597 35.3317 0.00265597C34.3578 0.00265597 33.5254 0.7043 33.3608 1.66428C33.1961 2.62425 33.7469 3.56321 34.6652 3.88787V6.68757C30.9975 2.4124 25.6328 -0.0300749 20 0.0109363C14.3678 -0.0306998 9.00306 2.41068 5.33494 6.68491V3.88521C6.2532 3.56056 6.804 2.62159 6.63933 1.66162C6.47466 0.701644 5.64233 0 4.66837 0C3.69441 0 2.86208 0.701644 2.69733 1.66162C2.53266 2.62159 3.08346 3.56056 4.00172 3.88521V8.39676C1.33334 12.3395 -0.0625302 17.0054 0.00215034 21.766C0.00215034 33.6994 6.91743 40.0067 20 40.0067C33.0826 40.0067 39.9979 33.6994 39.9979 21.766C40.0621 17.0064 38.6662 12.3415 35.9983 8.39942V3.88787ZM35.3317 1.34415C35.6999 1.34415 35.9983 1.64264 35.9983 2.01072C35.9983 2.37881 35.6999 2.67729 35.3317 2.67729C34.9636 2.67729 34.6652 2.37881 34.6652 2.01072C34.6652 1.64264 34.9636 1.34415 35.3317 1.34415ZM4.66837 1.34415C5.03653 1.34415 5.33494 1.64264 5.33494 2.01072C5.33494 2.37881 5.03653 2.67729 4.66837 2.67729C4.30021 2.67729 4.0018 2.37881 4.0018 2.01072C4.0018 1.64264 4.30021 1.34415 4.66837 1.34415ZM20 38.6735C11.4856 38.6735 1.33537 35.7405 1.33537 21.766C1.33537 10.1239 9.35982 1.34423 20 1.34423C30.6402 1.34423 38.6647 10.124 38.6647 21.766C38.6647 35.7405 28.5145 38.6735 20 38.6735Z"
        fill="currentColor"/>
    <path
        d="M10.6677 18.6758C8.82698 18.6758 7.33472 20.168 7.33472 22.0088C7.33472 23.8495 8.82698 25.3418 10.6677 25.3418C12.5085 25.3418 14.0007 23.8495 14.0007 22.0088C13.9985 20.1689 12.5075 18.678 10.6677 18.6758ZM10.6677 24.0085C9.56331 24.0085 8.66793 23.1131 8.66793 22.0087C8.66793 20.9043 9.56331 20.0089 10.6677 20.0089C11.7722 20.0089 12.6675 20.9043 12.6675 22.0087C12.6675 23.1132 11.7721 24.0085 10.6677 24.0085Z"
        fill="currentColor"/>
    <path
        d="M25.9993 22.0088C25.9993 23.8495 27.4915 25.3418 29.3323 25.3418C31.173 25.3418 32.6653 23.8495 32.6653 22.0088C32.6653 20.168 31.173 18.6758 29.3323 18.6758C27.4925 18.678 26.0015 20.169 25.9993 22.0088ZM29.3323 20.009C30.4367 20.009 31.3321 20.9044 31.3321 22.0088C31.3321 23.1132 30.4367 24.0086 29.3323 24.0086C28.2279 24.0086 27.3325 23.1132 27.3325 22.0088C27.3325 20.9044 28.2279 20.009 29.3323 20.009Z"
        fill="currentColor"/>
    <path
        d="M22.6663 25.3418H17.3335C16.5971 25.3418 16.0002 25.9387 16.0002 26.675C16.0002 28.8839 17.7909 30.6746 19.9998 30.6746C22.2087 30.6746 23.9994 28.8839 23.9994 26.675C23.9994 25.9387 23.4025 25.3418 22.6663 25.3418ZM19.9998 29.3414C18.5272 29.3414 17.3335 28.1476 17.3335 26.675H22.6663C22.6663 28.1476 21.4725 29.3414 19.9998 29.3414Z"
        fill="currentColor"/>
</svg>

