<svg width="48" height="48" viewBox="0 0 48 48" fill="none" xmlns="http://www.w3.org/2000/svg">
    <g filter="url(#filter0_d_2793_31633)">
        <path fill-rule="evenodd" clip-rule="evenodd"
              d="M24 0C19.9368 0 15.9495 0.33062 12.0641 0.96675C11.2582 1.09868 10.6667 1.79498 10.6667 2.61152V3.47049C8.82975 3.819 7.01776 4.23816 5.23365 4.72506C4.52936 4.91727 4.03213 5.54546 4.00679 6.27508C4.00227 6.40513 4 6.53567 4 6.66667C4 12.433 8.39212 17.173 14.0141 17.7242C15.7238 19.6552 17.9875 21.0885 20.559 21.7736C20.3453 23.521 19.8198 25.1706 19.0399 26.6667H18.4444C16.6035 26.6667 15.1111 28.1591 15.1111 30V35.5556H13.4444C11.9103 35.5556 10.6667 36.7992 10.6667 38.3333C10.6667 39.2538 11.4129 40 12.3333 40H35.6667C36.5871 40 37.3333 39.2538 37.3333 38.3333C37.3333 36.7992 36.0897 35.5556 34.5556 35.5556H32.8889V30C32.8889 28.1591 31.3965 26.6667 29.5556 26.6667H28.9601C28.1802 25.1706 27.6547 23.521 27.441 21.7736C30.0125 21.0885 32.2762 19.6552 33.9859 17.7242C39.6079 17.173 44 12.433 44 6.66667C44 6.53563 43.9977 6.40509 43.9932 6.27508C43.9679 5.54546 43.4706 4.91727 42.7663 4.72506C40.9822 4.23816 39.1702 3.819 37.3333 3.47049V2.61152C37.3333 1.79498 36.7418 1.09868 35.9359 0.96675C32.0505 0.33062 28.0632 0 24 0ZM7.38942 7.60542C8.47169 7.33279 9.56434 7.08618 10.6667 6.86631V8.88889C10.6667 10.5322 10.9645 12.1072 11.509 13.562C9.29039 12.4005 7.7015 10.1993 7.38942 7.60542ZM40.6106 7.60542C40.2985 10.1993 38.7096 12.4005 36.491 13.562C37.0355 12.1072 37.3333 10.5322 37.3333 8.88889V6.86631C38.4357 7.08618 39.5283 7.33279 40.6106 7.60542Z"
              fill="currentColor"/>
    </g>
</svg>
