<svg viewBox="0 0 33 34" fill="none" xmlns="http://www.w3.org/2000/svg">
    <g filter="url(#filter0_d_2635_32680)">
        <path fill-rule="evenodd" clip-rule="evenodd"
              d="M8.70615 12.7482C8.8247 12.5433 9.08688 12.4733 9.29175 12.5919L16.4353 16.7259L23.5289 12.617C23.7337 12.4983 23.9959 12.5682 24.1145 12.773C24.2332 12.9778 24.1633 13.24 23.9585 13.3587L16.6502 17.592C16.5174 17.6689 16.3535 17.669 16.2207 17.5921L8.86242 13.3338C8.65756 13.2152 8.58759 12.953 8.70615 12.7482Z"
              fill="currentColor"/>
        <path fill-rule="evenodd" clip-rule="evenodd"
              d="M16.4364 16.7842C16.6731 16.7842 16.8649 16.9761 16.8649 17.2128V24.7711C16.8649 25.0078 16.6731 25.1997 16.4364 25.1997C16.1997 25.1997 16.0078 25.0078 16.0078 24.7711V17.2128C16.0078 16.9761 16.1997 16.7842 16.4364 16.7842Z"
              fill="currentColor"/>
        <path fill-rule="evenodd" clip-rule="evenodd"
              d="M16.4372 8.00001C17.1159 7.99888 17.8185 8.13992 18.3761 8.44543L18.3785 8.44675L22.8278 10.9214C22.8277 10.9213 22.828 10.9214 22.8278 10.9214C23.4147 11.2465 23.9236 11.7993 24.2842 12.4109C24.6449 13.0226 24.8821 13.7347 24.8821 14.4046V19.113C24.8821 19.7829 24.6449 20.495 24.2842 21.1067C23.9236 21.7183 23.4151 22.2709 22.8282 22.596C22.8281 22.5961 22.8283 22.5959 22.8282 22.596L18.3785 25.0708L18.3775 25.0714C17.823 25.3778 17.1198 25.5186 16.441 25.5186C15.7623 25.5186 15.0591 25.3778 14.5046 25.0714L14.5036 25.0708L10.0543 22.5962C10.0542 22.5962 10.0544 22.5963 10.0543 22.5962C9.46742 22.2711 8.95856 21.7183 8.59794 21.1067C8.23726 20.495 8 19.7829 8 19.113V14.4046C8 13.7347 8.23726 13.0226 8.59794 12.4109C8.9586 11.7993 9.46712 11.2465 10.0541 10.9215L14.5021 8.45592C14.5024 8.45572 14.5028 8.45552 14.5031 8.45533C15.0578 8.14425 15.7592 8.00114 16.4372 8.00001ZM16.4386 8.85715C15.865 8.85811 15.3169 8.98148 14.9217 9.20333L14.9197 9.20447L10.4697 11.6711C10.0484 11.9044 9.64012 12.3309 9.33628 12.8463C9.03238 13.3617 8.85714 13.9245 8.85714 14.4046V19.113C8.85714 19.5931 9.03238 20.1559 9.33628 20.6713C9.64012 21.1867 10.0482 21.6131 10.4695 21.8464L14.9192 24.3212C14.9191 24.3211 14.9193 24.3213 14.9192 24.3212C15.3146 24.5396 15.8658 24.6615 16.441 24.6615C17.0163 24.6615 17.5672 24.5398 17.9626 24.3213C17.9626 24.3214 17.9627 24.3213 17.9626 24.3213L22.4119 21.8468C22.8332 21.6135 23.242 21.1867 23.5458 20.6713C23.8497 20.1559 24.025 19.5931 24.025 19.113V14.4046C24.025 13.9245 23.8497 13.3617 23.5458 12.8463C23.242 12.3309 22.8339 11.9045 22.4126 11.6712L17.9643 9.19716C17.9639 9.19695 17.9636 9.19674 17.9632 9.19654C17.5626 8.97744 17.0115 8.8562 16.4386 8.85715Z"
              fill="currentColor"/>
    </g>
</svg>
