<svg viewBox="0 0 32 32" fill="none" xmlns="http://www.w3.org/2000/svg">
    <g clip-path="url(#clip0_335_19496)">
        <path
            d="M31.1733 16.3046C31.1733 7.79866 24.2796 0.904907 15.7737 0.904907C7.26777 0.904907 0.374023 7.79866 0.374023 16.3046C0.374023 24.8105 7.26777 31.7042 15.7737 31.7042C15.8639 31.7042 15.9541 31.7042 16.0444 31.6982V19.7153H12.7359V15.8594H16.0444V13.0201C16.0444 9.72963 18.0535 7.93701 20.9891 7.93701C22.3967 7.93701 23.6058 8.03928 23.9547 8.0874V11.5283H21.9335C20.3394 11.5283 20.0266 12.2862 20.0266 13.3991V15.8534H23.8465L23.3472 19.7093H20.0266V31.1087C26.4632 29.2619 31.1733 23.3367 31.1733 16.3046Z"
            fill="currentColor" />
    </g>
    <defs>
        <clipPath id="clip0_335_19496">
            <rect fill="currentColor"
                transform="translate(0.374023 0.904907)" />
        </clipPath>
    </defs>
</svg>
