<svg width="55" height="42" viewBox="0 0 55 42" fill="none" xmlns="http://www.w3.org/2000/svg">
    <g filter="url(#filter0_d_2872_29253)">
        <path fill-rule="evenodd" clip-rule="evenodd"
              d="M33.5 4.88281C26.5964 4.88281 21 10.2606 21 16.8945C21 23.5284 26.5964 28.9062 33.5 28.9062C40.4036 28.9062 46 23.5284 46 16.8945C46 10.2606 40.4036 4.88281 33.5 4.88281ZM34.4615 9.5027C34.4615 8.9924 34.031 8.57873 33.5 8.57873C32.969 8.57873 32.5385 8.9924 32.5385 9.5027V16.8945C32.5385 17.4048 32.969 17.8185 33.5 17.8185H39.2692C39.8003 17.8185 40.2308 17.4048 40.2308 16.8945C40.2308 16.3842 39.8003 15.9706 39.2692 15.9706H34.4615V9.5027Z"
              fill="currentColor"/>
        <path
            d="M48.9998 17C48.9998 25.2843 42.0111 32 33.39 32C24.769 32 17.7803 25.2843 17.7803 17C17.7803 8.71573 24.769 2 33.39 2C42.0111 2 48.9998 8.71573 48.9998 17Z"
            stroke="currentColor" stroke-width="3" stroke-linecap="round" stroke-linejoin="round"/>
        <path
            d="M17.1787 10C17.7175 10 18.1543 9.45527 18.1543 8.9375C18.1543 8.41973 17.7175 8 17.1787 8L10.0242 8C9.48542 8 9.04863 8.41973 9.04863 8.9375C9.04863 9.45527 9.48557 10 10.0244 10H17.1787Z"
            fill="currentColor"/>
        <path
            d="M19.2844 10C19.8232 10 20.26 9.45527 20.26 8.9375C20.26 8.41973 19.8232 8 19.2844 8L12.1299 8C11.5911 8 11.1543 8.41973 11.1543 8.9375C11.1543 9.45527 11.5913 10 12.1301 10H19.2844Z"
            fill="currentColor"/>
        <path
            d="M18.1543 15.7491C18.6931 15.7491 19.1299 15.2043 19.1299 14.6866C19.1299 14.1688 18.6931 13.7491 18.1543 13.7491L10.9998 13.7491C10.461 13.7491 10.0242 14.1688 10.0242 14.6866C10.0242 15.2043 10.4612 15.7491 11 15.7491H18.1543Z"
            fill="currentColor"/>
        <path
            d="M14.5772 15.7491C15.116 15.7491 15.5528 15.2043 15.5528 14.6866C15.5528 14.1688 15.116 13.7491 14.5772 13.7491L7.42269 13.7491C6.88387 13.7491 6.44708 14.1688 6.44708 14.6866C6.44708 15.2043 6.88403 15.7491 7.42284 15.7491H14.5772Z"
            fill="currentColor"/>
        <path
            d="M18.5 21.5C19.0388 21.5 19.4756 20.9553 19.4756 20.4375C19.4756 19.9197 19.0388 19.5 18.5 19.5H11.3455C10.8067 19.5 10.3699 19.9197 10.3699 20.4375C10.3699 20.9553 10.8069 21.5 11.3457 21.5H18.5Z"
            fill="currentColor"/>
        <path
            d="M20.8111 27.7591C21.3499 27.7591 21.7867 27.2144 21.7867 26.6966C21.7867 26.1789 21.3499 25.7591 20.8111 25.7591H13.6566C13.1178 25.7591 12.681 26.1789 12.681 26.6966C12.681 27.2144 13.118 27.7591 13.6568 27.7591H20.8111Z"
            fill="currentColor"/>
        <path
            d="M17.3358 27.7591C17.8746 27.7591 18.3114 27.2144 18.3114 26.6966C18.3114 26.1789 17.8746 25.7591 17.3358 25.7591H10.1814C9.64255 25.7591 9.20575 26.1789 9.20575 26.6966C9.20575 27.2144 9.6427 27.7591 10.1815 27.7591H17.3358Z"
            fill="currentColor"/>
        <path
            d="M12.1301 15.7491C12.6689 15.7491 13.1055 15.2043 13.1055 14.6866C13.1055 14.1688 12.6687 13.7491 12.1299 13.7491L4.97546 13.7491C4.43664 13.7491 3.99985 14.1688 3.99985 14.6866C3.99985 15.2043 4.43679 15.7491 4.97561 15.7491H12.1301Z"
            fill="currentColor"/>
    </g>
</svg>

