<svg width="40" height="39" viewBox="0 0 40 39" fill="none" xmlns="http://www.w3.org/2000/svg">
    <path
        d="M4.28101 2.64862C4.25498 2.62258 4.21277 2.62258 4.18673 2.64862L1.29589 5.53946C1.28339 5.55195 1.27637 5.56891 1.27637 5.58659C1.27637 5.60427 1.28339 5.62123 1.29589 5.63374L5.89645 10.2343L1.29589 14.8349C1.28339 14.8473 1.27637 14.8644 1.27637 14.882C1.27637 14.8997 1.28339 14.9166 1.29589 14.9292L4.18673 17.82C4.21277 17.846 4.25498 17.846 4.28101 17.82L8.88157 13.2194L13.4821 17.82C13.5081 17.846 13.5504 17.846 13.5764 17.82L16.4673 14.9292C16.4797 14.9166 16.4868 14.8997 16.4868 14.882C16.4868 14.8644 16.4797 14.8473 16.4673 14.8349L11.8667 10.2343L16.4673 5.63374C16.4797 5.62123 16.4868 5.60427 16.4868 5.58659C16.4868 5.56891 16.4797 5.55195 16.4673 5.53946L13.5764 2.64862C13.5504 2.62258 13.5081 2.62258 13.4821 2.64862L8.88157 7.24918L4.28101 2.64862ZM8.92871 9.1109L13.5293 4.51034L14.6056 5.58659L10.005 10.1872C9.99246 10.1997 9.98545 10.2166 9.98545 10.2343C9.98545 10.252 9.99246 10.2689 10.005 10.2814L14.6056 14.882L13.5293 15.9582L8.92871 11.3577C8.90267 11.3317 8.86046 11.3317 8.83443 11.3577L4.23387 15.9582L3.15762 14.882L7.75818 10.2814C7.77067 10.2689 7.7777 10.252 7.7777 10.2343C7.7777 10.2166 7.77067 10.1997 7.75818 10.1872L3.15762 5.58659L4.23387 4.51034L8.83443 9.1109C8.86046 9.13694 8.90267 9.13694 8.92871 9.1109ZM19.9168 37.4152C19.9042 37.4357 19.9038 37.4614 19.9157 37.4824C19.9274 37.5034 19.9497 37.5164 19.9737 37.5164H38.6764C38.7004 37.5164 38.7226 37.5034 38.7345 37.4824C38.7462 37.4614 38.7458 37.4357 38.7334 37.4152L29.3821 21.9708C29.37 21.9508 29.3484 21.9386 29.325 21.9386C29.3017 21.9386 29.2801 21.9508 29.2681 21.9708L19.9168 37.4152ZM15.7293 37.5922C15.7661 37.5922 15.796 37.5624 15.796 37.5256V23.83C15.796 23.7932 15.7661 23.7633 15.7293 23.7633H2.03379C1.99698 23.7633 1.96713 23.7932 1.96713 23.83V37.5256C1.96713 37.5624 1.99698 37.5922 2.03379 37.5922H15.7293ZM24.155 5.5127C25.2966 4.22837 27.1181 3.34001 29.325 3.34001C31.532 3.34001 33.3534 4.22837 34.4952 5.5127C35.6577 6.82067 36.2193 8.52049 36.2193 10.2343C36.2193 11.9481 35.6577 13.6479 34.4952 14.9558C33.3534 16.2402 31.532 17.1286 29.325 17.1286C27.1181 17.1286 25.2966 16.2402 24.155 14.9558C22.9924 13.6479 22.4308 11.9481 22.4308 10.2343C22.4308 8.52049 22.9924 6.82067 24.155 5.5127ZM29.325 24.4826L36.3996 36.1666H22.2506L29.325 24.4826ZM14.4462 25.1132V36.2425H3.3169V25.1132H14.4462ZM29.325 1.99023C26.7516 1.99023 24.5562 3.02959 23.1462 4.61597C21.7372 6.2011 21.081 8.23251 21.081 10.2343C21.081 12.2361 21.7372 14.2674 23.1462 15.8526C24.5562 17.439 26.7516 18.4784 29.325 18.4784C31.8986 18.4784 34.0938 17.439 35.504 15.8526C36.9129 14.2674 37.5692 12.2361 37.5692 10.2343C37.5692 8.23251 36.9129 6.2011 35.504 4.61597C34.0938 3.02959 31.8986 1.99023 29.325 1.99023Z"
        fill="currentColor" stroke="currentColor" stroke-width="0.133333" stroke-linejoin="round"/>
</svg>
