<svg width="17" height="18" viewBox="0 0 17 18" fill="none" xmlns="http://www.w3.org/2000/svg">
    <path
        d="M5.94287 13.5971V6.40047C5.94287 6.11714 6.02787 5.84089 6.1837 5.60714L8.11745 2.7313C8.42204 2.27089 9.17995 1.94505 9.82454 2.18589C10.5187 2.41964 10.9791 3.1988 10.8304 3.89297L10.462 6.20922C10.4337 6.42172 10.4904 6.61297 10.6108 6.76172C10.7312 6.8963 10.9083 6.9813 11.0995 6.9813H14.0108C14.5704 6.9813 15.052 7.20797 15.3354 7.60464C15.6045 7.98714 15.6541 8.48297 15.477 8.98589L13.7345 14.2913C13.515 15.1696 12.5587 15.8851 11.6095 15.8851H8.84704C8.37245 15.8851 7.70662 15.7221 7.40204 15.4176L6.49537 14.7163C6.14829 14.4542 5.94287 14.0363 5.94287 13.5971Z"
        fill="currentColor"/>
    <path
        d="M3.69038 5.01917H2.96079C1.86288 5.01917 1.41663 5.44416 1.41663 6.4925V13.6183C1.41663 14.6667 1.86288 15.0917 2.96079 15.0917H3.69038C4.78829 15.0917 5.23454 14.6667 5.23454 13.6183V6.4925C5.23454 5.44416 4.78829 5.01917 3.69038 5.01917Z"
        fill="currentColor"/>
</svg>
