<svg viewBox="0 0 17 18" fill="none" xmlns="http://www.w3.org/2000/svg">
    <path
        d="M11.0573 4.39583V11.5925C11.0573 11.8758 10.9723 12.1521 10.8165 12.3858L8.88271 15.2617C8.57813 15.7221 7.82021 16.0479 7.17563 15.8071C6.48146 15.5733 6.02105 14.7942 6.1698 14.1L6.53813 11.7837C6.56646 11.5712 6.5098 11.38 6.38938 11.2312C6.26897 11.0967 6.09188 11.0117 5.90063 11.0117H2.98938C2.4298 11.0117 1.94813 10.785 1.6648 10.3883C1.39563 10.0058 1.34605 9.50999 1.52313 9.00708L3.26563 3.70166C3.48521 2.82333 4.44146 2.10791 5.39063 2.10791H8.15313C8.62771 2.10791 9.29355 2.27083 9.59813 2.57541L10.5048 3.27666C10.8519 3.54583 11.0573 3.95666 11.0573 4.39583Z"
        fill="currentColor"/>
    <path
        d="M13.3098 12.9737H14.0394C15.1373 12.9737 15.5835 12.5487 15.5835 11.5004V4.38166C15.5835 3.33333 15.1373 2.90833 14.0394 2.90833H13.3098C12.2119 2.90833 11.7656 3.33333 11.7656 4.38166V11.5075C11.7656 12.5487 12.2119 12.9737 13.3098 12.9737Z"
        fill="currentColor"/>
</svg>
