<svg viewBox="0 0 40 40" fill="none" xmlns="http://www.w3.org/2000/svg">
    <g clip-path="url(#clip0_2949_22616)">
        <path
            d="M20 24.1016C22.2652 24.1016 24.1016 22.2652 24.1016 20C24.1016 17.7348 22.2652 15.8984 20 15.8984C17.7348 15.8984 15.8984 17.7348 15.8984 20C15.8984 22.2652 17.7348 24.1016 20 24.1016Z"
            fill="currentColor"/>
        <path
            d="M20 0.46875C9.2132 0.46875 0.46875 9.2132 0.46875 20C0.46875 30.7868 9.2132 39.5312 20 39.5312C30.7868 39.5312 39.5312 30.7868 39.5312 20C39.5312 9.2132 30.7868 0.46875 20 0.46875ZM32.067 24.9641C31.9733 26.8209 31.4515 28.652 30.0983 29.9909C28.732 31.3424 26.8922 31.846 25.0174 31.9388H14.9827C13.1077 31.846 11.2681 31.3427 9.9018 29.9909C8.54852 28.652 8.0268 26.8209 7.93305 24.9641V15.0359C8.0268 13.1791 8.54859 11.348 9.9018 10.0091C11.2681 8.6575 13.1079 8.15391 14.9827 8.06117H25.0173C26.8923 8.15391 28.7319 8.65727 30.0982 10.0091C31.4515 11.348 31.9732 13.1791 32.067 15.0359L32.067 24.9641Z"
            fill="currentColor"/>
        <path
            d="M24.8906 10.3233C22.4464 10.2563 17.5542 10.2563 15.11 10.3233C13.838 10.3582 12.396 10.6748 11.4898 11.6428C10.5481 12.649 10.1922 13.8646 10.1561 15.2245C10.0927 17.6114 10.1561 24.7755 10.1561 24.7755C10.1975 26.1352 10.5481 27.351 11.4898 28.3572C12.396 29.3255 13.838 29.6418 15.11 29.6767C17.5542 29.7437 22.4464 29.7437 24.8906 29.6767C26.1625 29.6418 27.6045 29.3252 28.5107 28.3572C29.4525 27.351 29.8083 26.1354 29.8444 24.7755V15.2245C29.8083 13.8646 29.4525 12.649 28.5107 11.6428C27.6042 10.6745 26.1622 10.3582 24.8906 10.3233ZM20 26.3574C18.7426 26.3574 17.5134 25.9846 16.468 25.286C15.4225 24.5874 14.6076 23.5945 14.1265 22.4329C13.6453 21.2712 13.5194 19.9929 13.7647 18.7597C14.01 17.5265 14.6155 16.3937 15.5046 15.5046C16.3937 14.6155 17.5265 14.01 18.7597 13.7647C19.9929 13.5194 21.2712 13.6453 22.4328 14.1265C23.5945 14.6077 24.5874 15.4225 25.286 16.468C25.9845 17.5135 26.3574 18.7426 26.3574 20C26.3574 21.6861 25.6876 23.3031 24.4953 24.4954C23.3031 25.6876 21.686 26.3574 20 26.3574ZM26.3844 14.9548C26.1329 14.9548 25.8871 14.8802 25.6781 14.7404C25.469 14.6007 25.3061 14.4021 25.2099 14.1697C25.1137 13.9374 25.0886 13.6817 25.1377 13.4351C25.1868 13.1885 25.3079 12.962 25.4858 12.7842C25.6636 12.6064 25.8901 12.4853 26.1368 12.4363C26.3834 12.3873 26.6391 12.4124 26.8714 12.5087C27.1037 12.6049 27.3022 12.7679 27.4419 12.977C27.5816 13.1861 27.6562 13.4319 27.6562 13.6834C27.6562 13.8504 27.6233 14.0157 27.5594 14.17C27.4955 14.3243 27.4018 14.4645 27.2837 14.5825C27.1656 14.7006 27.0254 14.7943 26.8711 14.8581C26.7168 14.922 26.5514 14.9549 26.3844 14.9548Z"
            fill="currentColor"/>
    </g>
</svg>
