<svg viewBox="0 0 47 47" fill="none" xmlns="http://www.w3.org/2000/svg">
    <g filter="url(#filter0_d_918_16133)">
        <path fill-rule="evenodd" clip-rule="evenodd"
              d="M21.9836 19.1313C21.2699 19.1313 20.6191 19.762 20.6191 20.6126C20.6191 21.176 20.7406 21.4452 20.8582 21.595C20.9827 21.7535 21.186 21.8857 21.5622 22.0198L25.9539 23.5518C26.4415 23.7254 26.9576 23.9841 27.3381 24.4713C27.7251 24.967 27.8962 25.6001 27.8962 26.373C27.8962 27.9903 26.6481 29.3543 25.0316 29.3543H22.2899C20.503 29.3543 19.1045 27.8492 19.1045 26.0522C19.1045 25.638 19.4403 25.3022 19.8545 25.3022C20.2687 25.3022 20.6045 25.638 20.6045 26.0522C20.6045 27.0843 21.3935 27.8543 22.2899 27.8543H25.0316C25.7484 27.8543 26.3962 27.2349 26.3962 26.373C26.3962 25.8188 26.2755 25.5478 26.1558 25.3945C26.0297 25.233 25.8245 25.0982 25.453 24.9658L21.0613 23.4338C20.5785 23.2619 20.0604 23.0078 19.6784 22.5214C19.2893 22.0258 19.1191 21.3909 19.1191 20.6126C19.1191 19.0132 20.364 17.6313 21.9836 17.6313H24.7253C26.5123 17.6313 27.9108 19.1364 27.9108 20.9334C27.9108 21.3476 27.575 21.6834 27.1608 21.6834C26.7465 21.6834 26.4108 21.3476 26.4108 20.9334C26.4108 19.9013 25.6217 19.1313 24.7253 19.1313H21.9836Z"
              fill="currentColor"/>
        <path fill-rule="evenodd" clip-rule="evenodd"
              d="M23.5 16.1875C23.9142 16.1875 24.25 16.5233 24.25 16.9375V30.0625C24.25 30.4767 23.9142 30.8125 23.5 30.8125C23.0858 30.8125 22.75 30.4767 22.75 30.0625V16.9375C22.75 16.5233 23.0858 16.1875 23.5 16.1875Z"
              fill="currentColor"/>
        <path fill-rule="evenodd" clip-rule="evenodd"
              d="M23.5003 9.6665C15.8645 9.6665 9.66699 15.8641 9.66699 23.4998C9.66699 31.1356 15.8645 37.3332 23.5003 37.3332C31.1361 37.3332 37.3337 31.1356 37.3337 23.4998C37.3337 23.0856 37.6694 22.7498 38.0837 22.7498C38.4979 22.7498 38.8337 23.0856 38.8337 23.4998C38.8337 31.9641 31.9645 38.8332 23.5003 38.8332C15.0361 38.8332 8.16699 31.9641 8.16699 23.4998C8.16699 15.0356 15.0361 8.1665 23.5003 8.1665C23.9145 8.1665 24.2503 8.50229 24.2503 8.9165C24.2503 9.33072 23.9145 9.6665 23.5003 9.6665Z"
              fill="currentColor"/>
        <path fill-rule="evenodd" clip-rule="evenodd"
              d="M30.792 9.625C31.2062 9.625 31.542 9.96079 31.542 10.375V15.4583H36.6253C37.0395 15.4583 37.3753 15.7941 37.3753 16.2083C37.3753 16.6225 37.0395 16.9583 36.6253 16.9583H30.792C30.3778 16.9583 30.042 16.6225 30.042 16.2083V10.375C30.042 9.96079 30.3778 9.625 30.792 9.625Z"
              fill="currentColor"/>
        <path fill-rule="evenodd" clip-rule="evenodd"
              d="M38.614 8.38617C38.9069 8.67907 38.9069 9.15394 38.614 9.44683L31.3223 16.7385C31.0294 17.0314 30.5546 17.0314 30.2617 16.7385C29.9688 16.4456 29.9688 15.9707 30.2617 15.6778L37.5533 8.38617C37.8462 8.09328 38.3211 8.09328 38.614 8.38617Z"
              fill="currentColor"/>
    </g>
</svg>
