<svg viewBox="0 0 17 17" fill="none" xmlns="http://www.w3.org/2000/svg">
    <path
        d="M15.5264 1.47442C13.5864 -0.466383 11.6864 -0.516404 9.69642 1.47442L8.48642 2.68492C8.38642 2.78496 8.34642 2.94503 8.38642 3.08509C9.14642 5.73618 11.2664 7.85706 13.9164 8.61737C13.9564 8.62738 13.9964 8.63738 14.0364 8.63738C14.1464 8.63738 14.2464 8.59737 14.3264 8.51733L15.5264 7.30683C16.5164 6.32643 16.9964 5.37603 16.9964 4.41564C17.0064 3.42523 16.5264 2.46483 15.5264 1.47442Z"
        fill="currentColor"/>
    <path
        d="M12.1162 9.52719C11.8262 9.38713 11.5462 9.24707 11.2762 9.08701C11.0562 8.95695 10.8462 8.8169 10.6362 8.66683C10.4662 8.55679 10.2662 8.39672 10.0762 8.23666C10.0562 8.22665 9.98618 8.16663 9.90618 8.08659C9.57618 7.80648 9.20618 7.44633 8.87618 7.04616C8.84618 7.02615 8.79618 6.95613 8.72618 6.86609C8.62618 6.74604 8.45618 6.54596 8.30618 6.31586C8.18618 6.1658 8.04618 5.94571 7.91618 5.72562C7.75618 5.45551 7.61618 5.18539 7.47618 4.90528C7.455 4.85987 7.4345 4.81469 7.41462 4.76977C7.26707 4.43636 6.83231 4.33891 6.57456 4.59677L0.846178 10.3275C0.716178 10.4576 0.596178 10.7077 0.566178 10.8777L0.0261781 14.7093C-0.0738219 15.3896 0.116178 16.0299 0.536178 16.4601C0.896178 16.8102 1.39618 17.0003 1.93618 17.0003C2.05618 17.0003 2.17618 16.9903 2.29618 16.9703L6.13618 16.43C6.31618 16.4 6.56618 16.28 6.68618 16.1499L12.4078 10.4259C12.6673 10.1664 12.5694 9.72103 12.2318 9.57696C12.1937 9.56069 12.1552 9.54411 12.1162 9.52719Z"
        fill="currentColor"/>
</svg>

