<svg viewBox="0 0 20 20" fill="none" xmlns="http://www.w3.org/2000/svg">
    <path fill-rule="evenodd" clip-rule="evenodd"
          d="M10.0003 15.8333C10.7663 15.8333 11.5248 15.6825 12.2326 15.3893C12.9403 15.0962 13.5834 14.6665 14.125 14.1248C14.6667 13.5831 15.0964 12.9401 15.3896 12.2323C15.6827 11.5246 15.8336 10.7661 15.8336 10C15.8336 9.23396 15.6827 8.47542 15.3896 7.76769C15.0964 7.05995 14.6667 6.41689 14.125 5.87522C13.5834 5.33354 12.9403 4.90386 12.2326 4.61071C11.5248 4.31756 10.7663 4.16667 10.0003 4.16667C8.45316 4.16667 6.96943 4.78126 5.87547 5.87522C4.78151 6.96918 4.16693 8.45291 4.16693 10C4.16693 11.5471 4.78151 13.0308 5.87547 14.1248C6.96943 15.2188 8.45316 15.8333 10.0003 15.8333ZM10.0003 17.5C11.6996 17.4999 13.3485 16.9226 14.6769 15.8628C16.0053 14.8031 16.9344 13.3236 17.3121 11.6667C17.6897 10.0099 17.4935 8.27389 16.7556 6.74314C16.0176 5.21238 14.7817 3.97761 13.2503 3.24108C11.7188 2.50454 9.98269 2.30992 8.32619 2.68908C6.66968 3.06824 5.19105 3.99872 4.13249 5.32808C3.07393 6.65745 2.4982 8.3069 2.49961 10.0062C2.50103 11.7056 3.07949 13.3541 4.14026 14.6817L1.80859 17.0117L2.98776 18.19L5.31776 15.86C6.6461 16.9243 8.29814 17.5029 10.0003 17.5ZM8.33359 6.66667H11.6669V9.44417L10.5561 10.5558H9.44443L8.33359 9.44417V6.66667ZM6.66693 13.3333V11.3892L8.61109 10.5558L9.16693 11.1108H10.8336L11.3894 10.5558L13.3336 11.3892V13.3333H6.66693Z"
          fill="currentColor"/>
</svg>
