<svg width="42" height="46" viewBox="0 0 42 46" fill="none" xmlns="http://www.w3.org/2000/svg">
    <path
        d="M41 12.6667L36 9.75M41 12.6667V17.6667M41 12.6667L36 15.5833M1 12.6667L6 9.75M1 12.6667L6 15.5833M1 12.6667V17.6667M21 24.3333L26 21.4167M21 24.3333L16 21.4167M21 24.3333V29.3333M21 44.3333L26 41.4167M21 44.3333V39.3333M21 44.3333L16 41.4167M16 3.91667L21 1L26 3.91667M41 27.6667V32.6667L36 35.5833M6 35.5833L1 32.6667V27.6667"
        stroke="currentColor" stroke-width="1.5" stroke-linecap="round" stroke-linejoin="round"/>
</svg>

