<svg width="42" height="34" viewBox="0 0 42 34" fill="none" xmlns="http://www.w3.org/2000/svg">
    <path
        d="M9.80208 1C8.58341 1 7.66667 2.33333 7.66667 2.33333C0.686666 2.33333 4.53764 13.4745 2.48697 15.1172C2.48697 15.1172 3.744 16.6719 7.66667 16.6719V18.0027C6.58267 20.8267 1 19.7827 1 25H11.6979C12.6366 24.432 15.6667 22.8568 15.6667 22.8568C14.9427 22.0835 13.8983 20.7464 13.5183 19.7344C12.6862 19.3171 11.9827 18.8267 11.6667 18.0027V16.6563C11.92 16.6563 12.667 16.5977 12.9297 16.5391C12.335 15.6231 11.8333 13.5352 11.8333 12.3646C11.8333 9.38725 13.1155 6.93831 15.2421 5.40364C14.6008 2.94897 13.1768 1 9.80208 1ZM31.6667 1C28.7027 1 26.8827 3.03893 26.4427 5.71093C28.5973 6.8656 30 9.35492 30 12.4896C30 13.4696 29.7715 14.4125 29.5235 15.1432C29.6155 15.5045 29.6667 15.9075 29.6667 16.3541C29.6667 19.6475 26.3333 22.9323 26.3333 22.9323C27.0573 23.2483 29.3736 24.4253 30.3203 25H41C41 18 35.316 20 34.3333 17V15C34.776 14.7773 35.8303 13.2443 35.9636 12.0469C36.3103 12.0202 37 11.1727 37 10.4141C37 9.6554 36.7588 9.33621 36.5495 9.21355C36.5495 9.21355 37 8.212 37 7C37 4.572 36.344 2.33333 34.3333 2.33333C34.3333 2.33333 33.756 1 31.6667 1ZM21 6.33333C17.4107 6.33333 14.5 8.49525 14.5 12.3646C14.5 14.0005 15.4167 15.276 15.4167 15.276C15.4167 15.276 15 15.4808 15 16.3541C15 18.0515 16.0912 18.4584 16.0912 18.4584C16.2432 19.8024 18.3333 21.7708 18.3333 21.7708V24.0183C17.2107 27.3863 10.3333 25.1667 10.3333 33H31.6667C31.6667 25.14 24.7893 27.3863 23.6667 24.0183V21.7708C23.6667 21.7708 25.7568 19.8024 25.9088 18.4584C25.9088 18.4584 27 17.7048 27 16.3541C27 15.4181 26.5833 15.276 26.5833 15.276C26.5833 15.276 27.3333 13.8496 27.3333 12.4896C27.3333 9.76292 25.9653 7.66667 23.6667 7.66667C23.6667 7.66667 22.6907 6.33333 21 6.33333Z"
        stroke="currentColor" stroke-width="1.25" stroke-linejoin="round"/>
</svg>

