<svg width="32" height="32" viewBox="0 0 32 32" fill="none" xmlns="http://www.w3.org/2000/svg">
    <g clip-path="url(#clip0_335_19497)">
        <path
            d="M15.6604 31.7042C24.1674 31.7042 31.06 24.8116 31.06 16.3046C31.06 7.79753 24.1674 0.904907 15.6604 0.904907C7.15337 0.904907 0.260742 7.79753 0.260742 16.3046C0.260742 24.8116 7.15337 31.7042 15.6604 31.7042ZM7.30737 15.9709L22.1552 10.2461C22.8443 9.99712 23.4462 10.4142 23.2229 11.4562L23.2242 11.4549L20.6961 23.3653C20.5087 24.2097 20.0069 24.415 19.305 24.0172L15.4551 21.1798L13.5981 22.9688C13.3928 23.1741 13.2195 23.3473 12.8217 23.3473L13.0951 19.4294L20.2302 12.9834C20.5408 12.71 20.1609 12.556 19.7516 12.8281L10.934 18.3797L7.13284 17.1939C6.30767 16.9321 6.28971 16.3687 7.30737 15.9709Z"
            fill="currentColor" />
    </g>
    <defs>
        <clipPath id="clip0_335_19497">
            <rect width="30.7993" height="30.7993" fill="currentColor"
                transform="translate(0.260742 0.904907)" />
        </clipPath>
    </defs>
</svg>
