<svg viewBox="0 0 32 32" fill="none" xmlns="http://www.w3.org/2000/svg">
    <path fill-rule="evenodd" clip-rule="evenodd"
        d="M15.887 0.904907C24.3923 0.904907 31.2866 7.79926 31.2866 16.3046C31.2866 24.8099 24.3923 31.7042 15.887 31.7042C7.38166 31.7042 0.487305 24.8099 0.487305 16.3046C0.487305 7.79926 7.38166 0.904907 15.887 0.904907ZM9.95508 9.12267L9.01847 11.6209V21.612H12.4515V23.4864H14.3259L16.1986 21.612H19.0084L22.7554 17.8668V9.12267H9.95508ZM11.2033 10.3709H21.5066V17.2406L19.3206 19.4266H15.887L14.0149 21.2986V19.4266H11.2033V10.3709ZM14.6381 16.6168H15.887V12.8703H14.6381V16.6168ZM18.0718 16.6168H19.3206V12.8703H18.0718V16.6168Z"
        fill="currentColor" />
</svg>
