<?xml version="1.0" encoding="UTF-8"?>
<svg id="_Слой_1" data-name="Слой 1" xmlns="http://www.w3.org/2000/svg" viewBox="0 0 196 136">
    <defs>
        <style>
            .cls-1 {
            fill: #d4d4d4;
            }
        </style>
    </defs>
    <path class="cls-1" d="M73.19,92.87l7.58-2.73,.06-.02,.12-4.61-7.76,7.35Zm0,0" />
    <path class="cls-1"
        d="M124.63,59.13c-1.01-2.96-2.51-5.73-4.42-8.19l2.77-7.68-7.4,7.87,4.59-.15-5.19,.63h-.24v-.3h-.31v-.23l.77-5.16c-2.46-1.92-5.23-3.42-8.19-4.42-5.75-1.91-11.98-1.91-17.74,0-2.96,1.01-5.74,2.52-8.19,4.46l-7.7-2.78,8.05,7.6-.14-4.86,.72,5.04v.33h-.33v.33h-.35l-4.99-.76,4.38,.17-7.33-7.76,2.76,7.68c-1.94,2.45-3.45,5.23-4.47,8.19-1.91,5.75-1.91,11.98,0,17.73,1.02,2.97,2.52,5.75,4.47,8.19l-2.75,7.59,7.4-7.75-4.61,.14,4.85-.66h.25v.3h.33v.25l-.78,5.14c2.46,1.91,5.23,3.41,8.19,4.42,5.76,1.88,11.97,1.88,17.74,0,2.95-1.01,5.72-2.5,8.19-4.41h-.21c.3,0,.3-.14,.29-.2v-1.26c0-.46,0-.94-.1-1.41-.1-.47-.18-1.42-.29-2.05l-.26-.25,.18-.16v-.29h.35v-.31h.18c.77,.21,1.58,.39,2.35,.56l1.29,.2,.64,.1h.49s.1,0,.21-.29v.35c1.94-2.46,3.46-5.23,4.47-8.19,1.91-5.76,1.91-11.99,0-17.74l.08-.04Zm-19.76,3.46c0-1.14-2.55-3.65-2.55-3.65l-5.45,.17-3.7,2.19c-1.85,4.95,1.33,6.58,1.33,6.58l1.93-1.26c-.76-.29-1.26-1.02-1.29-1.84,0-1.51,2.05-1.6,3.91-1.1,1.86,.49,2.93,4.24,2.86,6.15-.06,1.9-2.86,3.26-2.86,3.26h-1.38c-2.27,1.49-5.28,1.07-7.05-.98l-4.1-5.94-.57-4.96,.31-2.34,2.15-.71,1.83-2.44,6.25-3.71,.37,.61,1.19,.58,1.58-.92,6.88,2.6,4.1,5.49,1.64,5.18-.53,6.15-2.38,5.18-2.05,1.22-.31,1.34-4.87,2.26h-3.14l-3.6,.98-6.62-2.05-.98-1.43s9.48-3.66,12.8-5.18c1.88-.78,3.31-2.35,3.94-4.28l.79-.41s-.31-5.55-.41-6.72h-.01Zm0,0" />
    <path class="cls-1" d="M115.23,45.86h.04l-.18,4.65,7.83-7.42,.02-.02-7.71,2.79Zm0,0" />
    <path class="cls-1"
        d="M122.4,92.42l-.51-.51-1.05-1.02-2.05-2.05c-1.14-1.11-2.33-2.18-3.52-3.22v4.3s0,.13,.33,.17h-.33l7.5,2.71c0-.11-.08-.2-.18-.21l-.18-.16Zm0,0" />
    <path class="cls-1"
        d="M119.96,85.16h-1.15c-.43,0-.86-.1-1.29-.12-.75-.04-1.5-.04-2.26,0,1.19,1.33,2.38,2.64,3.61,3.93l2.05,2.05,1.02,1.05,.51,.51h.12c.06,.02,.14,.02,.21,0l-2.26-6.15-.41-1.17v.33c-.06-.43-.13-.43-.17-.43h0Zm0,0" />
    <path class="cls-1" d="M122.91,43.09l.02-.02-.02,.02Zm0,0" />
    <path class="cls-1" d="M127.13,67.67l12.89,.33-14.04-8.19c.73,2.56,1.11,5.2,1.15,7.87h0Zm0,0" />
    <path class="cls-1"
        d="M127.13,68.33c-.04,2.63-.42,5.25-1.15,7.79l14.04-8.19-12.89,.41Zm-29.46-29.44l.33-12.91-8.19,14.06c2.67-.77,5.42-1.15,8.19-1.15h-.33Zm.33,0c2.71,.02,5.42,.4,8.03,1.15l-8.03-14.06,.33,12.91h-.33Zm0,71.13l8.19-14.04c-2.54,.72-5.15,1.1-7.79,1.15l-.41,12.89Zm-8.19-14.04l8.19,14.04-.33-12.89c-2.67-.03-5.31-.42-7.87-1.15h0Zm-19.79-36.18l-14.04,8.19,12.89-.33c.03-2.67,.42-5.31,1.15-7.87h0Zm-14.04,8.19l14.04,8.19c-.72-2.54-1.1-5.15-1.15-7.79l-12.89-.41Zm0,0" />
    <path class="cls-1" d="M73.06,43.06l.02,.02-.02-.02Zm0,0" />
</svg>
