<?xml version="1.0" encoding="UTF-8"?>
<svg id="_Слой_1" data-name="Слой 1" xmlns="http://www.w3.org/2000/svg" viewBox="0 0 196 136">
    <defs>
        <style>
            .cls-1 {
            fill: #d4d4d4;
            }
        </style>
    </defs>
    <g>
        <path class="cls-1"
            d="M68.07,64.97l8.96-8.45-39.84-21.9c-.59-.33-1.21-.46-1.82-.49l32.7,30.85Z" />
        <path class="cls-1"
            d="M31.45,36.29c-.33,.6-.53,1.28-.53,2.04v59.15c0,.76,.2,1.44,.53,2.04l33.51-31.61L31.45,36.29Z" />
        <path class="cls-1"
            d="M90.98,64.19l-10.03-5.52-9.78,9.22,9.78,9.22,10.03-5.52c2.92-1.61,2.92-5.81,0-7.42Z" />
        <path class="cls-1"
            d="M68.07,70.83l-32.7,30.85c.61-.03,1.23-.17,1.82-.49l39.84-21.9-8.96-8.45Z" />
    </g>
    <g>
        <path class="cls-1"
            d="M68.07,64.97l8.96-8.45-39.84-21.9c-.59-.33-1.21-.46-1.82-.49l32.7,30.85Z" />
        <path class="cls-1"
            d="M31.45,36.29c-.33,.6-.53,1.28-.53,2.04v59.15c0,.76,.2,1.44,.53,2.04l33.51-31.61L31.45,36.29Z" />
        <path class="cls-1"
            d="M90.98,64.19l-10.03-5.52-9.78,9.22,9.78,9.22,10.03-5.52c2.92-1.61,2.92-5.81,0-7.42Z" />
        <path class="cls-1"
            d="M68.07,70.83l-32.7,30.85c.61-.03,1.23-.17,1.82-.49l39.84-21.9-8.96-8.45Z" />
    </g>
    <path class="cls-1"
        d="M155.99,70.14c.1,10.25,8.99,13.66,9.09,13.7-.08,.24-1.42,4.86-4.69,9.63-2.82,4.13-5.75,8.23-10.37,8.32-4.53,.08-5.99-2.69-11.18-2.69s-6.8,2.6-11.09,2.77c-4.45,.17-7.85-4.46-10.69-8.57-5.82-8.41-10.26-23.76-4.29-34.12,2.96-5.15,8.26-8.4,14.01-8.49,4.37-.08,8.5,2.94,11.18,2.94s7.69-3.64,12.96-3.1c2.21,.09,8.41,.89,12.38,6.72-.32,.2-7.39,4.32-7.32,12.88m-8.52-25.16c2.36-2.86,3.96-6.85,3.52-10.81-3.41,.14-7.53,2.27-9.97,5.13-2.19,2.53-4.11,6.59-3.59,10.47,3.8,.29,7.68-1.93,10.05-4.79" />
</svg>
