<?xml version="1.0" encoding="UTF-8"?>
<svg id="_Слой_1" data-name="Слой 1" xmlns="http://www.w3.org/2000/svg" viewBox="0 0 196 136">
    <defs>
        <style>
            .cls-1 {
            fill: none;
            }

            .cls-2 {
            fill: #d4d4d4;
            }
        </style>
    </defs>
    <path class="cls-1" d="M98,120.74h52.74v-52.74c0,29.13-23.61,52.74-52.74,52.74Z" />
    <path class="cls-1"
        d="M45.32,65.74c.01-.33,.03-.65,.05-.98,.02-.27,.02-.55,.04-.82h.02c2.07-27.22,24.81-48.68,52.57-48.68H45.26v52.74c0-.19,.01-.38,.01-.57,0-.56,.02-1.12,.04-1.69Z" />
    <path class="cls-1"
        d="M47.43,82.97h-.02c-.12-.41-.22-.81-.32-1.21-.07-.26-.15-.52-.21-.79-.16-.62-.3-1.24-.43-1.86-.04-.19-.09-.38-.13-.57-.34-1.69-.6-3.39-.78-5.12,0-.07-.01-.14-.02-.21-.08-.78-.14-1.56-.18-2.34-.01-.21-.02-.42-.02-.63-.03-.64-.05-1.28-.05-1.93,0-.11,0-.21,0-.32v52.74h52.74c-23.92,0-44.12-15.94-50.57-37.77Z" />
    <path class="cls-1" d="M98,15.26c29.13,0,52.74,23.61,52.74,52.74V15.26h-52.74Z" />
    <path class="cls-2"
        d="M115.6,67.82c7.35,0,13.3-5.96,13.3-13.3s-5.96-13.3-13.3-13.3-13.3,5.96-13.3,13.3,5.96,13.3,13.3,13.3Zm0-23.47c5.61,0,10.16,4.55,10.16,10.16s-4.55,10.16-10.16,10.16-10.16-4.55-10.16-10.16,4.55-10.16,10.16-10.16Z" />
    <path class="cls-2"
        d="M81.91,99.52c6.24,0,11.31-5.06,11.31-11.31s-5.06-11.31-11.31-11.31c-1.43,0-2.79,.26-4.05,.75,5.17,2.18,12.07,3.33,12.07,10.39,0,4.62-3.75,8.37-8.37,8.37-2.67,0-7.3-2.38-9.92-3.46,1.79,3.88,5.72,6.57,10.27,6.57Z" />
    <path class="cls-2"
        d="M98,15.26c-27.76,0-50.5,21.46-52.57,48.69l27.66,11.69c2.49-1.75,5.53-2.78,8.81-2.78,.34,0,.69,.01,1.02,.03l12.5-18.31h0c0-11.11,9-20.11,20.11-20.11s20.11,9,20.11,20.11-9,20.11-20.11,20.11c-.15,0-.31,0-.46,0l-17.84,12.68h0c.02,.28,.02,.56,.02,.84,0,8.48-6.87,15.35-15.35,15.35-7.54,0-13.81-5.44-15.11-12.61l-19.37-7.99c6.45,21.83,26.65,37.77,50.57,37.77,29.13,0,52.74-23.61,52.74-52.74S127.13,15.26,98,15.26Z" />
</svg>
